<?xml version="1.0" standalone="no"?>
<!DOCTYPE svg PUBLIC "-//W3C//DTD SVG 1.1//EN" "http://www.w3.org/Graphics/SVG/1.1/DTD/svg11.dtd" >
<svg xmlns="http://www.w3.org/2000/svg" xmlns:xlink="http://www.w3.org/1999/xlink" version="1.1">
<metadata>
Created by FontForge 20170731 at Tue Sep 26 12:15:51 2023
 By Aleksey,,,
Copyright 2011 The Philosopher Project Authors (lemonad@jovanny.ru)
</metadata>
<defs>
<font id="Philosopher-Italic" horiz-adv-x="1075" >
  <font-face 
    font-family="Philosopher"
    font-weight="400"
    font-style="italic"
    font-stretch="normal"
    units-per-em="2048"
    panose-1="0 0 5 0 0 0 0 0 0 0"
    ascent="1638"
    descent="-410"
    x-height="963"
    cap-height="1352"
    bbox="-680 -666 2036 2025"
    underline-thickness="102"
    underline-position="-307"
    slope="-10"
    unicode-range="U+000D-2215"
  />
<missing-glyph horiz-adv-x="1110" 
d="M666 463h-222v176h-73v-250h368v250h-221v-123h74v49h74v-102zM371 4h368v252h-368v-252zM739 909h-73v-145h-295v-76h368v221zM518 889h-147v-74h221v156h147v73h-368v-73h147v-82zM371 1393h368v71h-147v84h147v72h-366v-72h145v-84h-147v-71zM592 1335h-221v-231h368
v76h-147v155zM371 -297h368v74h-227l156 104h71v72h-368v-72h155l-155 -104v-74zM444 78v104h222v-104h-222zM207 -451v2220h702v-2220h-702zM444 1180v80h74v-80h-74z" />
    <glyph glyph-name=".notdef" horiz-adv-x="1110" 
d="M666 463h-222v176h-73v-250h368v250h-221v-123h74v49h74v-102zM371 4h368v252h-368v-252zM739 909h-73v-145h-295v-76h368v221zM518 889h-147v-74h221v156h147v73h-368v-73h147v-82zM371 1393h368v71h-147v84h147v72h-366v-72h145v-84h-147v-71zM592 1335h-221v-231h368
v76h-147v155zM371 -297h368v74h-227l156 104h71v72h-368v-72h155l-155 -104v-74zM444 78v104h222v-104h-222zM207 -451v2220h702v-2220h-702zM444 1180v80h74v-80h-74z" />
    <glyph glyph-name="uni0000" horiz-adv-x="0" 
 />
    <glyph glyph-name="uni0000" horiz-adv-x="0" 
 />
    <glyph glyph-name="uni000D" unicode="&#xd;" horiz-adv-x="512" 
 />
    <glyph glyph-name="space" unicode=" " horiz-adv-x="512" 
 />
    <glyph glyph-name="exclam" unicode="!" horiz-adv-x="489" 
d="M260 317h-119l146 1035h192zM139 -29q-41 0 -66.5 25.5t-25.5 66.5q0 50 39 90t92 40q41 0 67.5 -27t26.5 -66q0 -48 -41.5 -88.5t-91.5 -40.5z" />
    <glyph glyph-name="quotedbl" unicode="&#x22;" horiz-adv-x="753" 
d="M291 799h-82l37 553h205zM618 799h-81l36 553h205z" />
    <glyph glyph-name="numbersign" unicode="#" horiz-adv-x="1370" 
d="M913 850h-297l-141 -369h299zM856 358l-133 -358h-133l133 358h-297l-133 -358h-133l133 358h-266l22 123h295l139 369h-245l20 123h272l160 409h133l-159 -409h297l159 409h133l-159 -409h280l-20 -123h-307l-142 -369h260l-22 -123h-287z" />
    <glyph glyph-name="dollar" unicode="$" horiz-adv-x="1073" 
d="M588 539l-25 14l-88 -506q74 4 139.5 34t109.5 87.5t44 130.5q0 65 -41.5 118t-138.5 122zM530 834l84 473q-108 -10 -186 -77t-78 -171q0 -65 39.5 -112t140.5 -113zM461 -35l-25 -129h-82l25 133q-50 4 -104.5 18.5t-110 39.5t-91.5 68.5t-36 97.5q0 21 41 241h37v-8
q0 -179 67.5 -269.5t210.5 -107.5l96 553l-127 86q-101 68 -142.5 130.5t-41.5 148.5q0 177 128.5 293.5t322.5 128.5l20 116h82l-20 -121q51 -4 103.5 -17.5t106.5 -37.5t88.5 -66t34.5 -96q0 -14 -8 -55l-32 -188h-37v8q0 175 -66.5 264.5t-204.5 106.5l-92 -519l156 -102
q107 -71 154 -133.5t47 -142.5q0 -125 -69.5 -225t-182.5 -155t-248 -61z" />
    <glyph glyph-name="percent" unicode="%" horiz-adv-x="1384" 
d="M408 809q-123 0 -188.5 56t-65.5 159q0 142 101 240t251 98q123 0 188.5 -56t65.5 -159q0 -142 -101 -240t-251 -98zM205 0h-154l1170 1352h153zM420 881q97 0 157 76t60 188q0 145 -143 145q-97 0 -157.5 -77t-60.5 -189q0 -143 144 -143zM920 -10q-123 0 -189.5 55.5
t-66.5 159.5q0 142 101 240t251 98q123 0 188.5 -56t65.5 -159q0 -142 -99.5 -240t-250.5 -98zM932 61q97 0 156 77.5t59 189.5q0 143 -143 143q-97 0 -157.5 -76t-60.5 -188q0 -146 146 -146z" />
    <glyph glyph-name="ampersand" unicode="&#x26;" horiz-adv-x="1257" 
d="M461 31q176 0 325 104l-340 461q-219 -160 -219 -367q0 -198 234 -198zM549 768q124 91 187 182.5t63 204.5q0 81 -36 123.5t-93 42.5q-96 0 -158.5 -93t-62.5 -208q0 -77 33 -147.5t67 -104.5zM410 -41q-182 0 -280.5 73t-98.5 197q0 165 174 303q71 56 192 136
q-68 68 -106.5 155.5t-38.5 180.5q0 166 124.5 277.5t305.5 111.5q138 0 215.5 -63.5t77.5 -170.5q0 -134 -94.5 -241.5t-282.5 -221.5l334 -450q148 141 229 256l35 -31l-61 -86q-86 -113 -168 -186l147 -199h-225l-68 88q-197 -129 -411 -129z" />
    <glyph glyph-name="quotesingle" unicode="'" horiz-adv-x="425" 
d="M291 799h-82l37 553h205z" />
    <glyph glyph-name="parenleft" unicode="(" horiz-adv-x="634" 
d="M432 -399l-26 -31q-187 162 -277 334t-90 383q0 230 82 431.5t232 368t378 326.5l17 -31q-173 -135 -294.5 -328.5t-180 -408t-58.5 -438.5q0 -382 217 -606z" />
    <glyph glyph-name="parenright" unicode=")" horiz-adv-x="634" 
d="M-125 -430l-14 31q258 205 394 517t136 656q0 375 -217 608l25 31q188 -161 278 -334t90 -385q0 -230 -82.5 -432t-233 -369.5t-376.5 -322.5z" />
    <glyph glyph-name="asterisk" unicode="*" horiz-adv-x="870" 
d="M535 676h-164l114 307l-272 -215l-57 143l315 103l-278 102l106 144l197 -216l-7 308h164l-116 -308l274 216l57 -144l-315 -102l278 -103l-106 -143l-199 215z" />
    <glyph glyph-name="plus" unicode="+" horiz-adv-x="1083" 
d="M539 205h-123l71 409h-409l22 123h410l72 410h123l-72 -410h409l-22 -123h-410z" />
    <glyph glyph-name="comma" unicode="," horiz-adv-x="493" 
d="M-6 -317l-14 30q92 58 144 124.5t69 152.5l-66 -21q-41 0 -67.5 26.5t-26.5 65.5q0 56 43 100t102 44q113 0 113 -107q0 -121 -82.5 -232.5t-214.5 -182.5z" />
    <glyph glyph-name="hyphen" unicode="-" horiz-adv-x="796" 
d="M643 471h-522l24 143h523z" />
    <glyph glyph-name="period" unicode="." horiz-adv-x="460" 
d="M127 -29q-41 0 -66.5 25.5t-25.5 66.5q0 52 39 92t92 40q42 0 68 -27t26 -66q0 -50 -40 -90.5t-93 -40.5z" />
    <glyph glyph-name="slash" unicode="/" horiz-adv-x="911" 
d="M102 0h-149l895 1352h149z" />
    <glyph glyph-name="zero" unicode="0" horiz-adv-x="1202" 
d="M508 41q135 0 237 156t151.5 381.5t49.5 443.5q0 151 -50.5 220t-164.5 69q-136 0 -235 -156q-99 -154 -150 -384t-51 -443q0 -149 50.5 -218t162.5 -69zM494 -41q-392 0 -392 453q0 87 10 178t33.5 188t58.5 185t87.5 167.5t116.5 137t151 91.5t186 34q392 0 392 -455
q0 -87 -10 -178t-33.5 -188t-58 -184.5t-87 -166.5t-116.5 -136.5t-151 -91.5t-187 -34z" />
    <glyph glyph-name="one" unicode="1" horiz-adv-x="626" 
d="M348 0h-184l201 1147l-222 -129l-28 47l368 287h103z" />
    <glyph glyph-name="two" unicode="2" horiz-adv-x="1089" 
d="M-10 0l16 102q106 98 348 295q175 142 283 244q203 197 203 440q0 110 -60.5 170t-161.5 60q-126 0 -233 -91.5t-166 -256.5h-41q21 109 40.5 167.5t55.5 98.5q71 71 187.5 117.5t232.5 46.5q142 0 246 -64t104 -231q0 -293 -350 -592q-152 -130 -364 -287
q-45 -34 -90.5 -68t-66.5 -49.5t-26 -19.5h461q256 0 293 215h41l-22 -133q-30 -164 -203 -164h-727z" />
    <glyph glyph-name="three" unicode="3" horiz-adv-x="1087" 
d="M438 -41q-279 0 -424 219l39 37q122 -174 348 -174q158 0 265.5 123t107.5 291q0 111 -63 176t-154 65q-92 0 -250 -30l-39 86l647 518h-378q-255 0 -295 -215h-41l24 133q30 164 203 164h651l-14 -82l-639 -512q67 20 188 20q45 0 91 -8.5t97 -31t89.5 -57t64 -91
t25.5 -127.5q0 -110 -45 -205.5t-119.5 -160t-173.5 -101.5t-205 -37z" />
    <glyph glyph-name="four" unicode="4" horiz-adv-x="1124" 
d="M139 430h533l127 725zM1018 1352l-162 -922h184l-16 -82h-184l-60 -348h-184l59 348h-655l16 82l838 922h164z" />
    <glyph glyph-name="five" unicode="5" horiz-adv-x="1091" 
d="M422 -41q-142 0 -235 51.5t-169 163.5l45 35q123 -168 343 -168q168 0 271 122t103 298q0 235 -280 235q-84 0 -176 -10l-82 -10l-68 82l125 594h768l-14 -82h-600l-107 -502l68 4q117 6 143 6q174 0 301 -71t127 -244q0 -109 -45 -203.5t-121.5 -160t-180 -103
t-216.5 -37.5z" />
    <glyph glyph-name="six" unicode="6" horiz-adv-x="1101" 
d="M487 41q78 0 143 53t103.5 133t59 165t20.5 159q0 248 -223 248q-71 0 -132.5 -25t-131.5 -78q-33 -179 -33 -321q0 -334 194 -334zM473 -41q-190 0 -281.5 108t-91.5 328q0 92 10.5 185.5t34 192.5t59 188t89.5 169t121 137.5t157.5 91.5t194.5 34q156 0 307 -62
l-16 -41q-126 21 -264 21q-176 0 -292 -137t-159 -386q150 93 324 93q169 0 254.5 -85t85.5 -243q0 -156 -65 -290.5t-188.5 -219t-279.5 -84.5z" />
    <glyph glyph-name="seven" unicode="7" horiz-adv-x="976" 
d="M147 0l736 1270h-410q-255 0 -295 -215h-41l25 133q30 164 203 164h716l-14 -82l-735 -1270h-185z" />
    <glyph glyph-name="eight" unicode="8" horiz-adv-x="1138" 
d="M475 41q129 0 226.5 84t97.5 211q0 93 -63 161t-206 148q-132 -59 -211 -162.5t-79 -234.5q0 -98 65 -152.5t170 -54.5zM678 778q209 138 209 352q0 92 -52 136.5t-137 44.5q-109 0 -187.5 -73.5t-78.5 -184.5q0 -149 246 -275zM461 -41q-190 0 -303 73t-113 210
q0 146 100.5 250t300.5 194q-110 67 -164.5 137.5t-54.5 163.5q0 127 66 220.5t175 139.5t245 46q174 0 271 -63.5t97 -194.5q0 -127 -84 -230.5t-237 -177.5q50 -34 75.5 -52.5t63.5 -53t57 -64t33.5 -72.5t14.5 -92q0 -133 -77 -233.5t-199 -150.5t-267 -50z" />
    <glyph glyph-name="nine" unicode="9" horiz-adv-x="1103" 
d="M551 553q132 0 264 102q33 179 33 322q0 334 -195 334q-78 0 -143 -53t-103 -134t-58.5 -166t-20.5 -159q0 -246 223 -246zM375 -41q-154 0 -307 61l18 41q114 -20 262 -20q176 0 292 136.5t159 385.5q-145 -92 -324 -92q-171 0 -255.5 84t-84.5 244q0 156 65 290.5
t188.5 219t279.5 84.5q190 0 281 -109.5t91 -331.5q0 -108 -14.5 -217t-45 -223t-83.5 -211.5t-124 -175t-173.5 -122t-224.5 -44.5z" />
    <glyph glyph-name="colon" unicode=":" horiz-adv-x="497" 
d="M276 723q-41 0 -67.5 25.5t-26.5 66.5q0 49 41 89t92 40q42 0 67.5 -25.5t25.5 -64.5q0 -52 -39.5 -91.5t-92.5 -39.5zM141 -29q-41 0 -66.5 25.5t-25.5 66.5q0 52 39 92t92 40q42 0 69 -27t27 -66q0 -50 -41 -90.5t-94 -40.5z" />
    <glyph glyph-name="semicolon" unicode=";" horiz-adv-x="530" 
d="M297 725q-41 0 -67.5 25t-26.5 63q0 52 39 91.5t94 39.5q41 0 67.5 -26.5t26.5 -65.5q0 -48 -41 -87.5t-92 -39.5zM10 -315l-16 28q102 70 151 133t66 154q-31 -31 -78 -31q-40 0 -62 24.5t-22 63.5q0 60 46.5 104t109.5 44q45 0 71.5 -31t26.5 -86q0 -117 -74.5 -214
t-218.5 -189z" />
    <glyph glyph-name="less" unicode="&#x3c;" horiz-adv-x="1269" 
d="M1083 317l-22 -122l-983 460l10 62l1147 461l-23 -123l-917 -369z" />
    <glyph glyph-name="equal" unicode="=" horiz-adv-x="1355" 
d="M1253 799h-1075l23 123h1075zM1190 430h-1075l20 123h1075z" />
    <glyph glyph-name="greater" unicode="&#x3e;" horiz-adv-x="1269" 
d="M1223 655l-1147 -460l22 122l920 369l-791 369l23 123l983 -461z" />
    <glyph glyph-name="question" unicode="?" horiz-adv-x="985" 
d="M463 319h-82q22 96 70 172t145 185q78 91 114 141t60 113q27 70 27 151q0 110 -60.5 170t-161.5 60q-126 0 -234 -92t-167 -256h-41q21 116 39.5 171t58.5 95q71 71 187.5 117.5t232.5 46.5q142 0 246 -64t104 -231q0 -66 -15 -123.5t-36 -98.5t-62.5 -87.5t-73.5 -75.5
t-91 -78q-120 -97 -175.5 -161t-84.5 -155zM360 -27q-42 0 -67 25.5t-25 64.5q0 52 39 93t92 41q43 0 70 -27t27 -68q0 -50 -41 -89.5t-95 -39.5z" />
    <glyph glyph-name="at" unicode="@" horiz-adv-x="1751" 
d="M754 82q75 0 129 33t108 100l103 584q-28 62 -67.5 92.5t-104.5 30.5q-72 0 -132 -41t-99 -104.5t-66.5 -143t-39.5 -154t-12 -139.5q0 -122 45.5 -190t135.5 -68zM715 -369q-310 0 -487 172t-177 484q0 169 42 331t125 302t198.5 245.5t272 166.5t335.5 61
q311 0 490.5 -169t179.5 -472q0 -82 -12 -165t-36.5 -167.5t-66.5 -157t-97 -129.5t-132.5 -90t-169.5 -33q-80 0 -125.5 25t-71.5 78h-10q-107 -113 -285 -113q-150 0 -228.5 95.5t-78.5 258.5q0 107 33.5 219.5t94 209.5t156.5 159t209 62q169 0 236 -113h10l88 92h103
l-135 -768q-2 -4 -2 -31q0 -43 20.5 -67.5t60.5 -24.5q73 0 135 49.5t101 124t67 165t40 170t12 140.5q0 273 -158.5 421.5t-441.5 148.5q-164 0 -306.5 -56t-246 -153t-177.5 -226t-110.5 -276.5t-36.5 -302.5q0 -282 156.5 -433t439.5 -151q386 0 666 174l30 -61
q-319 -195 -710 -195z" />
    <glyph glyph-name="A" unicode="A" horiz-adv-x="1298" 
d="M322 471h501l-141 594zM1180 -10q-101 0 -183 55q-83 51 -118 211l-29 133h-574l-231 -389h-92l811 1352h61l258 -1096q25 -118 64 -163t123 -52l-6 -41q-45 -10 -84 -10z" />
    <glyph glyph-name="B" unicode="B" horiz-adv-x="1277" 
d="M512 72q67 0 130.5 13t120.5 41t100 68t68 97.5t25 126.5q0 111 -87.5 169t-256.5 58h-194l-96 -545q95 -28 190 -28zM526 1260l-94 -533h195q92 0 178.5 38.5t144.5 114t58 169.5q0 61 -30 107.5t-79 72.5t-103.5 38.5t-111.5 12.5q-77 0 -158 -20zM530 0h-409l194 1106
q9 44 9 88q0 59 -27.5 88t-89.5 29h-41l8 41h533q199 0 350 -60q145 -62 145 -231q0 -127 -87 -220.5t-238 -144.5q288 -46 288 -252q0 -100 -39 -179t-101 -128t-147 -80.5t-170.5 -44t-177.5 -12.5z" />
    <glyph glyph-name="C" unicode="C" horiz-adv-x="1363" 
d="M618 -41q-243 0 -384.5 151t-141.5 392q0 122 38.5 249.5t111 241.5t166.5 204t215 143t247 53q54 0 111.5 -7t122.5 -25.5t115 -47t83 -77.5t33 -110q0 -40 -16 -149l-8 -55h-41q-4 197 -92 293t-260 96q-123 0 -227.5 -49.5t-175.5 -131.5t-121.5 -189t-73.5 -220.5
t-23 -226.5q0 -206 100.5 -329.5t296.5 -123.5q147 0 272.5 71.5t239.5 215.5l35 -31q-128 -181 -276 -259.5t-347 -78.5z" />
    <glyph glyph-name="D" unicode="D" horiz-adv-x="1466" 
d="M532 72q142 0 266.5 65t208 170t131.5 238t48 270q0 214 -120.5 339.5t-324.5 125.5q-99 0 -211 -33l-202 -1149q110 -26 204 -26zM526 0h-405l194 1106q9 44 9 88q0 59 -27.5 88t-89.5 29h-41l8 41h537q344 0 522 -136t178 -387q0 -185 -71 -342t-192 -263t-282 -165
t-340 -59z" />
    <glyph glyph-name="E" unicode="E" horiz-adv-x="1214" 
d="M123 0l123 713q20 117 51 295q29 182 29 186q0 59 -27.5 88t-89.5 29h-41l8 41h873q149 0 149 -119q0 -9 -8 -53l-23 -146h-41q7 40 7 62q0 174 -222 174h-381l-94 -533h553l-14 -82h-553l-100 -573h358q142 0 231 51.5t156 173.5l39 -10l-107 -195q-53 -102 -170 -102
h-706z" />
    <glyph glyph-name="F" unicode="F" horiz-adv-x="1087" 
d="M123 0l123 713q20 117 51 295q29 182 29 186q0 59 -27.5 88t-89.5 29h-41l8 41h817q150 0 150 -119q0 -9 -8 -53l-23 -146h-41q6 34 6 62q0 174 -221 174h-326l-96 -543h463l-14 -82h-463l-113 -645h-184z" />
    <glyph glyph-name="G" unicode="G" horiz-adv-x="1474" 
d="M680 -41q-174 0 -306.5 77t-203 211t-70.5 304q0 126 37 249.5t107 229.5t163 188t213 128.5t250 46.5q180 0 332 -58q154 -59 154 -209q0 -63 -21 -174h-41q-12 359 -376 359q-123 0 -227 -51t-175.5 -134.5t-121.5 -192t-73.5 -223t-23.5 -227.5q0 -224 105 -333
t292 -109q183 0 330 72l63 356q10 55 29 94t59.5 74.5t113.5 53.5t179 18l-8 -41q-88 0 -128 -45t-60 -150l-68 -385q-235 -129 -524 -129z" />
    <glyph glyph-name="H" unicode="H" horiz-adv-x="1425" 
d="M121 0l194 1106q9 44 9 88q0 59 -27.5 88t-89.5 29h-41l8 41h184q88 0 121 -25.5t33 -99.5q0 -47 -12 -121l-66 -369h615l108 615h184l-194 -1106q-10 -72 -10 -92q0 -58 27 -85.5t89 -27.5h41l-6 -41h-184q-87 0 -121.5 26.5t-34.5 98.5q0 35 15 121l71 409h-614
l-115 -655h-184z" />
    <glyph glyph-name="I" unicode="I" horiz-adv-x="591" 
d="M455 0h-185q-87 0 -121 26.5t-34 98.5q0 41 14 121l195 1106h184l-195 -1106q-10 -72 -10 -92q0 -58 27.5 -85.5t89.5 -27.5h41z" />
    <glyph glyph-name="J" unicode="J" horiz-adv-x="540" 
d="M-164 -281l8 41q96 0 162.5 103.5t99.5 296.5l211 1192h185l-211 -1192q-22 -122 -53.5 -202.5t-84.5 -135.5t-129.5 -79t-187.5 -24z" />
    <glyph glyph-name="K" unicode="K" horiz-adv-x="1388" 
d="M1174 -20q-104 0 -199 55t-199 190l-350 451l-119 -676h-184l123 713q20 117 51 295q29 182 29 186q0 59 -27.5 88t-89.5 29h-41l8 41h184q87 0 121.5 -26.5t34.5 -98.5q0 -34 -14 -119q-4 -27 -13.5 -79t-26.5 -146.5t-32 -175.5l506 430q12 10 22 18t14 11.5t5 4.5
q109 99 182 140t164 41h102l-10 -52q-89 0 -157.5 -30t-163.5 -113l-469 -399l383 -492q69 -93 153 -155t156 -72l-6 -39q-61 -20 -137 -20z" />
    <glyph glyph-name="L" unicode="L" horiz-adv-x="1140" 
d="M123 0l123 713q20 117 51 295q29 182 29 186q0 59 -27.5 88t-89.5 29h-41l8 41h184q88 0 121 -25.5t33 -99.5q0 -23 -31 -217q-10 -53 -31 -175t-57.5 -335t-72.5 -418h727l-15 -82h-911z" />
    <glyph glyph-name="M" unicode="M" horiz-adv-x="1755" 
d="M1614 -51l-6 -41q-173 0 -247.5 62.5t-74.5 205.5q0 68 19 172l139 789l-711 -1137h-41l-330 1157l-202 -1157h-82l237 1352h195l303 -1065l670 1065h184l-178 -1004q-19 -105 -19 -176q0 -223 144 -223z" />
    <glyph glyph-name="N" unicode="N" horiz-adv-x="1406" 
d="M1085 -20l-688 1095l-188 -1075h-82l90 518q111 630 111 653q0 71 -36.5 105.5t-119.5 34.5h-20l8 41h133q179 0 254 -123l561 -891l178 1014h82l-242 -1372h-41z" />
    <glyph glyph-name="O" unicode="O" horiz-adv-x="1458" 
d="M621 -41q-162 0 -281.5 72t-180.5 196.5t-61 286.5q0 128 36 255.5t105 239t161.5 198t215 136.5t256.5 50q244 0 384.5 -154.5t140.5 -404.5q0 -161 -57.5 -318t-157.5 -280.5t-247.5 -200t-313.5 -76.5zM635 41q95 0 178.5 39t143 105.5t106.5 150.5t75.5 178.5t43 185
t14.5 174.5q0 208 -87.5 322.5t-250.5 114.5q-96 0 -179 -39.5t-142.5 -106t-106.5 -151.5t-75 -180t-42 -186t-14 -175q0 -208 86.5 -320t249.5 -112z" />
    <glyph glyph-name="P" unicode="P" horiz-adv-x="1136" 
d="M569 625q85 0 173 46.5t147 133.5q61 88 61 217q0 64 -25.5 115.5t-65.5 81.5t-84.5 45.5t-88.5 15.5q-77 0 -158 -20l-108 -615q73 -20 149 -20zM629 553h-226l-96 -553h-184l123 713q20 117 51 295q29 182 29 186q0 59 -27.5 88t-89.5 29h-41l8 41h533q170 0 311 -66
q137 -67 137 -256q0 -137 -71.5 -247t-192 -170t-264.5 -60z" />
    <glyph glyph-name="Q" unicode="Q" horiz-adv-x="1456" 
d="M635 41q95 0 178.5 39t143 105.5t106.5 150.5t75.5 178.5t43 185t14.5 174.5q0 208 -87.5 322.5t-250.5 114.5q-96 0 -179 -39.5t-142.5 -106t-106.5 -151.5t-75 -180t-42 -186t-14 -175q0 -208 86.5 -320t249.5 -112zM1217 -379l-9 -41q-254 0 -443.5 95.5t-324.5 310.5
q-163 49 -252.5 189t-89.5 339q0 128 36 255.5t105 239t161.5 198t215 136.5t256.5 50q162 0 281.5 -72t180.5 -196.5t61 -286.5q0 -185 -72 -359t-211 -308.5t-319 -188.5q19 -141 149.5 -251t274.5 -110z" />
    <glyph glyph-name="R" unicode="R" horiz-adv-x="1218" 
d="M582 696q91 0 177 45t141.5 125t55.5 172q0 59 -25.5 107t-66 76.5t-86.5 43.5t-92 15q-77 0 -158 -20l-96 -543q77 -21 150 -21zM1020 -20q-109 0 -179 65t-139 231l-143 349h-143l-109 -625h-184l123 713q20 117 51 295q29 182 29 186q0 59 -27.5 88t-89.5 29h-41l8 41
h533q174 0 313 -62q139 -65 139 -235q0 -158 -106.5 -268t-288.5 -152l152 -359q50 -123 103 -175t132 -60l-6 -41q-50 -20 -127 -20z" />
    <glyph glyph-name="S" unicode="S" horiz-adv-x="1093" 
d="M473 -35q-110 0 -207 28.5t-158 81.5t-61 118q0 21 41 241h37v-14q0 -193 84.5 -283t259.5 -90q119 0 214 70t95 182q0 65 -41.5 118t-138.5 122l-225 149q-101 68 -143 131t-42 148q0 179 136 300.5t329 121.5q100 0 191 -26.5t151 -78.5t60 -117q0 -14 -8 -55l-33 -188
h-37v14q0 194 -81.5 281.5t-256.5 87.5q-106 0 -192.5 -72t-86.5 -174q0 -63 39.5 -110t145.5 -120l225 -149q107 -71 154 -133.5t47 -142.5q0 -123 -69.5 -225t-183.5 -159t-245 -57z" />
    <glyph glyph-name="T" unicode="T" horiz-adv-x="1198" 
d="M422 0l223 1270h-184q-251 0 -297 -236h-41l27 154q15 79 62 121.5t140 42.5h953l-15 -82h-461l-223 -1270h-184z" />
    <glyph glyph-name="U" unicode="U" horiz-adv-x="1406" 
d="M618 -20q-231 0 -334.5 92.5t-103.5 289.5q0 81 23 222l92 522q8 39 8 88q0 59 -27.5 88t-89.5 29h-41l9 41h184q87 0 121.5 -26.5t34.5 -98.5q0 -35 -15 -121l-104 -584q-17 -107 -17 -160q0 -150 73 -225.5t226 -75.5q230 0 345 121.5t163 401.5l135 768h82l-135 -768
q-23 -128 -53.5 -219.5t-78.5 -167.5t-115.5 -122t-162 -70.5t-219.5 -24.5z" />
    <glyph glyph-name="V" unicode="V" horiz-adv-x="1308" 
d="M528 -20l-276 1132q-31 120 -68 164t-118 51l6 41q5 0 30.5 2t40.5 2q252 0 310 -260l204 -825q14 25 31 49q167 275 279 463q73 127 329 553h99l-830 -1372h-37z" />
    <glyph glyph-name="W" unicode="W" horiz-adv-x="1775" 
d="M446 -20l-198 1132q-24 120 -61 164t-126 51l7 41q5 0 30.5 2t40.5 2q138 0 207 -61t96 -199l136 -790l333 649l-24 141q-24 120 -61 164t-126 51l7 41q5 0 30.5 2t40.5 2q138 0 207 -61t96 -199l136 -790l532 1030h88l-711 -1372h-41l-151 862l-447 -862h-41z" />
    <glyph glyph-name="X" unicode="X" horiz-adv-x="1357" 
d="M-18 0l628 666l-213 419q-52 112 -115 167t-173 59l8 41h245q82 0 136.5 -55.5t109.5 -170.5l152 -307l504 533h102l-567 -604l241 -482q56 -106 116 -162.5t142 -62.5l-6 -41h-215q-82 0 -138 55.5t-110 169.5l-180 369l-565 -594h-102z" />
    <glyph glyph-name="Y" unicode="Y" horiz-adv-x="1288" 
d="M487 0l99 559l-256 526q-60 120 -112.5 170t-145.5 56l8 41h184q97 0 157.5 -56.5t108.5 -169.5l218 -460l548 686h93l-617 -779l-100 -573h-185z" />
    <glyph glyph-name="Z" unicode="Z" horiz-adv-x="1216" 
d="M-45 0l6 41l1067 1229h-491q-251 0 -297 -236h-41l26 154q30 164 203 164h891l-1094 -1270h840l-14 -82h-1096z" />
    <glyph glyph-name="bracketleft" unicode="[" horiz-adv-x="649" 
d="M424 -410h-440l317 1803h440l-14 -82h-276l-289 -1639h276z" />
    <glyph glyph-name="backslash" unicode="\" horiz-adv-x="901" 
d="M754 0h-150l-420 1352h150z" />
    <glyph glyph-name="bracketright" unicode="]" horiz-adv-x="649" 
d="M322 -410h-439l15 82h274l289 1639h-277l15 82h440z" />
    <glyph glyph-name="asciicircum" unicode="^" horiz-adv-x="1003" 
d="M215 676h-137l565 717h41l315 -717h-137l-231 526z" />
    <glyph glyph-name="underscore" unicode="_" horiz-adv-x="880" 
d="M735 -123h-819l23 123h819z" />
    <glyph glyph-name="grave" unicode="`" horiz-adv-x="409" 
d="M459 983h-103l-153 410h205z" />
    <glyph glyph-name="a" unicode="a" 
d="M438 61q79 0 131.5 30t104.5 93l106 594q-39 68 -74 95.5t-100 27.5q-73 0 -133.5 -40.5t-98.5 -103.5t-65 -142t-38 -153t-11 -140q0 -123 44 -192t134 -69zM362 -20q-144 0 -220 95.5t-76 258.5q0 113 32.5 223.5t92.5 202.5t156 153t212 70q169 0 236 -113h10l88 93
h102l-168 -963h-102l-57 92h-11q-107 -112 -295 -112z" />
    <glyph glyph-name="b" unicode="b" horiz-adv-x="1077" 
d="M461 61q71 0 128.5 42.5t92.5 106.5t59 144.5t33.5 151t9.5 131.5q0 264 -196 264q-74 0 -205 -61l-117 -656q58 -123 195 -123zM508 -20q-185 0 -258 112h-10l-86 -92h-103l123 713q20 117 51 295q29 182 29 186q0 59 -27.5 88t-89.5 29h-41l8 41h185q88 0 120.5 -25.5
t32.5 -99.5q0 -47 -12 -121l-33 -184q131 61 267 61q155 0 235 -95t80 -263q0 -83 -18.5 -171t-57.5 -173t-93.5 -152t-133 -108t-168.5 -41z" />
    <glyph glyph-name="c" unicode="c" horiz-adv-x="991" 
d="M440 -20q-185 0 -279.5 100t-94.5 276q0 120 39 232.5t108.5 200.5t174.5 141t228 53q124 0 222 -29q92 -27 92 -131q0 -36 -23 -164l-2 -14h-41q2 10 2 45q0 103 -59 157t-164 54q-78 0 -143.5 -35.5t-108.5 -93t-73.5 -131t-44 -147t-13.5 -144.5q0 -138 59.5 -213.5
t176.5 -75.5q102 0 176.5 38.5t148.5 125.5l35 -30q-86 -114 -186 -164.5t-230 -50.5z" />
    <glyph glyph-name="d" unicode="d" 
d="M438 61q79 0 131.5 30t104.5 93l117 656q-113 61 -185 61q-74 0 -135 -40.5t-99 -103t-63.5 -142t-36 -153t-10.5 -140.5q0 -261 176 -261zM362 -20q-143 0 -218.5 96.5t-75.5 261.5q0 87 19.5 176.5t60 173.5t97.5 150t138.5 105.5t175.5 39.5q133 0 246 -61
q41 230 41 272q0 59 -27.5 88t-89.5 29h-41l8 41h185q88 0 120.5 -25.5t32.5 -99.5q0 -28 -35 -240q-37 -228 -172 -987h-102l-57 92h-11q-107 -112 -295 -112z" />
    <glyph glyph-name="e" unicode="e" horiz-adv-x="997" 
d="M274 492h236q101 5 167 75t66 178q0 74 -42 115t-119 41q-109 0 -191 -108.5t-117 -300.5zM420 -20q-169 0 -261.5 101.5t-92.5 272.5q0 92 23 182.5t69 171t108.5 142t148 97.5t181.5 36q168 0 255 -62.5t87 -170.5q0 -104 -61 -182.5t-158.5 -118t-212.5 -39.5h-246
q-8 -36 -8 -84q0 -118 59.5 -191.5t163.5 -73.5q94 0 167.5 39.5t148.5 124.5l34 -30q-86 -114 -183.5 -164.5t-221.5 -50.5z" />
    <glyph glyph-name="f" unicode="f" horiz-adv-x="696" 
d="M-174 -389l8 41q96 0 162.5 103t99.5 296l146 830h-144l15 82h143l12 61q68 348 420 348q51 0 79 -2.5t60 -14t51.5 -37.5t32.5 -69l-69 -51q-45 92 -178 92q-156 0 -211 -266l-13 -61h287l-14 -82h-287l-145 -830q-22 -122 -54 -202t-85 -135t-129.5 -79t-186.5 -24z
" />
    <glyph glyph-name="g" unicode="g" horiz-adv-x="1073" 
d="M461 82q74 0 205 61l112 635q-32 60 -77.5 91.5t-116.5 31.5q-68 0 -124.5 -39.5t-92 -100.5t-60 -137.5t-35 -147t-10.5 -132.5q0 -125 49.5 -193.5t149.5 -68.5zM362 -410q-129 0 -210.5 50.5t-128.5 164.5l45 31q46 -87 106 -125.5t162 -38.5q117 0 199.5 100
t113.5 279l2 10q-134 -61 -266 -61q-154 0 -234.5 95.5t-80.5 260.5q0 82 18.5 168t57.5 168.5t93 147t131.5 104t166.5 39.5q186 0 256 -113h10l88 93h102l-159 -912q-37 -212 -163.5 -336.5t-308.5 -124.5z" />
    <glyph glyph-name="h" unicode="h" horiz-adv-x="1089" 
d="M51 0l123 713q20 117 51 295q29 182 29 186q0 59 -27.5 88t-89.5 29h-41l8 41h185q88 0 120.5 -25.5t32.5 -99.5q0 -60 -53 -346q128 102 285 102q293 0 293 -262q0 -22 -19 -152q-6 -34 -38 -219.5t-60 -349.5h-184q114 642 114 694q0 96 -50.5 146.5t-133.5 50.5
q-102 0 -223 -109l-137 -782h-185z" />
    <glyph glyph-name="i" unicode="i" horiz-adv-x="514" 
d="M354 1085q-41 0 -67.5 31t-26.5 76q0 50 31.5 83.5t81.5 33.5q41 0 67.5 -31t26.5 -76q0 -50 -31.5 -83.5t-81.5 -33.5zM270 0h-184q19 109 44.5 252.5t40 226.5t22.5 135q28 182 28 195q0 58 -27.5 85.5t-89.5 27.5h-41l7 41h184q87 0 121.5 -26.5t34.5 -98.5
q0 -39 -62 -387z" />
    <glyph glyph-name="j" unicode="j" horiz-adv-x="514" 
d="M354 1085q-41 0 -67.5 31t-26.5 76q0 50 31.5 83.5t81.5 33.5q41 0 67.5 -31t26.5 -76q0 -50 -31.5 -83.5t-81.5 -33.5zM-176 -389l8 41q96 0 162.5 103t99.5 296q24 138 58 329.5t43 244.5q26 157 26 184q0 58 -27.5 85.5t-89.5 27.5h-41l7 41h184q87 0 121.5 -26.5
t34.5 -98.5q0 -30 -56 -346l-75 -441q-22 -122 -54 -202t-85 -135t-129.5 -79t-186.5 -24z" />
    <glyph glyph-name="k" unicode="k" horiz-adv-x="993" 
d="M772 -20q-87 0 -152.5 38.5t-115.5 124.5l-189 328l-82 -471h-184l195 1106q8 39 8 88q0 59 -27.5 88t-89.5 29h-41l8 41h185q88 0 120.5 -25.5t32.5 -99.5q0 -47 -12 -121l-106 -604l313 327q66 69 132.5 101.5t156.5 32.5h61l-8 -52q-119 0 -211 -92l-277 -287
l199 -327q50 -81 94 -118.5t103 -47.5l-6 -39q-44 -20 -107 -20z" />
    <glyph glyph-name="l" unicode="l" horiz-adv-x="499" 
d="M59 0l123 713q20 117 51 295q29 182 29 186q0 59 -27.5 88t-89.5 29h-41l9 41h184q88 0 121 -25.5t33 -99.5q0 -28 -35 -240q-37 -228 -172 -987h-185z" />
    <glyph glyph-name="m" unicode="m" horiz-adv-x="1615" 
d="M270 0h-184q19 109 44.5 252.5t40 226.5t22.5 135q28 182 28 195q0 58 -27.5 85.5t-89.5 27.5h-41l7 41h184q145 0 160 -82h10q128 102 285 102q178 0 221 -143q65 67 154.5 105t177.5 38q114 0 173.5 -56t59.5 -184q0 -31 -18 -157q-19 -117 -101 -586h-184
q86 502 98 578q21 126 21 155q0 83 -32 120.5t-95 37.5q-58 0 -127 -41.5t-111 -91.5v-15q0 -32 -26 -192q-8 -49 -21.5 -125.5t-36 -203.5t-39.5 -222h-184q86 502 98 578q21 126 21 155q0 83 -32 120.5t-95 37.5q-102 0 -223 -109z" />
    <glyph glyph-name="n" unicode="n" horiz-adv-x="1124" 
d="M270 0h-184q19 109 44.5 252.5t40 226.5t22.5 135q28 182 28 195q0 58 -27.5 85.5t-89.5 27.5h-41l7 41h184q145 0 160 -82h10q128 102 285 102q292 0 292 -262q0 -29 -18 -152q-6 -34 -38 -219.5t-60 -349.5h-185q115 648 115 694q0 96 -50.5 146.5t-133.5 50.5
q-102 0 -223 -109z" />
    <glyph glyph-name="o" unicode="o" horiz-adv-x="1083" 
d="M438 -20q-175 0 -273.5 106t-98.5 281q0 92 25.5 182t74.5 167.5t115 137.5t152 94.5t181 34.5q175 0 274 -106t99 -281q0 -154 -68.5 -294t-196.5 -231t-284 -91zM453 61q56 0 105.5 27t86 72t66 101.5t47.5 118t27.5 120t9.5 108.5q0 132 -52 212.5t-143 80.5
q-81 0 -149 -57.5t-108.5 -144t-62.5 -178t-22 -167.5q0 -132 52 -212.5t143 -80.5z" />
    <glyph glyph-name="p" unicode="p" horiz-adv-x="1112" 
d="M475 61q74 0 135 40.5t99 103t63.5 142.5t36 153.5t10.5 140.5q0 260 -176 260q-137 0 -235 -123l-117 -655q112 -62 184 -62zM276 41l-75 -430h-185l154 883q51 296 51 315q0 58 -27.5 85.5t-89.5 27.5h-41l7 41h184q77 0 114.5 -22.5t43.5 -70.5h10q113 113 297 113
q143 0 219 -96.5t76 -261.5q0 -88 -19 -177.5t-60 -173.5t-97.5 -149.5t-138.5 -105t-177 -39.5q-136 0 -246 61z" />
    <glyph glyph-name="q" unicode="q" horiz-adv-x="1073" 
d="M457 61q71 0 205 62l116 655q-32 60 -77.5 91.5t-116.5 31.5q-70 0 -127 -42.5t-92.5 -106.5t-60 -144t-34.5 -151t-10 -131q0 -127 48.5 -196t148.5 -69zM793 870h10l88 93h102l-237 -1352h-185l76 430q-134 -61 -266 -61q-155 0 -235 95t-80 263q0 82 18.5 170t58 173
t94 152t132.5 108.5t168 41.5q186 0 256 -113z" />
    <glyph glyph-name="r" unicode="r" horiz-adv-x="825" 
d="M258 0h-184q99 571 106 614q29 188 29 195q0 58 -27.5 85.5t-89.5 27.5h-20l6 41h164q77 0 114 -22.5t43 -70.5h11q113 113 266 113q73 0 111 -27t63 -96l-94 -61q-34 61 -152 61q-61 0 -118 -27.5t-95 -74.5z" />
    <glyph glyph-name="s" unicode="s" horiz-adv-x="919" 
d="M369 -20q-142 0 -234 32q-100 34 -100 142q0 17 3.5 43t7.5 50t5 29h41v-4q0 -102 62.5 -156.5t187.5 -54.5q43 0 84.5 9t80.5 27.5t63 53t24 80.5q0 49 -35.5 85t-118.5 73l-114 51q-201 87 -201 234q0 91 56.5 163t144.5 109t188 37q322 0 322 -170q0 -19 -3 -46
t-7.5 -53.5t-4.5 -27.5h-41v4q0 102 -60 156.5t-179 54.5q-56 0 -106 -15t-88 -53.5t-38 -95.5q0 -95 135 -153l113 -52q118 -52 169.5 -105.5t51.5 -131.5q0 -96 -59 -169t-151 -109.5t-199 -36.5z" />
    <glyph glyph-name="t" unicode="t" horiz-adv-x="688" 
d="M326 -20q-98 0 -151.5 49.5t-53.5 144.5q0 34 117 707h-144l15 82h143l33 184l125 123h82l-56 -307h246l-14 -82h-246q-117 -669 -117 -697q0 -123 117 -123q83 0 160 41l14 -41q-62 -41 -122.5 -61t-147.5 -20z" />
    <glyph glyph-name="u" unicode="u" horiz-adv-x="1099" 
d="M397 -20q-295 0 -295 266q0 11 17 127q12 81 59 344q10 72 10 92q0 58 -27 85.5t-89 27.5h-21l6 41h164q87 0 121.5 -26.5t34.5 -98.5q0 -36 -15 -121q-71 -399 -71 -447q0 -99 50 -148.5t134 -49.5q103 0 223 108l138 783h184l-168 -963h-102l-58 82h-10
q-128 -102 -285 -102z" />
    <glyph glyph-name="v" unicode="v" horiz-adv-x="1019" 
d="M412 -20l-187 747q-30 117 -66.5 162t-109.5 49l8 41q5 0 30 2t40 2q116 0 191.5 -58.5t111.5 -197.5l107 -440l405 676h102l-591 -983h-41z" />
    <glyph glyph-name="w" unicode="w" horiz-adv-x="1533" 
d="M391 -20l-166 747q-26 116 -64.5 161.5t-113.5 49.5l8 41q5 0 31 2t41 2q116 0 189.5 -59.5t103.5 -196.5l98 -430l252 440q-31 110 -67 153.5t-103 47.5l8 41q5 0 31 2t41 2q116 0 189.5 -59.5t103.5 -196.5l98 -430l383 666h102l-571 -983h-41l-145 634l-367 -634h-41z
" />
    <glyph glyph-name="x" unicode="x" horiz-adv-x="1003" 
d="M-20 0l407 461l-125 297q-62 149 -182 164l6 41h174q67 0 119.5 -43t83.5 -121l90 -215l332 379h102l-407 -461l125 -297q61 -149 192 -164l-6 -41h-184q-67 0 -119.5 43t-83.5 121l-90 215l-332 -379h-102z" />
    <glyph glyph-name="y" unicode="y" horiz-adv-x="1052" 
d="M35 -410l12 62q103 0 176 48t137 167l62 113l-186 798q-35 149 -197 164l6 41h174q176 0 217 -164l133 -567l383 711h103l-592 -1096q-35 -67 -66 -112t-74.5 -85.5t-99.5 -60t-127 -19.5h-61z" />
    <glyph glyph-name="z" unicode="z" horiz-adv-x="958" 
d="M-6 0l6 39l680 842h-236q-126 0 -198 -48t-90 -137h-41l18 103q30 164 203 164h625l-707 -881h553l-14 -82h-799z" />
    <glyph glyph-name="braceleft" unicode="{" horiz-adv-x="622" 
d="M399 -369l-12 -61q-145 36 -213 107.5t-68 181.5q0 57 15 121q4 19 7 35.5t5.5 27.5t3.5 14q35 137 35 224q0 74 -42.5 121t-127.5 59l10 61q207 27 248 236l49 286q25 144 121 233t283 136l-11 -61q-107 -30 -151.5 -78.5t-63.5 -147.5l-59 -348q-23 -121 -86.5 -188
t-179.5 -98q89 -27 130.5 -77t41.5 -134q0 -77 -37 -244q-39 -150 -39 -252q0 -62 31 -95.5t110 -58.5z" />
    <glyph glyph-name="bar" unicode="|" horiz-adv-x="495" 
d="M172 -389h-184l313 1782h184z" />
    <glyph glyph-name="braceright" unicode="}" horiz-adv-x="622" 
d="M-117 -430l13 61q104 29 148 78t62 148l62 348q23 121 86 188.5t180 98.5q-89 27 -130.5 75.5t-41.5 132.5q0 75 37 242q17 79 23 109t11 70t5 79q0 58 -32 93t-109 59l10 61q280 -70 280 -289q0 -78 -30 -206q-33 -138 -33 -218q0 -155 168 -178l-10 -61
q-205 -27 -246 -236l-51 -286q-25 -144 -120 -233t-282 -136z" />
    <glyph glyph-name="asciitilde" unicode="~" horiz-adv-x="1294" 
d="M889 369q-67 0 -130.5 20.5t-160.5 67.5q-84 41 -134.5 58t-98.5 17q-74 0 -126 -40t-63 -103h-82q25 137 107.5 212t189.5 75q67 0 129 -20t164 -68q86 -42 134.5 -59t96.5 -17q74 0 126 40t63 103h82q-25 -137 -108.5 -211.5t-188.5 -74.5z" />
    <glyph glyph-name="uni00A0" unicode="&#xa0;" horiz-adv-x="512" 
 />
    <glyph glyph-name="exclamdown" unicode="&#xa1;" horiz-adv-x="454" 
d="M262 762q-41 0 -67.5 26.5t-26.5 65.5q0 48 41.5 88.5t91.5 40.5q41 0 66.5 -25.5t25.5 -66.5q0 -50 -39 -89.5t-92 -39.5zM154 -397h-193l219 1034h119z" />
    <glyph glyph-name="cent" unicode="&#xa2;" horiz-adv-x="993" 
d="M406 72l143 819q-97 -29 -166.5 -117.5t-101 -198t-31.5 -225.5q0 -111 39.5 -183t116.5 -95zM471 -20l-14 -82h-82l14 82q-163 12 -248.5 112.5t-85.5 265.5q0 152 60.5 286t178 226.5t271.5 112.5l15 82h82l-15 -82q273 0 273 -160q0 -65 -25 -178h-41q2 10 2 45
q0 103 -59 157t-164 54l-148 -840q102 0 177 38.5t149 125.5l35 -30q-79 -104 -170.5 -155.5t-204.5 -59.5z" />
    <glyph glyph-name="sterling" unicode="&#xa3;" horiz-adv-x="1087" 
d="M-29 0l9 51q95 25 151.5 116t91.5 284l37 204h-143l14 82h143l37 205q19 104 48 178.5t78.5 133.5t126 88.5t181.5 29.5q129 0 230 -29q94 -30 94 -137q0 -28 -10 -90h-92q-6 94 -53 134t-142 40q-110 0 -176 -77.5t-100 -270.5l-37 -205h286l-14 -82h-287l-36 -204
q-47 -267 -177 -369h379q251 0 297 235h41l-26 -153q-30 -164 -203 -164h-748z" />
    <glyph glyph-name="currency" unicode="&#xa4;" horiz-adv-x="1181" 
d="M561 1260l-102 -584h164q154 3 260 110t106 265q0 110 -73 169.5t-197 59.5q-77 0 -158 -20zM426 492h532l-14 -82h-532l-72 -410h-184l71 410h-123l15 82h123l18 102h-123l15 82h122l76 430q8 39 8 88q0 59 -27.5 88t-88.5 29h-41l8 41h532q66 0 124 -7t120.5 -26.5
t107 -51.5t73 -86.5t28.5 -125.5q0 -112 -47 -201t-128.5 -145t-186.5 -85.5t-224 -29.5h-164z" />
    <glyph glyph-name="yen" unicode="&#xa5;" horiz-adv-x="1417" 
d="M594 0l51 297h-194l14 82h194l15 82h-195l15 82h194l4 16l-256 526q-60 120 -112.5 170t-145.5 56l8 41h185q97 0 157.5 -56.5t108.5 -169.5l217 -460l549 686h92l-616 -779l-7 -30h195l-14 -82h-195l-14 -82h194l-14 -82h-195l-51 -297h-184z" />
    <glyph glyph-name="brokenbar" unicode="&#xa6;" horiz-adv-x="509" 
d="M367 676h-185l125 717h185zM178 -389h-184l127 717h184z" />
    <glyph glyph-name="section" unicode="&#xa7;" horiz-adv-x="886" 
d="M430 252q80 25 129 84t49 139q0 65 -45.5 121.5t-136.5 114.5q-77 -21 -127.5 -81.5t-50.5 -140.5q0 -65 45.5 -122t136.5 -115zM260 -410q-37 0 -72 4t-74 16t-67.5 30.5t-47.5 50t-19 71.5q0 21 8 70.5t8 54.5h41v-12q0 -96 47 -149.5t129 -53.5q102 0 172 63.5
t70 164.5q0 71 -41 121.5t-140 119.5q-75 56 -108 87t-57 75q-27 47 -27 109q0 114 73 204t199 142q-137 98 -137 250q0 151 110.5 257.5t268.5 106.5q48 0 92.5 -7.5t89.5 -24.5t72 -53t27 -87q0 -20 -8.5 -70t-8.5 -55h-41v12q0 96 -47 149.5t-129 53.5q-102 0 -172 -63
t-70 -164q0 -71 41.5 -122.5t139.5 -119.5q76 -57 109 -87.5t57 -74.5q26 -45 26 -108q0 -116 -73.5 -207t-200.5 -139q139 -106 139 -250q0 -151 -110.5 -258t-268.5 -107z" />
    <glyph glyph-name="dieresis" unicode="&#xa8;" horiz-adv-x="634" 
d="M309 1413q-41 0 -63.5 22.5t-22.5 59.5q0 51 35 87t88 36q41 0 63.5 -22.5t22.5 -59.5q0 -51 -35 -87t-88 -36zM657 1413q-41 0 -63.5 22.5t-22.5 59.5q0 51 35 87t88 36q41 0 63.5 -22.5t22.5 -59.5q0 -51 -35 -87t-88 -36z" />
    <glyph glyph-name="copyright" unicode="&#xa9;" horiz-adv-x="1615" 
d="M713 31q155 0 298 62.5t246.5 167t165.5 247.5t62 297q0 235 -148 375.5t-397 140.5q-125 0 -242.5 -40.5t-212 -113.5t-166 -169t-110.5 -214t-39 -241q0 -229 148.5 -370.5t394.5 -141.5zM745 215q-158 0 -247.5 96.5t-89.5 257.5q0 100 39 203.5t104.5 187.5
t160.5 137.5t199 53.5q49 0 96 -7.5t96 -25t79 -54.5t30 -89q0 -48 -14 -125l-2 -6h-27q-3 254 -227 254q-98 0 -178 -49t-128 -128t-73.5 -170.5t-25.5 -183.5q0 -135 66.5 -216t193.5 -81q97 0 176.5 46t154.5 141l23 -21q-80 -119 -177.5 -170t-228.5 -51zM698 -51
q-274 0 -442 162.5t-168 423.5q0 171 70 331t187 277.5t277 188.5t332 71q275 0 444 -162.5t169 -423.5q0 -171 -70.5 -331t-188 -277.5t-278 -188.5t-332.5 -71z" />
    <glyph glyph-name="ordfeminine" unicode="&#xaa;" horiz-adv-x="657" 
d="M354 856q67 0 127 72l27 147h-33q-79 0 -139 -39.5t-60 -107.5q0 -35 20.5 -53.5t57.5 -18.5zM307 811q-61 0 -100 27t-39 86q0 57 30.5 98t80.5 61t100 28.5t104 8.5h33q8 31 8 80q0 59 -22.5 83t-67.5 24q-50 0 -82 -21.5t-55 -71.5h-51q7 40 15.5 60t31.5 39
q39 39 170 39q81 0 124.5 -35t43.5 -121q0 -6 -23 -147q-2 -14 -9 -52t-14.5 -83l-15.5 -93h-61l-35 51q-61 -61 -166 -61z" />
    <glyph glyph-name="guillemotleft" unicode="&#xab;" horiz-adv-x="768" 
d="M385 61h-82l-248 400l389 399h82l-266 -399zM578 164h-82l-154 297l258 297h82l-176 -297z" />
    <glyph glyph-name="logicalnot" unicode="&#xac;" horiz-adv-x="1343" 
d="M1151 266h-123l37 205h-942l22 123h1065z" />
    <glyph glyph-name="uni00AD" unicode="&#xad;" horiz-adv-x="796" 
d="M643 471h-522l24 143h523z" />
    <glyph glyph-name="registered" unicode="&#xae;" horiz-adv-x="1615" 
d="M713 31q155 0 298 62.5t246.5 167t165.5 247.5t62 297q0 235 -148 375.5t-397 140.5q-125 0 -242.5 -40.5t-212 -113.5t-166 -169t-110.5 -214t-39 -241q0 -229 148.5 -370.5t394.5 -141.5zM793 707q88 0 164.5 66t76.5 157q0 69 -53.5 112t-120.5 43q-45 0 -102 -14
l-62 -350q55 -14 97 -14zM698 -51q-274 0 -442 162.5t-168 423.5q0 171 70 331t187 277.5t277 188.5t332 71q275 0 444 -162.5t169 -423.5q0 -171 -70.5 -331t-188 -277.5t-278 -188.5t-332.5 -71zM1073 242q-63 0 -104 40.5t-88 149.5l-99 230h-98l-70 -406h-118l125 715
q6 35 6 61q0 38 -17 55t-57 17h-27l4 26h344q293 0 293 -192q0 -105 -68.5 -176.5t-185.5 -91.5l107 -238q37 -82 67.5 -113.5t79.5 -37.5l-4 -25q-22 -14 -90 -14z" />
    <glyph glyph-name="macron" unicode="&#xaf;" horiz-adv-x="512" 
d="M727 1147h-522v123h522v-123z" />
    <glyph glyph-name="degree" unicode="&#xb0;" horiz-adv-x="843" 
d="M451 737q-122 0 -199.5 75.5t-77.5 193.5q0 96 53 185.5t144 145.5t194 56q122 0 199.5 -75.5t77.5 -193.5q0 -96 -53 -185.5t-144 -145.5t-194 -56zM471 850q96 0 171 78.5t75 179.5q0 75 -48 123.5t-122 48.5q-95 0 -171.5 -78t-76.5 -176q0 -78 48.5 -127t123.5 -49z
" />
    <glyph glyph-name="plusminus" unicode="&#xb1;" horiz-adv-x="1177" 
d="M985 123h-942l23 123h409l64 368h-410l23 123h409l72 410h123l-72 -410h410l-23 -123h-409l-64 -368h410z" />
    <glyph glyph-name="twosuperior" unicode="&#xb2;" horiz-adv-x="659" 
d="M160 772l8 47l68 55q78 61 128.5 106t93.5 94.5t63 97.5t20 98q0 48 -25.5 72t-69.5 24q-117 0 -176 -152h-24q8 53 17 78.5t28 44.5q33 33 85 53.5t105 20.5q74 0 120 -32.5t46 -102.5q0 -139 -158 -275q-72 -62 -165 -129q-25 -17 -74 -55h186q58 0 90.5 21t42.5 69h25
l-12 -61q-12 -74 -93 -74h-329z" />
    <glyph glyph-name="threesuperior" unicode="&#xb3;" horiz-adv-x="638" 
d="M338 752q-66 0 -108.5 24t-73.5 76l22 18q55 -73 160 -73q67 0 113.5 54t46.5 128q0 49 -27 76.5t-70 27.5q-63 0 -110 -12l-21 49l293 228h-172q-118 0 -133 -93h-18l10 62q12 76 92 76h309l-6 -37l-303 -236q31 8 86 8q73 0 125.5 -38t52.5 -107q0 -103 -81 -167
t-187 -64z" />
    <glyph glyph-name="acute" unicode="&#xb4;" horiz-adv-x="358" 
d="M293 1434h-82l129 266h195z" />
    <glyph glyph-name="uni00B5" unicode="&#xb5;" horiz-adv-x="1087" 
d="M-16 -389l237 1352h185l-84 -482q-15 -79 -15 -159q0 -261 176 -261q138 0 236 123l137 779h184l-168 -963h-102l-57 92h-11q-54 -56 -112.5 -84t-140.5 -28q-125 0 -199 92l-82 -461h-184z" />
    <glyph glyph-name="paragraph" unicode="&#xb6;" horiz-adv-x="1234" 
d="M360 -389l175 983q-185 0 -298.5 84t-113.5 229q0 103 49 189t128.5 141t175 85t192.5 30h614l-14 -82h-113l-293 -1659h-184l293 1659h-133l-293 -1659h-185z" />
    <glyph glyph-name="periodcentered" unicode="&#xb7;" horiz-adv-x="475" 
d="M233 565q-41 0 -66.5 25.5t-25.5 66.5q0 52 39 91.5t92 39.5q42 0 68.5 -26.5t26.5 -65.5q0 -50 -40.5 -90.5t-93.5 -40.5z" />
    <glyph glyph-name="cedilla" unicode="&#xb8;" horiz-adv-x="368" 
d="M-72 -401l15 84h102q40 0 68 22t28 59q0 52 -71 52h-93l33 184h92l-18 -102h20q64 0 102 -31.5t38 -87.5q0 -78 -55.5 -129t-137.5 -51h-123z" />
    <glyph glyph-name="onesuperior" unicode="&#xb9;" horiz-adv-x="432" 
d="M324 772h-107l90 506l-94 -49l-16 33l155 131h80z" />
    <glyph glyph-name="ordmasculine" unicode="&#xba;" horiz-adv-x="688" 
d="M381 797q50 0 90.5 48.5t62.5 119t33 137t11 115.5q0 149 -97 149q-48 0 -87 -49t-60.5 -120.5t-33 -138t-11.5 -114.5q0 -147 92 -147zM373 752q-187 0 -187 219q0 114 35.5 213.5t106 163t161.5 63.5q95 0 143 -57t48 -164q0 -114 -36.5 -213t-107.5 -162t-163 -63z
" />
    <glyph glyph-name="guillemotright" unicode="&#xbb;" horiz-adv-x="768" 
d="M287 61h-82l264 400l-123 399h82l246 -399zM131 164h-82l174 297l-69 297h82l151 -297z" />
    <glyph glyph-name="onequarter" unicode="&#xbc;" horiz-adv-x="1222" 
d="M637 205h242l55 317zM1059 623l-74 -418h84l-8 -45h-84l-27 -160h-106l26 160h-311l8 39l396 424h96zM344 1278l-94 -49l-17 33l156 131h80l-109 -621h-106zM1264 1352l-1170 -1352h-133l1169 1352h134z" />
    <glyph glyph-name="onehalf" unicode="&#xbd;" horiz-adv-x="1255" 
d="M344 1278l-94 -49l-17 33l156 131h80l-109 -621h-106zM1264 1352l-1170 -1352h-133l1169 1352h134zM975 0h-330l8 47q42 40 158 137q92 77 129 115.5t61 85.5q23 54 23 115q0 46 -24 70t-68 24q-61 0 -106 -39t-70 -113h-25q16 94 43 123q33 33 86.5 53.5t106.5 20.5
q70 0 116.5 -32.5t46.5 -102.5q0 -127 -110 -225q-30 -28 -139 -115q-94 -72 -148 -119h187q58 0 90.5 21t42.5 69h24l-10 -61q-12 -74 -92 -74z" />
    <glyph glyph-name="threequarters" unicode="&#xbe;" horiz-adv-x="1263" 
d="M674 205h241l56 317zM1096 623l-74 -418h84l-8 -45h-84l-27 -160h-106l26 160h-311l8 39l395 424h97zM319 752q-66 0 -108.5 24t-73.5 76l23 18q55 -73 159 -73q65 0 112.5 51.5t47.5 130.5q0 50 -26.5 77t-69.5 27q-65 0 -111 -12l-20 49l293 228h-172q-118 0 -133 -93
h-19l10 62q12 76 93 76h309l-6 -37l-303 -236q31 8 86 8q73 0 125.5 -38t52.5 -107q0 -62 -26.5 -109t-69 -72.5t-86.5 -37.5t-87 -12zM1323 1352l-1169 -1352h-134l1170 1352h133z" />
    <glyph glyph-name="questiondown" unicode="&#xbf;" horiz-adv-x="978" 
d="M569 762q-42 0 -68 24.5t-26 65.5q0 54 39.5 93.5t93.5 39.5q42 0 68 -26.5t26 -65.5q0 -53 -40.5 -92t-92.5 -39zM297 -434q-77 0 -138.5 15.5t-110 49t-75 91.5t-26.5 137q0 68 16 126.5t37.5 100t65.5 88.5t77.5 75.5t94.5 76.5q122 96 181 160.5t89 152.5h82
q-22 -98 -72.5 -174.5t-152.5 -183.5q-51 -53 -82.5 -90.5t-64.5 -89t-48.5 -106.5t-15.5 -118q0 -108 60 -168.5t159 -60.5q128 0 234.5 91.5t166.5 256.5h41q0 -61 -29 -143.5t-69 -122.5q-71 -71 -187.5 -117.5t-232.5 -46.5z" />
    <glyph glyph-name="Agrave" unicode="&#xc0;" horiz-adv-x="1298" 
d="M322 471h501l-141 594zM1180 -10q-101 0 -183 55q-83 51 -118 211l-29 133h-574l-231 -389h-92l811 1352h61l258 -1096q25 -118 64 -163t123 -52l-6 -41q-45 -10 -84 -10zM807 1731l35 -267h-82l-148 267h195z" />
    <glyph glyph-name="Aacute" unicode="&#xc1;" horiz-adv-x="1298" 
d="M322 471h501l-141 594zM1180 -10q-101 0 -183 55q-83 51 -118 211l-29 133h-574l-231 -389h-92l811 1352h61l258 -1096q25 -118 64 -163t123 -52l-6 -41q-45 -10 -84 -10zM1102 1700l-242 -266h-82l129 266h195z" />
    <glyph glyph-name="Acircumflex" unicode="&#xc2;" horiz-adv-x="1298" 
d="M322 471h501l-141 594zM1180 -10q-101 0 -183 55q-83 51 -118 211l-29 133h-574l-231 -389h-92l811 1352h61l258 -1096q25 -118 64 -163t123 -52l-6 -41q-45 -10 -84 -10zM731 1638h225l123 -235h-102l-146 164l-202 -164h-103z" />
    <glyph glyph-name="Atilde" unicode="&#xc3;" horiz-adv-x="1298" 
d="M322 471h501l-141 594zM1180 -10q-101 0 -183 55q-83 51 -118 211l-29 133h-574l-231 -389h-92l811 1352h61l258 -1096q25 -118 64 -163t123 -52l-6 -41q-45 -10 -84 -10zM649 1434h-61q20 105 56.5 149.5t100.5 44.5q49 0 105 -43q3 -1 16.5 -9t24 -14t26.5 -11t29 -5
q23 0 47 27.5t29 54.5h61q-18 -104 -55.5 -149t-101.5 -45q-27 0 -45.5 8.5t-57.5 32.5q-59 41 -98 41q-23 0 -47 -27.5t-29 -54.5z" />
    <glyph glyph-name="Adieresis" unicode="&#xc4;" horiz-adv-x="1298" 
d="M322 471h501l-141 594zM1180 -10q-101 0 -183 55q-83 51 -118 211l-29 133h-574l-231 -389h-92l811 1352h61l258 -1096q25 -118 64 -163t123 -52l-6 -41q-45 -10 -84 -10zM651 1485q-35 0 -56.5 20.5t-21.5 53.5q0 44 32.5 77t78.5 33q35 0 56.5 -21.5t21.5 -54.5
q0 -41 -34 -74.5t-77 -33.5zM999 1485q-35 0 -56 20.5t-21 53.5q0 44 32 77t78 33q35 0 56.5 -21.5t21.5 -54.5q0 -41 -34 -74.5t-77 -33.5z" />
    <glyph glyph-name="Aring" unicode="&#xc5;" horiz-adv-x="1298" 
d="M322 471h501l-141 594zM754 1352h82q69 42 69 114q0 37 -20.5 58.5t-55.5 21.5q-44 0 -78 -37t-34 -86q0 -44 37 -71zM1180 -10q-101 0 -183 55q-83 51 -118 211l-29 133h-574l-231 -389h-92l768 1280q-88 41 -88 129q0 77 65 143t144 66q61 0 103 -43t42 -105
q0 -60 -38 -109.5t-105 -80.5l239 -1024q25 -118 64 -163t123 -52l-6 -41q-45 -10 -84 -10z" />
    <glyph glyph-name="AE" unicode="&#xc6;" horiz-adv-x="1781" 
d="M332 471h440l139 789zM1397 0h-707l68 389h-492l-282 -389h-103l996 1352h739q149 0 149 -119q0 -9 -8 -53l-22 -146h-41q6 34 6 62q0 174 -221 174h-381l-94 -533h552l-14 -82h-553l-100 -573h358q142 0 231 51.5t156 173.5l39 -10l-106 -195q-53 -102 -170 -102z" />
    <glyph glyph-name="Ccedilla" unicode="&#xc7;" horiz-adv-x="1363" 
d="M494 -401l14 84h102q40 0 68.5 22t28.5 59q0 52 -72 52h-92l24 143q-219 12 -347 162.5t-128 380.5q0 122 38.5 249.5t111 241.5t166.5 204t215 143t247 53q54 0 111.5 -7t122.5 -25.5t115 -47t83 -77.5t33 -110q0 -40 -16 -149l-8 -55h-41q-4 197 -92 293t-260 96
q-123 0 -227.5 -49.5t-175.5 -131.5t-121.5 -189t-73.5 -220.5t-23 -226.5q0 -206 100.5 -329.5t296.5 -123.5q147 0 272.5 71.5t239.5 215.5l35 -31q-121 -171 -261 -250.5t-321 -87.5l-10 -61h21q64 0 101.5 -31.5t37.5 -87.5q0 -77 -53.5 -126t-139.5 -54h-122z" />
    <glyph glyph-name="Egrave" unicode="&#xc8;" horiz-adv-x="1214" 
d="M801 1464h-82l-148 267h195zM123 0l123 713q20 117 51 295q29 182 29 186q0 59 -27.5 88t-89.5 29h-41l8 41h873q149 0 149 -119q0 -9 -8 -53l-23 -146h-41q7 40 7 62q0 174 -222 174h-381l-94 -533h553l-14 -82h-553l-100 -573h358q142 0 231 51.5t156 173.5l39 -10
l-107 -195q-53 -102 -170 -102h-706z" />
    <glyph glyph-name="Eacute" unicode="&#xc9;" horiz-adv-x="1214" 
d="M805 1434h-82l129 266h195zM123 0l123 713q20 117 51 295q29 182 29 186q0 59 -27.5 88t-89.5 29h-41l8 41h873q149 0 149 -119q0 -9 -8 -53l-23 -146h-41q7 40 7 62q0 174 -222 174h-381l-94 -533h553l-14 -82h-553l-100 -573h358q142 0 231 51.5t156 173.5l39 -10
l-107 -195q-53 -102 -170 -102h-706z" />
    <glyph glyph-name="Ecircumflex" unicode="&#xca;" horiz-adv-x="1214" 
d="M608 1477h-102l205 235h225l123 -235h-103l-145 163zM123 0l123 713q20 117 51 295q29 182 29 186q0 59 -27.5 88t-89.5 29h-41l8 41h873q149 0 149 -119q0 -9 -8 -53l-23 -146h-41q7 40 7 62q0 174 -222 174h-381l-94 -533h553l-14 -82h-553l-100 -573h358
q142 0 231 51.5t156 173.5l39 -10l-107 -195q-53 -102 -170 -102h-706z" />
    <glyph glyph-name="Edieresis" unicode="&#xcb;" horiz-adv-x="1214" 
d="M592 1495q-41 0 -63.5 22.5t-22.5 59.5q0 51 35 87t88 36q41 0 63.5 -22.5t22.5 -59.5q0 -51 -35 -87t-88 -36zM940 1495q-41 0 -63.5 22.5t-22.5 59.5q0 51 35 87t88 36q41 0 63.5 -22.5t22.5 -59.5q0 -51 -35 -87t-88 -36zM123 0l123 713q20 117 51 295q29 182 29 186
q0 59 -27.5 88t-89.5 29h-41l8 41h873q149 0 149 -119q0 -9 -8 -53l-23 -146h-41q7 40 7 62q0 174 -222 174h-381l-94 -533h553l-14 -82h-553l-100 -573h358q142 0 231 51.5t156 173.5l39 -10l-107 -195q-53 -102 -170 -102h-706z" />
    <glyph glyph-name="Igrave" unicode="&#xcc;" horiz-adv-x="591" 
d="M457 1464h-82l-148 267h195zM455 0h-185q-87 0 -121 26.5t-34 98.5q0 41 14 121l195 1106h184l-195 -1106q-10 -72 -10 -92q0 -58 27.5 -85.5t89.5 -27.5h41z" />
    <glyph glyph-name="Iacute" unicode="&#xcd;" horiz-adv-x="591" 
d="M461 1434h-82l129 266h194zM455 0h-185q-87 0 -121 26.5t-34 98.5q0 41 14 121l195 1106h184l-195 -1106q-10 -72 -10 -92q0 -58 27.5 -85.5t89.5 -27.5h41z" />
    <glyph glyph-name="Icircumflex" unicode="&#xce;" horiz-adv-x="591" 
d="M256 1423h-102l204 236h226l123 -236h-103l-145 164zM455 0h-185q-87 0 -121 26.5t-34 98.5q0 41 14 121l195 1106h184l-195 -1106q-10 -72 -10 -92q0 -58 27.5 -85.5t89.5 -27.5h41z" />
    <glyph glyph-name="Idieresis" unicode="&#xcf;" horiz-adv-x="591" 
d="M266 1485q-35 0 -56.5 20.5t-21.5 53.5q0 44 32.5 77t78.5 33q35 0 56.5 -21.5t21.5 -54.5q0 -41 -34 -74.5t-77 -33.5zM614 1485q-35 0 -56 20.5t-21 53.5q0 44 32 77t78 33q35 0 56.5 -21.5t21.5 -54.5q0 -41 -34 -74.5t-77 -33.5zM455 0h-185q-87 0 -121 26.5
t-34 98.5q0 41 14 121l195 1106h184l-195 -1106q-10 -72 -10 -92q0 -58 27.5 -85.5t89.5 -27.5h41z" />
    <glyph glyph-name="Eth" unicode="&#xd0;" horiz-adv-x="1466" 
d="M532 72q142 0 266.5 65t208 170t131.5 238t48 270q0 214 -120.5 339.5t-324.5 125.5q-99 0 -211 -33l-94 -530h178l-14 -82h-178l-94 -537q110 -26 204 -26zM526 0h-405l110 635h-153l14 82h154l69 389q9 44 9 88q0 59 -27.5 88t-89.5 29h-41l8 41h537q344 0 522 -136
t178 -387q0 -185 -71 -342t-192 -263t-282 -165t-340 -59z" />
    <glyph glyph-name="Ntilde" unicode="&#xd1;" horiz-adv-x="1406" 
d="M698 1421h-61q20 105 57 150t101 45q48 0 104 -43q3 -1 16.5 -9t24 -14t26.5 -11t29 -5q23 0 47 27.5t29 54.5h62q-18 -104 -56 -149.5t-102 -45.5q-27 0 -45.5 8.5t-57.5 32.5q-59 41 -98 41q-23 0 -47 -27.5t-29 -54.5zM1085 -20l-688 1095l-188 -1075h-82l90 518
q111 630 111 653q0 71 -36.5 105.5t-119.5 34.5h-20l8 41h133q179 0 254 -123l561 -891l178 1014h82l-242 -1372h-41z" />
    <glyph glyph-name="Ograve" unicode="&#xd2;" horiz-adv-x="1458" 
d="M635 41q95 0 178.5 39t143 105.5t106.5 150.5t75.5 178.5t43 185t14.5 174.5q0 208 -87.5 322.5t-250.5 114.5q-96 0 -179 -39.5t-142.5 -106t-106.5 -151.5t-75 -180t-42 -186t-14 -175q0 -208 86.5 -320t249.5 -112zM621 -41q-162 0 -281.5 72t-180.5 196.5t-61 286.5
q0 128 36 255.5t105 239t161.5 198t215 136.5t256.5 50q244 0 384.5 -154.5t140.5 -404.5q0 -161 -57.5 -318t-157.5 -280.5t-247.5 -200t-313.5 -76.5zM887 1731l35 -267h-82l-148 267h195z" />
    <glyph glyph-name="Oacute" unicode="&#xd3;" horiz-adv-x="1458" 
d="M635 41q95 0 178.5 39t143 105.5t106.5 150.5t75.5 178.5t43 185t14.5 174.5q0 208 -87.5 322.5t-250.5 114.5q-96 0 -179 -39.5t-142.5 -106t-106.5 -151.5t-75 -180t-42 -186t-14 -175q0 -208 86.5 -320t249.5 -112zM621 -41q-162 0 -281.5 72t-180.5 196.5t-61 286.5
q0 128 36 255.5t105 239t161.5 198t215 136.5t256.5 50q244 0 384.5 -154.5t140.5 -404.5q0 -161 -57.5 -318t-157.5 -280.5t-247.5 -200t-313.5 -76.5zM1167 1741l-241 -266h-82l129 266h194z" />
    <glyph glyph-name="Ocircumflex" unicode="&#xd4;" horiz-adv-x="1458" 
d="M635 41q95 0 178.5 39t143 105.5t106.5 150.5t75.5 178.5t43 185t14.5 174.5q0 208 -87.5 322.5t-250.5 114.5q-96 0 -179 -39.5t-142.5 -106t-106.5 -151.5t-75 -180t-42 -186t-14 -175q0 -208 86.5 -320t249.5 -112zM621 -41q-162 0 -281.5 72t-180.5 196.5t-61 286.5
q0 128 36 255.5t105 239t161.5 198t215 136.5t256.5 50q244 0 384.5 -154.5t140.5 -404.5q0 -161 -57.5 -318t-157.5 -280.5t-247.5 -200t-313.5 -76.5zM805 1710h225l123 -235h-102l-146 163l-203 -163h-102z" />
    <glyph glyph-name="Otilde" unicode="&#xd5;" horiz-adv-x="1458" 
d="M635 41q95 0 178.5 39t143 105.5t106.5 150.5t75.5 178.5t43 185t14.5 174.5q0 208 -87.5 322.5t-250.5 114.5q-96 0 -179 -39.5t-142.5 -106t-106.5 -151.5t-75 -180t-42 -186t-14 -175q0 -208 86.5 -320t249.5 -112zM621 -41q-162 0 -281.5 72t-180.5 196.5t-61 286.5
q0 128 36 255.5t105 239t161.5 198t215 136.5t256.5 50q244 0 384.5 -154.5t140.5 -404.5q0 -161 -57.5 -318t-157.5 -280.5t-247.5 -200t-313.5 -76.5zM723 1511h-61q20 105 57 150t100 45q49 0 105 -43q3 -1 16.5 -9t24 -14t26.5 -11t29 -5q23 0 47 27.5t29 54.5h61
q-18 -104 -56 -149.5t-102 -45.5q-19 0 -36 5.5t-27 11.5t-39 24q-59 41 -98 41q-23 0 -47 -27.5t-29 -54.5z" />
    <glyph glyph-name="Odieresis" unicode="&#xd6;" horiz-adv-x="1458" 
d="M635 41q95 0 178.5 39t143 105.5t106.5 150.5t75.5 178.5t43 185t14.5 174.5q0 208 -87.5 322.5t-250.5 114.5q-96 0 -179 -39.5t-142.5 -106t-106.5 -151.5t-75 -180t-42 -186t-14 -175q0 -208 86.5 -320t249.5 -112zM621 -41q-162 0 -281.5 72t-180.5 196.5t-61 286.5
q0 128 36 255.5t105 239t161.5 198t215 136.5t256.5 50q244 0 384.5 -154.5t140.5 -404.5q0 -161 -57.5 -318t-157.5 -280.5t-247.5 -200t-313.5 -76.5zM731 1485q-35 0 -56.5 20.5t-21.5 53.5q0 44 32.5 77t78.5 33q35 0 56.5 -21.5t21.5 -54.5q0 -41 -34 -74.5t-77 -33.5z
M1079 1485q-35 0 -56.5 20.5t-21.5 53.5q0 44 32.5 77t78.5 33q35 0 56.5 -21.5t21.5 -54.5q0 -41 -34 -74.5t-77 -33.5z" />
    <glyph glyph-name="multiply" unicode="&#xd7;" horiz-adv-x="964" 
d="M485 596l-340 -291l-71 88l340 289l-238 291l103 86l239 -291l340 291l70 -88l-340 -289l237 -291l-100 -86z" />
    <glyph glyph-name="Oslash" unicode="&#xd8;" horiz-adv-x="1458" 
d="M342 227l727 1010q-83 74 -211 74q-115 0 -211.5 -56.5t-159.5 -145.5t-107.5 -202.5t-63.5 -224t-19 -213.5q0 -146 45 -242zM635 41q114 0 210 55.5t159.5 143t108 199t64 221.5t19.5 212q0 161 -51 263l-729 -1014q86 -80 219 -80zM346 25l-47 -66h-149l100 139
q-152 155 -152 416q0 128 36 255.5t105 239t161.5 198t215 136.5t256.5 50q147 0 265 -62l45 62h149l-96 -133q162 -156 162 -426q0 -161 -57.5 -318t-157.5 -280.5t-247.5 -200t-313.5 -76.5q-158 0 -275 66z" />
    <glyph glyph-name="Ugrave" unicode="&#xd9;" horiz-adv-x="1406" 
d="M897 1464h-82l-147 267h194zM618 -20q-231 0 -334.5 92.5t-103.5 289.5q0 81 23 222l92 522q8 39 8 88q0 59 -27.5 88t-89.5 29h-41l9 41h184q87 0 121.5 -26.5t34.5 -98.5q0 -35 -15 -121l-104 -584q-17 -107 -17 -160q0 -150 73 -225.5t226 -75.5q230 0 345 121.5
t163 401.5l135 768h82l-135 -768q-23 -128 -53.5 -219.5t-78.5 -167.5t-115.5 -122t-162 -70.5t-219.5 -24.5z" />
    <glyph glyph-name="Uacute" unicode="&#xda;" horiz-adv-x="1406" 
d="M897 1395h-82l129 266h195zM618 -20q-231 0 -334.5 92.5t-103.5 289.5q0 81 23 222l92 522q8 39 8 88q0 59 -27.5 88t-89.5 29h-41l9 41h184q87 0 121.5 -26.5t34.5 -98.5q0 -35 -15 -121l-104 -584q-17 -107 -17 -160q0 -150 73 -225.5t226 -75.5q230 0 345 121.5
t163 401.5l135 768h82l-135 -768q-23 -128 -53.5 -219.5t-78.5 -167.5t-115.5 -122t-162 -70.5t-219.5 -24.5z" />
    <glyph glyph-name="Ucircumflex" unicode="&#xdb;" horiz-adv-x="1406" 
d="M731 1374h-102l205 236h225l123 -236h-103l-145 164zM618 -20q-231 0 -334.5 92.5t-103.5 289.5q0 81 23 222l92 522q8 39 8 88q0 59 -27.5 88t-89.5 29h-41l9 41h184q87 0 121.5 -26.5t34.5 -98.5q0 -35 -15 -121l-104 -584q-17 -107 -17 -160q0 -150 73 -225.5
t226 -75.5q230 0 345 121.5t163 401.5l135 768h82l-135 -768q-23 -128 -53.5 -219.5t-78.5 -167.5t-115.5 -122t-162 -70.5t-219.5 -24.5z" />
    <glyph glyph-name="Udieresis" unicode="&#xdc;" horiz-adv-x="1406" 
d="M707 1485q-35 0 -56.5 20.5t-21.5 53.5q0 44 32 77t78 33q35 0 56.5 -21.5t21.5 -54.5q0 -41 -33.5 -74.5t-76.5 -33.5zM1055 1485q-35 0 -56.5 20.5t-21.5 53.5q0 44 32 77t78 33q35 0 56.5 -21.5t21.5 -54.5q0 -41 -33.5 -74.5t-76.5 -33.5zM618 -20
q-231 0 -334.5 92.5t-103.5 289.5q0 81 23 222l92 522q8 39 8 88q0 59 -27.5 88t-89.5 29h-41l9 41h184q87 0 121.5 -26.5t34.5 -98.5q0 -35 -15 -121l-104 -584q-17 -107 -17 -160q0 -150 73 -225.5t226 -75.5q230 0 345 121.5t163 401.5l135 768h82l-135 -768
q-23 -128 -53.5 -219.5t-78.5 -167.5t-115.5 -122t-162 -70.5t-219.5 -24.5z" />
    <glyph glyph-name="Yacute" unicode="&#xdd;" horiz-adv-x="1288" 
d="M862 1374h-82l129 266h195zM487 0l99 559l-256 526q-60 120 -112.5 170t-145.5 56l8 41h184q97 0 157.5 -56.5t108.5 -169.5l218 -460l548 686h93l-617 -779l-100 -573h-185z" />
    <glyph glyph-name="Thorn" unicode="&#xde;" horiz-adv-x="1099" 
d="M496 1044l-140 -798q226 0 367 134.5t141 362.5q0 146 -90.5 223.5t-277.5 77.5zM342 164l-41 -225h-184q14 82 26.5 155t18 106t6.5 36q180 1020 180 1040q0 96 -121 96h-41l7 41h184q88 0 124 -24.5t36 -85.5q0 -19 -19 -127l-8 -50q559 0 559 -381
q0 -123 -40.5 -221.5t-108 -163.5t-162.5 -109t-197.5 -64t-218.5 -23z" />
    <glyph glyph-name="germandbls" unicode="&#xdf;" horiz-adv-x="1134" 
d="M680 -20q-46 0 -90 8.5t-87 27t-69 54t-26 84.5q0 44 8 71h41v-6q0 -65 56 -111.5t140 -46.5q76 0 133.5 49.5t57.5 125.5q0 56 -34.5 96t-121.5 100q-100 69 -140 119t-40 123q0 75 36 127.5t126 128.5q83 68 118 118t35 117q0 125 -157 125q-107 0 -167.5 -61
t-84.5 -205l-181 -1024h-184l180 1024q34 189 149 268.5t312 79.5q150 0 232 -47.5t82 -128.5q0 -67 -36 -118.5t-124 -125.5q-84 -70 -118 -116.5t-34 -108.5q0 -56 35 -96.5t121 -100.5q98 -67 139 -117t41 -124q0 -134 -101.5 -221.5t-246.5 -87.5z" />
    <glyph glyph-name="agrave" unicode="&#xe0;" 
d="M438 61q79 0 131.5 30t104.5 93l106 594q-39 68 -74 95.5t-100 27.5q-73 0 -133.5 -40.5t-98.5 -103.5t-65 -142t-38 -153t-11 -140q0 -123 44 -192t134 -69zM362 -20q-144 0 -220 95.5t-76 258.5q0 113 32.5 223.5t92.5 202.5t156 153t212 70q169 0 236 -113h10l88 93
h102l-168 -963h-102l-57 92h-11q-107 -112 -295 -112zM668 1341l34 -266h-81l-148 266h195z" />
    <glyph glyph-name="aacute" unicode="&#xe1;" 
d="M438 61q79 0 131.5 30t104.5 93l106 594q-39 68 -74 95.5t-100 27.5q-73 0 -133.5 -40.5t-98.5 -103.5t-65 -142t-38 -153t-11 -140q0 -123 44 -192t134 -69zM362 -20q-144 0 -220 95.5t-76 258.5q0 113 32.5 223.5t92.5 202.5t156 153t212 70q169 0 236 -113h10l88 93
h102l-168 -963h-102l-57 92h-11q-107 -112 -295 -112zM899 1343l-242 -266h-82l130 266h194z" />
    <glyph glyph-name="acircumflex" unicode="&#xe2;" 
d="M438 61q79 0 131.5 30t104.5 93l106 594q-39 68 -74 95.5t-100 27.5q-73 0 -133.5 -40.5t-98.5 -103.5t-65 -142t-38 -153t-11 -140q0 -123 44 -192t134 -69zM362 -20q-144 0 -220 95.5t-76 258.5q0 113 32.5 223.5t92.5 202.5t156 153t212 70q169 0 236 -113h10l88 93
h102l-168 -963h-102l-57 92h-11q-107 -112 -295 -112zM571 1323h226l123 -236h-103l-145 164l-203 -164h-102z" />
    <glyph glyph-name="atilde" unicode="&#xe3;" 
d="M438 61q79 0 131.5 30t104.5 93l106 594q-39 68 -74 95.5t-100 27.5q-73 0 -133.5 -40.5t-98.5 -103.5t-65 -142t-38 -153t-11 -140q0 -123 44 -192t134 -69zM362 -20q-144 0 -220 95.5t-76 258.5q0 113 32.5 223.5t92.5 202.5t156 153t212 70q169 0 236 -113h10l88 93
h102l-168 -963h-102l-57 92h-11q-107 -112 -295 -112zM465 1098h-62q20 105 57 149.5t101 44.5q49 0 105 -43q3 -1 16.5 -9t24 -14t26.5 -11t29 -5q23 0 47 27.5t29 54.5h61q-18 -104 -56 -149t-102 -45q-19 0 -36 5.5t-27 11.5t-39 24q-59 41 -98 41q-23 0 -47 -27.5
t-29 -54.5z" />
    <glyph glyph-name="adieresis" unicode="&#xe4;" 
d="M438 61q79 0 131.5 30t104.5 93l106 594q-39 68 -74 95.5t-100 27.5q-73 0 -133.5 -40.5t-98.5 -103.5t-65 -142t-38 -153t-11 -140q0 -123 44 -192t134 -69zM362 -20q-144 0 -220 95.5t-76 258.5q0 113 32.5 223.5t92.5 202.5t156 153t212 70q169 0 236 -113h10l88 93
h102l-168 -963h-102l-57 92h-11q-107 -112 -295 -112zM512 1096q-35 0 -56.5 20.5t-21.5 52.5q0 44 32.5 77.5t78.5 33.5q35 0 56.5 -21.5t21.5 -54.5q0 -41 -34 -74.5t-77 -33.5zM860 1096q-35 0 -56.5 20.5t-21.5 52.5q0 44 32.5 77.5t78.5 33.5q35 0 56.5 -21.5
t21.5 -54.5q0 -41 -34 -74.5t-77 -33.5z" />
    <glyph glyph-name="aring" unicode="&#xe5;" 
d="M438 61q79 0 131.5 30t104.5 93l106 594q-39 68 -74 95.5t-100 27.5q-73 0 -133.5 -40.5t-98.5 -103.5t-65 -142t-38 -153t-11 -140q0 -123 44 -192t134 -69zM641 1157q47 0 80 37t33 88q0 37 -20.5 58.5t-55.5 21.5q-47 0 -80 -37t-33 -88q0 -37 20.5 -58.5t55.5 -21.5z
M362 -20q-144 0 -220 95.5t-76 258.5q0 113 32.5 223.5t92.5 202.5t156 153t212 70q169 0 236 -113h10l88 93h102l-168 -963h-102l-57 92h-11q-107 -112 -295 -112zM629 1085q-61 0 -103.5 43t-42.5 105q0 74 65 137.5t142 63.5q61 0 103.5 -43t42.5 -105q0 -74 -65 -137.5
t-142 -63.5z" />
    <glyph glyph-name="ae" unicode="&#xe6;" horiz-adv-x="1540" 
d="M383 72q67 0 115 30t100 93l45 256h-61q-62 0 -121 -11t-116.5 -35.5t-92.5 -73t-35 -114.5q0 -68 46 -106.5t120 -38.5zM842 532l-4 -20h202q102 0 168 63t66 170q0 146 -144 146q-93 0 -176.5 -104t-111.5 -255zM305 -20q-56 0 -104.5 11.5t-90.5 36t-66 68.5t-24 103
t21 108.5t55 83t82.5 59.5t98.5 41.5t109 25t108.5 12.5t101.5 3h61q19 108 19 168q0 111 -41 156t-127 45q-95 0 -157 -40t-99 -134h-92q14 75 30.5 112.5t53.5 71.5q84 72 319 72q102 0 168.5 -50t85.5 -134q45 80 134 132t186 52q167 0 249 -61.5t82 -171.5
q0 -69 -25.5 -124.5t-67.5 -91.5t-99 -60t-116.5 -34t-123.5 -10h-213q-6 -50 -6 -92q0 -129 57 -203t162 -74q94 0 167.5 39.5t148.5 124.5l34 -30q-86 -114 -183.5 -164.5t-221.5 -50.5q-241 0 -317 174q-68 -91 -151 -132.5t-208 -41.5z" />
    <glyph glyph-name="ccedilla" unicode="&#xe7;" horiz-adv-x="995" 
d="M319 -371l11 62q86 0 133 21t47 79q0 35 -34 49.5t-118 14.5l23 125q-154 17 -233.5 116.5t-79.5 259.5q0 120 39 232.5t108.5 200.5t174.5 141t228 53q124 0 222 -29q92 -27 92 -131q0 -65 -25 -178h-41q2 10 2 45q0 103 -59 157t-164 54q-78 0 -143.5 -35.5t-108.5 -93
t-73.5 -131t-44 -147t-13.5 -144.5q0 -138 59.5 -213.5t176.5 -75.5q102 0 176.5 38.5t148.5 125.5l35 -30q-84 -105 -178.5 -156t-216.5 -59l-12 -64q74 -5 108.5 -29t34.5 -77q0 -181 -275 -181z" />
    <glyph glyph-name="egrave" unicode="&#xe8;" horiz-adv-x="997" 
d="M274 492h236q101 5 167 75t66 178q0 74 -42 115t-119 41q-109 0 -191 -108.5t-117 -300.5zM420 -20q-169 0 -261.5 101.5t-92.5 272.5q0 92 23 182.5t69 171t108.5 142t148 97.5t181.5 36q168 0 255 -62.5t87 -170.5q0 -104 -61 -182.5t-158.5 -118t-212.5 -39.5h-246
q-8 -36 -8 -84q0 -118 59.5 -191.5t163.5 -73.5q94 0 167.5 39.5t148.5 124.5l34 -30q-86 -114 -183.5 -164.5t-221.5 -50.5zM629 1341l35 -266h-82l-148 266h195z" />
    <glyph glyph-name="eacute" unicode="&#xe9;" horiz-adv-x="997" 
d="M274 492h236q101 5 167 75t66 178q0 74 -42 115t-119 41q-109 0 -191 -108.5t-117 -300.5zM420 -20q-169 0 -261.5 101.5t-92.5 272.5q0 92 23 182.5t69 171t108.5 142t148 97.5t181.5 36q168 0 255 -62.5t87 -170.5q0 -104 -61 -182.5t-158.5 -118t-212.5 -39.5h-246
q-8 -36 -8 -84q0 -118 59.5 -191.5t163.5 -73.5q94 0 167.5 39.5t148.5 124.5l34 -30q-86 -114 -183.5 -164.5t-221.5 -50.5zM874 1346l-241 -267h-82l129 267h194z" />
    <glyph glyph-name="ecircumflex" unicode="&#xea;" horiz-adv-x="997" 
d="M274 492h236q101 5 167 75t66 178q0 74 -42 115t-119 41q-109 0 -191 -108.5t-117 -300.5zM420 -20q-169 0 -261.5 101.5t-92.5 272.5q0 92 23 182.5t69 171t108.5 142t148 97.5t181.5 36q168 0 255 -62.5t87 -170.5q0 -104 -61 -182.5t-158.5 -118t-212.5 -39.5h-246
q-8 -36 -8 -84q0 -118 59.5 -191.5t163.5 -73.5q94 0 167.5 39.5t148.5 124.5l34 -30q-86 -114 -183.5 -164.5t-221.5 -50.5zM551 1313h225l123 -236h-102l-146 164l-202 -164h-103z" />
    <glyph glyph-name="edieresis" unicode="&#xeb;" horiz-adv-x="997" 
d="M274 492h236q101 5 167 75t66 178q0 74 -42 115t-119 41q-109 0 -191 -108.5t-117 -300.5zM420 -20q-169 0 -261.5 101.5t-92.5 272.5q0 92 23 182.5t69 171t108.5 142t148 97.5t181.5 36q168 0 255 -62.5t87 -170.5q0 -104 -61 -182.5t-158.5 -118t-212.5 -39.5h-246
q-8 -36 -8 -84q0 -118 59.5 -191.5t163.5 -73.5q94 0 167.5 39.5t148.5 124.5l34 -30q-86 -114 -183.5 -164.5t-221.5 -50.5zM473 1096q-35 0 -56.5 20.5t-21.5 52.5q0 44 32.5 77.5t78.5 33.5q35 0 56.5 -21.5t21.5 -54.5q0 -41 -34 -74.5t-77 -33.5zM821 1096
q-35 0 -56.5 20.5t-21.5 52.5q0 44 32.5 77.5t78.5 33.5q35 0 56.5 -21.5t21.5 -54.5q0 -41 -34 -74.5t-77 -33.5z" />
    <glyph glyph-name="igrave" unicode="&#xec;" horiz-adv-x="514" 
d="M319 1075h-81l-148 266h195zM270 0h-184q19 109 44.5 252.5t40 226.5t22.5 135q28 182 28 195q0 58 -27.5 85.5t-89.5 27.5h-41l7 41h184q87 0 121.5 -26.5t34.5 -98.5q0 -39 -62 -387z" />
    <glyph glyph-name="iacute" unicode="&#xed;" horiz-adv-x="514" 
d="M367 1077h-82l129 266h194zM270 0h-184q19 109 44.5 252.5t40 226.5t22.5 135q28 182 28 195q0 58 -27.5 85.5t-89.5 27.5h-41l7 41h184q87 0 121.5 -26.5t34.5 -98.5q0 -39 -62 -387z" />
    <glyph glyph-name="icircumflex" unicode="&#xee;" horiz-adv-x="514" 
d="M197 1087h-103l205 236h225l123 -236h-102l-146 164zM270 0h-184q19 109 44.5 252.5t40 226.5t22.5 135q28 182 28 195q0 58 -27.5 85.5t-89.5 27.5h-41l7 41h184q87 0 121.5 -26.5t34.5 -98.5q0 -39 -62 -387z" />
    <glyph glyph-name="idieresis" unicode="&#xef;" horiz-adv-x="514" 
d="M129 1096q-35 0 -56.5 20.5t-21.5 52.5q0 44 32.5 77.5t78.5 33.5q35 0 56.5 -21.5t21.5 -54.5q0 -41 -34 -74.5t-77 -33.5zM477 1096q-35 0 -56.5 20.5t-21.5 52.5q0 44 32.5 77.5t78.5 33.5q35 0 56.5 -21.5t21.5 -54.5q0 -41 -34 -74.5t-77 -33.5zM270 0h-184
q19 109 44.5 252.5t40 226.5t22.5 135q28 182 28 195q0 58 -27.5 85.5t-89.5 27.5h-41l7 41h184q87 0 121.5 -26.5t34.5 -98.5q0 -39 -62 -387z" />
    <glyph glyph-name="eth" unicode="&#xf0;" horiz-adv-x="1099" 
d="M453 61q56 0 105.5 27t86 72t66 101.5t47.5 118t27.5 120t9.5 108.5q0 132 -52 212.5t-143 80.5q-81 0 -149 -57.5t-108.5 -144t-62.5 -178t-22 -167.5q0 -132 52 -212.5t143 -80.5zM438 -20q-175 0 -273.5 106t-98.5 281q0 92 25.5 182t74.5 167.5t115 137.5t152 94.5
t181 34.5q87 0 150 -43t88 -121q-5 113 -25 190.5t-61 137.5l-96 -82l-52 61l99 82q-38 49 -87 70.5t-124 21.5q-55 0 -92 -12l-8 39q73 45 196 45q120 0 221 -82l86 82l49 -61l-84 -72q138 -163 138 -451q0 -77 -9.5 -155t-31 -158t-53.5 -152t-79 -135t-104.5 -109
t-133.5 -72.5t-163 -26.5z" />
    <glyph glyph-name="ntilde" unicode="&#xf1;" horiz-adv-x="1124" 
d="M510 1116h-61q20 105 57 150t100 45q49 0 105 -43q3 -1 16.5 -9t24 -14t26.5 -11t29 -5q23 0 47 27.5t29 54.5h61q-18 -104 -56 -149.5t-102 -45.5q-19 0 -36 5.5t-27 11.5t-39 24q-59 41 -98 41q-23 0 -47 -27.5t-29 -54.5zM270 0h-184q19 109 44.5 252.5t40 226.5
t22.5 135q28 182 28 195q0 58 -27.5 85.5t-89.5 27.5h-41l7 41h184q145 0 160 -82h10q128 102 285 102q292 0 292 -262q0 -29 -18 -152q-6 -34 -38 -219.5t-60 -349.5h-185q115 648 115 694q0 96 -50.5 146.5t-133.5 50.5q-102 0 -223 -109z" />
    <glyph glyph-name="ograve" unicode="&#xf2;" horiz-adv-x="1083" 
d="M453 61q56 0 105.5 27t86 72t66 101.5t47.5 118t27.5 120t9.5 108.5q0 132 -52 212.5t-143 80.5q-81 0 -149 -57.5t-108.5 -144t-62.5 -178t-22 -167.5q0 -132 52 -212.5t143 -80.5zM438 -20q-175 0 -273.5 106t-98.5 281q0 92 25.5 182t74.5 167.5t115 137.5t152 94.5
t181 34.5q175 0 274 -106t99 -281q0 -154 -68.5 -294t-196.5 -231t-284 -91zM780 1341l35 -266h-82l-147 266h194z" />
    <glyph glyph-name="oacute" unicode="&#xf3;" horiz-adv-x="1083" 
d="M453 61q56 0 105.5 27t86 72t66 101.5t47.5 118t27.5 120t9.5 108.5q0 132 -52 212.5t-143 80.5q-81 0 -149 -57.5t-108.5 -144t-62.5 -178t-22 -167.5q0 -132 52 -212.5t143 -80.5zM438 -20q-175 0 -273.5 106t-98.5 281q0 92 25.5 182t74.5 167.5t115 137.5t152 94.5
t181 34.5q175 0 274 -106t99 -281q0 -154 -68.5 -294t-196.5 -231t-284 -91zM883 1343l-242 -266h-82l129 266h195z" />
    <glyph glyph-name="ocircumflex" unicode="&#xf4;" horiz-adv-x="1083" 
d="M453 61q56 0 105.5 27t86 72t66 101.5t47.5 118t27.5 120t9.5 108.5q0 132 -52 212.5t-143 80.5q-81 0 -149 -57.5t-108.5 -144t-62.5 -178t-22 -167.5q0 -132 52 -212.5t143 -80.5zM438 -20q-175 0 -273.5 106t-98.5 281q0 92 25.5 182t74.5 167.5t115 137.5t152 94.5
t181 34.5q175 0 274 -106t99 -281q0 -154 -68.5 -294t-196.5 -231t-284 -91zM559 1313h225l123 -236h-102l-146 164l-202 -164h-103z" />
    <glyph glyph-name="otilde" unicode="&#xf5;" horiz-adv-x="1083" 
d="M453 61q56 0 105.5 27t86 72t66 101.5t47.5 118t27.5 120t9.5 108.5q0 132 -52 212.5t-143 80.5q-81 0 -149 -57.5t-108.5 -144t-62.5 -178t-22 -167.5q0 -132 52 -212.5t143 -80.5zM438 -20q-175 0 -273.5 106t-98.5 281q0 92 25.5 182t74.5 167.5t115 137.5t152 94.5
t181 34.5q175 0 274 -106t99 -281q0 -154 -68.5 -294t-196.5 -231t-284 -91zM465 1098h-62q20 105 57 149.5t101 44.5q49 0 105 -43q3 -1 16.5 -9t24 -14t26.5 -11t29 -5q23 0 47 27.5t29 54.5h61q-18 -104 -56 -149t-102 -45q-19 0 -36 5.5t-27 11.5t-39 24q-59 41 -98 41
q-23 0 -47 -27.5t-29 -54.5z" />
    <glyph glyph-name="odieresis" unicode="&#xf6;" horiz-adv-x="1083" 
d="M453 61q56 0 105.5 27t86 72t66 101.5t47.5 118t27.5 120t9.5 108.5q0 132 -52 212.5t-143 80.5q-81 0 -149 -57.5t-108.5 -144t-62.5 -178t-22 -167.5q0 -132 52 -212.5t143 -80.5zM438 -20q-175 0 -273.5 106t-98.5 281q0 92 25.5 182t74.5 167.5t115 137.5t152 94.5
t181 34.5q175 0 274 -106t99 -281q0 -154 -68.5 -294t-196.5 -231t-284 -91zM608 1096q-35 0 -56.5 20.5t-21.5 52.5q0 44 32.5 77.5t78.5 33.5q35 0 56.5 -21.5t21.5 -54.5q0 -41 -34 -74.5t-77 -33.5zM956 1096q-35 0 -56 20t-21 53q0 44 32 77.5t78 33.5q35 0 56.5 -21.5
t21.5 -54.5q0 -41 -34 -74.5t-77 -33.5z" />
    <glyph glyph-name="divide" unicode="&#xf7;" horiz-adv-x="1157" 
d="M627 870q-35 0 -56.5 21.5t-21.5 54.5q0 43 33.5 76t76.5 33q35 0 56.5 -20.5t21.5 -53.5q0 -44 -32 -77.5t-78 -33.5zM1032 614h-901l23 123h901zM526 297q-35 0 -56 21.5t-21 54.5q0 43 33.5 75.5t76.5 32.5q35 0 56.5 -21t21.5 -54q0 -42 -33.5 -75.5t-77.5 -33.5z
" />
    <glyph glyph-name="oslash" unicode="&#xf8;" horiz-adv-x="1081" 
d="M266 268l479 549q-57 84 -145 84q-80 0 -148 -57t-108.5 -142t-63 -175.5t-22.5 -166.5q0 -56 8 -92zM453 61q80 0 147.5 57t108.5 142t63.5 175.5t22.5 166.5q0 51 -9 92l-479 -549q50 -84 146 -84zM438 -20q-129 0 -223 61l-33 -41h-149l102 119q-69 100 -69 248
q0 92 25.5 182t74.5 167.5t115 137.5t152 94.5t181 34.5q134 0 222 -61l34 41h150l-105 -121q72 -104 72 -252q0 -113 -41.5 -223t-112.5 -195.5t-175 -138.5t-220 -53z" />
    <glyph glyph-name="ugrave" unicode="&#xf9;" horiz-adv-x="1099" 
d="M674 1075h-82l-148 266h195zM397 -20q-295 0 -295 266q0 11 17 127q12 81 59 344q10 72 10 92q0 58 -27 85.5t-89 27.5h-21l6 41h164q87 0 121.5 -26.5t34.5 -98.5q0 -36 -15 -121q-71 -399 -71 -447q0 -99 50 -148.5t134 -49.5q103 0 223 108l138 783h184l-168 -963
h-102l-58 82h-10q-128 -102 -285 -102z" />
    <glyph glyph-name="uacute" unicode="&#xfa;" horiz-adv-x="1099" 
d="M655 1026h-82l129 266h195zM397 -20q-295 0 -295 266q0 11 17 127q12 81 59 344q10 72 10 92q0 58 -27 85.5t-89 27.5h-21l6 41h164q87 0 121.5 -26.5t34.5 -98.5q0 -36 -15 -121q-71 -399 -71 -447q0 -99 50 -148.5t134 -49.5q103 0 223 108l138 783h184l-168 -963h-102
l-58 82h-10q-128 -102 -285 -102z" />
    <glyph glyph-name="ucircumflex" unicode="&#xfb;" horiz-adv-x="1099" 
d="M446 1077h-102l205 236h225l123 -236h-102l-146 164zM397 -20q-295 0 -295 266q0 11 17 127q12 81 59 344q10 72 10 92q0 58 -27 85.5t-89 27.5h-21l6 41h164q87 0 121.5 -26.5t34.5 -98.5q0 -36 -15 -121q-71 -399 -71 -447q0 -99 50 -148.5t134 -49.5q103 0 223 108
l138 783h184l-168 -963h-102l-58 82h-10q-128 -102 -285 -102z" />
    <glyph glyph-name="udieresis" unicode="&#xfc;" horiz-adv-x="1099" 
d="M483 1096q-35 0 -56 20t-21 53q0 44 32 77.5t78 33.5q35 0 56.5 -21.5t21.5 -54.5q0 -41 -34 -74.5t-77 -33.5zM831 1096q-35 0 -56 20t-21 53q0 44 32 77.5t78 33.5q35 0 56.5 -21.5t21.5 -54.5q0 -41 -34 -74.5t-77 -33.5zM397 -20q-295 0 -295 266q0 11 17 127
q12 81 59 344q10 72 10 92q0 58 -27 85.5t-89 27.5h-21l6 41h164q87 0 121.5 -26.5t34.5 -98.5q0 -36 -15 -121q-71 -399 -71 -447q0 -99 50 -148.5t134 -49.5q103 0 223 108l138 783h184l-168 -963h-102l-58 82h-10q-128 -102 -285 -102z" />
    <glyph glyph-name="yacute" unicode="&#xfd;" horiz-adv-x="1052" 
d="M688 1026h-82l129 266h195zM35 -410l12 62q103 0 176 48t137 167l62 113l-186 798q-35 149 -197 164l6 41h174q176 0 217 -164l133 -567l383 711h103l-592 -1096q-35 -67 -66 -112t-74.5 -85.5t-99.5 -60t-127 -19.5h-61z" />
    <glyph glyph-name="thorn" unicode="&#xfe;" horiz-adv-x="1077" 
d="M440 61q74 0 135 40.5t99 103t63.5 142.5t36 153.5t10.5 140.5q0 260 -176 260q-137 0 -235 -123l-117 -655q112 -62 184 -62zM242 41l-76 -430h-184q71 403 145.5 829t81.5 467q45 253 45 287q0 59 -27.5 88t-89.5 29h-31l9 41h174q88 0 120.5 -25.5t32.5 -99.5
q0 -50 -55 -357q113 113 297 113q143 0 219 -96.5t76 -261.5q0 -88 -19 -177.5t-60 -173.5t-97.5 -149.5t-138.5 -105t-177 -39.5q-135 0 -245 61z" />
    <glyph glyph-name="ydieresis" unicode="&#xff;" horiz-adv-x="1052" 
d="M500 1096q-35 0 -56.5 20.5t-21.5 52.5q0 44 32 77.5t78 33.5q35 0 56.5 -21.5t21.5 -54.5q0 -41 -33.5 -74.5t-76.5 -33.5zM848 1096q-35 0 -56.5 20.5t-21.5 52.5q0 44 32.5 77.5t78.5 33.5q35 0 56 -21.5t21 -54.5q0 -41 -33.5 -74.5t-76.5 -33.5zM35 -410l12 62
q103 0 176 48t137 167l62 113l-186 798q-35 149 -197 164l6 41h174q176 0 217 -164l133 -567l383 711h103l-592 -1096q-35 -67 -66 -112t-74.5 -85.5t-99.5 -60t-127 -19.5h-61z" />
    <glyph glyph-name="Abreve" unicode="&#x102;" horiz-adv-x="1298" 
d="M322 471h501l-141 594zM1180 -10q-101 0 -183 55q-83 51 -118 211l-29 133h-574l-231 -389h-92l811 1352h61l258 -1096q25 -118 64 -163t123 -52l-6 -41q-45 -10 -84 -10zM809 1456q-170 0 -238 164l47 31q37 -43 84.5 -62.5t126.5 -19.5q80 0 135.5 20t104.5 62l35 -31
q-117 -164 -295 -164z" />
    <glyph glyph-name="abreve" unicode="&#x103;" 
d="M438 61q79 0 131.5 30t104.5 93l106 594q-39 68 -74 95.5t-100 27.5q-73 0 -133.5 -40.5t-98.5 -103.5t-65 -142t-38 -153t-11 -140q0 -123 44 -192t134 -69zM362 -20q-144 0 -220 95.5t-76 258.5q0 113 32.5 223.5t92.5 202.5t156 153t212 70q169 0 236 -113h10l88 93
h102l-168 -963h-102l-57 92h-11q-107 -112 -295 -112zM670 1067q-170 0 -238 164l47 31q37 -43 84.5 -62.5t126.5 -19.5q80 0 135.5 20t104.5 62l35 -31q-117 -164 -295 -164z" />
    <glyph glyph-name="Dcroat" unicode="&#x110;" horiz-adv-x="1466" 
d="M532 72q142 0 266.5 65t208 170t131.5 238t48 270q0 214 -120.5 339.5t-324.5 125.5q-99 0 -211 -33l-94 -530h178l-14 -82h-178l-94 -537q110 -26 204 -26zM526 0h-405l110 635h-153l14 82h154l69 389q9 44 9 88q0 59 -27.5 88t-89.5 29h-41l8 41h537q344 0 522 -136
t178 -387q0 -185 -71 -342t-192 -263t-282 -165t-340 -59z" />
    <glyph glyph-name="dcroat" unicode="&#x111;" horiz-adv-x="1079" 
d="M674 184l117 656q-113 61 -185 61q-74 0 -135 -40.5t-99 -103t-63.5 -142t-36 -153t-10.5 -140.5q0 -261 176 -261q79 0 131.5 30t104.5 93zM1028 1161h88l-14 -82h-86q-45 -266 -189 -1079h-102l-57 92h-11q-107 -112 -295 -112q-143 0 -218.5 96.5t-75.5 261.5
q0 87 19.5 176.5t60 173.5t97.5 150t138.5 105.5t175.5 39.5q133 0 246 -61l26 157h-303l15 82h301q2 10 2 33q0 59 -27.5 88t-89.5 29h-41l8 41h185q88 0 120.5 -25.5t32.5 -99.5q0 -19 -6 -66z" />
    <glyph glyph-name="Gbreve" unicode="&#x11e;" horiz-adv-x="1474" 
d="M909 1495q-184 0 -233 184l45 31q59 -92 209 -92q152 0 241 92l37 -31q-114 -184 -299 -184zM680 -41q-174 0 -306.5 77t-203 211t-70.5 304q0 126 37 249.5t107 229.5t163 188t213 128.5t250 46.5q180 0 332 -58q154 -59 154 -209q0 -63 -21 -174h-41q-12 359 -376 359
q-123 0 -227 -51t-175.5 -134.5t-121.5 -192t-73.5 -223t-23.5 -227.5q0 -224 105 -333t292 -109q183 0 330 72l63 356q10 55 29 94t59.5 74.5t113.5 53.5t179 18l-8 -41q-88 0 -128 -45t-60 -150l-68 -385q-235 -129 -524 -129z" />
    <glyph glyph-name="gbreve" unicode="&#x11f;" horiz-adv-x="1073" 
d="M461 82q74 0 205 61l112 635q-32 60 -77.5 91.5t-116.5 31.5q-68 0 -124.5 -39.5t-92 -100.5t-60 -137.5t-35 -147t-10.5 -132.5q0 -125 49.5 -193.5t149.5 -68.5zM362 -410q-129 0 -210.5 50.5t-128.5 164.5l45 31q46 -87 106 -125.5t162 -38.5q117 0 199.5 100
t113.5 279l2 10q-134 -61 -266 -61q-154 0 -234.5 95.5t-80.5 260.5q0 82 18.5 168t57.5 168.5t93 147t131.5 104t166.5 39.5q186 0 256 -113h10l88 93h102l-159 -912q-37 -212 -163.5 -336.5t-308.5 -124.5zM606 1087q-183 0 -233 185l45 31q59 -93 209 -93q151 0 241 93
l37 -31q-114 -185 -299 -185z" />
    <glyph glyph-name="Itilde" unicode="&#x128;" horiz-adv-x="591" 
d="M260 1536h-61q20 105 57 150t100 45q49 0 105 -43q3 -1 16.5 -9t24 -14t26.5 -11t29 -5q23 0 47 27.5t29 54.5h61q-19 -104 -56 -149.5t-101 -45.5q-27 0 -45.5 8.5t-57.5 32.5q-59 41 -98 41q-23 0 -47 -27.5t-29 -54.5zM455 0h-185q-87 0 -121 26.5t-34 98.5
q0 41 14 121l195 1106h184l-195 -1106q-10 -72 -10 -92q0 -58 27.5 -85.5t89.5 -27.5h41z" />
    <glyph glyph-name="itilde" unicode="&#x129;" horiz-adv-x="514" 
d="M123 1147h-62q20 105 57 149.5t101 44.5q49 0 105 -43q3 -1 16.5 -9t24 -13.5t26.5 -10.5t29 -5q23 0 47 27t29 54h61q-18 -104 -56 -149t-102 -45q-19 0 -36 5.5t-27 11.5t-39 24q-59 41 -98 41q-23 0 -47 -27.5t-29 -54.5zM270 0h-184q19 109 44.5 252.5t40 226.5
t22.5 135q28 182 28 195q0 58 -27.5 85.5t-89.5 27.5h-41l7 41h184q87 0 121.5 -26.5t34.5 -98.5q0 -39 -62 -387z" />
    <glyph glyph-name="Idotaccent" unicode="&#x130;" horiz-adv-x="591" 
d="M440 1454q-41 0 -67.5 31t-26.5 76q0 50 31.5 83t81.5 33q41 0 67.5 -30.5t26.5 -75.5q0 -50 -31.5 -83.5t-81.5 -33.5zM455 0h-185q-87 0 -121 26.5t-34 98.5q0 41 14 121l195 1106h184l-195 -1106q-10 -72 -10 -92q0 -58 27.5 -85.5t89.5 -27.5h41z" />
    <glyph glyph-name="dotlessi" unicode="&#x131;" horiz-adv-x="514" 
d="M270 0h-184q19 109 44.5 252.5t40 226.5t22.5 135q28 182 28 195q0 58 -27.5 85.5t-89.5 27.5h-41l7 41h184q87 0 121.5 -26.5t34.5 -98.5q0 -39 -62 -387z" />
    <glyph glyph-name="OE" unicode="&#x152;" horiz-adv-x="1935" 
d="M635 41q124 0 227 65l201 1143q-80 62 -205 62q-96 0 -179 -39.5t-142.5 -106t-106.5 -151.5t-75 -180t-42 -186t-14 -175q0 -208 86.5 -320t249.5 -112zM621 -41q-162 0 -281.5 72t-180.5 196.5t-61 286.5q0 128 36 255.5t105 239t161.5 198t215 136.5t256.5 50
q130 0 220 -41h677q150 0 150 -119q0 -9 -8 -53l-23 -146h-41q6 34 6 62q0 174 -221 174h-381l-94 -533h553l-14 -82h-553l-101 -573h359q142 0 231 51.5t156 173.5l39 -10l-107 -195q-52 -102 -170 -102h-696q-109 -41 -233 -41z" />
    <glyph glyph-name="oe" unicode="&#x153;" horiz-adv-x="1611" 
d="M453 61q145 0 260 195q-13 67 -13 113q0 164 91 338q-19 92 -68 143t-123 51q-81 0 -149 -57.5t-108.5 -144t-62.5 -178t-22 -167.5q0 -132 52 -212.5t143 -80.5zM913 532l-4 -20h203q102 0 168 63t66 170q0 146 -144 146q-93 0 -177 -104t-112 -255zM438 -20
q-175 0 -273.5 106t-98.5 281q0 92 25.5 182t74.5 167.5t115 137.5t152 94.5t181 34.5q200 0 289 -121q127 121 295 121q174 0 258 -61.5t84 -171.5q0 -69 -25.5 -124.5t-67.5 -91.5t-99 -60t-116.5 -34t-123.5 -10h-213q-6 -44 -6 -92q0 -129 57 -203t162 -74
q94 0 167 39.5t148 124.5l35 -30q-86 -114 -183.5 -164.5t-221.5 -50.5q-186 0 -287 122q-143 -122 -328 -122z" />
    <glyph glyph-name="Scedilla" unicode="&#x15e;" horiz-adv-x="1093" 
d="M309 -381l15 84h102q40 0 68 21.5t28 58.5q0 53 -73 53h-93l25 135q-150 19 -242 78.5t-92 143.5q0 21 41 241h37v-14q0 -193 84.5 -283t259.5 -90q119 0 214 70t95 182q0 65 -41.5 118t-138.5 122l-225 149q-101 68 -143 131t-42 148q0 179 136 300.5t329 121.5
q100 0 191 -26.5t151 -78.5t60 -117q0 -14 -8 -55l-33 -188h-37v14q0 194 -81.5 281.5t-256.5 87.5q-106 0 -192.5 -72t-86.5 -174q0 -63 39.5 -110t145.5 -120l225 -149q107 -71 154 -133.5t47 -142.5q0 -125 -69.5 -225t-182 -155t-246.5 -61l-10 -47h20q65 0 103.5 -30.5
t38.5 -86.5q0 -75 -56 -128.5t-137 -53.5h-123z" />
    <glyph glyph-name="scedilla" unicode="&#x15f;" horiz-adv-x="919" 
d="M219 -360l17 84h102q40 0 67 22t27 59q0 52 -72 52h-92l23 125q-113 7 -184.5 48.5t-71.5 123.5q0 17 3.5 43t7.5 50t5 29h41v-4q0 -102 62.5 -156.5t187.5 -54.5q110 0 174 38t76 106q2 6 2 26q0 49 -35.5 85t-118.5 73l-114 51q-201 87 -201 234q0 71 38.5 136.5
t96.5 102.5q101 70 254 70q322 0 322 -170q0 -19 -3 -46t-7.5 -53.5t-4.5 -27.5h-41v4q0 102 -60 156.5t-179 54.5q-56 0 -106 -15t-88 -53.5t-38 -95.5q0 -95 135 -153l113 -52q118 -52 169.5 -105.5t51.5 -131.5q0 -3 -4 -49q-24 -122 -129 -191.5t-262 -74.5l-8 -41h20
q65 0 103.5 -30.5t38.5 -86.5q0 -78 -56.5 -130t-138.5 -52h-123z" />
    <glyph glyph-name="Scaron" unicode="&#x160;" horiz-adv-x="1093" 
d="M797 1475h-226l-122 235h102l145 -164l203 164h102zM473 -35q-110 0 -207 28.5t-158 81.5t-61 118q0 21 41 241h37v-14q0 -193 84.5 -283t259.5 -90q119 0 214 70t95 182q0 65 -41.5 118t-138.5 122l-225 149q-101 68 -143 131t-42 148q0 179 136 300.5t329 121.5
q100 0 191 -26.5t151 -78.5t60 -117q0 -14 -8 -55l-33 -188h-37v14q0 194 -81.5 281.5t-256.5 87.5q-106 0 -192.5 -72t-86.5 -174q0 -63 39.5 -110t145.5 -120l225 -149q107 -71 154 -133.5t47 -142.5q0 -123 -69.5 -225t-183.5 -159t-245 -57z" />
    <glyph glyph-name="scaron" unicode="&#x161;" horiz-adv-x="919" 
d="M641 1065h-225l-123 235h102l146 -163l202 163h103zM369 -20q-142 0 -234 32q-100 34 -100 142q0 17 3.5 43t7.5 50t5 29h41v-4q0 -102 62.5 -156.5t187.5 -54.5q43 0 84.5 9t80.5 27.5t63 53t24 80.5q0 49 -35.5 85t-118.5 73l-114 51q-201 87 -201 234q0 91 56.5 163
t144.5 109t188 37q322 0 322 -170q0 -19 -3 -46t-7.5 -53.5t-4.5 -27.5h-41v4q0 102 -60 156.5t-179 54.5q-56 0 -106 -15t-88 -53.5t-38 -95.5q0 -95 135 -153l113 -52q118 -52 169.5 -105.5t51.5 -131.5q0 -96 -59 -169t-151 -109.5t-199 -36.5z" />
    <glyph glyph-name="Utilde" unicode="&#x168;" horiz-adv-x="1406" 
d="M700 1536h-61q20 105 57 150t101 45q48 0 104 -43q3 -1 16.5 -9t24 -14t26.5 -11t29 -5q23 0 47 27.5t29 54.5h62q-18 -104 -56 -149.5t-102 -45.5q-27 0 -45.5 8.5t-57.5 32.5q-59 41 -98 41q-23 0 -47 -27.5t-29 -54.5zM618 -20q-231 0 -334.5 92.5t-103.5 289.5
q0 81 23 222l92 522q8 39 8 88q0 59 -27.5 88t-89.5 29h-41l9 41h184q87 0 121.5 -26.5t34.5 -98.5q0 -35 -15 -121l-104 -584q-17 -107 -17 -160q0 -150 73 -225.5t226 -75.5q230 0 345 121.5t163 401.5l135 768h82l-135 -768q-23 -128 -53.5 -219.5t-78.5 -167.5
t-115.5 -122t-162 -70.5t-219.5 -24.5z" />
    <glyph glyph-name="utilde" unicode="&#x169;" horiz-adv-x="1099" 
d="M477 1147h-61q20 105 56.5 149.5t100.5 44.5q49 0 105 -43q3 -1 16.5 -9t24 -13.5t26.5 -10.5t29 -5q23 0 47 27t29 54h61q-18 -104 -55.5 -149t-101.5 -45q-27 0 -45.5 8.5t-57.5 32.5q-59 41 -98 41q-23 0 -47 -27.5t-29 -54.5zM397 -20q-295 0 -295 266q0 11 17 127
q12 81 59 344q10 72 10 92q0 58 -27 85.5t-89 27.5h-21l6 41h164q87 0 121.5 -26.5t34.5 -98.5q0 -36 -15 -121q-71 -399 -71 -447q0 -99 50 -148.5t134 -49.5q103 0 223 108l138 783h184l-168 -963h-102l-58 82h-10q-128 -102 -285 -102z" />
    <glyph glyph-name="Ydieresis" unicode="&#x178;" horiz-adv-x="1288" 
d="M684 1413q-41 0 -63.5 22.5t-22.5 59.5q0 51 35 87t88 36q41 0 63.5 -22.5t22.5 -59.5q0 -51 -35 -87t-88 -36zM1032 1413q-41 0 -63.5 22.5t-22.5 59.5q0 51 35 87t88 36q41 0 63.5 -22.5t22.5 -59.5q0 -51 -35 -87t-88 -36zM487 0l99 559l-256 526q-60 120 -112.5 170
t-145.5 56l8 41h184q97 0 157.5 -56.5t108.5 -169.5l218 -460l548 686h93l-617 -779l-100 -573h-185z" />
    <glyph glyph-name="Zcaron" unicode="&#x17d;" horiz-adv-x="1216" 
d="M907 1454h-225l-123 236h103l145 -164l203 164h102zM-45 0l6 41l1067 1229h-491q-251 0 -297 -236h-41l26 154q30 164 203 164h891l-1094 -1270h840l-14 -82h-1096z" />
    <glyph glyph-name="zcaron" unicode="&#x17e;" horiz-adv-x="958" 
d="M700 1065h-225l-123 235h103l145 -163l203 163h102zM-6 0l6 39l680 842h-236q-126 0 -198 -48t-90 -137h-41l18 103q30 164 203 164h625l-707 -881h553l-14 -82h-799z" />
    <glyph glyph-name="florin" unicode="&#x192;" horiz-adv-x="696" 
d="M-174 -389l8 41q96 0 162.5 103t99.5 296l146 830h-144l15 82h143l12 61q68 348 420 348q51 0 79 -2.5t60 -14t51.5 -37.5t32.5 -69l-69 -51q-45 92 -178 92q-156 0 -211 -266l-13 -61h287l-14 -82h-287l-145 -830q-22 -122 -54 -202t-85 -135t-129.5 -79t-186.5 -24z
" />
    <glyph glyph-name="Ohorn" unicode="&#x1a0;" horiz-adv-x="1458" 
d="M635 41q95 0 178.5 39t143 105.5t106.5 150.5t75.5 178.5t43 185t14.5 174.5q0 208 -87.5 322.5t-250.5 114.5q-96 0 -179 -39.5t-142.5 -106t-106.5 -151.5t-75 -180t-42 -186t-14 -175q0 -208 86.5 -320t249.5 -112zM621 -41q-162 0 -281.5 72t-180.5 196.5t-61 286.5
q0 128 36 255.5t105 239t161.5 198t215 136.5t256.5 50q186 0 320 -97q92 4 153.5 64t81.5 149h117q-46 -232 -297 -262q150 -156 150 -413q0 -161 -57.5 -318t-157.5 -280.5t-247.5 -200t-313.5 -76.5z" />
    <glyph glyph-name="ohorn" unicode="&#x1a1;" horiz-adv-x="1083" 
d="M453 61q56 0 105.5 27t86 72t66 101.5t47.5 118t27.5 120t9.5 108.5q0 132 -52 212.5t-143 80.5q-81 0 -149 -57.5t-108.5 -144t-62.5 -178t-22 -167.5q0 -132 52 -212.5t143 -80.5zM961 1176h116q-41 -206 -243 -252q75 -49 114 -134t39 -194q0 -154 -68.5 -294
t-196.5 -231t-284 -91q-175 0 -273.5 106t-98.5 281q0 92 25.5 182t74.5 167.5t115 137.5t152 94.5t181 34.5q72 0 131 -18q84 12 141 70.5t75 140.5z" />
    <glyph glyph-name="Uhorn" unicode="&#x1af;" horiz-adv-x="1406" 
d="M1589 1565h117q-50 -250 -332 -265l-127 -716q-23 -128 -53.5 -219.5t-78.5 -167.5t-115.5 -122t-162 -70.5t-219.5 -24.5q-231 0 -334.5 92.5t-103.5 289.5q0 81 23 222l92 522q8 39 8 88q0 59 -27.5 88t-89.5 29h-41l9 41h184q87 0 121.5 -26.5t34.5 -98.5
q0 -35 -15 -121l-104 -584q-17 -107 -17 -160q0 -150 73 -225.5t226 -75.5q230 0 345 121.5t163 401.5l135 768h41q98 0 163 60.5t85 152.5z" />
    <glyph glyph-name="uhorn" unicode="&#x1b0;" horiz-adv-x="1099" 
d="M1212 1176h117q-50 -244 -317 -265l-160 -911h-102l-58 82h-10q-128 -102 -285 -102q-295 0 -295 266q0 11 17 127q12 81 59 344q10 72 10 92q0 58 -27 85.5t-89 27.5h-21l6 41h164q87 0 121.5 -26.5t34.5 -98.5q0 -36 -15 -121q-71 -399 -71 -447q0 -99 50 -148.5
t134 -49.5q103 0 223 108l138 783h129q98 0 162.5 60.5t84.5 152.5z" />
    <glyph glyph-name="uni02BC" unicode="&#x2bc;" horiz-adv-x="360" 
d="M131 1055l-14 30q92 58 144 124.5t69 152.5l-66 -21q-41 0 -67.5 27t-26.5 66q0 56 43 99.5t102 43.5q113 0 113 -107q0 -121 -82.5 -232.5t-214.5 -182.5z" />
    <glyph glyph-name="circumflex" unicode="&#x2c6;" horiz-adv-x="634" 
d="M299 1352h-102l204 235h226l123 -235h-103l-145 164z" />
    <glyph glyph-name="caron" unicode="&#x2c7;" horiz-adv-x="382" 
d="M334 1065h-225l-123 235h102l145 -163l203 163h103z" />
    <glyph glyph-name="breve" unicode="&#x2d8;" horiz-adv-x="382" 
d="M209 1067q-170 0 -238 164l47 31q37 -43 84.5 -62.5t126.5 -19.5q80 0 135.5 20t104.5 62l35 -31q-117 -164 -295 -164z" />
    <glyph glyph-name="ring" unicode="&#x2da;" horiz-adv-x="409" 
d="M340 1085q-61 0 -103 43t-42 105q0 74 64.5 137.5t141.5 63.5q61 0 103.5 -43t42.5 -105q0 -74 -65 -137.5t-142 -63.5zM352 1157q47 0 80 37t33 88q0 37 -20.5 58.5t-55.5 21.5q-47 0 -80 -37t-33 -88q0 -37 20.5 -58.5t55.5 -21.5z" />
    <glyph glyph-name="tilde" unicode="&#x2dc;" horiz-adv-x="542" 
d="M264 1393h-61q20 105 56.5 149.5t100.5 44.5q49 0 105 -43q3 -1 16.5 -9t24 -14t26.5 -11t29 -5q23 0 47 27.5t29 54.5h61q-18 -104 -55.5 -149t-101.5 -45q-27 0 -45.5 8.5t-57.5 32.5q-59 41 -98 41q-23 0 -47 -27.5t-29 -54.5z" />
    <glyph glyph-name="gravecomb" unicode="&#x300;" horiz-adv-x="0" 
d="M2 1075h-82l-147 266h194z" />
    <glyph glyph-name="acutecomb" unicode="&#x301;" horiz-adv-x="0" 
d="M-209 1106h-102l186 235h174z" />
    <glyph glyph-name="uni0302" unicode="&#x302;" horiz-adv-x="0" 
d="M-451 1065h-102l205 235h225l123 -235h-102l-146 164z" />
    <glyph glyph-name="tildecomb" unicode="&#x303;" horiz-adv-x="0" 
d="M-385 1147h-61q20 105 56.5 149.5t100.5 44.5q49 0 105 -43q3 -1 16.5 -9t24 -13.5t26.5 -10.5t29 -5q23 0 47 27t29 54h61q-18 -104 -56 -149t-102 -45q-19 0 -36 5.5t-27 11.5t-39 24q-59 41 -98 41q-23 0 -47 -27.5t-29 -54.5z" />
    <glyph glyph-name="uni0304" unicode="&#x304;" horiz-adv-x="0" 
d="M14 1147h-522v123h522v-123z" />
    <glyph glyph-name="uni0306" unicode="&#x306;" horiz-adv-x="0" 
d="M-264 1067q-170 0 -238 164l47 31q37 -43 84.5 -62.5t126.5 -19.5q80 0 135.5 20t104.5 62l35 -31q-117 -164 -295 -164z" />
    <glyph glyph-name="uni0308" unicode="&#x308;" horiz-adv-x="0" 
d="M-434 1096q-35 0 -56.5 20.5t-21.5 52.5q0 44 32.5 77.5t78.5 33.5q35 0 56 -21.5t21 -54.5q0 -41 -33.5 -74.5t-76.5 -33.5zM-86 1096q-35 0 -56.5 20.5t-21.5 52.5q0 44 32.5 77.5t78.5 33.5q35 0 56.5 -21.5t21.5 -54.5q0 -41 -34 -74.5t-77 -33.5z" />
    <glyph glyph-name="hookabovecomb" unicode="&#x309;" horiz-adv-x="0" 
d="M-217 1067h-64q7 34 20 56t48 65q43 54 43 92q0 53 -55 53q-42 0 -69 -23t-50 -79l-84 2q12 80 73 128t144 48q63 0 104 -32.5t41 -90.5q0 -3 -4 -35q-4 -22 -16.5 -36.5t-48.5 -43.5q-41 -34 -58 -54t-24 -50z" />
    <glyph glyph-name="uni030A" unicode="&#x30a;" horiz-adv-x="0" 
d="M-170 1085q-61 0 -103 43t-42 105q0 74 64.5 137.5t141.5 63.5q61 0 103.5 -43t42.5 -105q0 -74 -65 -137.5t-142 -63.5zM-158 1157q47 0 80 37t33 88q0 37 -20.5 58.5t-55.5 21.5q-47 0 -79.5 -37t-32.5 -88q0 -37 20 -58.5t55 -21.5z" />
    <glyph glyph-name="uni030B" unicode="&#x30b;" horiz-adv-x="0" 
d="M-309 1075h-62l82 266h133zM-104 1075h-62l82 266h133z" />
    <glyph glyph-name="uni030C" unicode="&#x30c;" horiz-adv-x="0" 
d="M-162 1065h-225l-123 235h102l146 -163l203 163h102z" />
    <glyph glyph-name="uni031B" unicode="&#x31b;" horiz-adv-x="0" 
d="M-457 909l11 54q98 0 162.5 60.5t84.5 152.5h117q-52 -267 -375 -267z" />
    <glyph glyph-name="dotbelowcomb" unicode="&#x323;" horiz-adv-x="0" 
d="M-391 -330q-35 0 -55.5 21.5t-20.5 56.5q0 41 33 74t76 33q35 0 56 -21.5t21 -54.5q0 -41 -33.5 -75t-76.5 -34z" />
    <glyph glyph-name="uni0326" unicode="&#x326;" horiz-adv-x="0" 
d="M-535 -666l-14 31q92 58 144 124.5t69 152.5l-65 -21q-41 0 -68 26.5t-27 65.5q0 56 43.5 100t102.5 44q112 0 112 -107q0 -121 -82.5 -233t-214.5 -183z" />
    <glyph glyph-name="uni0327" unicode="&#x327;" horiz-adv-x="0" 
d="M-545 -401l15 84h102q40 0 68 22t28 59q0 52 -71 52h-93l33 184h92l-18 -102h20q64 0 102 -31.5t38 -87.5q0 -78 -55.5 -129t-137.5 -51h-123z" />
    <glyph glyph-name="uni0335" unicode="&#x335;" horiz-adv-x="0" 
d="M-106 461h-574l14 82h574z" />
    <glyph glyph-name="uni0400" unicode="&#x400;" horiz-adv-x="1214" 
d="M801 1464h-82l-148 267h195zM123 0l123 713q20 117 51 295q29 182 29 186q0 59 -27.5 88t-89.5 29h-41l8 41h873q149 0 149 -119q0 -9 -8 -53l-23 -146h-41q7 40 7 62q0 174 -222 174h-381l-94 -533h553l-14 -82h-553l-100 -573h358q142 0 231 51.5t156 173.5l39 -10
l-107 -195q-53 -102 -170 -102h-706z" />
    <glyph glyph-name="uni0401" unicode="&#x401;" horiz-adv-x="1214" 
d="M610 1485q-35 0 -56.5 20.5t-21.5 53.5q0 44 32.5 77t78.5 33q35 0 56.5 -21.5t21.5 -54.5q0 -41 -34 -74.5t-77 -33.5zM958 1485q-35 0 -56 20.5t-21 53.5q0 44 32 77t78 33q35 0 56.5 -21.5t21.5 -54.5q0 -41 -34 -74.5t-77 -33.5zM123 0l123 713q20 117 51 295
q29 182 29 186q0 59 -27.5 88t-89.5 29h-41l8 41h873q149 0 149 -119q0 -9 -8 -53l-23 -146h-41q7 40 7 62q0 174 -222 174h-381l-94 -533h553l-14 -82h-553l-100 -573h358q142 0 231 51.5t156 173.5l39 -10l-107 -195q-53 -102 -170 -102h-706z" />
    <glyph glyph-name="uni0402" unicode="&#x402;" horiz-adv-x="1378" 
d="M950 881q168 0 255 -72t87 -244q0 -133 -26.5 -249t-77.5 -206.5t-133 -143t-185 -52.5q-4 0 -11.5 0.5t-21.5 1.5t-26 2l8 41q62 0 113.5 45.5t82.5 113.5t52.5 150.5t30 151t8.5 121.5q0 131 -60 189t-174 58q-71 0 -156.5 -23.5t-144.5 -57.5l-122 -707h-185l223 1270
h-26q-257 0 -297 -236h-41l27 154q27 164 202 164h912l-15 -82h-577l-84 -471q60 34 161.5 58t200.5 24z" />
    <glyph glyph-name="uni0403" unicode="&#x403;" horiz-adv-x="1107" 
d="M831 1495h-102l186 236h175zM123 0l123 713q20 117 51 295q29 182 29 186q0 59 -27.5 88t-89.5 29h-41l8 41h850q150 0 150 -121q0 -3 -9 -55l-22 -142h-41q6 34 6 62q0 174 -221 174h-359l-223 -1270h-184z" />
    <glyph glyph-name="uni0404" unicode="&#x404;" horiz-adv-x="1366" 
d="M621 -41q-245 0 -386 152.5t-141 394.5q0 232 113 436q107 195 284 323t381 128q218 0 341.5 -73.5t123.5 -193.5q0 -81 -24 -204h-41q-4 200 -91 294.5t-261 94.5q-216 0 -372.5 -147.5t-223.5 -446.5h677l-14 -82h-678q-10 -78 -10 -129q0 -99 23 -182t69.5 -147
t124.5 -100t180 -36q150 0 273.5 71t238.5 216l35 -31q-122 -180 -272 -259t-350 -79z" />
    <glyph glyph-name="uni0405" unicode="&#x405;" horiz-adv-x="1093" 
d="M473 -35q-110 0 -207 28.5t-158 81.5t-61 118q0 21 41 241h37v-14q0 -193 84.5 -283t259.5 -90q119 0 214 70t95 182q0 65 -41.5 118t-138.5 122l-225 149q-101 68 -143 131t-42 148q0 179 136 300.5t329 121.5q100 0 191 -26.5t151 -78.5t60 -117q0 -14 -8 -55l-33 -188
h-37v14q0 194 -81.5 281.5t-256.5 87.5q-106 0 -192.5 -72t-86.5 -174q0 -63 39.5 -110t145.5 -120l225 -149q107 -71 154 -133.5t47 -142.5q0 -123 -69.5 -225t-183.5 -159t-245 -57z" />
    <glyph glyph-name="uni0406" unicode="&#x406;" horiz-adv-x="591" 
d="M455 0h-185q-87 0 -121 26.5t-34 98.5q0 41 14 121l195 1106h184l-195 -1106q-10 -72 -10 -92q0 -58 27.5 -85.5t89.5 -27.5h41z" />
    <glyph glyph-name="uni0407" unicode="&#x407;" horiz-adv-x="591" 
d="M266 1485q-35 0 -56.5 20.5t-21.5 53.5q0 44 32.5 77t78.5 33q35 0 56.5 -21.5t21.5 -54.5q0 -41 -34 -74.5t-77 -33.5zM614 1485q-35 0 -56 20.5t-21 53.5q0 44 32 77t78 33q35 0 56.5 -21.5t21.5 -54.5q0 -41 -34 -74.5t-77 -33.5zM455 0h-185q-87 0 -121 26.5
t-34 98.5q0 41 14 121l195 1106h184l-195 -1106q-10 -72 -10 -92q0 -58 27.5 -85.5t89.5 -27.5h41z" />
    <glyph glyph-name="uni0408" unicode="&#x408;" horiz-adv-x="540" 
d="M-164 -281l8 41q96 0 162.5 103.5t99.5 296.5l211 1192h185l-211 -1192q-22 -122 -53.5 -202.5t-84.5 -135.5t-129.5 -79t-187.5 -24z" />
    <glyph glyph-name="uni0409" unicode="&#x409;" horiz-adv-x="1976" 
d="M1266 72q187 0 308.5 104t121.5 287q0 120 -83 182t-237 62q-103 0 -198 -31l-103 -574q83 -30 191 -30zM-10 -20q-52 0 -99 18l9 51q101 3 192 88q186 180 332 969q8 39 8 88q0 59 -27.5 88t-89.5 29h-20l8 41h993l-100 -574h225q205 0 342 -67q138 -67 138 -244
q0 -263 -187 -365q-188 -102 -430 -102h-410l224 1270h-492l-28 -164q-146 -827 -371 -1032q-101 -94 -217 -94z" />
    <glyph glyph-name="uni040A" unicode="&#x40a;" horiz-adv-x="1998" 
d="M1292 72q113 0 208.5 40.5t156.5 123.5t61 194q0 115 -83 175.5t-238 60.5q-106 0 -201 -31l-94 -533q82 -30 190 -30zM1311 0h-410l115 655h-594l-115 -655h-184l123 713q20 117 51 295q29 182 29 186q0 59 -27.5 88t-89.5 29h-41l8 41h184q86 0 120 -26.5t34 -98.5
q0 -38 -78 -490h594l109 615h184l-109 -615h226q202 0 344 -65q139 -65 139 -232q0 -248 -186 -342q-186 -98 -426 -98z" />
    <glyph glyph-name="uni040B" unicode="&#x40b;" horiz-adv-x="1394" 
d="M952 881q171 0 263 -64.5t92 -210.5q0 -58 -99 -606h-184q5 40 35 197q61 357 61 381q0 106 -65.5 158t-180.5 52q-71 0 -156.5 -23.5t-144.5 -57.5l-122 -707h-185l223 1270h-28q-257 0 -297 -236h-41l27 154q27 164 202 164h912l-15 -82h-575l-84 -471q60 34 161.5 58
t200.5 24z" />
    <glyph glyph-name="uni040C" unicode="&#x40c;" horiz-adv-x="1388" 
d="M891 1495h-103l187 236h174zM1174 -20q-104 0 -199 55t-199 190l-350 451l-119 -676h-184l123 713q20 117 51 295q29 182 29 186q0 59 -27.5 88t-89.5 29h-41l8 41h184q87 0 121.5 -26.5t34.5 -98.5q0 -34 -14 -119q-4 -27 -13.5 -79t-26.5 -146.5t-32 -175.5l506 430
q12 10 22 18t14 11.5t5 4.5q109 99 182 140t164 41h102l-10 -52q-89 0 -157.5 -30t-163.5 -113l-469 -399l383 -492q69 -93 153 -155t156 -72l-6 -39q-61 -20 -137 -20z" />
    <glyph glyph-name="uni040D" unicode="&#x40d;" horiz-adv-x="1425" 
d="M864 1464h-82l-147 267h194zM123 0l123 713q20 117 51 295q29 182 29 186q0 59 -27.5 88t-89.5 29h-41l8 41h184q86 0 120 -26.5t34 -98.5q0 -30 -37 -252q-9 -51 -54.5 -313t-84.5 -478l862 1168h184l-237 -1352h-184l204 1167l-860 -1167h-184z" />
    <glyph glyph-name="uni040E" unicode="&#x40e;" horiz-adv-x="1245" 
d="M764 1454q-185 0 -234 184l45 31q59 -92 209 -92q153 0 242 92l37 -31q-114 -184 -299 -184zM162 -20l10 61q234 0 334 154l31 51l-232 839q-15 49 -26 78.5t-29.5 60.5t-41.5 47t-58 27t-82 13l8 41h246q85 0 127.5 -53t76.5 -173l170 -614l516 840h123l-708 -1157
q-132 -215 -363 -215h-102z" />
    <glyph glyph-name="uni040F" unicode="&#x40f;" horiz-adv-x="1384" 
d="M500 -358l32 358h-409l123 713q20 117 51 295q29 182 29 186q0 59 -27.5 88t-89.5 29h-41l8 41h184q86 0 120 -26.5t34 -98.5q0 -23 -31 -217q-10 -53 -31 -175t-57.5 -335t-72.5 -418h614l223 1270h184l-237 -1352h-410l-94 -358h-102z" />
    <glyph glyph-name="uni0410" unicode="&#x410;" horiz-adv-x="1298" 
d="M322 471h501l-141 594zM1180 -10q-101 0 -183 55q-83 51 -118 211l-29 133h-574l-231 -389h-92l811 1352h61l258 -1096q25 -118 64 -163t123 -52l-6 -41q-45 -10 -84 -10z" />
    <glyph glyph-name="uni0411" unicode="&#x411;" horiz-adv-x="1253" 
d="M514 72q187 0 308.5 104t121.5 287q0 120 -82.5 182t-236.5 62q-86 0 -199 -29l-102 -578q103 -28 190 -28zM532 0h-409l123 713q20 117 51 295q29 182 29 186q0 59 -27.5 88t-89.5 29h-41l8 41h862q150 0 150 -121q0 -8 -8 -55l-23 -142h-41q6 34 6 62q0 174 -221 174
h-371l-86 -492h226q205 0 342 -67t137 -244q0 -264 -186 -365q-187 -102 -431 -102z" />
    <glyph glyph-name="uni0412" unicode="&#x412;" horiz-adv-x="1277" 
d="M512 72q67 0 130.5 13t120.5 41t100 68t68 97.5t25 126.5q0 111 -87.5 169t-256.5 58h-194l-96 -545q95 -28 190 -28zM526 1260l-94 -533h195q92 0 178.5 38.5t144.5 114t58 169.5q0 61 -30 107.5t-79 72.5t-103.5 38.5t-111.5 12.5q-77 0 -158 -20zM530 0h-409l194 1106
q9 44 9 88q0 59 -27.5 88t-89.5 29h-41l8 41h533q199 0 350 -60q145 -62 145 -231q0 -127 -87 -220.5t-238 -144.5q288 -46 288 -252q0 -100 -39 -179t-101 -128t-147 -80.5t-170.5 -44t-177.5 -12.5z" />
    <glyph glyph-name="uni0413" unicode="&#x413;" horiz-adv-x="1107" 
d="M123 0l123 713q20 117 51 295q29 182 29 186q0 59 -27.5 88t-89.5 29h-41l8 41h850q150 0 150 -121q0 -3 -9 -55l-22 -142h-41q6 34 6 62q0 174 -221 174h-359l-223 -1270h-184z" />
    <glyph glyph-name="uni0414" unicode="&#x414;" horiz-adv-x="1411" 
d="M221 82h697l208 1188h-532q-34 -187 -60.5 -311.5t-71.5 -293.5t-105 -314.5t-136 -268.5zM-63 -369h-91l64 379q4 30 29.5 51t56.5 21h82q126 199 210.5 448t143.5 576q8 39 8 88q0 59 -27.5 88t-88.5 29h-31l8 41h1024l-223 -1270h112q27 0 43.5 -15.5t16.5 -41.5
l-68 -394h-92q2 20 2 82q0 156 -45.5 221.5t-146.5 65.5h-666q-113 0 -187 -84t-134 -285z" />
    <glyph glyph-name="uni0415" unicode="&#x415;" horiz-adv-x="1214" 
d="M123 0l123 713q20 117 51 295q29 182 29 186q0 59 -27.5 88t-89.5 29h-41l8 41h873q149 0 149 -119q0 -9 -8 -53l-23 -146h-41q7 40 7 62q0 174 -222 174h-381l-94 -533h553l-14 -82h-553l-100 -573h358q142 0 231 51.5t156 173.5l39 -10l-107 -195q-53 -102 -170 -102
h-706z" />
    <glyph glyph-name="uni0416" unicode="&#x416;" horiz-adv-x="1941" 
d="M12 -20q-70 0 -129 20l8 39q71 7 171 70t194 157l477 492l-248 399q-47 78 -108.5 110.5t-143.5 32.5l11 52h102q63 0 113.5 -26.5t89 -69.5t86.5 -119l272 -430l115 645h178l-115 -645l424 430q103 109 189 162t178 53h102l-10 -52q-82 0 -153.5 -32t-147.5 -111
l-387 -399l301 -492q57 -92 138.5 -155.5t150.5 -71.5l-6 -39q-61 -20 -138 -20q-229 0 -376 245l-269 451l-118 -676h-179l119 676l-428 -451q-232 -245 -463 -245z" />
    <glyph glyph-name="uni0417" unicode="&#x417;" horiz-adv-x="1171" 
d="M446 -41q-168 0 -276 60t-170 196l47 31q119 -205 383 -205q183 0 300.5 98.5t117.5 263.5q0 118 -86.5 180t-255.5 62h-154l15 82h153q104 0 196 41.5t151 123.5t59 187q0 107 -74 169.5t-188 62.5q-146 0 -263.5 -86.5t-183.5 -241.5h-41q21 118 39 170q18 61 73 109.5
t126 75.5t141.5 41t132.5 14q182 0 307 -64q127 -65 127 -233q0 -138 -87 -241.5t-265 -158.5q149 -29 217 -96t68 -174q0 -99 -34.5 -179t-92.5 -132.5t-137 -88.5t-165 -51.5t-180 -15.5z" />
    <glyph glyph-name="uni0418" unicode="&#x418;" horiz-adv-x="1425" 
d="M123 0l123 713q20 117 51 295q29 182 29 186q0 59 -27.5 88t-89.5 29h-41l8 41h184q86 0 120 -26.5t34 -98.5q0 -30 -37 -252q-9 -51 -54.5 -313t-84.5 -478l862 1168h184l-237 -1352h-184l204 1167l-860 -1167h-184z" />
    <glyph glyph-name="uni0419" unicode="&#x419;" horiz-adv-x="1425" 
d="M829 1454q-184 0 -233 184l45 31q59 -92 209 -92q153 0 242 92l36 -31q-114 -184 -299 -184zM123 0l123 713q20 117 51 295q29 182 29 186q0 59 -27.5 88t-89.5 29h-41l8 41h184q86 0 120 -26.5t34 -98.5q0 -30 -37 -252q-9 -51 -54.5 -313t-84.5 -478l862 1168h184
l-237 -1352h-184l204 1167l-860 -1167h-184z" />
    <glyph glyph-name="uni041A" unicode="&#x41a;" horiz-adv-x="1388" 
d="M1174 -20q-104 0 -199 55t-199 190l-350 451l-119 -676h-184l123 713q20 117 51 295q29 182 29 186q0 59 -27.5 88t-89.5 29h-41l8 41h184q87 0 121.5 -26.5t34.5 -98.5q0 -34 -14 -119q-4 -27 -13.5 -79t-26.5 -146.5t-32 -175.5l506 430q12 10 22 18t14 11.5t5 4.5
q109 99 182 140t164 41h102l-10 -52q-89 0 -157.5 -30t-163.5 -113l-469 -399l383 -492q69 -93 153 -155t156 -72l-6 -39q-61 -20 -137 -20z" />
    <glyph glyph-name="uni041B" unicode="&#x41b;" horiz-adv-x="1357" 
d="M-10 -20q-52 0 -99 18l9 51q101 3 192 88q186 180 332 969q8 39 8 88q0 59 -27.5 88t-89.5 29h-20l8 41h1014l-238 -1352h-184l223 1270h-512l-28 -164q-146 -827 -371 -1032q-101 -94 -217 -94z" />
    <glyph glyph-name="uni041C" unicode="&#x41c;" horiz-adv-x="1755" 
d="M1614 -51l-6 -41q-173 0 -247.5 62.5t-74.5 205.5q0 68 19 172l139 789l-711 -1137h-41l-330 1157l-202 -1157h-82l237 1352h195l303 -1065l670 1065h184l-178 -1004q-19 -105 -19 -176q0 -223 144 -223z" />
    <glyph glyph-name="uni041D" unicode="&#x41d;" horiz-adv-x="1425" 
d="M121 0l194 1106q9 44 9 88q0 59 -27.5 88t-89.5 29h-41l8 41h184q88 0 121 -25.5t33 -99.5q0 -47 -12 -121l-66 -369h615l108 615h184l-194 -1106q-10 -72 -10 -92q0 -58 27 -85.5t89 -27.5h41l-6 -41h-184q-87 0 -121.5 26.5t-34.5 98.5q0 35 15 121l71 409h-614
l-115 -655h-184z" />
    <glyph glyph-name="uni041E" unicode="&#x41e;" horiz-adv-x="1458" 
d="M621 -41q-162 0 -281.5 72t-180.5 196.5t-61 286.5q0 128 36 255.5t105 239t161.5 198t215 136.5t256.5 50q244 0 384.5 -154.5t140.5 -404.5q0 -161 -57.5 -318t-157.5 -280.5t-247.5 -200t-313.5 -76.5zM635 41q95 0 178.5 39t143 105.5t106.5 150.5t75.5 178.5t43 185
t14.5 174.5q0 208 -87.5 322.5t-250.5 114.5q-96 0 -179 -39.5t-142.5 -106t-106.5 -151.5t-75 -180t-42 -186t-14 -175q0 -208 86.5 -320t249.5 -112z" />
    <glyph glyph-name="uni041F" unicode="&#x41f;" horiz-adv-x="1382" 
d="M121 0l194 1106q9 44 9 88q0 59 -27.5 88t-89.5 29h-41l8 41h1167l-237 -1352h-184l223 1270h-615l-223 -1270h-184z" />
    <glyph glyph-name="uni0420" unicode="&#x420;" horiz-adv-x="1136" 
d="M569 625q85 0 173 46.5t147 133.5q61 88 61 217q0 64 -25.5 115.5t-65.5 81.5t-84.5 45.5t-88.5 15.5q-77 0 -158 -20l-108 -615q73 -20 149 -20zM629 553h-226l-96 -553h-184l123 713q20 117 51 295q29 182 29 186q0 59 -27.5 88t-89.5 29h-41l8 41h533q170 0 311 -66
q137 -67 137 -256q0 -137 -71.5 -247t-192 -170t-264.5 -60z" />
    <glyph glyph-name="uni0421" unicode="&#x421;" horiz-adv-x="1363" 
d="M618 -41q-243 0 -384.5 151t-141.5 392q0 122 38.5 249.5t111 241.5t166.5 204t215 143t247 53q54 0 111.5 -7t122.5 -25.5t115 -47t83 -77.5t33 -110q0 -40 -16 -149l-8 -55h-41q-4 197 -92 293t-260 96q-123 0 -227.5 -49.5t-175.5 -131.5t-121.5 -189t-73.5 -220.5
t-23 -226.5q0 -206 100.5 -329.5t296.5 -123.5q147 0 272.5 71.5t239.5 215.5l35 -31q-128 -181 -276 -259.5t-347 -78.5z" />
    <glyph glyph-name="uni0422" unicode="&#x422;" horiz-adv-x="1198" 
d="M422 0l223 1270h-184q-251 0 -297 -236h-41l27 154q15 79 62 121.5t140 42.5h953l-15 -82h-461l-223 -1270h-184z" />
    <glyph glyph-name="uni0423" unicode="&#x423;" horiz-adv-x="1245" 
d="M162 -20l10 61q234 0 334 154l31 51l-232 839q-15 49 -26 78.5t-29.5 60.5t-41.5 47t-58 27t-82 13l8 41h246q85 0 127.5 -53t76.5 -173l170 -614l516 840h123l-708 -1157q-132 -215 -363 -215h-102z" />
    <glyph glyph-name="uni0424" unicode="&#x424;" horiz-adv-x="1603" 
d="M639 154l172 983q-167 -2 -289 -90t-181.5 -229.5t-59.5 -317.5q0 -346 358 -346zM995 1137l-172 -983q126 1 227.5 52t167.5 138.5t101 201.5t35 245q0 346 -359 346zM809 72l-25 -133h-184l25 133q-272 0 -409.5 114t-137.5 326q0 321 200 514t547 193q6 44 6 59
q0 51 -27 72.5t-93 21.5h-41l6 41h184q87 0 122.5 -25t35.5 -88q0 -34 -8 -81q268 0 407 -114.5t139 -326.5q0 -319 -202 -512.5t-545 -193.5z" />
    <glyph glyph-name="uni0425" unicode="&#x425;" horiz-adv-x="1357" 
d="M-18 0l628 666l-213 419q-52 112 -115 167t-173 59l8 41h245q82 0 136.5 -55.5t109.5 -170.5l152 -307l504 533h102l-567 -604l241 -482q56 -106 116 -162.5t142 -62.5l-6 -41h-215q-82 0 -138 55.5t-110 169.5l-180 369l-565 -594h-102z" />
    <glyph glyph-name="uni0426" unicode="&#x426;" horiz-adv-x="1429" 
d="M1225 -369h-92q2 20 2 82q0 156 -45.5 221.5t-147.5 65.5h-819l123 713q20 117 51 295q29 182 29 186q0 59 -27.5 88t-89.5 29h-41l8 41h184q86 0 120 -26.5t34 -98.5q0 -23 -31 -217q-10 -53 -31 -175t-57.5 -335t-72.5 -418h614l223 1270h184l-223 -1270h113
q26 0 42.5 -15.5t16.5 -41.5z" />
    <glyph glyph-name="uni0427" unicode="&#x427;" horiz-adv-x="1306" 
d="M844 0l96 553q-96 -41 -283 -41q-223 0 -330.5 67.5t-107.5 239.5q0 53 25 178q24 126 24 197q0 59 -27.5 88t-88.5 29h-21l8 41h185q86 0 119.5 -26.5t33.5 -98.5q0 -71 -28 -207q-29 -155 -29 -219q0 -115 61.5 -161t200.5 -46q163 0 272 41l127 717h185l-238 -1352
h-184z" />
    <glyph glyph-name="uni0428" unicode="&#x428;" horiz-adv-x="1916" 
d="M123 0l123 713q20 117 51 295q29 182 29 186q0 59 -27.5 88t-89.5 29h-41l8 41h184q86 0 120 -26.5t34 -98.5q0 -23 -31 -217q-10 -53 -31 -175t-57.5 -335t-72.5 -418h481l223 1270h184l-223 -1270h481l224 1270h184l-238 -1352h-1515z" />
    <glyph glyph-name="uni0429" unicode="&#x429;" horiz-adv-x="1961" 
d="M1757 -369h-92q2 20 2 82q0 156 -45.5 221.5t-146.5 65.5h-1352l123 713q20 117 51 295q29 182 29 186q0 59 -27.5 88t-89.5 29h-41l8 41h184q86 0 120 -26.5t34 -98.5q0 -23 -31 -217q-10 -53 -31 -175t-57.5 -335t-72.5 -418h481l223 1270h184l-223 -1270h481l224 1270
h184l-223 -1270h112q27 0 43.5 -15.5t16.5 -41.5z" />
    <glyph glyph-name="uni042A" unicode="&#x42a;" horiz-adv-x="1439" 
d="M729 72q194 0 312 101.5t118 289.5q0 120 -82.5 182t-236.5 62q-86 0 -199 -29l-102 -578q103 -28 190 -28zM748 0h-410l223 1270h-61q-137 0 -203 -64.5t-109 -242.5h-61l57 317q5 31 28.5 51.5t55.5 20.5h492l-101 -574h226q205 0 342 -67t137 -244q0 -264 -186 -365
q-188 -102 -430 -102z" />
    <glyph glyph-name="uni042B" unicode="&#x42b;" horiz-adv-x="1712" 
d="M514 72q169 0 284 109.5t115 281.5q0 117 -76.5 180.5t-211.5 63.5q-86 0 -199 -29l-102 -578q103 -28 190 -28zM532 0h-409l123 713q20 117 51 295q29 182 29 186q0 59 -27.5 88t-89.5 29h-41l8 41h184q86 0 120 -26.5t34 -98.5q0 -36 -70 -449h226q181 0 315 -67
q133 -71 133 -244q0 -121 -48.5 -213t-132 -146.5t-185.5 -81t-220 -26.5zM1542 41h41l-6 -41h-184q-88 0 -122 26t-34 97q0 27 35 235q10 60 32 184.5t64.5 366t77.5 443.5h184q-205 -1134 -205 -1198q0 -59 26.5 -86t90.5 -27z" />
    <glyph glyph-name="uni042C" unicode="&#x42c;" horiz-adv-x="1224" 
d="M514 72q187 0 308.5 104t121.5 287q0 120 -82.5 182t-236.5 62q-86 0 -199 -29l-102 -578q103 -28 190 -28zM532 0h-409l123 713q20 117 51 295q29 182 29 186q0 59 -27.5 88t-89.5 29h-41l8 41h184q86 0 120 -26.5t34 -98.5q0 -36 -70 -449h226q205 0 342 -67t137 -244
q0 -264 -186 -365q-187 -102 -431 -102z" />
    <glyph glyph-name="uni042D" unicode="&#x42d;" horiz-adv-x="1363" 
d="M528 -41q-199 0 -320 78.5t-183 259.5l47 31q63 -147 162 -217t247 -70q118 0 220 48.5t175.5 132t124.5 188.5t76 225h-678l15 82h678q10 95 10 145q0 226 -105 337.5t-292 111.5q-175 0 -295 -95t-193 -294h-41q28 146 47.5 207.5t57.5 99.5q71 74 204.5 119t294.5 45
q149 0 268 -77t184.5 -212t65.5 -301q0 -128 -36 -252.5t-104.5 -230.5t-161 -187.5t-214 -127.5t-254.5 -46z" />
    <glyph glyph-name="uni042E" unicode="&#x42e;" horiz-adv-x="1798" 
d="M1030 41q103 0 190 62.5t143 158t95.5 212.5t56.5 224t17 195q0 199 -75 308.5t-204 109.5q-75 0 -141.5 -33t-116.5 -88t-91 -128t-69 -152.5t-47 -162.5t-27.5 -156.5t-8.5 -135.5q0 -196 74.5 -305t203.5 -109zM1016 -41q-212 0 -337.5 147.5t-125.5 393.5
q0 76 12 155h-143l-115 -655h-184l123 713q20 117 51 295q29 182 29 186q0 59 -27.5 88t-89.5 29h-41l8 41h184q86 0 120 -26.5t34 -98.5q0 -38 -78 -490h146q73 296 262 476t424 180q210 0 337.5 -148t127.5 -393q0 -248 -100.5 -454t-270.5 -324q-168 -115 -346 -115z" />
    <glyph glyph-name="uni042F" unicode="&#x42f;" horiz-adv-x="1251" 
d="M709 625q76 0 157 20l109 615q-73 20 -150 20t-165 -43.5t-150 -126.5q-68 -89 -68 -225q0 -65 25.5 -117t66 -82t85.5 -45.5t90 -15.5zM53 -20q-48 0 -119 22l7 39q138 14 254 164l280 368q-239 61 -239 285q0 291 190 393q189 101 401 101h512l-8 -41h-20
q-83 0 -120.5 -47.5t-57.5 -157.5l-195 -1106h-184l96 553h-199l-282 -389q-77 -102 -148.5 -143t-167.5 -41z" />
    <glyph glyph-name="uni0430" unicode="&#x430;" 
d="M438 61q79 0 131.5 30t104.5 93l106 594q-39 68 -74 95.5t-100 27.5q-73 0 -133.5 -40.5t-98.5 -103.5t-65 -142t-38 -153t-11 -140q0 -123 44 -192t134 -69zM362 -20q-144 0 -220 95.5t-76 258.5q0 113 32.5 223.5t92.5 202.5t156 153t212 70q169 0 236 -113h10l88 93
h102l-168 -963h-102l-57 92h-11q-107 -112 -295 -112z" />
    <glyph glyph-name="uni0431" unicode="&#x431;" horiz-adv-x="1093" 
d="M473 61q69 0 124.5 36t90 91.5t58 127t33 138t9.5 128.5q0 119 -48.5 178t-133.5 59q-69 0 -125 -36t-90.5 -92t-58.5 -127.5t-33.5 -138t-9.5 -128.5q0 -236 184 -236zM459 -20q-171 0 -265 88t-94 264q0 234 59 431t160.5 318.5t225.5 147.5l319 71q83 20 120.5 39.5
t49.5 53.5h41l-22 -133q-12 -78 -78 -93l-373 -82q-102 -24 -165.5 -69t-114 -140.5t-91.5 -261.5h11q66 152 165 219.5t255 67.5q144 0 231.5 -88t87.5 -250q0 -140 -43 -253.5t-116 -184t-166 -108t-197 -37.5z" />
    <glyph glyph-name="uni0432" unicode="&#x432;" horiz-adv-x="1036" 
d="M406 72q139 0 215.5 59.5t76.5 175.5q0 154 -245 154h-113l-66 -369q66 -20 132 -20zM412 870l-58 -327h113q123 0 195.5 54.5t72.5 152.5q0 68 -48.5 104.5t-137.5 36.5q-68 0 -137 -21zM414 0h-338q135 771 135 809q0 58 -27.5 85.5t-89.5 27.5h-20l6 41h502
q350 0 350 -203q0 -208 -246 -258q99 -20 153 -71t54 -124q0 -75 -30.5 -131.5t-77.5 -89t-113.5 -53t-127.5 -27t-130 -6.5z" />
    <glyph glyph-name="uni0433" unicode="&#x433;" horiz-adv-x="872" 
d="M299 -20q-149 0 -232 61t-83 176q0 195 319 315l133 52q197 77 197 196q0 57 -46.5 89t-135.5 32q-121 0 -201 -55.5t-113 -159.5h-41q13 86 36 139.5t69.5 90.5t119 52t185.5 15q136 0 215.5 -57.5t79.5 -161.5q0 -112 -72.5 -187t-226.5 -137l-131 -51
q-116 -46 -167.5 -93t-51.5 -114q0 -57 51 -89t151 -32q126 0 208.5 55.5t115.5 159.5h41q-17 -116 -57.5 -177.5t-125 -90t-237.5 -28.5z" />
    <glyph glyph-name="uni0434" unicode="&#x434;" horiz-adv-x="1105" 
d="M457 61q66 0 123.5 37t96 94.5t66 129.5t40 141.5t12.5 130.5q0 132 -52 209.5t-143 77.5q-86 0 -165 -73t-126 -196q-49 -125 -49 -268q0 -131 52.5 -207t144.5 -76zM442 -20q-177 0 -275.5 101.5t-98.5 274.5q0 158 67 296t193.5 224.5t285.5 86.5q91 0 162 -44.5
t96 -119.5q1 18 2 37t2 30t1 15q0 183 -87.5 291t-220.5 108q-58 0 -151 -22t-127 -52l-27 74q150 92 342 92q191 0 300.5 -152t109.5 -413q0 -240 -70.5 -427.5t-201.5 -293.5t-302 -106z" />
    <glyph glyph-name="uni0435" unicode="&#x435;" horiz-adv-x="997" 
d="M274 492h236q101 5 167 75t66 178q0 74 -42 115t-119 41q-109 0 -191 -108.5t-117 -300.5zM420 -20q-169 0 -261.5 101.5t-92.5 272.5q0 92 23 182.5t69 171t108.5 142t148 97.5t181.5 36q168 0 255 -62.5t87 -170.5q0 -104 -61 -182.5t-158.5 -118t-212.5 -39.5h-246
q-8 -36 -8 -84q0 -118 59.5 -191.5t163.5 -73.5q94 0 167.5 39.5t148.5 124.5l34 -30q-86 -114 -183.5 -164.5t-221.5 -50.5z" />
    <glyph glyph-name="uni0436" unicode="&#x436;" horiz-adv-x="1404" 
d="M16 -20q-54 0 -98 20l6 39q71 10 133 50t131 116l269 297l-140 317q-47 92 -178 92l8 52h52q181 0 243 -134l152 -358l86 492h184l-86 -492l279 358q107 134 289 134h51l-8 -52q-64 0 -120 -24t-91 -68l-250 -317l162 -297q44 -77 92 -116.5t114 -49.5l-6 -39
q-47 -20 -106 -20q-159 0 -248 163l-164 297l-76 -440h-184l76 440l-266 -297q-147 -163 -306 -163z" />
    <glyph glyph-name="uni0437" unicode="&#x437;" horiz-adv-x="933" 
d="M330 -20q-125 0 -203 41t-127 122l45 31q48 -59 104.5 -86t153.5 -27q138 0 216.5 59.5t78.5 174.5q0 156 -258 156h-92l14 81h92q138 0 215.5 58t77.5 166q0 68 -48.5 106.5t-127.5 38.5q-111 0 -194.5 -58.5t-108.5 -156.5h-41q11 63 24.5 107.5t35 78.5t49 54.5
t69.5 34t91.5 18t119.5 4.5q149 0 237.5 -53.5t88.5 -161.5q0 -110 -65 -179.5t-183 -96.5q94 -20 145.5 -71t51.5 -126q0 -73 -28.5 -130t-73 -91t-107 -56t-123.5 -30t-129 -8z" />
    <glyph glyph-name="uni0438" unicode="&#x438;" horiz-adv-x="1099" 
d="M397 -20q-295 0 -295 266q0 11 17 127q12 81 59 344q10 72 10 92q0 58 -27 85.5t-89 27.5h-21l6 41h164q87 0 121.5 -26.5t34.5 -98.5q0 -36 -15 -121q-71 -399 -71 -447q0 -99 50 -148.5t134 -49.5q103 0 223 108l138 783h184l-168 -963h-102l-58 82h-10
q-128 -102 -285 -102z" />
    <glyph glyph-name="uni0439" unicode="&#x439;" horiz-adv-x="1099" 
d="M637 1067q-170 0 -238 164l47 31q37 -43 84.5 -62.5t126.5 -19.5q80 0 135.5 20t104.5 62l35 -31q-117 -164 -295 -164zM397 -20q-295 0 -295 266q0 11 17 127q12 81 59 344q10 72 10 92q0 58 -27 85.5t-89 27.5h-21l6 41h164q87 0 121.5 -26.5t34.5 -98.5
q0 -36 -15 -121q-71 -399 -71 -447q0 -99 50 -148.5t134 -49.5q103 0 223 108l138 783h184l-168 -963h-102l-58 82h-10q-128 -102 -285 -102z" />
    <glyph glyph-name="uni043A" unicode="&#x43a;" horiz-adv-x="1021" 
d="M801 -20q-167 0 -269 163l-184 297l-76 -440h-184q135 771 135 809q0 58 -27.5 85.5t-89.5 27.5h-40l6 41h184q87 0 121.5 -26.5t34.5 -98.5q0 -14 -13 -97q-13 -64 -20 -118l-25 -152l320 358q62 68 130 101t159 33h51l-8 -52q-118 0 -201 -92l-281 -317l183 -297
q44 -75 92.5 -115.5t113.5 -50.5l-6 -39q-47 -20 -106 -20z" />
    <glyph glyph-name="uni043B" unicode="&#x43b;" horiz-adv-x="1122" 
d="M18 -20q-35 0 -96 18l8 51q43 0 82 17.5t69 44.5t58.5 71t48 84t39 97.5t31 97.5t24.5 98.5t18 85.5t13 72q11 68 11 90q0 59 -27.5 87t-91.5 28l6 41h831l-168 -963h-184l154 881h-361l-28 -164q-8 -46 -15 -82t-20.5 -96.5t-27.5 -108t-35.5 -108t-44.5 -106t-55 -92
t-67 -76.5t-79 -49t-93 -19z" />
    <glyph glyph-name="uni043C" unicode="&#x43c;" horiz-adv-x="1331" 
d="M1196 0l-8 -41q-151 0 -219 59t-68 183q0 12 17 116q47 289 51 310l20 121l-469 -748h-41l-213 768l-135 -768h-82l168 963h195l188 -676l426 676h184q-72 -398 -102 -588q-21 -132 -21 -166q0 -92 29.5 -150.5t79.5 -58.5z" />
    <glyph glyph-name="uni043D" unicode="&#x43d;" horiz-adv-x="1136" 
d="M264 0h-184q135 771 135 809q0 58 -27.5 85.5t-89.5 27.5h-30l6 41h174q87 0 121 -26.5t34 -98.5q0 -40 -49 -316h410l78 441h184q-98 -563 -106 -615q-29 -188 -29 -194q0 -59 26.5 -86t90.5 -27h30l-6 -41h-174q-88 0 -122 26t-34 97q0 41 48 317h-410z" />
    <glyph glyph-name="uni043E" unicode="&#x43e;" horiz-adv-x="1083" 
d="M438 -20q-175 0 -273.5 106t-98.5 281q0 92 25.5 182t74.5 167.5t115 137.5t152 94.5t181 34.5q175 0 274 -106t99 -281q0 -154 -68.5 -294t-196.5 -231t-284 -91zM453 61q56 0 105.5 27t86 72t66 101.5t47.5 118t27.5 120t9.5 108.5q0 132 -52 212.5t-143 80.5
q-81 0 -149 -57.5t-108.5 -144t-62.5 -178t-22 -167.5q0 -132 52 -212.5t143 -80.5z" />
    <glyph glyph-name="uni043F" unicode="&#x43f;" horiz-adv-x="1124" 
d="M270 0h-184q19 109 44.5 252.5t40 226.5t22.5 135q28 182 28 195q0 58 -27.5 85.5t-89.5 27.5h-41l7 41h184q145 0 160 -82h10q128 102 285 102q292 0 292 -262q0 -29 -18 -152q-6 -34 -38 -219.5t-60 -349.5h-185q115 648 115 694q0 96 -50.5 146.5t-133.5 50.5
q-102 0 -223 -109z" />
    <glyph glyph-name="uni0440" unicode="&#x440;" horiz-adv-x="1112" 
d="M475 61q74 0 135 40.5t99 103t63.5 142.5t36 153.5t10.5 140.5q0 260 -176 260q-137 0 -235 -123l-117 -655q112 -62 184 -62zM276 41l-75 -430h-185l154 883q51 296 51 315q0 58 -27.5 85.5t-89.5 27.5h-41l7 41h184q77 0 114.5 -22.5t43.5 -70.5h10q113 113 297 113
q143 0 219 -96.5t76 -261.5q0 -88 -19 -177.5t-60 -173.5t-97.5 -149.5t-138.5 -105t-177 -39.5q-136 0 -246 61z" />
    <glyph glyph-name="uni0441" unicode="&#x441;" horiz-adv-x="991" 
d="M440 -20q-185 0 -279.5 100t-94.5 276q0 120 39 232.5t108.5 200.5t174.5 141t228 53q124 0 222 -29q92 -27 92 -131q0 -36 -23 -164l-2 -14h-41q2 10 2 45q0 103 -59 157t-164 54q-78 0 -143.5 -35.5t-108.5 -93t-73.5 -131t-44 -147t-13.5 -144.5q0 -138 59.5 -213.5
t176.5 -75.5q102 0 176.5 38.5t148.5 125.5l35 -30q-86 -114 -186 -164.5t-230 -50.5z" />
    <glyph glyph-name="uni0442" unicode="&#x442;" horiz-adv-x="1615" 
d="M270 0h-184q19 109 44.5 252.5t40 226.5t22.5 135q28 182 28 195q0 58 -27.5 85.5t-89.5 27.5h-41l7 41h184q145 0 160 -82h10q128 102 285 102q178 0 221 -143q65 67 154.5 105t177.5 38q114 0 173.5 -56t59.5 -184q0 -31 -18 -157q-19 -117 -101 -586h-184
q86 502 98 578q21 126 21 155q0 83 -32 120.5t-95 37.5q-58 0 -127 -41.5t-111 -91.5v-15q0 -32 -26 -192q-8 -49 -21.5 -125.5t-36 -203.5t-39.5 -222h-184q86 502 98 578q21 126 21 155q0 83 -32 120.5t-95 37.5q-102 0 -223 -109z" />
    <glyph glyph-name="uni0443" unicode="&#x443;" horiz-adv-x="1054" 
d="M35 -410l12 62q103 0 176 48t137 167l62 113l-186 800q-35 149 -197 164l6 41h174q176 0 217 -164l135 -569l383 713h103l-594 -1098q-35 -67 -66 -112t-74.5 -85.5t-99.5 -60t-127 -19.5h-61z" />
    <glyph glyph-name="uni0444" unicode="&#x444;" horiz-adv-x="1357" 
d="M498 51l151 860q-178 -20 -282.5 -172.5t-104.5 -392.5q0 -268 236 -295zM829 911l-151 -860q174 15 280.5 171.5t106.5 393.5q0 268 -236 295zM668 -20l-66 -369h-184l65 369q-197 4 -305 110t-108 281q0 123 42 233t117 193t186.5 133t243.5 53q31 184 31 211
q0 59 -27.5 88t-89.5 29h-30l8 41h174q86 0 120 -26.5t34 -98.5q0 -60 -35 -244q200 -7 306.5 -111t106.5 -280q0 -165 -71 -302.5t-207 -221.5t-311 -88z" />
    <glyph glyph-name="uni0445" unicode="&#x445;" horiz-adv-x="1003" 
d="M-20 0l407 461l-125 297q-62 149 -182 164l6 41h174q67 0 119.5 -43t83.5 -121l90 -215l332 379h102l-407 -461l125 -297q61 -149 192 -164l-6 -41h-184q-67 0 -119.5 43t-83.5 121l-90 215l-332 -379h-102z" />
    <glyph glyph-name="uni0446" unicode="&#x446;" horiz-adv-x="1155" 
d="M952 -317h-82q7 96 7 137q0 86 -24.5 123.5t-92.5 56.5q-62 18 -62 82h-10q-128 -102 -285 -102q-294 0 -294 266q0 30 10 102q47 255 59 338q17 116 17 123q0 58 -27.5 85.5t-89.5 27.5h-21l6 41h164q88 0 122 -26t34 -97q0 -25 -21 -148q-6 -35 -12.5 -71.5t-10 -59
t-5.5 -33.5l-31 -180q-6 -44 -6 -76q0 -101 49.5 -150.5t134.5 -49.5q104 0 224 108l137 783h184l-154 -881h80q27 0 43.5 -15.5t16.5 -41.5q0 -7 -8 -43q-7 -30 -52 -299z" />
    <glyph glyph-name="uni0447" unicode="&#x447;" horiz-adv-x="1085" 
d="M653 0l70 395q-107 -37 -213 -37q-322 0 -322 230q0 28 13 104q14 60 14 117q0 58 -27.5 85.5t-89.5 27.5h-20l6 41h174q87 0 121.5 -26.5t34.5 -98.5q0 -28 -17 -121q-16 -88 -16 -131q0 -72 42 -109t112 -37q95 0 202 37l84 486h185l-168 -963h-185z" />
    <glyph glyph-name="uni0448" unicode="&#x448;" horiz-adv-x="1579" 
d="M324 -20q-236 0 -236 243q0 30 27 189q71 418 94 551h184q-42 -242 -94 -547q-27 -159 -27 -185q0 -83 32.5 -121t96.5 -38q58 0 127 41.5t111 91.5q0 28 25 178q13 90 81 485q4 18 9 50.5t8 44.5h184q-42 -242 -94 -547q-27 -159 -27 -185q0 -83 32.5 -121t96.5 -38
q104 0 224 108l137 783h184l-168 -963h-102l-58 82h-10q-128 -102 -284 -102q-90 0 -145 33t-77 110q-66 -67 -154.5 -105t-176.5 -38z" />
    <glyph glyph-name="uni0449" unicode="&#x449;" horiz-adv-x="1628" 
d="M1425 -317h-82q7 96 7 137q0 86 -25 124.5t-92 55.5q-62 18 -62 82h-10q-128 -102 -284 -102q-90 0 -145 33t-77 110q-66 -67 -154.5 -105t-176.5 -38q-236 0 -236 243q0 30 27 189q71 418 94 551h184q-42 -242 -94 -547q-27 -159 -27 -185q0 -83 32.5 -121t96.5 -38
q58 0 127 41.5t111 91.5q0 28 25 178q13 90 81 485q4 18 9 50.5t8 44.5h184q-42 -242 -94 -547q-27 -159 -27 -185q0 -83 32.5 -121t96.5 -38q104 0 224 108l137 783h184l-153 -881h79q27 0 43.5 -15.5t16.5 -41.5q0 -7 -8 -43q-7 -30 -52 -299z" />
    <glyph glyph-name="uni044A" unicode="&#x44a;" horiz-adv-x="1196" 
d="M608 72q138 0 213.5 67.5t75.5 204.5q0 83 -52.5 120.5t-160.5 37.5q-68 0 -137 -21l-70 -389q66 -20 131 -20zM616 0h-337l153 881h-20q-113 0 -182 -64t-101 -203h-51l49 277q4 31 28.5 51.5t55.5 20.5h420l-68 -390h154q375 0 375 -227q0 -190 -131 -266
q-133 -80 -345 -80z" />
    <glyph glyph-name="uni044B" unicode="&#x44b;" horiz-adv-x="1413" 
d="M410 72q121 0 194.5 69t73.5 203q0 158 -193 158q-68 0 -137 -21l-69 -389q66 -20 131 -20zM418 0h-338q135 771 135 809q0 58 -27.5 85.5t-89.5 27.5h-30l6 41h174q87 0 121 -26.5t34 -98.5q0 -48 -38 -265h153q354 0 354 -227q0 -187 -131 -266q-133 -80 -323 -80z
M1284 41h31l-6 -41h-174q-88 0 -122 26t-34 97q0 35 65 405l74 435h185q-107 -613 -107 -615q-29 -189 -29 -194q0 -59 26.5 -86t90.5 -27z" />
    <glyph glyph-name="uni044C" unicode="&#x44c;" horiz-adv-x="944" 
d="M410 72q138 0 213 67.5t75 204.5q0 83 -52.5 120.5t-160.5 37.5q-68 0 -137 -21l-69 -389q66 -20 131 -20zM418 0h-338q135 771 135 809q0 58 -27.5 85.5t-89.5 27.5h-30l6 41h174q87 0 121 -26.5t34 -98.5q0 -48 -38 -265h153q375 0 375 -227q0 -190 -131 -266
q-133 -80 -344 -80z" />
    <glyph glyph-name="uni044D" unicode="&#x44d;" horiz-adv-x="1003" 
d="M356 -20q-130 0 -213 50.5t-129 164.5l47 30q45 -87 106 -125.5t163 -38.5q134 0 228.5 99.5t133.5 269.5h-430l14 82h431q6 46 6 90q0 140 -60 219.5t-176 79.5q-118 0 -199.5 -65.5t-111.5 -190.5h-41q19 115 41 180q47 158 366 158q182 0 277.5 -101.5t95.5 -277.5
q0 -124 -38 -236t-107 -198.5t-174 -138t-230 -51.5z" />
    <glyph glyph-name="uni044E" unicode="&#x44e;" horiz-adv-x="1423" 
d="M817 61q44 0 89 25t85.5 75t72.5 118.5t50.5 163.5t18.5 202q0 126 -43.5 191t-124.5 65q-56 0 -111.5 -41t-101.5 -114t-74.5 -186t-28.5 -245q0 -123 44 -188.5t124 -65.5zM803 -20q-164 0 -255 98t-91 270q0 42 6 92h-123l-76 -440h-184q135 771 135 809
q0 58 -27.5 85.5t-89.5 27.5h-30l6 41h174q87 0 121 -26.5t34 -98.5q0 -40 -49 -316h123q21 95 64 177.5t105 146.5t148 100.5t185 36.5q160 0 252 -101t92 -274q0 -114 -35.5 -225t-100 -201.5t-165 -146t-219.5 -55.5z" />
    <glyph glyph-name="uni044F" unicode="&#x44f;" horiz-adv-x="1048" 
d="M535 481q68 0 137 21l63 368q-69 21 -129 21q-129 0 -202.5 -64.5t-73.5 -191.5q0 -154 205 -154zM47 -20q-49 0 -108 20l6 41q114 18 223 164l162 215q-87 14 -141 70.5t-54 142.5q0 77 27 136t71 95t106 59t124.5 31.5t134.5 8.5h481l-6 -41q-84 0 -125 -49.5
t-55 -155.5l-125 -717h-184l71 410h-159l-166 -246q-63 -96 -130.5 -140t-152.5 -44z" />
    <glyph glyph-name="uni0450" unicode="&#x450;" horiz-adv-x="997" 
d="M274 492h236q101 5 167 75t66 178q0 74 -42 115t-119 41q-109 0 -191 -108.5t-117 -300.5zM420 -20q-169 0 -261.5 101.5t-92.5 272.5q0 92 23 182.5t69 171t108.5 142t148 97.5t181.5 36q168 0 255 -62.5t87 -170.5q0 -104 -61 -182.5t-158.5 -118t-212.5 -39.5h-246
q-8 -36 -8 -84q0 -118 59.5 -191.5t163.5 -73.5q94 0 167.5 39.5t148.5 124.5l34 -30q-86 -114 -183.5 -164.5t-221.5 -50.5zM588 1341l35 -266h-82l-148 266h195z" />
    <glyph glyph-name="uni0451" unicode="&#x451;" horiz-adv-x="997" 
d="M274 492h236q101 5 167 75t66 178q0 74 -42 115t-119 41q-109 0 -191 -108.5t-117 -300.5zM420 -20q-169 0 -261.5 101.5t-92.5 272.5q0 92 23 182.5t69 171t108.5 142t148 97.5t181.5 36q168 0 255 -62.5t87 -170.5q0 -104 -61 -182.5t-158.5 -118t-212.5 -39.5h-246
q-8 -36 -8 -84q0 -118 59.5 -191.5t163.5 -73.5q94 0 167.5 39.5t148.5 124.5l34 -30q-86 -114 -183.5 -164.5t-221.5 -50.5zM432 1096q-35 0 -56.5 20.5t-21.5 52.5q0 44 32.5 77.5t78.5 33.5q35 0 56.5 -21.5t21.5 -54.5q0 -41 -34 -74.5t-77 -33.5zM780 1096
q-35 0 -56.5 20.5t-21.5 52.5q0 44 32.5 77.5t78.5 33.5q35 0 56.5 -21.5t21.5 -54.5q0 -41 -34 -74.5t-77 -33.5z" />
    <glyph glyph-name="uni0452" unicode="&#x452;" horiz-adv-x="1087" 
d="M418 -287l6 41q65 0 119 52t86 132t50.5 154.5t25.5 140.5q4 24 15.5 93.5t18.5 115.5q21 129 21 146q0 99 -51 149.5t-134 50.5q-103 0 -223 -108l-119 -680h-184l180 1024h-143l14 82h144l20 123l125 123h82l-43 -246h348l-14 -82h-348l-43 -246q123 103 282 103
q295 0 295 -267q0 -28 -12 -110q-11 -72 -62 -350q-22 -122 -54.5 -202.5t-86 -135.5t-129.5 -79t-186 -24z" />
    <glyph glyph-name="uni0453" unicode="&#x453;" horiz-adv-x="872" 
d="M545 1106h-103l187 235h174zM299 -20q-149 0 -232 61t-83 176q0 195 319 315l133 52q197 77 197 196q0 57 -46.5 89t-135.5 32q-121 0 -201 -55.5t-113 -159.5h-41q13 86 36 139.5t69.5 90.5t119 52t185.5 15q136 0 215.5 -57.5t79.5 -161.5q0 -112 -72.5 -187
t-226.5 -137l-131 -51q-116 -46 -167.5 -93t-51.5 -114q0 -57 51 -89t151 -32q126 0 208.5 55.5t115.5 159.5h41q-17 -116 -57.5 -177.5t-125 -90t-237.5 -28.5z" />
    <glyph glyph-name="uni0454" unicode="&#x454;" horiz-adv-x="1007" 
d="M442 -20q-181 0 -277.5 101t-96.5 275q0 126 39.5 240t109.5 199.5t174.5 136.5t226.5 51q166 0 240 -36.5t74 -123.5q0 -31 -25 -178h-41q2 10 2 45q0 103 -59 157t-164 54q-136 0 -230.5 -105t-133.5 -284h430l-15 -82h-430q-6 -46 -6 -86q0 -135 60.5 -209t177.5 -74
q102 0 176.5 38.5t148.5 125.5l35 -30q-86 -114 -186 -164.5t-230 -50.5z" />
    <glyph glyph-name="uni0455" unicode="&#x455;" horiz-adv-x="919" 
d="M369 -20q-142 0 -234 32q-100 34 -100 142q0 17 3.5 43t7.5 50t5 29h41v-4q0 -102 62.5 -156.5t187.5 -54.5q43 0 84.5 9t80.5 27.5t63 53t24 80.5q0 49 -35.5 85t-118.5 73l-114 51q-201 87 -201 234q0 91 56.5 163t144.5 109t188 37q322 0 322 -170q0 -19 -3 -46
t-7.5 -53.5t-4.5 -27.5h-41v4q0 102 -60 156.5t-179 54.5q-56 0 -106 -15t-88 -53.5t-38 -95.5q0 -95 135 -153l113 -52q118 -52 169.5 -105.5t51.5 -131.5q0 -96 -59 -169t-151 -109.5t-199 -36.5z" />
    <glyph glyph-name="uni0456" unicode="&#x456;" horiz-adv-x="514" 
d="M354 1085q-41 0 -67.5 31t-26.5 76q0 50 31.5 83.5t81.5 33.5q41 0 67.5 -31t26.5 -76q0 -50 -31.5 -83.5t-81.5 -33.5zM270 0h-184q19 109 44.5 252.5t40 226.5t22.5 135q28 182 28 195q0 58 -27.5 85.5t-89.5 27.5h-41l7 41h184q87 0 121.5 -26.5t34.5 -98.5
q0 -39 -62 -387z" />
    <glyph glyph-name="uni0457" unicode="&#x457;" horiz-adv-x="514" 
d="M129 1096q-35 0 -56.5 20.5t-21.5 52.5q0 44 32.5 77.5t78.5 33.5q35 0 56.5 -21.5t21.5 -54.5q0 -41 -34 -74.5t-77 -33.5zM477 1096q-35 0 -56.5 20.5t-21.5 52.5q0 44 32.5 77.5t78.5 33.5q35 0 56.5 -21.5t21.5 -54.5q0 -41 -34 -74.5t-77 -33.5zM270 0h-184
q19 109 44.5 252.5t40 226.5t22.5 135q28 182 28 195q0 58 -27.5 85.5t-89.5 27.5h-41l7 41h184q87 0 121.5 -26.5t34.5 -98.5q0 -39 -62 -387z" />
    <glyph glyph-name="uni0458" unicode="&#x458;" horiz-adv-x="514" 
d="M354 1085q-41 0 -67.5 31t-26.5 76q0 50 31.5 83.5t81.5 33.5q41 0 67.5 -31t26.5 -76q0 -50 -31.5 -83.5t-81.5 -33.5zM-176 -389l8 41q96 0 162.5 103t99.5 296q24 138 58 329.5t43 244.5q26 157 26 184q0 58 -27.5 85.5t-89.5 27.5h-41l7 41h184q87 0 121.5 -26.5
t34.5 -98.5q0 -30 -56 -346l-75 -441q-22 -122 -54 -202t-85 -135t-129.5 -79t-186.5 -24z" />
    <glyph glyph-name="uni0459" unicode="&#x459;" horiz-adv-x="1585" 
d="M997 72q138 0 213.5 67.5t75.5 204.5q0 83 -52.5 120.5t-160.5 37.5q-68 0 -137 -21l-70 -389q66 -20 131 -20zM18 -20q-35 0 -96 18l8 51q43 0 82 17.5t69 44.5t58.5 71t48 84t39 97.5t31 97.5t24.5 98.5t18 85.5t13 72q11 68 11 90q0 59 -27.5 87t-91.5 28l6 41h809
l-68 -390h154q375 0 375 -227q0 -190 -131 -266q-133 -80 -344 -80h-338l153 881h-338l-28 -164q-8 -46 -15 -82t-20.5 -96.5t-27.5 -108t-35.5 -108t-44.5 -106t-55 -92t-67 -76.5t-79 -49t-93 -19z" />
    <glyph glyph-name="uni045A" unicode="&#x45a;" horiz-adv-x="1564" 
d="M983 72q132 0 207.5 61.5t75.5 177.5q0 150 -215 150q-69 0 -138 -21l-61 -348q66 -20 131 -20zM991 0h-338l78 451h-389l-78 -451h-184q135 771 135 809q0 58 -27.5 85.5t-89.5 27.5h-30l6 41h174q87 0 121 -26.5t34 -98.5q0 -30 -20 -150l-27 -156h389l76 431h185
l-76 -431h153q377 0 377 -215q0 -76 -28.5 -134t-73.5 -92t-109 -55t-125.5 -28.5t-132.5 -7.5z" />
    <glyph glyph-name="uni045B" unicode="&#x45b;" horiz-adv-x="1089" 
d="M49 0l180 1024h-143l14 82h144l20 123l125 123h82l-43 -246h246l-15 -82h-245l-43 -246q123 103 282 103q295 0 295 -267q0 -65 -100 -614h-184q20 123 46 273.5t29 170.5q21 126 21 144q0 99 -51 149.5t-134 50.5q-103 0 -223 -108l-119 -680h-184z" />
    <glyph glyph-name="uni045C" unicode="&#x45c;" horiz-adv-x="1021" 
d="M600 1106h-102l186 235h174zM801 -20q-167 0 -269 163l-184 297l-76 -440h-184q135 771 135 809q0 58 -27.5 85.5t-89.5 27.5h-40l6 41h184q87 0 121.5 -26.5t34.5 -98.5q0 -14 -13 -97q-13 -64 -20 -118l-25 -152l320 358q62 68 130 101t159 33h51l-8 -52
q-118 0 -201 -92l-281 -317l183 -297q44 -75 92.5 -115.5t113.5 -50.5l-6 -39q-47 -20 -106 -20z" />
    <glyph glyph-name="uni045D" unicode="&#x45d;" horiz-adv-x="1099" 
d="M612 1075h-82l-147 266h195zM397 -20q-295 0 -295 266q0 11 17 127q12 81 59 344q10 72 10 92q0 58 -27 85.5t-89 27.5h-21l6 41h164q87 0 121.5 -26.5t34.5 -98.5q0 -36 -15 -121q-71 -399 -71 -447q0 -99 50 -148.5t134 -49.5q103 0 223 108l138 783h184l-168 -963
h-102l-58 82h-10q-128 -102 -285 -102z" />
    <glyph glyph-name="uni045E" unicode="&#x45e;" horiz-adv-x="1052" 
d="M692 1049q-170 0 -237 163l47 31q37 -43 84.5 -62.5t126.5 -19.5q80 0 135 19.5t104 62.5l35 -31q-117 -163 -295 -163zM35 -410l12 62q103 0 176 48t137 167l62 113l-186 800q-35 149 -197 164l6 41h174q176 0 217 -164l135 -569l383 713h103l-594 -1098
q-35 -67 -66 -112t-74.5 -85.5t-99.5 -60t-127 -19.5h-61z" />
    <glyph glyph-name="uni045F" unicode="&#x45f;" horiz-adv-x="1105" 
d="M373 -307l24 307h-317q135 771 135 809q0 58 -27.5 85.5t-89.5 27.5h-30l6 41h174q87 0 121 -26.5t34 -98.5q0 -15 -30 -197l-94 -559h409l154 881h184l-168 -963h-317l-86 -307h-82z" />
    <glyph glyph-name="uni0462" unicode="&#x462;" horiz-adv-x="1368" 
d="M657 72q187 0 308.5 104t121.5 287q0 120 -82.5 182t-236.5 62q-86 0 -199 -29l-102 -578q103 -28 190 -28zM649 1147h457l-14 -82h-455l-49 -287h225q205 0 342 -67t137 -244q0 -264 -186 -365q-188 -102 -430 -102h-410l185 1065h-25q-253 0 -299 -236h-41l29 154
q27 164 202 164h146q6 30 6 47q0 59 -27.5 88t-89.5 29h-41l8 41h185q86 0 119.5 -26.5t33.5 -98.5q0 -36 -8 -80z" />
    <glyph glyph-name="uni0463" unicode="&#x463;" horiz-adv-x="1331" 
d="M881 72q95 0 150.5 68.5t55.5 203.5q0 83 -37 120.5t-114 37.5q-35 0 -90 -19l-45 -252q-6 -37 -6 -65q0 -94 86 -94zM408 782l-138 -782h-184q19 109 44.5 252.5t40 226.5t22.5 135q28 182 28 195q0 58 -27.5 85.5t-89.5 27.5h-41l7 41h184q145 0 160 -82h10
q99 102 223 102q232 0 232 -262q0 -28 -19 -148h109q313 0 313 -227q0 -109 -58 -189t-150.5 -118.5t-205.5 -38.5q-127 0 -184 50t-57 171q0 58 10 123l55 350q6 34 6 64q0 133 -108 133q-96 0 -182 -109z" />
    <glyph glyph-name="uni046A" unicode="&#x46a;" horiz-adv-x="1941" 
d="M987 717l537 553h-908zM12 -20q-73 0 -129 20l6 39q74 8 179 72t190 155l336 348q61 61 116 87t140 32l-283 422q-62 78 -121 111.5t-129 33.5l9 52h1509l-8 -52q-66 0 -130.5 -31.5t-170.5 -111.5l-408 -420q173 0 232 -90l233 -381q60 -93 140 -156.5t147 -70.5l-6 -39
q-61 -20 -138 -20q-229 0 -376 245l-269 451l-118 -676h-179l119 676l-428 -451q-232 -245 -463 -245z" />
    <glyph glyph-name="uni046B" unicode="&#x46b;" horiz-adv-x="1404" 
d="M698 514l377 367h-620zM16 -20q-59 0 -98 20l6 39q71 10 134.5 50t131.5 116l183 205q56 64 94 87.5t96 24.5l-203 297q-65 92 -180 92l10 52h1168l-10 -52q-117 0 -209 -92l-308 -297h15q79 0 149 -143l76 -154q38 -75 98.5 -125.5t126.5 -60.5l-6 -39q-47 -20 -106 -20
q-160 0 -248 163l-162 297l-78 -440h-184l78 440l-268 -297q-144 -163 -306 -163z" />
    <glyph glyph-name="uni0472" unicode="&#x472;" horiz-adv-x="1458" 
d="M635 41q108 0 201 51t158.5 138.5t110.5 195t69 229.5h-861q-14 -83 -14 -182q0 -208 86.5 -320t249.5 -112zM858 1311q-89 0 -167.5 -34.5t-135.5 -91t-103 -133t-75 -154t-47 -161.5h858q8 57 8 137q0 208 -87.5 322.5t-250.5 114.5zM872 1393q244 0 384.5 -154.5
t140.5 -404.5q0 -161 -57.5 -318t-157.5 -280.5t-247.5 -200t-313.5 -76.5q-162 0 -281.5 72t-180.5 196.5t-61 286.5q0 128 36 255.5t105 239t161.5 198t215 136.5t256.5 50z" />
    <glyph glyph-name="uni0473" unicode="&#x473;" horiz-adv-x="1228" 
d="M453 61q56 0 105.5 27t86 72t66 101.5t47.5 118t27.5 120t9.5 108.5q0 132 -52 212.5t-143 80.5q-66 0 -122.5 -36.5t-95 -96.5t-63 -120.5t-40.5 -125.5h460l-14 -82h-461q-6 -46 -6 -86q0 -132 52 -212.5t143 -80.5zM614 983q175 0 274 -106t99 -281q0 -154 -68.5 -294
t-196.5 -231t-284 -91q-175 0 -273.5 106t-98.5 281q0 92 25.5 182t74.5 167.5t115 137.5t152 94.5t181 34.5z" />
    <glyph glyph-name="uni0474" unicode="&#x474;" horiz-adv-x="1347" 
d="M1391 1356q17 0 67 -4l-6 -41q-52 -5 -91.5 -21t-70.5 -47.5t-52 -63t-50 -83.5l-623 -1116h-37l-274 1132q-31 120 -69 164t-119 51l8 41q5 0 29.5 2t39.5 2q131 0 205 -64.5t107 -195.5l202 -817l437 801q80 143 152.5 201.5t144.5 58.5z" />
    <glyph glyph-name="uni0475" unicode="&#x475;" horiz-adv-x="1077" 
d="M1040 965q58 0 70 -2l-6 -41q-72 -7 -121.5 -53.5t-118.5 -168.5l-411 -718l-41 -2l-185 747q-29 116 -66.5 161.5t-109.5 49.5l6 41q5 0 31 2t41 2q116 0 191.5 -57.5t111.5 -198.5l100 -424l230 393q86 152 147.5 210.5t130.5 58.5z" />
    <glyph glyph-name="uni0490" unicode="&#x490;" horiz-adv-x="1103" 
d="M123 0l123 713q20 117 51 295q29 182 29 186q0 59 -27.5 88t-89.5 29h-41l8 41h727q251 0 297 235h41l-39 -225q-6 -38 -38.5 -65t-69.5 -27h-564l-223 -1270h-184z" />
    <glyph glyph-name="uni0491" unicode="&#x491;" horiz-adv-x="894" 
d="M260 0h-184q135 771 135 809q0 58 -27.5 85.5t-89.5 27.5h-20l6 41h573q98 0 166.5 54t85.5 150h41l-37 -204q-15 -82 -96 -82h-399z" />
    <glyph glyph-name="uni0492" unicode="&#x492;" horiz-adv-x="1107" 
d="M176 1352h850q150 0 150 -121q0 -3 -9 -55l-22 -142h-41q6 34 6 62q0 174 -221 174h-359l-96 -553h246l-14 -82h-246l-113 -635h-184l110 635h-141l14 82h140q25 137 37 217q43 240 43 260q0 59 -27.5 88t-89.5 29h-41z" />
    <glyph glyph-name="uni0493" unicode="&#x493;" horiz-adv-x="985" 
d="M174 963h676q129 0 129 -119q0 -4 -0.5 -9.5t-1.5 -16t-2 -19.5l-23 -123h-41q1 9 2 19.5t1.5 16t0.5 9.5q0 75 -48.5 117.5t-133.5 42.5h-225l-59 -338h237l-14 -82h-238l-82 -461h-184l82 461h-152l15 82h151l31 174q8 39 8 88q0 59 -27.5 88t-89.5 29h-20z" />
    <glyph glyph-name="uni0494" unicode="&#x494;" horiz-adv-x="1218" 
d="M1143 1034h-41q6 34 6 62q0 174 -221 174h-359l-79 -459q151 70 329 70q163 0 261 -85.5t98 -256.5q0 -53 -13 -129q-52 -297 -223.5 -463.5t-494.5 -206.5l6 41q434 83 528 629q10 72 10 106q0 131 -67.5 200.5t-188.5 69.5q-117 0 -262 -59l-127 -727h-184l123 713
q20 117 51 295q29 182 29 186q0 59 -27.5 88t-89.5 29h-41l8 41h850q150 0 150 -121q0 -3 -9 -55z" />
    <glyph glyph-name="uni0495" unicode="&#x495;" horiz-adv-x="962" 
d="M854 676h-41q1 9 2 19.5t1.5 16t0.5 9.5q0 75 -48.5 117.5t-133.5 42.5h-225l-54 -301q109 16 176 16q165 0 249.5 -78t84.5 -233q0 -257 -159.5 -414.5t-421.5 -157.5l8 41q92 0 169 51.5t124 132t72.5 172t25.5 177.5q0 110 -54 161.5t-171 51.5q-33 0 -119 -11
l-86 -489h-184l127 717q8 39 8 88q0 59 -27.5 88t-89.5 29h-20l8 41h676q129 0 129 -119q0 -4 -0.5 -9.5t-1.5 -16t-2 -19.5z" />
    <glyph glyph-name="uni0496" unicode="&#x496;" horiz-adv-x="1935" 
d="M1978 1352l-10 -52q-82 0 -153.5 -32t-147.5 -111l-387 -399l301 -492q54 -89 127 -147q30 -22 60.5 -29.5t84.5 -7.5q29 0 45.5 -16t16.5 -41q0 -9 -2 -15l-68 -379h-92q2 20 2 86q0 117 -27 182t-83 89q-181 40 -295 237l-269 451l-118 -676h-179l119 676l-428 -451
q-232 -245 -463 -245q-70 0 -129 20l8 39q71 7 171 70t194 157l477 492l-248 399q-47 78 -108.5 110.5t-143.5 32.5l11 52h102q63 0 113.5 -26.5t89 -69.5t86.5 -119l272 -430l115 645h178l-115 -645l424 430q103 109 189 162t178 53h102z" />
    <glyph glyph-name="uni0497" unicode="&#x497;" horiz-adv-x="1419" 
d="M1397 963l-8 -52q-64 0 -120 -24t-91 -68l-250 -317l162 -297q29 -50 34 -55q30 -40 62.5 -54t89.5 -14q29 0 44 -17t15 -42v-13l-57 -327h-82q4 82 4 86q0 182 -92 221q-101 27 -172 153l-164 297l-76 -440h-184l76 440l-266 -297q-147 -163 -306 -163q-54 0 -98 20
l6 39q71 10 133 50t131 116l269 297l-140 317q-47 92 -178 92l8 52h52q181 0 243 -134l152 -358l86 492h184l-86 -492l279 358q107 134 289 134h51z" />
    <glyph glyph-name="uni0498" unicode="&#x498;" horiz-adv-x="1171" 
d="M770 696q149 -29 217 -96t68 -174q0 -230 -156 -338q-159 -110 -371 -125l-61 -342h-82q12 105 12 170q0 88 -20.5 127t-67.5 53q-215 38 -309 244l47 31q119 -205 383 -205q183 0 300.5 98.5t117.5 263.5q0 118 -86.5 180t-255.5 62h-154l15 82h153q104 0 196 41.5
t151 123.5t59 187q0 107 -74 169.5t-188 62.5q-146 0 -263.5 -86.5t-183.5 -241.5h-41q21 118 39 170q18 61 73 109.5t126 75.5t141.5 41t132.5 14q182 0 307 -64q127 -65 127 -233q0 -138 -87 -241.5t-265 -158.5z" />
    <glyph glyph-name="uni0499" unicode="&#x499;" horiz-adv-x="933" 
d="M594 492q94 -20 145.5 -71t51.5 -126q0 -142 -101 -219.5t-274 -91.5l-58 -312h-71q16 128 16 172q0 65 -19.5 96t-70.5 52q-136 27 -213 151l45 31q48 -59 104.5 -86t153.5 -27q138 0 216.5 59.5t78.5 174.5q0 156 -258 156h-92l14 81h92q138 0 215.5 58t77.5 166
q0 68 -48.5 106.5t-127.5 38.5q-111 0 -194.5 -58.5t-108.5 -156.5h-41q11 63 24.5 107.5t35 78.5t49 54.5t69.5 34t91.5 18t119.5 4.5q149 0 237.5 -53.5t88.5 -161.5q0 -110 -65 -179.5t-183 -96.5z" />
    <glyph glyph-name="uni049A" unicode="&#x49a;" horiz-adv-x="1378" 
d="M1425 1352l-10 -52q-89 0 -157.5 -30t-163.5 -113l-469 -399l383 -492q75 -97 151 -151q28 -20 58 -26.5t79 -6.5q30 0 46 -16t16 -41q0 -9 -2 -15l-68 -379h-92q2 20 2 86q0 227 -113 273q-152 34 -309 235l-350 451l-119 -676h-184l123 713q20 117 51 295
q29 182 29 186q0 59 -27.5 88t-89.5 29h-41l8 41h184q87 0 121.5 -26.5t34.5 -98.5q0 -34 -14 -119q-4 -27 -13.5 -79t-26.5 -146.5t-32 -175.5l506 430q12 10 22 18t14 11.5t5 4.5q109 99 182 140t164 41h102z" />
    <glyph glyph-name="uni049B" unicode="&#x49b;" horiz-adv-x="1038" 
d="M1014 963l-8 -52q-118 0 -201 -92l-281 -317l183 -297q28 -47 48 -70.5t54 -38t86 -14.5q29 0 44 -17t15 -42v-13l-57 -327h-82q4 82 4 84q0 100 -25 154t-79 71q-105 29 -183 151l-184 297l-76 -440h-184q135 771 135 809q0 58 -27.5 85.5t-89.5 27.5h-40l6 41h184
q87 0 121.5 -26.5t34.5 -98.5q0 -14 -13 -97q-13 -64 -20 -118l-25 -152l320 358q62 68 130 101t159 33h51z" />
    <glyph glyph-name="uni049C" unicode="&#x49c;" horiz-adv-x="1488" 
d="M1526 1352l-8 -52q-87 0 -156.5 -31t-165.5 -112l-471 -399l385 -492q76 -95 156.5 -156t150.5 -71l-6 -39q-61 -20 -137 -20q-103 0 -197.5 55t-199.5 190l-310 402l-37 -205h-88l41 227h-63l-115 -649h-184l194 1106q11 72 11 92q0 57 -27.5 85t-89.5 28h-41l6 41h184
q88 0 122 -26.5t34 -98.5q0 -41 -14 -121l-66 -375h64l37 213h88l-33 -190l448 383q14 13 27 24t18.5 15.5t6.5 5.5q106 95 175 132.5t158 37.5h103z" />
    <glyph glyph-name="uni049D" unicode="&#x49d;" horiz-adv-x="1146" 
d="M1141 963l-11 -52q-115 0 -198 -92l-283 -317l185 -297q85 -146 204 -166l-6 -39q-47 -20 -106 -20q-167 0 -269 163l-159 260l-35 -190h-82l37 203h-70l-74 -416h-184l127 717q8 39 8 88q0 59 -27.5 88t-88.5 29h-41l8 41h184q86 0 120 -26.5t34 -98.5q0 -41 -13 -121
l-39 -219h70l35 196h82l-33 -182l283 317q62 68 131 101t160 33h51z" />
    <glyph glyph-name="uni04A0" unicode="&#x4a0;" horiz-adv-x="1595" 
d="M1632 1352l-8 -52q-86 0 -155 -30.5t-166 -112.5l-472 -399l386 -492q76 -95 156.5 -156t150.5 -71l-6 -39q-61 -20 -138 -20q-103 0 -197.5 55t-199.5 190l-350 451l-119 -676h-184l223 1270h-92q-257 0 -297 -236h-41l27 154q27 164 202 164h400l-113 -645l506 430
q49 43 51 45q106 95 175.5 132.5t158.5 37.5h102z" />
    <glyph glyph-name="uni04A1" unicode="&#x4a1;" horiz-adv-x="1148" 
d="M928 -20q-167 0 -269 163l-182 297l-78 -440h-184l156 881h-58q-95 0 -164.5 -55t-87.5 -150h-41l23 123q27 164 182 164h344l-86 -492l318 358q62 68 131 101t160 33h51l-10 -52q-116 0 -199 -92l-283 -317l185 -297q85 -146 204 -166l-6 -39q-47 -20 -106 -20z" />
    <glyph glyph-name="uni04A2" unicode="&#x4a2;" horiz-adv-x="1429" 
d="M1223 -369h-93q3 27 3 82q0 156 -45.5 221.5t-147.5 65.5h-20l114 655h-614l-115 -655h-184l194 1106q11 72 11 92q0 57 -27.5 85t-89.5 28h-41l6 41h184q88 0 122 -26.5t34 -98.5q0 -41 -14 -121l-66 -369h615l108 615h184l-223 -1270h113q31 0 47.5 -20.5t11.5 -51.5z
" />
    <glyph glyph-name="uni04A3" unicode="&#x4a3;" horiz-adv-x="1159" 
d="M956 -317h-82q1 17 2 36t2 30.5t1 17.5q0 124 -38.5 178.5t-125.5 54.5h-41l78 440h-410l-78 -440h-184l127 717q8 39 8 88q0 59 -27.5 88t-89.5 29h-30l8 41h174q86 0 119.5 -26.5t33.5 -98.5q0 -48 -12 -121l-35 -195h410l78 441h184l-156 -881h82q31 0 48 -20.5
t12 -51.5z" />
    <glyph glyph-name="uni04A4" unicode="&#x4a4;" horiz-adv-x="1843" 
d="M973 1352h788q150 0 150 -121q0 -7 -4 -43l-27 -154h-41q6 34 6 62q0 174 -221 174h-297l-180 -1024q-10 -72 -10 -92q0 -58 27 -85.5t89 -27.5h41l-6 -41h-184q-87 0 -121.5 26.5t-34.5 98.5q0 35 15 121l71 409h-614l-115 -655h-184l194 1106q9 44 9 88q0 59 -27.5 88
t-89.5 29h-41l8 41h184q88 0 121 -25.5t33 -99.5q0 -47 -12 -121l-66 -369h615l71 402q4 54 4 57q0 58 -27 86.5t-89 28.5h-41z" />
    <glyph glyph-name="uni04A5" unicode="&#x4a5;" horiz-adv-x="1519" 
d="M678 963h655q129 0 129 -119q0 -4 -0.5 -9.5t-1.5 -16t-2 -19.5l-22 -123h-41q1 9 2 19.5t1.5 16t0.5 9.5q0 75 -48.5 117.5t-133.5 42.5h-205q-23 -133 -54 -315.5t-40 -233.5q-27 -156 -27 -178q0 -59 26.5 -86t90.5 -27h30l-6 -41h-174q-88 0 -122 26t-34 97
q0 41 48 317h-410l-76 -440h-184q135 771 135 809q0 58 -27.5 85.5t-89.5 27.5h-30l6 41h174q87 0 121 -26.5t34 -98.5q0 -40 -49 -316h410l39 215q4 32 4 68q0 59 -26.5 88t-90.5 29h-20z" />
    <glyph glyph-name="uni04AA" unicode="&#x4aa;" horiz-adv-x="1363" 
d="M870 1393q54 0 111.5 -7t122.5 -25.5t115 -47t83 -77.5t33 -110q0 -40 -16 -149l-8 -55h-41q-4 197 -92 293t-260 96q-123 0 -227.5 -49.5t-175.5 -131.5t-121.5 -189t-73.5 -220.5t-23 -226.5q0 -206 100.5 -329.5t296.5 -123.5q147 0 272.5 71.5t239.5 215.5l35 -31
q-114 -159 -241 -237.5t-289 -96.5l-62 -342h-82q13 117 13 172q0 90 -21.5 128t-73.5 52q-184 36 -288.5 179.5t-104.5 349.5q0 122 38.5 249.5t111 241.5t166.5 204t215 143t247 53z" />
    <glyph glyph-name="uni04AB" unicode="&#x4ab;" horiz-adv-x="991" 
d="M616 983q124 0 222 -29q92 -27 92 -131q0 -36 -23 -164l-2 -14h-41q2 10 2 45q0 103 -59 157t-164 54q-78 0 -143.5 -35.5t-108.5 -93t-73.5 -131t-44 -147t-13.5 -144.5q0 -138 59.5 -213.5t176.5 -75.5q102 0 176.5 38.5t148.5 125.5l35 -30q-139 -180 -321 -207
l-58 -316h-71q16 128 16 170q0 65 -19 96t-67 52q-134 26 -202 121.5t-68 244.5q0 120 39 232.5t108.5 200.5t174.5 141t228 53z" />
    <glyph glyph-name="uni04AE" unicode="&#x4ae;" horiz-adv-x="1288" 
d="M487 0l99 559l-256 526q-60 120 -112.5 170t-145.5 56l8 41h184q97 0 157.5 -56.5t108.5 -169.5l218 -460l548 686h93l-617 -779l-100 -573h-185z" />
    <glyph glyph-name="uni04AF" unicode="&#x4af;" horiz-adv-x="991" 
d="M252 -389l70 389l-125 727q-29 116 -67 161.5t-110 49.5l7 41q5 0 30.5 2t40.5 2q116 0 191.5 -57.5t111.5 -198.5l84 -569l428 805h103l-504 -926l-76 -426h-184z" />
    <glyph glyph-name="uni04B0" unicode="&#x4b0;" horiz-adv-x="1288" 
d="M1389 1352l-617 -779h203l-14 -81h-203l-86 -492h-185l86 492h-186l14 81h179l-250 512q-60 120 -112.5 170t-145.5 56l8 41h184q97 0 157.5 -56.5t108.5 -169.5l218 -460l548 686h93z" />
    <glyph glyph-name="uni04B1" unicode="&#x4b1;" horiz-adv-x="991" 
d="M1016 963l-502 -922h191l-15 -82h-192l-62 -348h-184l61 348h-196l14 82h184l-118 686q-29 116 -67 161.5t-110 49.5l7 41q5 0 30.5 2t40.5 2q116 0 191.5 -57.5t111.5 -198.5l84 -569l428 805h103z" />
    <glyph glyph-name="uni04B6" unicode="&#x4b6;" horiz-adv-x="1306" 
d="M1042 82h113q29 0 45.5 -16t16.5 -41q0 -6 -3 -15l-65 -379h-92q2 18 2 74q0 159 -46.5 227t-148.5 68h-20l96 553q-96 -41 -283 -41q-223 0 -330.5 67.5t-107.5 239.5q0 53 25 178q24 126 24 197q0 59 -27.5 88t-88.5 29h-21l8 41h185q86 0 119.5 -26.5t33.5 -98.5
q0 -71 -28 -207q-29 -155 -29 -219q0 -115 61.5 -161t200.5 -46q163 0 272 41l127 717h185z" />
    <glyph glyph-name="uni04B7" unicode="&#x4b7;" horiz-adv-x="1085" 
d="M852 82h102q30 0 46 -16t16 -41q0 -9 -2 -15l-58 -327h-82q1 17 2 36t2 30.5t1 17.5q0 124 -38.5 178.5t-125.5 54.5h-62l70 395q-107 -37 -213 -37q-322 0 -322 230q0 28 13 104q14 60 14 117q0 58 -27.5 85.5t-89.5 27.5h-20l6 41h174q87 0 121.5 -26.5t34.5 -98.5
q0 -28 -17 -121q-16 -88 -16 -131q0 -72 42 -109t112 -37q95 0 202 37l84 486h185z" />
    <glyph glyph-name="uni04B8" unicode="&#x4b8;" horiz-adv-x="1306" 
d="M1081 1352h185l-238 -1352h-184l96 553q-87 -38 -246 -41l-37 -201h-82l37 201q-200 6 -296.5 75t-96.5 232q0 53 25 178q24 126 24 197q0 59 -27.5 88t-88.5 29h-21l8 41h185q86 0 119.5 -26.5t33.5 -98.5q0 -71 -28 -207q-29 -155 -29 -219q0 -104 49.5 -151.5
t157.5 -53.5l35 197h81l-34 -199q149 3 245 41z" />
    <glyph glyph-name="uni04B9" unicode="&#x4b9;" horiz-adv-x="1085" 
d="M821 963h185l-168 -963h-185l70 395q-90 -29 -158 -35l-28 -163h-82l28 161q-295 9 -295 230q0 28 13 104q14 60 14 117q0 58 -27.5 85.5t-89.5 27.5h-20l6 41h174q87 0 121.5 -26.5t34.5 -98.5q0 -28 -17 -121q-16 -88 -16 -131q0 -62 31 -99t86 -45l30 170h82l-30 -170
q60 5 157 35z" />
    <glyph glyph-name="uni04BA" unicode="&#x4ba;" horiz-adv-x="1306" 
d="M532 1352l-96 -553q100 41 283 41q223 0 330.5 -68t107.5 -240q0 -58 -24 -178q-25 -131 -25 -196q0 -59 27.5 -88t89.5 -29h20l-8 -41h-184q-86 0 -120 26.5t-34 98.5q0 66 29 207q28 149 28 219q0 115 -61.5 161t-200.5 46q-163 0 -272 -41l-127 -717h-184l237 1352
h184z" />
    <glyph glyph-name="uni04BB" unicode="&#x4bb;" horiz-adv-x="1089" 
d="M51 0l123 713q20 117 51 295q29 182 29 186q0 59 -27.5 88t-89.5 29h-41l8 41h185q88 0 120.5 -25.5t32.5 -99.5q0 -60 -53 -346q128 102 285 102q293 0 293 -262q0 -22 -19 -152q-6 -34 -38 -219.5t-60 -349.5h-184q114 642 114 694q0 96 -50.5 146.5t-133.5 50.5
q-102 0 -223 -109l-137 -782h-185z" />
    <glyph glyph-name="uni04C0" unicode="&#x4c0;" horiz-adv-x="591" 
d="M455 0h-185q-87 0 -121 26.5t-34 98.5q0 41 14 121l195 1106h184l-195 -1106q-10 -72 -10 -92q0 -58 27.5 -85.5t89.5 -27.5h41z" />
    <glyph glyph-name="uni04C1" unicode="&#x4c1;" horiz-adv-x="1941" 
d="M1104 1454q-185 0 -234 184l45 31q59 -92 209 -92q153 0 242 92l37 -31q-114 -184 -299 -184zM12 -20q-70 0 -129 20l8 39q71 7 171 70t194 157l477 492l-248 399q-47 78 -108.5 110.5t-143.5 32.5l11 52h102q63 0 113.5 -26.5t89 -69.5t86.5 -119l272 -430l115 645h178
l-115 -645l424 430q103 109 189 162t178 53h102l-10 -52q-82 0 -153.5 -32t-147.5 -111l-387 -399l301 -492q57 -92 138.5 -155.5t150.5 -71.5l-6 -39q-61 -20 -138 -20q-229 0 -376 245l-269 451l-118 -676h-179l119 676l-428 -451q-232 -245 -463 -245z" />
    <glyph glyph-name="uni04C2" unicode="&#x4c2;" horiz-adv-x="1404" 
d="M801 1067q-170 0 -238 164l47 31q37 -43 84.5 -62.5t126.5 -19.5q80 0 135.5 20t104.5 62l35 -31q-117 -164 -295 -164zM16 -20q-54 0 -98 20l6 39q71 10 133 50t131 116l269 297l-140 317q-47 92 -178 92l8 52h52q181 0 243 -134l152 -358l86 492h184l-86 -492l279 358
q107 134 289 134h51l-8 -52q-64 0 -120 -24t-91 -68l-250 -317l162 -297q44 -77 92 -116.5t114 -49.5l-6 -39q-47 -20 -106 -20q-159 0 -248 163l-164 297l-76 -440h-184l76 440l-266 -297q-147 -163 -306 -163z" />
    <glyph glyph-name="uni04CB" unicode="&#x4cb;" horiz-adv-x="1275" 
d="M1081 1352h185l-238 -1352h-20q-114 0 -188.5 -84t-133.5 -285h-92l68 379q6 31 29.5 51.5t53.5 20.5h113l82 471q-96 -41 -283 -41q-223 0 -330.5 67.5t-107.5 239.5q0 53 25 178q24 126 24 197q0 59 -27.5 88t-88.5 29h-21l8 41h185q86 0 119.5 -26.5t33.5 -98.5
q0 -71 -28 -207q-29 -155 -29 -219q0 -115 61.5 -161t200.5 -46q163 0 272 41z" />
    <glyph glyph-name="uni04CC" unicode="&#x4cc;" horiz-adv-x="1064" 
d="M1006 963l-168 -963h-41q-99 0 -161.5 -73t-109.5 -244h-82l58 327q4 31 28.5 51.5t55.5 20.5h82l55 313q-107 -37 -213 -37q-322 0 -322 230q0 28 13 104q14 60 14 117q0 58 -27.5 85.5t-89.5 27.5h-20l6 41h174q87 0 121.5 -26.5t34.5 -98.5q0 -28 -17 -121
q-16 -88 -16 -131q0 -72 42 -109t112 -37q95 0 202 37l84 486h185z" />
    <glyph glyph-name="uni04CF" unicode="&#x4cf;" horiz-adv-x="499" 
d="M59 0l123 713q20 117 51 295q29 182 29 186q0 59 -27.5 88t-89.5 29h-41l9 41h184q88 0 121 -25.5t33 -99.5q0 -28 -35 -240q-37 -228 -172 -987h-185z" />
    <glyph glyph-name="uni04D0" unicode="&#x4d0;" horiz-adv-x="1298" 
d="M322 471h501l-141 594zM1180 -10q-101 0 -183 55q-83 51 -118 211l-29 133h-574l-231 -389h-92l811 1352h61l258 -1096q25 -118 64 -163t123 -52l-6 -41q-45 -10 -84 -10zM791 1454q-185 0 -234 184l45 31q59 -92 209 -92q153 0 242 92l37 -31q-114 -184 -299 -184z" />
    <glyph glyph-name="uni04D1" unicode="&#x4d1;" 
d="M438 61q79 0 131.5 30t104.5 93l106 594q-39 68 -74 95.5t-100 27.5q-73 0 -133.5 -40.5t-98.5 -103.5t-65 -142t-38 -153t-11 -140q0 -123 44 -192t134 -69zM362 -20q-144 0 -220 95.5t-76 258.5q0 113 32.5 223.5t92.5 202.5t156 153t212 70q169 0 236 -113h10l88 93
h102l-168 -963h-102l-57 92h-11q-107 -112 -295 -112zM649 1067q-169 0 -237 164l47 31q37 -43 84.5 -62.5t126.5 -19.5q80 0 135 19.5t104 62.5l35 -31q-117 -164 -295 -164z" />
    <glyph glyph-name="uni04D2" unicode="&#x4d2;" horiz-adv-x="1298" 
d="M322 471h501l-141 594zM1180 -10q-101 0 -183 55q-83 51 -118 211l-29 133h-574l-231 -389h-92l811 1352h61l258 -1096q25 -118 64 -163t123 -52l-6 -41q-45 -10 -84 -10zM651 1485q-35 0 -56.5 20.5t-21.5 53.5q0 44 32.5 77t78.5 33q35 0 56.5 -21.5t21.5 -54.5
q0 -41 -34 -74.5t-77 -33.5zM999 1485q-35 0 -56 20.5t-21 53.5q0 44 32 77t78 33q35 0 56.5 -21.5t21.5 -54.5q0 -41 -34 -74.5t-77 -33.5z" />
    <glyph glyph-name="uni04D3" unicode="&#x4d3;" 
d="M438 61q79 0 131.5 30t104.5 93l106 594q-39 68 -74 95.5t-100 27.5q-73 0 -133.5 -40.5t-98.5 -103.5t-65 -142t-38 -153t-11 -140q0 -123 44 -192t134 -69zM362 -20q-144 0 -220 95.5t-76 258.5q0 113 32.5 223.5t92.5 202.5t156 153t212 70q169 0 236 -113h10l88 93
h102l-168 -963h-102l-57 92h-11q-107 -112 -295 -112zM471 1096q-35 0 -56.5 20.5t-21.5 52.5q0 44 32.5 77.5t78.5 33.5q35 0 56.5 -21.5t21.5 -54.5q0 -41 -34 -74.5t-77 -33.5zM819 1096q-35 0 -56.5 20.5t-21.5 52.5q0 44 32.5 77.5t78.5 33.5q35 0 56.5 -21.5
t21.5 -54.5q0 -41 -34 -74.5t-77 -33.5z" />
    <glyph glyph-name="uni04D4" unicode="&#x4d4;" horiz-adv-x="1781" 
d="M332 471h440l139 789zM1397 0h-707l68 389h-492l-282 -389h-103l996 1352h739q149 0 149 -119q0 -9 -8 -53l-22 -146h-41q6 34 6 62q0 174 -221 174h-381l-94 -533h552l-14 -82h-553l-100 -573h358q142 0 231 51.5t156 173.5l39 -10l-106 -195q-53 -102 -170 -102z" />
    <glyph glyph-name="uni04D5" unicode="&#x4d5;" horiz-adv-x="1540" 
d="M383 72q67 0 115 30t100 93l45 256h-61q-62 0 -121 -11t-116.5 -35.5t-92.5 -73t-35 -114.5q0 -68 46 -106.5t120 -38.5zM842 532l-4 -20h202q102 0 168 63t66 170q0 146 -144 146q-93 0 -176.5 -104t-111.5 -255zM305 -20q-56 0 -104.5 11.5t-90.5 36t-66 68.5t-24 103
t21 108.5t55 83t82.5 59.5t98.5 41.5t109 25t108.5 12.5t101.5 3h61q19 108 19 168q0 111 -41 156t-127 45q-95 0 -157 -40t-99 -134h-92q14 75 30.5 112.5t53.5 71.5q84 72 319 72q102 0 168.5 -50t85.5 -134q45 80 134 132t186 52q167 0 249 -61.5t82 -171.5
q0 -69 -25.5 -124.5t-67.5 -91.5t-99 -60t-116.5 -34t-123.5 -10h-213q-6 -50 -6 -92q0 -129 57 -203t162 -74q94 0 167.5 39.5t148.5 124.5l34 -30q-86 -114 -183.5 -164.5t-221.5 -50.5q-241 0 -317 174q-68 -91 -151 -132.5t-208 -41.5z" />
    <glyph glyph-name="uni04D6" unicode="&#x4d6;" horiz-adv-x="1214" 
d="M750 1454q-185 0 -234 184l45 31q59 -92 209 -92q153 0 242 92l37 -31q-114 -184 -299 -184zM123 0l123 713q20 117 51 295q29 182 29 186q0 59 -27.5 88t-89.5 29h-41l8 41h873q149 0 149 -119q0 -9 -8 -53l-23 -146h-41q7 40 7 62q0 174 -222 174h-381l-94 -533h553
l-14 -82h-553l-100 -573h358q142 0 231 51.5t156 173.5l39 -10l-107 -195q-53 -102 -170 -102h-706z" />
    <glyph glyph-name="uni04D7" unicode="&#x4d7;" horiz-adv-x="997" 
d="M274 492h236q101 5 167 75t66 178q0 74 -42 115t-119 41q-109 0 -191 -108.5t-117 -300.5zM420 -20q-169 0 -261.5 101.5t-92.5 272.5q0 92 23 182.5t69 171t108.5 142t148 97.5t181.5 36q168 0 255 -62.5t87 -170.5q0 -104 -61 -182.5t-158.5 -118t-212.5 -39.5h-246
q-8 -36 -8 -84q0 -118 59.5 -191.5t163.5 -73.5q94 0 167.5 39.5t148.5 124.5l34 -30q-86 -114 -183.5 -164.5t-221.5 -50.5zM610 1067q-169 0 -237 164l47 31q37 -43 84.5 -62.5t126.5 -19.5q80 0 135 19.5t104 62.5l35 -31q-117 -164 -295 -164z" />
    <glyph glyph-name="uni04D8" unicode="&#x4d8;" horiz-adv-x="1378" 
d="M584 41q172 0 315.5 159t183.5 396h-796q-19 -111 -19 -188q0 -181 79.5 -274t236.5 -93zM567 -41q-485 0 -485 453q0 85 18 184l27 115h977q14 71 14 159q0 200 -94.5 317.5t-263.5 117.5q-154 0 -269 -65.5t-227 -209.5l-47 45q121 165 262 241.5t314 76.5
q253 0 388.5 -147.5t135.5 -399.5q0 -128 -33 -255t-98 -240.5t-153.5 -201t-209.5 -139t-256 -51.5z" />
    <glyph glyph-name="uni04D9" unicode="&#x4d9;" horiz-adv-x="1001" 
d="M412 61q92 0 172 106t108 263h-430q-14 -71 -14 -149q0 -220 164 -220zM397 -20q-342 0 -342 317q0 57 13 133l18 82h621q10 72 10 113q0 129 -57 202.5t-160 73.5q-94 0 -169 -40t-149 -124l-35 31q86 113 185 164t223 51q170 0 261 -100.5t91 -274.5q0 -87 -22 -176
t-66 -170t-104 -144t-142.5 -100.5t-175.5 -37.5z" />
    <glyph glyph-name="uni04DC" unicode="&#x4dc;" horiz-adv-x="1941" 
d="M965 1485q-35 0 -56.5 20.5t-21.5 53.5q0 44 32 77t78 33q35 0 56.5 -21.5t21.5 -54.5q0 -41 -33.5 -74.5t-76.5 -33.5zM1313 1485q-35 0 -56.5 20.5t-21.5 53.5q0 44 32.5 77t78.5 33q35 0 56 -21.5t21 -54.5q0 -41 -33.5 -74.5t-76.5 -33.5zM12 -20q-70 0 -129 20l8 39
q71 7 171 70t194 157l477 492l-248 399q-47 78 -108.5 110.5t-143.5 32.5l11 52h102q63 0 113.5 -26.5t89 -69.5t86.5 -119l272 -430l115 645h178l-115 -645l424 430q103 109 189 162t178 53h102l-10 -52q-82 0 -153.5 -32t-147.5 -111l-387 -399l301 -492
q57 -92 138.5 -155.5t150.5 -71.5l-6 -39q-61 -20 -138 -20q-229 0 -376 245l-269 451l-118 -676h-179l119 676l-428 -451q-232 -245 -463 -245z" />
    <glyph glyph-name="uni04DD" unicode="&#x4dd;" horiz-adv-x="1404" 
d="M623 1096q-35 0 -56.5 20.5t-21.5 52.5q0 44 32 77.5t78 33.5q35 0 56.5 -21.5t21.5 -54.5q0 -41 -33.5 -74.5t-76.5 -33.5zM971 1096q-35 0 -56.5 20.5t-21.5 52.5q0 44 32.5 77.5t78.5 33.5q35 0 56 -21.5t21 -54.5q0 -41 -33.5 -74.5t-76.5 -33.5zM16 -20
q-54 0 -98 20l6 39q71 10 133 50t131 116l269 297l-140 317q-47 92 -178 92l8 52h52q181 0 243 -134l152 -358l86 492h184l-86 -492l279 358q107 134 289 134h51l-8 -52q-64 0 -120 -24t-91 -68l-250 -317l162 -297q44 -77 92 -116.5t114 -49.5l-6 -39q-47 -20 -106 -20
q-159 0 -248 163l-164 297l-76 -440h-184l76 440l-266 -297q-147 -163 -306 -163z" />
    <glyph glyph-name="uni04DE" unicode="&#x4de;" horiz-adv-x="1171" 
d="M526 1485q-35 0 -56 20.5t-21 53.5q0 44 32 77t78 33q35 0 56.5 -21.5t21.5 -54.5q0 -41 -34 -74.5t-77 -33.5zM874 1485q-35 0 -56 20.5t-21 53.5q0 44 32 77t78 33q35 0 56.5 -21.5t21.5 -54.5q0 -41 -34 -74.5t-77 -33.5zM446 -41q-168 0 -276 60t-170 196l47 31
q119 -205 383 -205q183 0 300.5 98.5t117.5 263.5q0 118 -86.5 180t-255.5 62h-154l15 82h153q104 0 196 41.5t151 123.5t59 187q0 107 -74 169.5t-188 62.5q-146 0 -263.5 -86.5t-183.5 -241.5h-41q21 118 39 170q18 61 73 109.5t126 75.5t141.5 41t132.5 14q182 0 307 -64
q127 -65 127 -233q0 -138 -87 -241.5t-265 -158.5q149 -29 217 -96t68 -174q0 -99 -34.5 -179t-92.5 -132.5t-137 -88.5t-165 -51.5t-180 -15.5z" />
    <glyph glyph-name="uni04DF" unicode="&#x4df;" horiz-adv-x="933" 
d="M338 1096q-35 0 -56.5 20.5t-21.5 52.5q0 44 32.5 77.5t78.5 33.5q35 0 56.5 -21.5t21.5 -54.5q0 -41 -34 -74.5t-77 -33.5zM686 1096q-35 0 -56.5 20.5t-21.5 52.5q0 44 32.5 77.5t78.5 33.5q35 0 56.5 -21.5t21.5 -54.5q0 -41 -34 -74.5t-77 -33.5zM330 -20
q-125 0 -203 41t-127 122l45 31q48 -59 104.5 -86t153.5 -27q138 0 216.5 59.5t78.5 174.5q0 156 -258 156h-92l14 81h92q138 0 215.5 58t77.5 166q0 68 -48.5 106.5t-127.5 38.5q-111 0 -194.5 -58.5t-108.5 -156.5h-41q11 63 24.5 107.5t35 78.5t49 54.5t69.5 34t91.5 18
t119.5 4.5q149 0 237.5 -53.5t88.5 -161.5q0 -110 -65 -179.5t-183 -96.5q94 -20 145.5 -71t51.5 -126q0 -73 -28.5 -130t-73 -91t-107 -56t-123.5 -30t-129 -8z" />
    <glyph glyph-name="uni04E2" unicode="&#x4e2;" horiz-adv-x="1425" 
d="M1110 1536h-522v123h522v-123zM123 0l123 713q20 117 51 295q29 182 29 186q0 59 -27.5 88t-89.5 29h-41l8 41h184q86 0 120 -26.5t34 -98.5q0 -30 -37 -252q-9 -51 -54.5 -313t-84.5 -478l862 1168h184l-237 -1352h-184l204 1167l-860 -1167h-184z" />
    <glyph glyph-name="uni04E3" unicode="&#x4e3;" horiz-adv-x="1099" 
d="M858 1147h-522v123h522v-123zM397 -20q-295 0 -295 266q0 11 17 127q12 81 59 344q10 72 10 92q0 58 -27 85.5t-89 27.5h-21l6 41h164q87 0 121.5 -26.5t34.5 -98.5q0 -36 -15 -121q-71 -399 -71 -447q0 -99 50 -148.5t134 -49.5q103 0 223 108l138 783h184l-168 -963
h-102l-58 82h-10q-128 -102 -285 -102z" />
    <glyph glyph-name="uni04E4" unicode="&#x4e4;" horiz-adv-x="1425" 
d="M674 1485q-35 0 -56.5 20.5t-21.5 53.5q0 44 32.5 77t78.5 33q35 0 56 -21.5t21 -54.5q0 -41 -33.5 -74.5t-76.5 -33.5zM1022 1485q-35 0 -56.5 20.5t-21.5 53.5q0 44 32.5 77t78.5 33q35 0 56.5 -21.5t21.5 -54.5q0 -41 -34 -74.5t-77 -33.5zM123 0l123 713
q20 117 51 295q29 182 29 186q0 59 -27.5 88t-89.5 29h-41l8 41h184q86 0 120 -26.5t34 -98.5q0 -30 -37 -252q-9 -51 -54.5 -313t-84.5 -478l862 1168h184l-237 -1352h-184l204 1167l-860 -1167h-184z" />
    <glyph glyph-name="uni04E5" unicode="&#x4e5;" horiz-adv-x="1099" 
d="M422 1096q-35 0 -56.5 20.5t-21.5 52.5q0 44 32.5 77.5t78.5 33.5q35 0 56 -21.5t21 -54.5q0 -41 -33.5 -74.5t-76.5 -33.5zM770 1096q-35 0 -56.5 20.5t-21.5 52.5q0 44 32.5 77.5t78.5 33.5q35 0 56.5 -21.5t21.5 -54.5q0 -41 -34 -74.5t-77 -33.5zM397 -20
q-295 0 -295 266q0 11 17 127q12 81 59 344q10 72 10 92q0 58 -27 85.5t-89 27.5h-21l6 41h164q87 0 121.5 -26.5t34.5 -98.5q0 -36 -15 -121q-71 -399 -71 -447q0 -99 50 -148.5t134 -49.5q103 0 223 108l138 783h184l-168 -963h-102l-58 82h-10q-128 -102 -285 -102z" />
    <glyph glyph-name="uni04E6" unicode="&#x4e6;" horiz-adv-x="1458" 
d="M635 41q95 0 178.5 39t143 105.5t106.5 150.5t75.5 178.5t43 185t14.5 174.5q0 208 -87.5 322.5t-250.5 114.5q-96 0 -179 -39.5t-142.5 -106t-106.5 -151.5t-75 -180t-42 -186t-14 -175q0 -208 86.5 -320t249.5 -112zM621 -41q-162 0 -281.5 72t-180.5 196.5t-61 286.5
q0 128 36 255.5t105 239t161.5 198t215 136.5t256.5 50q244 0 384.5 -154.5t140.5 -404.5q0 -161 -57.5 -318t-157.5 -280.5t-247.5 -200t-313.5 -76.5zM731 1485q-35 0 -56.5 20.5t-21.5 53.5q0 44 32.5 77t78.5 33q35 0 56.5 -21.5t21.5 -54.5q0 -41 -34 -74.5t-77 -33.5z
M1079 1485q-35 0 -56.5 20.5t-21.5 53.5q0 44 32.5 77t78.5 33q35 0 56.5 -21.5t21.5 -54.5q0 -41 -34 -74.5t-77 -33.5z" />
    <glyph glyph-name="uni04E7" unicode="&#x4e7;" horiz-adv-x="1083" 
d="M453 61q56 0 105.5 27t86 72t66 101.5t47.5 118t27.5 120t9.5 108.5q0 132 -52 212.5t-143 80.5q-81 0 -149 -57.5t-108.5 -144t-62.5 -178t-22 -167.5q0 -132 52 -212.5t143 -80.5zM438 -20q-175 0 -273.5 106t-98.5 281q0 92 25.5 182t74.5 167.5t115 137.5t152 94.5
t181 34.5q175 0 274 -106t99 -281q0 -154 -68.5 -294t-196.5 -231t-284 -91zM475 1096q-35 0 -56.5 20.5t-21.5 52.5q0 44 32.5 77.5t78.5 33.5q35 0 56.5 -21.5t21.5 -54.5q0 -41 -34 -74.5t-77 -33.5zM823 1096q-35 0 -56.5 20.5t-21.5 52.5q0 44 32.5 77.5t78.5 33.5
q35 0 56.5 -21.5t21.5 -54.5q0 -41 -34 -74.5t-77 -33.5z" />
    <glyph glyph-name="uni04E8" unicode="&#x4e8;" horiz-adv-x="1458" 
d="M635 41q108 0 201 51t158.5 138.5t110.5 195t69 229.5h-861q-14 -83 -14 -182q0 -208 86.5 -320t249.5 -112zM858 1311q-89 0 -167.5 -34.5t-135.5 -91t-103 -133t-75 -154t-47 -161.5h858q8 57 8 137q0 208 -87.5 322.5t-250.5 114.5zM872 1393q244 0 384.5 -154.5
t140.5 -404.5q0 -161 -57.5 -318t-157.5 -280.5t-247.5 -200t-313.5 -76.5q-162 0 -281.5 72t-180.5 196.5t-61 286.5q0 128 36 255.5t105 239t161.5 198t215 136.5t256.5 50z" />
    <glyph glyph-name="uni04E9" unicode="&#x4e9;" horiz-adv-x="1228" 
d="M453 61q56 0 105.5 27t86 72t66 101.5t47.5 118t27.5 120t9.5 108.5q0 132 -52 212.5t-143 80.5q-66 0 -122.5 -36.5t-95 -96.5t-63 -120.5t-40.5 -125.5h460l-14 -82h-461q-6 -46 -6 -86q0 -132 52 -212.5t143 -80.5zM614 983q175 0 274 -106t99 -281q0 -154 -68.5 -294
t-196.5 -231t-284 -91q-175 0 -273.5 106t-98.5 281q0 92 25.5 182t74.5 167.5t115 137.5t152 94.5t181 34.5z" />
    <glyph glyph-name="uni04EE" unicode="&#x4ee;" horiz-adv-x="1245" 
d="M1061 1536h-522v123h522v-123zM162 -20l10 61q234 0 334 154l31 51l-232 839q-15 49 -26 78.5t-29.5 60.5t-41.5 47t-58 27t-82 13l8 41h246q85 0 127.5 -53t76.5 -173l170 -614l516 840h123l-708 -1157q-132 -215 -363 -215h-102z" />
    <glyph glyph-name="uni04EF" unicode="&#x4ef;" horiz-adv-x="1054" 
d="M897 1147h-522v123h522v-123zM35 -410l12 62q103 0 176 48t137 167l62 113l-186 800q-35 149 -197 164l6 41h174q176 0 217 -164l135 -569l383 713h103l-594 -1098q-35 -67 -66 -112t-74.5 -85.5t-99.5 -60t-127 -19.5h-61z" />
    <glyph glyph-name="uni04F0" unicode="&#x4f0;" horiz-adv-x="1245" 
d="M625 1485q-35 0 -56.5 20.5t-21.5 53.5q0 44 32 77t78 33q35 0 56.5 -21.5t21.5 -54.5q0 -41 -33.5 -74.5t-76.5 -33.5zM973 1485q-35 0 -56.5 20.5t-21.5 53.5q0 44 32.5 77t78.5 33q35 0 56 -21.5t21 -54.5q0 -41 -33.5 -74.5t-76.5 -33.5zM162 -20l10 61
q234 0 334 154l31 51l-232 839q-15 49 -26 78.5t-29.5 60.5t-41.5 47t-58 27t-82 13l8 41h246q85 0 127.5 -53t76.5 -173l170 -614l516 840h123l-708 -1157q-132 -215 -363 -215h-102z" />
    <glyph glyph-name="uni04F1" unicode="&#x4f1;" horiz-adv-x="1054" 
d="M461 1096q-35 0 -56.5 20.5t-21.5 52.5q0 44 32.5 77.5t78.5 33.5q35 0 56 -21.5t21 -54.5q0 -41 -33.5 -74.5t-76.5 -33.5zM809 1096q-35 0 -56.5 20.5t-21.5 52.5q0 44 32.5 77.5t78.5 33.5q35 0 56.5 -21.5t21.5 -54.5q0 -41 -34 -74.5t-77 -33.5zM35 -410l12 62
q103 0 176 48t137 167l62 113l-186 800q-35 149 -197 164l6 41h174q176 0 217 -164l135 -569l383 713h103l-594 -1098q-35 -67 -66 -112t-74.5 -85.5t-99.5 -60t-127 -19.5h-61z" />
    <glyph glyph-name="uni04F2" unicode="&#x4f2;" horiz-adv-x="1245" 
d="M719 1464h-62l82 267h133zM924 1464h-62l82 267h133zM162 -20l10 61q234 0 334 154l31 51l-232 839q-15 49 -26 78.5t-29.5 60.5t-41.5 47t-58 27t-82 13l8 41h246q85 0 127.5 -53t76.5 -173l170 -614l516 840h123l-708 -1157q-132 -215 -363 -215h-102z" />
    <glyph glyph-name="uni04F3" unicode="&#x4f3;" horiz-adv-x="1054" 
d="M555 1075h-61l81 266h134zM760 1075h-62l82 266h133zM35 -410l12 62q103 0 176 48t137 167l62 113l-186 800q-35 149 -197 164l6 41h174q176 0 217 -164l135 -569l383 713h103l-594 -1098q-35 -67 -66 -112t-74.5 -85.5t-99.5 -60t-127 -19.5h-61z" />
    <glyph glyph-name="uni04F4" unicode="&#x4f4;" horiz-adv-x="1306" 
d="M596 1485q-35 0 -56.5 20.5t-21.5 53.5q0 44 32.5 77t78.5 33q35 0 56.5 -21.5t21.5 -54.5q0 -41 -34 -74.5t-77 -33.5zM944 1485q-35 0 -56.5 20.5t-21.5 53.5q0 44 32.5 77t78.5 33q35 0 56.5 -21.5t21.5 -54.5q0 -41 -34 -74.5t-77 -33.5zM844 0l96 553
q-96 -41 -283 -41q-223 0 -330.5 67.5t-107.5 239.5q0 53 25 178q24 126 24 197q0 59 -27.5 88t-88.5 29h-21l8 41h185q86 0 119.5 -26.5t33.5 -98.5q0 -71 -28 -207q-29 -155 -29 -219q0 -115 61.5 -161t200.5 -46q163 0 272 41l127 717h185l-238 -1352h-184z" />
    <glyph glyph-name="uni04F5" unicode="&#x4f5;" horiz-adv-x="1085" 
d="M449 1096q-35 0 -56.5 20.5t-21.5 52.5q0 44 32 77.5t78 33.5q35 0 56.5 -21.5t21.5 -54.5q0 -41 -33.5 -74.5t-76.5 -33.5zM797 1096q-35 0 -56.5 20.5t-21.5 52.5q0 44 32 77.5t78 33.5q35 0 56.5 -21.5t21.5 -54.5q0 -41 -33.5 -74.5t-76.5 -33.5zM653 0l70 395
q-107 -37 -213 -37q-322 0 -322 230q0 28 13 104q14 60 14 117q0 58 -27.5 85.5t-89.5 27.5h-20l6 41h174q87 0 121.5 -26.5t34.5 -98.5q0 -28 -17 -121q-16 -88 -16 -131q0 -72 42 -109t112 -37q95 0 202 37l84 486h185l-168 -963h-185z" />
    <glyph glyph-name="uni04F6" unicode="&#x4f6;" horiz-adv-x="1107" 
d="M176 1352h850q150 0 150 -121q0 -3 -9 -55l-22 -142h-41q6 34 6 62q0 174 -221 174h-359l-208 -1188h112q30 0 46 -16t16 -41q0 -9 -2 -15l-66 -379h-92q2 18 2 74q0 159 -46.5 227t-148.5 68h-20l139 803q64 363 64 391q0 59 -27.5 88t-89.5 29h-41z" />
    <glyph glyph-name="uni04F7" unicode="&#x4f7;" horiz-adv-x="903" 
d="M373 -317h-82q4 82 4 84q0 124 -38.5 178.5t-125.5 54.5h-61l127 717q10 62 10 90q0 59 -27.5 87t-91.5 28h-20l8 41h676q129 0 129 -119q0 -4 -0.5 -9.5t-1.5 -16t-2 -19.5l-23 -123h-41q1 9 2 19.5t1.5 16t0.5 9.5q0 75 -48.5 117.5t-133.5 42.5h-225l-142 -799h103
q31 0 48 -20.5t11 -51.5z" />
    <glyph glyph-name="uni04F8" unicode="&#x4f8;" horiz-adv-x="1712" 
d="M514 72q169 0 284 109.5t115 281.5q0 117 -76.5 180.5t-211.5 63.5q-86 0 -199 -29l-102 -578q103 -28 190 -28zM532 0h-409l123 713q20 117 51 295q29 182 29 186q0 59 -27.5 88t-89.5 29h-41l8 41h184q86 0 120 -26.5t34 -98.5q0 -36 -70 -449h226q181 0 315 -67
q133 -71 133 -244q0 -121 -48.5 -213t-132 -146.5t-185.5 -81t-220 -26.5zM1542 41h41l-6 -41h-184q-88 0 -122 26t-34 97q0 27 35 235q10 60 32 184.5t64.5 366t77.5 443.5h184q-205 -1134 -205 -1198q0 -59 26.5 -86t90.5 -27zM858 1485q-35 0 -56.5 20.5t-21.5 53.5
q0 44 32.5 77t78.5 33q35 0 56.5 -21.5t21.5 -54.5q0 -41 -34 -74.5t-77 -33.5zM1206 1485q-35 0 -56.5 20.5t-21.5 53.5q0 44 32.5 77t78.5 33q35 0 56.5 -21.5t21.5 -54.5q0 -41 -34 -74.5t-77 -33.5z" />
    <glyph glyph-name="uni04F9" unicode="&#x4f9;" horiz-adv-x="1413" 
d="M410 72q121 0 194.5 69t73.5 203q0 158 -193 158q-68 0 -137 -21l-69 -389q66 -20 131 -20zM418 0h-338q135 771 135 809q0 58 -27.5 85.5t-89.5 27.5h-30l6 41h174q87 0 121 -26.5t34 -98.5q0 -48 -38 -265h153q354 0 354 -227q0 -187 -131 -266q-133 -80 -323 -80z
M1284 41h31l-6 -41h-174q-88 0 -122 26t-34 97q0 35 65 405l74 435h185q-107 -613 -107 -615q-29 -189 -29 -194q0 -59 26.5 -86t90.5 -27zM639 1096q-35 0 -56.5 20.5t-21.5 52.5q0 44 32.5 77.5t78.5 33.5q35 0 56.5 -21.5t21.5 -54.5q0 -41 -34 -74.5t-77 -33.5z
M987 1096q-35 0 -56.5 20.5t-21.5 52.5q0 44 32.5 77.5t78.5 33.5q35 0 56.5 -21.5t21.5 -54.5q0 -41 -34 -74.5t-77 -33.5z" />
    <glyph glyph-name="uni051A" unicode="&#x51a;" horiz-adv-x="1456" 
d="M635 41q95 0 178.5 39t143 105.5t106.5 150.5t75.5 178.5t43 185t14.5 174.5q0 208 -87.5 322.5t-250.5 114.5q-96 0 -179 -39.5t-142.5 -106t-106.5 -151.5t-75 -180t-42 -186t-14 -175q0 -208 86.5 -320t249.5 -112zM1217 -379l-9 -41q-254 0 -443.5 95.5t-324.5 310.5
q-163 49 -252.5 189t-89.5 339q0 128 36 255.5t105 239t161.5 198t215 136.5t256.5 50q162 0 281.5 -72t180.5 -196.5t61 -286.5q0 -185 -72 -359t-211 -308.5t-319 -188.5q19 -141 149.5 -251t274.5 -110z" />
    <glyph glyph-name="uni051B" unicode="&#x51b;" horiz-adv-x="1073" 
d="M457 61q71 0 205 62l116 655q-32 60 -77.5 91.5t-116.5 31.5q-70 0 -127 -42.5t-92.5 -106.5t-60 -144t-34.5 -151t-10 -131q0 -127 48.5 -196t148.5 -69zM793 870h10l88 93h102l-237 -1352h-185l76 430q-134 -61 -266 -61q-155 0 -235 95t-80 263q0 82 18.5 170t58 173
t94 152t132.5 108.5t168 41.5q186 0 256 -113z" />
    <glyph glyph-name="uni051C" unicode="&#x51c;" horiz-adv-x="1775" 
d="M446 -20l-198 1132q-24 120 -61 164t-126 51l7 41q5 0 30.5 2t40.5 2q138 0 207 -61t96 -199l136 -790l333 649l-24 141q-24 120 -61 164t-126 51l7 41q5 0 30.5 2t40.5 2q138 0 207 -61t96 -199l136 -790l532 1030h88l-711 -1372h-41l-151 862l-447 -862h-41z" />
    <glyph glyph-name="uni051D" unicode="&#x51d;" horiz-adv-x="1533" 
d="M391 -20l-166 747q-26 116 -64.5 161.5t-113.5 49.5l8 41q5 0 31 2t41 2q116 0 189.5 -59.5t103.5 -196.5l98 -430l252 440q-31 110 -67 153.5t-103 47.5l8 41q5 0 31 2t41 2q116 0 189.5 -59.5t103.5 -196.5l98 -430l383 666h102l-571 -983h-41l-145 634l-367 -634h-41z
" />
    <glyph glyph-name="uni0524" unicode="&#x524;" horiz-adv-x="1429" 
d="M1118 82h113q29 0 45 -16t16 -41q0 -9 -2 -15l-65 -379h-92q2 18 2 74q0 159 -46.5 227t-148.5 68h-20l223 1270h-615l-223 -1270h-184l194 1106q9 44 9 88q0 59 -27.5 88t-89.5 29h-41l8 41h1167z" />
    <glyph glyph-name="uni0525" unicode="&#x525;" horiz-adv-x="1206" 
d="M899 82h102q29 0 45.5 -16t16.5 -41q0 -9 -2 -15l-57 -327h-82q4 82 4 84q0 124 -38.5 178.5t-125.5 54.5h-62l15 82q100 551 100 612q0 96 -50.5 146.5t-133.5 50.5q-102 0 -223 -109l-138 -782h-184q19 109 44.5 252.5t40 226.5t22.5 135q28 182 28 195
q0 58 -27.5 85.5t-89.5 27.5h-41l7 41h184q145 0 160 -82h10q128 102 285 102q292 0 292 -262q0 -22 -16 -137q-13 -81 -86 -502z" />
    <glyph glyph-name="uni1EA0" unicode="&#x1ea0;" horiz-adv-x="1298" 
d="M322 471h501l-141 594zM1180 -10q-101 0 -183 55q-83 51 -118 211l-29 133h-574l-231 -389h-92l811 1352h61l258 -1096q25 -118 64 -163t123 -52l-6 -41q-45 -10 -84 -10zM506 -330q-35 0 -55.5 21.5t-20.5 56.5q0 41 33 74t76 33q35 0 56 -21.5t21 -54.5q0 -41 -34 -75
t-76 -34z" />
    <glyph glyph-name="uni1EA1" unicode="&#x1ea1;" 
d="M438 61q79 0 131.5 30t104.5 93l106 594q-39 68 -74 95.5t-100 27.5q-73 0 -133.5 -40.5t-98.5 -103.5t-65 -142t-38 -153t-11 -140q0 -123 44 -192t134 -69zM362 -20q-144 0 -220 95.5t-76 258.5q0 113 32.5 223.5t92.5 202.5t156 153t212 70q169 0 236 -113h10l88 93
h102l-168 -963h-102l-57 92h-11q-107 -112 -295 -112zM395 -330q-35 0 -55.5 21.5t-20.5 56.5q0 41 33 74t76 33q35 0 56.5 -21.5t21.5 -54.5q0 -41 -34 -75t-77 -34z" />
    <glyph glyph-name="uni1EA2" unicode="&#x1ea2;" horiz-adv-x="1298" 
d="M322 471h501l-141 594zM1180 -10q-101 0 -183 55q-83 51 -118 211l-29 133h-574l-231 -389h-92l811 1352h61l258 -1096q25 -118 64 -163t123 -52l-6 -41q-45 -10 -84 -10zM881 1456h-64q7 34 20 56t48 65q43 54 43 92q0 53 -56 53q-42 0 -68.5 -23t-49.5 -79l-84 2
q12 80 73 128t144 48q63 0 104 -32.5t41 -90.5q0 -3 -4 -35q-4 -22 -16.5 -35.5t-48.5 -43.5q-40 -33 -57.5 -54t-24.5 -51z" />
    <glyph glyph-name="uni1EA3" unicode="&#x1ea3;" 
d="M438 61q79 0 131.5 30t104.5 93l106 594q-39 68 -74 95.5t-100 27.5q-73 0 -133.5 -40.5t-98.5 -103.5t-65 -142t-38 -153t-11 -140q0 -123 44 -192t134 -69zM362 -20q-144 0 -220 95.5t-76 258.5q0 113 32.5 223.5t92.5 202.5t156 153t212 70q169 0 236 -113h10l88 93
h102l-168 -963h-102l-57 92h-11q-107 -112 -295 -112zM741 1067h-63q7 34 20 56.5t47 64.5q43 54 43 92q0 53 -55 53q-42 0 -69 -23t-50 -79l-84 2q12 80 73 128t145 48q63 0 104 -32.5t41 -90.5q0 -3 -4 -35q-4 -22 -17 -36t-49 -44q-41 -34 -58 -54t-24 -50z" />
    <glyph glyph-name="uni1EA4" unicode="&#x1ea4;" horiz-adv-x="1298" 
d="M322 471h501l-141 594zM1180 -10q-101 0 -183 55q-83 51 -118 211l-29 133h-574l-231 -389h-92l811 1352h61l258 -1096q25 -118 64 -163t123 -52l-6 -41q-45 -10 -84 -10zM735 1690h226l122 -236h-102l-145 164l-203 -164h-103zM1454 1819l-258 -236h-102l186 236h174z
" />
    <glyph glyph-name="uni1EA5" unicode="&#x1ea5;" 
d="M438 61q79 0 131.5 30t104.5 93l106 594q-39 68 -74 95.5t-100 27.5q-73 0 -133.5 -40.5t-98.5 -103.5t-65 -142t-38 -153t-11 -140q0 -123 44 -192t134 -69zM362 -20q-144 0 -220 95.5t-76 258.5q0 113 32.5 223.5t92.5 202.5t156 153t212 70q169 0 236 -113h10l88 93
h102l-168 -963h-102l-57 92h-11q-107 -112 -295 -112zM596 1300h225l123 -235h-102l-146 164l-202 -164h-103zM1315 1430l-258 -236h-103l187 236h174z" />
    <glyph glyph-name="uni1EA6" unicode="&#x1ea6;" horiz-adv-x="1298" 
d="M322 471h501l-141 594zM1180 -10q-101 0 -183 55q-83 51 -118 211l-29 133h-574l-231 -389h-92l811 1352h61l258 -1096q25 -118 64 -163t123 -52l-6 -41q-45 -10 -84 -10zM735 1690h226l122 -236h-102l-145 164l-203 -164h-103zM1174 1882l34 -266h-82l-147 266h195z" />
    <glyph glyph-name="uni1EA7" unicode="&#x1ea7;" 
d="M438 61q79 0 131.5 30t104.5 93l106 594q-39 68 -74 95.5t-100 27.5q-73 0 -133.5 -40.5t-98.5 -103.5t-65 -142t-38 -153t-11 -140q0 -123 44 -192t134 -69zM362 -20q-144 0 -220 95.5t-76 258.5q0 113 32.5 223.5t92.5 202.5t156 153t212 70q169 0 236 -113h10l88 93
h102l-168 -963h-102l-57 92h-11q-107 -112 -295 -112zM596 1300h225l123 -235h-102l-146 164l-202 -164h-103zM1034 1493l35 -266h-82l-147 266h194z" />
    <glyph glyph-name="uni1EA8" unicode="&#x1ea8;" horiz-adv-x="1298" 
d="M322 471h501l-141 594zM1180 -10q-101 0 -183 55q-83 51 -118 211l-29 133h-574l-231 -389h-92l811 1352h61l258 -1096q25 -118 64 -163t123 -52l-6 -41q-45 -10 -84 -10zM735 1690h226l122 -236h-102l-145 164l-203 -164h-103zM1182 1626h-64q7 34 20 56t48 65
q43 54 43 92q0 53 -55 53q-42 0 -69 -23t-50 -79l-84 2q12 80 73 128t144 48q63 0 104 -32.5t41 -90.5q0 -3 -4 -35q-4 -22 -16.5 -35.5t-48.5 -43.5q-40 -33 -57.5 -54t-24.5 -51z" />
    <glyph glyph-name="uni1EA9" unicode="&#x1ea9;" 
d="M438 61q79 0 131.5 30t104.5 93l106 594q-39 68 -74 95.5t-100 27.5q-73 0 -133.5 -40.5t-98.5 -103.5t-65 -142t-38 -153t-11 -140q0 -123 44 -192t134 -69zM362 -20q-144 0 -220 95.5t-76 258.5q0 113 32.5 223.5t92.5 202.5t156 153t212 70q169 0 236 -113h10l88 93
h102l-168 -963h-102l-57 92h-11q-107 -112 -295 -112zM596 1300h225l123 -235h-102l-146 164l-202 -164h-103zM1042 1237h-63q7 34 20 56t48 65q43 54 43 92q0 53 -56 53q-42 0 -69 -23t-50 -79l-84 2q12 80 73 128t145 48q63 0 104 -32.5t41 -90.5q0 -3 -4 -35
q-4 -22 -17 -36t-49 -44q-41 -34 -58 -54t-24 -50z" />
    <glyph glyph-name="uni1EAA" unicode="&#x1eaa;" horiz-adv-x="1298" 
d="M322 471h501l-141 594zM1180 -10q-101 0 -183 55q-83 51 -118 211l-29 133h-574l-231 -389h-92l811 1352h61l258 -1096q25 -118 64 -163t123 -52l-6 -41q-45 -10 -84 -10zM735 1690h226l122 -236h-102l-145 164l-203 -164h-103zM705 1759h-62q20 105 57 150t101 45
q48 0 104 -43q3 -1 16.5 -9t24 -14t26.5 -11t29 -5q23 0 47 27.5t29 54.5h62q-18 -104 -56 -149.5t-102 -45.5q-19 0 -36 5.5t-27 11.5t-39 24q-59 41 -99 41q-22 0 -46 -27.5t-29 -54.5z" />
    <glyph glyph-name="uni1EAB" unicode="&#x1eab;" 
d="M438 61q79 0 131.5 30t104.5 93l106 594q-39 68 -74 95.5t-100 27.5q-73 0 -133.5 -40.5t-98.5 -103.5t-65 -142t-38 -153t-11 -140q0 -123 44 -192t134 -69zM362 -20q-144 0 -220 95.5t-76 258.5q0 113 32.5 223.5t92.5 202.5t156 153t212 70q169 0 236 -113h10l88 93
h102l-168 -963h-102l-57 92h-11q-107 -112 -295 -112zM596 1300h225l123 -235h-102l-146 164l-202 -164h-103zM565 1370h-61q20 105 57 150t101 45q48 0 104 -43q3 -1 16.5 -9t24 -14t26.5 -11t29 -5q23 0 47 27.5t29 54.5h61q-19 -104 -56 -149.5t-101 -45.5
q-27 0 -45.5 8.5t-57.5 32.5q-59 41 -98 41q-23 0 -47 -27.5t-29 -54.5z" />
    <glyph glyph-name="uni1EAC" unicode="&#x1eac;" horiz-adv-x="1298" 
d="M322 471h501l-141 594zM1180 -10q-101 0 -183 55q-83 51 -118 211l-29 133h-574l-231 -389h-92l811 1352h61l258 -1096q25 -118 64 -163t123 -52l-6 -41q-45 -10 -84 -10zM735 1690h226l122 -236h-102l-145 164l-203 -164h-103zM506 -330q-35 0 -55.5 21.5t-20.5 56.5
q0 41 33 74t76 33q35 0 56 -21.5t21 -54.5q0 -41 -34 -75t-76 -34z" />
    <glyph glyph-name="uni1EAD" unicode="&#x1ead;" 
d="M438 61q79 0 131.5 30t104.5 93l106 594q-39 68 -74 95.5t-100 27.5q-73 0 -133.5 -40.5t-98.5 -103.5t-65 -142t-38 -153t-11 -140q0 -123 44 -192t134 -69zM362 -20q-144 0 -220 95.5t-76 258.5q0 113 32.5 223.5t92.5 202.5t156 153t212 70q169 0 236 -113h10l88 93
h102l-168 -963h-102l-57 92h-11q-107 -112 -295 -112zM596 1300h225l123 -235h-102l-146 164l-202 -164h-103zM395 -330q-35 0 -55.5 21.5t-20.5 56.5q0 41 33 74t76 33q35 0 56.5 -21.5t21.5 -54.5q0 -41 -34 -75t-77 -34z" />
    <glyph glyph-name="uni1EAE" unicode="&#x1eae;" horiz-adv-x="1298" 
d="M322 471h501l-141 594zM1180 -10q-101 0 -183 55q-83 51 -118 211l-29 133h-574l-231 -389h-92l811 1352h61l258 -1096q25 -118 64 -163t123 -52l-6 -41q-45 -10 -84 -10zM809 1456q-170 0 -238 164l47 31q37 -43 84.5 -62.5t126.5 -19.5q80 0 135.5 20t104.5 62l35 -31
q-117 -164 -295 -164zM1157 1933l-258 -235h-102l186 235h174z" />
    <glyph glyph-name="uni1EAF" unicode="&#x1eaf;" 
d="M438 61q79 0 131.5 30t104.5 93l106 594q-39 68 -74 95.5t-100 27.5q-73 0 -133.5 -40.5t-98.5 -103.5t-65 -142t-38 -153t-11 -140q0 -123 44 -192t134 -69zM362 -20q-144 0 -220 95.5t-76 258.5q0 113 32.5 223.5t92.5 202.5t156 153t212 70q169 0 236 -113h10l88 93
h102l-168 -963h-102l-57 92h-11q-107 -112 -295 -112zM670 1067q-170 0 -238 164l47 31q37 -43 84.5 -62.5t126.5 -19.5q80 0 135.5 20t104.5 62l35 -31q-117 -164 -295 -164zM1018 1544l-258 -235h-103l187 235h174z" />
    <glyph glyph-name="uni1EB0" unicode="&#x1eb0;" horiz-adv-x="1298" 
d="M322 471h501l-141 594zM1180 -10q-101 0 -183 55q-83 51 -118 211l-29 133h-574l-231 -389h-92l811 1352h61l258 -1096q25 -118 64 -163t123 -52l-6 -41q-45 -10 -84 -10zM858 1954l35 -266h-82l-147 266h194zM809 1456q-170 0 -238 164l47 31q37 -43 84.5 -62.5
t126.5 -19.5q80 0 135.5 20t104.5 62l35 -31q-117 -164 -295 -164z" />
    <glyph glyph-name="uni1EB1" unicode="&#x1eb1;" 
d="M438 61q79 0 131.5 30t104.5 93l106 594q-39 68 -74 95.5t-100 27.5q-73 0 -133.5 -40.5t-98.5 -103.5t-65 -142t-38 -153t-11 -140q0 -123 44 -192t134 -69zM362 -20q-144 0 -220 95.5t-76 258.5q0 113 32.5 223.5t92.5 202.5t156 153t212 70q169 0 236 -113h10l88 93
h102l-168 -963h-102l-57 92h-11q-107 -112 -295 -112zM719 1565l35 -267h-82l-148 267h195zM670 1067q-170 0 -238 164l47 31q37 -43 84.5 -62.5t126.5 -19.5q80 0 135.5 20t104.5 62l35 -31q-117 -164 -295 -164z" />
    <glyph glyph-name="uni1EB2" unicode="&#x1eb2;" horiz-adv-x="1298" 
d="M322 471h501l-141 594zM1180 -10q-101 0 -183 55q-83 51 -118 211l-29 133h-574l-231 -389h-92l811 1352h61l258 -1096q25 -118 64 -163t123 -52l-6 -41q-45 -10 -84 -10zM809 1456q-170 0 -238 164l47 31q37 -43 84.5 -62.5t126.5 -19.5q80 0 135.5 20t104.5 62l35 -31
q-117 -164 -295 -164zM868 1683h-63q7 34 20 56.5t47 64.5q43 54 43 92q0 54 -55 54q-42 0 -69 -23t-50 -80l-84 2q12 80 73 128t144 48q63 0 104.5 -32t41.5 -90q0 -3 -4 -35q-4 -22 -17 -36t-49 -44q-40 -33 -57.5 -54t-24.5 -51z" />
    <glyph glyph-name="uni1EB3" unicode="&#x1eb3;" 
d="M438 61q79 0 131.5 30t104.5 93l106 594q-39 68 -74 95.5t-100 27.5q-73 0 -133.5 -40.5t-98.5 -103.5t-65 -142t-38 -153t-11 -140q0 -123 44 -192t134 -69zM362 -20q-144 0 -220 95.5t-76 258.5q0 113 32.5 223.5t92.5 202.5t156 153t212 70q169 0 236 -113h10l88 93
h102l-168 -963h-102l-57 92h-11q-107 -112 -295 -112zM670 1067q-170 0 -238 164l47 31q37 -43 84.5 -62.5t126.5 -19.5q80 0 135.5 20t104.5 62l35 -31q-117 -164 -295 -164zM729 1294h-63q7 34 20 56.5t47 64.5q43 54 43 92q0 54 -55 54q-42 0 -69 -23t-50 -80l-84 2
q12 80 73 128t144 48q63 0 104.5 -32.5t41.5 -90.5q0 -2 -4 -34q-4 -22 -17 -36t-49 -44q-40 -33 -57.5 -54t-24.5 -51z" />
    <glyph glyph-name="uni1EB4" unicode="&#x1eb4;" horiz-adv-x="1298" 
d="M322 471h501l-141 594zM1180 -10q-101 0 -183 55q-83 51 -118 211l-29 133h-574l-231 -389h-92l811 1352h61l258 -1096q25 -118 64 -163t123 -52l-6 -41q-45 -10 -84 -10zM809 1456q-170 0 -238 164l47 31q37 -43 84.5 -62.5t126.5 -19.5q80 0 135.5 20t104.5 62l35 -31
q-117 -164 -295 -164zM696 1731h-61q20 105 57 149.5t101 44.5q48 0 104 -43q3 -1 16.5 -9t24 -14t26.5 -11t29 -5q23 0 47 27.5t29 54.5h61q-18 -104 -55.5 -149t-101.5 -45q-27 0 -45.5 8.5t-57.5 32.5q-58 40 -98 40q-23 0 -47 -27t-29 -54z" />
    <glyph glyph-name="uni1EB5" unicode="&#x1eb5;" 
d="M438 61q79 0 131.5 30t104.5 93l106 594q-39 68 -74 95.5t-100 27.5q-73 0 -133.5 -40.5t-98.5 -103.5t-65 -142t-38 -153t-11 -140q0 -123 44 -192t134 -69zM362 -20q-144 0 -220 95.5t-76 258.5q0 113 32.5 223.5t92.5 202.5t156 153t212 70q169 0 236 -113h10l88 93
h102l-168 -963h-102l-57 92h-11q-107 -112 -295 -112zM670 1067q-170 0 -238 164l47 31q37 -43 84.5 -62.5t126.5 -19.5q80 0 135.5 20t104.5 62l35 -31q-117 -164 -295 -164zM557 1341h-61q20 105 57 150t100 45q49 0 105 -43q3 -1 16.5 -9t24 -14t26.5 -11t29 -5
q23 0 47 27.5t29 54.5h61q-19 -104 -56 -149.5t-101 -45.5q-27 0 -45.5 8.5t-57.5 32.5q-59 41 -98 41q-23 0 -47 -27.5t-29 -54.5z" />
    <glyph glyph-name="uni1EB6" unicode="&#x1eb6;" horiz-adv-x="1298" 
d="M322 471h501l-141 594zM1180 -10q-101 0 -183 55q-83 51 -118 211l-29 133h-574l-231 -389h-92l811 1352h61l258 -1096q25 -118 64 -163t123 -52l-6 -41q-45 -10 -84 -10zM809 1456q-170 0 -238 164l47 31q37 -43 84.5 -62.5t126.5 -19.5q80 0 135.5 20t104.5 62l35 -31
q-117 -164 -295 -164zM506 -330q-35 0 -55.5 21.5t-20.5 56.5q0 41 33 74t76 33q35 0 56 -21.5t21 -54.5q0 -41 -34 -75t-76 -34z" />
    <glyph glyph-name="uni1EB7" unicode="&#x1eb7;" 
d="M438 61q79 0 131.5 30t104.5 93l106 594q-39 68 -74 95.5t-100 27.5q-73 0 -133.5 -40.5t-98.5 -103.5t-65 -142t-38 -153t-11 -140q0 -123 44 -192t134 -69zM362 -20q-144 0 -220 95.5t-76 258.5q0 113 32.5 223.5t92.5 202.5t156 153t212 70q169 0 236 -113h10l88 93
h102l-168 -963h-102l-57 92h-11q-107 -112 -295 -112zM670 1067q-170 0 -238 164l47 31q37 -43 84.5 -62.5t126.5 -19.5q80 0 135.5 20t104.5 62l35 -31q-117 -164 -295 -164zM395 -330q-35 0 -55.5 21.5t-20.5 56.5q0 41 33 74t76 33q35 0 56.5 -21.5t21.5 -54.5
q0 -41 -34 -75t-77 -34z" />
    <glyph glyph-name="uni1EB8" unicode="&#x1eb8;" horiz-adv-x="1214" 
d="M123 0l123 713q20 117 51 295q29 182 29 186q0 59 -27.5 88t-89.5 29h-41l8 41h873q149 0 149 -119q0 -9 -8 -53l-23 -146h-41q7 40 7 62q0 174 -222 174h-381l-94 -533h553l-14 -82h-553l-100 -573h358q142 0 231 51.5t156 173.5l39 -10l-107 -195q-53 -102 -170 -102
h-706zM465 -330q-35 0 -55.5 21.5t-20.5 56.5q0 41 33 74t76 33q35 0 56 -21.5t21 -54.5q0 -41 -33.5 -75t-76.5 -34z" />
    <glyph glyph-name="uni1EB9" unicode="&#x1eb9;" horiz-adv-x="997" 
d="M274 492h236q101 5 167 75t66 178q0 74 -42 115t-119 41q-109 0 -191 -108.5t-117 -300.5zM420 -20q-169 0 -261.5 101.5t-92.5 272.5q0 92 23 182.5t69 171t108.5 142t148 97.5t181.5 36q168 0 255 -62.5t87 -170.5q0 -104 -61 -182.5t-158.5 -118t-212.5 -39.5h-246
q-8 -36 -8 -84q0 -118 59.5 -191.5t163.5 -73.5q94 0 167.5 39.5t148.5 124.5l34 -30q-86 -114 -183.5 -164.5t-221.5 -50.5zM356 -330q-35 0 -55 21t-20 57q0 42 32.5 74.5t75.5 32.5q35 0 56.5 -21.5t21.5 -54.5q0 -41 -34 -75t-77 -34z" />
    <glyph glyph-name="uni1EBA" unicode="&#x1eba;" horiz-adv-x="1214" 
d="M840 1456h-64q7 34 20 56t48 65q43 54 43 92q0 53 -56 53q-42 0 -68.5 -23t-49.5 -79l-84 2q12 80 73 128t144 48q63 0 104 -32.5t41 -90.5q0 -3 -4 -35q-4 -22 -16.5 -35.5t-48.5 -43.5q-40 -33 -57.5 -54t-24.5 -51zM123 0l123 713q20 117 51 295q29 182 29 186
q0 59 -27.5 88t-89.5 29h-41l8 41h873q149 0 149 -119q0 -9 -8 -53l-23 -146h-41q7 40 7 62q0 174 -222 174h-381l-94 -533h553l-14 -82h-553l-100 -573h358q142 0 231 51.5t156 173.5l39 -10l-107 -195q-53 -102 -170 -102h-706z" />
    <glyph glyph-name="uni1EBB" unicode="&#x1ebb;" horiz-adv-x="997" 
d="M274 492h236q101 5 167 75t66 178q0 74 -42 115t-119 41q-109 0 -191 -108.5t-117 -300.5zM420 -20q-169 0 -261.5 101.5t-92.5 272.5q0 92 23 182.5t69 171t108.5 142t148 97.5t181.5 36q168 0 255 -62.5t87 -170.5q0 -104 -61 -182.5t-158.5 -118t-212.5 -39.5h-246
q-8 -36 -8 -84q0 -118 59.5 -191.5t163.5 -73.5q94 0 167.5 39.5t148.5 124.5l34 -30q-86 -114 -183.5 -164.5t-221.5 -50.5zM702 1067h-63q7 34 20 56t48 65q43 54 43 92q0 53 -56 53q-42 0 -69 -23t-50 -79l-83 2q12 80 73 128t144 48q63 0 104 -32.5t41 -90.5
q0 -3 -4 -35q-4 -22 -17 -36t-49 -44q-41 -34 -58 -54t-24 -50z" />
    <glyph glyph-name="uni1EBC" unicode="&#x1ebc;" horiz-adv-x="1214" 
d="M604 1536h-61q20 105 57 150t100 45q49 0 105 -43q3 -1 16.5 -9t24 -14t26.5 -11t29 -5q23 0 47 27.5t29 54.5h61q-19 -104 -56 -149.5t-101 -45.5q-27 0 -45.5 8.5t-57.5 32.5q-59 41 -98 41q-23 0 -47 -27.5t-29 -54.5zM123 0l123 713q20 117 51 295q29 182 29 186
q0 59 -27.5 88t-89.5 29h-41l8 41h873q149 0 149 -119q0 -9 -8 -53l-23 -146h-41q7 40 7 62q0 174 -222 174h-381l-94 -533h553l-14 -82h-553l-100 -573h358q142 0 231 51.5t156 173.5l39 -10l-107 -195q-53 -102 -170 -102h-706z" />
    <glyph glyph-name="uni1EBD" unicode="&#x1ebd;" horiz-adv-x="997" 
d="M274 492h236q101 5 167 75t66 178q0 74 -42 115t-119 41q-109 0 -191 -108.5t-117 -300.5zM420 -20q-169 0 -261.5 101.5t-92.5 272.5q0 92 23 182.5t69 171t108.5 142t148 97.5t181.5 36q168 0 255 -62.5t87 -170.5q0 -104 -61 -182.5t-158.5 -118t-212.5 -39.5h-246
q-8 -36 -8 -84q0 -118 59.5 -191.5t163.5 -73.5q94 0 167.5 39.5t148.5 124.5l34 -30q-86 -114 -183.5 -164.5t-221.5 -50.5zM467 1147h-61q20 105 56.5 149.5t100.5 44.5q49 0 105 -43q3 -1 16.5 -9t24 -13.5t26.5 -10.5t29 -5q23 0 47 27t29 54h61q-18 -104 -56 -149
t-102 -45q-19 0 -36 5.5t-27 11.5t-39 24q-59 41 -98 41q-23 0 -47 -27.5t-29 -54.5z" />
    <glyph glyph-name="uni1EBE" unicode="&#x1ebe;" horiz-adv-x="1214" 
d="M1155 1583h-102l186 236h174zM592 1454h-103l205 236h226l122 -236h-102l-145 164zM123 0l123 713q20 117 51 295q29 182 29 186q0 59 -27.5 88t-89.5 29h-41l8 41h873q149 0 149 -119q0 -9 -8 -53l-23 -146h-41q7 40 7 62q0 174 -222 174h-381l-94 -533h553l-14 -82
h-553l-100 -573h358q142 0 231 51.5t156 173.5l39 -10l-107 -195q-53 -102 -170 -102h-706z" />
    <glyph glyph-name="uni1EBF" unicode="&#x1ebf;" horiz-adv-x="997" 
d="M274 492h236q101 5 167 75t66 178q0 74 -42 115t-119 41q-109 0 -191 -108.5t-117 -300.5zM420 -20q-169 0 -261.5 101.5t-92.5 272.5q0 92 23 182.5t69 171t108.5 142t148 97.5t181.5 36q168 0 255 -62.5t87 -170.5q0 -104 -61 -182.5t-158.5 -118t-212.5 -39.5h-246
q-8 -36 -8 -84q0 -118 59.5 -191.5t163.5 -73.5q94 0 167.5 39.5t148.5 124.5l34 -30q-86 -114 -183.5 -164.5t-221.5 -50.5zM557 1300h225l123 -235h-102l-146 164l-202 -164h-103zM1276 1430l-258 -236h-103l187 236h174z" />
    <glyph glyph-name="uni1EC0" unicode="&#x1ec0;" horiz-adv-x="1214" 
d="M1167 1616h-82l-147 266h195zM592 1454h-103l205 236h226l122 -236h-102l-145 164zM123 0l123 713q20 117 51 295q29 182 29 186q0 59 -27.5 88t-89.5 29h-41l8 41h873q149 0 149 -119q0 -9 -8 -53l-23 -146h-41q7 40 7 62q0 174 -222 174h-381l-94 -533h553l-14 -82
h-553l-100 -573h358q142 0 231 51.5t156 173.5l39 -10l-107 -195q-53 -102 -170 -102h-706z" />
    <glyph glyph-name="uni1EC1" unicode="&#x1ec1;" horiz-adv-x="997" 
d="M274 492h236q101 5 167 75t66 178q0 74 -42 115t-119 41q-109 0 -191 -108.5t-117 -300.5zM420 -20q-169 0 -261.5 101.5t-92.5 272.5q0 92 23 182.5t69 171t108.5 142t148 97.5t181.5 36q168 0 255 -62.5t87 -170.5q0 -104 -61 -182.5t-158.5 -118t-212.5 -39.5h-246
q-8 -36 -8 -84q0 -118 59.5 -191.5t163.5 -73.5q94 0 167.5 39.5t148.5 124.5l34 -30q-86 -114 -183.5 -164.5t-221.5 -50.5zM557 1300h225l123 -235h-102l-146 164l-202 -164h-103zM995 1493l35 -266h-82l-147 266h194z" />
    <glyph glyph-name="uni1EC2" unicode="&#x1ec2;" horiz-adv-x="1214" 
d="M1141 1626h-64q7 34 20 56t48 65q43 54 43 92q0 53 -55 53q-42 0 -69 -23t-50 -79l-84 2q12 80 73 128t144 48q63 0 104 -32.5t41 -90.5q0 -3 -4 -35q-4 -22 -16.5 -35.5t-48.5 -43.5q-40 -33 -57.5 -54t-24.5 -51zM592 1454h-103l205 236h226l122 -236h-102l-145 164z
M123 0l123 713q20 117 51 295q29 182 29 186q0 59 -27.5 88t-89.5 29h-41l8 41h873q149 0 149 -119q0 -9 -8 -53l-23 -146h-41q7 40 7 62q0 174 -222 174h-381l-94 -533h553l-14 -82h-553l-100 -573h358q142 0 231 51.5t156 173.5l39 -10l-107 -195q-53 -102 -170 -102h-706
z" />
    <glyph glyph-name="uni1EC3" unicode="&#x1ec3;" horiz-adv-x="997" 
d="M274 492h236q101 5 167 75t66 178q0 74 -42 115t-119 41q-109 0 -191 -108.5t-117 -300.5zM420 -20q-169 0 -261.5 101.5t-92.5 272.5q0 92 23 182.5t69 171t108.5 142t148 97.5t181.5 36q168 0 255 -62.5t87 -170.5q0 -104 -61 -182.5t-158.5 -118t-212.5 -39.5h-246
q-8 -36 -8 -84q0 -118 59.5 -191.5t163.5 -73.5q94 0 167.5 39.5t148.5 124.5l34 -30q-86 -114 -183.5 -164.5t-221.5 -50.5zM557 1300h225l123 -235h-102l-146 164l-202 -164h-103zM1004 1237h-64q7 34 20 56t48 65q43 54 43 92q0 53 -56 53q-42 0 -68.5 -23t-49.5 -79
l-84 2q12 80 73 128t144 48q63 0 104 -32.5t41 -90.5q0 -3 -4 -35q-4 -22 -17 -36t-49 -44q-40 -33 -57 -53.5t-24 -50.5z" />
    <glyph glyph-name="uni1EC4" unicode="&#x1ec4;" horiz-adv-x="1214" 
d="M664 1759h-62q20 105 57 150t101 45q48 0 104 -43q3 -1 16.5 -9t24.5 -14t27 -11t29 -5q22 0 46 27.5t29 54.5h62q-18 -104 -56 -149.5t-102 -45.5q-19 0 -36 5.5t-27 11.5t-39 24q-59 41 -99 41q-22 0 -46 -27.5t-29 -54.5zM592 1454h-103l205 236h226l122 -236h-102
l-145 164zM123 0l123 713q20 117 51 295q29 182 29 186q0 59 -27.5 88t-89.5 29h-41l8 41h873q149 0 149 -119q0 -9 -8 -53l-23 -146h-41q7 40 7 62q0 174 -222 174h-381l-94 -533h553l-14 -82h-553l-100 -573h358q142 0 231 51.5t156 173.5l39 -10l-107 -195
q-53 -102 -170 -102h-706z" />
    <glyph glyph-name="uni1EC5" unicode="&#x1ec5;" horiz-adv-x="997" 
d="M274 492h236q101 5 167 75t66 178q0 74 -42 115t-119 41q-109 0 -191 -108.5t-117 -300.5zM420 -20q-169 0 -261.5 101.5t-92.5 272.5q0 92 23 182.5t69 171t108.5 142t148 97.5t181.5 36q168 0 255 -62.5t87 -170.5q0 -104 -61 -182.5t-158.5 -118t-212.5 -39.5h-246
q-8 -36 -8 -84q0 -118 59.5 -191.5t163.5 -73.5q94 0 167.5 39.5t148.5 124.5l34 -30q-86 -114 -183.5 -164.5t-221.5 -50.5zM557 1300h225l123 -235h-102l-146 164l-202 -164h-103zM526 1370h-61q20 105 57 150t101 45q48 0 104 -43q3 -1 16.5 -9t24 -14t26.5 -11t29 -5
q23 0 47 27.5t29 54.5h62q-18 -104 -56 -149.5t-102 -45.5q-27 0 -45.5 8.5t-57.5 32.5q-59 41 -98 41q-23 0 -47 -27.5t-29 -54.5z" />
    <glyph glyph-name="uni1EC6" unicode="&#x1ec6;" horiz-adv-x="1214" 
d="M592 1454h-103l205 236h226l122 -236h-102l-145 164zM123 0l123 713q20 117 51 295q29 182 29 186q0 59 -27.5 88t-89.5 29h-41l8 41h873q149 0 149 -119q0 -9 -8 -53l-23 -146h-41q7 40 7 62q0 174 -222 174h-381l-94 -533h553l-14 -82h-553l-100 -573h358
q142 0 231 51.5t156 173.5l39 -10l-107 -195q-53 -102 -170 -102h-706zM465 -330q-35 0 -55.5 21.5t-20.5 56.5q0 41 33 74t76 33q35 0 56 -21.5t21 -54.5q0 -41 -33.5 -75t-76.5 -34z" />
    <glyph glyph-name="uni1EC7" unicode="&#x1ec7;" horiz-adv-x="997" 
d="M274 492h236q101 5 167 75t66 178q0 74 -42 115t-119 41q-109 0 -191 -108.5t-117 -300.5zM420 -20q-169 0 -261.5 101.5t-92.5 272.5q0 92 23 182.5t69 171t108.5 142t148 97.5t181.5 36q168 0 255 -62.5t87 -170.5q0 -104 -61 -182.5t-158.5 -118t-212.5 -39.5h-246
q-8 -36 -8 -84q0 -118 59.5 -191.5t163.5 -73.5q94 0 167.5 39.5t148.5 124.5l34 -30q-86 -114 -183.5 -164.5t-221.5 -50.5zM557 1300h225l123 -235h-102l-146 164l-202 -164h-103zM356 -330q-35 0 -55 21t-20 57q0 42 32.5 74.5t75.5 32.5q35 0 56.5 -21.5t21.5 -54.5
q0 -41 -34 -75t-77 -34z" />
    <glyph glyph-name="uni1EC8" unicode="&#x1ec8;" horiz-adv-x="591" 
d="M496 1456h-64q7 34 20 56t48 65q43 54 43 92q0 53 -56 53q-42 0 -68.5 -23t-49.5 -79l-84 2q12 80 73 128t144 48q63 0 104 -32.5t41 -90.5q0 -3 -4 -35q-4 -22 -16.5 -35.5t-48.5 -43.5q-40 -33 -57.5 -54t-24.5 -51zM455 0h-185q-87 0 -121 26.5t-34 98.5q0 41 14 121
l195 1106h184l-195 -1106q-10 -72 -10 -92q0 -58 27.5 -85.5t89.5 -27.5h41z" />
    <glyph glyph-name="uni1EC9" unicode="&#x1ec9;" horiz-adv-x="514" 
d="M358 1067h-63q7 34 20 56.5t47 64.5q44 55 44 92q0 53 -56 53q-42 0 -69 -23t-50 -79l-84 2q12 80 73 128t145 48q63 0 104 -32.5t41 -90.5q0 -3 -4 -35q-4 -22 -17 -36t-49 -44q-41 -34 -58 -54t-24 -50zM270 0h-184q19 109 44.5 252.5t40 226.5t22.5 135q28 182 28 195
q0 58 -27.5 85.5t-89.5 27.5h-41l7 41h184q87 0 121.5 -26.5t34.5 -98.5q0 -39 -62 -387z" />
    <glyph glyph-name="uni1ECA" unicode="&#x1eca;" horiz-adv-x="591" 
d="M455 0h-185q-87 0 -121 26.5t-34 98.5q0 41 14 121l195 1106h184l-195 -1106q-10 -72 -10 -92q0 -58 27.5 -85.5t89.5 -27.5h41zM154 -330q-35 0 -55.5 21.5t-20.5 56.5q0 42 33 74.5t75 32.5q35 0 56.5 -21.5t21.5 -54.5q0 -41 -34 -75t-76 -34z" />
    <glyph glyph-name="uni1ECB" unicode="&#x1ecb;" horiz-adv-x="514" 
d="M354 1085q-41 0 -67.5 31t-26.5 76q0 50 31.5 83.5t81.5 33.5q41 0 67.5 -31t26.5 -76q0 -50 -31.5 -83.5t-81.5 -33.5zM270 0h-184q19 109 44.5 252.5t40 226.5t22.5 135q28 182 28 195q0 58 -27.5 85.5t-89.5 27.5h-41l7 41h184q87 0 121.5 -26.5t34.5 -98.5
q0 -39 -62 -387zM115 -330q-35 0 -55.5 21.5t-20.5 56.5q0 42 32.5 74.5t75.5 32.5q35 0 56.5 -21.5t21.5 -54.5q0 -41 -33.5 -75t-76.5 -34z" />
    <glyph glyph-name="uni1ECC" unicode="&#x1ecc;" horiz-adv-x="1458" 
d="M635 41q95 0 178.5 39t143 105.5t106.5 150.5t75.5 178.5t43 185t14.5 174.5q0 208 -87.5 322.5t-250.5 114.5q-96 0 -179 -39.5t-142.5 -106t-106.5 -151.5t-75 -180t-42 -186t-14 -175q0 -208 86.5 -320t249.5 -112zM621 -41q-162 0 -281.5 72t-180.5 196.5t-61 286.5
q0 128 36 255.5t105 239t161.5 198t215 136.5t256.5 50q244 0 384.5 -154.5t140.5 -404.5q0 -161 -57.5 -318t-157.5 -280.5t-247.5 -200t-313.5 -76.5zM586 -330q-35 0 -55.5 21.5t-20.5 56.5q0 42 33 74.5t75 32.5q35 0 56.5 -21.5t21.5 -54.5q0 -41 -34 -75t-76 -34z" />
    <glyph glyph-name="uni1ECD" unicode="&#x1ecd;" horiz-adv-x="1083" 
d="M453 61q56 0 105.5 27t86 72t66 101.5t47.5 118t27.5 120t9.5 108.5q0 132 -52 212.5t-143 80.5q-81 0 -149 -57.5t-108.5 -144t-62.5 -178t-22 -167.5q0 -132 52 -212.5t143 -80.5zM438 -20q-175 0 -273.5 106t-98.5 281q0 92 25.5 182t74.5 167.5t115 137.5t152 94.5
t181 34.5q175 0 274 -106t99 -281q0 -154 -68.5 -294t-196.5 -231t-284 -91zM399 -330q-35 0 -55 21t-20 57q0 42 33 74.5t75 32.5q35 0 56.5 -21.5t21.5 -54.5q0 -41 -34 -75t-77 -34z" />
    <glyph glyph-name="uni1ECE" unicode="&#x1ece;" horiz-adv-x="1458" 
d="M635 41q95 0 178.5 39t143 105.5t106.5 150.5t75.5 178.5t43 185t14.5 174.5q0 208 -87.5 322.5t-250.5 114.5q-96 0 -179 -39.5t-142.5 -106t-106.5 -151.5t-75 -180t-42 -186t-14 -175q0 -208 86.5 -320t249.5 -112zM621 -41q-162 0 -281.5 72t-180.5 196.5t-61 286.5
q0 128 36 255.5t105 239t161.5 198t215 136.5t256.5 50q244 0 384.5 -154.5t140.5 -404.5q0 -161 -57.5 -318t-157.5 -280.5t-247.5 -200t-313.5 -76.5zM961 1456h-64q7 34 20 56t48 65q43 54 43 92q0 53 -56 53q-42 0 -68.5 -23t-49.5 -79l-84 2q12 80 73 128t144 48
q63 0 104 -32.5t41 -90.5q0 -3 -4 -35q-3 -15 -11.5 -27.5t-18 -21t-36.5 -30.5q-39 -33 -56.5 -54t-24.5 -51z" />
    <glyph glyph-name="uni1ECF" unicode="&#x1ecf;" horiz-adv-x="1083" 
d="M453 61q56 0 105.5 27t86 72t66 101.5t47.5 118t27.5 120t9.5 108.5q0 132 -52 212.5t-143 80.5q-81 0 -149 -57.5t-108.5 -144t-62.5 -178t-22 -167.5q0 -132 52 -212.5t143 -80.5zM438 -20q-175 0 -273.5 106t-98.5 281q0 92 25.5 182t74.5 167.5t115 137.5t152 94.5
t181 34.5q175 0 274 -106t99 -281q0 -154 -68.5 -294t-196.5 -231t-284 -91zM705 1067h-64q7 34 20 56t48 65q43 54 43 92q0 53 -56 53q-42 0 -68.5 -23t-49.5 -79l-84 2q12 80 73 128t144 48q63 0 104 -32.5t41 -90.5q0 -3 -4 -35q-4 -22 -17 -36t-49 -44
q-40 -33 -57 -53.5t-24 -50.5z" />
    <glyph glyph-name="uni1ED0" unicode="&#x1ed0;" horiz-adv-x="1458" 
d="M635 41q95 0 178.5 39t143 105.5t106.5 150.5t75.5 178.5t43 185t14.5 174.5q0 208 -87.5 322.5t-250.5 114.5q-96 0 -179 -39.5t-142.5 -106t-106.5 -151.5t-75 -180t-42 -186t-14 -175q0 -208 86.5 -320t249.5 -112zM621 -41q-162 0 -281.5 72t-180.5 196.5t-61 286.5
q0 128 36 255.5t105 239t161.5 198t215 136.5t256.5 50q244 0 384.5 -154.5t140.5 -404.5q0 -161 -57.5 -318t-157.5 -280.5t-247.5 -200t-313.5 -76.5zM815 1690h225l123 -236h-102l-146 164l-202 -164h-103zM1534 1819l-258 -236h-102l186 236h174z" />
    <glyph glyph-name="uni1ED1" unicode="&#x1ed1;" horiz-adv-x="1083" 
d="M453 61q56 0 105.5 27t86 72t66 101.5t47.5 118t27.5 120t9.5 108.5q0 132 -52 212.5t-143 80.5q-81 0 -149 -57.5t-108.5 -144t-62.5 -178t-22 -167.5q0 -132 52 -212.5t143 -80.5zM438 -20q-175 0 -273.5 106t-98.5 281q0 92 25.5 182t74.5 167.5t115 137.5t152 94.5
t181 34.5q175 0 274 -106t99 -281q0 -154 -68.5 -294t-196.5 -231t-284 -91zM559 1300h225l123 -235h-102l-146 164l-202 -164h-103zM1278 1430l-258 -236h-102l186 236h174z" />
    <glyph glyph-name="uni1ED2" unicode="&#x1ed2;" horiz-adv-x="1458" 
d="M635 41q95 0 178.5 39t143 105.5t106.5 150.5t75.5 178.5t43 185t14.5 174.5q0 208 -87.5 322.5t-250.5 114.5q-96 0 -179 -39.5t-142.5 -106t-106.5 -151.5t-75 -180t-42 -186t-14 -175q0 -208 86.5 -320t249.5 -112zM621 -41q-162 0 -281.5 72t-180.5 196.5t-61 286.5
q0 128 36 255.5t105 239t161.5 198t215 136.5t256.5 50q244 0 384.5 -154.5t140.5 -404.5q0 -161 -57.5 -318t-157.5 -280.5t-247.5 -200t-313.5 -76.5zM815 1690h225l123 -236h-102l-146 164l-202 -164h-103zM1253 1882l35 -266h-82l-147 266h194z" />
    <glyph glyph-name="uni1ED3" unicode="&#x1ed3;" horiz-adv-x="1083" 
d="M453 61q56 0 105.5 27t86 72t66 101.5t47.5 118t27.5 120t9.5 108.5q0 132 -52 212.5t-143 80.5q-81 0 -149 -57.5t-108.5 -144t-62.5 -178t-22 -167.5q0 -132 52 -212.5t143 -80.5zM438 -20q-175 0 -273.5 106t-98.5 281q0 92 25.5 182t74.5 167.5t115 137.5t152 94.5
t181 34.5q175 0 274 -106t99 -281q0 -154 -68.5 -294t-196.5 -231t-284 -91zM559 1300h225l123 -235h-102l-146 164l-202 -164h-103zM997 1493l35 -266h-82l-147 266h194z" />
    <glyph glyph-name="uni1ED4" unicode="&#x1ed4;" horiz-adv-x="1458" 
d="M635 41q95 0 178.5 39t143 105.5t106.5 150.5t75.5 178.5t43 185t14.5 174.5q0 208 -87.5 322.5t-250.5 114.5q-96 0 -179 -39.5t-142.5 -106t-106.5 -151.5t-75 -180t-42 -186t-14 -175q0 -208 86.5 -320t249.5 -112zM621 -41q-162 0 -281.5 72t-180.5 196.5t-61 286.5
q0 128 36 255.5t105 239t161.5 198t215 136.5t256.5 50q244 0 384.5 -154.5t140.5 -404.5q0 -161 -57.5 -318t-157.5 -280.5t-247.5 -200t-313.5 -76.5zM815 1690h225l123 -236h-102l-146 164l-202 -164h-103zM1262 1626h-64q7 34 20 56t48 65q43 54 43 92q0 53 -56 53
q-42 0 -68.5 -23t-49.5 -79l-84 2q12 80 73 128t144 48q63 0 104 -32.5t41 -90.5q0 -3 -4 -35q-3 -15 -11.5 -27.5t-18 -21t-36.5 -30.5q-39 -33 -56.5 -54t-24.5 -51z" />
    <glyph glyph-name="uni1ED5" unicode="&#x1ed5;" horiz-adv-x="1083" 
d="M453 61q56 0 105.5 27t86 72t66 101.5t47.5 118t27.5 120t9.5 108.5q0 132 -52 212.5t-143 80.5q-81 0 -149 -57.5t-108.5 -144t-62.5 -178t-22 -167.5q0 -132 52 -212.5t143 -80.5zM438 -20q-175 0 -273.5 106t-98.5 281q0 92 25.5 182t74.5 167.5t115 137.5t152 94.5
t181 34.5q175 0 274 -106t99 -281q0 -154 -68.5 -294t-196.5 -231t-284 -91zM559 1300h225l123 -235h-102l-146 164l-202 -164h-103zM1006 1237h-64q7 34 20 56t48 65q43 54 43 92q0 53 -56 53q-42 0 -68.5 -23t-49.5 -79l-84 2q12 80 73 128t144 48q63 0 104 -32.5
t41 -90.5q0 -3 -4 -35q-4 -22 -17 -36t-49 -44q-40 -33 -57 -53.5t-24 -50.5z" />
    <glyph glyph-name="uni1ED6" unicode="&#x1ed6;" horiz-adv-x="1458" 
d="M635 41q95 0 178.5 39t143 105.5t106.5 150.5t75.5 178.5t43 185t14.5 174.5q0 208 -87.5 322.5t-250.5 114.5q-96 0 -179 -39.5t-142.5 -106t-106.5 -151.5t-75 -180t-42 -186t-14 -175q0 -208 86.5 -320t249.5 -112zM621 -41q-162 0 -281.5 72t-180.5 196.5t-61 286.5
q0 128 36 255.5t105 239t161.5 198t215 136.5t256.5 50q244 0 384.5 -154.5t140.5 -404.5q0 -161 -57.5 -318t-157.5 -280.5t-247.5 -200t-313.5 -76.5zM815 1690h225l123 -236h-102l-146 164l-202 -164h-103zM784 1759h-61q20 105 57 150t101 45q48 0 104 -43q3 -1 16.5 -9
t24 -14t26.5 -11t29 -5q23 0 47 27.5t29 54.5h62q-18 -104 -56 -149.5t-102 -45.5q-27 0 -45.5 8.5t-57.5 32.5q-59 41 -98 41q-23 0 -47 -27.5t-29 -54.5z" />
    <glyph glyph-name="uni1ED7" unicode="&#x1ed7;" horiz-adv-x="1083" 
d="M453 61q56 0 105.5 27t86 72t66 101.5t47.5 118t27.5 120t9.5 108.5q0 132 -52 212.5t-143 80.5q-81 0 -149 -57.5t-108.5 -144t-62.5 -178t-22 -167.5q0 -132 52 -212.5t143 -80.5zM438 -20q-175 0 -273.5 106t-98.5 281q0 92 25.5 182t74.5 167.5t115 137.5t152 94.5
t181 34.5q175 0 274 -106t99 -281q0 -154 -68.5 -294t-196.5 -231t-284 -91zM559 1300h225l123 -235h-102l-146 164l-202 -164h-103zM528 1370h-61q20 105 57 150t101 45q48 0 104 -43q3 -1 16.5 -9t24 -14t26.5 -11t29 -5q23 0 47 27.5t29 54.5h62q-18 -104 -56 -149.5
t-102 -45.5q-27 0 -45.5 8.5t-57.5 32.5q-59 41 -98 41q-23 0 -47 -27.5t-29 -54.5z" />
    <glyph glyph-name="uni1ED8" unicode="&#x1ed8;" horiz-adv-x="1458" 
d="M635 41q95 0 178.5 39t143 105.5t106.5 150.5t75.5 178.5t43 185t14.5 174.5q0 208 -87.5 322.5t-250.5 114.5q-96 0 -179 -39.5t-142.5 -106t-106.5 -151.5t-75 -180t-42 -186t-14 -175q0 -208 86.5 -320t249.5 -112zM621 -41q-162 0 -281.5 72t-180.5 196.5t-61 286.5
q0 128 36 255.5t105 239t161.5 198t215 136.5t256.5 50q244 0 384.5 -154.5t140.5 -404.5q0 -161 -57.5 -318t-157.5 -280.5t-247.5 -200t-313.5 -76.5zM815 1690h225l123 -236h-102l-146 164l-202 -164h-103zM586 -330q-35 0 -55.5 21.5t-20.5 56.5q0 42 33 74.5t75 32.5
q35 0 56.5 -21.5t21.5 -54.5q0 -41 -34 -75t-76 -34z" />
    <glyph glyph-name="uni1ED9" unicode="&#x1ed9;" horiz-adv-x="1083" 
d="M453 61q56 0 105.5 27t86 72t66 101.5t47.5 118t27.5 120t9.5 108.5q0 132 -52 212.5t-143 80.5q-81 0 -149 -57.5t-108.5 -144t-62.5 -178t-22 -167.5q0 -132 52 -212.5t143 -80.5zM438 -20q-175 0 -273.5 106t-98.5 281q0 92 25.5 182t74.5 167.5t115 137.5t152 94.5
t181 34.5q175 0 274 -106t99 -281q0 -154 -68.5 -294t-196.5 -231t-284 -91zM559 1300h225l123 -235h-102l-146 164l-202 -164h-103zM399 -330q-35 0 -55 21t-20 57q0 42 33 74.5t75 32.5q35 0 56.5 -21.5t21.5 -54.5q0 -41 -34 -75t-77 -34z" />
    <glyph glyph-name="uni1EDA" unicode="&#x1eda;" horiz-adv-x="1458" 
d="M635 41q95 0 178.5 39t143 105.5t106.5 150.5t75.5 178.5t43 185t14.5 174.5q0 208 -87.5 322.5t-250.5 114.5q-96 0 -179 -39.5t-142.5 -106t-106.5 -151.5t-75 -180t-42 -186t-14 -175q0 -208 86.5 -320t249.5 -112zM621 -41q-162 0 -281.5 72t-180.5 196.5t-61 286.5
q0 128 36 255.5t105 239t161.5 198t215 136.5t256.5 50q186 0 320 -97q92 4 153.5 64t81.5 149h117q-46 -232 -297 -262q150 -156 150 -413q0 -161 -57.5 -318t-157.5 -280.5t-247.5 -200t-313.5 -76.5zM825 1495l187 236h174l-258 -236h-103z" />
    <glyph glyph-name="uni1EDB" unicode="&#x1edb;" horiz-adv-x="1083" 
d="M453 61q56 0 105.5 27t86 72t66 101.5t47.5 118t27.5 120t9.5 108.5q0 132 -52 212.5t-143 80.5q-81 0 -149 -57.5t-108.5 -144t-62.5 -178t-22 -167.5q0 -132 52 -212.5t143 -80.5zM961 1176h116q-41 -206 -243 -252q75 -49 114 -134t39 -194q0 -154 -68.5 -294
t-196.5 -231t-284 -91q-175 0 -273.5 106t-98.5 281q0 92 25.5 182t74.5 167.5t115 137.5t152 94.5t181 34.5q72 0 131 -18q84 12 141 70.5t75 140.5zM930 1341l-258 -235h-103l187 235h174z" />
    <glyph glyph-name="uni1EDC" unicode="&#x1edc;" horiz-adv-x="1458" 
d="M635 41q95 0 178.5 39t143 105.5t106.5 150.5t75.5 178.5t43 185t14.5 174.5q0 208 -87.5 322.5t-250.5 114.5q-96 0 -179 -39.5t-142.5 -106t-106.5 -151.5t-75 -180t-42 -186t-14 -175q0 -208 86.5 -320t249.5 -112zM621 -41q-162 0 -281.5 72t-180.5 196.5t-61 286.5
q0 128 36 255.5t105 239t161.5 198t215 136.5t256.5 50q186 0 320 -97q92 4 153.5 64t81.5 149h117q-46 -232 -297 -262q150 -156 150 -413q0 -161 -57.5 -318t-157.5 -280.5t-247.5 -200t-313.5 -76.5zM840 1464l-148 267h195l35 -267h-82z" />
    <glyph glyph-name="uni1EDD" unicode="&#x1edd;" horiz-adv-x="1083" 
d="M453 61q56 0 105.5 27t86 72t66 101.5t47.5 118t27.5 120t9.5 108.5q0 132 -52 212.5t-143 80.5q-81 0 -149 -57.5t-108.5 -144t-62.5 -178t-22 -167.5q0 -132 52 -212.5t143 -80.5zM961 1176h116q-41 -206 -243 -252q75 -49 114 -134t39 -194q0 -154 -68.5 -294
t-196.5 -231t-284 -91q-175 0 -273.5 106t-98.5 281q0 92 25.5 182t74.5 167.5t115 137.5t152 94.5t181 34.5q72 0 131 -18q84 12 141 70.5t75 140.5zM631 1341l35 -266h-82l-148 266h195z" />
    <glyph glyph-name="uni1EDE" unicode="&#x1ede;" horiz-adv-x="1458" 
d="M635 41q95 0 178.5 39t143 105.5t106.5 150.5t75.5 178.5t43 185t14.5 174.5q0 208 -87.5 322.5t-250.5 114.5q-96 0 -179 -39.5t-142.5 -106t-106.5 -151.5t-75 -180t-42 -186t-14 -175q0 -208 86.5 -320t249.5 -112zM621 -41q-162 0 -281.5 72t-180.5 196.5t-61 286.5
q0 128 36 255.5t105 239t161.5 198t215 136.5t256.5 50q186 0 320 -97q92 4 153.5 64t81.5 149h117q-46 -232 -297 -262q150 -156 150 -413q0 -161 -57.5 -318t-157.5 -280.5t-247.5 -200t-313.5 -76.5zM961 1456h-64q7 34 20 56t48 65q43 54 43 92q0 53 -56 53
q-42 0 -68.5 -23t-49.5 -79l-84 2q12 80 73 128t144 48q63 0 104 -32.5t41 -90.5q0 -3 -4 -35q-3 -15 -11.5 -27.5t-18 -21t-36.5 -30.5q-39 -33 -56.5 -54t-24.5 -51z" />
    <glyph glyph-name="uni1EDF" unicode="&#x1edf;" horiz-adv-x="1083" 
d="M453 61q56 0 105.5 27t86 72t66 101.5t47.5 118t27.5 120t9.5 108.5q0 132 -52 212.5t-143 80.5q-81 0 -149 -57.5t-108.5 -144t-62.5 -178t-22 -167.5q0 -132 52 -212.5t143 -80.5zM961 1176h116q-41 -206 -243 -252q75 -49 114 -134t39 -194q0 -154 -68.5 -294
t-196.5 -231t-284 -91q-175 0 -273.5 106t-98.5 281q0 92 25.5 182t74.5 167.5t115 137.5t152 94.5t181 34.5q72 0 131 -18q84 12 141 70.5t75 140.5zM705 1067h-64q7 34 20 56t48 65q43 54 43 92q0 53 -56 53q-42 0 -68.5 -23t-49.5 -79l-84 2q12 80 73 128t144 48
q63 0 104 -32.5t41 -90.5q0 -3 -4 -35q-4 -22 -17 -36t-49 -44q-40 -33 -57 -53.5t-24 -50.5z" />
    <glyph glyph-name="uni1EE0" unicode="&#x1ee0;" horiz-adv-x="1458" 
d="M635 41q95 0 178.5 39t143 105.5t106.5 150.5t75.5 178.5t43 185t14.5 174.5q0 208 -87.5 322.5t-250.5 114.5q-96 0 -179 -39.5t-142.5 -106t-106.5 -151.5t-75 -180t-42 -186t-14 -175q0 -208 86.5 -320t249.5 -112zM621 -41q-162 0 -281.5 72t-180.5 196.5t-61 286.5
q0 128 36 255.5t105 239t161.5 198t215 136.5t256.5 50q186 0 320 -97q92 4 153.5 64t81.5 149h117q-46 -232 -297 -262q150 -156 150 -413q0 -161 -57.5 -318t-157.5 -280.5t-247.5 -200t-313.5 -76.5zM725 1536h-61q20 105 57 150t100 45q49 0 105 -43q3 -1 16.5 -9
t24 -14t26.5 -11t29 -5q23 0 47 27.5t29 54.5h61q-18 -104 -56 -149.5t-102 -45.5q-19 0 -36 5.5t-27 11.5t-39 24q-59 41 -98 41q-23 0 -47 -27.5t-29 -54.5z" />
    <glyph glyph-name="uni1EE1" unicode="&#x1ee1;" horiz-adv-x="1083" 
d="M453 61q56 0 105.5 27t86 72t66 101.5t47.5 118t27.5 120t9.5 108.5q0 132 -52 212.5t-143 80.5q-81 0 -149 -57.5t-108.5 -144t-62.5 -178t-22 -167.5q0 -132 52 -212.5t143 -80.5zM961 1176h116q-41 -206 -243 -252q75 -49 114 -134t39 -194q0 -154 -68.5 -294
t-196.5 -231t-284 -91q-175 0 -273.5 106t-98.5 281q0 92 25.5 182t74.5 167.5t115 137.5t152 94.5t181 34.5q72 0 131 -18q84 12 141 70.5t75 140.5zM469 1147h-61q20 105 56.5 149.5t100.5 44.5q49 0 105 -43q3 -1 16.5 -9t24 -13.5t26.5 -10.5t29 -5q23 0 47 27t29 54h61
q-18 -104 -56 -149t-102 -45q-19 0 -36 5.5t-27 11.5t-39 24q-59 41 -98 41q-23 0 -47 -27.5t-29 -54.5z" />
    <glyph glyph-name="uni1EE2" unicode="&#x1ee2;" horiz-adv-x="1458" 
d="M635 41q95 0 178.5 39t143 105.5t106.5 150.5t75.5 178.5t43 185t14.5 174.5q0 208 -87.5 322.5t-250.5 114.5q-96 0 -179 -39.5t-142.5 -106t-106.5 -151.5t-75 -180t-42 -186t-14 -175q0 -208 86.5 -320t249.5 -112zM621 -41q-162 0 -281.5 72t-180.5 196.5t-61 286.5
q0 128 36 255.5t105 239t161.5 198t215 136.5t256.5 50q186 0 320 -97q92 4 153.5 64t81.5 149h117q-46 -232 -297 -262q150 -156 150 -413q0 -161 -57.5 -318t-157.5 -280.5t-247.5 -200t-313.5 -76.5zM586 -330q-35 0 -55.5 21.5t-20.5 56.5q0 42 33 74.5t75 32.5
q35 0 56.5 -21.5t21.5 -54.5q0 -41 -34 -75t-76 -34z" />
    <glyph glyph-name="uni1EE3" unicode="&#x1ee3;" horiz-adv-x="1083" 
d="M453 61q56 0 105.5 27t86 72t66 101.5t47.5 118t27.5 120t9.5 108.5q0 132 -52 212.5t-143 80.5q-81 0 -149 -57.5t-108.5 -144t-62.5 -178t-22 -167.5q0 -132 52 -212.5t143 -80.5zM961 1176h116q-41 -206 -243 -252q75 -49 114 -134t39 -194q0 -154 -68.5 -294
t-196.5 -231t-284 -91q-175 0 -273.5 106t-98.5 281q0 92 25.5 182t74.5 167.5t115 137.5t152 94.5t181 34.5q72 0 131 -18q84 12 141 70.5t75 140.5zM399 -330q-35 0 -55 21t-20 57q0 42 33 74.5t75 32.5q35 0 56.5 -21.5t21.5 -54.5q0 -41 -34 -75t-77 -34z" />
    <glyph glyph-name="uni1EE4" unicode="&#x1ee4;" horiz-adv-x="1406" 
d="M618 -20q-231 0 -334.5 92.5t-103.5 289.5q0 81 23 222l92 522q8 39 8 88q0 59 -27.5 88t-89.5 29h-41l9 41h184q87 0 121.5 -26.5t34.5 -98.5q0 -35 -15 -121l-104 -584q-17 -107 -17 -160q0 -150 73 -225.5t226 -75.5q230 0 345 121.5t163 401.5l135 768h82l-135 -768
q-23 -128 -53.5 -219.5t-78.5 -167.5t-115.5 -122t-162 -70.5t-219.5 -24.5zM561 -330q-35 0 -55.5 21.5t-20.5 56.5q0 41 33 74t76 33q35 0 56.5 -21.5t21.5 -54.5q0 -41 -34 -75t-77 -34z" />
    <glyph glyph-name="uni1EE5" unicode="&#x1ee5;" horiz-adv-x="1099" 
d="M397 -20q-295 0 -295 266q0 11 17 127q12 81 59 344q10 72 10 92q0 58 -27 85.5t-89 27.5h-21l6 41h164q87 0 121.5 -26.5t34.5 -98.5q0 -36 -15 -121q-71 -399 -71 -447q0 -99 50 -148.5t134 -49.5q103 0 223 108l138 783h184l-168 -963h-102l-58 82h-10
q-128 -102 -285 -102zM408 -330q-35 0 -55.5 21.5t-20.5 56.5q0 42 33 74.5t75 32.5q35 0 56.5 -21.5t21.5 -54.5q0 -41 -34 -75t-76 -34z" />
    <glyph glyph-name="uni1EE6" unicode="&#x1ee6;" horiz-adv-x="1406" 
d="M936 1456h-64q7 34 20 56t48 65q43 54 43 92q0 53 -55 53q-42 0 -69 -23t-50 -79l-84 2q12 80 73 128t144 48q63 0 104 -32.5t41 -90.5q0 -3 -4 -35q-4 -22 -16.5 -35.5t-48.5 -43.5q-40 -33 -57.5 -54t-24.5 -51zM618 -20q-231 0 -334.5 92.5t-103.5 289.5q0 81 23 222
l92 522q8 39 8 88q0 59 -27.5 88t-89.5 29h-41l9 41h184q87 0 121.5 -26.5t34.5 -98.5q0 -35 -15 -121l-104 -584q-17 -107 -17 -160q0 -150 73 -225.5t226 -75.5q230 0 345 121.5t163 401.5l135 768h82l-135 -768q-23 -128 -53.5 -219.5t-78.5 -167.5t-115.5 -122
t-162 -70.5t-219.5 -24.5z" />
    <glyph glyph-name="uni1EE7" unicode="&#x1ee7;" horiz-adv-x="1099" 
d="M713 1067h-64q7 34 20 56t48 65q43 54 43 92q0 53 -55 53q-42 0 -69 -23t-50 -79l-84 2q12 80 73 128t144 48q63 0 104 -32.5t41 -90.5q0 -3 -4 -35q-4 -22 -16.5 -36.5t-48.5 -43.5q-41 -34 -58 -54t-24 -50zM397 -20q-295 0 -295 266q0 11 17 127q12 81 59 344
q10 72 10 92q0 58 -27 85.5t-89 27.5h-21l6 41h164q87 0 121.5 -26.5t34.5 -98.5q0 -36 -15 -121q-71 -399 -71 -447q0 -99 50 -148.5t134 -49.5q103 0 223 108l138 783h184l-168 -963h-102l-58 82h-10q-128 -102 -285 -102z" />
    <glyph glyph-name="uni1EE8" unicode="&#x1ee8;" horiz-adv-x="1406" 
d="M903 1495h-102l186 236h174zM1589 1565h117q-50 -250 -332 -265l-127 -716q-23 -128 -53.5 -219.5t-78.5 -167.5t-115.5 -122t-162 -70.5t-219.5 -24.5q-231 0 -334.5 92.5t-103.5 289.5q0 81 23 222l92 522q8 39 8 88q0 59 -27.5 88t-89.5 29h-41l9 41h184
q87 0 121.5 -26.5t34.5 -98.5q0 -35 -15 -121l-104 -584q-17 -107 -17 -160q0 -150 73 -225.5t226 -75.5q230 0 345 121.5t163 401.5l135 768h41q98 0 163 60.5t85 152.5z" />
    <glyph glyph-name="uni1EE9" unicode="&#x1ee9;" horiz-adv-x="1099" 
d="M680 1106h-102l186 235h174zM1212 1176h117q-50 -244 -317 -265l-160 -911h-102l-58 82h-10q-128 -102 -285 -102q-295 0 -295 266q0 11 17 127q12 81 59 344q10 72 10 92q0 58 -27 85.5t-89 27.5h-21l6 41h164q87 0 121.5 -26.5t34.5 -98.5q0 -36 -15 -121
q-71 -399 -71 -447q0 -99 50 -148.5t134 -49.5q103 0 223 108l138 783h129q98 0 162.5 60.5t84.5 152.5z" />
    <glyph glyph-name="uni1EEA" unicode="&#x1eea;" horiz-adv-x="1406" 
d="M897 1464h-82l-147 267h194zM1589 1565h117q-50 -250 -332 -265l-127 -716q-23 -128 -53.5 -219.5t-78.5 -167.5t-115.5 -122t-162 -70.5t-219.5 -24.5q-231 0 -334.5 92.5t-103.5 289.5q0 81 23 222l92 522q8 39 8 88q0 59 -27.5 88t-89.5 29h-41l9 41h184
q87 0 121.5 -26.5t34.5 -98.5q0 -35 -15 -121l-104 -584q-17 -107 -17 -160q0 -150 73 -225.5t226 -75.5q230 0 345 121.5t163 401.5l135 768h41q98 0 163 60.5t85 152.5z" />
    </font>
</defs>
</svg>
