<?xml version="1.0" standalone="no"?>
<!DOCTYPE svg PUBLIC "-//W3C//DTD SVG 1.1//EN" "http://www.w3.org/Graphics/SVG/1.1/DTD/svg11.dtd" >
<svg xmlns="http://www.w3.org/2000/svg" xmlns:xlink="http://www.w3.org/1999/xlink" version="1.1">
<metadata>
Created by FontForge 20170731 at Tue Sep 26 12:15:52 2023
 By Aleksey,,,
Copyright 2011 The Philosopher Project Authors (lemonad@jovanny.ru)
</metadata>
<defs>
<font id="Philosopher-BoldItalic" horiz-adv-x="1126" >
  <font-face 
    font-family="Philosopher"
    font-weight="700"
    font-style="italic"
    font-stretch="normal"
    units-per-em="2048"
    panose-1="0 0 8 0 0 0 0 0 0 0"
    ascent="1638"
    descent="-410"
    x-height="963"
    cap-height="1352"
    bbox="-721 -676 2144 2089"
    underline-thickness="102"
    underline-position="-307"
    slope="-10"
    unicode-range="U+000D-2215"
  />
<missing-glyph horiz-adv-x="1110" 
d="M444 639h-73v-250h368v250h-221v-123h74v49h74v-102h-222v176zM739 256h-368v-252h368v252zM666 764h-295v-76h368v221h-73v-145zM371 815h221v156h147v73h-368v-73h147v-82h-147v-74zM739 1464h-147v84h147v72h-366v-72h145v-84h-147v-71h368v71zM371 1104h368v76h-147
v155h-221v-231zM739 -223h-227l156 104h71v72h-368v-72h155l-155 -104v-74h368v74zM666 182v-104h-222v104h222zM909 1769v-2220h-702v2220h702zM518 1260v-80h-74v80h74z" />
    <glyph glyph-name=".notdef" horiz-adv-x="1110" 
d="M444 639h-73v-250h368v250h-221v-123h74v49h74v-102h-222v176zM739 256h-368v-252h368v252zM666 764h-295v-76h368v221h-73v-145zM371 815h221v156h147v73h-368v-73h147v-82h-147v-74zM739 1464h-147v84h147v72h-366v-72h145v-84h-147v-71h368v71zM371 1104h368v76h-147
v155h-221v-231zM739 -223h-227l156 104h71v72h-368v-72h155l-155 -104v-74h368v74zM666 182v-104h-222v104h222zM909 1769v-2220h-702v2220h702zM518 1260v-80h-74v80h74z" />
    <glyph glyph-name="uni0000" horiz-adv-x="0" 
 />
    <glyph glyph-name="uni0000" horiz-adv-x="0" 
 />
    <glyph glyph-name="uni000D" unicode="&#xd;" horiz-adv-x="512" 
 />
    <glyph glyph-name="space" unicode=" " horiz-adv-x="512" 
 />
    <glyph glyph-name="exclam" unicode="!" horiz-adv-x="507" 
d="M305 317h-192l143 1035h272zM147 -29q-49 0 -76.5 26t-27.5 69q0 65 42 110t108 45q104 0 104 -96q0 -63 -42.5 -108.5t-107.5 -45.5z" />
    <glyph glyph-name="quotedbl" unicode="&#x22;" horiz-adv-x="802" 
d="M336 799h-143l36 553h267zM684 799h-143l37 553h266z" />
    <glyph glyph-name="numbersign" unicode="#" horiz-adv-x="1437" 
d="M788 485l140 361h-260l-138 -361h258zM739 352h-260l-135 -352h-203l135 352h-251l22 133h279l139 361h-232l25 133h260l156 403h203l-156 -403h260l156 403h202l-155 -403h262l-25 -133h-291l-137 -361h242l-23 -133h-270l-135 -352h-203z" />
    <glyph glyph-name="dollar" unicode="$" horiz-adv-x="1130" 
d="M614 502l-77 -439q95 18 157 80.5t62 151.5q0 59 -33 104.5t-109 102.5zM539 885l69 401q-83 -26 -135.5 -86t-52.5 -139q0 -51 26.5 -88.5t92.5 -87.5zM520 -33l-24 -131h-144l25 133q-157 12 -255.5 69.5t-98.5 145.5q0 27 43 267h57v-17q0 -181 64.5 -269.5
t205.5 -105.5l92 529l-125 84q-102 67 -148 137t-46 158q0 173 131.5 284.5t329.5 134.5l20 119h144l-21 -121q52 -4 105.5 -17t110 -37t92.5 -66.5t36 -96.5q0 -23 -45 -264h-57v17q0 178 -64 268t-194 104l-88 -493l153 -101q113 -77 162 -143t49 -149q0 -93 -41.5 -172
t-113 -133t-162.5 -88.5t-193 -45.5z" />
    <glyph glyph-name="percent" unicode="%" horiz-adv-x="1552" 
d="M1077 72q90 0 146.5 75.5t56.5 184.5q0 68 -34.5 104.5t-100.5 36.5q-65 0 -112 -41t-68 -99t-21 -122q0 -139 133 -139zM444 879q93 0 148 76.5t55 187.5q0 137 -133 137q-65 0 -112.5 -41.5t-69 -99.5t-21.5 -121q0 -139 133 -139zM432 797q-136 0 -210.5 58.5
t-74.5 166.5q0 147 112.5 243.5t272.5 96.5q131 0 205 -58.5t74 -162.5q0 -148 -109.5 -246t-269.5 -98zM1520 1352l-1229 -1352h-217l1229 1352h217zM1065 -10q-136 0 -210.5 58.5t-74.5 166.5q0 147 112.5 243.5t270.5 96.5q135 0 208 -58t73 -167q0 -148 -109.5 -244
t-269.5 -96z" />
    <glyph glyph-name="ampersand" unicode="&#x26;" horiz-adv-x="1296" 
d="M498 41q145 0 290 106q-45 60 -135 181q-138 180 -180 241q-194 -156 -194 -333q0 -93 56 -144t163 -51zM702 1311q-53 0 -92.5 -30.5t-59.5 -79.5t-29 -98t-9 -99q0 -128 84 -224q209 162 209 385q0 71 -29 108.5t-74 37.5zM1180 535l67 -52q-93 -147 -227 -272
l162 -211h-279l-65 78q0 -3 -25.5 -18t-74 -36.5t-99.5 -37.5q-83 -27 -174 -27q-232 0 -343.5 68t-111.5 194q0 141 98.5 243t299.5 204q-68 68 -114 164t-46 184q0 114 67 201.5t172.5 131.5t229.5 44q159 0 246.5 -64t87.5 -174q0 -130 -99 -236t-297 -223l308 -409
q108 102 217 248z" />
    <glyph glyph-name="quotesingle" unicode="'" horiz-adv-x="454" 
d="M336 799h-143l36 553h267z" />
    <glyph glyph-name="parenleft" unicode="(" horiz-adv-x="657" 
d="M465 -410l-35 -41q-410 312 -410 754q0 145 39 284.5t106 257t162 226.5t202.5 197t232.5 166l20 -41q-130 -104 -230.5 -249.5t-160.5 -308.5t-90.5 -332.5t-30.5 -340.5q0 -365 195 -572z" />
    <glyph glyph-name="parenright" unicode=")" horiz-adv-x="657" 
d="M-129 -451l-23 41q131 104 231 249t160.5 307.5t90.5 331.5t30 341q0 366 -196 574l37 41q409 -311 409 -756q0 -180 -58 -349t-161.5 -310t-233 -257t-286.5 -213z" />
    <glyph glyph-name="asterisk" unicode="*" horiz-adv-x="892" 
d="M578 664h-230l92 247l-233 -182l-70 176l314 103l-277 102l131 176l170 -182l-6 248h229l-92 -248l232 182l69 -176l-313 -102l276 -103l-131 -176l-170 184z" />
    <glyph glyph-name="plus" unicode="+" horiz-adv-x="1120" 
d="M588 205h-185l72 399h-403l24 144h404l69 399h185l-70 -399h403l-24 -144h-404z" />
    <glyph glyph-name="comma" unicode="," horiz-adv-x="471" 
d="M-27 -328l-26 49q82 48 141 114t72 142l-33 -6q-49 0 -76.5 26t-27.5 69q0 65 41.5 110t107.5 45q53 0 82 -34t29 -89q0 -233 -310 -426z" />
    <glyph glyph-name="hyphen" unicode="-" horiz-adv-x="813" 
d="M670 444h-572l35 195h572z" />
    <glyph glyph-name="period" unicode="." horiz-adv-x="462" 
d="M127 -29q-49 0 -76.5 26t-27.5 69q0 65 41.5 110t107.5 45q104 0 104 -96q0 -63 -42 -108.5t-107 -45.5z" />
    <glyph glyph-name="slash" unicode="/" horiz-adv-x="983" 
d="M178 0h-229l895 1352h229z" />
    <glyph glyph-name="zero" unicode="0" horiz-adv-x="1247" 
d="M532 51q111 0 201 158t141.5 382.5t51.5 422.5q0 286 -174 286q-112 0 -201 -157q-89 -160 -140 -385.5t-51 -423.5q0 -146 42 -214.5t130 -68.5zM516 -41q-430 0 -430 467q0 131 22.5 261.5t74.5 259t128.5 226.5t194.5 159t262 61q432 0 432 -469q0 -92 -11.5 -185
t-37 -188.5t-63.5 -181t-94 -161.5t-124.5 -131t-159 -86.5t-194.5 -31.5z" />
    <glyph glyph-name="one" unicode="1" horiz-adv-x="663" 
d="M410 0h-267l195 1110l-199 -115l-37 64l367 293h178z" />
    <glyph glyph-name="two" unicode="2" horiz-adv-x="1105" 
d="M-12 0l22 133q42 37 94 76q220 174 354 300t236 273q109 157 109 305q0 101 -50 157t-130 56q-278 0 -398 -358h-71q19 112 40.5 179.5t57.5 107.5q73 73 189.5 118.5t238.5 45.5q165 0 289 -68q121 -68 121 -240q0 -162 -123 -325q-64 -82 -138.5 -158t-166.5 -151
t-160.5 -126t-179.5 -130q-112 -77 -142 -103h424q123 0 200 58t97 167h62l-27 -153q-30 -164 -203 -164h-745z" />
    <glyph glyph-name="three" unicode="3" horiz-adv-x="1112" 
d="M1114 1352l-16 -92l-594 -480q72 8 131 8q57 0 111 -12t104.5 -38t88.5 -64t60.5 -93.5t22.5 -121.5q0 -109 -48.5 -204.5t-127.5 -159t-180.5 -100t-206.5 -36.5q-121 0 -209.5 25.5t-149 72t-114.5 123.5l67 60q66 -92 153 -140.5t179 -48.5q153 0 251.5 123.5
t98.5 292.5q0 110 -58 169.5t-157 59.5q-85 0 -158 -20l-63 -19l-35 78l651 525h-366q-123 0 -199.5 -58.5t-95.5 -167.5h-61l26 154q30 164 203 164h692z" />
    <glyph glyph-name="four" unicode="4" horiz-adv-x="1175" 
d="M139 440h514l119 672zM1087 348h-184l-59 -348h-266l59 348h-655l16 82l870 922h213l-161 -912h184z" />
    <glyph glyph-name="five" unicode="5" horiz-adv-x="1124" 
d="M436 -41q-155 0 -256 54t-172 167l70 53q55 -89 142.5 -135.5t185.5 -46.5q104 0 185.5 60.5t123 155t41.5 202.5q0 117 -70.5 176.5t-206.5 59.5q-82 0 -174 -25q-8 -1 -90 -23l-68 80l132 615h796l-16 -90h-559l-103 -474l64 5q81 6 117 6q179 0 323 -78
q141 -76 141 -254q0 -158 -83 -275t-219 -175t-304 -58z" />
    <glyph glyph-name="six" unicode="6" horiz-adv-x="1148" 
d="M512 51q61 0 111.5 40t82 100.5t53.5 134.5t31 138t9 116q0 215 -166 215q-47 0 -107.5 -24t-98.5 -49t-38 -32q-35 -199 -35 -344q0 -295 158 -295zM496 -41q-410 0 -410 467q0 140 23.5 273.5t79 260.5t136.5 222t206 153t278 58q152 0 315 -70l-22 -57l-90 16
q-126 18 -178 18q-160 0 -270.5 -129.5t-157.5 -382.5q61 45 145 72t160 27q187 0 274.5 -82t87.5 -244q0 -166 -73.5 -303.5t-206 -218t-297.5 -80.5z" />
    <glyph glyph-name="seven" unicode="7" horiz-adv-x="974" 
d="M96 0l733 1260h-348q-123 0 -199.5 -58.5t-95.5 -167.5h-61l27 154q15 79 62 121.5t140 42.5h740l-17 -92l-733 -1260h-248z" />
    <glyph glyph-name="eight" unicode="8" horiz-adv-x="1187" 
d="M502 51q117 0 199.5 84t82.5 205q0 90 -58.5 157.5t-182.5 139.5q-113 -57 -175.5 -161t-62.5 -234q0 -95 51 -143t146 -48zM709 786q77 53 119 145t42 199q0 86 -42 128t-107 42q-92 0 -158.5 -78.5t-66.5 -177.5q0 -137 213 -258zM485 -41q-209 0 -332.5 74.5
t-123.5 216.5q0 76 29.5 141t86.5 118t129.5 95.5t169.5 81.5q-120 70 -176.5 138.5t-56.5 160.5q0 100 42 179t115 128.5t167 75t202 25.5q194 0 302 -65.5t108 -201.5q0 -249 -340 -393q135 -81 198.5 -157.5t63.5 -180.5q0 -107 -48.5 -192t-131 -137t-186 -79.5
t-218.5 -27.5z" />
    <glyph glyph-name="nine" unicode="9" horiz-adv-x="1148" 
d="M551 557q47 0 107.5 24t98.5 49t38 32q36 200 36 344q0 294 -159 294q-62 0 -112.5 -40.5t-81.5 -100.5t-52.5 -135t-30 -139t-8.5 -117q0 -107 40 -159t124 -52zM375 -41q-164 0 -316 70l23 57l90 -18q126 -17 178 -17q160 0 270.5 129.5t157.5 382.5q-141 -98 -303 -98
q-187 0 -274.5 82t-87.5 244q0 122 43.5 233t118.5 192t182.5 129t230.5 48q412 0 412 -469q0 -139 -24 -272t-79.5 -260t-137.5 -222t-206.5 -153t-277.5 -58z" />
    <glyph glyph-name="colon" unicode=":" horiz-adv-x="489" 
d="M266 694q-104 0 -104 97q0 63 42 108t107 45q105 0 105 -96q0 -63 -42.5 -108.5t-107.5 -45.5zM139 -29q-49 0 -76.5 26t-27.5 69q0 65 41.5 110t107.5 45q105 0 105 -96q0 -63 -42.5 -108.5t-107.5 -45.5z" />
    <glyph glyph-name="semicolon" unicode=";" horiz-adv-x="514" 
d="M276 694q-104 0 -104 97q0 63 42.5 108t107.5 45q104 0 104 -96q0 -63 -42.5 -108.5t-107.5 -45.5zM-4 -328l-27 49q82 48 141 114t72 142l-32 -6q-49 0 -77 26t-28 69q0 65 42 110t108 45q53 0 81.5 -33.5t28.5 -89.5q0 -233 -309 -426z" />
    <glyph glyph-name="less" unicode="&#x3c;" horiz-adv-x="1251" 
d="M1085 338l-32 -186l-985 462l26 144l1147 463l-33 -187l-864 -348z" />
    <glyph glyph-name="equal" unicode="=" horiz-adv-x="1372" 
d="M1284 788h-1124l26 144h1125zM1221 420h-1125l25 143h1124z" />
    <glyph glyph-name="greater" unicode="&#x3e;" horiz-adv-x="1249" 
d="M1196 614l-1145 -462l33 186l864 348l-741 348l33 187l983 -463z" />
    <glyph glyph-name="question" unicode="?" horiz-adv-x="1024" 
d="M510 319h-139q22 84 63.5 155t124.5 177q51 64 81.5 108t61 101.5t44.5 118t14 129.5q0 101 -42.5 146.5t-127.5 45.5q-270 0 -408 -385h-61l4 17q28 139 47 197t57 98q74 71 196.5 118.5t242.5 47.5q172 0 274 -84t102 -232q0 -52 -8.5 -97.5t-29 -85.5t-40 -69.5
t-57 -66t-62.5 -58t-73 -61.5q-117 -97 -175.5 -164.5t-88.5 -155.5zM379 -29q-49 0 -77 26t-28 69q0 65 42 110t108 45q104 0 104 -96q0 -63 -42 -108.5t-107 -45.5z" />
    <glyph glyph-name="at" unicode="@" horiz-adv-x="1796" 
d="M768 102q112 0 209 134l96 552q-18 56 -61 95t-99 39q-62 0 -113.5 -48t-82.5 -118t-52 -155.5t-29.5 -156t-8.5 -122.5q0 -220 141 -220zM737 -369q-327 0 -511.5 172.5t-184.5 489.5q0 174 44 337.5t131 301.5t207 241t281 161.5t343 58.5q325 0 513.5 -171t188.5 -477
q0 -105 -19 -206.5t-62 -198t-105 -169.5t-155 -117t-206 -44q-94 0 -153 23.5t-82 89.5q-104 -113 -256 -113q-173 0 -264 98t-91 267q0 116 37.5 229t104 204.5t169 148.5t222.5 57q68 0 126 -28.5t89 -84.5h10l88 92h174l-139 -784q-2 -4 -2 -31q0 -74 65 -74
q71 0 127.5 50t89 123t53.5 165t28.5 165.5t7.5 135.5q0 268 -152 412.5t-424 144.5q-163 0 -302.5 -56.5t-238 -153.5t-168.5 -226t-103.5 -274t-33.5 -297q0 -278 149 -423.5t421 -145.5q371 0 682 194l39 -82q-330 -205 -738 -205z" />
    <glyph glyph-name="A" unicode="A" horiz-adv-x="1325" 
d="M324 465h462l-131 534zM1192 -8q-67 0 -121.5 13t-102 42t-81.5 82.5t-51 128.5l-27 115h-545l-233 -373h-107l842 1352h92l266 -1094q49 -190 176 -205l-8 -51q-42 -10 -100 -10z" />
    <glyph glyph-name="B" unicode="B" horiz-adv-x="1323" 
d="M522 82h10q109 0 199 38t147.5 119t57.5 191q0 217 -305 217h-154l-96 -545q12 -6 39 -10q52 -10 102 -10zM623 1262l-37 -7l-92 -516h153q144 0 242 88.5t98 233.5q0 105 -75.5 157t-200.5 52q-61 0 -88 -8zM549 0h-451q149 851 158 903q43 249 43 275q0 58 -27.5 85
t-89.5 27h-20l10 62h553q236 0 391 -58q156 -59 156 -233q0 -130 -95 -227t-247 -136q295 -30 295 -254q0 -234 -195 -340q-195 -104 -481 -104z" />
    <glyph glyph-name="C" unicode="C" horiz-adv-x="1392" 
d="M645 -41q-271 0 -419 148.5t-148 396.5q0 163 64.5 324t172 285.5t261.5 202t321 77.5q176 0 330 -60q149 -61 149 -217q0 -78 -24 -201h-62q-5 189 -93 287t-255 98q-120 0 -220 -52.5t-165.5 -137t-110.5 -194.5t-64.5 -221t-19.5 -220q0 -199 90 -311.5t271 -112.5
q144 0 278 76.5t230 216.5l61 -55q-128 -173 -281 -251.5t-366 -78.5z" />
    <glyph glyph-name="D" unicode="D" horiz-adv-x="1509" 
d="M98 0l191 1085q10 72 10 93q0 58 -27.5 85t-89.5 27h-20l10 62h557q361 0 550 -137.5t189 -391.5q0 -153 -49.5 -285.5t-137 -230t-204 -167.5t-252 -105t-280.5 -35h-447zM532 82h21q112 0 211 44t170.5 118t124 170t78.5 201t26 210q0 205 -108 325t-297 120h-17
q-72 0 -108 -8l-47 -7l-205 -1159l45 -8q27 -6 106 -6z" />
    <glyph glyph-name="E" unicode="E" horiz-adv-x="1232" 
d="M856 0h-758q149 851 158 903q43 249 43 275q0 58 -27.5 85t-89.5 27h-20l10 62h903q150 0 150 -119q0 -17 -35 -219h-62q7 44 7 67q0 179 -220 179h-329l-90 -512h532l-16 -93h-533l-100 -563h350q120 0 207 54t160 180l51 -21l-88 -162q-44 -79 -86 -111t-117 -32z" />
    <glyph glyph-name="F" unicode="F" horiz-adv-x="1110" 
d="M98 0l191 1085q10 72 10 93q0 58 -27.5 85t-89.5 27h-20l10 62h858q150 0 150 -119q0 -17 -35 -219h-62q7 44 7 67q0 92 -55 135.5t-165 43.5h-284l-92 -523h450l-16 -92h-451l-112 -645h-267z" />
    <glyph glyph-name="G" unicode="G" horiz-adv-x="1503" 
d="M702 -41q-277 0 -448.5 168.5t-171.5 431.5q0 129 40.5 254.5t116 229t174.5 182.5t223.5 123.5t256.5 44.5q181 0 338 -62q153 -61 153 -219q0 -73 -20 -170h-61q-6 185 -95 271.5t-270 86.5q-88 0 -165 -28t-135 -76.5t-105.5 -114.5t-79.5 -141t-53.5 -157.5
t-31.5 -162t-10 -157.5q0 -422 359 -422q163 0 287 53l63 365q11 54 34.5 95.5t58.5 68t73 44.5t87.5 26.5t92.5 12t96 3.5l-10 -52q-131 0 -166 -194l-63 -367q-245 -137 -568 -137z" />
    <glyph glyph-name="H" unicode="H" horiz-adv-x="1480" 
d="M98 0l191 1085q10 72 10 93q0 58 -27.5 85t-89.5 27h-20l10 62h246q82 0 116.5 -31.5t34.5 -106.5q0 -69 -14 -129l-59 -337h553l106 604h266l-192 -1086q-8 -39 -8 -88q0 -59 27.5 -88t88.5 -29h21l-10 -61h-246q-82 0 -117 32t-35 109q0 45 13 125l69 389h-553
l-114 -655h-267z" />
    <glyph glyph-name="I" unicode="I" horiz-adv-x="628" 
d="M496 0h-246q-82 0 -117 32t-35 109q0 45 13 125l192 1086h266l-192 -1086q-8 -39 -8 -88q0 -59 27.5 -88t88.5 -29h21z" />
    <glyph glyph-name="J" unicode="J" horiz-adv-x="573" 
d="M-184 -281l12 62q101 12 161.5 99.5t94.5 289.5l209 1182h266l-209 -1182q-19 -113 -46.5 -189t-67 -128.5t-100 -81t-135.5 -40.5t-185 -12z" />
    <glyph glyph-name="K" unicode="K" horiz-adv-x="1421" 
d="M1192 -20q-136 0 -244.5 55t-212.5 190l-268 344l-100 -569h-267q76 432 166 954q33 191 33 224q0 58 -27.5 85t-89.5 27h-20l10 62h246q83 0 118 -31.5t35 -108.5q0 -22 -18 -127q-28 -166 -29 -170l-37 -219l433 441q99 106 196 160.5t205 54.5h143l-12 -72
q-132 0 -227 -33t-174 -112l-371 -377l385 -492q66 -85 149 -147.5t140 -69.5l-8 -49q-61 -20 -154 -20z" />
    <glyph glyph-name="L" unicode="L" horiz-adv-x="1161" 
d="M98 0l191 1085q10 72 10 93q0 58 -27.5 85t-89.5 27h-20l10 62h246q82 0 116.5 -31.5t34.5 -106.5q0 -69 -14 -129l-176 -993h706l-14 -92h-973z" />
    <glyph glyph-name="M" unicode="M" horiz-adv-x="1779" 
d="M1628 -41l-8 -51q-184 0 -269 71.5t-85 225.5q0 55 14 143l129 725l-637 -1073h-67l-355 1114l-194 -1114h-103l238 1352h250l317 -1006l598 1006h268l-178 -1004q-22 -135 -22 -205q0 -163 104 -184z" />
    <glyph glyph-name="N" unicode="N" horiz-adv-x="1423" 
d="M1073 -6l-688 1020l-178 -1014h-103l109 618q92 528 92 541q0 131 -158 131h-10l10 62h144q114 0 182 -29.5t105 -93.5l561 -819l166 942h102l-240 -1358h-94z" />
    <glyph glyph-name="O" unicode="O" horiz-adv-x="1505" 
d="M645 -41q-259 0 -411 156.5t-152 408.5q0 132 39.5 261t114 238t173.5 192.5t225.5 130.5t262.5 47q259 0 411 -156.5t152 -409.5q0 -132 -39.5 -261t-114 -237.5t-173.5 -192t-225.5 -130.5t-262.5 -47zM662 51q94 0 174 41t135.5 110.5t98 156t66.5 183t36 185.5
t12 170q0 195 -78 299t-225 104q-93 0 -172.5 -41.5t-135 -111.5t-98 -156.5t-67 -183.5t-36.5 -185.5t-12 -168.5q0 -193 77.5 -297.5t224.5 -104.5z" />
    <glyph glyph-name="P" unicode="P" horiz-adv-x="1187" 
d="M629 1262l-43 -7l-111 -626h123q155 0 248.5 122.5t93.5 295.5q0 113 -59.5 168t-159.5 55q-61 0 -92 -8zM655 547h-194l-96 -547h-267q149 851 158 903q43 249 43 275q0 58 -27.5 85t-89.5 27h-20l10 62h563q189 0 340 -68q150 -68 150 -260q0 -108 -47 -199
t-126.5 -151t-182 -93.5t-214.5 -33.5z" />
    <glyph glyph-name="Q" unicode="Q" horiz-adv-x="1509" 
d="M664 51q94 0 174 41t135.5 110.5t98 156t66.5 183t36 185.5t12 170q0 195 -78 299t-225 104q-93 0 -172.5 -41.5t-135 -111.5t-98 -156.5t-67 -183.5t-36.5 -185.5t-12 -168.5q0 -193 77.5 -297.5t224.5 -104.5zM1255 -367l-10 -53q-538 0 -805 412q-166 51 -261 193.5
t-95 338.5q0 132 39.5 261t114 238t173.5 192.5t225.5 130.5t262.5 47q259 0 411 -156.5t152 -409.5q0 -184 -75.5 -356t-217 -301.5t-323.5 -183.5q16 -94 81 -176.5t153.5 -129.5t174.5 -47z" />
    <glyph glyph-name="R" unicode="R" horiz-adv-x="1261" 
d="M631 1262l-43 -7l-99 -555h123q142 0 237 103.5t95 253.5q0 104 -62 158.5t-159 54.5q-61 0 -92 -8zM1047 -20q-115 0 -195.5 67.5t-151.5 228.5l-143 342h-82l-108 -618h-269q149 851 158 903q43 249 43 275q0 58 -27.5 85t-89.5 27h-20l10 62h565q193 0 342 -64
q150 -64 150 -241q0 -156 -107 -261t-291 -151l152 -359q83 -201 215 -225l-8 -51q-17 -8 -61 -14t-82 -6z" />
    <glyph glyph-name="S" unicode="S" horiz-adv-x="1150" 
d="M455 -35q-111 0 -206.5 26t-155.5 77.5t-60 117.5q0 22 43 265h57v-15q0 -199 80.5 -289t253.5 -90q76 0 142.5 26t111.5 82t45 130q0 64 -38 111.5t-132 113.5l-225 152q-103 67 -149 137t-46 158q0 126 75 224t193.5 148t257.5 50q111 0 206.5 -26.5t155.5 -78
t60 -117.5q0 -23 -45 -264h-57v23q0 194 -76.5 282t-236.5 88q-110 0 -194.5 -64t-84.5 -171q0 -60 36.5 -103.5t135.5 -109.5l227 -150q113 -77 162 -143t49 -149q0 -89 -35.5 -163.5t-94 -125t-135.5 -85.5t-158 -51t-162 -16z" />
    <glyph glyph-name="T" unicode="T" horiz-adv-x="1181" 
d="M373 0l221 1260h-145q-117 0 -186 -59t-93 -187h-61l30 174q30 164 203 164h963l-17 -92h-428l-221 -1260h-266z" />
    <glyph glyph-name="U" unicode="U" horiz-adv-x="1427" 
d="M641 -20q-239 0 -352 102.5t-113 316.5q0 37 19 164q22 142 88 522q10 72 10 93q0 58 -27.5 85t-89.5 27l10 62h226q82 0 116.5 -31.5t34.5 -106.5q0 -69 -14 -129q-77 -455 -92 -559q-21 -126 -21 -170q0 -148 59 -221.5t185 -73.5q221 0 339.5 124.5t168.5 404.5
l135 762h102l-135 -762q-52 -309 -206 -459.5t-443 -150.5z" />
    <glyph glyph-name="V" unicode="V" horiz-adv-x="1304" 
d="M502 -20l-279 1132q-29 112 -65.5 159.5t-98.5 55.5l7 41l88 4q147 0 233 -55.5t125 -204.5l188 -766l611 1006h104l-831 -1372h-82z" />
    <glyph glyph-name="W" unicode="W" horiz-adv-x="1853" 
d="M455 -18l-244 1130q-24 111 -62 159t-102 56l6 41l88 4q158 0 243 -56.5t116 -203.5l151 -706l279 524l-41 182q-23 107 -66.5 157t-111.5 58l6 41l82 4q158 0 242.5 -56t115.5 -204l162 -745l524 985h99l-728 -1370h-81l-175 802l-421 -802h-82z" />
    <glyph glyph-name="X" unicode="X" horiz-adv-x="1320" 
d="M-66 0l615 637l-211 448q-40 88 -106 153.5t-130 72.5l9 41h225q99 0 172 -61t121 -165l131 -274l483 500h133l-573 -592l233 -494q39 -89 105.5 -153.5t130.5 -71.5l-6 -41h-226q-98 0 -172.5 61.5t-122.5 163.5l-151 320l-526 -545h-134z" />
    <glyph glyph-name="Y" unicode="Y" horiz-adv-x="1308" 
d="M465 0l94 541l-266 544q-39 88 -105.5 153.5t-128.5 72.5l9 41h223q99 0 172 -61t121 -165l204 -419l512 645h134l-598 -756l-105 -596h-266z" />
    <glyph glyph-name="Z" unicode="Z" horiz-adv-x="1226" 
d="M-35 0l10 66l973 1196h-444q-118 0 -187 -58.5t-92 -189.5h-61l31 174q15 79 62 121.5t140 42.5h932l-1026 -1260h793l-15 -92h-1116z" />
    <glyph glyph-name="bracketleft" unicode="[" horiz-adv-x="679" 
d="M467 -410h-502l318 1803h501l-16 -93h-256l-285 -1617h256z" />
    <glyph glyph-name="backslash" unicode="\" horiz-adv-x="972" 
d="M829 0h-229l-420 1352h230z" />
    <glyph glyph-name="bracketright" unicode="]" horiz-adv-x="679" 
d="M369 -410h-500l16 93h254l285 1617h-256l16 93h502z" />
    <glyph glyph-name="asciicircum" unicode="^" horiz-adv-x="1052" 
d="M258 676h-201l566 717h90l315 -717h-201l-202 465z" />
    <glyph glyph-name="underscore" unicode="_" horiz-adv-x="888" 
d="M756 -143h-860l26 143h860z" />
    <glyph glyph-name="grave" unicode="`" horiz-adv-x="464" 
d="M494 977h-152l-160 416h256z" />
    <glyph glyph-name="a" unicode="a" 
d="M463 72q115 0 207 133l98 553q-20 58 -62.5 95.5t-99.5 37.5q-62 0 -113.5 -47.5t-82.5 -117t-52.5 -154.5t-30 -155t-8.5 -122q0 -223 144 -223zM406 -20q-173 0 -265 99.5t-92 268.5q0 113 38 225.5t105.5 204t169.5 148.5t220 57q68 0 126 -28.5t89 -84.5h10l88 93
h174l-168 -963h-174l-57 92h-11q-43 -55 -111 -83.5t-142 -28.5z" />
    <glyph glyph-name="b" unicode="b" 
d="M489 72q65 0 117 46.5t82.5 115t50.5 154t27.5 154t7.5 124.5q0 113 -35.5 169t-115.5 56q-58 0 -131 -31l-54 -31l-110 -624q20 -59 61.5 -96t99.5 -37zM514 -20q-112 0 -170 55q-30 24 -47 57h-10l-86 -92h-174q79 451 157 903q43 249 43 275q0 58 -27 85t-89 27h-21
l10 62h246q82 0 117 -31.5t35 -106.5q0 -58 -43 -292q32 16 63 30q85 31 162 31q179 0 271.5 -99.5t92.5 -275.5q0 -116 -37 -227.5t-103 -201t-168 -144.5t-222 -55z" />
    <glyph glyph-name="c" unicode="c" horiz-adv-x="1019" 
d="M465 -20q-199 0 -306.5 105.5t-107.5 283.5q0 168 73.5 307.5t209.5 223t307 83.5q135 0 236 -29q96 -30 96 -135q0 -56 -27 -194h-61q2 10 2 49q0 108 -59.5 162.5t-172.5 54.5q-71 0 -129.5 -40t-95 -102t-62 -140t-36 -150t-10.5 -137q0 -250 200 -250q94 0 168 41.5
t154 128.5l55 -47q-87 -105 -187 -160t-247 -55z" />
    <glyph glyph-name="d" unicode="d" 
d="M463 72q115 0 207 133l110 624q-20 16 -43 31q-67 31 -121 31q-68 0 -121.5 -46t-85 -114t-52 -153.5t-28 -155t-7.5 -127.5q0 -111 34 -167t107 -56zM406 -20q-170 0 -262.5 100.5t-92.5 273.5q0 120 37.5 232.5t105.5 201t171.5 142t226.5 53.5q51 0 111 -16t94 -45
l16 96q23 151 23 160q0 58 -27.5 85t-89.5 27h-21l11 62h245q82 0 117 -31.5t35 -106.5q0 -16 -31 -213q-11 -62 -48.5 -282.5t-65.5 -380.5l-60 -338h-174l-57 92h-11q-43 -55 -111 -83.5t-142 -28.5z" />
    <glyph glyph-name="e" unicode="e" horiz-adv-x="1040" 
d="M342 502h215q54 0 94.5 40.5t58 93t17.5 105.5q0 71 -35 110.5t-88 39.5q-198 0 -262 -389zM444 -20q-183 0 -288 107t-105 286q0 163 72 302.5t203.5 223.5t294.5 84q182 0 282.5 -66t100.5 -184q0 -72 -29 -129t-75 -92.5t-108 -59t-124 -33t-127 -9.5h-215
q-13 -70 -13 -115q0 -109 46.5 -166t132.5 -57q94 0 167.5 41.5t153.5 128.5l55 -47q-83 -102 -184 -158.5t-240 -56.5z" />
    <glyph glyph-name="f" unicode="f" horiz-adv-x="706" 
d="M-197 -389l9 51q100 19 156 105t91 284l144 819h-123l16 93h123l10 55q63 354 463 354q43 0 76 -4t70 -15.5t62 -37.5t36 -66l-94 -71q-51 102 -156 102q-74 0 -120 -61t-70 -201l-11 -55h267l-17 -93h-266l-143 -819q-23 -131 -58.5 -213t-98 -134t-149 -72.5
t-217.5 -20.5z" />
    <glyph glyph-name="g" unicode="g" 
d="M479 113q102 0 185 61l104 584q-20 58 -62.5 95.5t-99.5 37.5q-64 0 -115 -44t-81 -108.5t-50 -145.5t-27 -147.5t-7 -121.5q0 -105 36.5 -158t116.5 -53zM356 -410q-139 0 -221 56.5t-129 158.5l72 48q53 -88 110 -129t144 -41q119 0 199.5 97t115.5 292l2 10
q-44 -29 -107 -45.5t-120 -16.5q-180 0 -273.5 95t-93.5 264q0 115 37.5 223t104 193t167 136.5t218.5 51.5q68 0 126 -28.5t89 -84.5h10l88 93h174l-156 -891q-37 -221 -186.5 -351.5t-370.5 -130.5z" />
    <glyph glyph-name="h" unicode="h" horiz-adv-x="1118" 
d="M25 0l190 1085q10 72 10 93q0 58 -27 85t-89 27h-21l10 62h246q82 0 117 -31.5t35 -106.5q0 -64 -15 -129l-32 -180q40 24 69 39q85 39 170 39q332 0 332 -278q0 -24 -19 -154q-54 -316 -96 -551h-266q80 460 90 524q25 156 25 172q0 94 -38.5 139.5t-107.5 45.5
q-81 0 -176 -72l-141 -809h-266z" />
    <glyph glyph-name="i" unicode="i" horiz-adv-x="555" 
d="M389 1073q-61 0 -95 33.5t-34 89.5q0 61 38 104t97 43q62 0 95.5 -33.5t33.5 -88.5q0 -68 -34.5 -108t-100.5 -40zM68 0l120 696q11 79 11 92q0 58 -27.5 85.5t-89.5 27.5h-21l11 62h245q82 0 117 -31.5t35 -106.5q0 -46 -14 -129l-121 -696h-266z" />
    <glyph glyph-name="j" unicode="j" horiz-adv-x="552" 
d="M389 1073q-61 0 -95 33.5t-34 89.5q0 61 38 104t97 43q62 0 95.5 -33.5t33.5 -88.5q0 -61 -38 -104.5t-97 -43.5zM-180 -389l8 51q100 19 156.5 105.5t91.5 283.5l96 563q27 153 27 174q0 58 -27.5 85.5t-89.5 27.5h-21l11 62h245q82 0 117 -31.5t35 -106.5
q0 -34 -20 -163q-6 -39 -20 -118.5t-39.5 -222.5t-47.5 -270q-31 -174 -88 -267t-158 -133t-276 -40z" />
    <glyph glyph-name="k" unicode="k" horiz-adv-x="1038" 
d="M791 -20q-93 0 -161 38.5t-116 124.5l-152 258l-69 -401h-266q79 451 157 903q43 249 43 275q0 58 -27 85t-89 27h-21l10 62h246q82 0 117 -31.5t35 -106.5q0 -35 -21 -161q-41 -243 -96 -551l301 303q88 88 156.5 123t165.5 35h40l-8 -54q-121 0 -223 -102l-242 -242
l209 -360q77 -138 164 -156l-8 -49q-17 -8 -62 -14t-83 -6z" />
    <glyph glyph-name="l" unicode="l" horiz-adv-x="534" 
d="M301 0h-266q149 851 158 903q43 249 43 275q0 58 -27.5 85t-89.5 27h-21l11 62h245q82 0 117 -31.5t35 -106.5q0 -16 -31 -213q-12 -68 -51 -294.5t-64 -368.5z" />
    <glyph glyph-name="m" unicode="m" horiz-adv-x="1693" 
d="M332 0h-266q23 139 46 274.5t34.5 200.5t13.5 82q37 218 37 234q0 58 -26.5 84t-88.5 26h-21l11 62h202q138 0 162 -78h8q125 98 275 98q91 0 158.5 -34.5t103.5 -82.5q61 58 134.5 87.5t176.5 29.5q303 0 303 -270q0 -32 -18 -152q-6 -35 -19 -109t-35.5 -202.5
t-43.5 -249.5h-267q29 164 61.5 347t37.5 214q18 123 18 152q0 168 -127 168q-55 0 -105 -21t-83 -57l4 -19q6 -43 6 -59q0 -19 -25 -182q-93 -536 -94 -543h-266q21 121 43.5 249.5t35.5 202.5t19 109q19 130 19 152q0 168 -127 168q-41 0 -91 -25t-81 -57v-11q0 -2 1 -11
t1 -19q0 -55 -127 -758z" />
    <glyph glyph-name="n" unicode="n" horiz-adv-x="1181" 
d="M66 0l120 696q11 79 11 97q0 55 -26.5 81.5t-88.5 26.5h-21l11 62h202q69 0 106 -17.5t54 -58.5q116 96 316 96q168 0 250.5 -65.5t82.5 -204.5q0 -35 -10 -107l-106 -606h-267l107 608q8 36 8 94q0 179 -156 179q-127 0 -198 -64q2 -10 2 -41q0 -37 -6 -67l-125 -709
h-266z" />
    <glyph glyph-name="o" unicode="o" horiz-adv-x="1132" 
d="M479 72q65 0 119 43.5t86.5 108t55 144.5t31.5 149t9 124q0 121 -39.5 185.5t-117.5 64.5q-65 0 -119 -43.5t-86.5 -108t-55 -144.5t-31.5 -149t-9 -124q0 -121 39.5 -185.5t117.5 -64.5zM463 -20q-194 0 -304 108t-110 289q0 161 78.5 300.5t214.5 222.5t297 83
q194 0 304 -108t110 -289q0 -161 -78.5 -300.5t-214.5 -222.5t-297 -83z" />
    <glyph glyph-name="p" unicode="p" horiz-adv-x="1165" 
d="M518 72q66 0 119 46.5t85 114.5t53.5 153t29.5 155t8 127q0 111 -34 167t-107 56q-112 0 -213 -84v-10l2 -29q0 -42 -107 -635q29 -29 74.5 -45t89.5 -16zM338 41l-76 -430h-266q31 176 66 377.5t57.5 328.5t34.5 199q43 249 43 275q0 58 -26.5 84t-88.5 26h-21l11 62
h202q73 0 109.5 -19.5t48.5 -66.5q130 106 297 106q170 0 262 -100.5t92 -274.5q0 -117 -38 -229.5t-106 -201t-171.5 -143t-224.5 -54.5q-87 0 -152 30q-28 10 -53 31z" />
    <glyph glyph-name="q" unicode="q" horiz-adv-x="1124" 
d="M471 72q101 0 184 61l111 625q-20 58 -62.5 95.5t-99.5 37.5q-63 0 -114.5 -47t-82.5 -116t-51.5 -153.5t-28.5 -154t-8 -123.5q0 -113 36 -169t116 -56zM1067 963l-238 -1352h-266l76 430q-98 -61 -225 -61q-179 0 -272 99t-93 275q0 92 23 182.5t69 171t109 142
t148.5 97.5t181.5 36q68 0 126 -28.5t89 -84.5h10l88 93h174z" />
    <glyph glyph-name="r" unicode="r" horiz-adv-x="860" 
d="M848 942q20 -18 36.5 -50.5t16.5 -41.5l-119 -80q-19 36 -53.5 58t-73.5 22q-121 0 -194 -64q-2 -6 -2 -30q0 -45 -6 -68l-121 -688h-266q23 139 46 274.5t34.5 200.5t13.5 82q37 218 37 234q0 58 -26.5 84t-88.5 26h-21l11 62h202q69 0 106 -17.5t54 -58.5
q131 96 275 96q86 0 139 -41z" />
    <glyph glyph-name="s" unicode="s" horiz-adv-x="960" 
d="M367 -20q-143 0 -238 32q-102 34 -102 142q0 51 18 153h72v-6q0 -108 56.5 -168.5t168.5 -60.5q62 0 112.5 15.5t84.5 51.5t34 88q0 45 -36.5 78t-120.5 72l-99 45q-109 53 -162 110.5t-53 133.5t38 138t101.5 100t141 58.5t160.5 20.5q141 0 239 -33q101 -34 101 -141
q0 -46 -19 -154h-71v7q0 107 -57 168t-169 61q-82 0 -141 -43.5t-59 -118.5q0 -42 28.5 -72t91.5 -57l115 -51q126 -55 181 -111.5t55 -136.5t-41 -143t-109 -101t-150 -57.5t-171 -19.5z" />
    <glyph glyph-name="t" unicode="t" horiz-adv-x="727" 
d="M362 -20q-123 0 -187 56.5t-64 166.5q0 18 24 162q17 117 86 505h-123l17 93h123l32 184l125 123h164l-55 -307h225l-16 -93h-226q-116 -648 -116 -694q0 -56 20.5 -80t63.5 -24q87 0 170 55l18 -57q-53 -45 -129 -67.5t-152 -22.5z" />
    <glyph glyph-name="u" unicode="u" horiz-adv-x="1161" 
d="M420 -20q-167 0 -245.5 63t-78.5 201q0 15 17 127q27 181 53 325q10 72 10 92q0 58 -27.5 85.5t-89.5 27.5h-20l10 62h246q82 0 116.5 -31.5t34.5 -106.5q0 -69 -14 -129q-72 -436 -72 -463q0 -86 33.5 -123.5t104.5 -37.5q115 0 207 133l133 758h266l-168 -963h-174
l-57 92h-11q-53 -53 -125.5 -82.5t-148.5 -29.5z" />
    <glyph glyph-name="v" unicode="v" horiz-adv-x="1028" 
d="M395 -20l-215 747q-32 115 -63.5 160.5t-81.5 50.5l8 41l76 4q143 0 225.5 -56.5t122.5 -199.5l111 -393l389 629h110l-608 -983h-74z" />
    <glyph glyph-name="w" unicode="w" horiz-adv-x="1589" 
d="M385 -20l-203 747q-31 116 -64.5 162.5t-88.5 50.5l8 39l98 4q139 0 215 -56.5t113 -199.5l104 -391l197 328l-19 63q-30 109 -64 158.5t-79 54.5l8 39l78 4q145 0 228 -58.5t120 -197.5l117 -412l363 648h108l-549 -983h-94l-166 575l-338 -575h-92z" />
    <glyph glyph-name="x" unicode="x" horiz-adv-x="1017" 
d="M-51 0l420 428l-138 330q-31 72 -72.5 114t-88.5 50l6 41h194q91 0 146 -40t88 -124l69 -166l326 330h137l-420 -426l140 -332q31 -72 73 -114t89 -50l-7 -41h-194q-91 0 -146 40t-88 124l-71 166l-326 -330h-137z" />
    <glyph glyph-name="y" unicode="y" horiz-adv-x="1042" 
d="M8 -410l12 72q115 0 190.5 44t141.5 155l62 110l-226 807q-23 78 -61.5 117.5t-99.5 46.5l6 41h180q90 0 152 -44t86 -120l145 -516l365 660h108l-606 -1096q-89 -157 -172 -217t-201 -60h-82z" />
    <glyph glyph-name="z" unicode="z" horiz-adv-x="1013" 
d="M-16 0l10 63l680 807h-242q-128 0 -189.5 -45t-78.5 -149h-62l21 123q30 164 203 164h729l-736 -871h539l-14 -92h-860z" />
    <glyph glyph-name="braceleft" unicode="{" horiz-adv-x="638" 
d="M434 -360l-12 -72q-167 12 -249.5 89t-82.5 204q0 79 33 211q31 132 31 207q0 157 -168 180l12 65q205 27 246 234l49 286q27 158 142 256t313 115l-13 -72q-68 -12 -104.5 -62t-55.5 -151l-61 -352q-20 -116 -90.5 -183t-206.5 -103q201 -59 201 -222q0 -39 -5 -79
t-11 -70t-23 -109q-37 -167 -37 -243q0 -56 21.5 -87.5t70.5 -41.5z" />
    <glyph glyph-name="bar" unicode="|" horiz-adv-x="540" 
d="M236 -389h-267l314 1782h266z" />
    <glyph glyph-name="braceright" unicode="}" horiz-adv-x="638" 
d="M-135 -432l12 72q68 12 104.5 62t55.5 151l61 352q20 116 90.5 184t206.5 103q-200 59 -200 221q0 82 36 245q39 150 39 254q0 57 -22.5 89t-71.5 42l12 72q167 -12 249.5 -89t82.5 -204q0 -77 -31 -209q-32 -128 -32 -213q0 -153 170 -176l-13 -65q-108 -17 -169.5 -78
t-75.5 -156l-52 -286q-27 -158 -140.5 -256t-311.5 -115z" />
    <glyph glyph-name="asciitilde" unicode="~" horiz-adv-x="1257" 
d="M866 342q-67 0 -131 20.5t-166 69.5q-82 40 -131 57t-96 17q-162 0 -186 -123h-82q29 162 102.5 240.5t200.5 78.5q67 0 128.5 -20t166.5 -70q96 -43 139.5 -58t89.5 -15q163 0 184 123h82q-30 -163 -102.5 -241.5t-198.5 -78.5z" />
    <glyph glyph-name="uni00A0" unicode="&#xa0;" horiz-adv-x="512" 
 />
    <glyph glyph-name="exclamdown" unicode="&#xa1;" horiz-adv-x="493" 
d="M276 733q-53 0 -79.5 26t-26.5 72q0 62 43.5 107t105.5 45q49 0 77 -25.5t28 -68.5q0 -65 -41.5 -110.5t-106.5 -45.5zM213 -397h-272l221 1034h192z" />
    <glyph glyph-name="cent" unicode="&#xa2;" horiz-adv-x="1015" 
d="M408 92l137 776q-66 -34 -115 -98t-74.5 -142.5t-37 -155t-11.5 -155.5q0 -176 101 -225zM512 -16l-14 -86h-123l14 86q-171 17 -261.5 119t-90.5 266q0 150 65 281.5t186.5 220t276.5 108.5l15 86h122l-14 -84q67 -3 111.5 -10.5t83 -24.5t57 -48.5t18.5 -78.5
q0 -61 -26 -194h-62q2 10 2 47q0 100 -51 154.5t-149 62.5l-144 -817q84 4 153.5 45.5t147.5 124.5l56 -47q-83 -97 -167.5 -149t-205.5 -62z" />
    <glyph glyph-name="sterling" unicode="&#xa3;" horiz-adv-x="1097" 
d="M-25 0l11 61q83 28 123 106.5t77 283.5l37 204h-123l17 93h123l34 194q40 234 185 334q143 96 311 96q131 0 229 -31q93 -30 93 -137q0 -32 -13 -108h-112q-6 96 -48.5 140t-123.5 44q-192 0 -254 -338l-35 -194h266l-16 -93h-267l-36 -204q-40 -242 -207 -359h389
q121 0 189 60.5t91 185.5h62l-31 -174q-30 -164 -203 -164h-768z" />
    <glyph glyph-name="currency" unicode="&#xa4;" horiz-adv-x="1243" 
d="M627 1260l-103 -584h123q144 3 235 112.5t91 262.5q0 104 -60.5 161.5t-150.5 57.5q-87 0 -135 -10zM473 389l-67 -389h-267l68 389h-103l17 92h102l19 103h-103l17 92h102q82 446 82 502q0 57 -27.5 84.5t-89.5 27.5h-20l10 62h563q223 0 353.5 -78t130.5 -227
q0 -95 -39 -174.5t-102 -131.5t-146 -88.5t-169 -52.5t-173 -16h-123l-19 -103h512l-16 -92h-512z" />
    <glyph glyph-name="yen" unicode="&#xa5;" horiz-adv-x="1466" 
d="M580 0l47 276h-172l16 93h172l14 82h-172l17 92h170l-264 542q-39 88 -105.5 153.5t-128.5 72.5l8 41h224q189 0 292 -226l205 -419l512 645h133l-598 -756l-10 -53h176l-16 -92h-176l-15 -82h176l-16 -93h-176l-47 -276h-266z" />
    <glyph glyph-name="brokenbar" unicode="&#xa6;" horiz-adv-x="546" 
d="M424 670h-266l127 723h266zM238 -389h-267l127 723h267z" />
    <glyph glyph-name="section" unicode="&#xa7;" horiz-adv-x="925" 
d="M475 256q56 23 88.5 82.5t32.5 134.5q0 65 -44.5 120t-133.5 112q-55 -23 -89 -83t-34 -130q0 -121 180 -236zM279 -410q-53 0 -101.5 8t-98.5 26.5t-80 58t-30 94.5q0 17 3.5 43t8 50.5t5.5 29.5h65v-13q0 -99 46 -151.5t136 -52.5q91 0 147 63t56 162q0 76 -65 137
q-1 1 -31.5 28.5t-56.5 49.5l-50 37q-95 69 -134.5 122.5t-39.5 133.5q0 106 81.5 198t205.5 144q-149 117 -149 250q0 104 57.5 188t153 130t206.5 46q54 0 102 -7.5t97.5 -26.5t79 -58.5t29.5 -95.5q0 -36 -15 -121h-65v6q0 101 -46.5 156t-136.5 55q-91 0 -145.5 -62.5
t-54.5 -162.5q0 -66 36 -112t123 -107q117 -86 166.5 -147.5t49.5 -143.5q0 -107 -79 -195.5t-212 -144.5q153 -111 153 -252q0 -105 -58 -189t-153 -129t-206 -45z" />
    <glyph glyph-name="dieresis" unicode="&#xa8;" horiz-adv-x="577" 
d="M260 1413q-46 0 -71 25t-25 69q0 55 40.5 95t96.5 40q46 0 71 -24t25 -66q0 -56 -40.5 -97.5t-96.5 -41.5zM608 1413q-46 0 -71 25t-25 69q0 55 40.5 95t96.5 40q46 0 71 -24t25 -66q0 -56 -40.5 -97.5t-96.5 -41.5z" />
    <glyph glyph-name="copyright" unicode="&#xa9;" horiz-adv-x="1650" 
d="M729 35q152 0 290.5 64.5t236.5 171t156 248t58 290.5q0 228 -140 368t-374 140q-154 0 -292 -64.5t-235.5 -171.5t-154.5 -249t-57 -293q0 -227 139.5 -365.5t372.5 -138.5zM760 209q-170 0 -268.5 100.5t-98.5 263.5q0 85 26.5 170.5t76 159t114.5 131t148 90.5t170 33
q57 0 108 -7.5t104.5 -27t85 -61t31.5 -100.5q0 -36 -12 -113q0 -3 -1 -5t-1 -5h-63q-2 132 -55 193t-169 61q-76 0 -139.5 -34.5t-105 -90t-70.5 -127t-42 -143t-13 -140.5q0 -130 57 -206.5t170 -76.5q177 0 330 197l45 -37q-85 -120 -187 -172.5t-241 -52.5zM715 -57
q-289 0 -465 165t-176 429q0 176 74 338.5t196.5 278.5t287.5 185.5t341 69.5q289 0 465 -165.5t176 -430.5q0 -175 -74.5 -336.5t-197 -278t-287.5 -186t-340 -69.5z" />
    <glyph glyph-name="ordfeminine" unicode="&#xaa;" horiz-adv-x="661" 
d="M356 862q55 0 107 70l24 137h-32q-65 0 -111.5 -39t-46.5 -102q0 -66 59 -66zM307 811q-74 0 -115.5 28.5t-41.5 84.5q0 57 29.5 98t79.5 61t99.5 28.5t104.5 8.5h33q8 39 8 80q0 100 -72 100q-53 0 -87 -25.5t-54 -80.5h-60q8 43 21.5 72t30.5 46t46 26t58 11.5t76 2.5
q96 0 142 -34.5t46 -121.5q0 -12 -22 -147q-2 -14 -9 -52t-14.5 -83l-15.5 -93h-94l-35 51q-70 -61 -154 -61z" />
    <glyph glyph-name="guillemotleft" unicode="&#xab;" horiz-adv-x="876" 
d="M432 61h-131l-254 400l395 399h131l-270 -397zM694 164h-131l-157 297l262 297h131l-181 -297z" />
    <glyph glyph-name="logicalnot" unicode="&#xac;" horiz-adv-x="1361" 
d="M1180 236h-185l37 215h-932l27 143h1116z" />
    <glyph glyph-name="uni00AD" unicode="&#xad;" horiz-adv-x="813" 
d="M670 444h-572l35 195h572z" />
    <glyph glyph-name="registered" unicode="&#xae;" horiz-adv-x="1650" 
d="M731 41q152 0 289.5 63.5t235.5 169t156 246t58 289.5q0 228 -139.5 365t-376.5 137q-153 0 -291 -63.5t-235 -169t-154 -246.5t-57 -291q0 -227 139.5 -363.5t374.5 -136.5zM799 715q96 0 153.5 64t57.5 165q0 133 -148 133l-49 -2q-4 -2 -20 -2l-64 -354q6 -2 23 -2
q10 -2 47 -2zM1077 242q-78 0 -125 41t-94 151l-98 221h-41l-70 -399h-180l127 721q8 31 8 67q0 60 -47 60h-37l4 33h355q323 0 323 -199q0 -102 -67 -170t-187 -100l101 -226q36 -80 68 -115.5t75 -41.5l-4 -29q-14 -14 -111 -14zM715 -51q-289 0 -465 163t-176 425
q0 176 73.5 337.5t195.5 276.5t287 183.5t341 68.5q288 0 465.5 -163.5t177.5 -426.5q0 -175 -74.5 -336t-198 -276t-288 -183.5t-338.5 -68.5z" />
    <glyph glyph-name="macron" unicode="&#xaf;" horiz-adv-x="1011" 
d="M922 1141h-572v174h572v-174z" />
    <glyph glyph-name="degree" unicode="&#xb0;" horiz-adv-x="856" 
d="M457 737q-141 0 -219 70t-78 190q0 166 115 281t296 115q141 0 219 -70t78 -190q0 -166 -115 -281t-296 -115zM477 860q91 0 158 74.5t67 175.5q0 72 -41.5 116t-109.5 44q-89 0 -157 -74t-68 -174q0 -73 41.5 -117.5t109.5 -44.5z" />
    <glyph glyph-name="plusminus" unicode="&#xb1;" horiz-adv-x="1193" 
d="M1016 113h-991l26 143h404l61 348h-403l24 144h404l69 399h185l-70 -399h403l-24 -144h-404l-61 -348h403z" />
    <glyph glyph-name="twosuperior" unicode="&#xb2;" horiz-adv-x="653" 
d="M143 772l9 47q32 29 129 113q100 85 142 129t66 94q25 55 25 123q0 42 -19 60t-57 18q-120 0 -178 -162h-33q9 46 13.5 66t13.5 42t22 35q33 33 86.5 53.5t112.5 20.5q85 0 136 -34t51 -105q0 -115 -101 -209q-47 -41 -129 -105q-80 -57 -162 -131h166q117 0 131 91h31
l-12 -72q-12 -74 -92 -74h-351z" />
    <glyph glyph-name="threesuperior" unicode="&#xb3;" horiz-adv-x="624" 
d="M346 752q-77 0 -126.5 25.5t-82.5 78.5l33 25q56 -74 158 -74q52 0 94.5 50t42.5 122q0 94 -103 94q-44 0 -90 -12l-22 57l280 219h-159q-104 0 -119 -88h-27l13 68q12 76 92 76h313l-6 -37l-303 -236q31 8 82 8q84 0 140 -39t56 -110q0 -57 -27.5 -103t-69.5 -72
t-86 -39t-83 -13z" />
    <glyph glyph-name="acute" unicode="&#xb4;" horiz-adv-x="411" 
d="M303 1434h-113l138 286h243z" />
    <glyph glyph-name="uni00B5" unicode="&#xb5;" horiz-adv-x="1130" 
d="M-39 -389l238 1352h266l-84 -482q-19 -114 -19 -186q0 -223 142 -223q116 0 196 133l134 758h266l-168 -963h-174l-58 92h-10q-26 -33 -63 -57q-73 -55 -170 -55q-117 0 -189 92l-82 -461h-225z" />
    <glyph glyph-name="paragraph" unicode="&#xb6;" horiz-adv-x="1302" 
d="M356 -389l166 942q-179 0 -293 93.5t-114 240.5q0 104 48.5 193.5t127 148t176 91t197.5 32.5h696l-17 -92h-112l-291 -1649h-246l291 1649h-92l-291 -1649h-246z" />
    <glyph glyph-name="periodcentered" unicode="&#xb7;" horiz-adv-x="464" 
d="M227 553q-104 0 -104 96q0 63 42 108.5t107 45.5q105 0 105 -96q0 -63 -42.5 -108.5t-107.5 -45.5z" />
    <glyph glyph-name="cedilla" unicode="&#xb8;" horiz-adv-x="409" 
d="M-96 -422l16 94h103q38 0 64 20.5t30 55.5q0 57 -70 57h-92l35 195h133l-19 -102q75 0 116.5 -34.5t41.5 -94.5q0 -84 -63.5 -137.5t-151.5 -53.5h-143z" />
    <glyph glyph-name="onesuperior" unicode="&#xb9;" horiz-adv-x="436" 
d="M344 772h-147l86 485l-78 -40l-25 45l162 131h111z" />
    <glyph glyph-name="ordmasculine" unicode="&#xba;" horiz-adv-x="692" 
d="M385 803q48 0 84.5 50t54.5 124t26.5 139t8.5 115q0 129 -76 129q-49 0 -86 -52t-54.5 -127.5t-25.5 -139.5t-8 -109q0 -129 76 -129zM375 752q-103 0 -155 63t-52 172q0 74 21 148t60 136t102.5 101t140.5 39q103 0 155.5 -61.5t52.5 -169.5q0 -60 -12.5 -119.5
t-39.5 -115.5t-64.5 -98.5t-91.5 -68.5t-117 -26z" />
    <glyph glyph-name="guillemotright" unicode="&#xbb;" horiz-adv-x="874" 
d="M397 61h-131l269 402l-127 397h131l252 -399zM172 164h-131l178 297l-74 297h131l156 -297z" />
    <glyph glyph-name="onequarter" unicode="&#xbc;" horiz-adv-x="1267" 
d="M676 205h217l53 299zM1100 150h-70l-24 -150h-148l25 150h-297l10 49l381 424h137l-74 -418h70zM414 1393h110l-108 -621h-148l86 485l-78 -40l-24 45zM1124 1352h195l-1169 -1352h-195z" />
    <glyph glyph-name="onehalf" unicode="&#xbd;" horiz-adv-x="1296" 
d="M414 1393h110l-108 -621h-148l86 485l-78 -40l-24 45zM1124 1352h195l-1169 -1352h-195zM1014 0h-350l8 47l59 49q155 125 228 218t73 194q0 40 -18 58t-56 18q-120 0 -178 -162h-32q17 105 47 143q81 74 200 74q83 0 134 -34.5t51 -104.5q0 -130 -146 -254
q-49 -44 -155 -123q-57 -39 -91 -68h166q58 0 90.5 21t42.5 69h31l-12 -71q-12 -74 -92 -74z" />
    <glyph glyph-name="threequarters" unicode="&#xbe;" horiz-adv-x="1284" 
d="M694 205h217l54 299zM1118 150h-69l-25 -150h-147l24 150h-297l10 49l381 424h138l-74 -418h69zM336 752q-77 0 -126.5 25.5t-82.5 78.5l33 25q56 -74 157 -74q59 0 98.5 51t39.5 121q0 94 -103 94q-44 0 -90 -12l-22 57l280 219h-160q-103 0 -118 -88h-27l12 68
q12 76 92 76h314l-6 -37l-303 -236q31 8 82 8q84 0 140 -39t56 -110q0 -102 -80.5 -164.5t-185.5 -62.5zM1163 1352h195l-1170 -1352h-194z" />
    <glyph glyph-name="questiondown" unicode="&#xbf;" horiz-adv-x="1007" 
d="M561 737q-49 0 -76.5 25.5t-27.5 68.5q0 65 41.5 110.5t105.5 45.5q53 0 80 -26t27 -72q0 -62 -44 -107t-106 -45zM315 -434q-172 0 -274 83.5t-102 231.5q0 62 16.5 118t39 96.5t65 86.5t75 74.5t88.5 73.5q123 100 176.5 163t75.5 146h139q-22 -83 -64 -155t-124 -177
q-102 -125 -152.5 -226.5t-50.5 -230.5q0 -192 170 -192q128 0 233 96t175 289h61q-26 -138 -47.5 -203t-62.5 -106q-72 -76 -198 -122t-239 -46z" />
    <glyph glyph-name="Agrave" unicode="&#xc0;" horiz-adv-x="1325" 
d="M324 465h462l-131 534zM1192 -8q-67 0 -121.5 13t-102 42t-81.5 82.5t-51 128.5l-27 115h-545l-233 -373h-107l842 1352h92l266 -1094q49 -190 176 -205l-8 -51q-42 -10 -100 -10zM598 1751h244l35 -287h-113z" />
    <glyph glyph-name="Aacute" unicode="&#xc1;" horiz-adv-x="1325" 
d="M324 465h462l-131 534zM1192 -8q-67 0 -121.5 13t-102 42t-81.5 82.5t-51 128.5l-27 115h-545l-233 -373h-107l842 1352h92l266 -1094q49 -190 176 -205l-8 -51q-42 -10 -100 -10zM913 1720h244l-268 -286h-113z" />
    <glyph glyph-name="Acircumflex" unicode="&#xc2;" horiz-adv-x="1325" 
d="M324 465h462l-131 534zM1192 -8q-67 0 -121.5 13t-102 42t-81.5 82.5t-51 128.5l-27 115h-545l-233 -373h-107l842 1352h92l266 -1094q49 -190 176 -205l-8 -51q-42 -10 -100 -10zM989 1403l-145 164l-203 -164h-123l209 256h266l119 -256h-123z" />
    <glyph glyph-name="Atilde" unicode="&#xc3;" horiz-adv-x="1325" 
d="M324 465h462l-131 534zM1192 -8q-67 0 -121.5 13t-102 42t-81.5 82.5t-51 128.5l-27 115h-545l-233 -373h-107l842 1352h92l266 -1094q49 -190 176 -205l-8 -51q-42 -10 -100 -10zM672 1434h-82q23 112 64.5 158t111.5 46q33 0 54 -10.5t54 -38.5q39 -33 66 -33
q32 0 56.5 24.5t29.5 57.5h82q-23 -112 -63.5 -158t-110.5 -46q-56 0 -111 49q-11 11 -31 22t-34 11q-31 0 -55.5 -24.5t-30.5 -57.5z" />
    <glyph glyph-name="Adieresis" unicode="&#xc4;" horiz-adv-x="1325" 
d="M324 465h462l-131 534zM1192 -8q-67 0 -121.5 13t-102 42t-81.5 82.5t-51 128.5l-27 115h-545l-233 -373h-107l842 1352h92l266 -1094q49 -190 176 -205l-8 -51q-42 -10 -100 -10zM655 1485q-46 0 -71 25t-25 65q0 56 40.5 97.5t96.5 41.5q46 0 71.5 -25t25.5 -69
q0 -54 -41.5 -94.5t-96.5 -40.5zM1024 1485q-46 0 -71 25t-25 65q0 56 40.5 97.5t96.5 41.5q46 0 71 -25t25 -69q0 -54 -41 -94.5t-96 -40.5z" />
    <glyph glyph-name="Aring" unicode="&#xc5;" horiz-adv-x="1325" 
d="M324 465h462l-131 534zM766 1352h92q64 36 64 114q0 37 -20.5 58.5t-55.5 21.5q-47 0 -80 -38t-33 -89q0 -41 33 -67zM1192 -8q-67 0 -121.5 13t-102 42t-81.5 82.5t-51 128.5l-27 115h-545l-233 -373h-107l789 1268q-84 48 -84 141q0 90 70 159.5t163 69.5
q73 0 118.5 -43t45.5 -112q0 -67 -39.5 -125t-107.5 -90l245 -1010q49 -190 176 -205l-8 -51q-42 -10 -100 -10z" />
    <glyph glyph-name="AE" unicode="&#xc6;" horiz-adv-x="1787" 
d="M342 481h395l125 705zM274 389l-286 -389h-123l995 1352h770q150 0 150 -119q0 -17 -35 -219h-62q7 44 7 67q0 179 -220 179h-329l-90 -512h532l-16 -93h-533l-100 -563h350q120 0 207 54t160 180l51 -21l-88 -162q-44 -79 -86 -111t-117 -32h-758l68 389h-447z" />
    <glyph glyph-name="Ccedilla" unicode="&#xc7;" horiz-adv-x="1392" 
d="M475 -422l17 94h102q38 0 64 20.5t30 55.5q0 57 -70 57h-92l29 160q-226 24 -351.5 169t-125.5 370q0 163 64.5 324t172 285.5t261.5 202t321 77.5q176 0 330 -60q149 -61 149 -217q0 -78 -24 -201h-62q-5 189 -93 287t-255 98q-120 0 -220 -52.5t-165.5 -137
t-110.5 -194.5t-64.5 -221t-19.5 -220q0 -199 90 -311.5t271 -112.5q144 0 278 76.5t230 216.5l61 -55q-123 -166 -266.5 -244t-339.5 -84l-10 -63q75 0 116.5 -34.5t41.5 -94.5q0 -84 -62 -137.5t-154 -53.5h-143z" />
    <glyph glyph-name="Egrave" unicode="&#xc8;" horiz-adv-x="1232" 
d="M829 1464h-112l-166 287h244zM856 0h-758q149 851 158 903q43 249 43 275q0 58 -27.5 85t-89.5 27h-20l10 62h903q150 0 150 -119q0 -17 -35 -219h-62q7 44 7 67q0 179 -220 179h-329l-90 -512h532l-16 -93h-533l-100 -563h350q120 0 207 54t160 180l51 -21l-88 -162
q-44 -79 -86 -111t-117 -32z" />
    <glyph glyph-name="Eacute" unicode="&#xc9;" horiz-adv-x="1232" 
d="M844 1434h-113l137 286h244zM856 0h-758q149 851 158 903q43 249 43 275q0 58 -27.5 85t-89.5 27h-20l10 62h903q150 0 150 -119q0 -17 -35 -219h-62q7 44 7 67q0 179 -220 179h-329l-90 -512h532l-16 -93h-533l-100 -563h350q120 0 207 54t160 180l51 -21l-88 -162
q-44 -79 -86 -111t-117 -32z" />
    <glyph glyph-name="Ecircumflex" unicode="&#xca;" horiz-adv-x="1232" 
d="M616 1479h-122l208 256h267l118 -256h-122l-146 163zM856 0h-758q149 851 158 903q43 249 43 275q0 58 -27.5 85t-89.5 27h-20l10 62h903q150 0 150 -119q0 -17 -35 -219h-62q7 44 7 67q0 179 -220 179h-329l-90 -512h532l-16 -93h-533l-100 -563h350q120 0 207 54
t160 180l51 -21l-88 -162q-44 -79 -86 -111t-117 -32z" />
    <glyph glyph-name="Edieresis" unicode="&#xcb;" horiz-adv-x="1232" 
d="M608 1485q-46 0 -71 25t-25 65q0 56 40.5 97.5t96.5 41.5q46 0 71 -25t25 -69q0 -54 -41 -94.5t-96 -40.5zM977 1485q-46 0 -71 25t-25 65q0 56 40.5 97.5t96.5 41.5q46 0 71 -25t25 -69q0 -54 -41 -94.5t-96 -40.5zM856 0h-758q149 851 158 903q43 249 43 275
q0 58 -27.5 85t-89.5 27h-20l10 62h903q150 0 150 -119q0 -17 -35 -219h-62q7 44 7 67q0 179 -220 179h-329l-90 -512h532l-16 -93h-533l-100 -563h350q120 0 207 54t160 180l51 -21l-88 -162q-44 -79 -86 -111t-117 -32z" />
    <glyph glyph-name="Igrave" unicode="&#xcc;" horiz-adv-x="628" 
d="M487 1464h-112l-166 287h244zM496 0h-246q-82 0 -117 32t-35 109q0 45 13 125l192 1086h266l-192 -1086q-8 -39 -8 -88q0 -59 27.5 -88t88.5 -29h21z" />
    <glyph glyph-name="Iacute" unicode="&#xcd;" horiz-adv-x="628" 
d="M498 1434h-113l137 286h244zM496 0h-246q-82 0 -117 32t-35 109q0 45 13 125l192 1086h266l-192 -1086q-8 -39 -8 -88q0 -59 27.5 -88t88.5 -29h21z" />
    <glyph glyph-name="Icircumflex" unicode="&#xce;" horiz-adv-x="628" 
d="M272 1403h-122l208 256h267l118 -256h-122l-146 164zM496 0h-246q-82 0 -117 32t-35 109q0 45 13 125l192 1086h266l-192 -1086q-8 -39 -8 -88q0 -59 27.5 -88t88.5 -29h21z" />
    <glyph glyph-name="Idieresis" unicode="&#xcf;" horiz-adv-x="628" 
d="M266 1485q-46 0 -71 25t-25 65q0 56 40.5 97.5t96.5 41.5q46 0 71 -25t25 -69q0 -54 -41 -94.5t-96 -40.5zM635 1485q-46 0 -71 25t-25 65q0 56 40.5 97.5t96.5 41.5q46 0 71 -25t25 -69q0 -54 -41 -94.5t-96 -40.5zM496 0h-246q-82 0 -117 32t-35 109q0 45 13 125
l192 1086h266l-192 -1086q-8 -39 -8 -88q0 -59 27.5 -88t88.5 -29h21z" />
    <glyph glyph-name="Eth" unicode="&#xd0;" horiz-adv-x="1509" 
d="M532 82h21q112 0 211 44t170.5 118t124 170t78.5 201t26 210q0 205 -108 325t-297 120h-17q-72 0 -108 -8l-47 -7l-94 -528h153l-18 -102h-154l-92 -529l45 -8q27 -6 106 -6zM545 0h-447l109 625h-144l19 102h143q74 405 74 451q0 58 -27.5 85t-89.5 27h-20l10 62h557
q361 0 550 -137.5t189 -391.5q0 -153 -49.5 -285.5t-137 -230t-204 -167.5t-252 -105t-280.5 -35z" />
    <glyph glyph-name="Ntilde" unicode="&#xd1;" horiz-adv-x="1423" 
d="M719 1421h-82q23 112 64.5 158.5t111.5 46.5q33 0 54.5 -10.5t54.5 -38.5q39 -33 65 -33q32 0 56.5 24.5t29.5 57.5h82q-23 -113 -64 -159t-110 -46q-56 0 -111 49q-11 11 -31 22t-34 11q-31 0 -55.5 -24.5t-30.5 -57.5zM1073 -6l-688 1020l-178 -1014h-103l109 618
q92 528 92 541q0 131 -158 131h-10l10 62h144q114 0 182 -29.5t105 -93.5l561 -819l166 942h102l-240 -1358h-94z" />
    <glyph glyph-name="Ograve" unicode="&#xd2;" horiz-adv-x="1505" 
d="M662 51q94 0 174 41t135.5 110.5t98 156t66.5 183t36 185.5t12 170q0 195 -78 299t-225 104q-93 0 -172.5 -41.5t-135 -111.5t-98 -156.5t-67 -183.5t-36.5 -185.5t-12 -168.5q0 -193 77.5 -297.5t224.5 -104.5zM645 -41q-259 0 -411 156.5t-152 408.5q0 132 39.5 261
t114 238t173.5 192.5t225.5 130.5t262.5 47q259 0 411 -156.5t152 -409.5q0 -132 -39.5 -261t-114 -237.5t-173.5 -192t-225.5 -130.5t-262.5 -47zM932 1751l35 -287h-113l-166 287h244z" />
    <glyph glyph-name="Oacute" unicode="&#xd3;" horiz-adv-x="1505" 
d="M662 51q94 0 174 41t135.5 110.5t98 156t66.5 183t36 185.5t12 170q0 195 -78 299t-225 104q-93 0 -172.5 -41.5t-135 -111.5t-98 -156.5t-67 -183.5t-36.5 -185.5t-12 -168.5q0 -193 77.5 -297.5t224.5 -104.5zM645 -41q-259 0 -411 156.5t-152 408.5q0 132 39.5 261
t114 238t173.5 192.5t225.5 130.5t262.5 47q259 0 411 -156.5t152 -409.5q0 -132 -39.5 -261t-114 -237.5t-173.5 -192t-225.5 -130.5t-262.5 -47zM1235 1769l-268 -286h-113l137 286h244z" />
    <glyph glyph-name="Ocircumflex" unicode="&#xd4;" horiz-adv-x="1505" 
d="M662 51q94 0 174 41t135.5 110.5t98 156t66.5 183t36 185.5t12 170q0 195 -78 299t-225 104q-93 0 -172.5 -41.5t-135 -111.5t-98 -156.5t-67 -183.5t-36.5 -185.5t-12 -168.5q0 -193 77.5 -297.5t224.5 -104.5zM645 -41q-259 0 -411 156.5t-152 408.5q0 132 39.5 261
t114 238t173.5 192.5t225.5 130.5t262.5 47q259 0 411 -156.5t152 -409.5q0 -132 -39.5 -261t-114 -237.5t-173.5 -192t-225.5 -130.5t-262.5 -47zM1100 1495l-146 164l-202 -164h-123l209 256h266l119 -256h-123z" />
    <glyph glyph-name="Otilde" unicode="&#xd5;" horiz-adv-x="1505" 
d="M662 51q94 0 174 41t135.5 110.5t98 156t66.5 183t36 185.5t12 170q0 195 -78 299t-225 104q-93 0 -172.5 -41.5t-135 -111.5t-98 -156.5t-67 -183.5t-36.5 -185.5t-12 -168.5q0 -193 77.5 -297.5t224.5 -104.5zM645 -41q-259 0 -411 156.5t-152 408.5q0 132 39.5 261
t114 238t173.5 192.5t225.5 130.5t262.5 47q259 0 411 -156.5t152 -409.5q0 -132 -39.5 -261t-114 -237.5t-173.5 -192t-225.5 -130.5t-262.5 -47zM760 1511h-82q23 112 64.5 158.5t111.5 46.5q33 0 54.5 -10.5t54.5 -38.5q39 -33 65 -33q32 0 56.5 24.5t29.5 57.5h82
q-23 -113 -64 -159t-110 -46q-55 0 -111 50q-10 10 -30.5 21t-34.5 11q-31 0 -55.5 -24.5t-30.5 -57.5z" />
    <glyph glyph-name="Odieresis" unicode="&#xd6;" horiz-adv-x="1505" 
d="M662 51q94 0 174 41t135.5 110.5t98 156t66.5 183t36 185.5t12 170q0 195 -78 299t-225 104q-93 0 -172.5 -41.5t-135 -111.5t-98 -156.5t-67 -183.5t-36.5 -185.5t-12 -168.5q0 -193 77.5 -297.5t224.5 -104.5zM645 -41q-259 0 -411 156.5t-152 408.5q0 132 39.5 261
t114 238t173.5 192.5t225.5 130.5t262.5 47q259 0 411 -156.5t152 -409.5q0 -132 -39.5 -261t-114 -237.5t-173.5 -192t-225.5 -130.5t-262.5 -47zM745 1485q-46 0 -71 25t-25 65q0 56 40.5 97.5t96.5 41.5q46 0 71.5 -25t25.5 -69q0 -54 -41.5 -94.5t-96.5 -40.5z
M1114 1485q-46 0 -71 25t-25 65q0 56 40.5 97.5t96.5 41.5q46 0 71 -25t25 -69q0 -54 -41 -94.5t-96 -40.5z" />
    <glyph glyph-name="multiply" unicode="&#xd7;" horiz-adv-x="1003" 
d="M500 555l-336 -285l-107 129l334 285l-231 283l153 131l234 -283l334 285l108 -129l-338 -287l234 -283l-154 -129z" />
    <glyph glyph-name="Oslash" unicode="&#xd8;" horiz-adv-x="1503" 
d="M375 297l715 917q-80 86 -209 86q-93 0 -173 -42t-135.5 -112.5t-97.5 -158.5t-66.5 -185.5t-36.5 -186.5t-12 -169q0 -66 15 -149zM662 51q94 0 174 41t135.5 110.5t98 156t66.5 183t36 185.5t12 170q0 94 -19 172l-721 -926q77 -92 218 -92zM354 27l-53 -68h-188
l118 156q-149 149 -149 405q0 166 63 324.5t169.5 279.5t259.5 195t323 74q164 0 283 -64l47 64h188l-115 -150q158 -152 158 -418q0 -165 -63 -322.5t-170 -277.5t-259.5 -193t-320.5 -73q-164 0 -291 68z" />
    <glyph glyph-name="Ugrave" unicode="&#xd9;" horiz-adv-x="1427" 
d="M928 1464h-113l-166 287h244zM641 -20q-239 0 -352 102.5t-113 316.5q0 37 19 164q22 142 88 522q10 72 10 93q0 58 -27.5 85t-89.5 27l10 62h226q82 0 116.5 -31.5t34.5 -106.5q0 -69 -14 -129q-77 -455 -92 -559q-21 -126 -21 -170q0 -148 59 -221.5t185 -73.5
q221 0 339.5 124.5t168.5 404.5l135 762h102l-135 -762q-52 -309 -206 -459.5t-443 -150.5z" />
    <glyph glyph-name="Uacute" unicode="&#xda;" horiz-adv-x="1427" 
d="M950 1395h-112l137 286h244zM641 -20q-239 0 -352 102.5t-113 316.5q0 37 19 164q22 142 88 522q10 72 10 93q0 58 -27.5 85t-89.5 27l10 62h226q82 0 116.5 -31.5t34.5 -106.5q0 -69 -14 -129q-77 -455 -92 -559q-21 -126 -21 -170q0 -148 59 -221.5t185 -73.5
q221 0 339.5 124.5t168.5 404.5l135 762h102l-135 -762q-52 -309 -206 -459.5t-443 -150.5z" />
    <glyph glyph-name="Ucircumflex" unicode="&#xdb;" horiz-adv-x="1427" 
d="M768 1395h-123l209 256h266l119 -256h-123l-145 164zM641 -20q-239 0 -352 102.5t-113 316.5q0 37 19 164q22 142 88 522q10 72 10 93q0 58 -27.5 85t-89.5 27l10 62h226q82 0 116.5 -31.5t34.5 -106.5q0 -69 -14 -129q-77 -455 -92 -559q-21 -126 -21 -170
q0 -148 59 -221.5t185 -73.5q221 0 339.5 124.5t168.5 404.5l135 762h102l-135 -762q-52 -309 -206 -459.5t-443 -150.5z" />
    <glyph glyph-name="Udieresis" unicode="&#xdc;" horiz-adv-x="1427" 
d="M707 1485q-46 0 -71.5 25t-25.5 65q0 56 40.5 97.5t97.5 41.5q46 0 71 -25t25 -69q0 -54 -41 -94.5t-96 -40.5zM1075 1485q-46 0 -71 25t-25 65q0 56 40.5 97.5t96.5 41.5q46 0 71 -25t25 -69q0 -54 -41 -94.5t-96 -40.5zM641 -20q-239 0 -352 102.5t-113 316.5
q0 37 19 164q22 142 88 522q10 72 10 93q0 58 -27.5 85t-89.5 27l10 62h226q82 0 116.5 -31.5t34.5 -106.5q0 -69 -14 -129q-77 -455 -92 -559q-21 -126 -21 -170q0 -148 59 -221.5t185 -73.5q221 0 339.5 124.5t168.5 404.5l135 762h102l-135 -762q-52 -309 -206 -459.5
t-443 -150.5z" />
    <glyph glyph-name="Yacute" unicode="&#xdd;" horiz-adv-x="1308" 
d="M897 1374h-113l138 287h243zM465 0l94 541l-266 544q-39 88 -105.5 153.5t-128.5 72.5l9 41h223q99 0 172 -61t121 -165l204 -419l512 645h134l-598 -756l-105 -596h-266z" />
    <glyph glyph-name="Thorn" unicode="&#xde;" horiz-adv-x="1140" 
d="M551 1032l-135 -776q198 15 311 150t113 337q0 268 -289 289zM399 164l-41 -225h-266q140 785 187 1058q36 209 36 242q0 58 -27 85.5t-89 27.5h-21l10 61h246q82 0 117 -31t35 -106q0 -53 -19 -150q559 -12 559 -383q0 -124 -41 -221.5t-108.5 -161t-163.5 -106.5
t-196.5 -63.5t-217.5 -26.5z" />
    <glyph glyph-name="germandbls" unicode="&#xdf;" horiz-adv-x="1175" 
d="M676 -20q-49 0 -92.5 8t-85.5 27t-67 55.5t-25 87.5q0 43 10 88h61v-8q0 -71 46 -118.5t128 -47.5q69 0 118.5 47t49.5 119q0 56 -33.5 97t-113.5 97q-92 68 -130 118.5t-38 121.5t34.5 125t116.5 129q79 74 111.5 124t32.5 115q0 55 -31.5 85t-87.5 30q-162 0 -209 -256
l-180 -1024h-266l180 1024q34 193 155.5 270.5t346.5 77.5q354 0 354 -176q0 -86 -44.5 -146.5t-146.5 -136.5q-78 -58 -109.5 -97t-31.5 -87q0 -56 36.5 -96t129.5 -101q104 -70 147 -120.5t43 -124.5q0 -93 -61.5 -165t-153.5 -107t-194 -35z" />
    <glyph glyph-name="agrave" unicode="&#xe0;" 
d="M463 72q115 0 207 133l98 553q-20 58 -62.5 95.5t-99.5 37.5q-62 0 -113.5 -47.5t-82.5 -117t-52.5 -154.5t-30 -155t-8.5 -122q0 -223 144 -223zM406 -20q-173 0 -265 99.5t-92 268.5q0 113 38 225.5t105.5 204t169.5 148.5t220 57q68 0 126 -28.5t89 -84.5h10l88 93
h174l-168 -963h-174l-57 92h-11q-43 -55 -111 -83.5t-142 -28.5zM449 1362h243l35 -287h-113z" />
    <glyph glyph-name="aacute" unicode="&#xe1;" 
d="M463 72q115 0 207 133l98 553q-20 58 -62.5 95.5t-99.5 37.5q-62 0 -113.5 -47.5t-82.5 -117t-52.5 -154.5t-30 -155t-8.5 -122q0 -223 144 -223zM406 -20q-173 0 -265 99.5t-92 268.5q0 113 38 225.5t105.5 204t169.5 148.5t220 57q68 0 126 -28.5t89 -84.5h10l88 93
h174l-168 -963h-174l-57 92h-11q-43 -55 -111 -83.5t-142 -28.5zM731 1364h244l-268 -287h-113z" />
    <glyph glyph-name="acircumflex" unicode="&#xe2;" 
d="M463 72q115 0 207 133l98 553q-20 58 -62.5 95.5t-99.5 37.5q-62 0 -113.5 -47.5t-82.5 -117t-52.5 -154.5t-30 -155t-8.5 -122q0 -223 144 -223zM406 -20q-173 0 -265 99.5t-92 268.5q0 113 38 225.5t105.5 204t169.5 148.5t220 57q68 0 126 -28.5t89 -84.5h10l88 93
h174l-168 -963h-174l-57 92h-11q-43 -55 -111 -83.5t-142 -28.5zM827 1087l-145 164l-203 -164h-123l209 256h266l119 -256h-123z" />
    <glyph glyph-name="atilde" unicode="&#xe3;" 
d="M463 72q115 0 207 133l98 553q-20 58 -62.5 95.5t-99.5 37.5q-62 0 -113.5 -47.5t-82.5 -117t-52.5 -154.5t-30 -155t-8.5 -122q0 -223 144 -223zM406 -20q-173 0 -265 99.5t-92 268.5q0 113 38 225.5t105.5 204t169.5 148.5t220 57q68 0 126 -28.5t89 -84.5h10l88 93
h174l-168 -963h-174l-57 92h-11q-43 -55 -111 -83.5t-142 -28.5zM528 1098h-82q23 112 65 158.5t112 46.5q33 0 53.5 -11t54.5 -39q38 -32 66 -32q32 0 56.5 24.5t29.5 57.5h82q-23 -113 -64 -159t-110 -46q-56 0 -111 49q-10 10 -31 21.5t-35 11.5q-31 0 -55.5 -24.5
t-30.5 -57.5z" />
    <glyph glyph-name="adieresis" unicode="&#xe4;" 
d="M463 72q115 0 207 133l98 553q-20 58 -62.5 95.5t-99.5 37.5q-62 0 -113.5 -47.5t-82.5 -117t-52.5 -154.5t-30 -155t-8.5 -122q0 -223 144 -223zM406 -20q-173 0 -265 99.5t-92 268.5q0 113 38 225.5t105.5 204t169.5 148.5t220 57q68 0 126 -28.5t89 -84.5h10l88 93
h174l-168 -963h-174l-57 92h-11q-43 -55 -111 -83.5t-142 -28.5zM506 1096q-46 0 -71 25t-25 65q0 56 40.5 97.5t96.5 41.5q46 0 71 -25t25 -69q0 -54 -41 -94.5t-96 -40.5zM874 1096q-46 0 -71 25t-25 65q0 56 40.5 97.5t96.5 41.5q47 0 72 -25.5t25 -68.5
q0 -54 -41.5 -94.5t-96.5 -40.5z" />
    <glyph glyph-name="aring" unicode="&#xe5;" 
d="M463 72q115 0 207 133l98 553q-20 58 -62.5 95.5t-99.5 37.5q-62 0 -113.5 -47.5t-82.5 -117t-52.5 -154.5t-30 -155t-8.5 -122q0 -223 144 -223zM694 1157q47 0 80 37t33 88q0 37 -20.5 58.5t-55.5 21.5q-47 0 -80 -37t-33 -88q0 -37 20.5 -58.5t55.5 -21.5zM406 -20
q-173 0 -265 99.5t-92 268.5q0 113 38 225.5t105.5 204t169.5 148.5t220 57q68 0 126 -28.5t89 -84.5h10l88 93h174l-168 -963h-174l-57 92h-11q-43 -55 -111 -83.5t-142 -28.5zM678 1065q-73 0 -118.5 43.5t-45.5 112.5q0 92 69.5 162.5t164.5 70.5q73 0 118 -43.5
t45 -112.5q0 -92 -69 -162.5t-164 -70.5z" />
    <glyph glyph-name="ae" unicode="&#xe6;" horiz-adv-x="1622" 
d="M385 82q83 0 154 65q30 23 53 68l41 229h-31q-156 0 -241 -55.5t-85 -183.5q0 -57 28 -90t81 -33zM932 522h215q77 0 121.5 58t44.5 151q0 73 -34.5 116.5t-86.5 43.5q-89 0 -157.5 -92.5t-102.5 -276.5zM326 -20q-159 0 -242.5 57.5t-83.5 161.5q0 197 182 268
q180 70 436 70h31q15 71 15 147q0 207 -158 207q-84 0 -141 -41.5t-97 -142.5h-112q14 79 32.5 124t55.5 80q36 35 114 53.5t164 18.5q126 0 210.5 -48.5t115.5 -137.5q73 91 166 138.5t194 47.5q177 0 274 -67.5t97 -186.5q0 -299 -446 -299h-215l-3 -6q-12 -70 -12 -127
q0 -225 176 -225q94 0 168 41.5t154 128.5l55 -47q-83 -102 -184 -158.5t-240 -56.5q-227 0 -315 184q-59 -82 -160.5 -133t-230.5 -51z" />
    <glyph glyph-name="ccedilla" unicode="&#xe7;" horiz-adv-x="1019" 
d="M315 -385l17 94h82q38 0 64 20.5t30 55.5q0 57 -70 57h-80l25 144q-163 23 -247.5 122.5t-84.5 260.5q0 165 76.5 306t213 224.5t300.5 83.5q135 0 236 -29q96 -30 96 -135q0 -56 -27 -194h-61q2 10 2 49q0 108 -59.5 162.5t-172.5 54.5q-71 0 -129.5 -40t-95 -102
t-62 -140t-36 -150t-10.5 -137q0 -250 200 -250q94 0 168 41.5t154 128.5l55 -47q-53 -64 -104 -106.5t-126 -72.5t-165 -34l-8 -48q70 0 110.5 -33.5t40.5 -93.5q0 -80 -61 -136t-148 -56h-123z" />
    <glyph glyph-name="egrave" unicode="&#xe8;" horiz-adv-x="1040" 
d="M342 502h215q54 0 94.5 40.5t58 93t17.5 105.5q0 71 -35 110.5t-88 39.5q-198 0 -262 -389zM444 -20q-183 0 -288 107t-105 286q0 163 72 302.5t203.5 223.5t294.5 84q182 0 282.5 -66t100.5 -184q0 -72 -29 -129t-75 -92.5t-108 -59t-124 -33t-127 -9.5h-215
q-13 -70 -13 -115q0 -109 46.5 -166t132.5 -57q94 0 167.5 41.5t153.5 128.5l55 -47q-83 -102 -184 -158.5t-240 -56.5zM446 1362h244l35 -287h-113z" />
    <glyph glyph-name="eacute" unicode="&#xe9;" horiz-adv-x="1040" 
d="M342 502h215q54 0 94.5 40.5t58 93t17.5 105.5q0 71 -35 110.5t-88 39.5q-198 0 -262 -389zM444 -20q-183 0 -288 107t-105 286q0 163 72 302.5t203.5 223.5t294.5 84q182 0 282.5 -66t100.5 -184q0 -72 -29 -129t-75 -92.5t-108 -59t-124 -33t-127 -9.5h-215
q-13 -70 -13 -115q0 -109 46.5 -166t132.5 -57q94 0 167.5 41.5t153.5 128.5l55 -47q-83 -102 -184 -158.5t-240 -56.5zM698 1364h244l-268 -287h-113z" />
    <glyph glyph-name="ecircumflex" unicode="&#xea;" horiz-adv-x="1040" 
d="M342 502h215q54 0 94.5 40.5t58 93t17.5 105.5q0 71 -35 110.5t-88 39.5q-198 0 -262 -389zM444 -20q-183 0 -288 107t-105 286q0 163 72 302.5t203.5 223.5t294.5 84q182 0 282.5 -66t100.5 -184q0 -72 -29 -129t-75 -92.5t-108 -59t-124 -33t-127 -9.5h-215
q-13 -70 -13 -115q0 -109 46.5 -166t132.5 -57q94 0 167.5 41.5t153.5 128.5l55 -47q-83 -102 -184 -158.5t-240 -56.5zM823 1077l-145 164l-203 -164h-123l209 256h266l119 -256h-123z" />
    <glyph glyph-name="edieresis" unicode="&#xeb;" horiz-adv-x="1040" 
d="M342 502h215q54 0 94.5 40.5t58 93t17.5 105.5q0 71 -35 110.5t-88 39.5q-198 0 -262 -389zM444 -20q-183 0 -288 107t-105 286q0 163 72 302.5t203.5 223.5t294.5 84q182 0 282.5 -66t100.5 -184q0 -72 -29 -129t-75 -92.5t-108 -59t-124 -33t-127 -9.5h-215
q-13 -70 -13 -115q0 -109 46.5 -166t132.5 -57q94 0 167.5 41.5t153.5 128.5l55 -47q-83 -102 -184 -158.5t-240 -56.5zM504 1096q-46 0 -71 25t-25 65q0 56 40.5 97.5t96.5 41.5q46 0 71 -25t25 -69q0 -54 -41 -94.5t-96 -40.5zM872 1096q-46 0 -71 25t-25 65
q0 56 40.5 97.5t96.5 41.5q47 0 72 -25.5t25 -68.5q0 -54 -41.5 -94.5t-96.5 -40.5z" />
    <glyph glyph-name="igrave" unicode="&#xec;" horiz-adv-x="555" 
d="M360 1075h-112l-166 287h244zM68 0l98 580q33 179 33 208q0 58 -27.5 85.5t-89.5 27.5h-21l11 62h245q82 0 117 -31.5t35 -106.5q0 -19 -23 -170q-6 -42 -112 -655h-266z" />
    <glyph glyph-name="iacute" unicode="&#xed;" horiz-adv-x="555" 
d="M401 1077h-112l137 287h244zM68 0l98 580q33 179 33 208q0 58 -27.5 85.5t-89.5 27.5h-21l11 62h245q82 0 117 -31.5t35 -106.5q0 -19 -23 -170q-6 -42 -112 -655h-266z" />
    <glyph glyph-name="icircumflex" unicode="&#xee;" horiz-adv-x="555" 
d="M199 1090h-123l209 256h266l119 -256h-123l-146 163zM68 0l98 580q33 179 33 208q0 58 -27.5 85.5t-89.5 27.5h-21l11 62h245q82 0 117 -31.5t35 -106.5q0 -19 -23 -170q-6 -42 -112 -655h-266z" />
    <glyph glyph-name="idieresis" unicode="&#xef;" horiz-adv-x="555" 
d="M139 1096q-46 0 -71 25t-25 65q0 56 40.5 97.5t96.5 41.5q46 0 71 -25t25 -69q0 -54 -41 -94.5t-96 -40.5zM508 1096q-46 0 -71 25t-25 65q0 56 40.5 97.5t96.5 41.5q46 0 71 -25t25 -69q0 -54 -41 -94.5t-96 -40.5zM68 0l98 580q33 179 33 208q0 58 -27.5 85.5
t-89.5 27.5h-21l11 62h245q82 0 117 -31.5t35 -106.5q0 -19 -23 -170q-6 -42 -112 -655h-266z" />
    <glyph glyph-name="eth" unicode="&#xf0;" horiz-adv-x="1142" 
d="M479 72q62 0 115 43t86 107t56.5 142.5t33.5 146t10 120.5q0 121 -39 190.5t-118 69.5q-63 0 -116 -43t-86 -107.5t-56.5 -143.5t-33 -147.5t-9.5 -121.5q0 -122 43 -189t114 -67zM463 -20q-199 0 -306.5 105.5t-107.5 283.5q0 161 72.5 301t204.5 226.5t292 86.5
q99 0 166.5 -43t92.5 -121q-9 201 -80 318l-113 -97l-68 82l113 97q-31 35 -78.5 48t-122.5 13q-37 0 -79 -10l-33 -8l-17 65q74 45 187 45q153 0 248 -74l104 95l70 -78l-103 -86q80 -84 124 -208t44 -276q0 -95 -16.5 -187t-49 -178t-84.5 -158.5t-117.5 -126.5
t-153.5 -84.5t-189 -30.5z" />
    <glyph glyph-name="ntilde" unicode="&#xf1;" horiz-adv-x="1181" 
d="M543 1114h-82q23 112 64.5 158.5t111.5 46.5q33 0 54 -10.5t54 -38.5q39 -33 66 -33q32 0 56.5 24.5t29.5 57.5h82q-23 -113 -64 -159t-110 -46q-56 0 -111 49q-11 11 -31 22t-34 11q-31 0 -55.5 -24.5t-30.5 -57.5zM66 0l120 696q11 79 11 97q0 55 -26.5 81.5
t-88.5 26.5h-21l11 62h202q69 0 106 -17.5t54 -58.5q116 96 316 96q168 0 250.5 -65.5t82.5 -204.5q0 -35 -10 -107l-106 -606h-267l107 608q8 36 8 94q0 179 -156 179q-127 0 -198 -64q2 -10 2 -41q0 -37 -6 -67l-125 -709h-266z" />
    <glyph glyph-name="ograve" unicode="&#xf2;" horiz-adv-x="1132" 
d="M479 72q65 0 119 43.5t86.5 108t55 144.5t31.5 149t9 124q0 121 -39.5 185.5t-117.5 64.5q-65 0 -119 -43.5t-86.5 -108t-55 -144.5t-31.5 -149t-9 -124q0 -121 39.5 -185.5t117.5 -64.5zM463 -20q-194 0 -304 108t-110 289q0 161 78.5 300.5t214.5 222.5t297 83
q194 0 304 -108t110 -289q0 -161 -78.5 -300.5t-214.5 -222.5t-297 -83zM797 1362l34 -287h-112l-166 287h244z" />
    <glyph glyph-name="oacute" unicode="&#xf3;" horiz-adv-x="1132" 
d="M479 72q65 0 119 43.5t86.5 108t55 144.5t31.5 149t9 124q0 121 -39.5 185.5t-117.5 64.5q-65 0 -119 -43.5t-86.5 -108t-55 -144.5t-31.5 -149t-9 -124q0 -121 39.5 -185.5t117.5 -64.5zM463 -20q-194 0 -304 108t-110 289q0 161 78.5 300.5t214.5 222.5t297 83
q194 0 304 -108t110 -289q0 -161 -78.5 -300.5t-214.5 -222.5t-297 -83zM948 1364l-268 -287h-113l138 287h243z" />
    <glyph glyph-name="ocircumflex" unicode="&#xf4;" horiz-adv-x="1132" 
d="M479 72q65 0 119 43.5t86.5 108t55 144.5t31.5 149t9 124q0 121 -39.5 185.5t-117.5 64.5q-65 0 -119 -43.5t-86.5 -108t-55 -144.5t-31.5 -149t-9 -124q0 -121 39.5 -185.5t117.5 -64.5zM463 -20q-194 0 -304 108t-110 289q0 161 78.5 300.5t214.5 222.5t297 83
q194 0 304 -108t110 -289q0 -161 -78.5 -300.5t-214.5 -222.5t-297 -83zM829 1077l-145 164l-203 -164h-123l209 256h267l118 -256h-123z" />
    <glyph glyph-name="otilde" unicode="&#xf5;" horiz-adv-x="1132" 
d="M479 72q65 0 119 43.5t86.5 108t55 144.5t31.5 149t9 124q0 121 -39.5 185.5t-117.5 64.5q-65 0 -119 -43.5t-86.5 -108t-55 -144.5t-31.5 -149t-9 -124q0 -121 39.5 -185.5t117.5 -64.5zM463 -20q-194 0 -304 108t-110 289q0 161 78.5 300.5t214.5 222.5t297 83
q194 0 304 -108t110 -289q0 -161 -78.5 -300.5t-214.5 -222.5t-297 -83zM498 1098h-82q23 112 64.5 158.5t111.5 46.5q33 0 53.5 -11t54.5 -39q38 -32 66 -32q32 0 56.5 24.5t29.5 57.5h82q-23 -113 -64 -159t-110 -46q-56 0 -111 49q-11 11 -31 22t-34 11
q-31 0 -55.5 -24.5t-30.5 -57.5z" />
    <glyph glyph-name="odieresis" unicode="&#xf6;" horiz-adv-x="1132" 
d="M479 72q65 0 119 43.5t86.5 108t55 144.5t31.5 149t9 124q0 121 -39.5 185.5t-117.5 64.5q-65 0 -119 -43.5t-86.5 -108t-55 -144.5t-31.5 -149t-9 -124q0 -121 39.5 -185.5t117.5 -64.5zM463 -20q-194 0 -304 108t-110 289q0 161 78.5 300.5t214.5 222.5t297 83
q194 0 304 -108t110 -289q0 -161 -78.5 -300.5t-214.5 -222.5t-297 -83zM580 1096q-46 0 -71.5 25t-25.5 65q0 56 40.5 97.5t97.5 41.5q46 0 71 -25t25 -69q0 -54 -41 -94.5t-96 -40.5zM948 1096q-46 0 -71 25t-25 65q0 56 40.5 97.5t96.5 41.5q46 0 71 -25t25 -69
q0 -54 -41 -94.5t-96 -40.5z" />
    <glyph glyph-name="divide" unicode="&#xf7;" horiz-adv-x="1120" 
d="M612 870q-46 0 -71 25.5t-25 69.5q0 55 40.5 95t96.5 40q47 0 72 -24t25 -66q0 -56 -41 -98t-97 -42zM1038 608h-942l23 133h942zM504 252q-46 0 -71 25t-25 69q0 55 40.5 95t96.5 40q46 0 71 -24t25 -66q0 -56 -40.5 -97.5t-96.5 -41.5z" />
    <glyph glyph-name="oslash" unicode="&#xf8;" horiz-adv-x="1132" 
d="M319 332l433 471q-43 88 -129 88q-63 0 -116.5 -42.5t-86.5 -106t-56.5 -142.5t-33.5 -146t-11 -122zM479 72q65 0 118.5 42.5t85.5 105t54.5 141.5t32 145t10.5 123l-432 -471q41 -86 131 -86zM463 -20q-127 0 -230 53l-28 -33h-189l111 123q-78 104 -78 254
q0 161 78.5 300.5t214.5 222.5t297 83q126 0 229 -53l29 33h188l-112 -123q80 -106 80 -254q0 -161 -78.5 -300.5t-214.5 -222.5t-297 -83z" />
    <glyph glyph-name="ugrave" unicode="&#xf9;" horiz-adv-x="1161" 
d="M725 1075h-113l-166 287h244zM420 -20q-167 0 -245.5 63t-78.5 201q0 15 17 127q27 181 53 325q10 72 10 92q0 58 -27.5 85.5t-89.5 27.5h-20l10 62h246q82 0 116.5 -31.5t34.5 -106.5q0 -69 -14 -129q-72 -436 -72 -463q0 -86 33.5 -123.5t104.5 -37.5q115 0 207 133
l133 758h266l-168 -963h-174l-57 92h-11q-53 -53 -125.5 -82.5t-148.5 -29.5z" />
    <glyph glyph-name="uacute" unicode="&#xfa;" horiz-adv-x="1161" 
d="M696 1024h-112l137 287h244zM420 -20q-167 0 -245.5 63t-78.5 201q0 15 17 127q27 181 53 325q10 72 10 92q0 58 -27.5 85.5t-89.5 27.5h-20l10 62h246q82 0 116.5 -31.5t34.5 -106.5q0 -69 -14 -129q-72 -436 -72 -463q0 -86 33.5 -123.5t104.5 -37.5q115 0 207 133
l133 758h266l-168 -963h-174l-57 92h-11q-53 -53 -125.5 -82.5t-148.5 -29.5z" />
    <glyph glyph-name="ucircumflex" unicode="&#xfb;" horiz-adv-x="1161" 
d="M479 1077h-123l209 256h266l119 -256h-123l-145 164zM420 -20q-167 0 -245.5 63t-78.5 201q0 15 17 127q27 181 53 325q10 72 10 92q0 58 -27.5 85.5t-89.5 27.5h-20l10 62h246q82 0 116.5 -31.5t34.5 -106.5q0 -69 -14 -129q-72 -436 -72 -463q0 -86 33.5 -123.5
t104.5 -37.5q115 0 207 133l133 758h266l-168 -963h-174l-57 92h-11q-53 -53 -125.5 -82.5t-148.5 -29.5z" />
    <glyph glyph-name="udieresis" unicode="&#xfc;" horiz-adv-x="1161" 
d="M504 1096q-46 0 -71 25t-25 65q0 56 40.5 97.5t96.5 41.5q46 0 71 -25t25 -69q0 -54 -41 -94.5t-96 -40.5zM872 1096q-46 0 -71 25t-25 65q0 56 40.5 97.5t96.5 41.5q47 0 72 -25.5t25 -68.5q0 -54 -41.5 -94.5t-96.5 -40.5zM420 -20q-167 0 -245.5 63t-78.5 201
q0 15 17 127q27 181 53 325q10 72 10 92q0 58 -27.5 85.5t-89.5 27.5h-20l10 62h246q82 0 116.5 -31.5t34.5 -106.5q0 -69 -14 -129q-72 -436 -72 -463q0 -86 33.5 -123.5t104.5 -37.5q115 0 207 133l133 758h266l-168 -963h-174l-57 92h-11q-53 -53 -125.5 -82.5
t-148.5 -29.5z" />
    <glyph glyph-name="yacute" unicode="&#xfd;" horiz-adv-x="1042" 
d="M702 1024h-112l137 287h244zM8 -410l12 72q115 0 190.5 44t141.5 155l62 110l-226 807q-23 78 -61.5 117.5t-99.5 46.5l6 41h180q90 0 152 -44t86 -120l145 -516l365 660h108l-606 -1096q-89 -157 -172 -217t-201 -60h-82z" />
    <glyph glyph-name="thorn" unicode="&#xfe;" horiz-adv-x="1114" 
d="M446 72q68 0 123.5 43t90 107t58 144t33 149.5t9.5 127.5q0 119 -39 183.5t-111 64.5q-89 0 -172 -62l-129 -727q77 -30 137 -30zM295 20l-72 -409h-266q270 1509 270 1567t-27 85t-89 27h-21l10 62h246q82 0 117 -31.5t35 -106.5q0 -50 -45 -303q104 72 245 72
q165 0 250.5 -93.5t85.5 -262.5q0 -96 -21.5 -189t-66.5 -176t-107 -145.5t-149 -99.5t-188 -37q-117 0 -207 40z" />
    <glyph glyph-name="ydieresis" unicode="&#xff;" horiz-adv-x="1042" 
d="M485 1096q-46 0 -71 25t-25 65q0 56 40.5 97.5t96.5 41.5q46 0 71.5 -25.5t25.5 -68.5q0 -54 -41.5 -94.5t-96.5 -40.5zM854 1096q-46 0 -71 25t-25 65q0 56 40.5 97.5t96.5 41.5q46 0 71 -25t25 -69q0 -54 -41 -94.5t-96 -40.5zM8 -410l12 72q115 0 190.5 44t141.5 155
l62 110l-226 807q-23 78 -61.5 117.5t-99.5 46.5l6 41h180q90 0 152 -44t86 -120l145 -516l365 660h108l-606 -1096q-89 -157 -172 -217t-201 -60h-82z" />
    <glyph glyph-name="Abreve" unicode="&#x102;" horiz-adv-x="1325" 
d="M324 465h462l-131 534zM1192 -8q-67 0 -121.5 13t-102 42t-81.5 82.5t-51 128.5l-27 115h-545l-233 -373h-107l842 1352h92l266 -1094q49 -190 176 -205l-8 -51q-42 -10 -100 -10zM817 1434q-97 0 -163 51.5t-91 140.5l66 43q28 -46 82.5 -74t130.5 -28q148 0 250 102
l49 -43q-56 -89 -141.5 -140.5t-182.5 -51.5z" />
    <glyph glyph-name="abreve" unicode="&#x103;" 
d="M463 72q115 0 207 133l98 553q-20 58 -62.5 95.5t-99.5 37.5q-62 0 -113.5 -47.5t-82.5 -117t-52.5 -154.5t-30 -155t-8.5 -122q0 -223 144 -223zM406 -20q-173 0 -265 99.5t-92 268.5q0 113 38 225.5t105.5 204t169.5 148.5t220 57q68 0 126 -28.5t89 -84.5h10l88 93
h174l-168 -963h-174l-57 92h-11q-43 -55 -111 -83.5t-142 -28.5zM668 1044q-96 0 -162.5 51.5t-91.5 141.5l65 43q28 -46 82.5 -74t130.5 -28q148 0 250 102l49 -43q-57 -89 -141.5 -141t-181.5 -52z" />
    <glyph glyph-name="Dcroat" unicode="&#x110;" horiz-adv-x="1509" 
d="M532 82h21q112 0 211 44t170.5 118t124 170t78.5 201t26 210q0 205 -108 325t-297 120h-17q-72 0 -108 -8l-47 -7l-94 -528h153l-18 -102h-154l-92 -529l45 -8q27 -6 106 -6zM545 0h-447l109 625h-144l19 102h143q74 405 74 451q0 58 -27.5 85t-89.5 27h-20l10 62h557
q361 0 550 -137.5t189 -391.5q0 -153 -49.5 -285.5t-137 -230t-204 -167.5t-252 -105t-280.5 -35z" />
    <glyph glyph-name="dcroat" unicode="&#x111;" horiz-adv-x="1112" 
d="M670 205l110 624q-20 16 -43 31q-67 31 -121 31q-68 0 -121.5 -46t-85 -114t-52 -153.5t-28 -155t-7.5 -127.5q0 -111 34 -167t107 -56q115 0 207 133zM1102 1178h72l-17 -93h-70q-89 -533 -186 -1085h-174l-57 92h-11q-43 -55 -111 -83.5t-142 -28.5
q-170 0 -262.5 100.5t-92.5 273.5q0 120 37.5 232.5t105.5 201t171.5 142t226.5 53.5q51 0 111 -16t94 -45l26 163h-278l16 93h275q0 58 -27.5 85t-89.5 27h-21l11 62h245q82 0 117 -31.5t35 -106.5q0 -8 -4 -36z" />
    <glyph glyph-name="Gbreve" unicode="&#x11e;" horiz-adv-x="1503" 
d="M934 1495q-96 0 -162.5 51.5t-91.5 141.5l65 43q28 -46 82.5 -74.5t130.5 -28.5q147 0 250 103l49 -43q-57 -89 -141.5 -141t-181.5 -52zM702 -41q-277 0 -448.5 168.5t-171.5 431.5q0 129 40.5 254.5t116 229t174.5 182.5t223.5 123.5t256.5 44.5q181 0 338 -62
q153 -61 153 -219q0 -73 -20 -170h-61q-6 185 -95 271.5t-270 86.5q-88 0 -165 -28t-135 -76.5t-105.5 -114.5t-79.5 -141t-53.5 -157.5t-31.5 -162t-10 -157.5q0 -422 359 -422q163 0 287 53l63 365q11 54 34.5 95.5t58.5 68t73 44.5t87.5 26.5t92.5 12t96 3.5l-10 -52
q-131 0 -166 -194l-63 -367q-245 -137 -568 -137z" />
    <glyph glyph-name="gbreve" unicode="&#x11f;" 
d="M479 113q102 0 185 61l104 584q-20 58 -62.5 95.5t-99.5 37.5q-64 0 -115 -44t-81 -108.5t-50 -145.5t-27 -147.5t-7 -121.5q0 -105 36.5 -158t116.5 -53zM356 -410q-139 0 -221 56.5t-129 158.5l72 48q53 -88 110 -129t144 -41q119 0 199.5 97t115.5 292l2 10
q-44 -29 -107 -45.5t-120 -16.5q-180 0 -273.5 95t-93.5 264q0 115 37.5 223t104 193t167 136.5t218.5 51.5q68 0 126 -28.5t89 -84.5h10l88 93h174l-156 -891q-37 -221 -186.5 -351.5t-370.5 -130.5zM633 1085q-96 0 -162.5 51.5t-91.5 141.5l65 43q28 -46 82.5 -74
t130.5 -28q148 0 250 102l49 -43q-57 -89 -141.5 -141t-181.5 -52z" />
    <glyph glyph-name="Itilde" unicode="&#x128;" horiz-adv-x="628" 
d="M281 1536h-82q23 112 64.5 158.5t111.5 46.5q33 0 54 -10.5t54 -38.5q39 -33 66 -33q32 0 56.5 24.5t29.5 57.5h82q-23 -113 -64 -159t-110 -46q-56 0 -111 49q-11 11 -31 22t-34 11q-31 0 -55.5 -24.5t-30.5 -57.5zM496 0h-246q-82 0 -117 32t-35 109q0 45 13 125
l192 1086h266l-192 -1086q-8 -39 -8 -88q0 -59 27.5 -88t88.5 -29h21z" />
    <glyph glyph-name="itilde" unicode="&#x129;" horiz-adv-x="555" 
d="M154 1147h-82q23 112 64.5 158.5t111.5 46.5q33 0 54 -10.5t54 -38.5q39 -33 66 -33q32 0 56.5 24.5t29.5 57.5h82q-23 -113 -64 -159t-110 -46q-56 0 -111 49q-11 11 -31 22t-34 11q-31 0 -55.5 -24.5t-30.5 -57.5zM68 0l98 580q33 179 33 208q0 58 -27.5 85.5
t-89.5 27.5h-21l11 62h245q82 0 117 -31.5t35 -106.5q0 -19 -23 -170q-6 -42 -112 -655h-266z" />
    <glyph glyph-name="Idotaccent" unicode="&#x130;" horiz-adv-x="628" 
d="M465 1462q-61 0 -94 33.5t-33 89.5q0 61 38 104.5t97 43.5q61 0 94 -33.5t33 -89.5q0 -61 -38 -104.5t-97 -43.5zM496 0h-246q-82 0 -117 32t-35 109q0 29 35 244q28 173 170 967h266q-45 -257 -99 -568t-58 -333q-43 -249 -43 -273q0 -59 27.5 -88t88.5 -29h21z" />
    <glyph glyph-name="dotlessi" unicode="&#x131;" horiz-adv-x="555" 
d="M68 0l98 580q33 179 33 208q0 58 -27.5 85.5t-89.5 27.5h-21l11 62h245q82 0 117 -31.5t35 -106.5q0 -19 -23 -170q-6 -42 -112 -655h-266z" />
    <glyph glyph-name="OE" unicode="&#x152;" horiz-adv-x="1961" 
d="M662 51q93 0 182 47l203 1153q-67 49 -166 49q-93 0 -172.5 -41.5t-135 -111.5t-98 -156.5t-67 -183.5t-36.5 -185.5t-12 -168.5q0 -193 77.5 -297.5t224.5 -104.5zM645 -41q-259 0 -411 156.5t-152 408.5q0 132 39.5 261t114 238t173.5 192.5t225.5 130.5t262.5 47
q126 0 229 -41h678q150 0 150 -119q0 -17 -35 -219h-61q6 38 6 67q0 179 -219 179h-330l-90 -512h532l-16 -93h-533l-100 -563h350q120 0 207 54t160 180l51 -21l-88 -162q-44 -79 -86 -111t-117 -32h-696q-103 -41 -244 -41z" />
    <glyph glyph-name="oe" unicode="&#x153;" horiz-adv-x="1736" 
d="M479 72q65 0 119 43.5t86.5 108t55 144.5t31.5 149t9 124q0 121 -39.5 185.5t-117.5 64.5q-65 0 -119 -43.5t-86.5 -108t-55 -144.5t-31.5 -149t-9 -124q0 -121 39.5 -185.5t117.5 -64.5zM1049 522h215q77 0 121.5 58t44.5 151q0 73 -34.5 116.5t-86.5 43.5
q-89 0 -157.5 -92.5t-102.5 -276.5zM463 -20q-194 0 -304 108t-110 289q0 161 78.5 300.5t214.5 222.5t297 83q205 0 322 -129q144 129 344 129q189 0 290 -67t101 -187q0 -299 -447 -299h-215q-12 -46 -12 -133q0 -225 174 -225q94 0 168 41.5t154 128.5l55 -47
q-83 -102 -184 -158.5t-240 -56.5q-208 0 -313 135q-156 -135 -373 -135z" />
    <glyph glyph-name="Scedilla" unicode="&#x15e;" horiz-adv-x="1150" 
d="M307 -422l17 94h102q38 0 64 20.5t30 55.5q0 57 -69 57h-93l29 164q-157 12 -255.5 69.5t-98.5 145.5q0 27 43 267h57v-15q0 -199 80.5 -289t253.5 -90q76 0 142.5 26t111.5 82t45 130q0 64 -38 111.5t-132 113.5l-225 152q-103 67 -149 137t-46 158q0 126 75 224
t193.5 148t257.5 50q111 0 206.5 -26.5t155.5 -78t60 -117.5q0 -23 -45 -264h-57v23q0 194 -76.5 282t-236.5 88q-110 0 -194.5 -64t-84.5 -171q0 -60 36.5 -103.5t135.5 -109.5l227 -150q113 -77 162 -143t49 -149q0 -126 -74 -223.5t-189.5 -150t-256.5 -65.5l-12 -69
q75 0 116.5 -34.5t41.5 -94.5q0 -84 -61.5 -137.5t-153.5 -53.5h-144z" />
    <glyph glyph-name="scedilla" unicode="&#x15f;" horiz-adv-x="962" 
d="M217 -381l16 94h103q37 0 65.5 22t28.5 56q0 25 -18.5 40t-53.5 15h-92l25 138q-262 14 -262 170q0 51 18 153h72v-6q0 -108 56.5 -168.5t168.5 -60.5q62 0 112.5 15.5t84.5 51.5t34 88q0 45 -36.5 78t-120.5 72l-99 45q-109 53 -162 110.5t-53 133.5t38 138t101.5 100
t141 58.5t160.5 20.5q141 0 239 -33q101 -34 101 -141q0 -46 -19 -154h-71v7q0 107 -57 168t-169 61q-82 0 -141 -43.5t-59 -118.5q0 -42 28.5 -72t91.5 -57l115 -51q126 -55 181 -111.5t55 -136.5q0 -79 -38 -140t-102 -97t-132.5 -55.5t-143.5 -26.5l-8 -43
q75 0 117 -33.5t42 -93.5q0 -84 -61.5 -138.5t-153.5 -54.5h-143z" />
    <glyph glyph-name="Scaron" unicode="&#x160;" horiz-adv-x="1150" 
d="M842 1475h-267l-118 256h143l125 -164l182 164h144zM455 -35q-111 0 -206.5 26t-155.5 77.5t-60 117.5q0 22 43 265h57v-15q0 -199 80.5 -289t253.5 -90q76 0 142.5 26t111.5 82t45 130q0 64 -38 111.5t-132 113.5l-225 152q-103 67 -149 137t-46 158q0 126 75 224
t193.5 148t257.5 50q111 0 206.5 -26.5t155.5 -78t60 -117.5q0 -23 -45 -264h-57v23q0 194 -76.5 282t-236.5 88q-110 0 -194.5 -64t-84.5 -171q0 -60 36.5 -103.5t135.5 -109.5l227 -150q113 -77 162 -143t49 -149q0 -89 -35.5 -163.5t-94 -125t-135.5 -85.5t-158 -51
t-162 -16z" />
    <glyph glyph-name="scaron" unicode="&#x161;" horiz-adv-x="960" 
d="M678 1065h-266l-119 256h143l125 -164l182 164h144zM367 -20q-143 0 -238 32q-102 34 -102 142q0 51 18 153h72v-6q0 -108 56.5 -168.5t168.5 -60.5q62 0 112.5 15.5t84.5 51.5t34 88q0 45 -36.5 78t-120.5 72l-99 45q-109 53 -162 110.5t-53 133.5t38 138t101.5 100
t141 58.5t160.5 20.5q141 0 239 -33q101 -34 101 -141q0 -46 -19 -154h-71v7q0 107 -57 168t-169 61q-82 0 -141 -43.5t-59 -118.5q0 -42 28.5 -72t91.5 -57l115 -51q126 -55 181 -111.5t55 -136.5t-41 -143t-109 -101t-150 -57.5t-171 -19.5z" />
    <glyph glyph-name="Utilde" unicode="&#x168;" horiz-adv-x="1427" 
d="M721 1536h-82q23 112 64.5 158.5t111.5 46.5q33 0 54.5 -10.5t54.5 -38.5q39 -33 65 -33q32 0 56.5 24.5t29.5 57.5h82q-23 -113 -64 -159t-110 -46q-56 0 -111 49q-11 11 -31 22t-34 11q-31 0 -55.5 -24.5t-30.5 -57.5zM641 -20q-239 0 -352 102.5t-113 316.5
q0 37 19 164q22 142 88 522q10 72 10 93q0 58 -27.5 85t-89.5 27l10 62h226q82 0 116.5 -31.5t34.5 -106.5q0 -69 -14 -129q-77 -455 -92 -559q-21 -126 -21 -170q0 -148 59 -221.5t185 -73.5q221 0 339.5 124.5t168.5 404.5l135 762h102l-135 -762q-52 -309 -206 -459.5
t-443 -150.5z" />
    <glyph glyph-name="utilde" unicode="&#x169;" horiz-adv-x="1161" 
d="M518 1147h-82q23 112 64.5 158.5t111.5 46.5q33 0 54.5 -10.5t54.5 -38.5q39 -33 65 -33q32 0 56.5 24.5t29.5 57.5h82q-23 -113 -64 -159t-110 -46q-55 0 -110 49q-10 10 -31 21.5t-35 11.5q-31 0 -55.5 -24.5t-30.5 -57.5zM420 -20q-167 0 -245.5 63t-78.5 201
q0 15 17 127q27 181 53 325q10 72 10 92q0 58 -27.5 85.5t-89.5 27.5h-20l10 62h246q82 0 116.5 -31.5t34.5 -106.5q0 -69 -14 -129q-72 -436 -72 -463q0 -86 33.5 -123.5t104.5 -37.5q115 0 207 133l133 758h266l-168 -963h-174l-57 92h-11q-53 -53 -125.5 -82.5
t-148.5 -29.5z" />
    <glyph glyph-name="Ydieresis" unicode="&#x178;" horiz-adv-x="1308" 
d="M698 1413q-46 0 -71 25t-25 69q0 55 40.5 95t96.5 40q47 0 72 -24t25 -66q0 -56 -40.5 -97.5t-97.5 -41.5zM1047 1413q-47 0 -72 25.5t-25 68.5q0 55 40.5 95t96.5 40q47 0 72 -24t25 -66q0 -56 -40.5 -97.5t-96.5 -41.5zM465 0l94 541l-266 544q-39 88 -105.5 153.5
t-128.5 72.5l9 41h223q99 0 172 -61t121 -165l204 -419l512 645h134l-598 -756l-105 -596h-266z" />
    <glyph glyph-name="Zcaron" unicode="&#x17d;" horiz-adv-x="1226" 
d="M936 1454h-266l-119 256h143l125 -164l182 164h144zM-35 0l10 66l973 1196h-444q-118 0 -187 -58.5t-92 -189.5h-61l31 174q15 79 62 121.5t140 42.5h932l-1026 -1260h793l-15 -92h-1116z" />
    <glyph glyph-name="zcaron" unicode="&#x17e;" horiz-adv-x="1013" 
d="M752 1065h-267l-118 256h143l125 -164l182 164h144zM-16 0l10 63l680 807h-242q-128 0 -189.5 -45t-78.5 -149h-62l21 123q30 164 203 164h729l-736 -871h539l-14 -92h-860z" />
    <glyph glyph-name="florin" unicode="&#x192;" horiz-adv-x="706" 
d="M-197 -389l9 51q100 19 156 105t91 284l144 819h-123l16 93h123l10 55q63 354 463 354q43 0 76 -4t70 -15.5t62 -37.5t36 -66l-94 -71q-51 102 -156 102q-74 0 -120 -61t-70 -201l-11 -55h267l-17 -93h-266l-143 -819q-23 -131 -58.5 -213t-98 -134t-149 -72.5
t-217.5 -20.5z" />
    <glyph glyph-name="Ohorn" unicode="&#x1a0;" horiz-adv-x="1505" 
d="M662 51q94 0 174 41t135.5 110.5t98 156t66.5 183t36 185.5t12 170q0 195 -78 299t-225 104q-93 0 -172.5 -41.5t-135 -111.5t-98 -156.5t-67 -183.5t-36.5 -185.5t-12 -168.5q0 -193 77.5 -297.5t224.5 -104.5zM645 -41q-259 0 -411 156.5t-152 408.5q0 132 39.5 261
t114 238t173.5 192.5t225.5 130.5t262.5 47q194 0 336 -95q96 0 161.5 72t84.5 168h163q-20 -102 -106.5 -194t-214.5 -121q139 -154 139 -396q0 -132 -39.5 -261t-114 -237.5t-173.5 -192t-225.5 -130.5t-262.5 -47z" />
    <glyph glyph-name="ohorn" unicode="&#x1a1;" horiz-adv-x="1132" 
d="M479 72q65 0 119 43.5t86.5 108t55 144.5t31.5 149t9 124q0 121 -39.5 185.5t-117.5 64.5q-65 0 -119 -43.5t-86.5 -108t-55 -144.5t-31.5 -149t-9 -124q0 -121 39.5 -185.5t117.5 -64.5zM1012 1174h164q-18 -89 -86.5 -164t-174.5 -111q138 -110 138 -313
q0 -161 -78.5 -300.5t-214.5 -222.5t-297 -83q-194 0 -304 108t-110 289q0 161 78.5 300.5t214.5 222.5t297 83q81 0 154 -20q88 7 146.5 67t72.5 144z" />
    <glyph glyph-name="Uhorn" unicode="&#x1af;" horiz-adv-x="1427" 
d="M1589 1563h164q-21 -107 -112.5 -190t-229.5 -105l-121 -678q-52 -309 -206 -459.5t-443 -150.5q-239 0 -352 102.5t-113 316.5q0 37 19 164q22 142 88 522q10 72 10 93q0 58 -27.5 85t-89.5 27l10 62h226q82 0 116.5 -31.5t34.5 -106.5q0 -69 -14 -129
q-77 -455 -92 -559q-21 -126 -21 -170q0 -148 59 -221.5t185 -73.5q221 0 339.5 124.5t168.5 404.5l135 762h53q85 12 142 71t71 140z" />
    <glyph glyph-name="uhorn" unicode="&#x1b0;" horiz-adv-x="1161" 
d="M1253 1174h164q-20 -104 -107.5 -186.5t-219.5 -106.5l-154 -881h-174l-57 92h-11q-53 -53 -125.5 -82.5t-148.5 -29.5q-167 0 -245.5 63t-78.5 201q0 15 17 127q27 181 53 325q10 72 10 92q0 58 -27.5 85.5t-89.5 27.5h-20l10 62h246q82 0 116.5 -31.5t34.5 -106.5
q0 -69 -14 -129q-72 -436 -72 -463q0 -86 33.5 -123.5t104.5 -37.5q115 0 207 133l133 758h202q85 12 142 71t71 140z" />
    <glyph glyph-name="uni02BC" unicode="&#x2bc;" horiz-adv-x="376" 
d="M135 1044l-26 50q82 48 141 114t72 142l-33 -7q-49 0 -77 26t-28 69q0 65 42 110t108 45q53 0 81.5 -33.5t28.5 -89.5q0 -233 -309 -426z" />
    <glyph glyph-name="circumflex" unicode="&#x2c6;" horiz-adv-x="675" 
d="M299 1352h-123l209 256h266l119 -256h-123l-145 164z" />
    <glyph glyph-name="caron" unicode="&#x2c7;" horiz-adv-x="614" 
d="M471 1065h-266l-119 256h143l125 -164l183 164h143z" />
    <glyph glyph-name="breve" unicode="&#x2d8;" horiz-adv-x="614" 
d="M393 1044q-96 0 -162.5 51.5t-91.5 141.5l66 43q28 -46 82.5 -74t130.5 -28q148 0 250 102l49 -43q-56 -89 -141.5 -141t-182.5 -52z" />
    <glyph glyph-name="ring" unicode="&#x2da;" horiz-adv-x="405" 
d="M285 1065q-73 0 -118.5 43.5t-45.5 112.5q0 92 69 162.5t164 70.5q73 0 118.5 -43.5t45.5 -112.5q0 -92 -69 -162.5t-164 -70.5zM301 1157q47 0 80 37t33 88q0 37 -20.5 58.5t-55.5 21.5q-47 0 -80 -37t-33 -88q0 -37 20.5 -58.5t55.5 -21.5z" />
    <glyph glyph-name="tilde" unicode="&#x2dc;" horiz-adv-x="563" 
d="M264 1393h-82q23 112 64.5 158t111.5 46q33 0 54.5 -10.5t54.5 -38.5q38 -32 65 -32q32 0 56.5 24t29.5 57h82q-23 -112 -63.5 -158t-110.5 -46q-55 0 -110 49q-10 10 -31 21.5t-35 11.5q-31 0 -55.5 -24.5t-30.5 -57.5z" />
    <glyph glyph-name="gravecomb" unicode="&#x300;" horiz-adv-x="0" 
d="M2 1075h-113l-165 287h243z" />
    <glyph glyph-name="acutecomb" unicode="&#x301;" horiz-adv-x="0" 
d="M-215 1075h-113l138 287h243z" />
    <glyph glyph-name="uni0302" unicode="&#x302;" horiz-adv-x="0" 
d="M-451 1065h-143l209 256h266l119 -256h-143l-125 164z" />
    <glyph glyph-name="tildecomb" unicode="&#x303;" horiz-adv-x="0" 
d="M-385 1147h-82q23 112 64.5 158.5t111.5 46.5q33 0 54.5 -10.5t54.5 -38.5q39 -33 65 -33q32 0 56.5 24.5t29.5 57.5h82q-23 -113 -64 -159t-110 -46q-55 0 -110 49q-10 10 -31 21.5t-35 11.5q-31 0 -55.5 -24.5t-30.5 -57.5z" />
    <glyph glyph-name="uni0304" unicode="&#x304;" horiz-adv-x="0" 
d="M14 1141h-571v174h571v-174z" />
    <glyph glyph-name="uni0306" unicode="&#x306;" horiz-adv-x="0" 
d="M-293 1044q-96 0 -162.5 51.5t-91.5 141.5l66 43q28 -46 82.5 -74t130.5 -28q148 0 250 102l49 -43q-56 -89 -141.5 -141t-182.5 -52z" />
    <glyph glyph-name="uni0308" unicode="&#x308;" horiz-adv-x="0" 
d="M-477 1096q-46 0 -71 25t-25 65q0 56 40.5 97.5t96.5 41.5q46 0 71 -25t25 -69q0 -54 -41 -94.5t-96 -40.5zM-109 1096q-46 0 -71 25t-25 65q0 56 40.5 97.5t96.5 41.5q46 0 71.5 -25.5t25.5 -68.5q0 -54 -41.5 -94.5t-96.5 -40.5z" />
    <glyph glyph-name="hookabovecomb" unicode="&#x309;" horiz-adv-x="0" 
d="M-201 1067h-106q15 63 63 111q41 48 41 90q0 49 -55 49q-38 0 -62 -23t-47 -84l-112 2q12 105 76 168.5t170 63.5q84 0 127 -36t43 -103q0 -47 -12 -70t-52 -61q-26 -26 -37 -38.5t-21.5 -30t-15.5 -38.5z" />
    <glyph glyph-name="uni030A" unicode="&#x30a;" horiz-adv-x="0" 
d="M-195 1065q-73 0 -118 43.5t-45 112.5q0 92 69 162.5t164 70.5q73 0 118.5 -43.5t45.5 -112.5q0 -92 -69.5 -162.5t-164.5 -70.5zM-178 1157q47 0 79.5 37t32.5 88q0 37 -20 58.5t-55 21.5q-47 0 -80 -37t-33 -88q0 -37 20.5 -58.5t55.5 -21.5z" />
    <glyph glyph-name="uni030B" unicode="&#x30b;" horiz-adv-x="0" 
d="M-348 1075h-72l86 287h162zM-123 1075h-72l86 287h162z" />
    <glyph glyph-name="uni030C" unicode="&#x30c;" horiz-adv-x="0" 
d="M-164 1065h-266l-119 256h143l125 -164l183 164h143z" />
    <glyph glyph-name="uni031B" unicode="&#x31b;" horiz-adv-x="0" 
d="M-508 872l16 89q98 0 163 60.5t83 152.5h164q-24 -120 -139 -211t-287 -91z" />
    <glyph glyph-name="dotbelowcomb" unicode="&#x323;" horiz-adv-x="0" 
d="M-383 -344q-41 0 -63.5 20.5t-22.5 57.5q0 55 34 92t89 37q86 0 86 -80q0 -52 -35 -89.5t-88 -37.5z" />
    <glyph glyph-name="uni0326" unicode="&#x326;" horiz-adv-x="0" 
d="M-547 -676l-26 49q82 48 141 114t72 142l-33 -6q-49 0 -77 25.5t-28 68.5q0 65 42 110.5t108 45.5q53 0 81.5 -33.5t28.5 -89.5q0 -233 -309 -426z" />
    <glyph glyph-name="uni0327" unicode="&#x327;" horiz-adv-x="0" 
d="M-590 -422l17 94h102q38 0 64 20.5t30 55.5q0 57 -69 57h-93l35 195h133l-18 -102q75 0 116.5 -34.5t41.5 -94.5q0 -84 -63.5 -137.5t-151.5 -53.5h-144z" />
    <glyph glyph-name="uni0335" unicode="&#x335;" horiz-adv-x="0" 
d="M-109 451h-612l16 92h613z" />
    <glyph glyph-name="uni0400" unicode="&#x400;" horiz-adv-x="1232" 
d="M829 1464h-112l-166 287h244zM856 0h-758q149 851 158 903q43 249 43 275q0 58 -27.5 85t-89.5 27h-20l10 62h903q150 0 150 -119q0 -17 -35 -219h-62q7 44 7 67q0 179 -220 179h-329l-90 -512h532l-16 -93h-533l-100 -563h350q120 0 207 54t160 180l51 -21l-88 -162
q-44 -79 -86 -111t-117 -32z" />
    <glyph glyph-name="uni0401" unicode="&#x401;" horiz-adv-x="1232" 
d="M608 1485q-46 0 -71 25t-25 65q0 56 40.5 97.5t96.5 41.5q46 0 71 -25t25 -69q0 -54 -41 -94.5t-96 -40.5zM977 1485q-46 0 -71 25t-25 65q0 56 40.5 97.5t96.5 41.5q46 0 71 -25t25 -69q0 -54 -41 -94.5t-96 -40.5zM856 0h-758q149 851 158 903q43 249 43 275
q0 58 -27.5 85t-89.5 27h-20l10 62h903q150 0 150 -119q0 -17 -35 -219h-62q7 44 7 67q0 179 -220 179h-329l-90 -512h532l-16 -93h-533l-100 -563h350q120 0 207 54t160 180l51 -21l-88 -162q-44 -79 -86 -111t-117 -32z" />
    <glyph glyph-name="uni0402" unicode="&#x402;" horiz-adv-x="1466" 
d="M1020 881q193 0 288 -75t95 -253q0 -136 -32.5 -247.5t-97 -197t-170 -135t-243.5 -55.5l10 51q70 0 124.5 69t83 169t43 189.5t14.5 150.5q0 118 -46.5 174.5t-125.5 56.5q-74 0 -149.5 -19t-131.5 -52l-123 -707h-266l221 1260h-65q-117 0 -186 -59t-93 -187h-61
l30 174q27 164 203 164h963l-17 -92h-508l-82 -461q62 36 149 59t173 23z" />
    <glyph glyph-name="uni0403" unicode="&#x403;" horiz-adv-x="1118" 
d="M846 1464h-113l137 287h244zM365 0h-267q140 799 158 905q43 249 43 273q0 58 -27.5 85t-89.5 27h-20l10 62h879q149 0 149 -121q0 -15 -35 -217h-61q6 38 6 67q0 93 -54.5 136t-164.5 43h-305z" />
    <glyph glyph-name="uni0404" unicode="&#x404;" horiz-adv-x="1394" 
d="M647 -41q-270 0 -418.5 148.5t-148.5 394.5q0 165 63 326t170.5 286t261.5 202t324 77q238 0 358.5 -75t120.5 -202q0 -78 -24 -201h-62q-5 189 -93 287t-255 98q-205 0 -343.5 -136t-205.5 -437h633l-16 -92h-635q-12 -79 -12 -156q0 -202 89.5 -315t270.5 -113
q144 0 278 76.5t230 216.5l61 -55q-128 -173 -281 -251.5t-366 -78.5z" />
    <glyph glyph-name="uni0405" unicode="&#x405;" horiz-adv-x="1150" 
d="M455 -35q-111 0 -206.5 26t-155.5 77.5t-60 117.5q0 22 43 265h57v-15q0 -199 80.5 -289t253.5 -90q76 0 142.5 26t111.5 82t45 130q0 64 -38 111.5t-132 113.5l-225 152q-103 67 -149 137t-46 158q0 126 75 224t193.5 148t257.5 50q111 0 206.5 -26.5t155.5 -78
t60 -117.5q0 -23 -45 -264h-57v23q0 194 -76.5 282t-236.5 88q-110 0 -194.5 -64t-84.5 -171q0 -60 36.5 -103.5t135.5 -109.5l227 -150q113 -77 162 -143t49 -149q0 -89 -35.5 -163.5t-94 -125t-135.5 -85.5t-158 -51t-162 -16z" />
    <glyph glyph-name="uni0406" unicode="&#x406;" horiz-adv-x="628" 
d="M496 0h-246q-82 0 -117 32t-35 109q0 45 13 125l192 1086h266l-192 -1086q-8 -39 -8 -88q0 -59 27.5 -88t88.5 -29h21z" />
    <glyph glyph-name="uni0407" unicode="&#x407;" horiz-adv-x="628" 
d="M281 1464q-46 0 -71.5 25.5t-25.5 69.5q0 55 41 95t97 40q46 0 71 -24t25 -66q0 -56 -40.5 -98t-96.5 -42zM629 1464q-46 0 -71.5 25.5t-25.5 69.5q0 55 41 95t97 40q46 0 71 -24t25 -66q0 -56 -40.5 -98t-96.5 -42zM496 0h-246q-82 0 -117 32t-35 109q0 45 13 125
l192 1086h266l-192 -1086q-8 -39 -8 -88q0 -59 27.5 -88t88.5 -29h21z" />
    <glyph glyph-name="uni0408" unicode="&#x408;" horiz-adv-x="573" 
d="M-184 -281l12 62q101 12 161.5 99.5t94.5 289.5l209 1182h266l-209 -1182q-19 -113 -46.5 -189t-67 -128.5t-100 -81t-135.5 -40.5t-185 -12z" />
    <glyph glyph-name="uni0409" unicode="&#x409;" horiz-adv-x="2025" 
d="M1282 82h10q185 0 288 105.5t103 295.5q0 234 -280 234h-10q-53 0 -105 -10q-18 -6 -43 -11l-104 -594q12 -6 39 -10q52 -10 102 -10zM4 -31q-60 0 -119 19l11 63q103 21 188 109q192 205 317 925q11 71 11 95q0 56 -27 83t-88 27h-21l11 62h1075l-98 -553h184
q72 0 138 -7t138 -29t124 -56.5t86 -94.5t34 -139q0 -106 -40 -189.5t-104.5 -136t-152.5 -86.5t-177 -47.5t-185 -13.5h-451l221 1260h-422l-30 -175q-68 -379 -146 -601q-182 -515 -477 -515z" />
    <glyph glyph-name="uni040A" unicode="&#x40a;" horiz-adv-x="2060" 
d="M1300 82h11q196 0 300.5 97t104.5 272q0 225 -301 225h-10q-46 0 -91 -7t-57 -14l-98 -553q12 -6 39 -10q52 -10 102 -10zM993 655h-514l-114 -655h-267q140 799 158 905q43 249 43 273q0 58 -27.5 85t-89.5 27h-20l10 62h246q82 0 116.5 -31.5t34.5 -106.5
q0 -65 -43 -286l-30 -180h514l106 604h266l-104 -594h182q58 0 112.5 -4.5t119.5 -15.5t117.5 -34t98 -56t70.5 -85t25 -117q0 -240 -199 -342q-198 -104 -477 -104h-448z" />
    <glyph glyph-name="uni040B" unicode="&#x40b;" horiz-adv-x="1486" 
d="M1022 881q393 0 393 -287q0 -28 -20 -148q-29 -176 -76 -446h-266q98 542 98 598q0 96 -46 138t-140 42q-74 0 -149.5 -19t-131.5 -52l-123 -707h-266l221 1260h-67q-117 0 -186 -59t-93 -187h-61l30 174q27 164 203 164h963l-17 -92h-506l-82 -461q62 36 149 59t173 23z
" />
    <glyph glyph-name="uni040C" unicode="&#x40c;" horiz-adv-x="1421" 
d="M903 1464h-112l137 287h243zM1192 -20q-136 0 -244.5 55t-212.5 190l-268 344l-100 -569h-267q76 432 166 954q33 191 33 224q0 58 -27.5 85t-89.5 27h-20l10 62h246q83 0 118 -31.5t35 -108.5q0 -22 -18 -127q-28 -166 -29 -170l-37 -219l433 441q99 106 196 160.5
t205 54.5h143l-12 -72q-132 0 -227 -33t-174 -112l-371 -377l385 -492q66 -85 149 -147.5t140 -69.5l-8 -49q-61 -20 -154 -20z" />
    <glyph glyph-name="uni040D" unicode="&#x40d;" horiz-adv-x="1458" 
d="M922 1464h-113l-166 287h244zM344 0h-246q140 799 158 905q43 249 43 273q0 58 -27.5 85t-89.5 27h-20l10 62h246q82 0 116.5 -31.5t34.5 -106.5q0 -37 -26 -194q-43 -266 -133 -754l786 1086h246l-238 -1352h-266l190 1085z" />
    <glyph glyph-name="uni040E" unicode="&#x40e;" horiz-adv-x="1263" 
d="M829 1444q-97 0 -163 51.5t-91 140.5l66 43q28 -46 82.5 -74t130.5 -28q148 0 250 102l49 -43q-56 -89 -141.5 -140.5t-182.5 -51.5zM180 -20l13 73q116 0 196 32t133 110l21 30l-269 860q-64 211 -215 226l9 41h204q110 0 185 -60t108 -166l183 -577l503 803h133
l-729 -1157q-64 -104 -159 -159.5t-213 -55.5h-103z" />
    <glyph glyph-name="uni040F" unicode="&#x40f;" horiz-adv-x="1417" 
d="M496 -358l32 358h-430q140 799 158 905q43 249 43 273q0 58 -27.5 85t-89.5 27h-20l10 62h246q82 0 116.5 -31.5t34.5 -106.5q0 -12 -28 -188q-10 -62 -25.5 -150t-19.5 -114q-61 -342 -117 -670h532l224 1260h266l-238 -1352h-430l-94 -358h-143z" />
    <glyph glyph-name="uni0410" unicode="&#x410;" horiz-adv-x="1325" 
d="M324 465h462l-131 534zM1192 -8q-67 0 -121.5 13t-102 42t-81.5 82.5t-51 128.5l-27 115h-545l-233 -373h-107l842 1352h92l266 -1094q49 -190 176 -205l-8 -51q-42 -10 -100 -10z" />
    <glyph glyph-name="uni0411" unicode="&#x411;" horiz-adv-x="1304" 
d="M522 82h10q204 0 307 97t103 298q0 115 -73.5 167t-229.5 52h-10q-53 0 -105 -10l-41 -10l-102 -574q12 -6 39 -10q52 -10 102 -10zM549 0h-451q140 799 158 905q43 249 43 273q0 58 -27.5 85t-89.5 27h-20l10 62h899q150 0 150 -121q0 -15 -35 -217h-62q6 38 6 67
q0 93 -54.5 136t-164.5 43h-325l-84 -482h184q240 0 391 -65q150 -67 150 -246q0 -264 -195 -367q-193 -100 -483 -100z" />
    <glyph glyph-name="uni0412" unicode="&#x412;" horiz-adv-x="1323" 
d="M522 82h10q109 0 199 38t147.5 119t57.5 191q0 217 -305 217h-154l-96 -545q12 -6 39 -10q52 -10 102 -10zM623 1262l-37 -7l-92 -516h153q144 0 242 88.5t98 233.5q0 105 -75.5 157t-200.5 52q-61 0 -88 -8zM549 0h-451q149 851 158 903q43 249 43 275q0 58 -27.5 85
t-89.5 27h-20l10 62h553q236 0 391 -58q156 -59 156 -233q0 -130 -95 -227t-247 -136q295 -30 295 -254q0 -234 -195 -340q-195 -104 -481 -104z" />
    <glyph glyph-name="uni0413" unicode="&#x413;" horiz-adv-x="1118" 
d="M365 0h-267q140 799 158 905q43 249 43 273q0 58 -27.5 85t-89.5 27h-20l10 62h879q149 0 149 -121q0 -15 -35 -217h-61q6 38 6 67q0 93 -54.5 136t-164.5 43h-305z" />
    <glyph glyph-name="uni0414" unicode="&#x414;" horiz-adv-x="1427" 
d="M272 92h615l207 1168h-451q-30 -175 -58.5 -307.5t-72 -290t-104 -300.5t-136.5 -270zM-63 -377h-101l70 397q5 31 28 51.5t54 20.5h71q129 197 212 437.5t139 555.5q10 62 10 93q0 58 -27.5 85t-89.5 27h-20l10 62h1083l-223 -1260h72q26 0 43.5 -16t17.5 -41
q0 -5 -72 -412h-102q4 102 4 105q0 149 -45.5 210.5t-146.5 61.5h-664q-115 0 -189.5 -84t-133.5 -293z" />
    <glyph glyph-name="uni0415" unicode="&#x415;" horiz-adv-x="1232" 
d="M856 0h-758q149 851 158 903q43 249 43 275q0 58 -27.5 85t-89.5 27h-20l10 62h903q150 0 150 -119q0 -17 -35 -219h-62q7 44 7 67q0 179 -220 179h-329l-90 -512h532l-16 -93h-533l-100 -563h350q120 0 207 54t160 180l51 -21l-88 -162q-44 -79 -86 -111t-117 -32z" />
    <glyph glyph-name="uni0416" unicode="&#x416;" horiz-adv-x="2025" 
d="M8 -20q-68 0 -127 20l10 49q63 11 157.5 70.5t184.5 146.5l500 492l-219 377q-46 83 -118 114t-210 31l13 72h123q107 0 184.5 -55t138.5 -160l256 -441l117 656h268l-117 -656l412 441q99 106 196 160.5t205 54.5h123l-12 -72q-134 0 -215 -28.5t-166 -116.5l-350 -377
l324 -492q56 -87 131 -146.5t139 -70.5l-8 -49q-61 -20 -136 -20q-152 0 -255 58t-197 208l-209 338l-102 -584h-269l103 584l-328 -338q-84 -89 -160.5 -144t-174.5 -88.5t-212 -33.5z" />
    <glyph glyph-name="uni0417" unicode="&#x417;" horiz-adv-x="1187" 
d="M463 -41q-183 0 -300.5 67.5t-185.5 209.5l70 51q66 -114 157 -175t224 -61q153 0 263 97t110 255q0 116 -79.5 179t-221.5 63h-174l16 92h174q63 0 126 23t116.5 64.5t87 108.5t33.5 146q0 104 -65 162.5t-157 58.5q-136 0 -248 -89t-180 -248h-63q26 136 44 191t58 95
q68 68 187.5 106t228.5 38q204 0 342 -60q133 -62 133 -227q0 -132 -100.5 -242.5t-280.5 -156.5q153 -18 231 -97.5t78 -197.5q0 -97 -38 -175.5t-100 -129.5t-145 -85t-168 -48.5t-173 -14.5z" />
    <glyph glyph-name="uni0418" unicode="&#x418;" horiz-adv-x="1458" 
d="M344 0h-246q140 799 158 905q43 249 43 273q0 58 -27.5 85t-89.5 27h-20l10 62h246q82 0 116.5 -31.5t34.5 -106.5q0 -37 -26 -194q-43 -266 -133 -754l786 1086h246l-238 -1352h-266l190 1085z" />
    <glyph glyph-name="uni0419" unicode="&#x419;" horiz-adv-x="1458" 
d="M903 1444q-97 0 -163 51.5t-91 140.5l66 43q28 -46 82.5 -74t130.5 -28q148 0 250 102l49 -43q-56 -89 -141.5 -140.5t-182.5 -51.5zM344 0h-246q140 799 158 905q43 249 43 273q0 58 -27.5 85t-89.5 27h-20l10 62h246q82 0 116.5 -31.5t34.5 -106.5q0 -37 -26 -194
q-43 -266 -133 -754l786 1086h246l-238 -1352h-266l190 1085z" />
    <glyph glyph-name="uni041A" unicode="&#x41a;" horiz-adv-x="1421" 
d="M1192 -20q-136 0 -244.5 55t-212.5 190l-268 344l-100 -569h-267q76 432 166 954q33 191 33 224q0 58 -27.5 85t-89.5 27h-20l10 62h246q83 0 118 -31.5t35 -108.5q0 -22 -18 -127q-28 -166 -29 -170l-37 -219l433 441q99 106 196 160.5t205 54.5h143l-12 -72
q-132 0 -227 -33t-174 -112l-371 -377l385 -492q66 -85 149 -147.5t140 -69.5l-8 -49q-61 -20 -154 -20z" />
    <glyph glyph-name="uni041B" unicode="&#x41b;" horiz-adv-x="1396" 
d="M4 -31q-60 0 -119 19l11 63q103 21 188 109q192 205 317 925q11 68 11 93q0 58 -27.5 85t-89.5 27h-21l11 62h1095l-237 -1352h-266l221 1260h-443l-30 -175q-193 -1116 -621 -1116z" />
    <glyph glyph-name="uni041C" unicode="&#x41c;" horiz-adv-x="1779" 
d="M1628 -41l-8 -51q-184 0 -269 71.5t-85 225.5q0 55 14 143l129 725l-637 -1073h-67l-355 1114l-194 -1114h-103l238 1352h250l317 -1006l598 1006h268l-178 -1004q-22 -135 -22 -205q0 -163 104 -184z" />
    <glyph glyph-name="uni041D" unicode="&#x41d;" horiz-adv-x="1480" 
d="M98 0l191 1085q10 72 10 93q0 58 -27.5 85t-89.5 27h-20l10 62h246q82 0 116.5 -31.5t34.5 -106.5q0 -69 -14 -129l-59 -337h553l106 604h266l-192 -1086q-8 -39 -8 -88q0 -59 27.5 -88t88.5 -29h21l-10 -61h-246q-82 0 -117 32t-35 109q0 45 13 125l69 389h-553
l-114 -655h-267z" />
    <glyph glyph-name="uni041E" unicode="&#x41e;" horiz-adv-x="1505" 
d="M645 -41q-259 0 -411 156.5t-152 408.5q0 132 39.5 261t114 238t173.5 192.5t225.5 130.5t262.5 47q259 0 411 -156.5t152 -409.5q0 -132 -39.5 -261t-114 -237.5t-173.5 -192t-225.5 -130.5t-262.5 -47zM662 51q94 0 174 41t135.5 110.5t98 156t66.5 183t36 185.5
t12 170q0 195 -78 299t-225 104q-93 0 -172.5 -41.5t-135 -111.5t-98 -156.5t-67 -183.5t-36.5 -185.5t-12 -168.5q0 -193 77.5 -297.5t224.5 -104.5z" />
    <glyph glyph-name="uni041F" unicode="&#x41f;" horiz-adv-x="1417" 
d="M365 0h-267q140 799 158 905q43 249 43 273q0 58 -27.5 85t-89.5 27h-20l10 62h1229l-238 -1352h-266l221 1260h-532z" />
    <glyph glyph-name="uni0420" unicode="&#x420;" horiz-adv-x="1187" 
d="M629 1262l-43 -7l-111 -626h123q155 0 248.5 122.5t93.5 295.5q0 113 -59.5 168t-159.5 55q-61 0 -92 -8zM655 547h-194l-96 -547h-267q149 851 158 903q43 249 43 275q0 58 -27.5 85t-89.5 27h-20l10 62h563q189 0 340 -68q150 -68 150 -260q0 -108 -47 -199
t-126.5 -151t-182 -93.5t-214.5 -33.5z" />
    <glyph glyph-name="uni0421" unicode="&#x421;" horiz-adv-x="1392" 
d="M645 -41q-271 0 -419 148.5t-148 396.5q0 163 64.5 324t172 285.5t261.5 202t321 77.5q176 0 330 -60q149 -61 149 -217q0 -78 -24 -201h-62q-5 189 -93 287t-255 98q-120 0 -220 -52.5t-165.5 -137t-110.5 -194.5t-64.5 -221t-19.5 -220q0 -199 90 -311.5t271 -112.5
q144 0 278 76.5t230 216.5l61 -55q-128 -173 -281 -251.5t-366 -78.5z" />
    <glyph glyph-name="uni0422" unicode="&#x422;" horiz-adv-x="1181" 
d="M373 0l221 1260h-145q-117 0 -186 -59t-93 -187h-61l30 174q30 164 203 164h963l-17 -92h-428l-221 -1260h-266z" />
    <glyph glyph-name="uni0423" unicode="&#x423;" horiz-adv-x="1263" 
d="M180 -20l13 73q116 0 196 32t133 110l21 30l-269 860q-64 211 -215 226l9 41h204q110 0 185 -60t108 -166l183 -577l503 803h133l-729 -1157q-64 -104 -159 -159.5t-213 -55.5h-103z" />
    <glyph glyph-name="uni0424" unicode="&#x424;" horiz-adv-x="1687" 
d="M641 164l168 962q-90 -1 -167.5 -39.5t-131 -101t-92 -142.5t-56.5 -165t-18 -168q0 -163 76 -254.5t221 -91.5zM1075 1126l-168 -962q112 1 203.5 58.5t147 148.5t85 196.5t29.5 210.5q0 163 -76 255.5t-221 92.5zM891 72l-29 -154h-266l29 154q-276 0 -422 116.5
t-146 331.5q0 313 210.5 506t557.5 193q6 30 6 49q0 104 -120 104h-21l10 62h246q84 0 120 -29.5t36 -97.5q0 -23 -10 -88q276 0 420.5 -117.5t144.5 -333.5q0 -313 -209.5 -504.5t-556.5 -191.5z" />
    <glyph glyph-name="uni0425" unicode="&#x425;" horiz-adv-x="1320" 
d="M-66 0l615 637l-211 448q-40 88 -106 153.5t-130 72.5l9 41h225q99 0 172 -61t121 -165l131 -274l483 500h133l-573 -592l233 -494q39 -89 105.5 -153.5t130.5 -71.5l-6 -41h-226q-98 0 -172.5 61.5t-122.5 163.5l-151 320l-526 -545h-134z" />
    <glyph glyph-name="uni0426" unicode="&#x426;" horiz-adv-x="1452" 
d="M1239 -379h-102q1 20 2 43.5t1.5 36t0.5 18.5q0 152 -46.5 216.5t-146.5 64.5h-850q140 799 158 905q43 249 43 273q0 58 -27.5 85t-89.5 27h-20l10 62h246q82 0 116.5 -31.5t34.5 -106.5q0 -12 -28 -188q-10 -62 -25.5 -150t-19.5 -114q-61 -342 -117 -670h532l224 1260
h266l-223 -1260h71q26 0 44 -16t18 -41z" />
    <glyph glyph-name="uni0427" unicode="&#x427;" horiz-adv-x="1351" 
d="M831 0l93 532q-93 -40 -271 -40q-444 0 -444 337q0 60 22 170q0 2 4 23.5t8 44.5t7.5 54.5t3.5 56.5q0 58 -27.5 85t-89.5 27h-20l10 62h246q82 0 116.5 -31.5t34.5 -106.5q0 -61 -24 -184q-27 -120 -27 -201q0 -117 63 -181t173 -64q122 0 231 41l129 727h266
l-237 -1352h-267z" />
    <glyph glyph-name="uni0428" unicode="&#x428;" horiz-adv-x="1949" 
d="M1696 0h-1598q140 799 158 905q43 249 43 273q0 58 -27.5 85t-89.5 27h-20l10 62h246q82 0 116.5 -31.5t34.5 -106.5q0 -12 -28 -188q-10 -62 -25.5 -150t-19.5 -114q-61 -342 -117 -670h399l223 1260h267l-224 -1260h400l223 1260h266z" />
    <glyph glyph-name="uni0429" unicode="&#x429;" horiz-adv-x="1984" 
d="M1772 -379h-103q1 20 2 43.5t1.5 36t0.5 18.5q0 152 -46 216.5t-146 64.5h-1383q140 799 158 905q43 249 43 273q0 58 -27.5 85t-89.5 27h-20l10 62h246q82 0 116.5 -31.5t34.5 -106.5q0 -12 -28 -188q-10 -62 -25.5 -150t-19.5 -114q-61 -342 -117 -670h399l223 1260
h267l-224 -1260h400l223 1260h266l-223 -1260h72q26 0 43.5 -16t17.5 -41q0 -6 -71 -414z" />
    <glyph glyph-name="uni042A" unicode="&#x42a;" horiz-adv-x="1474" 
d="M711 82h10q198 0 305 104.5t107 296.5q0 234 -302 234h-10q-52 0 -104 -10q-18 -6 -43 -11l-105 -594q12 -6 39 -10q52 -10 103 -10zM737 0h-450l221 1260h-23q-117 0 -185 -74t-105 -244h-82l59 338q5 31 28.5 51.5t55.5 20.5h535l-99 -553h185q75 0 141 -6.5
t142.5 -27.5t130.5 -55t90 -95t36 -142q0 -256 -200 -364q-201 -109 -480 -109z" />
    <glyph glyph-name="uni042B" unicode="&#x42b;" horiz-adv-x="1837" 
d="M512 82q198 0 305 104.5t107 296.5q0 118 -74 176t-227 58q-52 0 -97 -10l-41 -11l-104 -594q11 -6 37 -10q45 -10 94 -10zM528 0h-430q140 799 158 905q43 249 43 273q0 58 -27.5 85t-89.5 27h-20l10 62h246q82 0 116.5 -31.5t34.5 -106.5q0 -57 -65 -415h164
q75 0 141 -6.5t142.5 -27.5t130.5 -55t90 -95t36 -142q0 -256 -200 -364q-201 -109 -480 -109zM1694 61h20l-10 -61h-246q-83 0 -118 32t-35 109q0 37 34 242q44 264 172 969h267l-99 -557q-6 -33 -26 -149t-35 -202q-43 -246 -43 -266q0 -59 27.5 -88t91.5 -29z" />
    <glyph glyph-name="uni042C" unicode="&#x42c;" horiz-adv-x="1286" 
d="M522 82h10q198 0 305 104.5t107 296.5q0 118 -74 176t-227 58h-10q-53 0 -105 -10q-18 -6 -43 -11l-104 -594q12 -6 39 -10q52 -10 102 -10zM549 0h-451q140 799 158 905q43 249 43 273q0 58 -27.5 85t-89.5 27h-20l10 62h246q82 0 116.5 -31.5t34.5 -106.5
q0 -57 -65 -415h184q75 0 141.5 -6.5t143 -27.5t130.5 -55t90 -95t36 -142q0 -255 -201 -364t-479 -109z" />
    <glyph glyph-name="uni042D" unicode="&#x42d;" horiz-adv-x="1392" 
d="M532 -41q-213 0 -338.5 78.5t-193.5 251.5l82 55q49 -140 155.5 -216.5t249.5 -76.5q96 0 179 33t143 88.5t107 132t76.5 158t47.5 172.5h-634l16 92h633q12 88 12 162q0 411 -360 411q-334 0 -484 -385h-61q19 119 43.5 194.5t64.5 117.5q82 77 212 121.5t302 44.5
q248 0 403.5 -166t155.5 -422q0 -232 -103.5 -425t-290 -307t-417.5 -114z" />
    <glyph glyph-name="uni042E" unicode="&#x42e;" horiz-adv-x="1884" 
d="M1100 51q121 0 229 129q113 132 173.5 336t60.5 397q0 188 -65 287.5t-179 99.5q-119 0 -227 -129q-112 -139 -173 -342.5t-61 -396.5q0 -186 64 -283.5t178 -97.5zM1083 -41q-225 0 -364 152.5t-139 400.5q0 70 12 143h-113l-114 -655h-267q140 799 158 905
q43 249 43 273q0 58 -27.5 85t-89.5 27h-20l10 62h246q82 0 116.5 -31.5t34.5 -106.5q0 -65 -43 -286l-30 -180h114q48 189 157.5 336t257.5 228t310 81q225 0 363.5 -152.5t138.5 -402.5q0 -242 -105.5 -444t-283.5 -320q-177 -115 -365 -115z" />
    <glyph glyph-name="uni042F" unicode="&#x42f;" horiz-adv-x="1292" 
d="M719 639h123l108 616l-41 7q-31 8 -90 8q-53 0 -110 -26.5t-106.5 -74t-81.5 -123.5t-32 -165q0 -112 66.5 -177t163.5 -65zM59 -33q-37 0 -79 6.5t-56 14.5l8 51q122 15 293 225l250 309q-116 25 -194 106.5t-78 199.5q0 179 104 286q96 96 236 141.5t291 45.5h565
l-10 -62h-21q-84 0 -125 -49.5t-55 -155.5l-191 -1085h-268l96 557h-90l-235 -293q-127 -158 -232 -227.5t-209 -69.5z" />
    <glyph glyph-name="uni0430" unicode="&#x430;" 
d="M463 72q115 0 207 133l98 553q-20 58 -62.5 95.5t-99.5 37.5q-62 0 -113.5 -47.5t-82.5 -117t-52.5 -154.5t-30 -155t-8.5 -122q0 -223 144 -223zM406 -20q-173 0 -265 99.5t-92 268.5q0 113 38 225.5t105.5 204t169.5 148.5t220 57q68 0 126 -28.5t89 -84.5h10l88 93
h174l-168 -963h-174l-57 92h-11q-43 -55 -111 -83.5t-142 -28.5z" />
    <glyph glyph-name="uni0431" unicode="&#x431;" 
d="M483 72q57 0 105 38t78 95.5t51 128.5t30 134.5t9 115.5q0 112 -41 168.5t-103 56.5q-58 0 -106 -38t-78.5 -95.5t-51.5 -129t-29.5 -135t-8.5 -116.5q0 -112 40.5 -167.5t104.5 -55.5zM467 -20q-187 0 -290 99t-103 283q0 241 73 435t195 315q120 117 240 143l295 66
q107 25 154.5 46t58.5 56h61l-29 -163q-15 -107 -147 -134l-348 -75q-145 -32 -245.5 -136.5t-137.5 -279.5h10q148 266 416 266q169 0 264.5 -86.5t95.5 -253.5q0 -142 -43.5 -254t-120 -183t-178 -107.5t-221.5 -36.5z" />
    <glyph glyph-name="uni0432" unicode="&#x432;" horiz-adv-x="1081" 
d="M430 82q109 0 179.5 60.5t70.5 166.5q0 73 -53.5 112.5t-151.5 39.5h-72l-63 -365q41 -14 90 -14zM475 866l-55 -313h72q93 0 159 55.5t66 141.5q0 61 -42 96t-106 35q-47 0 -94 -15zM453 0h-396l95 553q36 216 36 235q0 58 -27 85.5t-89 27.5h-11l11 62h549
q176 0 275 -54t99 -155q0 -104 -79 -168.5t-222 -83.5q123 -14 192.5 -65.5t69.5 -135.5q0 -149 -133 -225t-370 -76z" />
    <glyph glyph-name="uni0433" unicode="&#x433;" horiz-adv-x="921" 
d="M348 -20q-173 0 -275 60t-102 167q0 118 81.5 195.5t260.5 146.5l131 51q92 37 133 77t41 103q0 53 -37.5 82t-113.5 29q-113 0 -191.5 -63.5t-115.5 -172.5h-72q24 136 63.5 201.5t122.5 95.5q88 31 250 31q160 0 253 -59t93 -166q0 -109 -80 -190.5t-237 -145.5
l-115 -45q-115 -43 -165 -86.5t-50 -108.5q0 -110 183 -110q113 0 190 62.5t117 172.5h71q-24 -136 -63.5 -201.5t-122.5 -95.5q-86 -30 -250 -30z" />
    <glyph glyph-name="uni0434" unicode="&#x434;" horiz-adv-x="1150" 
d="M483 72q61 0 113 39.5t85 100t56 135t33 142.5t10 125q0 118 -39 187t-118 69q-60 0 -111.5 -41t-85 -104t-57.5 -139.5t-34.5 -145t-10.5 -123.5q0 -121 42 -183t117 -62zM467 -20q-200 0 -308 101.5t-108 276.5q0 123 42 233.5t115 192.5t180 130.5t230 48.5
q104 0 179.5 -43.5t99.5 -120.5q4 70 4 80q0 179 -77 280t-234 101q-69 0 -146.5 -22t-140.5 -58l-35 86q61 41 167.5 73.5t215.5 32.5q215 0 323.5 -148t108.5 -407q0 -251 -70 -438t-210 -293t-336 -106z" />
    <glyph glyph-name="uni0435" unicode="&#x435;" horiz-adv-x="1040" 
d="M342 502h215q54 0 94.5 40.5t58 93t17.5 105.5q0 71 -35 110.5t-88 39.5q-198 0 -262 -389zM444 -20q-183 0 -288 107t-105 286q0 163 72 302.5t203.5 223.5t294.5 84q182 0 282.5 -66t100.5 -184q0 -72 -29 -129t-75 -92.5t-108 -59t-124 -33t-127 -9.5h-215
q-13 -70 -13 -115q0 -109 46.5 -166t132.5 -57q94 0 167.5 41.5t153.5 128.5l55 -47q-83 -102 -184 -158.5t-240 -56.5z" />
    <glyph glyph-name="uni0436" unicode="&#x436;" horiz-adv-x="1517" 
d="M41 -20q-38 0 -80.5 6t-56.5 14l8 49q103 24 217 156l317 360l-137 242q-58 102 -186 102l8 54h41q102 0 161 -35.5t107 -122.5l174 -303l80 461h267l-80 -461l280 303q82 87 152 122.5t170 35.5h41l-8 -54q-130 0 -224 -102l-223 -242l191 -360q71 -133 163 -156l-8 -49
q-17 -8 -62 -14t-83 -6q-92 0 -155.5 42.5t-117.5 141.5l-133 252l-71 -416h-267l72 416l-219 -252q-90 -99 -168.5 -141.5t-169.5 -42.5z" />
    <glyph glyph-name="uni0437" unicode="&#x437;" horiz-adv-x="944" 
d="M338 -20q-251 0 -350 163l69 52q40 -58 94.5 -90.5t141.5 -32.5q115 0 183.5 60.5t68.5 178.5q0 73 -50 106.5t-167 33.5h-103l17 92h102q132 0 191 49.5t59 163.5q0 65 -44 100t-114 35q-93 0 -167 -63t-97 -162h-61q15 82 39 161q50 156 354 156q174 0 270 -56t96 -163
q0 -109 -78 -182t-210 -90q110 -13 173.5 -68t63.5 -135q0 -72 -31.5 -128t-80 -89t-114.5 -54.5t-128 -29.5t-127 -8z" />
    <glyph glyph-name="uni0438" unicode="&#x438;" horiz-adv-x="1161" 
d="M420 -20q-167 0 -245.5 63t-78.5 201q0 15 17 127q27 181 53 325q10 72 10 92q0 58 -27.5 85.5t-89.5 27.5h-20l10 62h246q82 0 116.5 -31.5t34.5 -106.5q0 -69 -14 -129q-72 -436 -72 -463q0 -86 33.5 -123.5t104.5 -37.5q115 0 207 133l133 758h266l-168 -963h-174
l-57 92h-11q-53 -53 -125.5 -82.5t-148.5 -29.5z" />
    <glyph glyph-name="uni0439" unicode="&#x439;" horiz-adv-x="1161" 
d="M651 1044q-96 0 -162.5 51.5t-91.5 141.5l66 43q28 -46 82.5 -74t130.5 -28q148 0 250 102l49 -43q-56 -89 -141.5 -141t-182.5 -52zM420 -20q-167 0 -245.5 63t-78.5 201q0 15 17 127q27 181 53 325q10 72 10 92q0 58 -27.5 85.5t-89.5 27.5h-20l10 62h246
q82 0 116.5 -31.5t34.5 -106.5q0 -69 -14 -129q-72 -436 -72 -463q0 -86 33.5 -123.5t104.5 -37.5q115 0 207 133l133 758h266l-168 -963h-174l-57 92h-11q-53 -53 -125.5 -82.5t-148.5 -29.5z" />
    <glyph glyph-name="uni043A" unicode="&#x43a;" horiz-adv-x="1079" 
d="M831 -20q-93 0 -160.5 38.5t-115.5 124.5l-152 258l-69 -401h-266l94 553q37 222 37 235q0 58 -27.5 85.5t-89.5 27.5h-21l11 62h245q82 0 117 -31.5t35 -106.5q0 -21 -23 -172l-24 -151l301 303q88 88 156 123t165 35h41l-8 -54q-121 0 -223 -102l-242 -242l209 -360
q77 -138 164 -156l-8 -49q-17 -8 -62.5 -14t-83.5 -6z" />
    <glyph glyph-name="uni043B" unicode="&#x43b;" horiz-adv-x="1165" 
d="M31 -31q-60 0 -119 19l10 59q66 10 116 43t97 106.5t87 201.5t75 319q6 37 6 69q0 57 -30 86t-97 29l10 62h922l-168 -963h-266l151 870h-288l-27 -153q-131 -748 -479 -748z" />
    <glyph glyph-name="uni043C" unicode="&#x43c;" horiz-adv-x="1370" 
d="M1264 0l-11 -51q-185 0 -270.5 68.5t-85.5 215.5q0 33 12 119q13 86 62 353l-418 -705h-68l-229 725l-127 -723h-102l168 961h249l195 -617l379 637h268q-96 -554 -108 -631q-23 -151 -23 -180q0 -151 109 -172z" />
    <glyph glyph-name="uni043D" unicode="&#x43d;" horiz-adv-x="1193" 
d="M68 0l94 553q37 222 37 235q0 58 -27.5 85.5t-89.5 27.5h-21l11 62h245q82 0 117 -31.5t35 -106.5q0 -59 -43 -293h328l75 431h267q-133 -747 -133 -785q0 -59 27 -88t91 -29h21l-10 -61h-246q-83 0 -118.5 32t-35.5 109q0 51 45 299h-327l-76 -440h-266z" />
    <glyph glyph-name="uni043E" unicode="&#x43e;" horiz-adv-x="1132" 
d="M479 72q65 0 119 43.5t86.5 108t55 144.5t31.5 149t9 124q0 121 -39.5 185.5t-117.5 64.5q-65 0 -119 -43.5t-86.5 -108t-55 -144.5t-31.5 -149t-9 -124q0 -121 39.5 -185.5t117.5 -64.5zM463 -20q-194 0 -304 108t-110 289q0 161 78.5 300.5t214.5 222.5t297 83
q194 0 304 -108t110 -289q0 -161 -78.5 -300.5t-214.5 -222.5t-297 -83z" />
    <glyph glyph-name="uni043F" unicode="&#x43f;" horiz-adv-x="1181" 
d="M66 0l120 696q11 79 11 97q0 55 -26.5 81.5t-88.5 26.5h-21l11 62h202q69 0 106 -17.5t54 -58.5q116 96 316 96q168 0 250.5 -65.5t82.5 -204.5q0 -35 -10 -107l-106 -606h-267l107 608q8 36 8 94q0 179 -156 179q-127 0 -198 -64q2 -10 2 -41q0 -37 -6 -67l-125 -709
h-266z" />
    <glyph glyph-name="uni0440" unicode="&#x440;" horiz-adv-x="1165" 
d="M518 72q66 0 119 46.5t85 114.5t53.5 153t29.5 155t8 127q0 111 -34 167t-107 56q-112 0 -213 -84v-10l2 -29q0 -42 -107 -635q29 -29 74.5 -45t89.5 -16zM338 41l-76 -430h-266q31 176 66 377.5t57.5 328.5t34.5 199q43 249 43 275q0 58 -26.5 84t-88.5 26h-21l11 62
h202q73 0 109.5 -19.5t48.5 -66.5q130 106 297 106q170 0 262 -100.5t92 -274.5q0 -117 -38 -229.5t-106 -201t-171.5 -143t-224.5 -54.5q-87 0 -152 30q-28 10 -53 31z" />
    <glyph glyph-name="uni0441" unicode="&#x441;" horiz-adv-x="1019" 
d="M465 -20q-199 0 -306.5 105.5t-107.5 283.5q0 168 73.5 307.5t209.5 223t307 83.5q135 0 236 -29q96 -30 96 -135q0 -56 -27 -194h-61q2 10 2 49q0 108 -59.5 162.5t-172.5 54.5q-71 0 -129.5 -40t-95 -102t-62 -140t-36 -150t-10.5 -137q0 -250 200 -250q94 0 168 41.5
t154 128.5l55 -47q-87 -105 -187 -160t-247 -55z" />
    <glyph glyph-name="uni0442" unicode="&#x442;" horiz-adv-x="1693" 
d="M332 0h-266q23 139 46 274.5t34.5 200.5t13.5 82q37 218 37 234q0 58 -26.5 84t-88.5 26h-21l11 62h202q138 0 162 -78h8q125 98 275 98q91 0 158.5 -34.5t103.5 -82.5q61 58 134.5 87.5t176.5 29.5q303 0 303 -270q0 -32 -18 -152q-6 -35 -19 -109t-35.5 -202.5
t-43.5 -249.5h-267q29 164 61.5 347t37.5 214q18 123 18 152q0 168 -127 168q-55 0 -105 -21t-83 -57l4 -19q6 -43 6 -59q0 -19 -25 -182q-93 -536 -94 -543h-266q21 121 43.5 249.5t35.5 202.5t19 109q19 130 19 152q0 168 -127 168q-41 0 -91 -25t-81 -57v-11q0 -2 1 -11
t1 -19q0 -55 -127 -758z" />
    <glyph glyph-name="uni0443" unicode="&#x443;" horiz-adv-x="1042" 
d="M8 -410l12 72q115 0 190.5 44t141.5 155l62 110l-226 807q-23 78 -61.5 117.5t-99.5 46.5l6 41h180q90 0 152 -44t86 -120l145 -516l365 660h108l-606 -1096q-89 -157 -172 -217t-201 -60h-82z" />
    <glyph glyph-name="uni0444" unicode="&#x444;" horiz-adv-x="1445" 
d="M510 51l152 860q-57 -11 -114.5 -54.5t-107.5 -112.5t-81 -172.5t-31 -221.5q0 -125 49.5 -202.5t132.5 -96.5zM907 911l-151 -860q57 10 114.5 52.5t107.5 112t81 173.5t31 223q0 126 -50.5 205.5t-132.5 93.5zM754 -20l-66 -369h-266l65 369q-207 13 -320.5 119.5
t-113.5 281.5q0 245 171 416t440 186l10 68q18 105 18 127q0 58 -27.5 85t-89.5 27h-20l10 62h246q82 0 117 -31.5t35 -106.5q0 -52 -33 -231q207 -13 319.5 -120t112.5 -281q0 -171 -82.5 -307t-220 -211.5t-305.5 -83.5z" />
    <glyph glyph-name="uni0445" unicode="&#x445;" horiz-adv-x="1017" 
d="M-51 0l420 428l-138 330q-31 72 -72.5 114t-88.5 50l6 41h194q91 0 146 -40t88 -124l69 -166l326 330h137l-420 -426l140 -332q31 -72 73 -114t89 -50l-7 -41h-194q-91 0 -146 40t-88 124l-71 166l-326 -330h-137z" />
    <glyph glyph-name="uni0446" unicode="&#x446;" horiz-adv-x="1173" 
d="M1001 -328h-92q4 94 4 95q0 61 -9.5 102.5t-30 66.5t-40.5 38t-53 26q-46 20 -64 38t-22 54h-8q-112 -112 -274 -112q-167 0 -245.5 63t-78.5 201q0 54 10 112l60 340q10 62 10 92q0 58 -27.5 85.5t-89.5 27.5h-20l10 62h246q82 0 116.5 -31.5t34.5 -106.5
q1 -23 -14 -129l-59 -342q-13 -76 -13 -121q0 -86 33.5 -123.5t103.5 -37.5q120 0 207 133l133 758h267l-154 -871h62q26 0 43.5 -16t17.5 -41z" />
    <glyph glyph-name="uni0447" unicode="&#x447;" horiz-adv-x="1132" 
d="M641 0l64 365q-93 -37 -191 -37q-159 0 -250.5 60.5t-91.5 180.5q0 35 12 105q15 64 15 114q0 58 -27.5 85.5t-89.5 27.5h-21l11 62h245q82 0 117 -31.5t35 -106.5q0 -29 -14 -127q-17 -97 -17 -133q0 -145 140 -145q79 0 141 33l90 510h266l-168 -963h-266z" />
    <glyph glyph-name="uni0448" unicode="&#x448;" horiz-adv-x="1675" 
d="M391 -20q-151 0 -227 65t-76 203q0 50 10 108l60 340q10 62 10 92q0 58 -27.5 85.5t-89.5 27.5h-20l10 62h246q82 0 116.5 -31.5t34.5 -106.5q0 -46 -14 -129l-59 -342q-11 -79 -11 -104q0 -168 127 -168q55 0 105.5 21t83.5 57q-11 37 -11 76q0 37 13 120l106 607h266
l-106 -609q-12 -67 -12 -116q0 -166 114 -166q40 0 94.5 39.5t84.5 93.5l133 758h266l-168 -963h-174l-57 92h-11q-67 -60 -121.5 -86t-134.5 -26q-87 0 -157 36.5t-93 79.5q-64 -58 -137 -87t-174 -29z" />
    <glyph glyph-name="uni0449" unicode="&#x449;" horiz-adv-x="1695" 
d="M1524 -328h-92q4 94 4 95q0 61 -9.5 102.5t-30 66.5t-40.5 38t-53 26q-46 20 -64 38t-22 54h-9q-67 -60 -121.5 -86t-134.5 -26q-87 0 -157 36.5t-93 79.5q-64 -58 -137 -87t-174 -29q-151 0 -227 65t-76 203q0 50 10 108l60 340q10 62 10 92q0 58 -27.5 85.5t-89.5 27.5
h-20l10 62h246q82 0 116.5 -31.5t34.5 -106.5q0 -46 -14 -129l-59 -342q-11 -79 -11 -104q0 -168 127 -168q55 0 105.5 21t83.5 57q-11 37 -11 76q0 37 13 120l106 607h266l-106 -609q-12 -67 -12 -116q0 -166 114 -166q40 0 94.5 39.5t84.5 93.5l133 758h266l-154 -871h62
q26 0 43.5 -16t17.5 -41z" />
    <glyph glyph-name="uni044A" unicode="&#x44a;" horiz-adv-x="1222" 
d="M616 82q110 0 178 64.5t68 197.5q0 148 -174 148q-50 0 -94 -15l-68 -381q41 -14 90 -14zM664 0h-420l151 870q-104 -7 -162.5 -72.5t-89.5 -203.5h-82l52 297q4 31 28.5 51.5t55.5 20.5h481l-68 -390h154q178 0 275.5 -61t97.5 -176q0 -90 -43.5 -158t-115 -105
t-150.5 -55t-164 -18z" />
    <glyph glyph-name="uni044B" unicode="&#x44b;" horiz-adv-x="1521" 
d="M440 82q95 0 160.5 66.5t65.5 195.5q0 75 -41.5 111.5t-112.5 36.5q-50 0 -94 -15l-68 -381q41 -14 90 -14zM467 0h-399l94 553q37 222 37 235q0 58 -27.5 85.5t-89.5 27.5h-21l11 62h245q82 0 117 -31.5t35 -106.5q0 -32 -18 -149l-17 -103h133q178 0 275.5 -61
t97.5 -176q0 -90 -43.5 -158t-115 -105t-150.5 -55t-164 -18zM1409 61h21l-11 -61h-245q-83 0 -118.5 32t-35.5 109q0 21 31 205q9 61 106 617h266q-133 -747 -133 -785q0 -59 27.5 -88t91.5 -29z" />
    <glyph glyph-name="uni044C" unicode="&#x44c;" horiz-adv-x="1011" 
d="M440 82q110 0 178 64.5t68 197.5q0 148 -174 148q-50 0 -94 -15l-68 -381q41 -14 90 -14zM487 0h-419l94 553q37 222 37 235q0 58 -27.5 85.5t-89.5 27.5h-21l11 62h245q82 0 117 -31.5t35 -106.5q0 -32 -18 -149l-17 -103h154q178 0 275.5 -61t97.5 -176
q0 -90 -43.5 -158t-115.5 -105t-151 -55t-164 -18z" />
    <glyph glyph-name="uni044D" unicode="&#x44d;" horiz-adv-x="1032" 
d="M360 -20q-101 0 -174.5 29.5t-114 74t-71.5 111.5l72 47q52 -90 110.5 -130t153.5 -40q238 0 317 358h-387l15 92h387q8 47 8 109q0 127 -49 193.5t-138 66.5q-125 0 -208.5 -68.5t-114.5 -197.5h-62q25 141 44.5 198t58.5 88q84 72 330 72q200 0 306.5 -105t106.5 -286
q0 -169 -75.5 -309t-211 -221.5t-303.5 -81.5z" />
    <glyph glyph-name="uni044E" unicode="&#x44e;" horiz-adv-x="1511" 
d="M889 72q55 0 102.5 45.5t78 114t52 151t30.5 153t9 123.5q0 110 -33.5 171t-95.5 61q-69 0 -132.5 -81t-100.5 -216q-39 -130 -39 -291q0 -231 129 -231zM872 -20q-178 0 -281.5 109.5t-103.5 289.5q0 4 1 12.5t2 22t2 26.5h-82l-76 -440h-266l94 553q37 222 37 235
q0 58 -27.5 85.5t-89.5 27.5h-21l11 62h245q82 0 117 -31.5t35 -106.5q0 -59 -43 -293h84q50 194 200 322.5t339 128.5q175 0 278 -109t103 -288q0 -154 -72 -293t-201.5 -226t-284.5 -87z" />
    <glyph glyph-name="uni044F" unicode="&#x44f;" horiz-adv-x="1087" 
d="M551 481q15 0 30.5 1.5t26 3.5t19 4.5t13.5 3.5l5 2l66 370q-1 0 -14 4t-34 7.5t-42 3.5q-100 0 -167 -63.5t-67 -184.5q0 -73 45 -112.5t119 -39.5zM61 -31q-75 0 -127 21l7 53q93 12 200 152l162 213q-91 13 -142.5 69t-51.5 139q0 80 31 142.5t80.5 100.5t117.5 62
t135 33t141 9h533l-10 -62h-11q-84 0 -125 -49.5t-55 -155.5l-121 -696h-266l70 397h-90l-166 -243q-68 -99 -138 -142t-174 -43z" />
    <glyph glyph-name="uni0450" unicode="&#x450;" horiz-adv-x="1040" 
d="M342 502h215q54 0 94.5 40.5t58 93t17.5 105.5q0 71 -35 110.5t-88 39.5q-198 0 -262 -389zM444 -20q-183 0 -288 107t-105 286q0 163 72 302.5t203.5 223.5t294.5 84q182 0 282.5 -66t100.5 -184q0 -72 -29 -129t-75 -92.5t-108 -59t-124 -33t-127 -9.5h-215
q-13 -70 -13 -115q0 -109 46.5 -166t132.5 -57q94 0 167.5 41.5t153.5 128.5l55 -47q-83 -102 -184 -158.5t-240 -56.5zM385 1362h244l35 -287h-113z" />
    <glyph glyph-name="uni0451" unicode="&#x451;" horiz-adv-x="1040" 
d="M342 502h215q54 0 94.5 40.5t58 93t17.5 105.5q0 71 -35 110.5t-88 39.5q-198 0 -262 -389zM444 -20q-183 0 -288 107t-105 286q0 163 72 302.5t203.5 223.5t294.5 84q182 0 282.5 -66t100.5 -184q0 -72 -29 -129t-75 -92.5t-108 -59t-124 -33t-127 -9.5h-215
q-13 -70 -13 -115q0 -109 46.5 -166t132.5 -57q94 0 167.5 41.5t153.5 128.5l55 -47q-83 -102 -184 -158.5t-240 -56.5zM442 1096q-46 0 -71 25t-25 65q0 56 40.5 97.5t96.5 41.5q47 0 72 -25.5t25 -68.5q0 -54 -41.5 -94.5t-96.5 -40.5zM811 1096q-46 0 -71 25t-25 65
q0 56 40.5 97.5t96.5 41.5q46 0 71 -25t25 -69q0 -54 -41 -94.5t-96 -40.5z" />
    <glyph glyph-name="uni0452" unicode="&#x452;" horiz-adv-x="1120" 
d="M418 -287l8 51q91 17 145.5 99.5t85.5 249.5l21 116q61 340 61 387q0 162 -127 162q-92 0 -202 -98l-119 -680h-266l178 1014h-144l17 92h143l21 123l125 123h163l-43 -246h308l-17 -92h-307l-41 -236q55 48 124.5 75.5t137.5 27.5q316 0 316 -267q0 -40 -35 -239
q-29 -157 -31 -172l-16 -90q-35 -203 -160 -301.5t-346 -98.5z" />
    <glyph glyph-name="uni0453" unicode="&#x453;" horiz-adv-x="921" 
d="M588 1075h-113l137 287h244zM348 -20q-173 0 -275 60t-102 167q0 118 81.5 195.5t260.5 146.5l131 51q92 37 133 77t41 103q0 53 -37.5 82t-113.5 29q-113 0 -191.5 -63.5t-115.5 -172.5h-72q24 136 63.5 201.5t122.5 95.5q88 31 250 31q160 0 253 -59t93 -166
q0 -109 -80 -190.5t-237 -145.5l-115 -45q-115 -43 -165 -86.5t-50 -108.5q0 -110 183 -110q113 0 190 62.5t117 172.5h71q-24 -136 -63.5 -201.5t-122.5 -95.5q-86 -30 -250 -30z" />
    <glyph glyph-name="uni0454" unicode="&#x454;" horiz-adv-x="1032" 
d="M465 -20q-199 0 -306.5 105.5t-107.5 283.5q0 171 75 311t210.5 221.5t304.5 81.5q182 0 257 -36t75 -128q0 -56 -27 -194h-61q2 10 2 49q0 104 -60.5 160.5t-171.5 56.5q-107 0 -187.5 -94t-121.5 -275h387l-14 -92h-387q-8 -49 -8 -111q0 -247 198 -247q94 0 168 41.5
t154 128.5l55 -47q-87 -105 -187 -160t-247 -55z" />
    <glyph glyph-name="uni0455" unicode="&#x455;" horiz-adv-x="960" 
d="M367 -20q-143 0 -238 32q-102 34 -102 142q0 51 18 153h72v-6q0 -108 56.5 -168.5t168.5 -60.5q62 0 112.5 15.5t84.5 51.5t34 88q0 45 -36.5 78t-120.5 72l-99 45q-109 53 -162 110.5t-53 133.5t38 138t101.5 100t141 58.5t160.5 20.5q141 0 239 -33q101 -34 101 -141
q0 -46 -19 -154h-71v7q0 107 -57 168t-169 61q-82 0 -141 -43.5t-59 -118.5q0 -42 28.5 -72t91.5 -57l115 -51q126 -55 181 -111.5t55 -136.5t-41 -143t-109 -101t-150 -57.5t-171 -19.5z" />
    <glyph glyph-name="uni0456" unicode="&#x456;" horiz-adv-x="555" 
d="M389 1073q-61 0 -95 33.5t-34 89.5q0 61 38 104t97 43q62 0 95.5 -33.5t33.5 -88.5q0 -68 -34.5 -108t-100.5 -40zM68 0l120 696q11 79 11 92q0 58 -27.5 85.5t-89.5 27.5h-21l11 62h245q82 0 117 -31.5t35 -106.5q0 -46 -14 -129l-121 -696h-266z" />
    <glyph glyph-name="uni0457" unicode="&#x457;" horiz-adv-x="555" 
d="M229 1094q-61 0 -95 34t-34 89q0 61 38.5 104t97.5 43q62 0 95.5 -34t33.5 -89q0 -61 -38.5 -104t-97.5 -43zM608 1094q-62 0 -95.5 34t-33.5 89q0 61 38 104t97 43q62 0 95.5 -34t33.5 -89q0 -61 -38 -104t-97 -43zM68 0l98 580q33 179 33 208q0 58 -27.5 85.5
t-89.5 27.5h-21l11 62h245q82 0 117 -31.5t35 -106.5q0 -19 -23 -170q-6 -42 -112 -655h-266z" />
    <glyph glyph-name="uni0458" unicode="&#x458;" horiz-adv-x="552" 
d="M389 1073q-61 0 -95 33.5t-34 89.5q0 61 38 104t97 43q62 0 95.5 -33.5t33.5 -88.5q0 -61 -38 -104.5t-97 -43.5zM-180 -389l8 51q100 19 156.5 105.5t91.5 283.5l96 563q27 153 27 174q0 58 -27.5 85.5t-89.5 27.5h-21l11 62h245q82 0 117 -31.5t35 -106.5
q0 -34 -20 -163q-6 -39 -20 -118.5t-39.5 -222.5t-47.5 -270q-31 -174 -88 -267t-158 -133t-276 -40z" />
    <glyph glyph-name="uni0459" unicode="&#x459;" horiz-adv-x="1628" 
d="M1022 82q110 0 178 64.5t68 197.5q0 148 -174 148q-52 0 -95 -15l-67 -381q41 -14 90 -14zM31 -31q-60 0 -119 19l10 59q66 10 116 43t97 106.5t87 201.5t75 319q6 37 6 69q0 57 -30 86t-97 29l10 62h897l-67 -390h153q178 0 275.5 -61t97.5 -176q0 -90 -43.5 -158
t-115 -105t-150.5 -55t-164 -18h-420l152 870h-264l-27 -153q-131 -748 -479 -748z" />
    <glyph glyph-name="uni045A" unicode="&#x45a;" horiz-adv-x="1615" 
d="M1014 82q109 0 175 61.5t66 184.5q0 143 -174 143q-51 0 -94 -14l-63 -361q41 -14 90 -14zM414 461l-80 -461h-266l94 553q37 222 37 235q0 58 -27.5 85.5t-89.5 27.5h-21l11 62h245q82 0 117 -31.5t35 -106.5q0 -44 -39 -272h307l72 410h266l-71 -410h153
q179 0 277 -60.5t98 -170.5q0 -71 -30 -127.5t-77 -92t-110.5 -59.5t-126 -33.5t-127.5 -9.5h-420l80 461h-307z" />
    <glyph glyph-name="uni045B" unicode="&#x45b;" horiz-adv-x="1122" 
d="M25 0l178 1014h-144l17 92h143l21 123l125 123h163l-43 -246h205l-16 -92h-205l-41 -236q55 48 124.5 75.5t137.5 27.5q316 0 316 -267q0 -60 -101 -614h-266q18 102 37 212t30.5 174.5t16.5 94.5q16 115 16 135q0 162 -127 162q-92 0 -202 -98l-119 -680h-266z" />
    <glyph glyph-name="uni045C" unicode="&#x45c;" horiz-adv-x="1079" 
d="M690 1075h-112l137 287h243zM831 -20q-93 0 -160.5 38.5t-115.5 124.5l-152 258l-69 -401h-266l94 553q37 222 37 235q0 58 -27.5 85.5t-89.5 27.5h-21l11 62h245q82 0 117 -31.5t35 -106.5q0 -21 -23 -172l-24 -151l301 303q88 88 156 123t165 35h41l-8 -54
q-121 0 -223 -102l-242 -242l209 -360q77 -138 164 -156l-8 -49q-17 -8 -62.5 -14t-83.5 -6z" />
    <glyph glyph-name="uni045D" unicode="&#x45d;" horiz-adv-x="1161" 
d="M684 1075h-113l-165 287h243zM420 -20q-167 0 -245.5 63t-78.5 201q0 15 17 127q27 181 53 325q10 72 10 92q0 58 -27.5 85.5t-89.5 27.5h-20l10 62h246q82 0 116.5 -31.5t34.5 -106.5q0 -69 -14 -129q-72 -436 -72 -463q0 -86 33.5 -123.5t104.5 -37.5q115 0 207 133
l133 758h266l-168 -963h-174l-57 92h-11q-53 -53 -125.5 -82.5t-148.5 -29.5z" />
    <glyph glyph-name="uni045E" unicode="&#x45e;" horiz-adv-x="1042" 
d="M664 1044q-96 0 -162.5 51.5t-91.5 141.5l65 43q28 -46 82.5 -74t130.5 -28q148 0 250 102l49 -43q-57 -89 -141.5 -141t-181.5 -52zM8 -410l12 72q115 0 190.5 44t141.5 155l62 110l-226 807q-23 78 -61.5 117.5t-99.5 46.5l6 41h180q90 0 152 -44t86 -120l145 -516
l365 660h108l-606 -1096q-89 -157 -172 -217t-201 -60h-82z" />
    <glyph glyph-name="uni045F" unicode="&#x45f;" horiz-adv-x="1153" 
d="M381 -307l25 307h-338l94 553q37 222 37 235q0 58 -27.5 85.5t-89.5 27.5h-21l11 62h245q82 0 117 -31.5t35 -106.5q0 -27 -27 -186q-33 -202 -94 -547h328l153 871h267l-168 -963h-338l-86 -307h-123z" />
    <glyph glyph-name="uni0462" unicode="&#x462;" horiz-adv-x="1460" 
d="M1112 399q8 36 8 86q0 116 -73 174t-226 58h-10q-59 0 -104 -10l-43 -11l-105 -594q12 -6 39 -10q45 -10 100 -10h11q179 0 278 79t125 238zM1128 1055h-403l-43 -256h184q52 0 99.5 -3t103.5 -12t102.5 -23.5t91.5 -39.5t75.5 -58t49.5 -81t19 -107q0 -122 -62.5 -227.5
t-170.5 -157.5q-191 -90 -449 -90h-451l185 1055h-47q-118 0 -187 -59t-92 -187h-61l30 174q27 164 203 164h168l2 31q0 57 -27.5 84.5t-89.5 27.5h-20l10 62h246q82 0 116.5 -32t34.5 -110q0 -4 -0.5 -12t-1.5 -23t-2 -28h404z" />
    <glyph glyph-name="uni0463" unicode="&#x463;" horiz-adv-x="1460" 
d="M971 82q69 0 116.5 67t47.5 195q0 148 -113 148q-40 0 -74 -9l-45 -262q-1 -5 -3.5 -20t-4.5 -29.5t-2 -24.5q0 -33 18 -49t60 -16zM457 709l-125 -709h-266l120 696q11 79 11 97q0 55 -26.5 81.5t-88.5 26.5h-21l11 62h202q69 0 106 -17.5t54 -58.5q78 96 213 96
q169 0 251.5 -66t82.5 -204q0 -35 -10 -107l-6 -33h92q173 0 262.5 -60t89.5 -177q0 -158 -121 -247t-332 -89q-142 0 -223.5 66.5t-81.5 201.5q0 53 8 92l62 342q4 24 4 50q0 62 -31 96.5t-86 34.5q-99 0 -147 -66q2 -10 2 -41q0 -37 -6 -67z" />
    <glyph glyph-name="uni046A" unicode="&#x46a;" horiz-adv-x="2025" 
d="M1034 668l512 592h-878zM8 -20q-71 0 -127 20l8 49q67 11 164 71t183 146l321 318q158 155 307 164l-246 387q-50 76 -126 110.5t-203 34.5l12 72h1661l-12 -72q-135 0 -214 -28.5t-165 -116.5l-342 -387q149 -8 256 -177l203 -305q60 -88 133.5 -147.5t134.5 -69.5
l-8 -49q-61 -20 -136 -20q-160 0 -263.5 62.5t-188.5 203.5l-209 338l-102 -584h-269l103 584l-328 -338q-132 -137 -254.5 -201.5t-292.5 -64.5z" />
    <glyph glyph-name="uni046B" unicode="&#x46b;" horiz-adv-x="1517" 
d="M727 483l436 387h-719zM41 -20q-91 0 -137 20l8 49q102 24 219 156l158 178q125 146 268 149l-207 275q-51 55 -91.5 78.5t-94.5 23.5l10 54h1290l-10 -54q-53 0 -98.5 -21.5t-124.5 -80.5l-316 -275h27q58 0 120 -37.5t99 -99.5l101 -190q71 -132 161 -156l-8 -49
q-50 -20 -145 -20q-92 0 -157.5 43t-115.5 141l-131 252l-73 -416h-267l74 416l-221 -252q-87 -98 -166.5 -141t-171.5 -43z" />
    <glyph glyph-name="uni0472" unicode="&#x472;" horiz-adv-x="1505" 
d="M662 51q91 0 168 38.5t130.5 98.5t95 142t66 161t39.5 164h-784q-17 -129 -17 -202q0 -193 77.5 -297.5t224.5 -104.5zM881 1300q-84 0 -157 -34.5t-124.5 -89t-93.5 -129.5t-67.5 -147.5t-43.5 -151.5h781q8 63 8 149q0 195 -78 299t-225 104zM897 1393
q259 0 411 -156.5t152 -409.5q0 -132 -39.5 -261t-114 -237.5t-173.5 -192t-225.5 -130.5t-262.5 -47q-259 0 -411 156.5t-152 408.5q0 132 39.5 261t114 238t173.5 192.5t225.5 130.5t262.5 47z" />
    <glyph glyph-name="uni0473" unicode="&#x473;" horiz-adv-x="1228" 
d="M479 72q197 0 279 368h-428q-8 -52 -8 -118q0 -121 39.5 -185.5t117.5 -64.5zM623 891q-101 0 -172 -98.5t-105 -260.5h426q8 49 8 109q0 121 -39.5 185.5t-117.5 64.5zM639 983q194 0 304 -108t110 -289q0 -161 -78.5 -300.5t-214.5 -222.5t-297 -83q-194 0 -304 108
t-110 289q0 161 78.5 300.5t214.5 222.5t297 83z" />
    <glyph glyph-name="uni0474" unicode="&#x474;" horiz-adv-x="1368" 
d="M502 -20l-277 1132q-29 112 -66.5 159.5t-99.5 55.5l9 41l86 4q72 0 126 -11.5t101.5 -39.5t80.5 -80t52 -129l180 -735l402 708q154 271 315 271q18 0 68 -4l-6 -41q-93 -9 -144.5 -51t-126.5 -175l-618 -1105h-82z" />
    <glyph glyph-name="uni0475" unicode="&#x475;" horiz-adv-x="1028" 
d="M1067 963q15 1 28 1t24.5 -0.5t15.5 -0.5l-7 -41q-72 -7 -121 -53.5t-120 -168.5l-418 -718l-74 -2l-213 747q-37 117 -67.5 162t-77.5 49l6 41l78 4q143 0 225 -56t123 -200l106 -377l201 344q85 148 150 206t141 63z" />
    <glyph glyph-name="uni0490" unicode="&#x490;" horiz-adv-x="1107" 
d="M365 0h-267q140 799 158 905q43 249 43 273q0 58 -27.5 85t-89.5 27h-20l10 62h735q129 0 202.5 59t96.5 186h62l-31 -174q-14 -79 -62 -121t-141 -42h-448z" />
    <glyph glyph-name="uni0491" unicode="&#x491;" horiz-adv-x="894" 
d="M57 0l95 553q36 216 36 235q0 58 -27 85.5t-89 27.5h-11l11 62h604q197 0 233 215h62l-25 -144q-13 -76 -58 -120t-126 -44h-287l-151 -870h-267z" />
    <glyph glyph-name="uni0492" unicode="&#x492;" horiz-adv-x="1118" 
d="M172 1352h879q149 0 149 -121q0 -15 -35 -217h-61q6 38 6 67q0 93 -54.5 136t-164.5 43h-305l-94 -539h219l-17 -92h-219l-110 -629h-267l111 629h-127l16 92h127q74 430 74 457q0 58 -27.5 85t-89.5 27h-20z" />
    <glyph glyph-name="uni0493" unicode="&#x493;" horiz-adv-x="985" 
d="M168 963h706q130 0 130 -119q0 -4 -2 -18.5t-3 -26.5l-26 -144h-62q7 44 7 70q0 145 -162 145h-185l-57 -327h211l-16 -92h-211l-80 -451h-266l79 451h-135l17 92h135l26 153q11 72 11 92q0 57 -27.5 85t-89.5 28h-10z" />
    <glyph glyph-name="uni0494" unicode="&#x494;" horiz-adv-x="1263" 
d="M823 881q175 0 276 -93t101 -264q0 -39 -10 -114q-33 -191 -141 -343t-273.5 -238.5t-357.5 -86.5l8 51q93 0 198 81t187 220q54 92 88.5 207.5t34.5 216.5q0 127 -61 195.5t-168 68.5q-89 0 -213 -53l-127 -729h-267l191 1085q10 65 10 93q0 57 -27.5 84.5t-89.5 27.5
h-20l10 62h879q149 0 149 -121q0 -7 -4 -43l-31 -174h-61q6 40 6 71q0 90 -54.5 132.5t-164.5 42.5h-305l-78 -441q106 34 173 48t142 14z" />
    <glyph glyph-name="uni0495" unicode="&#x495;" horiz-adv-x="1032" 
d="M559 555q181 0 276 -83t95 -234q0 -37 -10 -105q-38 -216 -183 -318t-411 -102l10 51q136 18 211.5 103.5t105.5 265.5q11 64 11 111q0 207 -185 207q-60 0 -78 -2l-79 -449h-267l123 696q10 65 10 92q0 57 -27 85t-89 28h-11l11 62h706q129 0 129 -119q0 -4 -0.5 -9.5
t-1.5 -16t-2 -19.5l-26 -144h-62q6 37 6 70q0 145 -162 145h-184l-57 -323q57 8 141 8z" />
    <glyph glyph-name="uni0496" unicode="&#x496;" horiz-adv-x="2013" 
d="M2105 1352l-12 -72q-134 0 -215 -28.5t-166 -116.5l-350 -377l324 -492q40 -65 104 -119.5t123 -54.5q29 0 45 -16t16 -41q0 -9 -2 -15l-71 -399h-103q4 102 4 105q0 224 -114 264q-100 19 -178.5 78.5t-149.5 177.5l-209 338l-102 -584h-269l103 584l-328 -338
q-84 -89 -160.5 -144t-174.5 -88.5t-212 -33.5q-68 0 -127 20l10 49q63 11 157.5 70.5t184.5 146.5l500 492l-219 377q-46 83 -118 114t-210 31l13 72h123q107 0 184.5 -55t138.5 -160l256 -441l117 656h268l-117 -656l412 441q99 106 196 160.5t205 54.5h123z" />
    <glyph glyph-name="uni0497" unicode="&#x497;" horiz-adv-x="1550" 
d="M1524 963l-8 -54q-130 0 -224 -102l-223 -242l191 -360l28 -49q46 -64 101 -64q29 0 45 -16t16 -41q0 -9 -2 -15l-62 -348h-92l4 82q0 104 -29 159t-93 79q-2 2 -7 2l-4 2q-98 36 -168 168l-133 252l-71 -416h-267l72 416l-219 -252q-90 -99 -168.5 -141.5t-169.5 -42.5
q-38 0 -80.5 6t-56.5 14l8 49q103 24 217 156l317 360l-137 242q-58 102 -186 102l8 54h41q102 0 161 -35.5t107 -122.5l174 -303l80 461h267l-80 -461l280 303q82 87 152 122.5t170 35.5h41z" />
    <glyph glyph-name="uni0498" unicode="&#x498;" horiz-adv-x="1187" 
d="M778 707q153 -18 231 -97.5t78 -197.5q0 -206 -147 -314q-152 -109 -360 -133l-64 -352h-127q19 139 19 205q0 128 -66 149q-131 20 -220.5 86t-144.5 183l70 51q66 -114 157 -175t224 -61q153 0 263 97t110 255q0 116 -79.5 179t-221.5 63h-174l16 92h174q63 0 126 23
t116.5 64.5t87 108.5t33.5 146q0 104 -65 162.5t-157 58.5q-136 0 -248 -89t-180 -248h-63q26 136 44 191t58 95q68 68 187.5 106t228.5 38q204 0 342 -60q133 -62 133 -227q0 -132 -100.5 -242.5t-280.5 -156.5z" />
    <glyph glyph-name="uni0499" unicode="&#x499;" horiz-adv-x="944" 
d="M582 492q110 -13 173.5 -68t63.5 -135q0 -136 -106.5 -214.5t-290.5 -90.5l-57 -320h-117q16 134 16 184q0 69 -16.5 102.5t-54.5 45.5q-142 39 -205 147l69 52q40 -58 94.5 -90.5t141.5 -32.5q115 0 183.5 60.5t68.5 178.5q0 73 -50 106.5t-167 33.5h-103l17 92h102
q132 0 191 49.5t59 163.5q0 65 -44 100t-114 35q-93 0 -167 -63t-97 -162h-61q15 82 39 161q50 156 354 156q174 0 270 -56t96 -163q0 -109 -78 -182t-210 -90z" />
    <glyph glyph-name="uni049A" unicode="&#x49a;" horiz-adv-x="1398" 
d="M1464 1352l-12 -72q-132 0 -227 -33t-174 -112l-371 -377l385 -492q135 -174 233 -174q30 0 46 -16t16 -41q0 -9 -2 -15l-72 -399h-102q4 98 4 103q0 121 -29.5 184t-91.5 84q-183 40 -332 233l-268 344l-100 -569h-267q76 432 166 954q33 191 33 224q0 58 -27.5 85
t-89.5 27h-20l10 62h246q83 0 118 -31.5t35 -108.5q0 -22 -18 -127q-28 -166 -29 -170l-37 -219l433 441q99 106 196 160.5t205 54.5h143z" />
    <glyph glyph-name="uni049B" unicode="&#x49b;" horiz-adv-x="1112" 
d="M1085 963l-8 -54q-121 0 -223 -102l-242 -242l209 -360q18 -33 43 -68q36 -45 86 -45q30 0 46 -16t16 -41q0 -9 -2 -15l-62 -348h-92l4 82q0 107 -29.5 162t-93.5 76q-117 27 -182 151l-152 258l-69 -401h-266l94 553q37 222 37 235q0 58 -27.5 85.5t-89.5 27.5h-21
l11 62h245q82 0 117 -31.5t35 -106.5q0 -21 -23 -172l-24 -151l301 303q88 88 156 123t165 35h41z" />
    <glyph glyph-name="uni049C" unicode="&#x49c;" horiz-adv-x="1585" 
d="M1628 1352l-12 -72q-132 0 -227 -33t-172 -112l-373 -377l387 -492q61 -85 144 -147t143 -70l-9 -49q-61 -20 -153 -20q-136 0 -243.5 54t-213.5 191l-258 332l-33 -180h-112l39 219h-64l-104 -596h-267l189 1085q10 65 10 93q0 57 -27.5 84.5t-89.5 27.5h-20l10 62h246
q82 0 117.5 -32.5t35.5 -109.5q0 -45 -14 -125l-70 -397h64l47 260h113l-43 -237l417 426q202 215 400 215h143z" />
    <glyph glyph-name="uni049D" unicode="&#x49d;" horiz-adv-x="1241" 
d="M1249 963l-10 -54q-118 0 -223 -102l-240 -242l209 -360q75 -135 162 -156l-8 -49q-19 -8 -63.5 -14t-82.5 -6q-93 0 -160.5 38.5t-115.5 124.5l-146 250l-34 -196h-113l37 213h-58l-71 -410h-266l122 696q11 72 11 92q0 57 -27.5 85t-89.5 28h-21l11 62h245
q83 0 117.5 -31.5t34.5 -108.5q0 -44 -14 -127l-35 -194h57l41 225h113l-39 -219l293 297q85 88 154 123t169 35h41z" />
    <glyph glyph-name="uni04A0" unicode="&#x4a0;" horiz-adv-x="1675" 
d="M1446 -20q-136 0 -243.5 54t-213.5 191l-268 344l-100 -569h-267l219 1260h-124q-117 0 -186 -59t-93 -187h-61l30 174q27 164 203 164h516l-115 -656l433 441q202 215 399 215h143l-12 -72q-132 0 -227 -33t-172 -112l-373 -377l387 -492q61 -85 144 -147t143 -70
l-9 -49q-61 -20 -153 -20z" />
    <glyph glyph-name="uni04A1" unicode="&#x4a1;" horiz-adv-x="1216" 
d="M969 -20q-93 0 -161 38.5t-116 124.5l-149 258l-72 -401h-266l153 870h-45q-98 0 -155.5 -52t-77.5 -163h-62l27 144q27 164 182 164h414l-82 -461l301 303q90 88 158.5 123t165.5 35h41l-11 -54q-118 0 -223 -102l-239 -242l209 -360q76 -136 161 -156l-8 -49
q-50 -20 -145 -20z" />
    <glyph glyph-name="uni04A2" unicode="&#x4a2;" horiz-adv-x="1474" 
d="M1260 -379h-103q4 98 4 100q0 153 -45 216t-147 63h-51l114 655h-553l-114 -655h-267l191 1085q10 65 10 93q0 57 -27.5 84.5t-89.5 27.5h-20l10 62h246q82 0 116.5 -31.5t34.5 -108.5q0 -61 -14 -127l-59 -337h553l106 604h266l-221 -1260h72q31 0 47.5 -20.5
t11.5 -51.5z" />
    <glyph glyph-name="uni04A3" unicode="&#x4a3;" horiz-adv-x="1173" 
d="M1001 -328h-92q4 50 4 101q0 127 -41 177t-135 50h-78l78 440h-327l-78 -440h-266l122 696q11 72 11 92q0 57 -27.5 85t-89.5 28h-21l11 62h245q83 0 117.5 -31.5t34.5 -108.5q0 -44 -14 -127l-29 -164h328l75 431h267l-154 -871h62q31 0 47.5 -20.5t11.5 -51.5z" />
    <glyph glyph-name="uni04A4" unicode="&#x4a4;" horiz-adv-x="1992" 
d="M1087 1352h838q150 0 150 -121q0 -7 -4 -43l-31 -174h-62q7 47 7 71q0 175 -220 175h-264l-174 -994q-10 -65 -10 -92q0 -57 27.5 -85t89.5 -28h20l-10 -61h-246q-82 0 -116.5 31t-34.5 106q0 63 14 129l67 389h-553l-114 -655h-266l190 1085q10 65 10 93q0 57 -27 84.5
t-89 27.5h-21l10 62h246q83 0 117.5 -31.5t34.5 -108.5q0 -56 -15 -127l-59 -337h553l59 337q10 65 10 93q0 57 -27 84.5t-89 27.5h-21z" />
    <glyph glyph-name="uni04A5" unicode="&#x4a5;" horiz-adv-x="1548" 
d="M676 963h706q129 0 129 -119q0 -4 -0.5 -9.5t-1.5 -16t-2 -19.5l-26 -144h-62q6 37 6 70q0 145 -161 145h-185l-106 -604q-10 -65 -10 -92q0 -57 27 -85t89 -28h21l-10 -61h-246q-82 0 -117 31t-35 106q0 59 15 129l30 174h-327l-78 -440h-266l122 696q11 72 11 92
q0 57 -27.5 85t-89.5 28h-21l11 62h245q83 0 117.5 -31.5t34.5 -108.5q0 -44 -14 -127l-29 -164h328l28 164q11 72 11 92q0 57 -27.5 85t-89.5 28h-10z" />
    <glyph glyph-name="uni04AA" unicode="&#x4aa;" horiz-adv-x="1392" 
d="M942 1300q-120 0 -220 -52.5t-165.5 -137t-110.5 -194.5t-64.5 -221t-19.5 -220q0 -199 90 -311.5t271 -112.5q144 0 278 76.5t230 216.5l61 -55q-109 -148 -236.5 -226t-293.5 -98l-64 -352h-127q19 139 19 207t-16 102t-52 45q-212 32 -328 175.5t-116 361.5
q0 163 64.5 324t172 285.5t261.5 202t321 77.5q176 0 330 -60q149 -61 149 -217q0 -78 -24 -201h-62q-5 189 -93 287t-255 98z" />
    <glyph glyph-name="uni04AB" unicode="&#x4ab;" horiz-adv-x="1019" 
d="M946 625h-61q2 10 2 49q0 108 -59.5 162.5t-172.5 54.5q-71 0 -129.5 -40t-95 -102t-62 -140t-36 -150t-10.5 -137q0 -250 200 -250q94 0 168 41.5t154 128.5l55 -47q-73 -88 -152 -140t-192 -69l-57 -322h-117q16 134 16 184q0 65 -15.5 98.5t-51.5 47.5
q-134 32 -206.5 131.5t-72.5 243.5q0 168 73.5 307.5t209.5 223t307 83.5q135 0 236 -29q96 -30 96 -135q0 -56 -27 -194z" />
    <glyph glyph-name="uni04AE" unicode="&#x4ae;" horiz-adv-x="1308" 
d="M465 0l94 541l-266 544q-39 88 -105.5 153.5t-128.5 72.5l9 41h223q99 0 172 -61t121 -165l204 -419l512 645h134l-598 -756l-105 -596h-266z" />
    <glyph glyph-name="uni04AF" unicode="&#x4af;" horiz-adv-x="1030" 
d="M236 -389l69 391l-123 725q-33 113 -64.5 160t-80.5 51l6 41l78 4q143 0 225 -56t123 -200l84 -577l416 813h110l-508 -965l-69 -387h-266z" />
    <glyph glyph-name="uni04B0" unicode="&#x4b0;" horiz-adv-x="1308" 
d="M1434 1352l-596 -754h174l-17 -92h-176l-88 -506h-266l88 506h-170l16 92h131l-237 487q-39 88 -105.5 153.5t-128.5 72.5l9 41h223q99 0 172 -61t121 -165l204 -419l512 645h134z" />
    <glyph glyph-name="uni04B1" unicode="&#x4b1;" horiz-adv-x="1030" 
d="M1079 963l-483 -918h162l-17 -92h-178l-61 -342h-266l61 342h-168l16 92h152l-115 682q-33 113 -64.5 160t-80.5 51l6 41l78 4q143 0 225 -56t123 -200l84 -577l416 813h110z" />
    <glyph glyph-name="uni04B6" unicode="&#x4b6;" horiz-adv-x="1351" 
d="M1114 92h72q29 0 45 -16t16 -41q0 -9 -2 -15l-69 -399h-103q1 17 2 40t1.5 35t0.5 19q0 157 -45 221t-149 64h-52l93 532q-93 -40 -271 -40q-444 0 -444 337q0 60 22 170q0 2 4 23.5t8 44.5t7.5 54.5t3.5 56.5q0 58 -27.5 85t-89.5 27h-20l10 62h246q82 0 116.5 -31.5
t34.5 -106.5q0 -61 -24 -184q-27 -120 -27 -201q0 -117 63 -181t173 -64q122 0 231 41l129 727h266z" />
    <glyph glyph-name="uni04B7" unicode="&#x4b7;" horiz-adv-x="1132" 
d="M924 92h61q29 0 45.5 -16t16.5 -41q0 -6 -3 -15l-61 -348h-92q4 50 4 101q0 127 -41 177t-135 50h-78l64 365q-93 -37 -191 -37q-159 0 -250.5 60.5t-91.5 180.5q0 35 12 105q15 64 15 114q0 58 -27.5 85.5t-89.5 27.5h-21l11 62h245q82 0 117 -31.5t35 -106.5
q0 -29 -14 -127q-17 -97 -17 -133q0 -145 140 -145q79 0 141 33l90 510h266z" />
    <glyph glyph-name="uni04B8" unicode="&#x4b8;" horiz-adv-x="1351" 
d="M1069 1352h266l-237 -1352h-267l93 532q-65 -27 -170 -36l-41 -230h-113l41 226q-432 6 -432 337q0 60 22 170q0 2 4 23.5t8 44.5t7.5 54.5t3.5 56.5q0 58 -27.5 85t-89.5 27h-20l10 62h246q82 0 116.5 -31.5t34.5 -106.5q0 -61 -24 -184q-27 -120 -27 -201
q0 -103 48.5 -165t135.5 -76l37 209h113l-37 -211q91 9 170 39z" />
    <glyph glyph-name="uni04B9" unicode="&#x4b9;" horiz-adv-x="1132" 
d="M809 963h266l-168 -963h-266l64 365q-59 -22 -121 -31l-33 -172h-113l33 168q-140 6 -219.5 66.5t-79.5 172.5q0 35 12 105q15 64 15 114q0 58 -27.5 85.5t-89.5 27.5h-21l11 62h245q82 0 117 -31.5t35 -106.5q0 -29 -14 -127q-17 -97 -17 -133q0 -94 54 -125l36 189h113
l-41 -209q67 3 119 33z" />
    <glyph glyph-name="uni04BA" unicode="&#x4ba;" horiz-adv-x="1351" 
d="M590 1352l-92 -533q96 41 270 41q444 0 444 -338q0 -60 -22 -170q0 -2 -4 -23.5t-8 -44t-7.5 -54t-3.5 -56.5q0 -58 27.5 -85.5t89.5 -27.5h21l-11 -61h-245q-82 0 -117 31t-35 106q0 57 25 185q26 116 26 200q0 117 -62.5 181.5t-172.5 64.5q-123 0 -232 -41l-129 -727
h-266l238 1352h266z" />
    <glyph glyph-name="uni04BB" unicode="&#x4bb;" horiz-adv-x="1118" 
d="M25 0l190 1085q10 72 10 93q0 58 -27 85t-89 27h-21l10 62h246q82 0 117 -31.5t35 -106.5q0 -64 -15 -129l-32 -180q40 24 69 39q85 39 170 39q332 0 332 -278q0 -24 -19 -154q-54 -316 -96 -551h-266q80 460 90 524q25 156 25 172q0 94 -38.5 139.5t-107.5 45.5
q-81 0 -176 -72l-141 -809h-266z" />
    <glyph glyph-name="uni04C0" unicode="&#x4c0;" horiz-adv-x="628" 
d="M496 0h-246q-82 0 -117 32t-35 109q0 45 13 125l192 1086h266l-192 -1086q-8 -39 -8 -88q0 -59 27.5 -88t88.5 -29h21z" />
    <glyph glyph-name="uni04C1" unicode="&#x4c1;" horiz-adv-x="2025" 
d="M1145 1444q-97 0 -163 51.5t-91 140.5l65 43q28 -46 82.5 -74t130.5 -28q148 0 250 102l49 -43q-56 -89 -141 -140.5t-182 -51.5zM8 -20q-68 0 -127 20l10 49q63 11 157.5 70.5t184.5 146.5l500 492l-219 377q-46 83 -118 114t-210 31l13 72h123q107 0 184.5 -55
t138.5 -160l256 -441l117 656h268l-117 -656l412 441q99 106 196 160.5t205 54.5h123l-12 -72q-134 0 -215 -28.5t-166 -116.5l-350 -377l324 -492q56 -87 131 -146.5t139 -70.5l-8 -49q-61 -20 -136 -20q-152 0 -255 58t-197 208l-209 338l-102 -584h-269l103 584
l-328 -338q-84 -89 -160.5 -144t-174.5 -88.5t-212 -33.5z" />
    <glyph glyph-name="uni04C2" unicode="&#x4c2;" horiz-adv-x="1517" 
d="M877 1073q-96 0 -162.5 51.5t-91.5 141.5l65 43q28 -46 82.5 -74.5t130.5 -28.5q147 0 250 103l49 -43q-57 -89 -141.5 -141t-181.5 -52zM41 -20q-38 0 -80.5 6t-56.5 14l8 49q103 24 217 156l317 360l-137 242q-58 102 -186 102l8 54h41q102 0 161 -35.5t107 -122.5
l174 -303l80 461h267l-80 -461l280 303q82 87 152 122.5t170 35.5h41l-8 -54q-130 0 -224 -102l-223 -242l191 -360q71 -133 163 -156l-8 -49q-17 -8 -62 -14t-83 -6q-92 0 -155.5 42.5t-117.5 141.5l-133 252l-71 -416h-267l72 416l-219 -252q-90 -99 -168.5 -141.5
t-169.5 -42.5z" />
    <glyph glyph-name="uni04CB" unicode="&#x4cb;" horiz-adv-x="1349" 
d="M1335 1352l-237 -1352h-51q-118 0 -189.5 -81t-134.5 -298h-102l71 399q6 31 29.5 51.5t54.5 20.5h72l76 440q-93 -40 -271 -40q-444 0 -444 337q0 60 22 170q0 2 4 23.5t8 44.5t7.5 54.5t3.5 56.5q0 58 -27.5 85t-89.5 27h-20l10 62h246q82 0 116.5 -31.5t34.5 -106.5
q0 -61 -24 -184q-27 -120 -27 -201q0 -117 63 -181t173 -64q122 0 231 41l129 727h266z" />
    <glyph glyph-name="uni04CC" unicode="&#x4cc;" horiz-adv-x="1157" 
d="M1075 963l-168 -963h-78q-108 0 -171.5 -68.5t-114.5 -259.5h-92l61 348q6 31 29.5 51.5t54.5 20.5h61l48 273q-93 -37 -191 -37q-159 0 -250.5 60.5t-91.5 180.5q0 35 12 105q15 64 15 114q0 58 -27.5 85.5t-89.5 27.5h-21l11 62h245q82 0 117 -31.5t35 -106.5
q0 -29 -14 -127q-17 -97 -17 -133q0 -145 140 -145q79 0 141 33l90 510h266z" />
    <glyph glyph-name="uni04CF" unicode="&#x4cf;" horiz-adv-x="534" 
d="M301 0h-266q149 851 158 903q43 249 43 275q0 58 -27.5 85t-89.5 27h-21l11 62h245q82 0 117 -31.5t35 -106.5q0 -16 -31 -213q-12 -68 -51 -294.5t-64 -368.5z" />
    <glyph glyph-name="uni04D0" unicode="&#x4d0;" horiz-adv-x="1325" 
d="M324 465h462l-131 534zM1192 -8q-67 0 -121.5 13t-102 42t-81.5 82.5t-51 128.5l-27 115h-545l-233 -373h-107l842 1352h92l266 -1094q49 -190 176 -205l-8 -51q-42 -10 -100 -10zM819 1444q-97 0 -163 51.5t-91 140.5l66 43q28 -46 82.5 -74t130.5 -28q148 0 250 102
l49 -43q-56 -89 -141.5 -140.5t-182.5 -51.5z" />
    <glyph glyph-name="uni04D1" unicode="&#x4d1;" 
d="M463 72q115 0 207 133l98 553q-20 58 -62.5 95.5t-99.5 37.5q-62 0 -113.5 -47.5t-82.5 -117t-52.5 -154.5t-30 -155t-8.5 -122q0 -223 144 -223zM406 -20q-173 0 -265 99.5t-92 268.5q0 113 38 225.5t105.5 204t169.5 148.5t220 57q68 0 126 -28.5t89 -84.5h10l88 93
h174l-168 -963h-174l-57 92h-11q-43 -55 -111 -83.5t-142 -28.5zM668 1073q-96 0 -162.5 51.5t-91.5 141.5l65 43q28 -46 82.5 -74.5t130.5 -28.5q147 0 250 103l49 -43q-57 -89 -141.5 -141t-181.5 -52z" />
    <glyph glyph-name="uni04D2" unicode="&#x4d2;" horiz-adv-x="1325" 
d="M324 465h462l-131 534zM1192 -8q-67 0 -121.5 13t-102 42t-81.5 82.5t-51 128.5l-27 115h-545l-233 -373h-107l842 1352h92l266 -1094q49 -190 176 -205l-8 -51q-42 -10 -100 -10zM655 1485q-46 0 -71 25t-25 65q0 56 40.5 97.5t96.5 41.5q46 0 71.5 -25t25.5 -69
q0 -54 -41.5 -94.5t-96.5 -40.5zM1024 1485q-46 0 -71 25t-25 65q0 56 40.5 97.5t96.5 41.5q46 0 71 -25t25 -69q0 -54 -41 -94.5t-96 -40.5z" />
    <glyph glyph-name="uni04D3" unicode="&#x4d3;" 
d="M463 72q115 0 207 133l98 553q-20 58 -62.5 95.5t-99.5 37.5q-62 0 -113.5 -47.5t-82.5 -117t-52.5 -154.5t-30 -155t-8.5 -122q0 -223 144 -223zM406 -20q-173 0 -265 99.5t-92 268.5q0 113 38 225.5t105.5 204t169.5 148.5t220 57q68 0 126 -28.5t89 -84.5h10l88 93
h174l-168 -963h-174l-57 92h-11q-43 -55 -111 -83.5t-142 -28.5zM444 1096q-46 0 -71 25t-25 65q0 56 40.5 97.5t96.5 41.5q47 0 72 -25.5t25 -68.5q0 -54 -41.5 -94.5t-96.5 -40.5zM813 1096q-46 0 -71 25t-25 65q0 56 40.5 97.5t96.5 41.5q46 0 71 -25t25 -69
q0 -54 -41 -94.5t-96 -40.5z" />
    <glyph glyph-name="uni04D4" unicode="&#x4d4;" horiz-adv-x="1787" 
d="M342 481h395l125 705zM274 389l-286 -389h-123l995 1352h770q150 0 150 -119q0 -17 -35 -219h-62q7 44 7 67q0 179 -220 179h-329l-90 -512h532l-16 -93h-533l-100 -563h350q120 0 207 54t160 180l51 -21l-88 -162q-44 -79 -86 -111t-117 -32h-758l68 389h-447z" />
    <glyph glyph-name="uni04D5" unicode="&#x4d5;" horiz-adv-x="1622" 
d="M385 82q83 0 154 65q30 23 53 68l41 229h-31q-156 0 -241 -55.5t-85 -183.5q0 -57 28 -90t81 -33zM932 522h215q77 0 121.5 58t44.5 151q0 73 -34.5 116.5t-86.5 43.5q-89 0 -157.5 -92.5t-102.5 -276.5zM326 -20q-159 0 -242.5 57.5t-83.5 161.5q0 197 182 268
q180 70 436 70h31q15 71 15 147q0 207 -158 207q-84 0 -141 -41.5t-97 -142.5h-112q14 79 32.5 124t55.5 80q36 35 114 53.5t164 18.5q126 0 210.5 -48.5t115.5 -137.5q73 91 166 138.5t194 47.5q177 0 274 -67.5t97 -186.5q0 -299 -446 -299h-215l-3 -6q-12 -70 -12 -127
q0 -225 176 -225q94 0 168 41.5t154 128.5l55 -47q-83 -102 -184 -158.5t-240 -56.5q-227 0 -315 184q-59 -82 -160.5 -133t-230.5 -51z" />
    <glyph glyph-name="uni04D6" unicode="&#x4d6;" horiz-adv-x="1232" 
d="M772 1444q-97 0 -163 51.5t-91 140.5l66 43q28 -46 82.5 -74t130.5 -28q148 0 250 102l49 -43q-56 -89 -141.5 -140.5t-182.5 -51.5zM856 0h-758q149 851 158 903q43 249 43 275q0 58 -27.5 85t-89.5 27h-20l10 62h903q150 0 150 -119q0 -17 -35 -219h-62q7 44 7 67
q0 179 -220 179h-329l-90 -512h532l-16 -93h-533l-100 -563h350q120 0 207 54t160 180l51 -21l-88 -162q-44 -79 -86 -111t-117 -32z" />
    <glyph glyph-name="uni04D7" unicode="&#x4d7;" horiz-adv-x="1040" 
d="M342 502h215q54 0 94.5 40.5t58 93t17.5 105.5q0 71 -35 110.5t-88 39.5q-198 0 -262 -389zM444 -20q-183 0 -288 107t-105 286q0 163 72 302.5t203.5 223.5t294.5 84q182 0 282.5 -66t100.5 -184q0 -72 -29 -129t-75 -92.5t-108 -59t-124 -33t-127 -9.5h-215
q-13 -70 -13 -115q0 -109 46.5 -166t132.5 -57q94 0 167.5 41.5t153.5 128.5l55 -47q-83 -102 -184 -158.5t-240 -56.5zM666 1073q-96 0 -162.5 51.5t-91.5 141.5l65 43q28 -46 82.5 -74.5t130.5 -28.5q147 0 250 103l49 -43q-57 -89 -141.5 -141t-181.5 -52z" />
    <glyph glyph-name="uni04D8" unicode="&#x4d8;" horiz-adv-x="1462" 
d="M616 51q88 0 163.5 30.5t140 93.5t111.5 166.5t71 242.5h-754q-18 -111 -18 -197q0 -336 286 -336zM606 -41q-266 0 -401 124t-135 361q0 141 41 275h1015q21 126 21 201q0 380 -350 380q-140 0 -255.5 -66.5t-246.5 -221.5l-78 67q264 314 629 314q263 0 417 -158
t154 -416q0 -139 -37.5 -268t-109 -236t-169 -187t-225.5 -124.5t-270 -44.5z" />
    <glyph glyph-name="uni04D9" unicode="&#x4d9;" horiz-adv-x="1048" 
d="M436 72q172 0 238 354h-348q-19 -108 -19 -168q0 -186 129 -186zM420 -20q-172 0 -278.5 90t-106.5 241q0 31 8 78q3 29 18 88l13 41h616q15 76 15 146q0 227 -175 227q-94 0 -168.5 -41.5t-154.5 -128.5l-55 47q83 102 184.5 158.5t241.5 56.5q183 0 287 -106t104 -285
q0 -117 -39.5 -227.5t-109 -196t-174.5 -137t-226 -51.5z" />
    <glyph glyph-name="uni04DC" unicode="&#x4dc;" horiz-adv-x="2025" 
d="M981 1485q-46 0 -71 25t-25 65q0 56 40.5 97.5t96.5 41.5q46 0 71 -25t25 -69q0 -54 -41 -94.5t-96 -40.5zM1350 1485q-46 0 -71.5 25t-25.5 65q0 56 40.5 97.5t97.5 41.5q46 0 71 -25t25 -69q0 -54 -41 -94.5t-96 -40.5zM8 -20q-68 0 -127 20l10 49q63 11 157.5 70.5
t184.5 146.5l500 492l-219 377q-46 83 -118 114t-210 31l13 72h123q107 0 184.5 -55t138.5 -160l256 -441l117 656h268l-117 -656l412 441q99 106 196 160.5t205 54.5h123l-12 -72q-134 0 -215 -28.5t-166 -116.5l-350 -377l324 -492q56 -87 131 -146.5t139 -70.5l-8 -49
q-61 -20 -136 -20q-152 0 -255 58t-197 208l-209 338l-102 -584h-269l103 584l-328 -338q-84 -89 -160.5 -144t-174.5 -88.5t-212 -33.5z" />
    <glyph glyph-name="uni04DD" unicode="&#x4dd;" horiz-adv-x="1517" 
d="M653 1096q-46 0 -71 25t-25 65q0 56 40.5 97.5t96.5 41.5q46 0 71.5 -25.5t25.5 -68.5q0 -54 -41.5 -94.5t-96.5 -40.5zM1022 1096q-46 0 -71 25t-25 65q0 56 40.5 97.5t96.5 41.5q46 0 71 -25t25 -69q0 -54 -41 -94.5t-96 -40.5zM41 -20q-38 0 -80.5 6t-56.5 14l8 49
q103 24 217 156l317 360l-137 242q-58 102 -186 102l8 54h41q102 0 161 -35.5t107 -122.5l174 -303l80 461h267l-80 -461l280 303q82 87 152 122.5t170 35.5h41l-8 -54q-130 0 -224 -102l-223 -242l191 -360q71 -133 163 -156l-8 -49q-17 -8 -62 -14t-83 -6
q-92 0 -155.5 42.5t-117.5 141.5l-133 252l-71 -416h-267l72 416l-219 -252q-90 -99 -168.5 -141.5t-169.5 -42.5z" />
    <glyph glyph-name="uni04DE" unicode="&#x4de;" horiz-adv-x="1187" 
d="M504 1485q-46 0 -71 25t-25 65q0 56 40.5 97.5t96.5 41.5q46 0 71 -25t25 -69q0 -54 -41 -94.5t-96 -40.5zM872 1485q-46 0 -71 25t-25 65q0 56 40.5 97.5t96.5 41.5q47 0 72 -25t25 -69q0 -54 -41.5 -94.5t-96.5 -40.5zM463 -41q-183 0 -300.5 67.5t-185.5 209.5l70 51
q66 -114 157 -175t224 -61q153 0 263 97t110 255q0 116 -79.5 179t-221.5 63h-174l16 92h174q63 0 126 23t116.5 64.5t87 108.5t33.5 146q0 104 -65 162.5t-157 58.5q-136 0 -248 -89t-180 -248h-63q26 136 44 191t58 95q68 68 187.5 106t228.5 38q204 0 342 -60
q133 -62 133 -227q0 -132 -100.5 -242.5t-280.5 -156.5q153 -18 231 -97.5t78 -197.5q0 -97 -38 -175.5t-100 -129.5t-145 -85t-168 -48.5t-173 -14.5z" />
    <glyph glyph-name="uni04DF" unicode="&#x4df;" horiz-adv-x="944" 
d="M334 1096q-46 0 -71 25t-25 65q0 56 40.5 97.5t96.5 41.5q46 0 71 -25t25 -69q0 -54 -41 -94.5t-96 -40.5zM702 1096q-46 0 -71 25t-25 65q0 56 40.5 97.5t96.5 41.5q47 0 72 -25.5t25 -68.5q0 -54 -41.5 -94.5t-96.5 -40.5zM338 -20q-251 0 -350 163l69 52
q40 -58 94.5 -90.5t141.5 -32.5q115 0 183.5 60.5t68.5 178.5q0 73 -50 106.5t-167 33.5h-103l17 92h102q132 0 191 49.5t59 163.5q0 65 -44 100t-114 35q-93 0 -167 -63t-97 -162h-61q15 82 39 161q50 156 354 156q174 0 270 -56t96 -163q0 -109 -78 -182t-210 -90
q110 -13 173.5 -68t63.5 -135q0 -72 -31.5 -128t-80 -89t-114.5 -54.5t-128 -29.5t-127 -8z" />
    <glyph glyph-name="uni04E2" unicode="&#x4e2;" horiz-adv-x="1458" 
d="M1174 1530h-572v174h572v-174zM344 0h-246q140 799 158 905q43 249 43 273q0 58 -27.5 85t-89.5 27h-20l10 62h246q82 0 116.5 -31.5t34.5 -106.5q0 -37 -26 -194q-43 -266 -133 -754l786 1086h246l-238 -1352h-266l190 1085z" />
    <glyph glyph-name="uni04E3" unicode="&#x4e3;" horiz-adv-x="1161" 
d="M936 1141h-571v174h571v-174zM420 -20q-167 0 -245.5 63t-78.5 201q0 15 17 127q27 181 53 325q10 72 10 92q0 58 -27.5 85.5t-89.5 27.5h-20l10 62h246q82 0 116.5 -31.5t34.5 -106.5q0 -69 -14 -129q-72 -436 -72 -463q0 -86 33.5 -123.5t104.5 -37.5q115 0 207 133
l133 758h266l-168 -963h-174l-57 92h-11q-53 -53 -125.5 -82.5t-148.5 -29.5z" />
    <glyph glyph-name="uni04E4" unicode="&#x4e4;" horiz-adv-x="1458" 
d="M700 1485q-46 0 -71 25t-25 65q0 56 40.5 97.5t96.5 41.5q47 0 72 -25t25 -69q0 -54 -41.5 -94.5t-96.5 -40.5zM1069 1485q-46 0 -71 25t-25 65q0 56 40.5 97.5t96.5 41.5q46 0 71 -25t25 -69q0 -54 -41 -94.5t-96 -40.5zM344 0h-246q140 799 158 905q43 249 43 273
q0 58 -27.5 85t-89.5 27h-20l10 62h246q82 0 116.5 -31.5t34.5 -106.5q0 -37 -26 -194q-43 -266 -133 -754l786 1086h246l-238 -1352h-266l190 1085z" />
    <glyph glyph-name="uni04E5" unicode="&#x4e5;" horiz-adv-x="1161" 
d="M463 1096q-46 0 -71 25t-25 65q0 56 40.5 97.5t96.5 41.5q46 0 71 -25t25 -69q0 -54 -41 -94.5t-96 -40.5zM831 1096q-46 0 -71 25t-25 65q0 56 40.5 97.5t96.5 41.5q46 0 71.5 -25.5t25.5 -68.5q0 -54 -41.5 -94.5t-96.5 -40.5zM420 -20q-167 0 -245.5 63t-78.5 201
q0 15 17 127q27 181 53 325q10 72 10 92q0 58 -27.5 85.5t-89.5 27.5h-20l10 62h246q82 0 116.5 -31.5t34.5 -106.5q0 -69 -14 -129q-72 -436 -72 -463q0 -86 33.5 -123.5t104.5 -37.5q115 0 207 133l133 758h266l-168 -963h-174l-57 92h-11q-53 -53 -125.5 -82.5
t-148.5 -29.5z" />
    <glyph glyph-name="uni04E6" unicode="&#x4e6;" horiz-adv-x="1505" 
d="M662 51q94 0 174 41t135.5 110.5t98 156t66.5 183t36 185.5t12 170q0 195 -78 299t-225 104q-93 0 -172.5 -41.5t-135 -111.5t-98 -156.5t-67 -183.5t-36.5 -185.5t-12 -168.5q0 -193 77.5 -297.5t224.5 -104.5zM645 -41q-259 0 -411 156.5t-152 408.5q0 132 39.5 261
t114 238t173.5 192.5t225.5 130.5t262.5 47q259 0 411 -156.5t152 -409.5q0 -132 -39.5 -261t-114 -237.5t-173.5 -192t-225.5 -130.5t-262.5 -47zM745 1485q-46 0 -71 25t-25 65q0 56 40.5 97.5t96.5 41.5q46 0 71.5 -25t25.5 -69q0 -54 -41.5 -94.5t-96.5 -40.5z
M1114 1485q-46 0 -71 25t-25 65q0 56 40.5 97.5t96.5 41.5q46 0 71 -25t25 -69q0 -54 -41 -94.5t-96 -40.5z" />
    <glyph glyph-name="uni04E7" unicode="&#x4e7;" horiz-adv-x="1132" 
d="M479 72q65 0 119 43.5t86.5 108t55 144.5t31.5 149t9 124q0 121 -39.5 185.5t-117.5 64.5q-65 0 -119 -43.5t-86.5 -108t-55 -144.5t-31.5 -149t-9 -124q0 -121 39.5 -185.5t117.5 -64.5zM463 -20q-194 0 -304 108t-110 289q0 161 78.5 300.5t214.5 222.5t297 83
q194 0 304 -108t110 -289q0 -161 -78.5 -300.5t-214.5 -222.5t-297 -83zM489 1096q-46 0 -71 25t-25 65q0 56 40.5 97.5t96.5 41.5q46 0 71.5 -25.5t25.5 -68.5q0 -54 -41.5 -94.5t-96.5 -40.5zM858 1096q-46 0 -71 25t-25 65q0 56 40.5 97.5t96.5 41.5q46 0 71 -25t25 -69
q0 -54 -41 -94.5t-96 -40.5z" />
    <glyph glyph-name="uni04E8" unicode="&#x4e8;" horiz-adv-x="1505" 
d="M662 51q91 0 168 38.5t130.5 98.5t95 142t66 161t39.5 164h-784q-17 -129 -17 -202q0 -193 77.5 -297.5t224.5 -104.5zM881 1300q-84 0 -157 -34.5t-124.5 -89t-93.5 -129.5t-67.5 -147.5t-43.5 -151.5h781q8 63 8 149q0 195 -78 299t-225 104zM897 1393
q259 0 411 -156.5t152 -409.5q0 -132 -39.5 -261t-114 -237.5t-173.5 -192t-225.5 -130.5t-262.5 -47q-259 0 -411 156.5t-152 408.5q0 132 39.5 261t114 238t173.5 192.5t225.5 130.5t262.5 47z" />
    <glyph glyph-name="uni04E9" unicode="&#x4e9;" horiz-adv-x="1228" 
d="M479 72q197 0 279 368h-428q-8 -52 -8 -118q0 -121 39.5 -185.5t117.5 -64.5zM623 891q-101 0 -172 -98.5t-105 -260.5h426q8 49 8 109q0 121 -39.5 185.5t-117.5 64.5zM639 983q194 0 304 -108t110 -289q0 -161 -78.5 -300.5t-214.5 -222.5t-297 -83q-194 0 -304 108
t-110 289q0 161 78.5 300.5t214.5 222.5t297 83z" />
    <glyph glyph-name="uni04EE" unicode="&#x4ee;" horiz-adv-x="1263" 
d="M1139 1530h-572v174h572v-174zM180 -20l13 73q116 0 196 32t133 110l21 30l-269 860q-64 211 -215 226l9 41h204q110 0 185 -60t108 -166l183 -577l503 803h133l-729 -1157q-64 -104 -159 -159.5t-213 -55.5h-103z" />
    <glyph glyph-name="uni04EF" unicode="&#x4ef;" horiz-adv-x="1042" 
d="M918 1141h-572v174h572v-174zM8 -410l12 72q115 0 190.5 44t141.5 155l62 110l-226 807q-23 78 -61.5 117.5t-99.5 46.5l6 41h180q90 0 152 -44t86 -120l145 -516l365 660h108l-606 -1096q-89 -157 -172 -217t-201 -60h-82z" />
    <glyph glyph-name="uni04F0" unicode="&#x4f0;" horiz-adv-x="1263" 
d="M666 1485q-46 0 -71.5 25t-25.5 65q0 56 40.5 97.5t97.5 41.5q46 0 71 -25t25 -69q0 -54 -41 -94.5t-96 -40.5zM1034 1485q-46 0 -71 25t-25 65q0 56 40.5 97.5t96.5 41.5q46 0 71 -25t25 -69q0 -54 -41 -94.5t-96 -40.5zM180 -20l13 73q116 0 196 32t133 110l21 30
l-269 860q-64 211 -215 226l9 41h204q110 0 185 -60t108 -166l183 -577l503 803h133l-729 -1157q-64 -104 -159 -159.5t-213 -55.5h-103z" />
    <glyph glyph-name="uni04F1" unicode="&#x4f1;" horiz-adv-x="1042" 
d="M444 1096q-46 0 -71 25t-25 65q0 56 40.5 97.5t96.5 41.5q47 0 72 -25.5t25 -68.5q0 -54 -41.5 -94.5t-96.5 -40.5zM813 1096q-46 0 -71 25t-25 65q0 56 40.5 97.5t96.5 41.5q46 0 71 -25t25 -69q0 -54 -41 -94.5t-96 -40.5zM8 -410l12 72q115 0 190.5 44t141.5 155
l62 110l-226 807q-23 78 -61.5 117.5t-99.5 46.5l6 41h180q90 0 152 -44t86 -120l145 -516l365 660h108l-606 -1096q-89 -157 -172 -217t-201 -60h-82z" />
    <glyph glyph-name="uni04F2" unicode="&#x4f2;" horiz-adv-x="1263" 
d="M762 1464h-72l86 287h162zM987 1464h-72l86 287h162zM180 -20l13 73q116 0 196 32t133 110l21 30l-269 860q-64 211 -215 226l9 41h204q110 0 185 -60t108 -166l183 -577l503 803h133l-729 -1157q-64 -104 -159 -159.5t-213 -55.5h-103z" />
    <glyph glyph-name="uni04F3" unicode="&#x4f3;" horiz-adv-x="1042" 
d="M541 1075h-72l86 287h162zM766 1075h-72l86 287h162zM8 -410l12 72q115 0 190.5 44t141.5 155l62 110l-226 807q-23 78 -61.5 117.5t-99.5 46.5l6 41h180q90 0 152 -44t86 -120l145 -516l365 660h108l-606 -1096q-89 -157 -172 -217t-201 -60h-82z" />
    <glyph glyph-name="uni04F4" unicode="&#x4f4;" horiz-adv-x="1351" 
d="M606 1485q-46 0 -71 25t-25 65q0 56 40.5 97.5t96.5 41.5q46 0 71 -25t25 -69q0 -54 -41 -94.5t-96 -40.5zM975 1485q-46 0 -71 25t-25 65q0 56 40.5 97.5t96.5 41.5q46 0 71 -25t25 -69q0 -54 -41 -94.5t-96 -40.5zM831 0l93 532q-93 -40 -271 -40q-444 0 -444 337
q0 60 22 170q0 2 4 23.5t8 44.5t7.5 54.5t3.5 56.5q0 58 -27.5 85t-89.5 27h-20l10 62h246q82 0 116.5 -31.5t34.5 -106.5q0 -61 -24 -184q-27 -120 -27 -201q0 -117 63 -181t173 -64q122 0 231 41l129 727h266l-237 -1352h-267z" />
    <glyph glyph-name="uni04F5" unicode="&#x4f5;" horiz-adv-x="1132" 
d="M467 1096q-46 0 -71 25t-25 65q0 56 40.5 97.5t96.5 41.5q46 0 71 -25t25 -69q0 -54 -41 -94.5t-96 -40.5zM836 1096q-46 0 -71.5 25t-25.5 65q0 56 40.5 97.5t97.5 41.5q46 0 71 -25t25 -69q0 -54 -41 -94.5t-96 -40.5zM641 0l64 365q-93 -37 -191 -37
q-159 0 -250.5 60.5t-91.5 180.5q0 35 12 105q15 64 15 114q0 58 -27.5 85.5t-89.5 27.5h-21l11 62h245q82 0 117 -31.5t35 -106.5q0 -29 -14 -127q-17 -97 -17 -133q0 -145 140 -145q79 0 141 33l90 510h266l-168 -963h-266z" />
    <glyph glyph-name="uni04F6" unicode="&#x4f6;" horiz-adv-x="1118" 
d="M172 1352h879q149 0 149 -121q0 -15 -35 -217h-61q6 38 6 67q0 93 -54.5 136t-164.5 43h-305l-205 -1168h72q29 0 45 -16t16 -41q0 -9 -2 -15l-70 -399h-102q1 17 2 40t1.5 35t0.5 19q0 157 -45 221t-149 64h-52q140 799 158 905q43 249 43 273q0 58 -27.5 85t-89.5 27
h-20z" />
    <glyph glyph-name="uni04F7" unicode="&#x4f7;" horiz-adv-x="888" 
d="M72 963h706q129 0 129 -119q0 -4 -0.5 -9.5t-1.5 -16t-2 -19.5l-26 -144h-62q6 37 6 70q0 145 -162 145h-184l-137 -778h61q31 0 48.5 -20.5t11.5 -51.5l-62 -348h-92q4 50 4 101q0 127 -41 177t-135 50h-78l123 696q10 65 10 92q0 57 -27 85t-89 28h-11z" />
    <glyph glyph-name="uni04F8" unicode="&#x4f8;" horiz-adv-x="1837" 
d="M512 82q198 0 305 104.5t107 296.5q0 118 -74 176t-227 58q-52 0 -97 -10l-41 -11l-104 -594q11 -6 37 -10q45 -10 94 -10zM528 0h-430q140 799 158 905q43 249 43 273q0 58 -27.5 85t-89.5 27h-20l10 62h246q82 0 116.5 -31.5t34.5 -106.5q0 -57 -65 -415h164
q75 0 141 -6.5t142.5 -27.5t130.5 -55t90 -95t36 -142q0 -256 -200 -364q-201 -109 -480 -109zM1694 61h20l-10 -61h-246q-83 0 -118 32t-35 109q0 37 34 242q44 264 172 969h267l-99 -557q-6 -33 -26 -149t-35 -202q-43 -246 -43 -266q0 -59 27.5 -88t91.5 -29zM911 1485
q-46 0 -71 25t-25 65q0 56 40.5 97.5t96.5 41.5q46 0 71.5 -25t25.5 -69q0 -54 -41.5 -94.5t-96.5 -40.5zM1280 1485q-46 0 -71 25t-25 65q0 56 40.5 97.5t96.5 41.5q46 0 71 -25t25 -69q0 -54 -41 -94.5t-96 -40.5z" />
    <glyph glyph-name="uni04F9" unicode="&#x4f9;" horiz-adv-x="1521" 
d="M440 82q95 0 160.5 66.5t65.5 195.5q0 75 -41.5 111.5t-112.5 36.5q-50 0 -94 -15l-68 -381q41 -14 90 -14zM467 0h-399l94 553q37 222 37 235q0 58 -27.5 85.5t-89.5 27.5h-21l11 62h245q82 0 117 -31.5t35 -106.5q0 -32 -18 -149l-17 -103h133q178 0 275.5 -61
t97.5 -176q0 -90 -43.5 -158t-115 -105t-150.5 -55t-164 -18zM1409 61h21l-11 -61h-245q-83 0 -118.5 32t-35.5 109q0 21 31 205q9 61 106 617h266q-133 -747 -133 -785q0 -59 27.5 -88t91.5 -29zM684 1096q-46 0 -71 25t-25 65q0 56 40.5 97.5t96.5 41.5q46 0 71 -25
t25 -69q0 -54 -41 -94.5t-96 -40.5zM1053 1096q-46 0 -71.5 25t-25.5 65q0 56 40.5 97.5t97.5 41.5q46 0 71 -25t25 -69q0 -54 -41 -94.5t-96 -40.5z" />
    <glyph glyph-name="uni051A" unicode="&#x51a;" horiz-adv-x="1509" 
d="M664 51q94 0 174 41t135.5 110.5t98 156t66.5 183t36 185.5t12 170q0 195 -78 299t-225 104q-93 0 -172.5 -41.5t-135 -111.5t-98 -156.5t-67 -183.5t-36.5 -185.5t-12 -168.5q0 -193 77.5 -297.5t224.5 -104.5zM1255 -367l-10 -53q-538 0 -805 412q-166 51 -261 193.5
t-95 338.5q0 132 39.5 261t114 238t173.5 192.5t225.5 130.5t262.5 47q259 0 411 -156.5t152 -409.5q0 -184 -75.5 -356t-217 -301.5t-323.5 -183.5q16 -94 81 -176.5t153.5 -129.5t174.5 -47z" />
    <glyph glyph-name="uni051B" unicode="&#x51b;" horiz-adv-x="1124" 
d="M471 72q101 0 184 61l111 625q-20 58 -62.5 95.5t-99.5 37.5q-63 0 -114.5 -47t-82.5 -116t-51.5 -153.5t-28.5 -154t-8 -123.5q0 -113 36 -169t116 -56zM1067 963l-238 -1352h-266l76 430q-98 -61 -225 -61q-179 0 -272 99t-93 275q0 92 23 182.5t69 171t109 142
t148.5 97.5t181.5 36q68 0 126 -28.5t89 -84.5h10l88 93h174z" />
    <glyph glyph-name="uni051C" unicode="&#x51c;" horiz-adv-x="1853" 
d="M455 -18l-244 1130q-24 111 -62 159t-102 56l6 41l88 4q158 0 243 -56.5t116 -203.5l151 -706l279 524l-41 182q-23 107 -66.5 157t-111.5 58l6 41l82 4q158 0 242.5 -56t115.5 -204l162 -745l524 985h99l-728 -1370h-81l-175 802l-421 -802h-82z" />
    <glyph glyph-name="uni051D" unicode="&#x51d;" horiz-adv-x="1589" 
d="M385 -20l-203 747q-31 116 -64.5 162.5t-88.5 50.5l8 39l98 4q139 0 215 -56.5t113 -199.5l104 -391l197 328l-19 63q-30 109 -64 158.5t-79 54.5l8 39l78 4q145 0 228 -58.5t120 -197.5l117 -412l363 648h108l-549 -983h-94l-166 575l-338 -575h-92z" />
    <glyph glyph-name="uni0524" unicode="&#x524;" horiz-adv-x="1454" 
d="M1180 92h71q29 0 45.5 -16t16.5 -41q0 -9 -2 -15l-70 -399h-102q1 17 2 40t1.5 35t0.5 19q0 157 -45.5 221t-149.5 64h-51l221 1260h-532l-221 -1260h-267q140 799 158 905q43 249 43 273q0 58 -27.5 85t-89.5 27h-20l10 62h1229z" />
    <glyph glyph-name="uni0525" unicode="&#x525;" horiz-adv-x="1214" 
d="M983 92h61q30 0 46 -16t16 -41q0 -9 -2 -15l-62 -348h-92q4 50 4 101q0 127 -41 177t-135 50h-78l107 608q8 36 8 94q0 179 -156 179q-127 0 -198 -64q2 -10 2 -41q0 -37 -6 -67l-125 -709h-266l120 696q11 79 11 97q0 55 -26.5 81.5t-88.5 26.5h-21l11 62h202
q69 0 106 -17.5t54 -58.5q116 96 316 96q168 0 250.5 -65.5t82.5 -204.5q0 -35 -10 -107z" />
    <glyph glyph-name="uni1EA0" unicode="&#x1ea0;" horiz-adv-x="1325" 
d="M324 465h462l-131 534zM1192 -8q-67 0 -121.5 13t-102 42t-81.5 82.5t-51 128.5l-27 115h-545l-233 -373h-107l842 1352h92l266 -1094q49 -190 176 -205l-8 -51q-42 -10 -100 -10zM518 -344q-41 0 -63.5 20.5t-22.5 57.5q0 55 34 92t89 37q86 0 86 -80q0 -52 -35 -89.5
t-88 -37.5z" />
    <glyph glyph-name="uni1EA1" unicode="&#x1ea1;" 
d="M463 72q115 0 207 133l98 553q-20 58 -62.5 95.5t-99.5 37.5q-62 0 -113.5 -47.5t-82.5 -117t-52.5 -154.5t-30 -155t-8.5 -122q0 -223 144 -223zM406 -20q-173 0 -265 99.5t-92 268.5q0 113 38 225.5t105.5 204t169.5 148.5t220 57q68 0 126 -28.5t89 -84.5h10l88 93
h174l-168 -963h-174l-57 92h-11q-43 -55 -111 -83.5t-142 -28.5zM418 -344q-41 0 -63.5 20.5t-22.5 57.5q0 55 34 92t89 37q86 0 86 -80q0 -52 -35 -89.5t-88 -37.5z" />
    <glyph glyph-name="uni1EA2" unicode="&#x1ea2;" horiz-adv-x="1325" 
d="M324 465h462l-131 534zM1192 -8q-67 0 -121.5 13t-102 42t-81.5 82.5t-51 128.5l-27 115h-545l-233 -373h-107l842 1352h92l266 -1094q49 -190 176 -205l-8 -51q-42 -10 -100 -10zM938 1456h-107q15 62 64 111q41 48 41 90q0 49 -55 49q-38 0 -62 -23t-47 -84l-113 3
q12 105 76 168t170 63q84 0 127 -36t43 -103q0 -47 -12 -70.5t-51 -60.5q-37 -37 -52 -57t-22 -50z" />
    <glyph glyph-name="uni1EA3" unicode="&#x1ea3;" 
d="M463 72q115 0 207 133l98 553q-20 58 -62.5 95.5t-99.5 37.5q-62 0 -113.5 -47.5t-82.5 -117t-52.5 -154.5t-30 -155t-8.5 -122q0 -223 144 -223zM406 -20q-173 0 -265 99.5t-92 268.5q0 113 38 225.5t105.5 204t169.5 148.5t220 57q68 0 126 -28.5t89 -84.5h10l88 93
h174l-168 -963h-174l-57 92h-11q-43 -55 -111 -83.5t-142 -28.5zM788 1067h-106q15 63 63 111q41 48 41 90q0 49 -55 49q-38 0 -61.5 -22.5t-46.5 -84.5l-113 2q12 105 76 168.5t170 63.5q84 0 127 -36t43 -103q0 -47 -12 -70t-52 -61q-26 -26 -37 -38.5t-21.5 -30
t-15.5 -38.5z" />
    <glyph glyph-name="uni1EA4" unicode="&#x1ea4;" horiz-adv-x="1325" 
d="M324 465h462l-131 534zM1192 -8q-67 0 -121.5 13t-102 42t-81.5 82.5t-51 128.5l-27 115h-545l-233 -373h-107l842 1352h92l266 -1094q49 -190 176 -205l-8 -51q-42 -10 -100 -10zM963 1454l-125 164l-183 -164h-143l209 256h266l119 -256h-143zM1227 1872h243l-268 -287
h-112z" />
    <glyph glyph-name="uni1EA5" unicode="&#x1ea5;" 
d="M463 72q115 0 207 133l98 553q-20 58 -62.5 95.5t-99.5 37.5q-62 0 -113.5 -47.5t-82.5 -117t-52.5 -154.5t-30 -155t-8.5 -122q0 -223 144 -223zM406 -20q-173 0 -265 99.5t-92 268.5q0 113 38 225.5t105.5 204t169.5 148.5t220 57q68 0 126 -28.5t89 -84.5h10l88 93
h174l-168 -963h-174l-57 92h-11q-43 -55 -111 -83.5t-142 -28.5zM813 1065l-125 164l-182 -164h-144l209 256h267l118 -256h-143zM1077 1483h244l-268 -287h-113z" />
    <glyph glyph-name="uni1EA6" unicode="&#x1ea6;" horiz-adv-x="1325" 
d="M324 465h462l-131 534zM1192 -8q-67 0 -121.5 13t-102 42t-81.5 82.5t-51 128.5l-27 115h-545l-233 -373h-107l842 1352h92l266 -1094q49 -190 176 -205l-8 -51q-42 -10 -100 -10zM963 1454l-125 164l-183 -164h-143l209 256h266l119 -256h-143zM1010 1913h243l35 -287
h-112z" />
    <glyph glyph-name="uni1EA7" unicode="&#x1ea7;" 
d="M463 72q115 0 207 133l98 553q-20 58 -62.5 95.5t-99.5 37.5q-62 0 -113.5 -47.5t-82.5 -117t-52.5 -154.5t-30 -155t-8.5 -122q0 -223 144 -223zM406 -20q-173 0 -265 99.5t-92 268.5q0 113 38 225.5t105.5 204t169.5 148.5t220 57q68 0 126 -28.5t89 -84.5h10l88 93
h174l-168 -963h-174l-57 92h-11q-43 -55 -111 -83.5t-142 -28.5zM813 1065l-125 164l-182 -164h-144l209 256h267l118 -256h-143zM860 1524h244l35 -287h-113z" />
    <glyph glyph-name="uni1EA8" unicode="&#x1ea8;" horiz-adv-x="1325" 
d="M324 465h462l-131 534zM1192 -8q-67 0 -121.5 13t-102 42t-81.5 82.5t-51 128.5l-27 115h-545l-233 -373h-107l842 1352h92l266 -1094q49 -190 176 -205l-8 -51q-42 -10 -100 -10zM963 1454l-125 164l-183 -164h-143l209 256h266l119 -256h-143zM1225 1647h-107
q15 61 64 110q41 48 41 90q0 49 -56 49q-38 0 -61.5 -22.5t-46.5 -83.5l-113 2q12 105 76 168t170 63q84 0 127 -36t43 -103q0 -47 -12 -70t-52 -61q-37 -37 -51.5 -56.5t-21.5 -49.5z" />
    <glyph glyph-name="uni1EA9" unicode="&#x1ea9;" 
d="M463 72q115 0 207 133l98 553q-20 58 -62.5 95.5t-99.5 37.5q-62 0 -113.5 -47.5t-82.5 -117t-52.5 -154.5t-30 -155t-8.5 -122q0 -223 144 -223zM406 -20q-173 0 -265 99.5t-92 268.5q0 113 38 225.5t105.5 204t169.5 148.5t220 57q68 0 126 -28.5t89 -84.5h10l88 93
h174l-168 -963h-174l-57 92h-11q-43 -55 -111 -83.5t-142 -28.5zM813 1065l-125 164l-182 -164h-144l209 256h267l118 -256h-143zM1075 1257h-106q15 63 63 111q41 48 41 90q0 49 -55 49q-38 0 -62 -22.5t-47 -83.5l-112 2q12 105 75.5 168t169.5 63q84 0 127 -36t43 -103
q0 -47 -12 -70.5t-51 -60.5q-26 -26 -37 -38.5t-21.5 -30t-15.5 -38.5z" />
    <glyph glyph-name="uni1EAA" unicode="&#x1eaa;" horiz-adv-x="1325" 
d="M324 465h462l-131 534zM1192 -8q-67 0 -121.5 13t-102 42t-81.5 82.5t-51 128.5l-27 115h-545l-233 -373h-107l842 1352h92l266 -1094q49 -190 176 -205l-8 -51q-42 -10 -100 -10zM963 1454l-125 164l-183 -164h-143l209 256h266l119 -256h-143zM696 1790h-82
q23 112 65 158.5t112 46.5q33 0 54 -10.5t54 -38.5q39 -33 66 -33q32 0 56.5 24.5t29.5 57.5h82q-23 -112 -64 -158.5t-111 -46.5q-55 0 -110 49q-10 10 -31 21.5t-35 11.5q-31 0 -55.5 -24.5t-30.5 -57.5z" />
    <glyph glyph-name="uni1EAB" unicode="&#x1eab;" 
d="M463 72q115 0 207 133l98 553q-20 58 -62.5 95.5t-99.5 37.5q-62 0 -113.5 -47.5t-82.5 -117t-52.5 -154.5t-30 -155t-8.5 -122q0 -223 144 -223zM406 -20q-173 0 -265 99.5t-92 268.5q0 113 38 225.5t105.5 204t169.5 148.5t220 57q68 0 126 -28.5t89 -84.5h10l88 93
h174l-168 -963h-174l-57 92h-11q-43 -55 -111 -83.5t-142 -28.5zM813 1065l-125 164l-182 -164h-144l209 256h267l118 -256h-143zM547 1401h-82q23 112 64.5 158.5t111.5 46.5q33 0 54.5 -11t54.5 -39q38 -32 65 -32q32 0 56.5 24.5t29.5 57.5h82q-23 -113 -64 -159
t-110 -46q-56 0 -111 49q-11 11 -31 22t-34 11q-31 0 -55.5 -24.5t-30.5 -57.5z" />
    <glyph glyph-name="uni1EAC" unicode="&#x1eac;" horiz-adv-x="1325" 
d="M324 465h462l-131 534zM1192 -8q-67 0 -121.5 13t-102 42t-81.5 82.5t-51 128.5l-27 115h-545l-233 -373h-107l842 1352h92l266 -1094q49 -190 176 -205l-8 -51q-42 -10 -100 -10zM963 1454l-125 164l-183 -164h-143l209 256h266l119 -256h-143zM518 -344
q-41 0 -63.5 20.5t-22.5 57.5q0 55 34 92t89 37q86 0 86 -80q0 -52 -35 -89.5t-88 -37.5z" />
    <glyph glyph-name="uni1EAD" unicode="&#x1ead;" 
d="M463 72q115 0 207 133l98 553q-20 58 -62.5 95.5t-99.5 37.5q-62 0 -113.5 -47.5t-82.5 -117t-52.5 -154.5t-30 -155t-8.5 -122q0 -223 144 -223zM406 -20q-173 0 -265 99.5t-92 268.5q0 113 38 225.5t105.5 204t169.5 148.5t220 57q68 0 126 -28.5t89 -84.5h10l88 93
h174l-168 -963h-174l-57 92h-11q-43 -55 -111 -83.5t-142 -28.5zM813 1065l-125 164l-182 -164h-144l209 256h267l118 -256h-143zM418 -344q-41 0 -63.5 20.5t-22.5 57.5q0 55 34 92t89 37q86 0 86 -80q0 -52 -35 -89.5t-88 -37.5z" />
    <glyph glyph-name="uni1EAE" unicode="&#x1eae;" horiz-adv-x="1325" 
d="M324 465h462l-131 534zM1192 -8q-67 0 -121.5 13t-102 42t-81.5 82.5t-51 128.5l-27 115h-545l-233 -373h-107l842 1352h92l266 -1094q49 -190 176 -205l-8 -51q-42 -10 -100 -10zM817 1434q-97 0 -163 51.5t-91 140.5l66 43q28 -46 82.5 -74t130.5 -28q148 0 250 102
l49 -43q-56 -89 -141.5 -140.5t-182.5 -51.5zM920 1987h243l-268 -287h-113z" />
    <glyph glyph-name="uni1EAF" unicode="&#x1eaf;" 
d="M463 72q115 0 207 133l98 553q-20 58 -62.5 95.5t-99.5 37.5q-62 0 -113.5 -47.5t-82.5 -117t-52.5 -154.5t-30 -155t-8.5 -122q0 -223 144 -223zM406 -20q-173 0 -265 99.5t-92 268.5q0 113 38 225.5t105.5 204t169.5 148.5t220 57q68 0 126 -28.5t89 -84.5h10l88 93
h174l-168 -963h-174l-57 92h-11q-43 -55 -111 -83.5t-142 -28.5zM668 1044q-96 0 -162.5 51.5t-91.5 141.5l65 43q28 -46 82.5 -74t130.5 -28q148 0 250 102l49 -43q-57 -89 -141.5 -141t-181.5 -52zM770 1597h244l-269 -286h-112z" />
    <glyph glyph-name="uni1EB0" unicode="&#x1eb0;" horiz-adv-x="1325" 
d="M324 465h462l-131 534zM1192 -8q-67 0 -121.5 13t-102 42t-81.5 82.5t-51 128.5l-27 115h-545l-233 -373h-107l842 1352h92l266 -1094q49 -190 176 -205l-8 -51q-42 -10 -100 -10zM653 1997h244l35 -287h-113zM817 1434q-97 0 -163 51.5t-91 140.5l66 43q28 -46 82.5 -74
t130.5 -28q148 0 250 102l49 -43q-56 -89 -141.5 -140.5t-182.5 -51.5z" />
    <glyph glyph-name="uni1EB1" unicode="&#x1eb1;" 
d="M463 72q115 0 207 133l98 553q-20 58 -62.5 95.5t-99.5 37.5q-62 0 -113.5 -47.5t-82.5 -117t-52.5 -154.5t-30 -155t-8.5 -122q0 -223 144 -223zM406 -20q-173 0 -265 99.5t-92 268.5q0 113 38 225.5t105.5 204t169.5 148.5t220 57q68 0 126 -28.5t89 -84.5h10l88 93
h174l-168 -963h-174l-57 92h-11q-43 -55 -111 -83.5t-142 -28.5zM504 1608h244l34 -287h-112zM668 1044q-96 0 -162.5 51.5t-91.5 141.5l65 43q28 -46 82.5 -74t130.5 -28q148 0 250 102l49 -43q-57 -89 -141.5 -141t-181.5 -52z" />
    <glyph glyph-name="uni1EB2" unicode="&#x1eb2;" horiz-adv-x="1325" 
d="M324 465h462l-131 534zM1192 -8q-67 0 -121.5 13t-102 42t-81.5 82.5t-51 128.5l-27 115h-545l-233 -373h-107l842 1352h92l266 -1094q49 -190 176 -205l-8 -51q-42 -10 -100 -10zM893 1712h-107q15 62 64 111q41 48 41 90q0 49 -55 49q-38 0 -62 -23t-47 -84l-113 3
q12 105 76 168t170 63q84 0 127 -36t43 -103q0 -47 -12 -70.5t-51 -60.5q-38 -37 -52.5 -57t-21.5 -50zM817 1434q-97 0 -163 51.5t-91 140.5l66 43q28 -46 82.5 -74t130.5 -28q148 0 250 102l49 -43q-56 -89 -141.5 -140.5t-182.5 -51.5z" />
    <glyph glyph-name="uni1EB3" unicode="&#x1eb3;" 
d="M463 72q115 0 207 133l98 553q-20 58 -62.5 95.5t-99.5 37.5q-62 0 -113.5 -47.5t-82.5 -117t-52.5 -154.5t-30 -155t-8.5 -122q0 -223 144 -223zM406 -20q-173 0 -265 99.5t-92 268.5q0 113 38 225.5t105.5 204t169.5 148.5t220 57q68 0 126 -28.5t89 -84.5h10l88 93
h174l-168 -963h-174l-57 92h-11q-43 -55 -111 -83.5t-142 -28.5zM743 1323h-106q15 63 63 111q41 48 41 90q0 49 -55 49q-38 0 -61.5 -22.5t-46.5 -84.5l-113 2q12 105 76 168.5t170 63.5q84 0 127 -36t43 -103q0 -47 -12 -70t-52 -61q-26 -26 -37 -38.5t-21.5 -30
t-15.5 -38.5zM668 1044q-96 0 -162.5 51.5t-91.5 141.5l65 43q28 -46 82.5 -74t130.5 -28q148 0 250 102l49 -43q-57 -89 -141.5 -141t-181.5 -52z" />
    <glyph glyph-name="uni1EB4" unicode="&#x1eb4;" horiz-adv-x="1325" 
d="M324 465h462l-131 534zM1192 -8q-67 0 -121.5 13t-102 42t-81.5 82.5t-51 128.5l-27 115h-545l-233 -373h-107l842 1352h92l266 -1094q49 -190 176 -205l-8 -51q-42 -10 -100 -10zM817 1434q-97 0 -163 51.5t-91 140.5l66 43q28 -46 82.5 -74t130.5 -28q148 0 250 102
l49 -43q-56 -89 -141.5 -140.5t-182.5 -51.5zM690 1755h-82q23 112 64.5 158.5t111.5 46.5q33 0 54.5 -10.5t54.5 -38.5q39 -33 65 -33q32 0 56.5 24.5t29.5 57.5h82q-23 -113 -64 -159t-110 -46q-55 0 -110 49q-10 10 -31 21.5t-35 11.5q-31 0 -55.5 -24.5t-30.5 -57.5z
" />
    <glyph glyph-name="uni1EB5" unicode="&#x1eb5;" 
d="M463 72q115 0 207 133l98 553q-20 58 -62.5 95.5t-99.5 37.5q-62 0 -113.5 -47.5t-82.5 -117t-52.5 -154.5t-30 -155t-8.5 -122q0 -223 144 -223zM406 -20q-173 0 -265 99.5t-92 268.5q0 113 38 225.5t105.5 204t169.5 148.5t220 57q68 0 126 -28.5t89 -84.5h10l88 93
h174l-168 -963h-174l-57 92h-11q-43 -55 -111 -83.5t-142 -28.5zM668 1044q-96 0 -162.5 51.5t-91.5 141.5l65 43q28 -46 82.5 -74t130.5 -28q148 0 250 102l49 -43q-57 -89 -141.5 -141t-181.5 -52zM541 1366h-82q23 112 64.5 158.5t111.5 46.5q33 0 54 -10.5t54 -38.5
q39 -33 66 -33q32 0 56.5 24.5t29.5 57.5h82q-23 -113 -64 -159t-110 -46q-56 0 -111 49q-11 11 -31 22t-34 11q-31 0 -55.5 -24.5t-30.5 -57.5z" />
    <glyph glyph-name="uni1EB6" unicode="&#x1eb6;" horiz-adv-x="1325" 
d="M324 465h462l-131 534zM1192 -8q-67 0 -121.5 13t-102 42t-81.5 82.5t-51 128.5l-27 115h-545l-233 -373h-107l842 1352h92l266 -1094q49 -190 176 -205l-8 -51q-42 -10 -100 -10zM817 1434q-97 0 -163 51.5t-91 140.5l66 43q28 -46 82.5 -74t130.5 -28q148 0 250 102
l49 -43q-56 -89 -141.5 -140.5t-182.5 -51.5zM518 -344q-41 0 -63.5 20.5t-22.5 57.5q0 55 34 92t89 37q86 0 86 -80q0 -52 -35 -89.5t-88 -37.5z" />
    <glyph glyph-name="uni1EB7" unicode="&#x1eb7;" 
d="M463 72q115 0 207 133l98 553q-20 58 -62.5 95.5t-99.5 37.5q-62 0 -113.5 -47.5t-82.5 -117t-52.5 -154.5t-30 -155t-8.5 -122q0 -223 144 -223zM406 -20q-173 0 -265 99.5t-92 268.5q0 113 38 225.5t105.5 204t169.5 148.5t220 57q68 0 126 -28.5t89 -84.5h10l88 93
h174l-168 -963h-174l-57 92h-11q-43 -55 -111 -83.5t-142 -28.5zM668 1044q-96 0 -162.5 51.5t-91.5 141.5l65 43q28 -46 82.5 -74t130.5 -28q148 0 250 102l49 -43q-57 -89 -141.5 -141t-181.5 -52zM418 -344q-41 0 -63.5 20.5t-22.5 57.5q0 55 34 92t89 37q86 0 86 -80
q0 -52 -35 -89.5t-88 -37.5z" />
    <glyph glyph-name="uni1EB8" unicode="&#x1eb8;" horiz-adv-x="1232" 
d="M856 0h-758q149 851 158 903q43 249 43 275q0 58 -27.5 85t-89.5 27h-20l10 62h903q150 0 150 -119q0 -17 -35 -219h-62q7 44 7 67q0 179 -220 179h-329l-90 -512h532l-16 -93h-533l-100 -563h350q120 0 207 54t160 180l51 -21l-88 -162q-44 -79 -86 -111t-117 -32z
M471 -344q-41 0 -63.5 20.5t-22.5 57.5q0 55 34 92t89 37q86 0 86 -80q0 -52 -35 -89.5t-88 -37.5z" />
    <glyph glyph-name="uni1EB9" unicode="&#x1eb9;" horiz-adv-x="1040" 
d="M342 502h215q54 0 94.5 40.5t58 93t17.5 105.5q0 71 -35 110.5t-88 39.5q-198 0 -262 -389zM444 -20q-183 0 -288 107t-105 286q0 163 72 302.5t203.5 223.5t294.5 84q182 0 282.5 -66t100.5 -184q0 -72 -29 -129t-75 -92.5t-108 -59t-124 -33t-127 -9.5h-215
q-13 -70 -13 -115q0 -109 46.5 -166t132.5 -57q94 0 167.5 41.5t153.5 128.5l55 -47q-83 -102 -184 -158.5t-240 -56.5zM375 -344q-41 0 -63.5 20.5t-22.5 57.5q0 55 34 92t89 37q86 0 86 -80q0 -52 -35 -89.5t-88 -37.5z" />
    <glyph glyph-name="uni1EBA" unicode="&#x1eba;" horiz-adv-x="1232" 
d="M891 1456h-107q15 62 64 111q41 48 41 90q0 49 -55 49q-38 0 -62 -23t-47 -84l-113 3q12 105 76 168t170 63q84 0 127 -36t43 -103q0 -47 -12 -70.5t-51 -60.5q-37 -37 -52 -57t-22 -50zM856 0h-758q149 851 158 903q43 249 43 275q0 58 -27.5 85t-89.5 27h-20l10 62h903
q150 0 150 -119q0 -17 -35 -219h-62q7 44 7 67q0 179 -220 179h-329l-90 -512h532l-16 -93h-533l-100 -563h350q120 0 207 54t160 180l51 -21l-88 -162q-44 -79 -86 -111t-117 -32z" />
    <glyph glyph-name="uni1EBB" unicode="&#x1ebb;" horiz-adv-x="1040" 
d="M342 502h215q54 0 94.5 40.5t58 93t17.5 105.5q0 71 -35 110.5t-88 39.5q-198 0 -262 -389zM444 -20q-183 0 -288 107t-105 286q0 163 72 302.5t203.5 223.5t294.5 84q182 0 282.5 -66t100.5 -184q0 -72 -29 -129t-75 -92.5t-108 -59t-124 -33t-127 -9.5h-215
q-13 -70 -13 -115q0 -109 46.5 -166t132.5 -57q94 0 167.5 41.5t153.5 128.5l55 -47q-83 -102 -184 -158.5t-240 -56.5zM786 1067h-106q15 63 63 111q41 48 41 90q0 49 -55 49q-38 0 -61.5 -22.5t-46.5 -84.5l-113 2q12 105 76 168.5t170 63.5q84 0 127 -36t43 -103
q0 -47 -12 -70t-52 -61q-26 -26 -37 -38.5t-21.5 -30t-15.5 -38.5z" />
    <glyph glyph-name="uni1EBC" unicode="&#x1ebc;" horiz-adv-x="1232" 
d="M623 1536h-82q23 112 64.5 158.5t111.5 46.5q33 0 54 -10.5t54 -38.5q39 -33 66 -33q32 0 56.5 24.5t29.5 57.5h82q-23 -113 -64 -159t-110 -46q-56 0 -111 49q-11 11 -31 22t-34 11q-31 0 -55.5 -24.5t-30.5 -57.5zM856 0h-758q149 851 158 903q43 249 43 275
q0 58 -27.5 85t-89.5 27h-20l10 62h903q150 0 150 -119q0 -17 -35 -219h-62q7 44 7 67q0 179 -220 179h-329l-90 -512h532l-16 -93h-533l-100 -563h350q120 0 207 54t160 180l51 -21l-88 -162q-44 -79 -86 -111t-117 -32z" />
    <glyph glyph-name="uni1EBD" unicode="&#x1ebd;" horiz-adv-x="1040" 
d="M342 502h215q54 0 94.5 40.5t58 93t17.5 105.5q0 71 -35 110.5t-88 39.5q-198 0 -262 -389zM444 -20q-183 0 -288 107t-105 286q0 163 72 302.5t203.5 223.5t294.5 84q182 0 282.5 -66t100.5 -184q0 -72 -29 -129t-75 -92.5t-108 -59t-124 -33t-127 -9.5h-215
q-13 -70 -13 -115q0 -109 46.5 -166t132.5 -57q94 0 167.5 41.5t153.5 128.5l55 -47q-83 -102 -184 -158.5t-240 -56.5zM518 1147h-82q23 112 64.5 158.5t111.5 46.5q33 0 54.5 -10.5t54.5 -38.5q39 -33 65 -33q32 0 56.5 24.5t29.5 57.5h82q-23 -113 -64 -159t-110 -46
q-55 0 -110 49q-10 10 -31 21.5t-35 11.5q-31 0 -55.5 -24.5t-30.5 -57.5z" />
    <glyph glyph-name="uni1EBE" unicode="&#x1ebe;" horiz-adv-x="1232" 
d="M1155 1585h-113l138 287h243zM608 1454h-143l209 256h266l119 -256h-144l-124 164zM856 0h-758q149 851 158 903q43 249 43 275q0 58 -27.5 85t-89.5 27h-20l10 62h903q150 0 150 -119q0 -17 -35 -219h-62q7 44 7 67q0 179 -220 179h-329l-90 -512h532l-16 -93h-533
l-100 -563h350q120 0 207 54t160 180l51 -21l-88 -162q-44 -79 -86 -111t-117 -32z" />
    <glyph glyph-name="uni1EBF" unicode="&#x1ebf;" horiz-adv-x="1040" 
d="M342 502h215q54 0 94.5 40.5t58 93t17.5 105.5q0 71 -35 110.5t-88 39.5q-198 0 -262 -389zM444 -20q-183 0 -288 107t-105 286q0 163 72 302.5t203.5 223.5t294.5 84q182 0 282.5 -66t100.5 -184q0 -72 -29 -129t-75 -92.5t-108 -59t-124 -33t-127 -9.5h-215
q-13 -70 -13 -115q0 -109 46.5 -166t132.5 -57q94 0 167.5 41.5t153.5 128.5l55 -47q-83 -102 -184 -158.5t-240 -56.5zM811 1065l-125 164l-182 -164h-144l209 256h267l118 -256h-143zM1075 1483h244l-268 -287h-113z" />
    <glyph glyph-name="uni1EC0" unicode="&#x1ec0;" horiz-adv-x="1232" 
d="M1241 1626h-113l-165 287h243zM608 1454h-143l209 256h266l119 -256h-144l-124 164zM856 0h-758q149 851 158 903q43 249 43 275q0 58 -27.5 85t-89.5 27h-20l10 62h903q150 0 150 -119q0 -17 -35 -219h-62q7 44 7 67q0 179 -220 179h-329l-90 -512h532l-16 -93h-533
l-100 -563h350q120 0 207 54t160 180l51 -21l-88 -162q-44 -79 -86 -111t-117 -32z" />
    <glyph glyph-name="uni1EC1" unicode="&#x1ec1;" horiz-adv-x="1040" 
d="M342 502h215q54 0 94.5 40.5t58 93t17.5 105.5q0 71 -35 110.5t-88 39.5q-198 0 -262 -389zM444 -20q-183 0 -288 107t-105 286q0 163 72 302.5t203.5 223.5t294.5 84q182 0 282.5 -66t100.5 -184q0 -72 -29 -129t-75 -92.5t-108 -59t-124 -33t-127 -9.5h-215
q-13 -70 -13 -115q0 -109 46.5 -166t132.5 -57q94 0 167.5 41.5t153.5 128.5l55 -47q-83 -102 -184 -158.5t-240 -56.5zM811 1065l-125 164l-182 -164h-144l209 256h267l118 -256h-143zM858 1524h244l35 -287h-113z" />
    <glyph glyph-name="uni1EC2" unicode="&#x1ec2;" horiz-adv-x="1232" 
d="M1178 1647h-107q15 61 64 110q41 48 41 90q0 49 -56 49q-38 0 -61.5 -22.5t-46.5 -83.5l-113 2q12 105 76 168t170 63q84 0 127 -36t43 -103q0 -47 -12 -70t-52 -61q-37 -37 -51.5 -56.5t-21.5 -49.5zM608 1454h-143l209 256h266l119 -256h-144l-124 164zM856 0h-758
q149 851 158 903q43 249 43 275q0 58 -27.5 85t-89.5 27h-20l10 62h903q150 0 150 -119q0 -17 -35 -219h-62q7 44 7 67q0 179 -220 179h-329l-90 -512h532l-16 -93h-533l-100 -563h350q120 0 207 54t160 180l51 -21l-88 -162q-44 -79 -86 -111t-117 -32z" />
    <glyph glyph-name="uni1EC3" unicode="&#x1ec3;" horiz-adv-x="1040" 
d="M342 502h215q54 0 94.5 40.5t58 93t17.5 105.5q0 71 -35 110.5t-88 39.5q-198 0 -262 -389zM444 -20q-183 0 -288 107t-105 286q0 163 72 302.5t203.5 223.5t294.5 84q182 0 282.5 -66t100.5 -184q0 -72 -29 -129t-75 -92.5t-108 -59t-124 -33t-127 -9.5h-215
q-13 -70 -13 -115q0 -109 46.5 -166t132.5 -57q94 0 167.5 41.5t153.5 128.5l55 -47q-83 -102 -184 -158.5t-240 -56.5zM811 1065l-125 164l-182 -164h-144l209 256h267l118 -256h-143zM1073 1257h-106q15 63 63 111q41 48 41 90q0 49 -55 49q-38 0 -62 -22.5t-47 -83.5
l-112 2q12 105 75.5 168t169.5 63q84 0 127 -36t43 -103q0 -47 -12 -70.5t-51 -60.5q-26 -26 -37 -38.5t-21.5 -30t-15.5 -38.5z" />
    <glyph glyph-name="uni1EC4" unicode="&#x1ec4;" horiz-adv-x="1232" 
d="M649 1790h-82q23 112 64.5 158.5t111.5 46.5q33 0 54.5 -10.5t54.5 -38.5q39 -33 66 -33q32 0 56.5 24.5t29.5 57.5h81q-23 -113 -64 -159t-110 -46q-55 0 -110 49q-10 10 -31 21.5t-35 11.5q-31 0 -55.5 -24.5t-30.5 -57.5zM608 1454h-143l209 256h266l119 -256h-144
l-124 164zM856 0h-758q149 851 158 903q43 249 43 275q0 58 -27.5 85t-89.5 27h-20l10 62h903q150 0 150 -119q0 -17 -35 -219h-62q7 44 7 67q0 179 -220 179h-329l-90 -512h532l-16 -93h-533l-100 -563h350q120 0 207 54t160 180l51 -21l-88 -162q-44 -79 -86 -111
t-117 -32z" />
    <glyph glyph-name="uni1EC5" unicode="&#x1ec5;" horiz-adv-x="1040" 
d="M342 502h215q54 0 94.5 40.5t58 93t17.5 105.5q0 71 -35 110.5t-88 39.5q-198 0 -262 -389zM444 -20q-183 0 -288 107t-105 286q0 163 72 302.5t203.5 223.5t294.5 84q182 0 282.5 -66t100.5 -184q0 -72 -29 -129t-75 -92.5t-108 -59t-124 -33t-127 -9.5h-215
q-13 -70 -13 -115q0 -109 46.5 -166t132.5 -57q94 0 167.5 41.5t153.5 128.5l55 -47q-83 -102 -184 -158.5t-240 -56.5zM811 1065l-125 164l-182 -164h-144l209 256h267l118 -256h-143zM545 1401h-82q23 112 64.5 158.5t111.5 46.5q33 0 54.5 -11t54.5 -39q38 -32 65 -32
q32 0 56.5 24.5t29.5 57.5h82q-23 -113 -64 -159t-110 -46q-56 0 -111 49q-11 11 -31 22t-34 11q-31 0 -55.5 -24.5t-30.5 -57.5z" />
    <glyph glyph-name="uni1EC6" unicode="&#x1ec6;" horiz-adv-x="1232" 
d="M608 1454h-143l209 256h266l119 -256h-144l-124 164zM856 0h-758q149 851 158 903q43 249 43 275q0 58 -27.5 85t-89.5 27h-20l10 62h903q150 0 150 -119q0 -17 -35 -219h-62q7 44 7 67q0 179 -220 179h-329l-90 -512h532l-16 -93h-533l-100 -563h350q120 0 207 54
t160 180l51 -21l-88 -162q-44 -79 -86 -111t-117 -32zM471 -344q-41 0 -63.5 20.5t-22.5 57.5q0 55 34 92t89 37q86 0 86 -80q0 -52 -35 -89.5t-88 -37.5z" />
    <glyph glyph-name="uni1EC7" unicode="&#x1ec7;" horiz-adv-x="1040" 
d="M342 502h215q54 0 94.5 40.5t58 93t17.5 105.5q0 71 -35 110.5t-88 39.5q-198 0 -262 -389zM444 -20q-183 0 -288 107t-105 286q0 163 72 302.5t203.5 223.5t294.5 84q182 0 282.5 -66t100.5 -184q0 -72 -29 -129t-75 -92.5t-108 -59t-124 -33t-127 -9.5h-215
q-13 -70 -13 -115q0 -109 46.5 -166t132.5 -57q94 0 167.5 41.5t153.5 128.5l55 -47q-83 -102 -184 -158.5t-240 -56.5zM811 1065l-125 164l-182 -164h-144l209 256h267l118 -256h-143zM375 -344q-41 0 -63.5 20.5t-22.5 57.5q0 55 34 92t89 37q86 0 86 -80q0 -52 -35 -89.5
t-88 -37.5z" />
    <glyph glyph-name="uni1EC8" unicode="&#x1ec8;" horiz-adv-x="628" 
d="M549 1456h-107q15 62 64 111q41 48 41 90q0 49 -55 49q-38 0 -62 -23t-47 -84l-113 3q12 105 76 168t170 63q84 0 127 -36t43 -103q0 -47 -12 -70.5t-51 -60.5q-37 -37 -52 -57t-22 -50zM496 0h-246q-82 0 -117 32t-35 109q0 45 13 125l192 1086h266l-192 -1086
q-8 -39 -8 -88q0 -59 27.5 -88t88.5 -29h21z" />
    <glyph glyph-name="uni1EC9" unicode="&#x1ec9;" horiz-adv-x="555" 
d="M422 1067h-107q15 62 64 111q41 48 41 90q0 49 -55 49q-38 0 -62 -23t-47 -84l-113 2q12 105 76 168.5t170 63.5q84 0 127 -36t43 -103q0 -47 -12 -70.5t-51 -60.5q-26 -26 -37 -38.5t-21.5 -30t-15.5 -38.5zM68 0l98 580q33 179 33 208q0 58 -27.5 85.5t-89.5 27.5h-21
l11 62h245q82 0 117 -31.5t35 -106.5q0 -19 -23 -170q-6 -42 -112 -655h-266z" />
    <glyph glyph-name="uni1ECA" unicode="&#x1eca;" horiz-adv-x="628" 
d="M496 0h-246q-82 0 -117 32t-35 109q0 45 13 125l192 1086h266l-192 -1086q-8 -39 -8 -88q0 -59 27.5 -88t88.5 -29h21zM170 -344q-41 0 -63.5 20.5t-22.5 57.5q0 55 34 92t89 37q86 0 86 -80q0 -52 -35 -89.5t-88 -37.5z" />
    <glyph glyph-name="uni1ECB" unicode="&#x1ecb;" horiz-adv-x="555" 
d="M389 1073q-61 0 -95 33.5t-34 89.5q0 61 38 104t97 43q62 0 95.5 -33.5t33.5 -88.5q0 -68 -34.5 -108t-100.5 -40zM68 0l120 696q11 79 11 92q0 58 -27.5 85.5t-89.5 27.5h-21l11 62h245q82 0 117 -31.5t35 -106.5q0 -46 -14 -129l-121 -696h-266zM133 -344
q-41 0 -63.5 20.5t-22.5 57.5q0 55 34 92t89 37q86 0 86 -80q0 -52 -35 -89.5t-88 -37.5z" />
    <glyph glyph-name="uni1ECC" unicode="&#x1ecc;" horiz-adv-x="1505" 
d="M662 51q94 0 174 41t135.5 110.5t98 156t66.5 183t36 185.5t12 170q0 195 -78 299t-225 104q-93 0 -172.5 -41.5t-135 -111.5t-98 -156.5t-67 -183.5t-36.5 -185.5t-12 -168.5q0 -193 77.5 -297.5t224.5 -104.5zM645 -41q-259 0 -411 156.5t-152 408.5q0 132 39.5 261
t114 238t173.5 192.5t225.5 130.5t262.5 47q259 0 411 -156.5t152 -409.5q0 -132 -39.5 -261t-114 -237.5t-173.5 -192t-225.5 -130.5t-262.5 -47zM608 -344q-41 0 -63.5 20.5t-22.5 57.5q0 55 34 92t89 37q86 0 86 -80q0 -52 -35 -89.5t-88 -37.5z" />
    <glyph glyph-name="uni1ECD" unicode="&#x1ecd;" horiz-adv-x="1132" 
d="M479 72q65 0 119 43.5t86.5 108t55 144.5t31.5 149t9 124q0 121 -39.5 185.5t-117.5 64.5q-65 0 -119 -43.5t-86.5 -108t-55 -144.5t-31.5 -149t-9 -124q0 -121 39.5 -185.5t117.5 -64.5zM463 -20q-194 0 -304 108t-110 289q0 161 78.5 300.5t214.5 222.5t297 83
q194 0 304 -108t110 -289q0 -161 -78.5 -300.5t-214.5 -222.5t-297 -83zM422 -344q-41 0 -63.5 20.5t-22.5 57.5q0 55 34 92t89 37q86 0 86 -80q0 -52 -35 -89.5t-88 -37.5z" />
    <glyph glyph-name="uni1ECE" unicode="&#x1ece;" horiz-adv-x="1505" 
d="M662 51q94 0 174 41t135.5 110.5t98 156t66.5 183t36 185.5t12 170q0 195 -78 299t-225 104q-93 0 -172.5 -41.5t-135 -111.5t-98 -156.5t-67 -183.5t-36.5 -185.5t-12 -168.5q0 -193 77.5 -297.5t224.5 -104.5zM645 -41q-259 0 -411 156.5t-152 408.5q0 132 39.5 261
t114 238t173.5 192.5t225.5 130.5t262.5 47q259 0 411 -156.5t152 -409.5q0 -132 -39.5 -261t-114 -237.5t-173.5 -192t-225.5 -130.5t-262.5 -47zM1028 1456h-106q15 63 63 111q41 48 41 90q0 49 -55 49q-38 0 -62 -23t-47 -84l-112 3q12 105 75.5 168t169.5 63
q84 0 127 -36t43 -103q0 -47 -12 -70.5t-51 -60.5q-38 -37 -52.5 -57t-21.5 -50z" />
    <glyph glyph-name="uni1ECF" unicode="&#x1ecf;" horiz-adv-x="1132" 
d="M479 72q65 0 119 43.5t86.5 108t55 144.5t31.5 149t9 124q0 121 -39.5 185.5t-117.5 64.5q-65 0 -119 -43.5t-86.5 -108t-55 -144.5t-31.5 -149t-9 -124q0 -121 39.5 -185.5t117.5 -64.5zM463 -20q-194 0 -304 108t-110 289q0 161 78.5 300.5t214.5 222.5t297 83
q194 0 304 -108t110 -289q0 -161 -78.5 -300.5t-214.5 -222.5t-297 -83zM772 1067h-106q15 63 63 111q41 48 41 90q0 49 -55 49q-38 0 -62 -23t-47 -84l-112 2q12 105 76 168.5t169 63.5q84 0 127 -36t43 -103q0 -47 -12 -70.5t-51 -60.5q-26 -26 -37 -38.5t-21.5 -30
t-15.5 -38.5z" />
    <glyph glyph-name="uni1ED0" unicode="&#x1ed0;" horiz-adv-x="1505" 
d="M662 51q94 0 174 41t135.5 110.5t98 156t66.5 183t36 185.5t12 170q0 195 -78 299t-225 104q-93 0 -172.5 -41.5t-135 -111.5t-98 -156.5t-67 -183.5t-36.5 -185.5t-12 -168.5q0 -193 77.5 -297.5t224.5 -104.5zM645 -41q-259 0 -411 156.5t-152 408.5q0 132 39.5 261
t114 238t173.5 192.5t225.5 130.5t262.5 47q259 0 411 -156.5t152 -409.5q0 -132 -39.5 -261t-114 -237.5t-173.5 -192t-225.5 -130.5t-262.5 -47zM1053 1454l-125 164l-183 -164h-143l209 256h266l119 -256h-143zM1317 1872h244l-269 -287h-112z" />
    <glyph glyph-name="uni1ED1" unicode="&#x1ed1;" horiz-adv-x="1132" 
d="M479 72q65 0 119 43.5t86.5 108t55 144.5t31.5 149t9 124q0 121 -39.5 185.5t-117.5 64.5q-65 0 -119 -43.5t-86.5 -108t-55 -144.5t-31.5 -149t-9 -124q0 -121 39.5 -185.5t117.5 -64.5zM463 -20q-194 0 -304 108t-110 289q0 161 78.5 300.5t214.5 222.5t297 83
q194 0 304 -108t110 -289q0 -161 -78.5 -300.5t-214.5 -222.5t-297 -83zM797 1065l-125 164l-183 -164h-143l209 256h266l119 -256h-143zM1061 1483h244l-269 -287h-112z" />
    <glyph glyph-name="uni1ED2" unicode="&#x1ed2;" horiz-adv-x="1505" 
d="M662 51q94 0 174 41t135.5 110.5t98 156t66.5 183t36 185.5t12 170q0 195 -78 299t-225 104q-93 0 -172.5 -41.5t-135 -111.5t-98 -156.5t-67 -183.5t-36.5 -185.5t-12 -168.5q0 -193 77.5 -297.5t224.5 -104.5zM645 -41q-259 0 -411 156.5t-152 408.5q0 132 39.5 261
t114 238t173.5 192.5t225.5 130.5t262.5 47q259 0 411 -156.5t152 -409.5q0 -132 -39.5 -261t-114 -237.5t-173.5 -192t-225.5 -130.5t-262.5 -47zM1053 1454l-125 164l-183 -164h-143l209 256h266l119 -256h-143zM1100 1913h243l35 -287h-112z" />
    <glyph glyph-name="uni1ED3" unicode="&#x1ed3;" horiz-adv-x="1132" 
d="M479 72q65 0 119 43.5t86.5 108t55 144.5t31.5 149t9 124q0 121 -39.5 185.5t-117.5 64.5q-65 0 -119 -43.5t-86.5 -108t-55 -144.5t-31.5 -149t-9 -124q0 -121 39.5 -185.5t117.5 -64.5zM463 -20q-194 0 -304 108t-110 289q0 161 78.5 300.5t214.5 222.5t297 83
q194 0 304 -108t110 -289q0 -161 -78.5 -300.5t-214.5 -222.5t-297 -83zM797 1065l-125 164l-183 -164h-143l209 256h266l119 -256h-143zM844 1524h243l35 -287h-112z" />
    <glyph glyph-name="uni1ED4" unicode="&#x1ed4;" horiz-adv-x="1505" 
d="M662 51q94 0 174 41t135.5 110.5t98 156t66.5 183t36 185.5t12 170q0 195 -78 299t-225 104q-93 0 -172.5 -41.5t-135 -111.5t-98 -156.5t-67 -183.5t-36.5 -185.5t-12 -168.5q0 -193 77.5 -297.5t224.5 -104.5zM645 -41q-259 0 -411 156.5t-152 408.5q0 132 39.5 261
t114 238t173.5 192.5t225.5 130.5t262.5 47q259 0 411 -156.5t152 -409.5q0 -132 -39.5 -261t-114 -237.5t-173.5 -192t-225.5 -130.5t-262.5 -47zM1053 1454l-125 164l-183 -164h-143l209 256h266l119 -256h-143zM1315 1647h-107q15 61 64 110q41 48 41 90q0 49 -56 49
q-38 0 -61.5 -22.5t-46.5 -83.5l-113 2q12 105 76 168t170 63q84 0 127 -36t43 -103q0 -47 -12 -70.5t-51 -60.5q-27 -27 -37.5 -38.5t-21 -29t-15.5 -38.5z" />
    <glyph glyph-name="uni1ED5" unicode="&#x1ed5;" horiz-adv-x="1132" 
d="M479 72q65 0 119 43.5t86.5 108t55 144.5t31.5 149t9 124q0 121 -39.5 185.5t-117.5 64.5q-65 0 -119 -43.5t-86.5 -108t-55 -144.5t-31.5 -149t-9 -124q0 -121 39.5 -185.5t117.5 -64.5zM463 -20q-194 0 -304 108t-110 289q0 161 78.5 300.5t214.5 222.5t297 83
q194 0 304 -108t110 -289q0 -161 -78.5 -300.5t-214.5 -222.5t-297 -83zM797 1065l-125 164l-183 -164h-143l209 256h266l119 -256h-143zM1059 1257h-107q15 62 64 111q41 48 41 90q0 49 -56 49q-38 0 -61.5 -22.5t-46.5 -83.5l-113 2q12 105 76 168t170 63q84 0 127 -36
t43 -103q0 -47 -12 -70.5t-51 -60.5q-26 -26 -37 -38.5t-21.5 -30t-15.5 -38.5z" />
    <glyph glyph-name="uni1ED6" unicode="&#x1ed6;" horiz-adv-x="1505" 
d="M662 51q94 0 174 41t135.5 110.5t98 156t66.5 183t36 185.5t12 170q0 195 -78 299t-225 104q-93 0 -172.5 -41.5t-135 -111.5t-98 -156.5t-67 -183.5t-36.5 -185.5t-12 -168.5q0 -193 77.5 -297.5t224.5 -104.5zM645 -41q-259 0 -411 156.5t-152 408.5q0 132 39.5 261
t114 238t173.5 192.5t225.5 130.5t262.5 47q259 0 411 -156.5t152 -409.5q0 -132 -39.5 -261t-114 -237.5t-173.5 -192t-225.5 -130.5t-262.5 -47zM1053 1454l-125 164l-183 -164h-143l209 256h266l119 -256h-143zM786 1790h-81q23 112 64.5 158.5t111.5 46.5q33 0 54 -10.5
t54 -38.5q39 -33 66 -33q32 0 56.5 24.5t29.5 57.5h82q-23 -113 -64 -159t-110 -46q-56 0 -111 49q-10 10 -31 21.5t-35 11.5q-31 0 -55.5 -24.5t-30.5 -57.5z" />
    <glyph glyph-name="uni1ED7" unicode="&#x1ed7;" horiz-adv-x="1132" 
d="M479 72q65 0 119 43.5t86.5 108t55 144.5t31.5 149t9 124q0 121 -39.5 185.5t-117.5 64.5q-65 0 -119 -43.5t-86.5 -108t-55 -144.5t-31.5 -149t-9 -124q0 -121 39.5 -185.5t117.5 -64.5zM463 -20q-194 0 -304 108t-110 289q0 161 78.5 300.5t214.5 222.5t297 83
q194 0 304 -108t110 -289q0 -161 -78.5 -300.5t-214.5 -222.5t-297 -83zM797 1065l-125 164l-183 -164h-143l209 256h266l119 -256h-143zM530 1401h-81q23 112 64.5 158.5t111.5 46.5q33 0 53.5 -11t54.5 -39q38 -32 66 -32q32 0 56.5 24.5t29.5 57.5h82q-23 -113 -64 -159
t-110 -46q-56 0 -111 49q-10 10 -31 21.5t-35 11.5q-31 0 -55.5 -24.5t-30.5 -57.5z" />
    <glyph glyph-name="uni1ED8" unicode="&#x1ed8;" horiz-adv-x="1505" 
d="M662 51q94 0 174 41t135.5 110.5t98 156t66.5 183t36 185.5t12 170q0 195 -78 299t-225 104q-93 0 -172.5 -41.5t-135 -111.5t-98 -156.5t-67 -183.5t-36.5 -185.5t-12 -168.5q0 -193 77.5 -297.5t224.5 -104.5zM645 -41q-259 0 -411 156.5t-152 408.5q0 132 39.5 261
t114 238t173.5 192.5t225.5 130.5t262.5 47q259 0 411 -156.5t152 -409.5q0 -132 -39.5 -261t-114 -237.5t-173.5 -192t-225.5 -130.5t-262.5 -47zM1053 1454l-125 164l-183 -164h-143l209 256h266l119 -256h-143zM608 -344q-41 0 -63.5 20.5t-22.5 57.5q0 55 34 92t89 37
q86 0 86 -80q0 -52 -35 -89.5t-88 -37.5z" />
    <glyph glyph-name="uni1ED9" unicode="&#x1ed9;" horiz-adv-x="1132" 
d="M479 72q65 0 119 43.5t86.5 108t55 144.5t31.5 149t9 124q0 121 -39.5 185.5t-117.5 64.5q-65 0 -119 -43.5t-86.5 -108t-55 -144.5t-31.5 -149t-9 -124q0 -121 39.5 -185.5t117.5 -64.5zM463 -20q-194 0 -304 108t-110 289q0 161 78.5 300.5t214.5 222.5t297 83
q194 0 304 -108t110 -289q0 -161 -78.5 -300.5t-214.5 -222.5t-297 -83zM797 1065l-125 164l-183 -164h-143l209 256h266l119 -256h-143zM422 -344q-41 0 -63.5 20.5t-22.5 57.5q0 55 34 92t89 37q86 0 86 -80q0 -52 -35 -89.5t-88 -37.5z" />
    <glyph glyph-name="uni1EDA" unicode="&#x1eda;" horiz-adv-x="1505" 
d="M662 51q94 0 174 41t135.5 110.5t98 156t66.5 183t36 185.5t12 170q0 195 -78 299t-225 104q-93 0 -172.5 -41.5t-135 -111.5t-98 -156.5t-67 -183.5t-36.5 -185.5t-12 -168.5q0 -193 77.5 -297.5t224.5 -104.5zM645 -41q-259 0 -411 156.5t-152 408.5q0 132 39.5 261
t114 238t173.5 192.5t225.5 130.5t262.5 47q194 0 336 -95q96 0 161.5 72t84.5 168h163q-20 -102 -106.5 -194t-214.5 -121q139 -154 139 -396q0 -132 -39.5 -261t-114 -237.5t-173.5 -192t-225.5 -130.5t-262.5 -47zM997 1751h244l-268 -287h-113z" />
    <glyph glyph-name="uni1EDB" unicode="&#x1edb;" horiz-adv-x="1132" 
d="M479 72q65 0 119 43.5t86.5 108t55 144.5t31.5 149t9 124q0 121 -39.5 185.5t-117.5 64.5q-65 0 -119 -43.5t-86.5 -108t-55 -144.5t-31.5 -149t-9 -124q0 -121 39.5 -185.5t117.5 -64.5zM1012 1174h164q-18 -89 -86.5 -164t-174.5 -111q138 -110 138 -313
q0 -161 -78.5 -300.5t-214.5 -222.5t-297 -83q-194 0 -304 108t-110 289q0 161 78.5 300.5t214.5 222.5t297 83q81 0 154 -20q88 7 146.5 67t72.5 144zM741 1362h244l-268 -287h-113z" />
    <glyph glyph-name="uni1EDC" unicode="&#x1edc;" horiz-adv-x="1505" 
d="M662 51q94 0 174 41t135.5 110.5t98 156t66.5 183t36 185.5t12 170q0 195 -78 299t-225 104q-93 0 -172.5 -41.5t-135 -111.5t-98 -156.5t-67 -183.5t-36.5 -185.5t-12 -168.5q0 -193 77.5 -297.5t224.5 -104.5zM645 -41q-259 0 -411 156.5t-152 408.5q0 132 39.5 261
t114 238t173.5 192.5t225.5 130.5t262.5 47q194 0 336 -95q96 0 161.5 72t84.5 168h163q-20 -102 -106.5 -194t-214.5 -121q139 -154 139 -396q0 -132 -39.5 -261t-114 -237.5t-173.5 -192t-225.5 -130.5t-262.5 -47zM688 1751h244l35 -287h-113z" />
    <glyph glyph-name="uni1EDD" unicode="&#x1edd;" horiz-adv-x="1132" 
d="M479 72q65 0 119 43.5t86.5 108t55 144.5t31.5 149t9 124q0 121 -39.5 185.5t-117.5 64.5q-65 0 -119 -43.5t-86.5 -108t-55 -144.5t-31.5 -149t-9 -124q0 -121 39.5 -185.5t117.5 -64.5zM1012 1174h164q-18 -89 -86.5 -164t-174.5 -111q138 -110 138 -313
q0 -161 -78.5 -300.5t-214.5 -222.5t-297 -83q-194 0 -304 108t-110 289q0 161 78.5 300.5t214.5 222.5t297 83q81 0 154 -20q88 7 146.5 67t72.5 144zM432 1362h244l35 -287h-113z" />
    <glyph glyph-name="uni1EDE" unicode="&#x1ede;" horiz-adv-x="1505" 
d="M662 51q94 0 174 41t135.5 110.5t98 156t66.5 183t36 185.5t12 170q0 195 -78 299t-225 104q-93 0 -172.5 -41.5t-135 -111.5t-98 -156.5t-67 -183.5t-36.5 -185.5t-12 -168.5q0 -193 77.5 -297.5t224.5 -104.5zM645 -41q-259 0 -411 156.5t-152 408.5q0 132 39.5 261
t114 238t173.5 192.5t225.5 130.5t262.5 47q194 0 336 -95q96 0 161.5 72t84.5 168h163q-20 -102 -106.5 -194t-214.5 -121q139 -154 139 -396q0 -132 -39.5 -261t-114 -237.5t-173.5 -192t-225.5 -130.5t-262.5 -47zM1028 1456h-106q15 63 63 111q41 48 41 90q0 49 -55 49
q-38 0 -62 -23t-47 -84l-112 3q12 105 75.5 168t169.5 63q84 0 127 -36t43 -103q0 -47 -12 -70.5t-51 -60.5q-38 -37 -52.5 -57t-21.5 -50z" />
    <glyph glyph-name="uni1EDF" unicode="&#x1edf;" horiz-adv-x="1132" 
d="M479 72q65 0 119 43.5t86.5 108t55 144.5t31.5 149t9 124q0 121 -39.5 185.5t-117.5 64.5q-65 0 -119 -43.5t-86.5 -108t-55 -144.5t-31.5 -149t-9 -124q0 -121 39.5 -185.5t117.5 -64.5zM1012 1174h164q-18 -89 -86.5 -164t-174.5 -111q138 -110 138 -313
q0 -161 -78.5 -300.5t-214.5 -222.5t-297 -83q-194 0 -304 108t-110 289q0 161 78.5 300.5t214.5 222.5t297 83q81 0 154 -20q88 7 146.5 67t72.5 144zM772 1067h-106q15 63 63 111q41 48 41 90q0 49 -55 49q-38 0 -62 -23t-47 -84l-112 2q12 105 76 168.5t169 63.5
q84 0 127 -36t43 -103q0 -47 -12 -70.5t-51 -60.5q-26 -26 -37 -38.5t-21.5 -30t-15.5 -38.5z" />
    <glyph glyph-name="uni1EE0" unicode="&#x1ee0;" horiz-adv-x="1505" 
d="M662 51q94 0 174 41t135.5 110.5t98 156t66.5 183t36 185.5t12 170q0 195 -78 299t-225 104q-93 0 -172.5 -41.5t-135 -111.5t-98 -156.5t-67 -183.5t-36.5 -185.5t-12 -168.5q0 -193 77.5 -297.5t224.5 -104.5zM645 -41q-259 0 -411 156.5t-152 408.5q0 132 39.5 261
t114 238t173.5 192.5t225.5 130.5t262.5 47q194 0 336 -95q96 0 161.5 72t84.5 168h163q-20 -102 -106.5 -194t-214.5 -121q139 -154 139 -396q0 -132 -39.5 -261t-114 -237.5t-173.5 -192t-225.5 -130.5t-262.5 -47zM760 1536h-82q23 112 64.5 158.5t111.5 46.5
q33 0 54.5 -10.5t54.5 -38.5q39 -33 65 -33q32 0 56.5 24.5t29.5 57.5h82q-23 -113 -64 -159t-110 -46q-56 0 -111 49q-11 11 -31 22t-34 11q-31 0 -55.5 -24.5t-30.5 -57.5z" />
    <glyph glyph-name="uni1EE1" unicode="&#x1ee1;" horiz-adv-x="1132" 
d="M479 72q65 0 119 43.5t86.5 108t55 144.5t31.5 149t9 124q0 121 -39.5 185.5t-117.5 64.5q-65 0 -119 -43.5t-86.5 -108t-55 -144.5t-31.5 -149t-9 -124q0 -121 39.5 -185.5t117.5 -64.5zM1012 1174h164q-18 -89 -86.5 -164t-174.5 -111q138 -110 138 -313
q0 -161 -78.5 -300.5t-214.5 -222.5t-297 -83q-194 0 -304 108t-110 289q0 161 78.5 300.5t214.5 222.5t297 83q81 0 154 -20q88 7 146.5 67t72.5 144zM504 1147h-82q23 112 64.5 158.5t111.5 46.5q33 0 54.5 -10.5t54.5 -38.5q39 -33 65 -33q32 0 56.5 24.5t29.5 57.5h82
q-23 -113 -64 -159t-110 -46q-56 0 -111 49q-11 11 -31 22t-34 11q-31 0 -55.5 -24.5t-30.5 -57.5z" />
    <glyph glyph-name="uni1EE2" unicode="&#x1ee2;" horiz-adv-x="1505" 
d="M662 51q94 0 174 41t135.5 110.5t98 156t66.5 183t36 185.5t12 170q0 195 -78 299t-225 104q-93 0 -172.5 -41.5t-135 -111.5t-98 -156.5t-67 -183.5t-36.5 -185.5t-12 -168.5q0 -193 77.5 -297.5t224.5 -104.5zM645 -41q-259 0 -411 156.5t-152 408.5q0 132 39.5 261
t114 238t173.5 192.5t225.5 130.5t262.5 47q194 0 336 -95q96 0 161.5 72t84.5 168h163q-20 -102 -106.5 -194t-214.5 -121q139 -154 139 -396q0 -132 -39.5 -261t-114 -237.5t-173.5 -192t-225.5 -130.5t-262.5 -47zM608 -344q-41 0 -63.5 20.5t-22.5 57.5q0 55 34 92
t89 37q86 0 86 -80q0 -52 -35 -89.5t-88 -37.5z" />
    <glyph glyph-name="uni1EE3" unicode="&#x1ee3;" horiz-adv-x="1132" 
d="M479 72q65 0 119 43.5t86.5 108t55 144.5t31.5 149t9 124q0 121 -39.5 185.5t-117.5 64.5q-65 0 -119 -43.5t-86.5 -108t-55 -144.5t-31.5 -149t-9 -124q0 -121 39.5 -185.5t117.5 -64.5zM1012 1174h164q-18 -89 -86.5 -164t-174.5 -111q138 -110 138 -313
q0 -161 -78.5 -300.5t-214.5 -222.5t-297 -83q-194 0 -304 108t-110 289q0 161 78.5 300.5t214.5 222.5t297 83q81 0 154 -20q88 7 146.5 67t72.5 144zM422 -344q-41 0 -63.5 20.5t-22.5 57.5q0 55 34 92t89 37q86 0 86 -80q0 -52 -35 -89.5t-88 -37.5z" />
    <glyph glyph-name="uni1EE4" unicode="&#x1ee4;" horiz-adv-x="1427" 
d="M641 -20q-239 0 -352 102.5t-113 316.5q0 37 19 164q22 142 88 522q10 72 10 93q0 58 -27.5 85t-89.5 27l10 62h226q82 0 116.5 -31.5t34.5 -106.5q0 -69 -14 -129q-77 -455 -92 -559q-21 -126 -21 -170q0 -148 59 -221.5t185 -73.5q221 0 339.5 124.5t168.5 404.5
l135 762h102l-135 -762q-52 -309 -206 -459.5t-443 -150.5zM569 -344q-41 0 -63.5 20.5t-22.5 57.5q0 55 34 92t89 37q86 0 86 -80q0 -52 -35 -89.5t-88 -37.5z" />
    <glyph glyph-name="uni1EE5" unicode="&#x1ee5;" horiz-adv-x="1161" 
d="M420 -20q-167 0 -245.5 63t-78.5 201q0 15 17 127q27 181 53 325q10 72 10 92q0 58 -27.5 85.5t-89.5 27.5h-20l10 62h246q82 0 116.5 -31.5t34.5 -106.5q0 -69 -14 -129q-72 -436 -72 -463q0 -86 33.5 -123.5t104.5 -37.5q115 0 207 133l133 758h266l-168 -963h-174
l-57 92h-11q-53 -53 -125.5 -82.5t-148.5 -29.5zM436 -344q-41 0 -63.5 20.5t-22.5 57.5q0 55 34 92t89 37q86 0 86 -80q0 -52 -35 -89.5t-88 -37.5z" />
    <glyph glyph-name="uni1EE6" unicode="&#x1ee6;" horiz-adv-x="1427" 
d="M989 1456h-106q15 63 63 111q41 48 41 90q0 49 -55 49q-38 0 -62 -23t-47 -84l-112 3q12 105 75.5 168t169.5 63q84 0 127 -36t43 -103q0 -47 -12 -70.5t-51 -60.5q-38 -37 -52.5 -57t-21.5 -50zM641 -20q-239 0 -352 102.5t-113 316.5q0 37 19 164q22 142 88 522
q10 72 10 93q0 58 -27.5 85t-89.5 27l10 62h226q82 0 116.5 -31.5t34.5 -106.5q0 -69 -14 -129q-77 -455 -92 -559q-21 -126 -21 -170q0 -148 59 -221.5t185 -73.5q221 0 339.5 124.5t168.5 404.5l135 762h102l-135 -762q-52 -309 -206 -459.5t-443 -150.5z" />
    <glyph glyph-name="uni1EE7" unicode="&#x1ee7;" horiz-adv-x="1161" 
d="M786 1067h-106q15 63 63 111q41 48 41 90q0 49 -55 49q-38 0 -61.5 -22.5t-46.5 -84.5l-113 2q12 105 76 168.5t170 63.5q84 0 127 -36t43 -103q0 -47 -12 -70t-52 -61q-26 -26 -37 -38.5t-21.5 -30t-15.5 -38.5zM420 -20q-167 0 -245.5 63t-78.5 201q0 15 17 127
q27 181 53 325q10 72 10 92q0 58 -27.5 85.5t-89.5 27.5h-20l10 62h246q82 0 116.5 -31.5t34.5 -106.5q0 -69 -14 -129q-72 -436 -72 -463q0 -86 33.5 -123.5t104.5 -37.5q115 0 207 133l133 758h266l-168 -963h-174l-57 92h-11q-53 -53 -125.5 -82.5t-148.5 -29.5z" />
    <glyph glyph-name="uni1EE8" unicode="&#x1ee8;" horiz-adv-x="1427" 
d="M934 1464h-113l137 287h244zM1589 1563h164q-21 -107 -112.5 -190t-229.5 -105l-121 -678q-52 -309 -206 -459.5t-443 -150.5q-239 0 -352 102.5t-113 316.5q0 37 19 164q22 142 88 522q10 72 10 93q0 58 -27.5 85t-89.5 27l10 62h226q82 0 116.5 -31.5t34.5 -106.5
q0 -69 -14 -129q-77 -455 -92 -559q-21 -126 -21 -170q0 -148 59 -221.5t185 -73.5q221 0 339.5 124.5t168.5 404.5l135 762h53q85 12 142 71t71 140z" />
    <glyph glyph-name="uni1EE9" unicode="&#x1ee9;" horiz-adv-x="1161" 
d="M731 1075h-113l138 287h243zM1253 1174h164q-20 -104 -107.5 -186.5t-219.5 -106.5l-154 -881h-174l-57 92h-11q-53 -53 -125.5 -82.5t-148.5 -29.5q-167 0 -245.5 63t-78.5 201q0 15 17 127q27 181 53 325q10 72 10 92q0 58 -27.5 85.5t-89.5 27.5h-20l10 62h246
q82 0 116.5 -31.5t34.5 -106.5q0 -69 -14 -129q-72 -436 -72 -463q0 -86 33.5 -123.5t104.5 -37.5q115 0 207 133l133 758h202q85 12 142 71t71 140z" />
    <glyph glyph-name="uni1EEA" unicode="&#x1eea;" horiz-adv-x="1427" 
d="M928 1464h-113l-166 287h244zM1589 1563h164q-21 -107 -112.5 -190t-229.5 -105l-121 -678q-52 -309 -206 -459.5t-443 -150.5q-239 0 -352 102.5t-113 316.5q0 37 19 164q22 142 88 522q10 72 10 93q0 58 -27.5 85t-89.5 27l10 62h226q82 0 116.5 -31.5t34.5 -106.5
q0 -69 -14 -129q-77 -455 -92 -559q-21 -126 -21 -170q0 -148 59 -221.5t185 -73.5q221 0 339.5 124.5t168.5 404.5l135 762h53q85 12 142 71t71 140z" />
    <glyph glyph-name="uni1EEB" unicode="&#x1eeb;" horiz-adv-x="1161" 
d="M725 1075h-113l-166 287h244zM1253 1174h164q-20 -104 -107.5 -186.5t-219.5 -106.5l-154 -881h-174l-57 92h-11q-53 -53 -125.5 -82.5t-148.5 -29.5q-167 0 -245.5 63t-78.5 201q0 15 17 127q27 181 53 325q10 72 10 92q0 58 -27.5 85.5t-89.5 27.5h-20l10 62h246
q82 0 116.5 -31.5t34.5 -106.5q0 -69 -14 -129q-72 -436 -72 -463q0 -86 33.5 -123.5t104.5 -37.5q115 0 207 133l133 758h202q85 12 142 71t71 140z" />
    <glyph glyph-name="uni1EEC" unicode="&#x1eec;" horiz-adv-x="1427" 
d="M989 1456h-106q15 63 63 111q41 48 41 90q0 49 -55 49q-38 0 -62 -23t-47 -84l-112 3q12 105 75.5 168t169.5 63q84 0 127 -36t43 -103q0 -47 -12 -70.5t-51 -60.5q-38 -37 -52.5 -57t-21.5 -50zM1589 1563h164q-21 -107 -112.5 -190t-229.5 -105l-121 -678
q-52 -309 -206 -459.5t-443 -150.5q-239 0 -352 102.5t-113 316.5q0 37 19 164q22 142 88 522q10 72 10 93q0 58 -27.5 85t-89.5 27l10 62h226q82 0 116.5 -31.5t34.5 -106.5q0 -69 -14 -129q-77 -455 -92 -559q-21 -126 -21 -170q0 -148 59 -221.5t185 -73.5
q221 0 339.5 124.5t168.5 404.5l135 762h53q85 12 142 71t71 140z" />
    </font>
</defs>
</svg>
