<svg width="282" height="88" viewBox="0 0 282 88" fill="none" xmlns="http://www.w3.org/2000/svg">
<path d="M214.843 40.5457C214.38 39.8246 213.807 39.18 213.145 38.635C211.081 36.7971 208.586 35.5096 205.892 34.8918C205.798 34.871 205.716 34.8166 205.66 34.7388C205.605 34.6611 205.58 34.5655 205.59 34.4705C205.874 31.929 205.554 29.3564 204.654 26.9624C204.247 27.1534 203.853 27.3711 203.474 27.6141L203.438 27.6369C204.348 30.1638 204.555 32.89 204.039 35.5254C204.028 35.5797 204.029 35.6355 204.041 35.6893C204.053 35.7432 204.076 35.7941 204.108 35.839C204.141 35.8838 204.181 35.9217 204.229 35.9503C204.276 35.9789 204.328 35.9977 204.383 36.0055C208.004 36.5296 211.309 38.3553 213.681 41.1409C211.633 42.915 209.198 44.185 206.571 44.8494C206.481 44.8713 206.401 44.9242 206.345 44.9987C206.29 45.0732 206.262 45.1647 206.267 45.2574C206.42 48.3823 205.72 51.4898 204.243 54.2478C213.172 57.4389 219.913 48.367 214.843 40.5421" fill="#D1E7BE"/>
<path d="M204.332 24.7778C201.194 26.1568 198.562 28.4752 196.797 31.4134C196.749 31.4961 196.673 31.5583 196.582 31.588C196.491 31.6176 196.393 31.6127 196.305 31.5742C193.986 30.5254 191.454 30.0346 188.911 30.1412C188.954 30.5916 189.026 31.0387 189.128 31.4794L189.136 31.5106C191.821 31.4246 194.479 32.0705 196.825 33.3792C196.874 33.4063 196.927 33.4232 196.983 33.4288C197.038 33.4344 197.094 33.4285 197.148 33.4117C197.201 33.3948 197.25 33.3673 197.292 33.3307C197.334 33.2942 197.368 33.2494 197.393 33.1992C199.006 29.92 201.754 27.3375 205.128 25.9311L205.316 26.3944C206.253 28.7631 206.647 31.312 206.469 33.8533C206.463 33.9455 206.489 34.0372 206.542 34.1125C206.596 34.1878 206.674 34.2421 206.763 34.2661C209.152 34.9141 211.372 36.0725 213.269 37.6613C213.749 38.0802 214.222 38.5086 214.669 38.9731C215.863 37.4036 216.52 35.4906 216.541 33.5182C216.561 31.5458 215.945 29.6194 214.783 28.0253C213.622 26.4311 211.977 25.2543 210.093 24.6696C208.209 24.085 206.187 24.1237 204.327 24.7802" fill="#D1E7BE"/>
<path d="M202.234 51.658L202.255 51.6076C202.135 51.5295 202.025 51.4528 201.912 51.3676C199.851 49.8712 198.206 47.8735 197.133 45.5636C197.109 45.5136 197.076 45.4688 197.034 45.4321C196.993 45.3953 196.945 45.3674 196.892 45.3499C196.84 45.3324 196.784 45.3257 196.729 45.3303C196.674 45.3348 196.62 45.3505 196.571 45.3764C193.339 47.0896 189.591 47.5593 186.036 46.6966C186.651 44.0562 187.872 41.5956 189.604 39.5101C189.663 39.4385 189.696 39.3485 189.696 39.2557C189.696 39.1628 189.663 39.0728 189.604 39.0012C187.643 36.5591 186.386 33.6277 185.969 30.5234V30.4922C185.049 30.7477 184.176 31.1497 183.384 31.6827C174.783 37.345 179.719 48.9936 189.555 48.4944C191.771 48.4958 193.965 48.0466 196.002 47.1742C196.091 47.135 196.192 47.13 196.284 47.1602C196.377 47.1903 196.455 47.2534 196.504 47.3375C197.761 49.5464 199.517 51.4307 201.632 52.8401C201.858 52.459 202.058 52.0637 202.232 51.6568" fill="#D1E7BE"/>
<path d="M211.562 40.069L211.538 40.0498C209.417 41.6953 206.89 42.7359 204.225 43.061C204.17 43.0678 204.116 43.0858 204.068 43.114C204.02 43.1421 203.978 43.1799 203.945 43.2248C203.912 43.2698 203.889 43.321 203.876 43.3754C203.864 43.4298 203.862 43.4862 203.872 43.5411C204.51 47.1473 203.793 50.8619 201.858 53.9715L201.449 53.7075C199.306 52.343 197.496 50.5147 196.154 48.3573C196.105 48.279 196.031 48.2201 195.943 48.1908C195.855 48.1615 195.76 48.1635 195.674 48.1964C192.75 49.3061 189.579 49.5998 186.501 49.0461C186.049 57.8072 196.203 62.3425 202.179 55.6721C204.781 52.8566 205.724 48.3944 205.401 44.6404C205.395 44.5429 205.423 44.4463 205.481 44.3679C205.54 44.2896 205.624 44.2347 205.719 44.2131C208.219 43.6924 210.561 42.5943 212.56 41.0064C212.249 40.6742 211.916 40.363 211.564 40.075" fill="#D1E7BE"/>
<path d="M202.338 23.0078C196.268 16.3518 185.656 21.6048 186.782 30.3575V30.3635C187.208 33.564 188.565 36.5688 190.685 39.0045C190.749 39.0764 190.784 39.1693 190.784 39.2655C190.784 39.3618 190.749 39.4547 190.685 39.5266C188.976 41.4149 187.731 43.6747 187.046 46.1274C187.481 46.2252 187.922 46.2946 188.366 46.335H188.418C189.166 43.7503 190.601 41.4167 192.569 39.5818C192.609 39.5436 192.641 39.4976 192.662 39.4468C192.684 39.396 192.695 39.3412 192.695 39.2859C192.695 39.2306 192.684 39.1759 192.662 39.1251C192.641 39.0742 192.609 39.0283 192.569 38.9901C192.343 38.7709 192.126 38.5441 191.916 38.3096C189.677 35.8365 188.319 32.6911 188.056 29.3649C190.757 29.131 193.474 29.5338 195.991 30.5411C196.077 30.5767 196.173 30.581 196.262 30.5532C196.351 30.5253 196.427 30.4671 196.478 30.3887C198.19 27.7729 200.582 25.6721 203.397 24.3111C203.088 23.8435 202.736 23.4059 202.345 23.0042" fill="#D1E7BE"/>
<path d="M65.4167 66.4469V30.8025C65.4167 30.3906 65.5803 29.9956 65.8716 29.7044C66.1628 29.4131 66.5578 29.2495 66.9697 29.2495H82.6316C90.4914 29.2495 94.0894 33.57 94.0894 38.5495C94.0894 43.1172 91.7971 46.504 87.4598 47.5722C87.4476 47.574 87.4365 47.5802 87.4285 47.5896C87.4205 47.5989 87.416 47.6108 87.416 47.6231C87.416 47.6355 87.4205 47.6474 87.4285 47.6568C87.4365 47.6661 87.4476 47.6723 87.4598 47.6742C89.7166 48.1039 91.7482 49.3191 93.1945 51.104C94.6407 52.889 95.408 55.1285 95.3604 57.4254C95.3604 63.2377 91.1526 67.9974 83.3493 67.9974H66.9673C66.5554 67.9974 66.1604 67.8338 65.8692 67.5426C65.5779 67.2513 65.4143 66.8563 65.4143 66.4444M80.8578 45.6351C85.6176 45.6351 87.2186 42.978 87.2186 39.8744C87.2186 36.7708 85.6128 34.505 80.7978 34.505H72.1075V45.6315L80.8578 45.6351ZM81.3559 62.7384C86.6701 62.7384 88.6623 60.0813 88.6623 56.5937C88.6623 53.106 86.5021 50.2329 81.3559 50.2329H72.1147V62.742L81.3559 62.7384Z" fill="#D1E7BE"/>
<path d="M97.8335 66.4467V29.2529H102.979C103.39 29.2529 103.785 29.4165 104.077 29.7078C104.368 29.999 104.532 30.394 104.532 30.8059V67.9997H99.3865C98.9746 67.9997 98.5796 67.8361 98.2883 67.5448C97.9971 67.2536 97.8335 66.8585 97.8335 66.4467Z" fill="#D1E7BE"/>
<path d="M108.307 67.9997V30.8059C108.307 30.394 108.47 29.999 108.761 29.7078C109.053 29.4165 109.448 29.2529 109.86 29.2529H124.581C134.82 29.2529 141.187 36.5594 141.187 48.4553C141.187 60.3007 135.098 67.9949 124.858 67.9949L108.307 67.9997ZM123.418 62.7418C130.619 62.7418 134.212 57.9256 134.212 48.5717C134.212 39.1061 130.448 34.512 123.252 34.512H115.011V62.7418H123.418Z" fill="#D1E7BE"/>
<path d="M162.029 67.9998H156.164C153.603 67.9998 152.597 67.1837 151.759 64.8578L139.501 29.2531H145.078C145.563 29.2649 146.034 29.4228 146.428 29.7064C146.822 29.9899 147.121 30.3857 147.286 30.8421L156.605 58.6447C156.938 59.7512 157.27 60.9693 157.546 62.2451C157.775 61.0244 158.09 59.8213 158.487 58.6447L167.241 32.6747C167.507 31.687 168.093 30.8154 168.908 30.1962C169.722 29.5771 170.719 29.2454 171.742 29.2531H178.427C178.472 29.2551 178.515 29.2713 178.55 29.2993C178.585 29.3273 178.611 29.3657 178.623 29.4091C178.761 29.9251 178.389 30.2492 177.948 30.5504C177.291 31.0005 176.839 31.2045 176.235 31.6581C174.717 32.9899 173.587 34.7064 172.963 36.6268C172.662 37.3828 172.393 38.1581 172.123 38.9286L162.029 67.9998Z" fill="#D1E7BE"/>
</svg>
