<svg width="90" height="24" viewBox="0 0 90 24" fill="none" xmlns="http://www.w3.org/2000/svg">
<g clip-path="url(#clip0_985_2351)">
<path d="M35.794 10.3093C35.7438 10.2737 35.6851 10.2436 35.6209 10.219C35.6991 10.1834 35.7633 10.1342 35.8107 10.0712C35.8778 9.98093 35.9113 9.87148 35.9113 9.73741C35.9113 9.61697 35.8834 9.51298 35.8275 9.42541C35.7717 9.33784 35.6879 9.2722 35.5819 9.22565C35.473 9.17916 35.3417 9.15723 35.1826 9.15723H34.1609V11.4997H35.2161C35.339 11.4997 35.4506 11.486 35.5512 11.4531C35.6516 11.423 35.7382 11.3793 35.8107 11.3218C35.8834 11.2643 35.942 11.1905 35.9782 11.1029C36.0174 11.0153 36.0341 10.9141 36.0341 10.7964C36.0341 10.6924 36.0118 10.5966 35.9699 10.5146C35.9308 10.4352 35.8694 10.3668 35.794 10.3093ZM34.6438 9.59509H35.0905C35.1994 9.59509 35.2831 9.61697 35.3362 9.66078C35.3892 9.70454 35.4171 9.77023 35.4171 9.85233C35.4171 9.9043 35.406 9.94811 35.3809 9.9864C35.3585 10.0247 35.3222 10.0548 35.2776 10.0767C35.2329 10.0986 35.1798 10.1095 35.1184 10.1095H34.6411V9.59509H34.6438ZM35.4953 10.936C35.4674 10.9797 35.4311 11.0126 35.378 11.0345C35.3278 11.0564 35.2664 11.0673 35.1938 11.0673H34.6438V10.5091H35.1798C35.2552 10.5091 35.3166 10.52 35.3697 10.5419C35.4227 10.5638 35.4646 10.5939 35.4925 10.635C35.5204 10.676 35.5371 10.7253 35.5371 10.7827C35.5344 10.8402 35.5232 10.8922 35.4953 10.936Z" fill="#16315E"/>
<path d="M37.7905 10.571C37.7905 10.6641 37.7681 10.7489 37.7262 10.8227C37.6816 10.8966 37.623 10.9569 37.5476 11.0006C37.4722 11.0444 37.3884 11.0663 37.2963 11.0663C37.207 11.0663 37.1261 11.0444 37.0534 11.0006C36.9809 10.9569 36.9222 10.8966 36.8804 10.8227C36.8385 10.7489 36.8162 10.6641 36.8162 10.571V9.15625H36.3081V10.6011C36.3081 10.7762 36.35 10.9349 36.4365 11.0745C36.523 11.2141 36.6375 11.3235 36.7882 11.4029C36.9362 11.4822 37.1065 11.5206 37.2963 11.5206C37.4834 11.5206 37.6537 11.4822 37.8044 11.4029C37.9552 11.3235 38.0724 11.2141 38.1562 11.0745C38.2399 10.9349 38.2818 10.7762 38.2818 10.6011V9.15625H37.7905V10.571Z" fill="#16315E"/>
<path d="M38.6475 9.58878H39.0411V11.0692H38.6475V11.5016H39.9372V11.0692H39.5463V9.58878H39.9372V9.15918H38.6475V9.58878Z" fill="#16315E"/>
<path d="M40.8248 9.15918H40.3223V11.5016H41.8912V11.05H40.8248V9.15918Z" fill="#16315E"/>
<path d="M43.9902 9.4848C43.8869 9.38082 43.7669 9.30145 43.6273 9.24396C43.4877 9.18653 43.3314 9.15918 43.1583 9.15918H42.1924V11.5016H43.1583C43.3314 11.5016 43.4877 11.4742 43.6301 11.4167C43.7725 11.3593 43.8925 11.2799 43.993 11.176C44.0935 11.0719 44.1717 10.9488 44.2247 10.8038C44.2778 10.6587 44.3057 10.5028 44.3057 10.3304C44.3057 10.1552 44.2778 9.99924 44.2247 9.85423C44.1689 9.71191 44.0907 9.58878 43.9902 9.4848ZM43.7501 10.6286C43.7222 10.719 43.6775 10.7929 43.6217 10.8558C43.5659 10.916 43.4961 10.9652 43.4152 11.0008C43.3342 11.0364 43.2449 11.0528 43.1416 11.0528H42.6977V9.61339H43.1416C43.2421 9.61339 43.3342 9.6298 43.4152 9.66541C43.4961 9.70097 43.5659 9.74751 43.6217 9.81042C43.6775 9.87337 43.7222 9.94727 43.7501 10.0376C43.7781 10.1252 43.7948 10.2237 43.7948 10.3331C43.792 10.4398 43.7781 10.5383 43.7501 10.6286Z" fill="#16315E"/>
<path d="M44.4849 9.58878H44.8785V11.0692H44.4849V11.5016H45.7746V11.0692H45.3838V9.58878H45.7746V9.15918H44.4849V9.58878Z" fill="#16315E"/>
<path d="M47.7506 9.79641C47.7506 9.89219 47.7506 9.9797 47.7534 10.0618C47.7562 10.1439 47.7589 10.2205 47.7617 10.2917C47.7645 10.3655 47.7701 10.434 47.7757 10.5024C47.7813 10.5708 47.7869 10.6365 47.7952 10.7022C47.798 10.7186 47.8008 10.7377 47.8008 10.7542L46.6116 9.15332H46.1621V11.4957H46.6562V10.6529C46.6562 10.6091 46.6562 10.5654 46.6534 10.527C46.6534 10.486 46.6506 10.4449 46.6479 10.4012C46.6451 10.3573 46.6423 10.3054 46.6367 10.2452C46.6311 10.185 46.6255 10.1138 46.6172 10.0317C46.6144 9.9989 46.6116 9.96329 46.606 9.92774L47.7869 11.5012H48.2447V9.15879H47.7506V9.79641Z" fill="#16315E"/>
<path d="M52.2341 9.15918H52.0024V11.5016H52.5077V10.5712H53.4513V10.1388H52.5077V9.61066H53.5909V9.15918H52.5077H52.2341Z" fill="#16315E"/>
<path d="M55.3608 10.571C55.3608 10.6641 55.3385 10.7489 55.2966 10.8227C55.2519 10.8966 55.1933 10.9569 55.1179 11.0006C55.0425 11.0444 54.9588 11.0663 54.8667 11.0663C54.7774 11.0663 54.6964 11.0444 54.6238 11.0006C54.5512 10.9569 54.4926 10.8966 54.4507 10.8227C54.4088 10.7489 54.3865 10.6641 54.3865 10.571V9.15625H53.8784V10.6011C53.8784 10.7762 53.9203 10.9349 54.0068 11.0745C54.0934 11.2141 54.2078 11.3235 54.3586 11.4029C54.5065 11.4822 54.6768 11.5206 54.8667 11.5206C55.0537 11.5206 55.224 11.4822 55.3747 11.4029C55.5255 11.3235 55.6428 11.2141 55.7265 11.0745C55.8102 10.9349 55.8519 10.7762 55.8519 10.6011V9.15625H55.3608V10.571Z" fill="#16315E"/>
<path d="M56.0813 9.61066H56.7678V11.5016H57.2729V9.61066H57.9767V9.15918H56.0813V9.61066Z" fill="#16315E"/>
<path d="M59.6902 10.571C59.6902 10.6641 59.6679 10.7489 59.626 10.8227C59.5813 10.8966 59.5227 10.9569 59.4474 11.0006C59.372 11.0444 59.2883 11.0663 59.1962 11.0663C59.1069 11.0663 59.026 11.0444 58.9534 11.0006C58.8803 10.9569 58.8217 10.8966 58.7799 10.8227C58.738 10.7489 58.7157 10.6641 58.7157 10.571V9.15625H58.2078V10.6011C58.2078 10.7762 58.2496 10.9349 58.3361 11.0745C58.4226 11.2141 58.5371 11.3235 58.6878 11.4029C58.8357 11.4822 59.0065 11.5206 59.1962 11.5206C59.3832 11.5206 59.5534 11.4822 59.7041 11.4029C59.8548 11.3235 59.972 11.2141 60.0558 11.0745C60.1395 10.9349 60.1813 10.7762 60.1813 10.6011V9.15625H59.6902V10.571Z" fill="#16315E"/>
<path d="M62.0467 10.5602C62.1667 10.4945 62.2587 10.4015 62.3285 10.2866C62.3955 10.1716 62.4318 10.043 62.4318 9.90346C62.4318 9.76119 62.3983 9.63254 62.3285 9.52309C62.2615 9.4109 62.1667 9.32333 62.0467 9.25769C61.9267 9.192 61.7955 9.15918 61.6498 9.15918H60.6089V11.5016H61.0973V10.6615H61.4684L61.9434 11.5016L62.5267 11.5043L61.9936 10.5876C62.0132 10.5766 62.0299 10.5712 62.0467 10.5602ZM61.0973 9.59425H61.5633C61.6359 9.59425 61.7028 9.60792 61.7592 9.63533C61.815 9.66268 61.8569 9.70097 61.8876 9.75025C61.9155 9.79948 61.9322 9.85697 61.9322 9.92539C61.9322 9.9883 61.9211 10.043 61.896 10.095C61.8708 10.147 61.8374 10.1853 61.7899 10.2127C61.7447 10.2401 61.6889 10.2537 61.6303 10.2537H61.1V9.59425H61.0973Z" fill="#16315E"/>
<path d="M63.2918 10.5192H64.2245V10.0923H63.2918V9.59972H64.3863V9.15918H62.7979V11.5016H64.4114V11.0582H63.2918V10.5192Z" fill="#16315E"/>
<path d="M66.374 10.5243C66.3349 10.4477 66.2819 10.3793 66.2121 10.3245C66.1423 10.2671 66.0558 10.2178 65.9582 10.1795C65.8605 10.1384 65.7489 10.1056 65.6261 10.0837C65.5619 10.0701 65.5005 10.0537 65.4475 10.0372C65.3939 10.0181 65.3464 9.99891 65.3102 9.97429C65.2711 9.94963 65.2432 9.92228 65.2236 9.89219C65.2041 9.86211 65.193 9.8265 65.193 9.78548C65.193 9.73619 65.2069 9.69243 65.2376 9.65683C65.2683 9.62127 65.3102 9.59119 65.3632 9.57199C65.4162 9.55284 65.481 9.54464 65.5563 9.54464C65.6233 9.54464 65.6903 9.55558 65.7516 9.57751C65.8158 9.59939 65.8744 9.62948 65.9303 9.67329C65.9861 9.71431 66.0363 9.76907 66.0837 9.82923L66.3628 9.46254C66.3014 9.38043 66.2819 9.36129 66.2037 9.29839C66.1228 9.23816 66.0307 9.19167 65.9219 9.1588C65.8158 9.12871 65.6903 9.1123 65.5451 9.1123C65.4274 9.1123 65.3185 9.12871 65.2125 9.16153C65.1092 9.19441 65.0171 9.24363 64.9362 9.30659C64.8553 9.36949 64.7939 9.44339 64.7492 9.52823C64.7046 9.61307 64.6823 9.70611 64.6823 9.80736C64.6823 9.90587 64.6962 9.99344 64.7269 10.0728C64.7576 10.1522 64.8023 10.2205 64.8664 10.2808C64.9278 10.3409 65.0088 10.393 65.1009 10.434C65.1957 10.4751 65.3046 10.5106 65.4302 10.5408C65.4893 10.549 65.5423 10.5626 65.5926 10.5763C65.6428 10.59 65.6875 10.6064 65.7265 10.6255C65.7656 10.6447 65.8019 10.6666 65.8298 10.6885C65.8577 10.7131 65.88 10.7378 65.8968 10.7679C65.9135 10.7979 65.9191 10.8308 65.9191 10.8664C65.9191 10.9156 65.9023 10.9567 65.8716 10.9922C65.8409 11.0278 65.7963 11.0552 65.7433 11.0743C65.6875 11.0935 65.6261 11.1044 65.5563 11.1044C65.4274 11.1044 65.3102 11.0771 65.2013 11.0224C65.0925 10.9676 64.9836 10.8636 64.8748 10.7131L64.5818 11.1017C64.6543 11.2002 64.7157 11.2549 64.8078 11.3234C64.8999 11.3917 65.006 11.4438 65.126 11.4793C65.246 11.5149 65.3771 11.5341 65.5256 11.5341C65.7042 11.5341 65.8605 11.504 65.9972 11.4465C66.1312 11.3863 66.2372 11.3014 66.3126 11.1893C66.3879 11.0771 66.427 10.943 66.427 10.7843C66.4298 10.6885 66.4103 10.6009 66.374 10.5243Z" fill="#16315E"/>
<path d="M50.5402 10.2423H49.792V10.6692H50.4676C50.3448 10.9182 50.088 11.0878 49.792 11.0878C49.3761 11.0878 49.0383 10.7513 49.0383 10.3381C49.0383 9.92481 49.3761 9.58826 49.792 9.58826C50.0796 9.58826 50.3308 9.74973 50.4565 9.98504C50.4592 9.98777 50.4592 9.99324 50.462 9.99598L50.7412 9.63475C50.5206 9.32554 50.1605 9.12305 49.7502 9.12305C49.0802 9.12305 48.5386 9.66215 48.5386 10.3299C48.5386 10.9948 49.0802 11.5366 49.7502 11.5366C50.4202 11.5366 50.9617 10.9976 50.9617 10.3299C50.9617 10.3052 50.9617 10.2724 50.9589 10.2478L50.5402 10.2423Z" fill="#16315E"/>
<path d="M37.8492 13.7559C35.7303 13.7559 34.0051 15.4709 34.0051 17.5798C34.0051 19.6888 35.7303 21.4038 37.8492 21.4038C39.9681 21.4038 41.6933 19.6888 41.6933 17.5798C41.6933 15.4709 39.9681 13.7559 37.8492 13.7559ZM40.1467 17.5798C40.1467 18.8408 39.1166 19.8693 37.8492 19.8693C36.5818 19.8693 35.5517 18.8435 35.5517 17.5798C35.5517 16.3188 36.5818 15.2904 37.8492 15.2904C39.1166 15.2904 40.1467 16.3188 40.1467 17.5798Z" fill="#16315E"/>
<path d="M71.2174 13.7559C69.0987 13.7559 67.3735 15.4709 67.3735 17.5798C67.3735 19.6888 69.0987 21.4038 71.2174 21.4038C73.3367 21.4038 75.0619 19.6888 75.0619 17.5798C75.0619 15.4709 73.3367 13.7559 71.2174 13.7559ZM73.5153 17.5798C73.5153 18.8408 72.485 19.8693 71.2174 19.8693C69.9499 19.8693 68.9201 18.8435 68.9201 17.5798C68.9201 16.3188 69.9499 15.2904 71.2174 15.2904C72.485 15.2904 73.5153 16.3188 73.5153 17.5798Z" fill="#16315E"/>
<path d="M41.5759 15.3734H43.6446V21.3418H45.2665V15.3734H47.3965V13.8662H41.5759V15.3734Z" fill="#16315E"/>
<path d="M49.7692 18.2564H52.653V16.7875H49.7692V15.3542H53.1806V13.8662H48.1667V21.3418H53.2224V19.8538H49.7692V18.2564Z" fill="#16315E"/>
<path d="M77.448 18.6261V13.8447H75.8289V21.3477H77.275L80.8231 16.684V18.2404C80.8231 18.3006 80.8203 18.3553 80.8203 18.4127L80.8231 21.3532H82.1855L82.325 21.3477H82.4423V13.8447H81.0162L77.448 18.6261Z" fill="#10CFC9"/>
<path d="M17.8775 19.408C14.0809 19.408 11.0045 16.3444 11.0045 12.567C11.0045 8.78947 14.0809 5.72595 17.8775 5.72595C19.452 5.72595 20.9064 6.25384 22.0649 7.14284L24.7365 3.65256C22.8438 2.20557 20.4765 1.34668 17.9054 1.34668C11.8503 1.34668 6.91754 6.11436 6.6858 12.0828C1.68599 16.7137 -1.06657 21.3419 0.948998 23.2894C1.9847 24.2906 6.16936 23.6833 9.4635 22.3047C9.64774 22.2281 9.53326 21.9847 9.33507 22.012C6.63836 22.4004 4.3213 22.1187 3.55639 21.1121C2.42856 19.6295 3.71272 16.5606 6.68859 13.0265C6.95382 18.9622 11.8755 23.6942 17.9054 23.6942C20.4765 23.6942 22.8438 22.8354 24.7365 21.3883L22.0984 17.961C20.9343 18.8691 19.4716 19.408 17.8775 19.408Z" fill="#16315E"/>
<path d="M20.9537 16.1828C20.8393 16.2594 20.7164 16.098 20.8225 16.0077C25.2612 12.1701 30.8501 7.41878 30.0322 3.75621C29.5799 1.73207 26.2104 1.58163 24.421 1.93722C24.125 1.9974 24.1195 1.78405 24.3931 1.65822C27.5085 0.235855 32.3129 -0.404211 33.343 1.25887C35.085 4.07077 28.427 11.2893 20.9537 16.1828Z" fill="#16315E"/>
<path d="M32.8123 19.0465C32.374 19.569 31.7319 19.8672 31.048 19.8672C30.7967 19.8672 30.5567 19.8262 30.3305 19.7523C29.4149 19.4514 28.7505 18.5898 28.7505 17.5777C28.7505 16.5711 29.4065 15.715 30.3138 15.4086C30.5455 15.332 30.7911 15.2883 31.048 15.2883C31.7375 15.2883 32.3852 15.5918 32.8234 16.1225L32.9351 16.2565L33.8815 14.9874L33.82 14.9245C33.0887 14.1667 32.1032 13.751 31.048 13.751C30.445 13.751 29.8755 13.8905 29.3674 14.1367C28.0888 14.7576 27.2039 16.0651 27.2039 17.575C27.2039 19.0904 28.0944 20.4005 29.3814 21.0187C29.8867 21.2622 30.4506 21.3962 31.048 21.3962C32.0948 21.3962 33.0747 20.9832 33.8061 20.2364L33.8675 20.1735L32.924 18.9071L32.8123 19.0465Z" fill="#16315E"/>
<path d="M59.4172 19.0465C58.9785 19.569 58.3367 19.8672 57.6529 19.8672C57.4012 19.8672 57.1612 19.8262 56.9352 19.7523C56.0198 19.4514 55.3552 18.5898 55.3552 17.5777C55.3552 16.5711 56.0115 15.715 56.9184 15.4086C57.1501 15.332 57.3956 15.2883 57.6529 15.2883C58.3422 15.2883 58.9897 15.5918 59.4284 16.1225L59.54 16.2565L60.4861 14.9874L60.4247 14.9245C59.6935 14.1667 58.7078 13.751 57.6529 13.751C57.0496 13.751 56.4803 13.8905 55.9724 14.1367C54.6936 14.7576 53.8086 16.0651 53.8086 17.575C53.8086 19.0904 54.6992 20.4005 55.9863 21.0187C56.4915 21.2622 57.0552 21.3962 57.6529 21.3962C58.6995 21.3962 59.6795 20.9832 60.4107 20.2364L60.4721 20.1735L59.5289 18.9071L59.4172 19.0465Z" fill="#16315E"/>
<path d="M66.2144 19.0465C65.7762 19.569 65.1344 19.8672 64.4501 19.8672C64.1989 19.8672 63.9589 19.8262 63.7329 19.7523C62.817 19.4514 62.1528 18.5898 62.1528 17.5777C62.1528 16.5711 62.8086 15.715 63.7162 15.4086C63.9478 15.332 64.1934 15.2883 64.4501 15.2883C65.14 15.2883 65.7874 15.5918 66.2256 16.1225L66.3372 16.2565L67.2838 14.9874L67.2224 14.9245C66.4907 14.1667 65.5056 13.751 64.4501 13.751C63.8473 13.751 63.278 13.8905 62.7695 14.1367C61.4909 14.7576 60.6062 16.0651 60.6062 17.575C60.6062 19.0904 61.4964 20.4005 62.7835 21.0187C63.2892 21.2622 63.8529 21.3962 64.4501 21.3962C65.4972 21.3962 66.4767 20.9832 67.2084 20.2364L67.2698 20.1735L66.326 18.9071L66.2144 19.0465Z" fill="#16315E"/>
<path d="M88.8721 18.1906C88.7465 17.9389 88.5679 17.7174 88.3391 17.5341C88.1158 17.3536 87.8423 17.1977 87.532 17.0719C87.479 17.05 87.426 17.0308 87.3701 17.009C87.105 16.9132 86.8092 16.8311 86.4939 16.7682C86.3013 16.73 86.1255 16.6835 85.9664 16.6287C85.8821 16.6014 85.804 16.5685 85.7314 16.5357C85.6756 16.5084 85.6226 16.481 85.5752 16.4537C85.4775 16.3935 85.4021 16.3251 85.3519 16.2458C85.3045 16.1719 85.2821 16.0899 85.2821 15.9942C85.2821 15.8765 85.3184 15.7753 85.3882 15.6878C85.4635 15.5975 85.5724 15.5264 85.7091 15.4772C85.857 15.4252 86.039 15.3978 86.2455 15.3978C86.3487 15.3978 86.4548 15.4088 86.5553 15.4252C86.6362 15.4389 86.7199 15.4607 86.7981 15.4854C86.9767 15.5455 87.1441 15.6358 87.2976 15.7534C87.4539 15.8738 87.6018 16.027 87.7363 16.2047L87.8479 16.3525L88.8609 14.993L88.8107 14.9246C88.6154 14.662 88.5484 14.5937 88.2972 14.4022C88.0935 14.2463 87.8591 14.1177 87.5962 14.022C87.532 13.9974 87.465 13.9755 87.3953 13.9563C87.0576 13.8578 86.6585 13.8086 86.2092 13.8086C85.8403 13.8086 85.4887 13.8633 85.1566 13.9673C84.8245 14.0739 84.5287 14.2299 84.2741 14.4295C84.0174 14.632 83.8137 14.8726 83.6686 15.1516C83.5234 15.4307 83.4481 15.737 83.4481 16.0653C83.4481 16.3798 83.4983 16.6671 83.596 16.9187C83.6937 17.1731 83.8472 17.4028 84.0537 17.6025C84.2127 17.7584 84.4031 17.8924 84.6235 18.01C84.6849 18.0429 84.7463 18.073 84.8105 18.1004C85.1035 18.2289 85.4496 18.341 85.8375 18.4286L85.8487 18.4313C85.9887 18.4532 86.1171 18.4806 86.2371 18.5106C86.265 18.5188 86.2929 18.5243 86.3208 18.5325C86.4632 18.5735 86.5943 18.6228 86.7087 18.6775C86.8204 18.7294 86.918 18.7897 86.9962 18.8526C87.0687 18.9127 87.1274 18.9784 87.1636 19.0522C87.2027 19.1261 87.2194 19.2027 87.2194 19.2902C87.2194 19.4051 87.1832 19.5008 87.1106 19.5801C87.0297 19.6677 86.9181 19.7388 86.7729 19.7935C86.6222 19.8482 86.4492 19.8756 86.2539 19.8756C85.9324 19.8756 85.6282 19.8127 85.3491 19.6923C85.3128 19.6759 85.2738 19.6595 85.2375 19.6403C84.9277 19.4844 84.6096 19.1835 84.2909 18.7404L84.1821 18.59L83.1216 20.0123L83.1718 20.0807C83.4118 20.398 83.61 20.5731 83.8918 20.7837C84.0286 20.8849 84.1765 20.9752 84.3333 21.0545C84.5147 21.1475 84.7073 21.2241 84.9082 21.2843C85.2849 21.3964 85.7063 21.4538 86.1618 21.4538C86.7255 21.4538 87.225 21.3581 87.6526 21.1721C88.0851 20.9834 88.4284 20.7044 88.674 20.3433C88.9195 19.9822 89.0451 19.5419 89.0451 19.0358C89.0591 18.7294 88.9949 18.445 88.8721 18.1906Z" fill="#16315E"/>
</g>
<defs>
<clipPath id="clip0_985_2351">
<rect width="89.3023" height="24" fill="white"/>
</clipPath>
</defs>
</svg>
