<svg width="120" height="119" viewBox="0 0 120 119" fill="none" xmlns="http://www.w3.org/2000/svg">
<path d="M63.1582 17.084V99.9137" stroke="#F0DAB0" stroke-width="1.03537" stroke-linecap="round" stroke-linejoin="round" stroke-dasharray="2.07 2.07"/>
<path d="M104.573 58.498L21.7432 58.498" stroke="#F0DAB0" stroke-width="1.03537" stroke-linecap="round" stroke-linejoin="round"/>
<ellipse cx="62.6401" cy="58.4986" rx="25.3667" ry="25.3666" stroke="#F0DAB0" stroke-width="1.03537" stroke-linecap="round" stroke-linejoin="round"/>
<path d="M88.0068 58.4986C88.0068 55.1674 87.3507 51.8688 86.0759 48.7912C84.8011 45.7136 82.9326 42.9172 80.5771 40.5617C78.2216 38.2062 75.4252 36.3377 72.3475 35.0629C69.2699 33.7881 65.9713 33.132 62.6401 33.132" stroke="#F0DAB0" stroke-width="3.10612" stroke-linejoin="round"/>
<path d="M37.2734 58.4985C37.2734 61.8297 37.9296 65.1283 39.2044 68.2059C40.4792 71.2835 42.3477 74.0799 44.7032 76.4354C47.0587 78.7909 49.8551 80.6594 52.9327 81.9342C56.0104 83.209 59.3089 83.8651 62.6401 83.8651" stroke="#F0DAB0" stroke-width="3.10612" stroke-linejoin="round"/>
<path d="M58.8092 2.79551V13.6669H57.9809V2.48489C57.9809 1.82225 57.836 1.31147 57.546 0.952542C57.2699 0.593613 56.7937 0.414148 56.1172 0.414148H55.9102V0H57.2561C57.8912 0 58.4296 0.103537 58.8713 0.310611C59.3131 0.517685 59.7065 0.828298 60.0517 1.24245L67.2993 10.2502V0H68.1276V13.874H67.7134L58.8092 2.79551Z" fill="#D1E7BE"/>
<path d="M2.27783 54.3984C2.00173 53.5977 1.70492 53.0524 1.3874 52.7625C1.08369 52.4588 0.621225 52.2793 0 52.2241V51.81C0.069025 51.81 0.172563 51.8031 0.310613 51.7893C0.434858 51.7755 0.566005 51.7686 0.704055 51.7686C1.46333 51.7686 2.14668 51.9411 2.7541 52.2862C3.37532 52.6314 3.8723 53.3354 4.24504 54.3984L7.01985 62.3915L9.23555 55.8272L8.73857 54.3984C8.46247 53.5977 8.16566 53.0524 7.84815 52.7625C7.54444 52.4588 7.08197 52.2793 6.46074 52.2241V51.81C6.52977 51.81 6.6264 51.8031 6.75065 51.7893C6.8887 51.7755 7.02675 51.7686 7.1648 51.7686C7.92407 51.7686 8.60742 51.9411 9.21484 52.2862C9.83607 52.6314 10.333 53.3354 10.7058 54.3984L13.4806 62.3915L17.0216 51.9756H17.912L13.17 65.8496H12.7558L9.69111 57.1318L6.70923 65.8496H6.29508L2.27783 54.3984Z" fill="#D1E7BE"/>
<path d="M110.579 54.2534C110.579 53.5494 110.482 53.0317 110.289 52.7004C110.095 52.3553 109.709 52.1827 109.129 52.1827H108.715V51.7686H117.536C118.71 51.7686 119.296 52.3208 119.296 53.4252V54.9782H118.882C118.882 53.3906 118.019 52.5969 116.294 52.5969H112.442V57.9808H118.033V58.8091H112.442V64.6072H116.066C117.019 64.6072 117.764 64.4346 118.302 64.0895C118.841 63.7444 119.269 63.1576 119.586 62.3294L120 62.4329L119.276 64.4001C119.027 65.0903 118.509 65.4355 117.723 65.4355H110.579V54.2534Z" fill="#D1E7BE"/>
<path d="M63.7379 118.964C62.9786 118.964 62.2332 118.86 61.5015 118.653C60.7698 118.446 60.1693 118.149 59.6999 117.763C59.2444 117.376 59.0166 116.935 59.0166 116.438V114.222H59.3893C59.624 115.602 60.0796 116.603 60.756 117.225C61.4325 117.832 62.3643 118.136 63.5515 118.136C64.297 118.136 64.932 117.949 65.4566 117.577C65.995 117.204 66.2642 116.686 66.2642 116.023C66.2642 115.444 66.0848 114.94 65.7258 114.512C65.3669 114.084 64.7871 113.635 63.9864 113.166L61.4394 111.654C60.5559 111.13 59.9277 110.598 59.555 110.06C59.1961 109.521 59.0166 108.866 59.0166 108.093C59.0166 107.03 59.3824 106.181 60.1141 105.546C60.8596 104.897 61.8328 104.572 63.0339 104.572C63.7379 104.572 64.4351 104.676 65.1253 104.883C65.8156 105.076 66.3816 105.366 66.8233 105.753C67.2789 106.125 67.5067 106.56 67.5067 107.057V109.273H67.1339C66.8993 107.892 66.4506 106.905 65.788 106.312C65.1391 105.704 64.2211 105.401 63.0339 105.401C62.3988 105.401 61.8397 105.594 61.3566 105.98C60.8734 106.367 60.6318 106.871 60.6318 107.492C60.6318 108.058 60.8043 108.527 61.1495 108.9C61.5084 109.273 62.102 109.708 62.9303 110.205L65.4773 111.716C66.4161 112.282 67.0787 112.807 67.4653 113.29C67.8518 113.773 68.0451 114.388 68.0451 115.133C68.0451 116.293 67.6585 117.225 66.8855 117.929C66.1124 118.619 65.0632 118.964 63.7379 118.964Z" fill="#D1E7BE"/>
</svg>
