<svg width="48" height="48" viewBox="0 0 48 48" fill="none" xmlns="http://www.w3.org/2000/svg">
<circle cx="24" cy="24" r="23.5" fill="url(#paint0_linear_694_10326)" stroke="url(#paint1_linear_694_10326)"/>
<g filter="url(#filter0_di_694_10326)">
<path d="M18.6105 21.4952C19.4225 23.1864 20.5294 24.7715 21.9312 26.1733C23.3331 27.5752 24.9182 28.6821 26.6094 29.4941C26.7549 29.5639 26.8276 29.5989 26.9196 29.6257C27.2467 29.721 27.6484 29.6525 27.9254 29.4542C28.0033 29.3984 28.07 29.3317 28.2033 29.1983C28.6112 28.7905 28.8152 28.5865 29.0202 28.4532C29.7936 27.9504 30.7906 27.9504 31.564 28.4532C31.7691 28.5865 31.973 28.7905 32.3809 29.1983L32.6082 29.4257C33.2282 30.0457 33.5382 30.3557 33.7066 30.6887C34.0416 31.3508 34.0416 32.1328 33.7066 32.7949C33.5382 33.1279 33.2282 33.4379 32.6082 34.0579L32.4243 34.2418C31.8064 34.8597 31.4975 35.1687 31.0774 35.4046C30.6113 35.6664 29.8874 35.8547 29.3528 35.8531C28.8711 35.8517 28.5418 35.7582 27.8833 35.5713C24.3443 34.5668 21.0049 32.6716 18.2189 29.8856C15.433 27.0997 13.5377 23.7602 12.5333 20.2213C12.3464 19.5628 12.2529 19.2335 12.2515 18.7517C12.2499 18.2171 12.4381 17.4932 12.7 17.0271C12.9359 16.6071 13.2449 16.2982 13.8628 15.6803L14.0467 15.4964C14.6667 14.8763 14.9767 14.5663 15.3096 14.3979C15.9718 14.063 16.7538 14.063 17.4159 14.3979C17.7489 14.5663 18.0589 14.8763 18.6789 15.4964L18.9062 15.7237C19.3141 16.1316 19.518 16.3355 19.6514 16.5406C20.1542 17.314 20.1542 18.311 19.6514 19.0843C19.518 19.2894 19.3141 19.4934 18.9062 19.9012C18.7729 20.0346 18.7062 20.1013 18.6504 20.1792C18.452 20.4562 18.3835 20.8579 18.4789 21.1849C18.5057 21.277 18.5406 21.3497 18.6105 21.4952Z" fill="#031C14"/>
<path fill-rule="evenodd" clip-rule="evenodd" d="M25.5218 12.2365C25.5751 11.7562 26.0077 11.4101 26.488 11.4634C29.0528 11.7484 31.4445 12.8969 33.2704 14.7205C35.0963 16.5441 36.2478 18.9343 36.536 21.4987C36.5899 21.9789 36.2444 22.412 35.7641 22.4659C35.2839 22.5199 34.8509 22.1743 34.7969 21.6941C34.5531 19.5242 33.5787 17.5017 32.0337 15.9587C30.4887 14.4157 28.465 13.4438 26.2948 13.2027C25.8145 13.1494 25.4684 12.7168 25.5218 12.2365ZM17.021 15.1787C16.6071 14.9694 16.1184 14.9694 15.7046 15.1787C15.5279 15.2681 15.334 15.4464 14.6654 16.1151L14.4815 16.299C13.8368 16.9436 13.6274 17.1627 13.4628 17.4557C13.275 17.7901 13.1253 18.3655 13.1265 18.7491C13.1275 19.092 13.1837 19.3083 13.375 19.9824C14.3398 23.3815 16.1599 26.5891 18.8377 29.2669C21.5154 31.9447 24.7231 33.7648 28.1222 34.7296C28.7963 34.9209 29.0126 34.9771 29.3554 34.9781C29.7391 34.9792 30.3144 34.8296 30.6489 34.6417C30.9419 34.4771 31.1609 34.2678 31.8056 33.6231L31.9895 33.4392C32.6581 32.7705 32.8365 32.5766 32.9258 32.4C33.1352 31.9862 33.1352 31.4974 32.9258 31.0836C32.8365 30.907 32.6581 30.7131 31.9895 30.0444L31.7622 29.8171C31.3227 29.3776 31.1958 29.2575 31.087 29.1868C30.6037 28.8725 29.9805 28.8725 29.4972 29.1868C29.3884 29.2575 29.2615 29.3776 28.8221 29.8171C28.8136 29.8256 28.805 29.8341 28.7964 29.8428C28.6889 29.9505 28.5732 30.0665 28.4348 30.1656C27.9394 30.5203 27.2597 30.6362 26.6748 30.4657C26.5118 30.4182 26.3783 30.354 26.2564 30.2952C26.2477 30.2911 26.2392 30.287 26.2307 30.2829C24.4516 29.4287 22.7852 28.2647 21.3125 26.792C19.8399 25.3194 18.6758 23.6529 17.8217 21.8739C17.8176 21.8654 17.8135 21.8568 17.8093 21.8482C17.7506 21.7262 17.6863 21.5927 17.6389 21.4298C17.4683 20.8449 17.5842 20.1652 17.939 19.6698C18.0381 19.5314 18.1541 19.4157 18.2618 19.3082C18.2704 19.2996 18.279 19.291 18.2875 19.2825C18.727 18.843 18.8471 18.7162 18.9178 18.6074C19.2321 18.124 19.2321 17.5009 18.9178 17.0175C18.8471 16.9088 18.727 16.7819 18.2875 16.3424L18.0602 16.1151C17.3915 15.4464 17.1976 15.2681 17.021 15.1787ZM14.9147 13.6171C15.8252 13.1566 16.9004 13.1566 17.8108 13.6171C18.2719 13.8503 18.6768 14.2559 19.2 14.7799C19.2321 14.812 19.2646 14.8446 19.2976 14.8776L19.525 15.105C19.5467 15.1267 19.5681 15.1481 19.5893 15.1693C19.9342 15.5138 20.2003 15.7797 20.385 16.0636C21.0763 17.127 21.0763 18.4979 20.385 19.5613C20.2003 19.8452 19.9342 20.1111 19.5893 20.4557C19.5681 20.4768 19.5467 20.4982 19.525 20.5199C19.4545 20.5905 19.4163 20.6288 19.3881 20.6589C19.3757 20.6721 19.369 20.6798 19.3656 20.6839L19.3625 20.6877L19.3618 20.6886C19.3618 20.6886 19.3618 20.6886 19.3618 20.6886C19.3198 20.7473 19.2987 20.8708 19.3189 20.9401C19.3199 20.9433 19.3215 20.9493 19.331 20.9711C19.3438 21.0006 19.3619 21.0386 19.3993 21.1165C20.1691 22.7199 21.2189 24.2236 22.55 25.5546C23.881 26.8857 25.3847 27.9354 26.9881 28.7053C27.066 28.7427 27.1039 28.7608 27.1334 28.7736C27.1545 28.7828 27.1608 28.7846 27.1642 28.7855C27.2334 28.8057 27.3573 28.7848 27.4159 28.7428L27.4169 28.7421L27.4206 28.739C27.4248 28.7355 27.4325 28.7289 27.4457 28.7165C27.4758 28.6883 27.5141 28.6501 27.5846 28.5796C27.6064 28.5579 27.6278 28.5364 27.6489 28.5153C27.9934 28.1704 28.2593 27.9042 28.5433 27.7196C29.6067 27.0282 30.9776 27.0282 32.0409 27.7196C32.3249 27.9042 32.5908 28.1704 32.9353 28.5153C32.9564 28.5364 32.9778 28.5579 32.9996 28.5796L33.2269 28.807C33.2599 28.84 33.2925 28.8725 33.3247 28.9046C33.8487 29.4278 34.2543 29.8327 34.4874 30.2937C34.948 31.2042 34.948 32.2794 34.4874 33.1899C34.2543 33.6509 33.8487 34.0558 33.3246 34.579C33.2925 34.6111 33.2599 34.6436 33.2269 34.6766L33.043 34.8605C33.0208 34.8828 32.9988 34.9048 32.9771 34.9265C32.4217 35.4823 32.0324 35.8718 31.506 36.1675C30.9083 36.5033 30.0358 36.7301 29.3502 36.7281C28.7471 36.7263 28.3125 36.6028 27.6985 36.4284C27.6806 36.4233 27.6626 36.4182 27.6444 36.4131C23.9656 35.3689 20.4944 33.3985 17.6002 30.5044C14.706 27.6102 12.7357 24.139 11.6915 20.4602C11.6864 20.442 11.6812 20.424 11.6762 20.4061C11.5017 19.7921 11.3783 19.3574 11.3765 18.7543C11.3744 18.0688 11.6013 17.1963 11.9371 16.5986C12.2328 16.0722 12.6223 15.6829 13.1781 15.1275C13.1998 15.1058 13.2218 15.0838 13.244 15.0615L13.4279 14.8776C13.461 14.8446 13.4935 14.812 13.5256 14.7799C14.0488 14.2559 14.4537 13.8503 14.9147 13.6171ZM25.5326 16.8322C25.6252 16.3579 26.0847 16.0484 26.559 16.1409C27.8694 16.3966 29.0738 17.0375 30.0179 17.9816C30.962 18.9257 31.6029 20.1301 31.8586 21.4405C31.9511 21.9148 31.6416 22.3744 31.1673 22.4669C30.693 22.5594 30.2335 22.2499 30.141 21.7756C29.952 20.807 29.4783 19.9169 28.7805 19.2191C28.0826 18.5212 27.1925 18.0475 26.2239 17.8586C25.7496 17.766 25.4401 17.3065 25.5326 16.8322Z" fill="#031C14"/>
</g>
<defs>
<filter id="filter0_di_694_10326" x="11.3765" y="11.458" width="25.165" height="26.2705" filterUnits="userSpaceOnUse" color-interpolation-filters="sRGB">
<feFlood flood-opacity="0" result="BackgroundImageFix"/>
<feColorMatrix in="SourceAlpha" type="matrix" values="0 0 0 0 0 0 0 0 0 0 0 0 0 0 0 0 0 0 127 0" result="hardAlpha"/>
<feOffset dy="1"/>
<feComposite in2="hardAlpha" operator="out"/>
<feColorMatrix type="matrix" values="0 0 0 0 1 0 0 0 0 1 0 0 0 0 1 0 0 0 0.6 0"/>
<feBlend mode="normal" in2="BackgroundImageFix" result="effect1_dropShadow_694_10326"/>
<feBlend mode="normal" in="SourceGraphic" in2="effect1_dropShadow_694_10326" result="shape"/>
<feColorMatrix in="SourceAlpha" type="matrix" values="0 0 0 0 0 0 0 0 0 0 0 0 0 0 0 0 0 0 127 0" result="hardAlpha"/>
<feOffset dy="1"/>
<feGaussianBlur stdDeviation="2"/>
<feComposite in2="hardAlpha" operator="arithmetic" k2="-1" k3="1"/>
<feColorMatrix type="matrix" values="0 0 0 0 0.811765 0 0 0 0 0.607843 0 0 0 0 0.27451 0 0 0 0.5 0"/>
<feBlend mode="normal" in2="shape" result="effect2_innerShadow_694_10326"/>
</filter>
<linearGradient id="paint0_linear_694_10326" x1="0" y1="48" x2="48" y2="48" gradientUnits="userSpaceOnUse">
<stop stop-color="#BF852B"/>
<stop offset="0.609375" stop-color="#F0CB81"/>
<stop offset="1" stop-color="#BF852B"/>
</linearGradient>
<linearGradient id="paint1_linear_694_10326" x1="24" y1="0" x2="24" y2="48" gradientUnits="userSpaceOnUse">
<stop stop-color="#F0DAB0"/>
<stop offset="1" stop-color="#F0DAB0" stop-opacity="0"/>
</linearGradient>
</defs>
</svg>
