<svg width="80" height="80" viewBox="0 0 80 80" fill="none" xmlns="http://www.w3.org/2000/svg">
<g clip-path="url(#clip0_57_3018)">
<path d="M78.7501 69.3752H1.25009C1.02398 69.375 0.802142 69.3136 0.608195 69.1974C0.414248 69.0812 0.255457 68.9145 0.148735 68.7152C0.0420132 68.5158 -0.00864348 68.2913 0.00216051 68.0654C0.0129645 67.8396 0.0848245 67.6209 0.210087 67.4327L12.7101 48.6827C12.8941 48.4068 13.1801 48.2154 13.5053 48.1505C13.8304 48.0855 14.168 48.1524 14.4438 48.3364C14.7197 48.5204 14.9111 48.8064 14.976 49.1316C15.041 49.4567 14.9741 49.7943 14.7901 50.0702L3.58509 66.8752H76.4151L65.2101 50.0689C65.0261 49.7931 64.9592 49.4555 65.0241 49.1303C65.0891 48.8052 65.2805 48.5192 65.5563 48.3352C65.8322 48.1512 66.1698 48.0843 66.4949 48.1492C66.8201 48.2141 67.1061 48.4056 67.2901 48.6814L79.7901 67.4314C79.9157 67.6197 79.9878 67.8385 79.9988 68.0645C80.0098 68.2906 79.9592 68.5153 79.8524 68.7149C79.7457 68.9144 79.5867 69.0812 79.3926 69.1975C79.1985 69.3138 78.9764 69.3752 78.7501 69.3752Z" fill="#C09C59"/>
<path d="M78.75 74.375H1.25C0.918479 74.375 0.600537 74.2433 0.366117 74.0089C0.131696 73.7745 0 73.4565 0 73.125V68.125C0 67.7935 0.131696 67.4755 0.366117 67.2411C0.600537 67.0067 0.918479 66.875 1.25 66.875H78.75C79.0815 66.875 79.3995 67.0067 79.6339 67.2411C79.8683 67.4755 80 67.7935 80 68.125V73.125C80 73.4565 79.8683 73.7745 79.6339 74.0089C79.3995 74.2433 79.0815 74.375 78.75 74.375ZM2.5 71.875H77.5V69.375H2.5V71.875Z" fill="#C09C59"/>
<path d="M12.3113 69.3751C12.1002 69.3751 11.8925 69.3215 11.7077 69.2195C11.5229 69.1175 11.3669 68.9703 11.2543 68.7917C11.1417 68.6131 11.0762 68.4089 11.0639 68.1981C11.0516 67.9873 11.0928 67.7769 11.1838 67.5864L17.7376 53.8364C17.8082 53.6882 17.9074 53.5555 18.0294 53.4456C18.1514 53.3358 18.2938 53.2511 18.4485 53.1963C18.6032 53.1415 18.7672 53.1177 18.9312 53.1263C19.0951 53.1349 19.2557 53.1757 19.4038 53.2464C19.552 53.317 19.6848 53.4162 19.7946 53.5382C19.9044 53.6602 19.9891 53.8026 20.0439 53.9573C20.0987 54.112 20.1225 54.276 20.1139 54.4399C20.1053 54.6039 20.0645 54.7645 19.9938 54.9126L13.4401 68.6626C13.3387 68.8761 13.1788 69.0564 12.979 69.1825C12.7792 69.3087 12.5476 69.3755 12.3113 69.3751ZM25.1676 63.1251C24.974 63.1252 24.7831 63.0804 24.6098 62.9941C24.4365 62.9079 24.2856 62.7825 24.169 62.628C24.0525 62.4735 23.9734 62.294 23.938 62.1037C23.9026 61.9134 23.9118 61.7175 23.9651 61.5314L25.7576 55.2814C25.8561 54.9715 26.0716 54.7122 26.3582 54.5586C26.6448 54.4049 26.98 54.369 27.2927 54.4585C27.6053 54.548 27.8708 54.7557 28.0327 55.0377C28.1947 55.3197 28.2404 55.6538 28.1601 55.9689L26.3676 62.2189C26.2933 62.4799 26.136 62.7096 25.9195 62.8731C25.7029 63.0367 25.4389 63.1251 25.1676 63.1251ZM67.6888 69.3751C67.4527 69.3754 67.2213 69.3088 67.0215 69.1829C66.8217 69.057 66.6617 68.877 66.5601 68.6639L64.1751 63.6614C64.1019 63.5129 64.059 63.3514 64.0487 63.1862C64.0385 63.0211 64.0611 62.8555 64.1154 62.6991C64.1696 62.5428 64.2544 62.3988 64.3647 62.2754C64.475 62.1521 64.6088 62.0519 64.7582 61.9806C64.9075 61.9094 65.0696 61.8685 65.2349 61.8603C65.4002 61.8522 65.5654 61.877 65.7211 61.9332C65.8767 61.9894 66.0197 62.076 66.1416 62.1879C66.2635 62.2998 66.362 62.4349 66.4313 62.5851L68.8163 67.5876C68.907 67.7781 68.9481 67.9884 68.9356 68.199C68.9231 68.4096 68.8576 68.6136 68.745 68.792C68.6325 68.9704 68.4766 69.1175 68.2919 69.2194C68.1073 69.3214 67.8998 69.375 67.6888 69.3751ZM62.9188 59.3689C62.6827 59.3692 62.4513 59.3025 62.2515 59.1766C62.0517 59.0507 61.8917 58.8708 61.7901 58.6576L57.6226 49.9139C57.5494 49.7654 57.5065 49.6039 57.4962 49.4387C57.486 49.2736 57.5086 49.108 57.5629 48.9516C57.6171 48.7953 57.7019 48.6513 57.8122 48.5279C57.9225 48.4046 58.0563 48.3044 58.2057 48.2331C58.355 48.1619 58.5171 48.121 58.6824 48.1128C58.8477 48.1047 59.0129 48.1295 59.1686 48.1857C59.3242 48.2419 59.4672 48.3285 59.5891 48.4404C59.711 48.5523 59.8095 48.6874 59.8788 48.8376L64.0463 57.5814C64.137 57.7718 64.1781 57.9822 64.1656 58.1927C64.1531 58.4033 64.0876 58.6073 63.975 58.7858C63.8625 58.9642 63.7066 59.1112 63.5219 59.2132C63.3373 59.3151 63.1298 59.3687 62.9188 59.3689ZM54.8326 63.1251C54.5612 63.1251 54.2972 63.0367 54.0807 62.8731C53.8641 62.7096 53.7068 62.4799 53.6326 62.2189L51.8401 55.9689C51.7489 55.6503 51.788 55.3085 51.9489 55.0188C52.1097 54.729 52.379 54.515 52.6976 54.4239C53.0162 54.3327 53.3579 54.3718 53.6477 54.5326C53.9374 54.6935 54.1514 54.9628 54.2426 55.2814L56.0351 61.5314C56.0886 61.7175 56.0981 61.9135 56.0628 62.1039C56.0275 62.2943 55.9484 62.4739 55.8318 62.6285C55.7151 62.7831 55.5641 62.9084 55.3907 62.9946C55.2173 63.0808 55.0262 63.1255 54.8326 63.1251Z" fill="#C09C59"/>
<path d="M18.8675 55.625H10.4163C10.0847 55.625 9.7668 55.4933 9.53238 55.2589C9.29796 55.0245 9.16626 54.7065 9.16626 54.375C9.16626 54.0435 9.29796 53.7255 9.53238 53.4911C9.7668 53.2567 10.0847 53.125 10.4163 53.125H18.8675C19.199 53.125 19.517 53.2567 19.7514 53.4911C19.9858 53.7255 20.1175 54.0435 20.1175 54.375C20.1175 54.7065 19.9858 55.0245 19.7514 55.2589C19.517 55.4933 19.199 55.625 18.8675 55.625ZM75.4163 64.375H65.305C64.9735 64.375 64.6555 64.2433 64.4211 64.0089C64.1867 63.7745 64.055 63.4565 64.055 63.125C64.055 62.7935 64.1867 62.4755 64.4211 62.2411C64.6555 62.0067 64.9735 61.875 65.305 61.875H75.4163C75.7478 61.875 76.0657 62.0067 76.3001 62.2411C76.5346 62.4755 76.6663 62.7935 76.6663 63.125C76.6663 63.4565 76.5346 63.7745 76.3001 64.0089C76.0657 64.2433 75.7478 64.375 75.4163 64.375ZM72.0838 59.375H62.9213C62.5897 59.375 62.2718 59.2433 62.0374 59.0089C61.803 58.7745 61.6713 58.4565 61.6713 58.125C61.6713 57.7935 61.803 57.4755 62.0374 57.2411C62.2718 57.0067 62.5897 56.875 62.9213 56.875H72.0838C72.4153 56.875 72.7332 57.0067 72.9676 57.2411C73.2021 57.4755 73.3338 57.7935 73.3338 58.125C73.3338 58.4565 73.2021 58.7745 72.9676 59.0089C72.7332 59.2433 72.4153 59.375 72.0838 59.375ZM37.5 56.875H26.9575C26.626 56.875 26.308 56.7433 26.0736 56.5089C25.8392 56.2745 25.7075 55.9565 25.7075 55.625C25.7075 55.2935 25.8392 54.9755 26.0736 54.7411C26.308 54.5067 26.626 54.375 26.9575 54.375H37.5C37.8315 54.375 38.1495 54.5067 38.3839 54.7411C38.6183 54.9755 38.75 55.2935 38.75 55.625C38.75 55.9565 38.6183 56.2745 38.3839 56.5089C38.1495 56.7433 37.8315 56.875 37.5 56.875ZM53.0425 56.875H42.6163C42.2847 56.875 41.9668 56.7433 41.7324 56.5089C41.498 56.2745 41.3663 55.9565 41.3663 55.625C41.3663 55.2935 41.498 54.9755 41.7324 54.7411C41.9668 54.5067 42.2847 54.375 42.6163 54.375H53.0425C53.374 54.375 53.692 54.5067 53.9264 54.7411C54.1608 54.9755 54.2925 55.2935 54.2925 55.625C54.2925 55.9565 54.1608 56.2745 53.9264 56.5089C53.692 56.7433 53.374 56.875 53.0425 56.875ZM54.8338 63.125H25.1663C24.8347 63.125 24.5168 62.9933 24.2824 62.7589C24.048 62.5245 23.9163 62.2065 23.9163 61.875C23.9163 61.5435 24.048 61.2255 24.2824 60.9911C24.5168 60.7567 24.8347 60.625 25.1663 60.625H54.8338C55.1653 60.625 55.4832 60.7567 55.7176 60.9911C55.9521 61.2255 56.0838 61.5435 56.0838 61.875C56.0838 62.2065 55.9521 62.5245 55.7176 62.7589C55.4832 62.9933 55.1653 63.125 54.8338 63.125Z" fill="#C09C59"/>
<path d="M40 59.375C39.6969 59.3752 39.4041 59.265 39.1763 59.065C38.3937 58.3787 20 42.0737 20 25.625C20 14.5975 28.9725 5.625 40 5.625C51.0275 5.625 60 14.5975 60 25.625C60 42.0737 41.6063 58.3787 40.8237 59.065C40.5959 59.265 40.3031 59.3752 40 59.375ZM40 8.125C30.35 8.125 22.5 15.975 22.5 25.625C22.5 39.0425 36.43 53.055 40 56.4262C43.57 53.0562 57.5 39.0438 57.5 25.625C57.5 15.975 49.65 8.125 40 8.125Z" fill="#C09C59"/>
<path d="M31.7838 50.6251H13.75C13.4185 50.6251 13.1005 50.4934 12.8661 50.2589C12.6317 50.0245 12.5 49.7066 12.5 49.3751C12.5 49.0435 12.6317 48.7256 12.8661 48.4912C13.1005 48.2568 13.4185 48.1251 13.75 48.1251H31.7838C32.1153 48.1251 32.4332 48.2568 32.6676 48.4912C32.9021 48.7256 33.0338 49.0435 33.0338 49.3751C33.0338 49.7066 32.9021 50.0245 32.6676 50.2589C32.4332 50.4934 32.1153 50.6251 31.7838 50.6251ZM66.25 50.6251H48.215C47.8835 50.6251 47.5655 50.4934 47.3311 50.2589C47.0967 50.0245 46.965 49.7066 46.965 49.3751C46.965 49.0435 47.0967 48.7256 47.3311 48.4912C47.5655 48.2568 47.8835 48.1251 48.215 48.1251H66.25C66.5815 48.1251 66.8995 48.2568 67.1339 48.4912C67.3683 48.7256 67.5 49.0435 67.5 49.3751C67.5 49.7066 67.3683 50.0245 67.1339 50.2589C66.8995 50.4934 66.5815 50.6251 66.25 50.6251ZM40.0012 25.6226C37.9338 25.6226 36.2512 23.9401 36.2512 21.8726C36.2512 19.8051 37.9338 18.1226 40.0012 18.1226C42.0687 18.1226 43.7512 19.8051 43.7512 21.8726C43.7512 23.9401 42.0687 25.6226 40.0012 25.6226ZM40.0012 20.6226C39.6697 20.6226 39.3518 20.7543 39.1174 20.9887C38.8829 21.2231 38.7512 21.541 38.7512 21.8726C38.7512 22.2041 38.8829 22.522 39.1174 22.7564C39.3518 22.9909 39.6697 23.1226 40.0012 23.1226C40.3328 23.1226 40.6507 22.9909 40.8851 22.7564C41.1196 22.522 41.2512 22.2041 41.2512 21.8726C41.2512 21.541 41.1196 21.2231 40.8851 20.9887C40.6507 20.7543 40.3328 20.6226 40.0012 20.6226Z" fill="#C09C59"/>
<path d="M40.0013 20.6235C39.6698 20.6235 39.3519 20.4918 39.1175 20.2574C38.883 20.023 38.7513 19.7051 38.7513 19.3735V15.6235C38.7513 15.292 38.883 14.9741 39.1175 14.7397C39.3519 14.5052 39.6698 14.3735 40.0013 14.3735C40.3329 14.3735 40.6508 14.5052 40.8852 14.7397C41.1196 14.9741 41.2513 15.292 41.2513 15.6235V19.3735C41.2513 19.7051 41.1196 20.023 40.8852 20.2574C40.6508 20.4918 40.3329 20.6235 40.0013 20.6235ZM33.7526 40.6273C33.5553 40.627 33.3608 40.5801 33.1851 40.4904C33.0093 40.4007 32.8572 40.2707 32.7412 40.1111C32.6252 39.9515 32.5486 39.7667 32.5176 39.5719C32.4865 39.377 32.5019 39.1776 32.5626 38.9898L37.5626 23.6498C37.6779 23.3506 37.9035 23.1071 38.193 22.9693C38.4825 22.8315 38.8138 22.81 39.1187 22.9092C39.4236 23.0083 39.6788 23.2207 39.8319 23.5024C39.9849 23.7841 40.0241 24.1138 39.9413 24.4235L34.9426 39.7635C34.8605 40.0145 34.7012 40.2331 34.4875 40.3882C34.2738 40.5433 34.0166 40.627 33.7526 40.6273Z" fill="#C09C59"/>
<path d="M46.2551 40.6277C45.7288 40.6277 45.2388 40.2927 45.0663 39.7664L40.0626 24.4252C39.9773 24.1148 40.0148 23.7834 40.1673 23.4999C40.3199 23.2164 40.5757 23.0025 40.8818 22.9026C41.1878 22.8027 41.5206 22.8246 41.811 22.9635C42.1014 23.1025 42.3271 23.3479 42.4413 23.6489L47.4451 38.9889C47.506 39.1768 47.5216 39.3764 47.4907 39.5714C47.4597 39.7664 47.3831 39.9514 47.2671 40.1111C47.1511 40.2709 46.9989 40.401 46.823 40.4908C46.6472 40.5805 46.4526 40.6275 46.2551 40.6277Z" fill="#C09C59"/>
<path d="M46.2512 33.125H33.75C33.4185 33.125 33.1005 32.9933 32.8661 32.7589C32.6317 32.5245 32.5 32.2065 32.5 31.875C32.5 31.5435 32.6317 31.2255 32.8661 30.9911C33.1005 30.7567 33.4185 30.625 33.75 30.625H46.2512C46.5828 30.625 46.9007 30.7567 47.1351 30.9911C47.3696 31.2255 47.5012 31.5435 47.5012 31.875C47.5012 32.2065 47.3696 32.5245 47.1351 32.7589C46.9007 32.9933 46.5828 33.125 46.2512 33.125Z" fill="#C09C59"/>
</g>
<defs>
<clipPath id="clip0_57_3018">
<rect width="80" height="80" fill="white"/>
</clipPath>
</defs>
</svg>
