<svg width="81" height="80" viewBox="0 0 81 80" fill="none" xmlns="http://www.w3.org/2000/svg">
<g clip-path="url(#clip0_84_2941)">
<path d="M39.3917 58.8616C39.3917 63.5796 39.3917 68.2976 39.3917 73.0254C39.3917 74.8302 39.3917 76.635 39.3427 78.4398C39.3487 78.7972 39.227 79.1451 38.9994 79.4207C38.7726 79.6939 38.4589 79.881 38.1108 79.9506C37.7626 80.0202 37.4011 79.9682 37.0867 79.8032C36.5864 79.5482 36.1058 79.2638 35.6154 78.9793L29.789 75.6541L23.1975 71.9072C23.0497 71.8513 22.925 71.7475 22.8432 71.6123C22.7615 71.4772 22.7273 71.3185 22.7463 71.1617C22.7561 71.0017 22.7561 70.8412 22.7463 70.6811C22.7463 65.986 22.7463 61.2876 22.7463 56.586C22.762 55.0463 22.4265 53.5234 21.7654 52.1328C21.1781 50.9062 20.3353 49.8194 19.2936 48.945C18.6594 48.4387 17.9797 47.9921 17.2632 47.611L9.83801 43.3932L5.01213 40.6468C4.91405 40.5879 4.82579 40.5193 4.7277 40.4702C4.60632 40.4079 4.50559 40.3117 4.4377 40.1934C4.36981 40.075 4.33766 39.9395 4.34515 39.8033C4.34515 39.6659 4.34515 39.5286 4.34515 39.3913C4.34515 34.428 4.34515 29.4583 4.34515 24.482C4.33715 24.189 4.3635 23.896 4.42363 23.6091C4.49009 23.3819 4.60586 23.1722 4.76266 22.9949C4.91947 22.8177 5.11347 22.6772 5.33081 22.5835C5.54815 22.4898 5.78346 22.4453 6.02001 22.453C6.25655 22.4607 6.4885 22.5205 6.69926 22.6282L8.76889 23.7856C10.868 24.9823 12.9637 26.1822 15.0563 27.3854L21.2946 30.946L26.5913 33.9572L32.9474 37.5865C34.2715 38.3418 35.6153 39.097 36.9395 39.8621C37.4927 40.1775 37.9773 40.6002 38.3647 41.1056C38.7522 41.6109 39.0346 42.1886 39.1956 42.8047C39.3429 43.3279 39.4122 43.87 39.4015 44.4134C39.4015 48.7488 39.4015 53.0842 39.4015 57.4197V58.842L39.3917 58.8616Z" fill="#C09C59"/>
<path d="M41.2941 61.0404V44.238C41.2743 43.6942 41.3439 43.1508 41.5002 42.6295C41.8723 41.4759 42.6585 40.5009 43.7071 39.8928C45.2765 38.9708 46.8753 38.0782 48.4643 37.1758L54.7616 33.576L60.1759 30.5058L66.2966 27.0139L71.5835 23.9929L73.8297 22.7177C74.1036 22.5599 74.4162 22.4818 74.7321 22.4921C75.1313 22.4867 75.5168 22.6376 75.8064 22.9124C76.0959 23.1873 76.2666 23.5645 76.2819 23.9634C76.2819 24.0811 76.2819 24.1891 76.2819 24.3068C76.2819 29.3877 76.2819 34.4686 76.2819 39.5495C76.3037 39.7813 76.2519 40.014 76.1339 40.2148C76.0159 40.4155 75.8378 40.574 75.6247 40.6677C73.1038 42.0802 70.6026 43.522 68.0916 44.9541L62.9126 47.8967C61.7369 48.5373 60.7087 49.4174 59.8943 50.4801C59.08 51.5429 58.4976 52.7646 58.1848 54.0664C58.0379 54.6338 57.9589 55.2166 57.9494 55.8026C57.9494 56.2341 57.9494 56.6559 57.9494 57.0875V71.0453C57.9677 71.2248 57.9293 71.4056 57.8396 71.5622C57.7499 71.7188 57.6133 71.8433 57.4491 71.9183C55.6051 72.958 53.7611 74.0271 51.917 75.0767L45.3353 78.8334L43.56 79.8143C43.2382 79.9829 42.8686 80.0369 42.512 79.9674C42.1554 79.8978 41.8331 79.7089 41.5982 79.4317C41.3772 79.2019 41.2511 78.8972 41.2451 78.5784C41.2451 78.3528 41.2451 78.1272 41.2451 77.9016V61.0306L41.2941 61.0404Z" fill="#C09C59"/>
<path d="M40.3233 38.3906C39.074 38.4188 37.8393 38.1177 36.7432 37.5176C35.8113 37.0174 34.8991 36.4779 33.9771 35.958L28.445 32.8095L22.2066 29.2489L16.7922 26.1689L10.6814 22.6868L8.20956 21.2744L7.67991 20.9605C7.4464 20.8215 7.25409 20.6227 7.12284 20.3848C6.9916 20.1468 6.92613 19.8781 6.93312 19.6064C6.94012 19.3347 7.01934 19.0698 7.16266 18.8389C7.30597 18.608 7.50817 18.4194 7.74852 18.2926L9.26892 17.4097L15.6936 13.7707L21.1669 10.6515C22.0006 10.1807 22.0007 10.1611 22.8246 10.6515L29.0041 14.1729L34.4184 17.2528C35.0925 17.6659 35.7901 18.0393 36.5077 18.371C37.6285 18.8519 38.8297 19.1182 40.0487 19.1557C41.543 19.2164 43.0309 18.9275 44.394 18.3121C44.904 18.0865 45.3748 17.8021 45.8848 17.5274L54.183 12.7996C55.517 12.0444 56.8608 11.2989 58.185 10.524C58.3502 10.4079 58.5472 10.3457 58.749 10.3457C58.9509 10.3457 59.1478 10.4079 59.313 10.524L68.9648 16.0267L72.7216 18.1749L72.957 18.3121C73.2179 18.4395 73.4379 18.6375 73.5917 18.8838C73.7456 19.1301 73.8271 19.4146 73.8271 19.705C73.8271 19.9954 73.7456 20.2799 73.5917 20.5262C73.4379 20.7724 73.2179 20.9705 72.957 21.0978C72.3684 21.4019 71.8192 21.7452 71.2503 22.0787L63.6582 26.3945L57.2924 30.0042L50.8187 33.6922L45.4042 36.7623L44.0997 37.4882C42.9416 38.1143 41.6394 38.4254 40.3233 38.3906Z" fill="#C09C59"/>
<path d="M20.9904 62.638V69.3374C21.0003 69.5203 21.0003 69.7037 20.9904 69.8867C20.983 69.9655 20.956 70.0412 20.9117 70.1067C20.8673 70.1723 20.8072 70.2256 20.7368 70.2618C20.6665 70.298 20.588 70.3158 20.5089 70.3137C20.4298 70.3116 20.3525 70.2895 20.2842 70.2496C19.882 70.0436 19.4897 69.818 19.0973 69.5924L11.986 65.5316L5.81632 62.0103L5.16897 61.6376C4.91954 61.5029 4.71123 61.3032 4.56616 61.0597C4.42109 60.8162 4.34465 60.5379 4.34501 60.2545C4.34501 60.1172 4.34501 59.9799 4.34501 59.8524V43.5895C4.33031 43.41 4.33031 43.2295 4.34501 43.05C4.35235 42.9653 4.38075 42.8838 4.42763 42.8128C4.47451 42.7419 4.5384 42.6838 4.61346 42.6438C4.68851 42.6038 4.77233 42.5833 4.85736 42.584C4.94238 42.5847 5.02592 42.6066 5.1003 42.6478C5.18271 42.6826 5.26154 42.7253 5.3357 42.7753L14.1636 47.817L16.8119 49.308C18.2925 50.1107 19.4858 51.3554 20.2253 52.8686C20.7302 53.8837 20.9953 55.0011 21.0002 56.1348V62.638H20.9904Z" fill="#C09C59"/>
<path d="M40.3429 17.4883C38.89 17.4713 37.4667 17.0757 36.2134 16.3407L28.798 12.1131L24.7372 9.79828C24.6186 9.73472 24.5069 9.65914 24.4037 9.5727C24.3506 9.53045 24.3077 9.47675 24.2782 9.41561C24.2487 9.35447 24.2334 9.28748 24.2334 9.2196C24.2334 9.15172 24.2487 9.08467 24.2782 9.02353C24.3077 8.9624 24.3506 8.9087 24.4037 8.86644C24.5069 8.78 24.6186 8.70442 24.7372 8.64086L30.6813 5.25684L35.9192 2.31422L39.3424 0.352477C39.5856 0.190789 39.8593 0.0806721 40.1467 0.028832C40.5308 -0.0159787 40.9191 0.0630437 41.2551 0.254413L43.9035 1.76494L49.2001 4.78604L56.0662 8.70953C56.1849 8.77309 56.2966 8.84867 56.3998 8.93511C56.4531 8.97833 56.496 9.0329 56.5255 9.09484C56.555 9.15677 56.5703 9.22451 56.5703 9.29312C56.5703 9.36173 56.555 9.42952 56.5255 9.49146C56.496 9.5534 56.4531 9.60796 56.3998 9.65119C56.3187 9.72748 56.226 9.79039 56.1251 9.83755L52.3586 11.9857L46.8264 15.1342L44.3449 16.5369C43.1113 17.1833 41.7354 17.5104 40.3429 17.4883Z" fill="#C09C59"/>
<path d="M76.3208 51.8302V59.9518C76.3208 60.1087 76.3208 60.2657 76.3208 60.4226C76.3196 60.6608 76.2577 60.8948 76.141 61.1024C76.0243 61.31 75.8566 61.4846 75.6538 61.6095C75.2124 61.8841 74.7612 62.1391 74.31 62.3942L64.6582 67.8871L60.6563 70.1627C60.5775 70.2078 60.4955 70.2471 60.411 70.2804C60.342 70.3199 60.2642 70.3416 60.1846 70.3436C60.1051 70.3456 60.0262 70.3278 59.9553 70.2918C59.8843 70.2558 59.8234 70.2028 59.7779 70.1375C59.7325 70.0721 59.704 69.9966 59.695 69.9175C59.6752 69.7612 59.6752 69.603 59.695 69.4466C59.695 65.1798 59.695 60.9131 59.695 56.6463C59.6668 55.0832 60.078 53.5437 60.8819 52.2029C61.5544 51.097 62.4958 50.1791 63.6185 49.5349L69.3272 46.2784L75.0261 43.0416C75.2587 42.9 75.5013 42.7754 75.7519 42.6688C75.8132 42.6396 75.8809 42.6261 75.9487 42.6294C76.0166 42.6327 76.0826 42.6526 76.1409 42.6876C76.1991 42.7225 76.2478 42.7714 76.2826 42.8297C76.3174 42.888 76.3373 42.9541 76.3405 43.0219C76.3405 43.2279 76.3405 43.4339 76.3405 43.6301V51.8302H76.3208Z" fill="#C09C59"/>
</g>
<defs>
<clipPath id="clip0_84_2941">
<rect width="71.996" height="79.9999" fill="white" transform="translate(4.33545)"/>
</clipPath>
</defs>
</svg>
