<svg width="81" height="80" viewBox="0 0 81 80" fill="none" xmlns="http://www.w3.org/2000/svg">
<g clip-path="url(#clip0_57_2993)">
<path d="M79.4165 74.3799H1.9165C1.58498 74.3799 1.26704 74.2482 1.03262 74.0138C0.7982 73.7793 0.666504 73.4614 0.666504 73.1299C0.666504 72.7984 0.7982 72.4804 1.03262 72.246C1.26704 72.0116 1.58498 71.8799 1.9165 71.8799H79.4165C79.748 71.8799 80.066 72.0116 80.3004 72.246C80.5348 72.4804 80.6665 72.7984 80.6665 73.1299C80.6665 73.4614 80.5348 73.7793 80.3004 74.0138C80.066 74.2482 79.748 74.3799 79.4165 74.3799Z" fill="#C09C59"/>
<path d="M20.6738 74.3799C20.3423 74.3799 20.0244 74.2482 19.7899 74.0138C19.5555 73.7793 19.4238 73.4614 19.4238 73.1299V39.3799C19.4238 39.0484 19.5555 38.7304 19.7899 38.496C20.0244 38.2616 20.3423 38.1299 20.6738 38.1299C21.0053 38.1299 21.3233 38.2616 21.5577 38.496C21.7921 38.7304 21.9238 39.0484 21.9238 39.3799V73.1299C21.9238 73.4614 21.7921 73.7793 21.5577 74.0138C21.3233 74.2482 21.0053 74.3799 20.6738 74.3799Z" fill="#C09C59"/>
<path d="M20.6689 58.1357C10.3302 58.1357 1.91895 49.7245 1.91895 39.3857C1.91895 29.047 10.3302 20.6357 20.6689 20.6357C31.0077 20.6357 39.4189 29.047 39.4189 39.3857C39.4189 49.7245 31.0077 58.1357 20.6689 58.1357ZM20.6689 23.1357C11.7089 23.1357 4.41895 30.4257 4.41895 39.3857C4.41895 48.3457 11.7089 55.6357 20.6689 55.6357C29.6289 55.6357 36.9189 48.3457 36.9189 39.3857C36.9189 30.4257 29.6289 23.1357 20.6689 23.1357Z" fill="#C09C59"/>
<path d="M20.6739 50.6299C20.4264 50.6304 20.1844 50.5574 19.9785 50.4202C19.7726 50.2829 19.6121 50.0876 19.5174 49.859C19.4227 49.6304 19.3981 49.3788 19.4466 49.1361C19.4952 48.8935 19.6147 48.6707 19.7901 48.4961L26.0364 42.2486C26.2708 42.0142 26.5887 41.8826 26.9201 41.8826C27.2516 41.8826 27.5695 42.0142 27.8039 42.2486C28.0383 42.483 28.1699 42.8009 28.1699 43.1324C28.1699 43.4639 28.0383 43.7817 27.8039 44.0161L21.5576 50.2636C21.4417 50.3799 21.3039 50.4721 21.1523 50.5349C21.0006 50.5978 20.838 50.6301 20.6739 50.6299ZM60.6601 74.3799C60.3286 74.3799 60.0107 74.2482 59.7762 74.0138C59.5418 73.7793 59.4101 73.4614 59.4101 73.1299V39.3799C59.4101 39.0484 59.5418 38.7304 59.7762 38.496C60.0107 38.2616 60.3286 38.1299 60.6601 38.1299C60.9916 38.1299 61.3096 38.2616 61.544 38.496C61.7784 38.7304 61.9101 39.0484 61.9101 39.3799V73.1299C61.9101 73.4614 61.7784 73.7793 61.544 74.0138C61.3096 74.2482 60.9916 74.3799 60.6601 74.3799Z" fill="#C09C59"/>
<path d="M60.6665 60.6376C50.3278 60.6376 41.9165 52.2264 41.9165 41.8876C41.9165 32.8464 49.489 5.62012 60.6665 5.62012C71.844 5.62012 79.4165 32.8451 79.4165 41.8876C79.4165 52.2264 71.0053 60.6376 60.6665 60.6376ZM60.6665 8.12012C52.1428 8.12012 44.4165 32.4289 44.4165 41.8876C44.4165 50.8476 51.7065 58.1376 60.6665 58.1376C69.6265 58.1376 76.9165 50.8476 76.9165 41.8876C76.9165 32.4289 69.1903 8.12012 60.6665 8.12012Z" fill="#C09C59"/>
<path d="M60.6602 50.6301C60.496 50.6303 60.3334 50.598 60.1818 50.5352C60.0301 50.4723 59.8924 50.3801 59.7764 50.2639L53.5302 44.0164C53.2958 43.782 53.1641 43.4641 53.1641 43.1326C53.1641 42.8012 53.2958 42.4833 53.5302 42.2489C53.7646 42.0145 54.0825 41.8828 54.4139 41.8828C54.7454 41.8828 55.0633 42.0145 55.2977 42.2489L61.5439 48.4964C61.7193 48.671 61.8389 48.8937 61.8874 49.1363C61.936 49.379 61.9114 49.6306 61.8167 49.8592C61.722 50.0878 61.5615 50.2832 61.3556 50.4204C61.1497 50.5577 60.9076 50.6307 60.6602 50.6301ZM3.16895 74.3801C2.83742 74.3801 2.51948 74.2484 2.28506 74.014C2.05064 73.7796 1.91895 73.4616 1.91895 73.1301V71.8801C1.91895 71.5486 2.05064 71.2307 2.28506 70.9962C2.51948 70.7618 2.83742 70.6301 3.16895 70.6301C3.50047 70.6301 3.81841 70.7618 4.05283 70.9962C4.28725 71.2307 4.41895 71.5486 4.41895 71.8801V73.1301C4.41895 73.4616 4.28725 73.7796 4.05283 74.014C3.81841 74.2484 3.50047 74.3801 3.16895 74.3801ZM8.16645 74.3801C7.83493 74.3801 7.51698 74.2484 7.28256 74.014C7.04814 73.7796 6.91645 73.4616 6.91645 73.1301V71.8801C6.91645 71.5486 7.04814 71.2307 7.28256 70.9962C7.51698 70.7618 7.83493 70.6301 8.16645 70.6301C8.49797 70.6301 8.81591 70.7618 9.05033 70.9962C9.28475 71.2307 9.41645 71.5486 9.41645 71.8801V73.1301C9.41645 73.4616 9.28475 73.7796 9.05033 74.014C8.81591 74.2484 8.49797 74.3801 8.16645 74.3801ZM13.1639 74.3801C12.8324 74.3801 12.5145 74.2484 12.2801 74.014C12.0456 73.7796 11.9139 73.4616 11.9139 73.1301V71.8801C11.9139 71.5486 12.0456 71.2307 12.2801 70.9962C12.5145 70.7618 12.8324 70.6301 13.1639 70.6301C13.4955 70.6301 13.8134 70.7618 14.0478 70.9962C14.2822 71.2307 14.4139 71.5486 14.4139 71.8801V73.1301C14.4139 73.4616 14.2822 73.7796 14.0478 74.014C13.8134 74.2484 13.4955 74.3801 13.1639 74.3801ZM18.1614 74.3801C17.8299 74.3801 17.512 74.2484 17.2776 74.014C17.0431 73.7796 16.9114 73.4616 16.9114 73.1301V71.8801C16.9114 71.5486 17.0431 71.2307 17.2776 70.9962C17.512 70.7618 17.8299 70.6301 18.1614 70.6301C18.493 70.6301 18.8109 70.7618 19.0453 70.9962C19.2798 71.2307 19.4114 71.5486 19.4114 71.8801V73.1301C19.4114 73.4616 19.2798 73.7796 19.0453 74.014C18.8109 74.2484 18.493 74.3801 18.1614 74.3801ZM23.1589 74.3801C22.8274 74.3801 22.5095 74.2484 22.2751 74.014C22.0406 73.7796 21.9089 73.4616 21.9089 73.1301V71.8801C21.9089 71.5486 22.0406 71.2307 22.2751 70.9962C22.5095 70.7618 22.8274 70.6301 23.1589 70.6301C23.4905 70.6301 23.8084 70.7618 24.0428 70.9962C24.2772 71.2307 24.4089 71.5486 24.4089 71.8801V73.1301C24.4089 73.4616 24.2772 73.7796 24.0428 74.014C23.8084 74.2484 23.4905 74.3801 23.1589 74.3801ZM28.1564 74.3801C27.8249 74.3801 27.507 74.2484 27.2726 74.014C27.0381 73.7796 26.9064 73.4616 26.9064 73.1301V71.8801C26.9064 71.5486 27.0381 71.2307 27.2726 70.9962C27.507 70.7618 27.8249 70.6301 28.1564 70.6301C28.488 70.6301 28.8059 70.7618 29.0403 70.9962C29.2747 71.2307 29.4064 71.5486 29.4064 71.8801V73.1301C29.4064 73.4616 29.2747 73.7796 29.0403 74.014C28.8059 74.2484 28.488 74.3801 28.1564 74.3801ZM33.1539 74.3801C32.8224 74.3801 32.5045 74.2484 32.2701 74.014C32.0356 73.7796 31.9039 73.4616 31.9039 73.1301V69.3814C31.9039 69.0499 32.0356 68.7319 32.2701 68.4975C32.5045 68.2631 32.8224 68.1314 33.1539 68.1314C33.4855 68.1314 33.8034 68.2631 34.0378 68.4975C34.2722 68.7319 34.4039 69.0499 34.4039 69.3814V73.1301C34.4039 73.4616 34.2722 73.7796 34.0378 74.014C33.8034 74.2484 33.4855 74.3801 33.1539 74.3801ZM48.1464 74.3801C47.8149 74.3801 47.497 74.2484 47.2626 74.014C47.0281 73.7796 46.8964 73.4616 46.8964 73.1301V69.3814C46.8964 69.0499 47.0281 68.7319 47.2626 68.4975C47.497 68.2631 47.8149 68.1314 48.1464 68.1314C48.478 68.1314 48.7959 68.2631 49.0303 68.4975C49.2647 68.7319 49.3964 69.0499 49.3964 69.3814V73.1301C49.3964 73.4616 49.2647 73.7796 49.0303 74.014C48.7959 74.2484 48.478 74.3801 48.1464 74.3801ZM53.1439 74.3801C52.8124 74.3801 52.4945 74.2484 52.2601 74.014C52.0256 73.7796 51.8939 73.4616 51.8939 73.1301V71.8801C51.8939 71.5486 52.0256 71.2307 52.2601 70.9962C52.4945 70.7618 52.8124 70.6301 53.1439 70.6301C53.4755 70.6301 53.7934 70.7618 54.0278 70.9962C54.2622 71.2307 54.3939 71.5486 54.3939 71.8801V73.1301C54.3939 73.4616 54.2622 73.7796 54.0278 74.014C53.7934 74.2484 53.4755 74.3801 53.1439 74.3801ZM58.1414 74.3801C57.8099 74.3801 57.492 74.2484 57.2576 74.014C57.0231 73.7796 56.8914 73.4616 56.8914 73.1301V71.8801C56.8914 71.5486 57.0231 71.2307 57.2576 70.9962C57.492 70.7618 57.8099 70.6301 58.1414 70.6301C58.473 70.6301 58.7909 70.7618 59.0253 70.9962C59.2598 71.2307 59.3914 71.5486 59.3914 71.8801V73.1301C59.3914 73.4616 59.2598 73.7796 59.0253 74.014C58.7909 74.2484 58.473 74.3801 58.1414 74.3801ZM63.1402 74.3801C62.8087 74.3801 62.4907 74.2484 62.2563 74.014C62.0219 73.7796 61.8902 73.4616 61.8902 73.1301V71.8801C61.8902 71.5486 62.0219 71.2307 62.2563 70.9962C62.4907 70.7618 62.8087 70.6301 63.1402 70.6301C63.4717 70.6301 63.7897 70.7618 64.0241 70.9962C64.2585 71.2307 64.3902 71.5486 64.3902 71.8801V73.1301C64.3902 73.4616 64.2585 73.7796 64.0241 74.014C63.7897 74.2484 63.4717 74.3801 63.1402 74.3801ZM68.1377 74.3801C67.8062 74.3801 67.4882 74.2484 67.2538 74.014C67.0194 73.7796 66.8877 73.4616 66.8877 73.1301V71.8801C66.8877 71.5486 67.0194 71.2307 67.2538 70.9962C67.4882 70.7618 67.8062 70.6301 68.1377 70.6301C68.4692 70.6301 68.7872 70.7618 69.0216 70.9962C69.256 71.2307 69.3877 71.5486 69.3877 71.8801V73.1301C69.3877 73.4616 69.256 73.7796 69.0216 74.014C68.7872 74.2484 68.4692 74.3801 68.1377 74.3801ZM73.1352 74.3801C72.8037 74.3801 72.4857 74.2484 72.2513 74.014C72.0169 73.7796 71.8852 73.4616 71.8852 73.1301V71.8801C71.8852 71.5486 72.0169 71.2307 72.2513 70.9962C72.4857 70.7618 72.8037 70.6301 73.1352 70.6301C73.4667 70.6301 73.7847 70.7618 74.0191 70.9962C74.2535 71.2307 74.3852 71.5486 74.3852 71.8801V73.1301C74.3852 73.4616 74.2535 73.7796 74.0191 74.014C73.7847 74.2484 73.4667 74.3801 73.1352 74.3801ZM78.1327 74.3801C77.8012 74.3801 77.4832 74.2484 77.2488 74.014C77.0144 73.7796 76.8827 73.4616 76.8827 73.1301V71.8801C76.8827 71.5486 77.0144 71.2307 77.2488 70.9962C77.4832 70.7618 77.8012 70.6301 78.1327 70.6301C78.4642 70.6301 78.7822 70.7618 79.0166 70.9962C79.251 71.2307 79.3827 71.5486 79.3827 71.8801V73.1301C79.3827 73.4616 79.251 73.7796 79.0166 74.014C78.7822 74.2484 78.4642 74.3801 78.1327 74.3801Z" fill="#C09C59"/>
<path d="M38.1513 70.6316C37.8198 70.6316 37.5018 70.4999 37.2674 70.2654C37.033 70.031 36.9013 69.7131 36.9013 69.3816C36.8869 69.06 36.7491 68.7565 36.5165 68.534C36.2838 68.3116 35.9744 68.1874 35.6526 68.1874C35.3307 68.1874 35.0213 68.3116 34.7887 68.534C34.5561 68.7565 34.4182 69.06 34.4038 69.3816C34.4038 69.7131 34.2721 70.031 34.0377 70.2654C33.8033 70.4999 33.4853 70.6316 33.1538 70.6316C32.8223 70.6316 32.5043 70.4999 32.2699 70.2654C32.0355 70.031 31.9038 69.7131 31.9038 69.3816C31.9038 67.3153 33.5863 65.6328 35.6526 65.6328C37.7188 65.6328 39.4013 67.3153 39.4013 69.3816C39.4013 69.7131 39.2696 70.031 39.0352 70.2654C38.8008 70.4999 38.4828 70.6316 38.1513 70.6316Z" fill="#C09C59"/>
<path d="M43.1655 69.3801C42.8339 69.3801 42.516 69.2484 42.2816 69.014C42.0472 68.7796 41.9155 68.4616 41.9155 68.1301C41.9011 67.8086 41.7632 67.505 41.5306 67.2826C41.298 67.0601 40.9886 66.936 40.6667 66.936C40.3449 66.936 40.0354 67.0601 39.8028 67.2826C39.5702 67.505 39.4324 67.8086 39.418 68.1301C39.418 68.4616 39.2863 68.7796 39.0519 69.014C38.8174 69.2484 38.4995 69.3801 38.168 69.3801C37.8364 69.3801 37.5185 69.2484 37.2841 69.014C37.0497 68.7796 36.918 68.4616 36.918 68.1301C36.918 66.0638 38.6005 64.3813 40.6667 64.3813C42.733 64.3813 44.4155 66.0638 44.4155 68.1301C44.4155 68.4616 44.2838 68.7796 44.0494 69.014C43.8149 69.2484 43.497 69.3801 43.1655 69.3801Z" fill="#C09C59"/>
<path d="M48.1655 70.6316C47.8339 70.6316 47.516 70.4999 47.2816 70.2654C47.0472 70.031 46.9155 69.7131 46.9155 69.3816C46.9011 69.06 46.7632 68.7565 46.5306 68.534C46.298 68.3116 45.9886 68.1874 45.6667 68.1874C45.3449 68.1874 45.0354 68.3116 44.8028 68.534C44.5702 68.7565 44.4324 69.06 44.418 69.3816C44.418 69.7131 44.2863 70.031 44.0519 70.2654C43.8174 70.4999 43.4995 70.6316 43.168 70.6316C42.8364 70.6316 42.5185 70.4999 42.2841 70.2654C42.0497 70.031 41.918 69.7131 41.918 69.3816C41.918 67.3153 43.6005 65.6328 45.6667 65.6328C47.733 65.6328 49.4155 67.3153 49.4155 69.3816C49.4155 69.7131 49.2838 70.031 49.0494 70.2654C48.8149 70.4999 48.497 70.6316 48.1655 70.6316ZM38.168 70.6316C37.8364 70.6316 37.5185 70.4999 37.2841 70.2654C37.0497 70.031 36.918 69.7131 36.918 69.3816V68.1303C36.918 67.7988 37.0497 67.4808 37.2841 67.2464C37.5185 67.012 37.8364 66.8803 38.168 66.8803C38.4995 66.8803 38.8174 67.012 39.0519 67.2464C39.2863 67.4808 39.418 67.7988 39.418 68.1303V69.3816C39.418 69.7131 39.2863 70.031 39.0519 70.2654C38.8174 70.4999 38.4995 70.6316 38.168 70.6316Z" fill="#C09C59"/>
<path d="M43.165 70.6311C42.8335 70.6311 42.5156 70.4994 42.2812 70.265C42.0467 70.0306 41.915 69.7127 41.915 69.3811V68.1299C41.915 67.7984 42.0467 67.4804 42.2812 67.246C42.5156 67.0116 42.8335 66.8799 43.165 66.8799C43.4966 66.8799 43.8145 67.0116 44.0489 67.246C44.2833 67.4804 44.415 67.7984 44.415 68.1299V69.3811C44.415 69.7127 44.2833 70.0306 44.0489 70.265C43.8145 70.4994 43.4966 70.6311 43.165 70.6311Z" fill="#C09C59"/>
</g>
<defs>
<clipPath id="clip0_57_2993">
<rect width="80" height="80" fill="white" transform="translate(0.666504)"/>
</clipPath>
</defs>
</svg>
