<svg width="81" height="80" viewBox="0 0 81 80" fill="none" xmlns="http://www.w3.org/2000/svg">
<path d="M63.4272 7.85949L55.9265 0.366285C55.8106 0.250047 55.6728 0.157854 55.5211 0.0949968C55.3694 0.0321396 55.2069 -0.000143467 55.0427 4.79263e-07H12.5387C11.8474 4.79263e-07 11.2886 0.558803 11.2886 1.25012V71.2492C11.2886 71.9393 11.8474 72.4993 12.5387 72.4993L62.5434 72.5068C62.8749 72.5066 63.1927 72.3748 63.4272 72.1406C63.5435 72.0247 63.6358 71.8869 63.6987 71.7352C63.7615 71.5835 63.7938 71.4209 63.7935 71.2567V8.74333C63.7935 8.41079 63.6622 8.09451 63.4272 7.85949ZM61.2933 70.0066L13.7888 69.9991V2.50024H54.5251L61.2933 9.26087V70.0066Z" fill="#C09C59"/>
<path d="M58.7968 69.9991C58.1055 69.9991 57.5467 70.5579 57.5467 71.2492V73.7532L10.0422 73.7457V6.24682H12.5387C13.23 6.24682 13.7888 5.68802 13.7888 4.9967C13.7888 4.30538 13.23 3.74658 12.5387 3.74658H8.79211C8.10079 3.74658 7.54199 4.30538 7.54199 4.9967V74.9958C7.54199 75.6859 8.10079 76.2459 8.79211 76.2459L58.7968 76.2534C59.1283 76.2531 59.4461 76.1214 59.6806 75.8871C59.797 75.7713 59.8892 75.6335 59.9521 75.4818C60.0149 75.3301 60.0472 75.1675 60.0469 75.0033V71.2492C60.0469 70.5579 59.4881 69.9991 58.7968 69.9991Z" fill="#C09C59"/>
<path d="M55.0429 73.7457C54.3516 73.7457 53.7928 74.3045 53.7928 74.9958V77.4998L6.28832 77.4923V9.9934H8.7848C9.47612 9.9934 10.0349 9.4346 10.0349 8.74328C10.0349 8.05197 9.47612 7.49316 8.7848 7.49316H5.0382C4.34689 7.49316 3.78809 8.05197 3.78809 8.74328V78.7424C3.78809 79.4324 4.34689 79.9925 5.0382 79.9925L55.0429 80C55.3744 79.9997 55.6922 79.868 55.9267 79.6337C56.0431 79.5178 56.1353 79.3801 56.1982 79.2284C56.261 79.0767 56.2933 78.9141 56.293 78.7499V74.9958C56.293 74.3045 55.7342 73.7457 55.0429 73.7457ZM62.5436 7.49316H55.0429C54.3516 7.49316 53.7928 8.05197 53.7928 8.74328C53.7928 9.4346 54.3516 9.9934 55.0429 9.9934H62.5436C63.2349 9.9934 63.7937 9.4346 63.7937 8.74328C63.7937 8.05197 63.2349 7.49316 62.5436 7.49316Z" fill="#C09C59"/>
<path d="M55.0431 0C54.3518 0 53.793 0.558803 53.793 1.25012V8.74332C53.793 9.43464 54.3518 9.99344 55.0431 9.99344C55.7344 9.99344 56.2932 9.43464 56.2932 8.74332V1.25012C56.2932 0.558803 55.7344 0 55.0431 0ZM70.0445 12.4862C67.9768 12.4862 66.2941 14.1688 66.2941 16.2365C66.2941 16.9278 66.8529 17.4866 67.5443 17.4866C68.2356 17.4866 68.7944 16.9278 68.7944 16.2365C68.7944 15.5465 69.3544 14.9864 70.0445 14.9864C70.7346 14.9864 71.2946 15.5465 71.2946 16.2365C71.2946 16.9278 71.8534 17.4866 72.5447 17.4866C73.236 17.4866 73.7948 16.9278 73.7948 16.2365C73.7948 14.1688 72.1122 12.4862 70.0445 12.4862Z" fill="#C09C59"/>
<path d="M67.5441 14.9863C66.8527 14.9863 66.2939 15.5451 66.2939 16.2364V58.7405C66.2939 59.4318 66.8527 59.9906 67.5441 59.9906C68.2354 59.9906 68.7942 59.4318 68.7942 58.7405V16.2364C68.7942 15.5451 68.2354 14.9863 67.5441 14.9863ZM72.5445 14.9863C71.8532 14.9863 71.2944 15.5451 71.2944 16.2364V58.7405C71.2944 59.4318 71.8532 59.9906 72.5445 59.9906C73.2358 59.9906 73.7946 59.4318 73.7946 58.7405V16.2364C73.7946 15.5451 73.2358 14.9863 72.5445 14.9863Z" fill="#C09C59"/>
<path d="M71.0845 61.7972L68.5842 58.0468C68.4001 57.7712 68.114 57.5799 67.7889 57.515C67.4638 57.45 67.1263 57.5168 66.8503 57.7005C66.7136 57.7916 66.5962 57.9086 66.5048 58.0451C66.4134 58.1815 66.3498 58.3346 66.3176 58.4957C66.2855 58.6567 66.2854 58.8226 66.3174 58.9836C66.3494 59.1447 66.4128 59.2979 66.5041 59.4345L69.0043 63.1848C69.1185 63.3563 69.2733 63.4968 69.455 63.5939C69.6367 63.691 69.8396 63.7416 70.0456 63.7411C70.2832 63.7411 70.5244 63.6736 70.7382 63.5311C70.8749 63.4401 70.9923 63.323 71.0837 63.1866C71.1751 63.0501 71.2387 62.897 71.2709 62.7359C71.3031 62.5749 71.3032 62.4091 71.2712 62.248C71.2392 62.0869 71.1757 61.9337 71.0845 61.7972Z" fill="#C09C59"/>
<path d="M73.2382 57.7006C72.6619 57.318 71.8856 57.4731 71.5043 58.0469L69.0041 61.7972C68.9128 61.9338 68.8494 62.087 68.8174 62.248C68.7854 62.4091 68.7855 62.5749 68.8176 62.736C68.8498 62.897 68.9134 63.0502 69.0048 63.1866C69.0962 63.323 69.2136 63.4401 69.3503 63.5311C69.5556 63.6676 69.7964 63.7407 70.0429 63.7412C70.2489 63.7416 70.4518 63.691 70.6335 63.594C70.8152 63.4969 70.9701 63.3563 71.0842 63.1849L73.5845 59.4345C73.6757 59.298 73.7392 59.1448 73.7712 58.9837C73.8032 58.8226 73.8031 58.6568 73.7709 58.4957C73.7387 58.3347 73.6751 58.1816 73.5837 58.0451C73.4923 57.9087 73.3749 57.7916 73.2382 57.7006Z" fill="#C09C59"/>
<path d="M70.0443 61.2406C69.353 61.2406 68.7942 61.7994 68.7942 62.4907V63.7408C68.7942 64.4321 69.353 64.9909 70.0443 64.9909C70.7356 64.9909 71.2944 64.4321 71.2944 63.7408V62.4907C71.2944 61.7994 70.7356 61.2406 70.0443 61.2406ZM72.5445 54.99H67.5441C66.8527 54.99 66.2939 55.5488 66.2939 56.2401C66.2939 56.9314 66.8527 57.4902 67.5441 57.4902H72.5445C73.2358 57.4902 73.7946 56.9314 73.7946 56.2401C73.7946 55.5488 73.2358 54.99 72.5445 54.99ZM73.7946 16.2363C73.1033 16.2363 72.5445 16.7951 72.5445 17.4864C72.5445 18.1778 73.1033 18.7366 73.7946 18.7366C74.4847 18.7366 75.0448 19.2966 75.0448 19.9867C75.0448 20.678 75.6036 21.2368 76.2949 21.2368C76.9862 21.2368 77.545 20.678 77.545 19.9867C77.545 17.919 75.8623 16.2363 73.7946 16.2363Z" fill="#C09C59"/>
<path d="M76.2948 18.7366C75.6035 18.7366 75.0447 19.2954 75.0447 19.9867V34.9881C75.0447 35.6794 75.6035 36.2382 76.2948 36.2382C76.9861 36.2382 77.5449 35.6794 77.5449 34.9881V19.9867C77.5449 19.2954 76.9861 18.7366 76.2948 18.7366ZM73.7946 16.2363H72.5445C71.8532 16.2363 71.2944 16.7951 71.2944 17.4864C71.2944 18.1778 71.8532 18.7366 72.5445 18.7366H73.7946C74.4859 18.7366 75.0447 18.1778 75.0447 17.4864C75.0447 16.7951 74.4859 16.2363 73.7946 16.2363ZM72.5445 27.4874H67.544C66.8527 27.4874 66.2939 28.0462 66.2939 28.7375C66.2939 29.4288 66.8527 29.9876 67.544 29.9876H72.5445C73.2358 29.9876 73.7946 29.4288 73.7946 28.7375C73.7946 28.0462 73.2358 27.4874 72.5445 27.4874ZM53.7927 31.2452H21.2897C20.5984 31.2452 20.0396 31.804 20.0396 32.4954C20.0396 33.1867 20.5984 33.7455 21.2897 33.7455H53.7927C54.484 33.7455 55.0428 33.1867 55.0428 32.4954C55.0428 31.804 54.484 31.2452 53.7927 31.2452ZM53.7927 37.4958H21.2897C20.5984 37.4958 20.0396 38.0546 20.0396 38.7459C20.0396 39.4373 20.5984 39.9961 21.2897 39.9961H53.7927C54.484 39.9961 55.0428 39.4373 55.0428 38.7459C55.0428 38.0546 54.484 37.4958 53.7927 37.4958ZM53.7927 43.7464H21.2897C20.5984 43.7464 20.0396 44.3052 20.0396 44.9965C20.0396 45.6879 20.5984 46.2467 21.2897 46.2467H53.7927C54.484 46.2467 55.0428 45.6879 55.0428 44.9965C55.0428 44.3052 54.484 43.7464 53.7927 43.7464ZM37.5412 49.997H21.2897C20.5984 49.997 20.0396 50.5558 20.0396 51.2471C20.0396 51.9384 20.5984 52.4972 21.2897 52.4972H37.5412C38.2325 52.4972 38.7913 51.9384 38.7913 51.2471C38.7913 50.5558 38.2325 49.997 37.5412 49.997ZM53.7927 61.2481H45.0419C44.3506 61.2481 43.7918 61.8069 43.7918 62.4982C43.7918 63.1895 44.3506 63.7483 45.0419 63.7483H53.7927C54.484 63.7483 55.0428 63.1895 55.0428 62.4982C55.0428 61.8069 54.484 61.2481 53.7927 61.2481Z" fill="#C09C59"/>
<path d="M47.5421 58.748C46.8508 58.748 46.292 59.3068 46.292 59.9982V64.9986C46.292 65.69 46.8508 66.2488 47.5421 66.2488C48.2334 66.2488 48.7922 65.69 48.7922 64.9986V59.9982C48.7922 59.3068 48.2334 58.748 47.5421 58.748Z" fill="#C09C59"/>
<path d="M52.0413 58.9994C51.49 58.5856 50.7061 58.6956 50.2924 59.2494L46.542 64.2498C46.127 64.8012 46.2395 65.585 46.792 65.9988C47.0078 66.1613 47.2707 66.249 47.5408 66.2488C47.9221 66.2488 48.2972 66.0763 48.5409 65.7487L52.2913 60.7483C52.7063 60.197 52.5938 59.4131 52.0413 58.9994Z" fill="#C09C59"/>
<path d="M51.2925 58.748C50.6012 58.748 50.0424 59.3068 50.0424 59.9981V64.9986C50.0424 65.6899 50.6012 66.2487 51.2925 66.2487C51.9838 66.2487 52.5426 65.6899 52.5426 64.9986V59.9981C52.5426 59.3068 51.9838 58.748 51.2925 58.748ZM31.2906 19.9868H21.2897C20.5984 19.9868 20.0396 20.5456 20.0396 21.2369C20.0396 21.9283 20.5984 22.4871 21.2897 22.4871H31.2906C31.9819 22.4871 32.5407 21.9283 32.5407 21.2369C32.5407 20.5456 31.9819 19.9868 31.2906 19.9868Z" fill="#C09C59"/>
<path d="M21.2897 9.98584C20.5984 9.98584 20.0396 10.5446 20.0396 11.236V21.2369C20.0396 21.9282 20.5984 22.487 21.2897 22.487C21.981 22.487 22.5398 21.9282 22.5398 21.2369V11.236C22.5398 10.5446 21.981 9.98584 21.2897 9.98584ZM31.2906 12.7373C30.5993 12.7373 30.0405 13.2962 30.0405 13.9875V21.2369C30.0405 21.9282 30.5993 22.487 31.2906 22.487C31.9819 22.487 32.5407 21.9282 32.5407 21.2369V13.9875C32.5407 13.2962 31.9819 12.7373 31.2906 12.7373Z" fill="#C09C59"/>
<path d="M27.2668 9.21349C26.838 8.67594 26.0516 8.58593 25.5103 9.01722L19.2598 14.0102C19.1315 14.1126 19.0247 14.2393 18.9454 14.383C18.8662 14.5267 18.816 14.6846 18.7978 14.8477C18.7795 15.0108 18.7936 15.1759 18.8392 15.3336C18.8848 15.4913 18.961 15.6384 19.0635 15.7666C19.1805 15.9135 19.3292 16.0321 19.4985 16.1135C19.6678 16.1949 19.8533 16.237 20.0411 16.2367C20.3243 16.2371 20.5992 16.1405 20.8199 15.9629L27.0705 10.9699C27.1987 10.8675 27.3055 10.7408 27.3848 10.5971C27.4641 10.4534 27.5142 10.2955 27.5325 10.1324C27.5507 9.96925 27.5366 9.80415 27.491 9.64649C27.4454 9.48883 27.3692 9.3417 27.2668 9.21349Z" fill="#C09C59"/>
<path d="M33.3209 14.0101L27.0703 9.01713C26.5315 8.58584 25.7452 8.67459 25.3139 9.21339C24.8826 9.7522 24.9701 10.5385 25.5102 10.9698L31.7608 15.9628C31.9814 16.1404 32.2563 16.237 32.5396 16.2366C32.7274 16.2369 32.9129 16.1948 33.0822 16.1134C33.2514 16.032 33.4001 15.9134 33.5172 15.7665C33.6198 15.6384 33.6961 15.4912 33.7417 15.3336C33.7874 15.1759 33.8015 15.0107 33.7833 14.8476C33.765 14.6845 33.7148 14.5265 33.6355 14.3828C33.5561 14.2391 33.4492 14.1124 33.3209 14.0101ZM26.2902 16.2366C25.5989 16.2366 25.0401 16.7954 25.0401 17.4867V21.237C25.0401 21.9283 25.5989 22.4871 26.2902 22.4871C26.9816 22.4871 27.5404 21.9283 27.5404 21.237V17.4867C27.5404 16.7954 26.9816 16.2366 26.2902 16.2366Z" fill="#C09C59"/>
</svg>
