<svg width="81" height="80" viewBox="0 0 81 80" fill="none" xmlns="http://www.w3.org/2000/svg">
<g clip-path="url(#clip0_57_3008)">
<path d="M25.3486 33.125C19.8349 33.125 15.3486 28.6388 15.3486 23.125C15.3486 17.6113 19.8349 13.125 25.3486 13.125C30.8624 13.125 35.3486 17.6113 35.3486 23.125C35.3486 28.6388 30.8624 33.125 25.3486 33.125ZM25.3486 15.625C21.2124 15.625 17.8486 18.9887 17.8486 23.125C17.8486 27.2612 21.2124 30.625 25.3486 30.625C29.4849 30.625 32.8486 27.2612 32.8486 23.125C32.8486 18.9887 29.4836 15.625 25.3486 15.625Z" fill="#C09C59"/>
<path d="M25.3486 28.125C22.5911 28.125 20.3486 25.8825 20.3486 23.125C20.3486 20.3675 22.5911 18.125 25.3486 18.125C28.1061 18.125 30.3486 20.3675 30.3486 23.125C30.3486 25.8825 28.1061 28.125 25.3486 28.125ZM25.3486 20.625C23.9699 20.625 22.8486 21.7463 22.8486 23.125C22.8486 24.5037 23.9699 25.625 25.3486 25.625C26.7274 25.625 27.8486 24.5037 27.8486 23.125C27.8486 21.7463 26.7261 20.625 25.3486 20.625ZM55.3374 33.125C49.8236 33.125 45.3374 28.6388 45.3374 23.125C45.3374 17.6113 49.8236 13.125 55.3374 13.125C60.8511 13.125 65.3374 17.6113 65.3374 23.125C65.3374 28.6388 60.8511 33.125 55.3374 33.125ZM55.3374 15.625C51.2011 15.625 47.8374 18.9887 47.8374 23.125C47.8374 27.2612 51.2011 30.625 55.3374 30.625C59.4736 30.625 62.8374 27.2612 62.8374 23.125C62.8374 18.9887 59.4736 15.625 55.3374 15.625Z" fill="#C09C59"/>
<path d="M55.3372 28.125C52.5797 28.125 50.3372 25.8825 50.3372 23.125C50.3372 20.3675 52.5797 18.125 55.3372 18.125C58.0947 18.125 60.3372 20.3675 60.3372 23.125C60.3372 25.8825 58.0947 28.125 55.3372 28.125ZM55.3372 20.625C53.9585 20.625 52.8372 21.7463 52.8372 23.125C52.8372 24.5037 53.9585 25.625 55.3372 25.625C56.716 25.625 57.8372 24.5037 57.8372 23.125C57.8372 21.7463 56.7147 20.625 55.3372 20.625ZM79.0835 15.625H1.5835C1.25198 15.625 0.934033 15.4933 0.699613 15.2589C0.465192 15.0245 0.333496 14.7065 0.333496 14.375C0.333496 14.0435 0.465192 13.7255 0.699613 13.4911C0.934033 13.2567 1.25198 13.125 1.5835 13.125H79.0835C79.415 13.125 79.733 13.2567 79.9674 13.4911C80.2018 13.7255 80.3335 14.0435 80.3335 14.375C80.3335 14.7065 80.2018 15.0245 79.9674 15.2589C79.733 15.4933 79.415 15.625 79.0835 15.625ZM79.0835 11.875H1.5835C1.25198 11.875 0.934033 11.7433 0.699613 11.5089C0.465192 11.2745 0.333496 10.9565 0.333496 10.625C0.333496 10.2935 0.465192 9.97554 0.699613 9.74112C0.934033 9.5067 1.25198 9.375 1.5835 9.375H79.0835C79.415 9.375 79.733 9.5067 79.9674 9.74112C80.2018 9.97554 80.3335 10.2935 80.3335 10.625C80.3335 10.9565 80.2018 11.2745 79.9674 11.5089C79.733 11.7433 79.415 11.875 79.0835 11.875ZM79.0835 3.125H1.5835C1.25198 3.125 0.934033 2.9933 0.699613 2.75888C0.465192 2.52446 0.333496 2.20652 0.333496 1.875C0.333496 1.54348 0.465192 1.22554 0.699613 0.991117C0.934033 0.756696 1.25198 0.625 1.5835 0.625H79.0835C79.415 0.625 79.733 0.756696 79.9674 0.991117C80.2018 1.22554 80.3335 1.54348 80.3335 1.875C80.3335 2.20652 80.2018 2.52446 79.9674 2.75888C79.733 2.9933 79.415 3.125 79.0835 3.125ZM52.8347 33.125H27.851C27.5195 33.125 27.2015 32.9933 26.9671 32.7589C26.7327 32.5245 26.601 32.2065 26.601 31.875C26.601 31.5435 26.7327 31.2255 26.9671 30.9911C27.2015 30.7567 27.5195 30.625 27.851 30.625H52.8347C53.1663 30.625 53.4842 30.7567 53.7186 30.9911C53.953 31.2255 54.0847 31.5435 54.0847 31.875C54.0847 32.2065 53.953 32.5245 53.7186 32.7589C53.4842 32.9933 53.1663 33.125 52.8347 33.125Z" fill="#C09C59"/>
<path d="M27.8508 79.3752C27.5193 79.3752 27.2013 79.2435 26.9669 79.0091C26.7325 78.7747 26.6008 78.4567 26.6008 78.1252V31.5102C26.6008 31.1787 26.7325 30.8608 26.9669 30.6263C27.2013 30.3919 27.5193 30.2602 27.8508 30.2602C28.1823 30.2602 28.5002 30.3919 28.7347 30.6263C28.9691 30.8608 29.1008 31.1787 29.1008 31.5102V78.1252C29.1008 78.4567 28.9691 78.7747 28.7347 79.0091C28.5002 79.2435 28.1823 79.3752 27.8508 79.3752ZM34.0933 79.3752C33.7618 79.3752 33.4438 79.2435 33.2094 79.0091C32.975 78.7747 32.8433 78.4567 32.8433 78.1252V38.1277C32.8433 37.7962 32.975 37.4783 33.2094 37.2438C33.4438 37.0094 33.7618 36.8777 34.0933 36.8777C34.4248 36.8777 34.7427 37.0094 34.9772 37.2438C35.2116 37.4783 35.3433 37.7962 35.3433 38.1277V78.1252C35.3433 78.4567 35.2116 78.7747 34.9772 79.0091C34.7427 79.2435 34.4248 79.3752 34.0933 79.3752ZM40.3358 79.3752C40.0043 79.3752 39.6863 79.2435 39.4519 79.0091C39.2175 78.7747 39.0858 78.4567 39.0858 78.1252V38.1277C39.0858 37.7962 39.2175 37.4783 39.4519 37.2438C39.6863 37.0094 40.0043 36.8777 40.3358 36.8777C40.6673 36.8777 40.9852 37.0094 41.2197 37.2438C41.4541 37.4783 41.5858 37.7962 41.5858 38.1277V78.1252C41.5858 78.4567 41.4541 78.7747 41.2197 79.0091C40.9852 79.2435 40.6673 79.3752 40.3358 79.3752ZM46.5645 79.3752C46.233 79.3752 45.9151 79.2435 45.6806 79.0091C45.4462 78.7747 45.3145 78.4567 45.3145 78.1252V38.1277C45.3145 37.7962 45.4462 37.4783 45.6806 37.2438C45.9151 37.0094 46.233 36.8777 46.5645 36.8777C46.8961 36.8777 47.214 37.0094 47.4484 37.2438C47.6828 37.4783 47.8145 37.7962 47.8145 38.1277V78.1252C47.8145 78.4567 47.6828 78.7747 47.4484 79.0091C47.214 79.2435 46.8961 79.3752 46.5645 79.3752ZM52.8345 79.3752C52.503 79.3752 52.1851 79.2435 51.9506 79.0091C51.7162 78.7747 51.5845 78.4567 51.5845 78.1252V31.5115C51.5845 31.1799 51.7162 30.862 51.9506 30.6276C52.1851 30.3932 52.503 30.2615 52.8345 30.2615C53.166 30.2615 53.484 30.3932 53.7184 30.6276C53.9528 30.862 54.0845 31.1799 54.0845 31.5115V78.1252C54.0845 78.4567 53.9528 78.7747 53.7184 79.0091C53.484 79.2435 53.166 79.3752 52.8345 79.3752ZM2.83203 5.62646C2.50051 5.62646 2.18257 5.49477 1.94815 5.26035C1.71373 5.02593 1.58203 4.70799 1.58203 4.37646V1.87646C1.58203 1.54494 1.71373 1.227 1.94815 0.992581C2.18257 0.758161 2.50051 0.626465 2.83203 0.626465C3.16355 0.626465 3.48149 0.758161 3.71591 0.992581C3.95034 1.227 4.08203 1.54494 4.08203 1.87646V4.37646C4.08203 4.70799 3.95034 5.02593 3.71591 5.26035C3.48149 5.49477 3.16355 5.62646 2.83203 5.62646ZM9.08203 5.62646C8.75051 5.62646 8.43257 5.49477 8.19815 5.26035C7.96373 5.02593 7.83203 4.70799 7.83203 4.37646V1.87646C7.83203 1.54494 7.96373 1.227 8.19815 0.992581C8.43257 0.758161 8.75051 0.626465 9.08203 0.626465C9.41355 0.626465 9.73149 0.758161 9.96591 0.992581C10.2003 1.227 10.332 1.54494 10.332 1.87646V4.37646C10.332 4.70799 10.2003 5.02593 9.96591 5.26035C9.73149 5.49477 9.41355 5.62646 9.08203 5.62646ZM15.332 5.62646C15.0005 5.62646 14.6826 5.49477 14.4481 5.26035C14.2137 5.02593 14.082 4.70799 14.082 4.37646V1.87646C14.082 1.54494 14.2137 1.227 14.4481 0.992581C14.6826 0.758161 15.0005 0.626465 15.332 0.626465C15.6636 0.626465 15.9815 0.758161 16.2159 0.992581C16.4503 1.227 16.582 1.54494 16.582 1.87646V4.37646C16.582 4.70799 16.4503 5.02593 16.2159 5.26035C15.9815 5.49477 15.6636 5.62646 15.332 5.62646ZM21.582 5.62646C21.2505 5.62646 20.9326 5.49477 20.6981 5.26035C20.4637 5.02593 20.332 4.70799 20.332 4.37646V1.87646C20.332 1.54494 20.4637 1.227 20.6981 0.992581C20.9326 0.758161 21.2505 0.626465 21.582 0.626465C21.9136 0.626465 22.2315 0.758161 22.4659 0.992581C22.7003 1.227 22.832 1.54494 22.832 1.87646V4.37646C22.832 4.70799 22.7003 5.02593 22.4659 5.26035C22.2315 5.49477 21.9136 5.62646 21.582 5.62646ZM27.832 5.62646C27.5005 5.62646 27.1826 5.49477 26.9481 5.26035C26.7137 5.02593 26.582 4.70799 26.582 4.37646V1.87646C26.582 1.54494 26.7137 1.227 26.9481 0.992581C27.1826 0.758161 27.5005 0.626465 27.832 0.626465C28.1636 0.626465 28.4815 0.758161 28.7159 0.992581C28.9503 1.227 29.082 1.54494 29.082 1.87646V4.37646C29.082 4.70799 28.9503 5.02593 28.7159 5.26035C28.4815 5.49477 28.1636 5.62646 27.832 5.62646ZM34.082 5.62646C33.7505 5.62646 33.4326 5.49477 33.1981 5.26035C32.9637 5.02593 32.832 4.70799 32.832 4.37646V1.87646C32.832 1.54494 32.9637 1.227 33.1981 0.992581C33.4326 0.758161 33.7505 0.626465 34.082 0.626465C34.4136 0.626465 34.7315 0.758161 34.9659 0.992581C35.2003 1.227 35.332 1.54494 35.332 1.87646V4.37646C35.332 4.70799 35.2003 5.02593 34.9659 5.26035C34.7315 5.49477 34.4136 5.62646 34.082 5.62646ZM40.332 5.62646C40.0005 5.62646 39.6826 5.49477 39.4481 5.26035C39.2137 5.02593 39.082 4.70799 39.082 4.37646V1.87646C39.082 1.71231 39.1144 1.54977 39.1772 1.39811C39.24 1.24645 39.3321 1.10865 39.4481 0.992581C39.5642 0.876508 39.702 0.784434 39.8537 0.721615C40.0053 0.658797 40.1679 0.626465 40.332 0.626465C40.4962 0.626465 40.6587 0.658797 40.8104 0.721615C40.962 0.784434 41.0998 0.876508 41.2159 0.992581C41.332 1.10865 41.4241 1.24645 41.4869 1.39811C41.5497 1.54977 41.582 1.71231 41.582 1.87646V4.37646C41.582 4.70799 41.4503 5.02593 41.2159 5.26035C40.9815 5.49477 40.6636 5.62646 40.332 5.62646ZM46.582 5.62646C46.2505 5.62646 45.9326 5.49477 45.6981 5.26035C45.4637 5.02593 45.332 4.70799 45.332 4.37646V1.87646C45.332 1.54494 45.4637 1.227 45.6981 0.992581C45.9326 0.758161 46.2505 0.626465 46.582 0.626465C46.9136 0.626465 47.2315 0.758161 47.4659 0.992581C47.7003 1.227 47.832 1.54494 47.832 1.87646V4.37646C47.832 4.70799 47.7003 5.02593 47.4659 5.26035C47.2315 5.49477 46.9136 5.62646 46.582 5.62646ZM52.832 5.62646C52.5005 5.62646 52.1826 5.49477 51.9481 5.26035C51.7137 5.02593 51.582 4.70799 51.582 4.37646V1.87646C51.582 1.54494 51.7137 1.227 51.9481 0.992581C52.1826 0.758161 52.5005 0.626465 52.832 0.626465C53.1636 0.626465 53.4815 0.758161 53.7159 0.992581C53.9503 1.227 54.082 1.54494 54.082 1.87646V4.37646C54.082 4.70799 53.9503 5.02593 53.7159 5.26035C53.4815 5.49477 53.1636 5.62646 52.832 5.62646ZM59.082 5.62646C58.7505 5.62646 58.4326 5.49477 58.1981 5.26035C57.9637 5.02593 57.832 4.70799 57.832 4.37646V1.87646C57.832 1.54494 57.9637 1.227 58.1981 0.992581C58.4326 0.758161 58.7505 0.626465 59.082 0.626465C59.4136 0.626465 59.7315 0.758161 59.9659 0.992581C60.2003 1.227 60.332 1.54494 60.332 1.87646V4.37646C60.332 4.70799 60.2003 5.02593 59.9659 5.26035C59.7315 5.49477 59.4136 5.62646 59.082 5.62646ZM65.332 5.62646C65.0005 5.62646 64.6826 5.49477 64.4481 5.26035C64.2137 5.02593 64.082 4.70799 64.082 4.37646V1.87646C64.082 1.54494 64.2137 1.227 64.4481 0.992581C64.6826 0.758161 65.0005 0.626465 65.332 0.626465C65.6636 0.626465 65.9815 0.758161 66.2159 0.992581C66.4503 1.227 66.582 1.54494 66.582 1.87646V4.37646C66.582 4.70799 66.4503 5.02593 66.2159 5.26035C65.9815 5.49477 65.6636 5.62646 65.332 5.62646ZM71.582 5.62646C71.2505 5.62646 70.9326 5.49477 70.6982 5.26035C70.4637 5.02593 70.332 4.70799 70.332 4.37646V1.87646C70.332 1.54494 70.4637 1.227 70.6982 0.992581C70.9326 0.758161 71.2505 0.626465 71.582 0.626465C71.9136 0.626465 72.2315 0.758161 72.4659 0.992581C72.7003 1.227 72.832 1.54494 72.832 1.87646V4.37646C72.832 4.70799 72.7003 5.02593 72.4659 5.26035C72.2315 5.49477 71.9136 5.62646 71.582 5.62646ZM77.832 5.62646C77.5005 5.62646 77.1826 5.49477 76.9482 5.26035C76.7137 5.02593 76.582 4.70799 76.582 4.37646V1.87646C76.582 1.54494 76.7137 1.227 76.9482 0.992581C77.1826 0.758161 77.5005 0.626465 77.832 0.626465C78.1636 0.626465 78.4815 0.758161 78.7159 0.992581C78.9503 1.227 79.082 1.54494 79.082 1.87646V4.37646C79.082 4.70799 78.9503 5.02593 78.7159 5.26035C78.4815 5.49477 78.1636 5.62646 77.832 5.62646ZM42.8333 20.6252H37.8333C37.5018 20.6252 37.1838 20.4935 36.9494 20.2591C36.715 20.0247 36.5833 19.7067 36.5833 19.3752C36.5833 19.0437 36.715 18.7258 36.9494 18.4913C37.1838 18.2569 37.5018 18.1252 37.8333 18.1252H42.8333C43.1648 18.1252 43.4827 18.2569 43.7172 18.4913C43.9516 18.7258 44.0833 19.0437 44.0833 19.3752C44.0833 19.7067 43.9516 20.0247 43.7172 20.2591C43.4827 20.4935 43.1648 20.6252 42.8333 20.6252ZM42.8333 24.3752H37.8333C37.5018 24.3752 37.1838 24.2435 36.9494 24.0091C36.715 23.7747 36.5833 23.4567 36.5833 23.1252C36.5833 22.7937 36.715 22.4758 36.9494 22.2413C37.1838 22.0069 37.5018 21.8752 37.8333 21.8752H42.8333C43.1648 21.8752 43.4827 22.0069 43.7172 22.2413C43.9516 22.4758 44.0833 22.7937 44.0833 23.1252C44.0833 23.4567 43.9516 23.7747 43.7172 24.0091C43.4827 24.2435 43.1648 24.3752 42.8333 24.3752ZM42.8333 28.1252H37.8333C37.5018 28.1252 37.1838 27.9935 36.9494 27.7591C36.715 27.5247 36.5833 27.2067 36.5833 26.8752C36.5833 26.5437 36.715 26.2258 36.9494 25.9913C37.1838 25.7569 37.5018 25.6252 37.8333 25.6252H42.8333C43.1648 25.6252 43.4827 25.7569 43.7172 25.9913C43.9516 26.2258 44.0833 26.5437 44.0833 26.8752C44.0833 27.2067 43.9516 27.5247 43.7172 27.7591C43.4827 27.9935 43.1648 28.1252 42.8333 28.1252Z" fill="#C09C59"/>
</g>
<defs>
<clipPath id="clip0_57_3008">
<rect width="80" height="80" fill="white" transform="translate(0.333496)"/>
</clipPath>
</defs>
</svg>
