<svg width="81" height="70" viewBox="0 0 81 70" fill="none" xmlns="http://www.w3.org/2000/svg">
<path d="M79.4165 69.3799H1.9165C1.58498 69.3799 1.26704 69.2482 1.03262 69.0138C0.7982 68.7793 0.666504 68.4614 0.666504 68.1299C0.666504 67.7984 0.7982 67.4804 1.03262 67.246C1.26704 67.0116 1.58498 66.8799 1.9165 66.8799H79.4165C79.748 66.8799 80.066 67.0116 80.3004 67.246C80.5348 67.4804 80.6665 67.7984 80.6665 68.1299C80.6665 68.4614 80.5348 68.7793 80.3004 69.0138C80.066 69.2482 79.748 69.3799 79.4165 69.3799Z" fill="#C09C59"/>
<path d="M20.6738 69.3799C20.3423 69.3799 20.0244 69.2482 19.7899 69.0138C19.5555 68.7793 19.4238 68.4614 19.4238 68.1299V34.3799C19.4238 34.0484 19.5555 33.7304 19.7899 33.496C20.0244 33.2616 20.3423 33.1299 20.6738 33.1299C21.0053 33.1299 21.3233 33.2616 21.5577 33.496C21.7921 33.7304 21.9238 34.0484 21.9238 34.3799V68.1299C21.9238 68.4614 21.7921 68.7793 21.5577 69.0138C21.3233 69.2482 21.0053 69.3799 20.6738 69.3799Z" fill="#C09C59"/>
<path d="M20.6689 53.1357C10.3302 53.1357 1.91895 44.7245 1.91895 34.3857C1.91895 24.047 10.3302 15.6357 20.6689 15.6357C31.0077 15.6357 39.4189 24.047 39.4189 34.3857C39.4189 44.7245 31.0077 53.1357 20.6689 53.1357ZM20.6689 18.1357C11.7089 18.1357 4.41895 25.4257 4.41895 34.3857C4.41895 43.3457 11.7089 50.6357 20.6689 50.6357C29.6289 50.6357 36.9189 43.3457 36.9189 34.3857C36.9189 25.4257 29.6289 18.1357 20.6689 18.1357Z" fill="#C09C59"/>
<path d="M20.6739 45.6299C20.4264 45.6304 20.1844 45.5574 19.9785 45.4202C19.7726 45.2829 19.6121 45.0876 19.5174 44.859C19.4227 44.6304 19.3981 44.3788 19.4466 44.1361C19.4952 43.8935 19.6147 43.6707 19.7901 43.4961L26.0364 37.2486C26.2708 37.0142 26.5887 36.8826 26.9201 36.8826C27.2516 36.8826 27.5695 37.0142 27.8039 37.2486C28.0383 37.483 28.1699 37.8009 28.1699 38.1324C28.1699 38.4639 28.0383 38.7817 27.8039 39.0161L21.5576 45.2636C21.4417 45.3799 21.3039 45.4721 21.1523 45.5349C21.0006 45.5978 20.838 45.6301 20.6739 45.6299ZM60.6601 69.3799C60.3286 69.3799 60.0107 69.2482 59.7762 69.0138C59.5418 68.7793 59.4101 68.4614 59.4101 68.1299V34.3799C59.4101 34.0484 59.5418 33.7304 59.7762 33.496C60.0107 33.2616 60.3286 33.1299 60.6601 33.1299C60.9916 33.1299 61.3096 33.2616 61.544 33.496C61.7784 33.7304 61.9101 34.0484 61.9101 34.3799V68.1299C61.9101 68.4614 61.7784 68.7793 61.544 69.0138C61.3096 69.2482 60.9916 69.3799 60.6601 69.3799Z" fill="#C09C59"/>
<path d="M60.6665 55.6376C50.3278 55.6376 41.9165 47.2264 41.9165 36.8876C41.9165 27.8464 49.489 0.620117 60.6665 0.620117C71.844 0.620117 79.4165 27.8451 79.4165 36.8876C79.4165 47.2264 71.0053 55.6376 60.6665 55.6376ZM60.6665 3.12012C52.1428 3.12012 44.4165 27.4289 44.4165 36.8876C44.4165 45.8476 51.7065 53.1376 60.6665 53.1376C69.6265 53.1376 76.9165 45.8476 76.9165 36.8876C76.9165 27.4289 69.1903 3.12012 60.6665 3.12012Z" fill="#C09C59"/>
<path d="M60.6602 45.6301C60.496 45.6303 60.3334 45.598 60.1818 45.5352C60.0301 45.4723 59.8924 45.3801 59.7764 45.2639L53.5302 39.0164C53.2958 38.782 53.1641 38.4641 53.1641 38.1326C53.1641 37.8012 53.2958 37.4833 53.5302 37.2489C53.7646 37.0145 54.0825 36.8828 54.4139 36.8828C54.7454 36.8828 55.0633 37.0145 55.2977 37.2489L61.5439 43.4964C61.7193 43.671 61.8389 43.8937 61.8874 44.1363C61.936 44.379 61.9114 44.6306 61.8167 44.8592C61.722 45.0878 61.5615 45.2832 61.3556 45.4204C61.1497 45.5577 60.9076 45.6307 60.6602 45.6301ZM3.16895 69.3801C2.83742 69.3801 2.51948 69.2484 2.28506 69.014C2.05064 68.7796 1.91895 68.4616 1.91895 68.1301V66.8801C1.91895 66.5486 2.05064 66.2307 2.28506 65.9962C2.51948 65.7618 2.83742 65.6301 3.16895 65.6301C3.50047 65.6301 3.81841 65.7618 4.05283 65.9962C4.28725 66.2307 4.41895 66.5486 4.41895 66.8801V68.1301C4.41895 68.4616 4.28725 68.7796 4.05283 69.014C3.81841 69.2484 3.50047 69.3801 3.16895 69.3801ZM8.16645 69.3801C7.83492 69.3801 7.51698 69.2484 7.28256 69.014C7.04814 68.7796 6.91645 68.4616 6.91645 68.1301V66.8801C6.91645 66.5486 7.04814 66.2307 7.28256 65.9962C7.51698 65.7618 7.83492 65.6301 8.16645 65.6301C8.49797 65.6301 8.81591 65.7618 9.05033 65.9962C9.28475 66.2307 9.41645 66.5486 9.41645 66.8801V68.1301C9.41645 68.4616 9.28475 68.7796 9.05033 69.014C8.81591 69.2484 8.49797 69.3801 8.16645 69.3801ZM13.1639 69.3801C12.8324 69.3801 12.5145 69.2484 12.2801 69.014C12.0456 68.7796 11.9139 68.4616 11.9139 68.1301V66.8801C11.9139 66.5486 12.0456 66.2307 12.2801 65.9962C12.5145 65.7618 12.8324 65.6301 13.1639 65.6301C13.4955 65.6301 13.8134 65.7618 14.0478 65.9962C14.2822 66.2307 14.4139 66.5486 14.4139 66.8801V68.1301C14.4139 68.4616 14.2822 68.7796 14.0478 69.014C13.8134 69.2484 13.4955 69.3801 13.1639 69.3801ZM18.1614 69.3801C17.8299 69.3801 17.512 69.2484 17.2776 69.014C17.0431 68.7796 16.9114 68.4616 16.9114 68.1301V66.8801C16.9114 66.5486 17.0431 66.2307 17.2776 65.9962C17.512 65.7618 17.8299 65.6301 18.1614 65.6301C18.493 65.6301 18.8109 65.7618 19.0453 65.9962C19.2797 66.2307 19.4114 66.5486 19.4114 66.8801V68.1301C19.4114 68.4616 19.2797 68.7796 19.0453 69.014C18.8109 69.2484 18.493 69.3801 18.1614 69.3801ZM23.1589 69.3801C22.8274 69.3801 22.5095 69.2484 22.2751 69.014C22.0406 68.7796 21.9089 68.4616 21.9089 68.1301V66.8801C21.9089 66.5486 22.0406 66.2307 22.2751 65.9962C22.5095 65.7618 22.8274 65.6301 23.1589 65.6301C23.4905 65.6301 23.8084 65.7618 24.0428 65.9962C24.2772 66.2307 24.4089 66.5486 24.4089 66.8801V68.1301C24.4089 68.4616 24.2772 68.7796 24.0428 69.014C23.8084 69.2484 23.4905 69.3801 23.1589 69.3801ZM28.1564 69.3801C27.8249 69.3801 27.507 69.2484 27.2726 69.014C27.0381 68.7796 26.9064 68.4616 26.9064 68.1301V66.8801C26.9064 66.5486 27.0381 66.2307 27.2726 65.9962C27.507 65.7618 27.8249 65.6301 28.1564 65.6301C28.488 65.6301 28.8059 65.7618 29.0403 65.9962C29.2747 66.2307 29.4064 66.5486 29.4064 66.8801V68.1301C29.4064 68.4616 29.2747 68.7796 29.0403 69.014C28.8059 69.2484 28.488 69.3801 28.1564 69.3801ZM33.1539 69.3801C32.8224 69.3801 32.5045 69.2484 32.2701 69.014C32.0356 68.7796 31.9039 68.4616 31.9039 68.1301V64.3814C31.9039 64.0499 32.0356 63.7319 32.2701 63.4975C32.5045 63.2631 32.8224 63.1314 33.1539 63.1314C33.4855 63.1314 33.8034 63.2631 34.0378 63.4975C34.2722 63.7319 34.4039 64.0499 34.4039 64.3814V68.1301C34.4039 68.4616 34.2722 68.7796 34.0378 69.014C33.8034 69.2484 33.4855 69.3801 33.1539 69.3801ZM48.1464 69.3801C47.8149 69.3801 47.497 69.2484 47.2626 69.014C47.0281 68.7796 46.8964 68.4616 46.8964 68.1301V64.3814C46.8964 64.0499 47.0281 63.7319 47.2626 63.4975C47.497 63.2631 47.8149 63.1314 48.1464 63.1314C48.478 63.1314 48.7959 63.2631 49.0303 63.4975C49.2647 63.7319 49.3964 64.0499 49.3964 64.3814V68.1301C49.3964 68.4616 49.2647 68.7796 49.0303 69.014C48.7959 69.2484 48.478 69.3801 48.1464 69.3801ZM53.1439 69.3801C52.8124 69.3801 52.4945 69.2484 52.2601 69.014C52.0256 68.7796 51.8939 68.4616 51.8939 68.1301V66.8801C51.8939 66.5486 52.0256 66.2307 52.2601 65.9962C52.4945 65.7618 52.8124 65.6301 53.1439 65.6301C53.4755 65.6301 53.7934 65.7618 54.0278 65.9962C54.2622 66.2307 54.3939 66.5486 54.3939 66.8801V68.1301C54.3939 68.4616 54.2622 68.7796 54.0278 69.014C53.7934 69.2484 53.4755 69.3801 53.1439 69.3801ZM58.1414 69.3801C57.8099 69.3801 57.492 69.2484 57.2576 69.014C57.0231 68.7796 56.8914 68.4616 56.8914 68.1301V66.8801C56.8914 66.5486 57.0231 66.2307 57.2576 65.9962C57.492 65.7618 57.8099 65.6301 58.1414 65.6301C58.473 65.6301 58.7909 65.7618 59.0253 65.9962C59.2598 66.2307 59.3914 66.5486 59.3914 66.8801V68.1301C59.3914 68.4616 59.2598 68.7796 59.0253 69.014C58.7909 69.2484 58.473 69.3801 58.1414 69.3801ZM63.1402 69.3801C62.8087 69.3801 62.4907 69.2484 62.2563 69.014C62.0219 68.7796 61.8902 68.4616 61.8902 68.1301V66.8801C61.8902 66.5486 62.0219 66.2307 62.2563 65.9962C62.4907 65.7618 62.8087 65.6301 63.1402 65.6301C63.4717 65.6301 63.7897 65.7618 64.0241 65.9962C64.2585 66.2307 64.3902 66.5486 64.3902 66.8801V68.1301C64.3902 68.4616 64.2585 68.7796 64.0241 69.014C63.7897 69.2484 63.4717 69.3801 63.1402 69.3801ZM68.1377 69.3801C67.8062 69.3801 67.4882 69.2484 67.2538 69.014C67.0194 68.7796 66.8877 68.4616 66.8877 68.1301V66.8801C66.8877 66.5486 67.0194 66.2307 67.2538 65.9962C67.4882 65.7618 67.8062 65.6301 68.1377 65.6301C68.4692 65.6301 68.7872 65.7618 69.0216 65.9962C69.256 66.2307 69.3877 66.5486 69.3877 66.8801V68.1301C69.3877 68.4616 69.256 68.7796 69.0216 69.014C68.7872 69.2484 68.4692 69.3801 68.1377 69.3801ZM73.1352 69.3801C72.8037 69.3801 72.4857 69.2484 72.2513 69.014C72.0169 68.7796 71.8852 68.4616 71.8852 68.1301V66.8801C71.8852 66.5486 72.0169 66.2307 72.2513 65.9962C72.4857 65.7618 72.8037 65.6301 73.1352 65.6301C73.4667 65.6301 73.7847 65.7618 74.0191 65.9962C74.2535 66.2307 74.3852 66.5486 74.3852 66.8801V68.1301C74.3852 68.4616 74.2535 68.7796 74.0191 69.014C73.7847 69.2484 73.4667 69.3801 73.1352 69.3801ZM78.1327 69.3801C77.8012 69.3801 77.4832 69.2484 77.2488 69.014C77.0144 68.7796 76.8827 68.4616 76.8827 68.1301V66.8801C76.8827 66.5486 77.0144 66.2307 77.2488 65.9962C77.4832 65.7618 77.8012 65.6301 78.1327 65.6301C78.4642 65.6301 78.7822 65.7618 79.0166 65.9962C79.251 66.2307 79.3827 66.5486 79.3827 66.8801V68.1301C79.3827 68.4616 79.251 68.7796 79.0166 69.014C78.7822 69.2484 78.4642 69.3801 78.1327 69.3801Z" fill="#C09C59"/>
<path d="M38.1513 65.6316C37.8198 65.6316 37.5018 65.4999 37.2674 65.2654C37.033 65.031 36.9013 64.7131 36.9013 64.3816C36.8869 64.06 36.7491 63.7565 36.5165 63.534C36.2838 63.3116 35.9744 63.1874 35.6526 63.1874C35.3307 63.1874 35.0213 63.3116 34.7887 63.534C34.5561 63.7565 34.4182 64.06 34.4038 64.3816C34.4038 64.7131 34.2721 65.031 34.0377 65.2654C33.8033 65.4999 33.4853 65.6316 33.1538 65.6316C32.8223 65.6316 32.5043 65.4999 32.2699 65.2654C32.0355 65.031 31.9038 64.7131 31.9038 64.3816C31.9038 62.3153 33.5863 60.6328 35.6526 60.6328C37.7188 60.6328 39.4013 62.3153 39.4013 64.3816C39.4013 64.7131 39.2696 65.031 39.0352 65.2654C38.8008 65.4999 38.4828 65.6316 38.1513 65.6316Z" fill="#C09C59"/>
<path d="M43.1655 64.3801C42.8339 64.3801 42.516 64.2484 42.2816 64.014C42.0472 63.7796 41.9155 63.4616 41.9155 63.1301C41.9011 62.8086 41.7632 62.505 41.5306 62.2826C41.298 62.0601 40.9886 61.936 40.6667 61.936C40.3449 61.936 40.0354 62.0601 39.8028 62.2826C39.5702 62.505 39.4324 62.8086 39.418 63.1301C39.418 63.4616 39.2863 63.7796 39.0519 64.014C38.8174 64.2484 38.4995 64.3801 38.168 64.3801C37.8364 64.3801 37.5185 64.2484 37.2841 64.014C37.0497 63.7796 36.918 63.4616 36.918 63.1301C36.918 61.0638 38.6005 59.3813 40.6667 59.3813C42.733 59.3813 44.4155 61.0638 44.4155 63.1301C44.4155 63.4616 44.2838 63.7796 44.0494 64.014C43.8149 64.2484 43.497 64.3801 43.1655 64.3801Z" fill="#C09C59"/>
<path d="M48.1655 65.6316C47.8339 65.6316 47.516 65.4999 47.2816 65.2654C47.0472 65.031 46.9155 64.7131 46.9155 64.3816C46.9011 64.06 46.7632 63.7565 46.5306 63.534C46.298 63.3116 45.9886 63.1874 45.6667 63.1874C45.3449 63.1874 45.0354 63.3116 44.8028 63.534C44.5702 63.7565 44.4324 64.06 44.418 64.3816C44.418 64.7131 44.2863 65.031 44.0519 65.2654C43.8174 65.4999 43.4995 65.6316 43.168 65.6316C42.8364 65.6316 42.5185 65.4999 42.2841 65.2654C42.0497 65.031 41.918 64.7131 41.918 64.3816C41.918 62.3153 43.6005 60.6328 45.6667 60.6328C47.733 60.6328 49.4155 62.3153 49.4155 64.3816C49.4155 64.7131 49.2838 65.031 49.0494 65.2654C48.8149 65.4999 48.497 65.6316 48.1655 65.6316ZM38.168 65.6316C37.8364 65.6316 37.5185 65.4999 37.2841 65.2654C37.0497 65.031 36.918 64.7131 36.918 64.3816V63.1303C36.918 62.7988 37.0497 62.4808 37.2841 62.2464C37.5185 62.012 37.8364 61.8803 38.168 61.8803C38.4995 61.8803 38.8174 62.012 39.0519 62.2464C39.2863 62.4808 39.418 62.7988 39.418 63.1303V64.3816C39.418 64.7131 39.2863 65.031 39.0519 65.2654C38.8174 65.4999 38.4995 65.6316 38.168 65.6316Z" fill="#C09C59"/>
<path d="M43.165 65.6311C42.8335 65.6311 42.5156 65.4994 42.2812 65.265C42.0467 65.0306 41.915 64.7127 41.915 64.3811V63.1299C41.915 62.7984 42.0467 62.4804 42.2812 62.246C42.5156 62.0116 42.8335 61.8799 43.165 61.8799C43.4966 61.8799 43.8145 62.0116 44.0489 62.246C44.2833 62.4804 44.415 62.7984 44.415 63.1299V64.3811C44.415 64.7127 44.2833 65.0306 44.0489 65.265C43.8145 65.4994 43.4966 65.6311 43.165 65.6311Z" fill="#C09C59"/>
</svg>
