<svg width="80" height="78" viewBox="0 0 80 78" fill="none" xmlns="http://www.w3.org/2000/svg">
<path d="M39.9999 70.8783C39.8111 70.8784 39.6248 70.8357 39.4549 70.7533L0.704942 52.0033C0.406577 51.8587 0.177782 51.6017 0.0688003 51.2886C-0.0401813 50.9754 -0.0204388 50.6319 0.123692 50.3333C0.423692 49.7145 1.16869 49.4545 1.79369 49.752L39.9999 68.2395L78.2049 49.7533C78.5036 49.6098 78.8469 49.5905 79.1599 49.6994C79.4728 49.8083 79.7299 50.0367 79.8749 50.3345C80.1749 50.9558 79.9149 51.7033 79.2937 52.0045L40.5437 70.7545C40.374 70.8361 40.1882 70.8784 39.9999 70.8783Z" fill="#C09C59"/>
<path d="M39.9999 77.1287C39.8111 77.1288 39.6248 77.0861 39.4549 77.0037L0.704937 58.2537C0.419135 58.1018 0.203287 57.8451 0.102718 57.5375C0.00214881 57.2299 0.0246826 56.8953 0.165587 56.6039C0.306492 56.3126 0.554806 56.0872 0.858388 55.975C1.16197 55.8628 1.4972 55.8727 1.79369 56.0024L39.9999 74.4899L78.2049 56.0037C78.5014 55.8739 78.8367 55.8641 79.1402 55.9763C79.4438 56.0884 79.6921 56.3138 79.833 56.6052C79.9739 56.8965 79.9965 57.2312 79.8959 57.5388C79.7953 57.8464 79.5795 58.1031 79.2937 58.2549L40.5437 77.0049C40.374 77.0865 40.1882 77.1288 39.9999 77.1287Z" fill="#C09C59"/>
<path d="M1.25 58.3784C0.918479 58.3784 0.600537 58.2467 0.366117 58.0123C0.131696 57.7779 0 57.4599 0 57.1284V50.8784C0 50.5469 0.131696 50.229 0.366117 49.9945C0.600537 49.7601 0.918479 49.6284 1.25 49.6284C1.58152 49.6284 1.89946 49.7601 2.13388 49.9945C2.3683 50.229 2.5 50.5469 2.5 50.8784V57.1284C2.5 57.4599 2.3683 57.7779 2.13388 58.0123C1.89946 58.2467 1.58152 58.3784 1.25 58.3784ZM78.75 58.3784C78.4185 58.3784 78.1005 58.2467 77.8661 58.0123C77.6317 57.7779 77.5 57.4599 77.5 57.1284V50.8784C77.5 50.5469 77.6317 50.229 77.8661 49.9945C78.1005 49.7601 78.4185 49.6284 78.75 49.6284C79.0815 49.6284 79.3995 49.7601 79.6339 49.9945C79.8683 50.229 80 50.5469 80 50.8784V57.1284C80 57.4599 79.8683 57.7779 79.6339 58.0123C79.3995 58.2467 79.0815 58.3784 78.75 58.3784ZM40 77.1284C39.6685 77.1284 39.3505 76.9967 39.1161 76.7623C38.8817 76.5279 38.75 76.2099 38.75 75.8784V69.6284C38.75 69.2969 38.8817 68.979 39.1161 68.7445C39.3505 68.5101 39.6685 68.3784 40 68.3784C40.3315 68.3784 40.6495 68.5101 40.8839 68.7445C41.1183 68.979 41.25 69.2969 41.25 69.6284V75.8784C41.25 76.2099 41.1183 76.5279 40.8839 76.7623C40.6495 76.9967 40.3315 77.1284 40 77.1284ZM52.5375 67.9547C51.8462 67.9547 51.2812 67.3959 51.2812 66.7047C51.2812 66.0134 51.8338 65.4547 52.5238 65.4547H52.5375C52.869 65.4547 53.187 65.5864 53.4214 65.8208C53.6558 66.0552 53.7875 66.3732 53.7875 66.7047C53.7875 67.0362 53.6558 67.3541 53.4214 67.5886C53.187 67.823 52.869 67.9547 52.5375 67.9547ZM71.2875 58.8822C70.5962 58.8822 70.0312 58.3234 70.0312 57.6322C70.0312 56.9409 70.5837 56.3822 71.2738 56.3822H71.2875C71.619 56.3822 71.937 56.5139 72.1714 56.7483C72.4058 56.9827 72.5375 57.3007 72.5375 57.6322C72.5375 57.9637 72.4058 58.2816 72.1714 58.5161C71.937 58.7505 71.619 58.8822 71.2875 58.8822ZM65.0375 61.9059C64.3462 61.9059 63.7812 61.3472 63.7812 60.6559C63.7812 59.9647 64.3337 59.4059 65.0238 59.4059H65.0375C65.369 59.4059 65.687 59.5376 65.9214 59.772C66.1558 60.0065 66.2875 60.3244 66.2875 60.6559C66.2875 60.9874 66.1558 61.3054 65.9214 61.5398C65.687 61.7742 65.369 61.9059 65.0375 61.9059ZM58.7875 64.9309C58.0962 64.9309 57.5312 64.3722 57.5312 63.6809C57.5312 62.9897 58.0838 62.4309 58.7738 62.4309H58.7875C59.119 62.4309 59.437 62.5626 59.6714 62.797C59.9058 63.0315 60.0375 63.3494 60.0375 63.6809C60.0375 64.0124 59.9058 64.3304 59.6714 64.5648C59.437 64.7992 59.119 64.9309 58.7875 64.9309ZM46.2875 70.9797C45.5962 70.9797 45.0312 70.4209 45.0312 69.7297C45.0312 69.0384 45.5838 68.4797 46.2738 68.4797H46.2875C46.619 68.4797 46.937 68.6114 47.1714 68.8458C47.4058 69.0802 47.5375 69.3982 47.5375 69.7297C47.5375 70.0612 47.4058 70.3791 47.1714 70.6136C46.937 70.848 46.619 70.9797 46.2875 70.9797ZM27.5375 67.9547C26.8463 67.9547 26.2812 67.3959 26.2812 66.7047C26.2812 66.0134 26.8337 65.4547 27.5237 65.4547H27.5375C27.869 65.4547 28.187 65.5864 28.4214 65.8208C28.6558 66.0552 28.7875 66.3732 28.7875 66.7047C28.7875 67.0362 28.6558 67.3541 28.4214 67.5886C28.187 67.823 27.869 67.9547 27.5375 67.9547ZM8.7875 58.8822C8.09625 58.8822 7.53125 58.3234 7.53125 57.6322C7.53125 56.9409 8.08375 56.3822 8.77375 56.3822H8.7875C9.11902 56.3822 9.43696 56.5139 9.67138 56.7483C9.9058 56.9827 10.0375 57.3007 10.0375 57.6322C10.0375 57.9637 9.9058 58.2816 9.67138 58.5161C9.43696 58.7505 9.11902 58.8822 8.7875 58.8822ZM15.0375 61.9059C14.3462 61.9059 13.7812 61.3472 13.7812 60.6559C13.7812 59.9647 14.3337 59.4059 15.0238 59.4059H15.0375C15.369 59.4059 15.687 59.5376 15.9214 59.772C16.1558 60.0065 16.2875 60.3244 16.2875 60.6559C16.2875 60.9874 16.1558 61.3054 15.9214 61.5398C15.687 61.7742 15.369 61.9059 15.0375 61.9059ZM21.2875 64.9309C20.5963 64.9309 20.0312 64.3722 20.0312 63.6809C20.0312 62.9897 20.5837 62.4309 21.2737 62.4309H21.2875C21.619 62.4309 21.937 62.5626 22.1714 62.797C22.4058 63.0315 22.5375 63.3494 22.5375 63.6809C22.5375 64.0124 22.4058 64.3304 22.1714 64.5648C21.937 64.7992 21.619 64.9309 21.2875 64.9309ZM33.7875 70.9797C33.0963 70.9797 32.5312 70.4209 32.5312 69.7297C32.5312 69.0384 33.0837 68.4797 33.7738 68.4797H33.7875C34.119 68.4797 34.437 68.6114 34.6714 68.8458C34.9058 69.0802 35.0375 69.3982 35.0375 69.7297C35.0375 70.0612 34.9058 70.3791 34.6714 70.6136C34.437 70.848 34.119 70.9797 33.7875 70.9797ZM22.3537 41.9197C22.0708 41.9197 21.7962 41.8237 21.5749 41.6475C21.3535 41.4712 21.1986 41.225 21.1353 40.9493C21.072 40.6735 21.1041 40.3844 21.2265 40.1292C21.3488 39.8741 21.5541 39.668 21.8088 39.5447L26.9563 37.0547C27.2527 36.9249 27.588 36.9151 27.8916 37.0272C28.1951 37.1394 28.4434 37.3648 28.5843 37.6562C28.7253 37.9475 28.7478 38.2822 28.6472 38.5898C28.5467 38.8974 28.3308 39.1541 28.045 39.3059L22.8975 41.7959C22.7213 41.8797 22.535 41.9197 22.3537 41.9197Z" fill="#C09C59"/>
<path d="M1.25112 52.1287C0.968164 52.1287 0.693574 52.0328 0.472241 51.8565C0.250908 51.6802 0.0959289 51.4341 0.0326439 51.1583C-0.0306411 50.8825 0.00151246 50.5934 0.123847 50.3383C0.246182 50.0831 0.451459 49.877 0.706115 49.7537L14.9511 42.8624C15.2476 42.7327 15.5828 42.7229 15.8864 42.835C16.19 42.9472 16.4383 43.1726 16.5792 43.464C16.7201 43.7553 16.7427 44.0899 16.6421 44.3976C16.5415 44.7052 16.3257 44.9618 16.0399 45.1137L1.79487 52.0037C1.62535 52.0858 1.43947 52.1285 1.25112 52.1287ZM57.6411 41.9162C57.4528 41.9161 57.2669 41.8734 57.0974 41.7912L51.9561 39.3037C51.6577 39.1591 51.429 38.9021 51.32 38.589C51.211 38.2758 51.2307 37.9323 51.3749 37.6337C51.5202 37.336 51.7773 37.1079 52.0901 36.999C52.4029 36.8901 52.7461 36.9093 53.0449 37.0525L58.1861 39.54C58.4404 39.6637 58.6452 39.87 58.7672 40.1251C58.8892 40.3802 58.9212 40.6691 58.858 40.9447C58.7948 41.2203 58.6401 41.4664 58.4191 41.6428C58.1981 41.8192 57.9239 41.9156 57.6411 41.9162ZM78.7486 52.1287C78.5603 52.1286 78.3744 52.0859 78.2049 52.0037L63.9574 45.11C63.6716 44.9581 63.4557 44.7014 63.3551 44.3938C63.2546 44.0862 63.2771 43.7516 63.418 43.4602C63.5589 43.1689 63.8072 42.9434 64.1108 42.8313C64.4144 42.7191 64.7496 42.7289 65.0461 42.8587L79.2936 49.7524C79.5479 49.8762 79.7527 50.0825 79.8747 50.3376C79.9967 50.5927 80.0287 50.8815 79.9655 51.1572C79.9023 51.4328 79.7476 51.6789 79.5266 51.8553C79.3056 52.0317 79.0314 52.1281 78.7486 52.1287ZM39.9999 58.3812C39.8086 58.3812 39.6161 58.3375 39.4411 58.25L26.9411 51.9987C26.6446 51.8503 26.4191 51.5903 26.3143 51.2757C26.2095 50.9611 26.234 50.6177 26.3824 50.3212C26.5307 50.0247 26.7908 49.7992 27.1054 49.6944C27.42 49.5896 27.7633 49.6141 28.0599 49.7625L39.9999 55.7337L51.9411 49.7625C52.2377 49.6141 52.581 49.5896 52.8956 49.6944C53.2102 49.7992 53.4703 50.0247 53.6186 50.3212C53.767 50.6177 53.7914 50.9611 53.6867 51.2757C53.5819 51.5903 53.3564 51.8503 53.0599 51.9987L40.5599 58.25C40.3836 58.3375 40.1911 58.3812 39.9999 58.3812ZM39.9999 15.8724C39.8086 15.8724 39.6161 15.8287 39.4411 15.7412L26.9411 9.48995C26.6446 9.34159 26.4191 9.08151 26.3143 8.76692C26.2095 8.45233 26.234 8.109 26.3824 7.81245C26.5307 7.5159 26.7908 7.29044 27.1054 7.18565C27.42 7.08087 27.7633 7.10534 28.0599 7.2537L39.9999 13.2249L51.9411 7.2537C52.2377 7.10534 52.581 7.08087 52.8956 7.18565C53.2102 7.29044 53.4703 7.5159 53.6186 7.81245C53.767 8.109 53.7914 8.45233 53.6867 8.76692C53.5819 9.08151 53.3564 9.34159 53.0599 9.48995L40.5599 15.7412C40.3836 15.8287 40.1911 15.8724 39.9999 15.8724Z" fill="#C09C59"/>
<path d="M52.4986 9.62226C52.3111 9.62226 52.1199 9.57976 51.9411 9.49101L39.9999 3.51851L28.0586 9.48976C27.7621 9.63812 27.4188 9.66259 27.1042 9.55781C26.7896 9.45302 26.5295 9.22756 26.3811 8.93101C26.2328 8.63447 26.2083 8.29113 26.3131 7.97654C26.4179 7.66195 26.6433 7.40187 26.9399 7.25351L39.4399 1.00226C39.6136 0.915362 39.8051 0.870117 39.9993 0.870117C40.1935 0.870117 40.385 0.915362 40.5586 1.00226L53.0586 7.25351C53.311 7.37927 53.5134 7.58664 53.633 7.84194C53.7526 8.09724 53.7824 8.38548 53.7175 8.65985C53.6527 8.93422 53.497 9.17861 53.2757 9.35332C53.0544 9.52803 52.7806 9.62281 52.4986 9.62226ZM39.9999 58.381C39.6684 58.381 39.3504 58.2493 39.116 58.0149C38.8816 57.7805 38.7499 57.4625 38.7499 57.131V14.621C38.7499 14.2895 38.8816 13.9715 39.116 13.7371C39.3504 13.5027 39.6684 13.371 39.9999 13.371C40.3314 13.371 40.6494 13.5027 40.8838 13.7371C41.1182 13.9715 41.2499 14.2895 41.2499 14.621V57.131C41.2499 57.4625 41.1182 57.7805 40.8838 58.0149C40.6494 58.2493 40.3314 58.381 39.9999 58.381Z" fill="#C09C59"/>
<path d="M52.5 52.1296C52.1685 52.1296 51.8505 51.9979 51.6161 51.7635C51.3817 51.5291 51.25 51.2112 51.25 50.8796V8.36963C51.25 8.03811 51.3817 7.72017 51.6161 7.48575C51.8505 7.25133 52.1685 7.11963 52.5 7.11963C52.8315 7.11963 53.1495 7.25133 53.3839 7.48575C53.6183 7.72017 53.75 8.03811 53.75 8.36963V50.8796C53.75 51.2112 53.6183 51.5291 53.3839 51.7635C53.1495 51.9979 52.8315 52.1296 52.5 52.1296ZM27.5 52.1296C27.1685 52.1296 26.8505 51.9979 26.6161 51.7635C26.3817 51.5291 26.25 51.2112 26.25 50.8796V8.36963C26.25 8.03811 26.3817 7.72017 26.6161 7.48575C26.8505 7.25133 27.1685 7.11963 27.5 7.11963C27.8315 7.11963 28.1495 7.25133 28.3839 7.48575C28.6183 7.72017 28.75 8.03811 28.75 8.36963V50.8796C28.75 51.2112 28.6183 51.5291 28.3839 51.7635C28.1495 51.9979 27.8315 52.1296 27.5 52.1296ZM36.2475 50.2496C36.06 50.2496 35.8687 50.2071 35.69 50.1184L30.6888 47.6171C30.3922 47.4688 30.1667 47.2087 30.062 46.8941C29.9572 46.5795 29.9816 46.2362 30.13 45.9396C30.2784 45.6431 30.5384 45.4176 30.853 45.3128C31.1676 45.208 31.511 45.2325 31.8075 45.3809L36.8088 47.8821C37.0605 48.0083 37.2623 48.2158 37.3814 48.4709C37.5005 48.7261 37.5299 49.014 37.465 49.288C37.4 49.562 37.2444 49.806 37.0235 49.9805C36.8025 50.1551 36.5291 50.2499 36.2475 50.2496ZM36.2475 45.2496C36.06 45.2496 35.8687 45.2071 35.69 45.1184L30.6888 42.6171C30.3922 42.4688 30.1667 42.2087 30.062 41.8941C29.9572 41.5795 29.9816 41.2362 30.13 40.9396C30.2784 40.6431 30.5384 40.4176 30.853 40.3128C31.1676 40.208 31.511 40.2325 31.8075 40.3809L36.8088 42.8821C37.0605 43.0083 37.2623 43.2158 37.3814 43.4709C37.5005 43.7261 37.5299 44.014 37.465 44.288C37.4 44.562 37.2444 44.806 37.0235 44.9805C36.8025 45.1551 36.5291 45.2499 36.2475 45.2496ZM36.2475 40.2496C36.06 40.2496 35.8687 40.2071 35.69 40.1184L30.6888 37.6171C30.3922 37.4688 30.1667 37.2087 30.062 36.8941C29.9572 36.5795 29.9816 36.2362 30.13 35.9396C30.2784 35.6431 30.5384 35.4176 30.853 35.3128C31.1676 35.208 31.511 35.2325 31.8075 35.3809L36.8088 37.8821C37.0605 38.0083 37.2623 38.2158 37.3814 38.4709C37.5005 38.7261 37.5299 39.014 37.465 39.288C37.4 39.562 37.2444 39.806 37.0235 39.9805C36.8025 40.1551 36.5291 40.2499 36.2475 40.2496ZM36.2475 35.2496C36.06 35.2496 35.8687 35.2071 35.69 35.1184L30.6888 32.6171C30.3922 32.4688 30.1667 32.2087 30.062 31.8941C29.9572 31.5795 29.9816 31.2362 30.13 30.9396C30.2784 30.6431 30.5384 30.4176 30.853 30.3128C31.1676 30.208 31.511 30.2325 31.8075 30.3809L36.8088 32.8821C37.0605 33.0083 37.2623 33.2158 37.3814 33.4709C37.5005 33.7261 37.5299 34.014 37.465 34.288C37.4 34.562 37.2444 34.806 37.0235 34.9805C36.8025 35.1551 36.5291 35.2499 36.2475 35.2496ZM36.2475 30.2496C36.06 30.2496 35.8687 30.2071 35.69 30.1184L30.6888 27.6171C30.3922 27.4688 30.1667 27.2087 30.062 26.8941C29.9572 26.5795 29.9816 26.2362 30.13 25.9396C30.2784 25.6431 30.5384 25.4176 30.853 25.3128C31.1676 25.208 31.511 25.2325 31.8075 25.3809L36.8088 27.8821C37.0605 28.0083 37.2623 28.2158 37.3814 28.4709C37.5005 28.7261 37.5299 29.014 37.465 29.288C37.4 29.562 37.2444 29.806 37.0235 29.9805C36.8025 30.1551 36.5291 30.2499 36.2475 30.2496ZM36.2475 25.2496C36.06 25.2496 35.8687 25.2071 35.69 25.1184L30.6888 22.6171C30.3922 22.4688 30.1667 22.2087 30.062 21.8941C29.9572 21.5795 29.9816 21.2362 30.13 20.9396C30.2784 20.6431 30.5384 20.4176 30.853 20.3128C31.1676 20.208 31.511 20.2325 31.8075 20.3809L36.8088 22.8821C37.0605 23.0083 37.2623 23.2158 37.3814 23.4709C37.5005 23.7261 37.5299 24.014 37.465 24.288C37.4 24.562 37.2444 24.806 37.0235 24.9805C36.8025 25.1551 36.5291 25.2499 36.2475 25.2496ZM36.2475 20.2496C36.06 20.2496 35.8687 20.2071 35.69 20.1184L30.6888 17.6171C30.3922 17.4688 30.1667 17.2087 30.062 16.8941C29.9572 16.5795 29.9816 16.2362 30.13 15.9396C30.2784 15.6431 30.5384 15.4176 30.853 15.3128C31.1676 15.208 31.511 15.2325 31.8075 15.3809L36.8088 17.8821C37.0605 18.0083 37.2623 18.2158 37.3814 18.4709C37.5005 18.7261 37.5299 19.014 37.465 19.288C37.4 19.562 37.2444 19.806 37.0235 19.9805C36.8025 20.1551 36.5291 20.2499 36.2475 20.2496ZM43.7525 50.2496C43.4705 50.2505 43.1964 50.1559 42.9749 49.9813C42.7535 49.8067 42.5975 49.5623 42.5325 49.2878C42.4675 49.0134 42.4972 48.725 42.6168 48.4696C42.7364 48.2142 42.9388 48.0067 43.1913 47.8809L48.1925 45.3796C48.489 45.2313 48.8324 45.2068 49.147 45.3116C49.4616 45.4164 49.7216 45.6418 49.87 45.9384C50.0184 46.2349 50.0428 46.5783 49.938 46.8928C49.8333 47.2074 49.6078 47.4675 49.3113 47.6159L44.31 50.1171C44.1371 50.2043 43.9461 50.2497 43.7525 50.2496ZM43.7525 45.2496C43.4705 45.2505 43.1964 45.1559 42.9749 44.9813C42.7535 44.8067 42.5975 44.5623 42.5325 44.2878C42.4675 44.0134 42.4972 43.725 42.6168 43.4696C42.7364 43.2142 42.9388 43.0067 43.1913 42.8809L48.1925 40.3796C48.489 40.2313 48.8324 40.2068 49.147 40.3116C49.4616 40.4164 49.7216 40.6418 49.87 40.9384C50.0184 41.2349 50.0428 41.5783 49.938 41.8928C49.8333 42.2074 49.6078 42.4675 49.3113 42.6159L44.31 45.1171C44.1371 45.2043 43.9461 45.2497 43.7525 45.2496ZM43.7525 40.2496C43.4705 40.2505 43.1964 40.1559 42.9749 39.9813C42.7535 39.8067 42.5975 39.5623 42.5325 39.2878C42.4675 39.0134 42.4972 38.725 42.6168 38.4696C42.7364 38.2142 42.9388 38.0067 43.1913 37.8809L48.1925 35.3796C48.4871 35.2468 48.8216 35.233 49.1261 35.3413C49.4306 35.4495 49.6814 35.6714 49.826 35.9604C49.9706 36.2494 49.9977 36.5831 49.9018 36.8917C49.8058 37.2003 49.5942 37.4598 49.3113 37.6159L44.31 40.1171C44.1371 40.2043 43.9461 40.2497 43.7525 40.2496ZM43.7525 35.2496C43.4705 35.2505 43.1964 35.1559 42.9749 34.9813C42.7535 34.8067 42.5975 34.5623 42.5325 34.2878C42.4675 34.0134 42.4972 33.725 42.6168 33.4696C42.7364 33.2142 42.9388 33.0067 43.1913 32.8809L48.1925 30.3796C48.4871 30.2468 48.8216 30.233 49.1261 30.3413C49.4306 30.4495 49.6814 30.6714 49.826 30.9604C49.9706 31.2494 49.9977 31.5831 49.9018 31.8917C49.8058 32.2003 49.5942 32.4598 49.3113 32.6159L44.31 35.1171C44.1371 35.2043 43.9461 35.2497 43.7525 35.2496ZM43.7525 30.2496C43.4705 30.2505 43.1964 30.1559 42.9749 29.9813C42.7535 29.8067 42.5975 29.5623 42.5325 29.2878C42.4675 29.0134 42.4972 28.725 42.6168 28.4696C42.7364 28.2142 42.9388 28.0067 43.1913 27.8809L48.1925 25.3796C48.489 25.2313 48.8324 25.2068 49.147 25.3116C49.4616 25.4164 49.7216 25.6418 49.87 25.9384C50.0184 26.2349 50.0428 26.5783 49.938 26.8928C49.8333 27.2074 49.6078 27.4675 49.3113 27.6159L44.31 30.1171C44.1371 30.2043 43.9461 30.2497 43.7525 30.2496ZM43.7525 25.2496C43.4705 25.2505 43.1964 25.1559 42.9749 24.9813C42.7535 24.8067 42.5975 24.5623 42.5325 24.2878C42.4675 24.0134 42.4972 23.725 42.6168 23.4696C42.7364 23.2142 42.9388 23.0067 43.1913 22.8809L48.1925 20.3796C48.4871 20.2468 48.8216 20.233 49.1261 20.3413C49.4306 20.4495 49.6814 20.6714 49.826 20.9604C49.9706 21.2494 49.9977 21.5831 49.9018 21.8917C49.8058 22.2003 49.5942 22.4598 49.3113 22.6159L44.31 25.1171C44.1371 25.2043 43.9461 25.2497 43.7525 25.2496ZM43.7525 20.2496C43.4705 20.2505 43.1964 20.1559 42.9749 19.9813C42.7535 19.8067 42.5975 19.5623 42.5325 19.2878C42.4675 19.0134 42.4972 18.725 42.6168 18.4696C42.7364 18.2142 42.9388 18.0067 43.1913 17.8809L48.1925 15.3796C48.4871 15.2468 48.8216 15.233 49.1261 15.3413C49.4306 15.4495 49.6814 15.6714 49.826 15.9604C49.9706 16.2494 49.9977 16.5831 49.9018 16.8917C49.8058 17.2003 49.5942 17.4598 49.3113 17.6159L44.31 20.1171C44.1371 20.2043 43.9461 20.2497 43.7525 20.2496ZM61.25 47.1246C58.4925 47.1246 56.25 44.8821 56.25 42.1246C56.25 40.6984 57.69 32.1196 61.25 32.1196C64.81 32.1196 66.25 40.6984 66.25 42.1246C66.25 44.8821 64.0075 47.1246 61.25 47.1246ZM61.25 34.6471C60.2625 35.2534 58.75 40.0634 58.75 42.1246C58.75 43.5034 59.8713 44.6246 61.25 44.6246C62.6287 44.6246 63.75 43.5034 63.75 42.1246C63.75 40.0634 62.2375 35.2534 61.25 34.6471Z" fill="#C09C59"/>
<path d="M61.25 52.1209C60.9185 52.1209 60.6005 51.9892 60.3661 51.7548C60.1317 51.5203 60 51.2024 60 50.8709V42.1246C60 41.7931 60.1317 41.4752 60.3661 41.2407C60.6005 41.0063 60.9185 40.8746 61.25 40.8746C61.5815 40.8746 61.8995 41.0063 62.1339 41.2407C62.3683 41.4752 62.5 41.7931 62.5 42.1246V50.8709C62.5 51.2024 62.3683 51.5203 62.1339 51.7548C61.8995 51.9892 61.5815 52.1209 61.25 52.1209ZM18.75 47.1246C15.9925 47.1246 13.75 44.8821 13.75 42.1246C13.75 40.6984 15.19 32.1196 18.75 32.1196C22.31 32.1196 23.75 40.6984 23.75 42.1246C23.75 44.8821 21.5075 47.1246 18.75 47.1246ZM18.75 34.6471C17.7625 35.2534 16.25 40.0634 16.25 42.1246C16.25 43.5034 17.3712 44.6246 18.75 44.6246C20.1288 44.6246 21.25 43.5034 21.25 42.1246C21.25 40.0634 19.7375 35.2534 18.75 34.6471Z" fill="#C09C59"/>
</svg>
