<svg width="31" height="39" viewBox="0 0 31 39" fill="none" xmlns="http://www.w3.org/2000/svg">
<path d="M1 5.24074C1 3.29842 1 2.32725 1.40498 1.79191C1.75779 1.32553 2.29704 1.03693 2.8808 1.00208C3.55087 0.962067 4.35893 1.50077 5.97504 2.57818L27.0062 16.5989C28.3415 17.4892 29.0092 17.9343 29.2419 18.4953C29.4453 18.9859 29.4453 19.5371 29.2419 20.0276C29.0092 20.5887 28.3415 21.0338 27.0062 21.924L5.97504 35.9448C4.35893 37.0222 3.55087 37.5609 2.8808 37.5209C2.29704 37.486 1.75779 37.1974 1.40498 36.7311C1 36.1957 1 35.2246 1 33.2822V5.24074Z" fill="white" stroke="white" stroke-width="2" stroke-linecap="square" stroke-linejoin="round"/>
</svg>
