<svg width="22" height="21" viewBox="0 0 22 21" fill="none" xmlns="http://www.w3.org/2000/svg">
<path d="M12.744 1.63395L20.272 6.52716C20.538 6.70006 20.671 6.78651 20.7674 6.90183C20.8527 7.00391 20.9167 7.12198 20.9558 7.24914C21 7.39278 21 7.55141 21 7.86867V15.2004C21 16.8805 21 17.7206 20.673 18.3623C20.3854 18.9268 19.9265 19.3858 19.362 19.6734C18.7202 20.0004 17.8802 20.0004 16.2 20.0004H5.8C4.11984 20.0004 3.27976 20.0004 2.63803 19.6734C2.07354 19.3858 1.6146 18.9268 1.32698 18.3623C1 17.7206 1 16.8805 1 15.2004V7.86867C1 7.55141 1 7.39278 1.04417 7.24914C1.08327 7.12198 1.14735 7.00391 1.23265 6.90183C1.32901 6.78651 1.46201 6.70006 1.72802 6.52716L9.25604 1.63395M12.744 1.63395C12.1127 1.22364 11.7971 1.01848 11.457 0.93866C11.1564 0.868103 10.8436 0.868103 10.543 0.93866C10.2029 1.01848 9.88728 1.22364 9.25604 1.63395M12.744 1.63395L18.9361 5.65886C19.624 6.10596 19.9679 6.32951 20.087 6.61301C20.1911 6.86076 20.1911 7.13998 20.087 7.38773C19.9679 7.67123 19.624 7.89478 18.9361 8.34188L12.744 12.3668C12.1127 12.7771 11.7971 12.9823 11.457 13.0621C11.1564 13.1326 10.8436 13.1326 10.543 13.0621C10.2029 12.9823 9.88728 12.7771 9.25604 12.3668L3.06386 8.34188C2.37601 7.89478 2.03209 7.67123 1.91297 7.38773C1.80888 7.13998 1.80888 6.86076 1.91297 6.61301C2.03209 6.32951 2.37601 6.10596 3.06386 5.65886L9.25604 1.63395M20.5 18.0004L13.8572 12.0004M8.14282 12.0004L1.5 18.0004" stroke="#9A804F" stroke-linecap="round" stroke-linejoin="round"/>
</svg>
