<svg width="282" height="88" viewBox="0 0 282 88" fill="none" xmlns="http://www.w3.org/2000/svg">
<g clip-path="url(#clip0_953_9586)">
<path d="M202.539 60.431C202.268 59.815 201.883 59.2556 201.405 58.7821C200.412 57.8151 199.079 57.2771 197.693 57.2843H193.871V67.645H197.693C198.391 67.6502 199.082 67.5142 199.726 67.2454C200.986 66.7346 201.996 65.7505 202.539 64.5042C202.814 63.8601 202.956 63.1667 202.956 62.4661C202.956 61.7655 202.814 61.0722 202.539 60.428V60.431ZM199.913 63.7701C199.769 64.1129 199.547 64.4171 199.265 64.6582C198.989 64.8962 198.668 65.0746 198.32 65.1821C197.95 65.2985 197.563 65.3565 197.175 65.3538H196.559V59.5755H197.19C197.592 59.572 197.993 59.6371 198.374 59.7679C198.724 59.8862 199.045 60.0801 199.312 60.3359C199.58 60.5916 199.788 60.903 199.922 61.248C200.225 62.0688 200.217 62.9721 199.901 63.7879L199.913 63.7701Z" fill="#D1E7BE"/>
<path d="M182.371 67.6597H185.064V61.307H185.094L190.026 67.6597H192.72V57.293H190.026V63.6308H189.999L185.064 57.293H182.371V67.6597Z" fill="#D1E7BE"/>
<path d="M167.386 57.293H164.689V67.6597H170.609V65.3773H167.386V57.293Z" fill="#D1E7BE"/>
<path d="M150.35 67.6587H153.043V61.3061H153.067L158.002 67.6587H160.693V57.292H158.002V63.6298H157.972L153.043 57.292H150.35V67.6587Z" fill="#D1E7BE"/>
<path d="M139.172 60.1344C138.868 59.4904 138.436 58.9152 137.902 58.4441C137.363 57.968 136.741 57.5948 136.067 57.3429C134.681 56.8258 133.154 56.8258 131.768 57.3429C131.094 57.5948 130.472 57.968 129.933 58.4441C129.399 58.9152 128.967 59.4904 128.663 60.1344C128.343 60.8061 128.18 61.5422 128.186 62.2865C128.177 63.0766 128.322 63.8609 128.613 64.5955C128.883 65.272 129.289 65.8863 129.805 66.4004C130.321 66.9145 130.937 67.3178 131.614 67.5853C133.099 68.1418 134.736 68.1418 136.221 67.5853C136.899 67.3178 137.515 66.9149 138.032 66.4012C138.543 65.8849 138.945 65.272 139.216 64.5984C139.509 63.8641 139.654 63.0797 139.646 62.2894C139.655 61.5442 139.493 60.8068 139.172 60.1344ZM136.611 63.5357C136.464 63.8983 136.249 64.2298 135.978 64.5126C135.712 64.7848 135.396 65.0038 135.048 65.1579C134.692 65.3141 134.307 65.3937 133.917 65.3918C133.526 65.3932 133.139 65.3135 132.781 65.1579C132.434 65.0038 132.119 64.7847 131.854 64.5126C131.288 63.9155 130.978 63.1209 130.99 62.2983C130.988 61.9416 131.068 61.5891 131.224 61.2682C131.376 60.9395 131.59 60.6431 131.854 60.3949C132.126 60.1445 132.439 59.944 132.781 59.8029C133.14 59.6492 133.527 59.5716 133.917 59.5749C134.306 59.5709 134.691 59.6486 135.048 59.8029C135.391 59.944 135.705 60.1444 135.978 60.3949C136.243 60.643 136.458 60.9394 136.611 61.2682C136.765 61.5898 136.844 61.9419 136.842 62.2983C136.848 62.7211 136.77 63.1407 136.611 63.5327V63.5357Z" fill="#D1E7BE"/>
<path d="M121.067 61.2952V57.293H118.371V67.6597H121.067V63.4117H124.957V67.6597H127.648V57.293H124.957V61.2952H121.067Z" fill="#D1E7BE"/>
<path d="M114.3 57.2417H111.604V67.6025H114.3V57.2417Z" fill="#D1E7BE"/>
<path d="M92.1518 61.2952V57.293H89.4609V67.6597H92.1518V63.4117H96.0445V67.6597H98.7353V57.293H96.0445V61.2952H92.1518Z" fill="#D1E7BE"/>
<path d="M81.7644 61.5675H81.7377V57.293H79.0439V67.6597H81.7377V63.1631H81.7644L85.2427 67.6597H88.7328L84.2362 62.201L88.3627 57.293H85.0206L81.7644 61.5675Z" fill="#D1E7BE"/>
<path d="M176.885 54.0718L172.093 67.6148H181.613L176.885 54.0718Z" fill="#D1E7BE"/>
<path d="M149.74 67.6147L145.836 57.251H142.896L138.909 67.6147H141.745L144.326 60.3237L146.866 67.6147H149.74Z" fill="#D1E7BE"/>
<path d="M110.369 67.6147L106.467 57.251H103.528L99.5403 67.6147H102.373L104.955 60.3237L107.5 67.6147H110.369Z" fill="#D1E7BE"/>
<path d="M136.7 41.2924V50.3655H138.556V41.2924H136.7ZM111.402 19.9995L119.691 34.9546L110.218 50.3477H122.181L124.128 46.6297V23.2143L122.574 19.9995H111.402ZM136.7 27.4208H138.556V19.9995H136.7V27.4208ZM141.499 19.9995V29.0519H135.312V19.9995H125.487V50.3448H128.865H135.309H135.386V50.3033H135.309V39.6465H141.499V50.3329H151.398V19.9995H141.499ZM152.869 19.9995V50.3448H171.856V40.4547H162.762V19.9995H152.869Z" fill="#D1E7BE"/>
<path d="M167.652 28.1791C166.852 28.1692 166.072 27.9227 165.411 27.4706C164.75 27.0185 164.238 26.3811 163.938 25.6385C163.639 24.8959 163.566 24.0814 163.728 23.2974C163.891 22.5134 164.282 21.795 164.852 21.2325C165.421 20.6701 166.145 20.2888 166.931 20.1365C167.717 19.9843 168.53 20.068 169.269 20.377C170.008 20.6861 170.638 21.2067 171.082 21.8734C171.525 22.54 171.762 23.323 171.761 24.1236C171.752 25.2055 171.314 26.2397 170.544 26.9997C169.774 27.7598 168.734 28.1839 167.652 28.1791ZM167.652 20.5477C166.948 20.5582 166.263 20.7765 165.682 21.1753C165.102 21.5741 164.652 22.1356 164.39 22.7892C164.127 23.4427 164.064 24.1592 164.208 24.8487C164.351 25.5382 164.695 26.1698 165.197 26.6643C165.698 27.1588 166.335 27.4941 167.026 27.628C167.717 27.762 168.433 27.6886 169.083 27.4171C169.733 27.1456 170.288 26.6882 170.678 26.1022C171.069 25.5162 171.278 24.8279 171.278 24.1236C171.27 23.1691 170.883 22.257 170.204 21.5868C169.524 20.9166 168.607 20.5429 167.652 20.5477Z" fill="#D1E7BE"/>
<path d="M167.845 24.3603C168.033 24.3428 168.215 24.2874 168.381 24.1975C168.536 24.112 168.675 23.9998 168.792 23.866C168.907 23.7317 168.997 23.5771 169.056 23.4101C169.121 23.2349 169.153 23.0492 169.15 22.8624C169.15 22.6073 169.087 22.3561 168.967 22.1313C168.846 21.8999 168.661 21.7086 168.434 21.5807C168.217 21.4647 167.98 21.3923 167.735 21.3675C167.487 21.3438 167.241 21.335 167.001 21.335H166.175V26.6841H166.856V24.4284H167.137L168.748 26.6841H169.568L167.845 24.3603ZM166.856 21.93H167.037C167.209 21.9307 167.381 21.9415 167.552 21.9625C167.716 21.982 167.876 22.028 168.025 22.0987C168.167 22.1664 168.289 22.2681 168.381 22.3947C168.476 22.5448 168.522 22.7205 168.514 22.898C168.522 23.0778 168.477 23.256 168.384 23.4101C168.302 23.5367 168.187 23.639 168.052 23.7061C167.907 23.782 167.75 23.8302 167.587 23.8482C167.416 23.8694 167.244 23.8803 167.072 23.8808H166.856V21.93Z" fill="#D1E7BE"/>
</g>
<defs>
<clipPath id="clip0_953_9586">
<rect width="123.912" height="48" fill="white" transform="translate(79.0439 20)"/>
</clipPath>
</defs>
</svg>
