<svg width="215" height="48" viewBox="0 0 215 48" fill="none" xmlns="http://www.w3.org/2000/svg">
<path d="M115.236 43.3746C115.405 43.1858 115.614 43.036 115.846 42.9353C116.086 42.8362 116.343 42.7854 116.602 42.786C116.781 42.7873 116.958 42.8154 117.129 42.8694C117.305 42.9272 117.473 43.0101 117.625 43.1154C117.795 43.2295 117.951 43.3621 118.091 43.5107L118.816 42.7201C118.654 42.5085 118.458 42.3259 118.236 42.1798C117.997 42.0257 117.738 41.9046 117.467 41.8197C117.183 41.7307 116.887 41.6863 116.589 41.6879C116.171 41.6835 115.757 41.7642 115.372 41.9251C115.006 42.0784 114.674 42.304 114.397 42.5883C114.119 42.8765 113.901 43.2169 113.756 43.5898C113.595 43.9813 113.514 44.4009 113.518 44.8241C113.514 45.2574 113.59 45.6878 113.742 46.0935C113.881 46.4685 114.093 46.812 114.366 47.1037C114.631 47.3868 114.955 47.6086 115.315 47.7538C115.701 47.9103 116.115 47.9879 116.532 47.9822C116.828 47.9837 117.123 47.9468 117.41 47.8724C117.681 47.8077 117.943 47.7073 118.188 47.5737C118.399 47.4604 118.589 47.3118 118.75 47.1345L118.188 46.256C118.055 46.3839 117.907 46.4959 117.748 46.5898C117.593 46.6873 117.424 46.7627 117.248 46.8138C117.066 46.8635 116.878 46.8872 116.69 46.8841C116.411 46.8881 116.133 46.8389 115.873 46.7392C115.633 46.6483 115.415 46.5059 115.236 46.3219C115.054 46.1382 114.914 45.9181 114.823 45.6762C114.723 45.4094 114.674 45.1264 114.678 44.8416C114.677 44.5639 114.728 44.2884 114.827 44.029C114.918 43.7856 115.057 43.5631 115.236 43.3746Z" fill="#D1E7BE"/>
<path d="M124.372 42.5795C124.098 42.2934 123.768 42.0675 123.402 41.9163C123.015 41.7557 122.599 41.675 122.181 41.6791C121.763 41.6747 121.349 41.7554 120.964 41.9163C120.598 42.067 120.268 42.2913 119.993 42.5751C119.712 42.8654 119.493 43.2109 119.352 43.5898C119.196 43.9915 119.118 44.4195 119.123 44.8504C119.119 45.2799 119.196 45.7064 119.352 46.1067C119.495 46.4793 119.714 46.8186 119.993 47.1037C120.27 47.3847 120.6 47.6086 120.964 47.7626C121.35 47.9174 121.764 47.9921 122.181 47.9822C122.599 47.9863 123.015 47.9056 123.402 47.745C123.765 47.5986 124.095 47.3805 124.372 47.1037C124.647 46.8138 124.863 46.4738 125.009 46.1023C125.161 45.7039 125.237 45.2809 125.233 44.8548C125.238 44.4257 125.162 43.9995 125.009 43.5986C124.866 43.2206 124.649 42.8744 124.372 42.5795ZM123.933 45.6542C123.842 45.8957 123.708 46.1189 123.538 46.3131C123.373 46.5014 123.169 46.6513 122.94 46.7523C122.699 46.8544 122.438 46.9053 122.176 46.9017C121.915 46.9053 121.656 46.8544 121.416 46.7523C121.186 46.6523 120.98 46.5023 120.814 46.3131C120.639 46.1225 120.505 45.8984 120.419 45.6542C120.324 45.3909 120.277 45.1128 120.279 44.8328C120.276 44.55 120.323 44.2689 120.419 44.0027C120.506 43.7604 120.64 43.5379 120.814 43.3482C120.98 43.159 121.186 43.009 121.416 42.909C121.656 42.8055 121.915 42.7531 122.176 42.7552C122.439 42.7532 122.699 42.8055 122.94 42.909C123.169 43.0112 123.372 43.161 123.538 43.3482C123.708 43.5424 123.842 43.7656 123.933 44.0071C124.032 44.2695 124.081 44.548 124.078 44.8285C124.083 45.1086 124.035 45.3872 123.937 45.6498L123.933 45.6542Z" fill="#D1E7BE"/>
<path d="M125.576 42.8341H127.319V47.8942H128.453V42.8341H130.254V41.7843H125.576V42.8341Z" fill="#D1E7BE"/>
<path d="M132.12 45.2763H134.558V44.2661H132.12V42.8166H135.002V41.7843H131.005V47.8942H135.037V46.8664H132.12V45.2763Z" fill="#D1E7BE"/>
<path d="M137.392 43.3739C137.561 43.1852 137.769 43.0353 138.002 42.9347C138.242 42.836 138.499 42.7852 138.758 42.7854C138.937 42.7867 139.114 42.8148 139.285 42.8688C139.462 42.9274 139.631 43.0102 139.786 43.1148C139.953 43.2311 140.109 43.3635 140.251 43.5101L140.976 42.7195C140.813 42.5078 140.615 42.3252 140.392 42.1792C140.153 42.0242 139.895 41.903 139.623 41.819C139.339 41.7297 139.042 41.6853 138.745 41.6873C138.329 41.6835 137.916 41.7642 137.532 41.9244C137.164 42.0766 136.831 42.3023 136.553 42.5877C136.273 42.8733 136.05 43.2104 135.898 43.5804C135.738 43.9719 135.657 44.3915 135.661 44.8147C135.657 45.248 135.733 45.6784 135.885 46.0841C136.026 46.4633 136.243 46.8099 136.522 47.1031C136.788 47.3875 137.113 47.6095 137.475 47.7532C137.86 47.9104 138.272 47.9881 138.687 47.9816C138.984 47.9831 139.279 47.9462 139.566 47.8718C139.838 47.8064 140.101 47.706 140.348 47.5731C140.557 47.4586 140.745 47.3102 140.906 47.1339L140.348 46.2554C140.215 46.383 140.067 46.495 139.909 46.5892C139.753 46.6867 139.584 46.7621 139.408 46.8132C139.227 46.8662 139.039 46.8928 138.85 46.8923C138.571 46.8963 138.294 46.8471 138.033 46.7473C137.793 46.6551 137.576 46.5128 137.396 46.33C137.217 46.145 137.078 45.9252 136.988 45.6843C136.888 45.4176 136.839 45.1346 136.843 44.8498C136.838 44.5674 136.889 44.2869 136.992 44.024C137.08 43.7828 137.216 43.5617 137.392 43.3739Z" fill="#D1E7BE"/>
<path d="M142.996 43.374C143.165 43.1853 143.374 43.0354 143.606 42.9348C143.846 42.8361 144.103 42.7853 144.362 42.7855C144.541 42.7867 144.718 42.8149 144.889 42.8689C145.065 42.9267 145.232 43.0095 145.385 43.1149C145.555 43.23 145.713 43.3625 145.855 43.5102L146.58 42.7196C146.417 42.5079 146.22 42.3253 145.996 42.1793C145.761 42.03 145.507 41.9132 145.24 41.8323C144.956 41.743 144.66 41.6986 144.362 41.7005C143.946 41.6968 143.533 41.7775 143.15 41.9377C142.781 42.0899 142.448 42.3156 142.17 42.601C141.89 42.8866 141.668 43.2236 141.516 43.5937C141.355 43.9851 141.274 44.4048 141.278 44.8279C141.274 45.2613 141.35 45.6916 141.502 46.0973C141.641 46.4708 141.853 46.8127 142.126 47.1032C142.392 47.3876 142.717 47.6096 143.079 47.7533C143.464 47.9105 143.876 47.9882 144.292 47.9817C144.588 47.9832 144.883 47.9463 145.17 47.8719C145.442 47.8065 145.705 47.7061 145.952 47.5732C146.161 47.4587 146.349 47.3103 146.51 47.1339L145.952 46.2555C145.819 46.3831 145.671 46.4951 145.513 46.5893C145.357 46.6868 145.188 46.7622 145.012 46.8133C144.831 46.8663 144.643 46.8929 144.454 46.8924C144.175 46.8964 143.898 46.8472 143.637 46.7474C143.398 46.6552 143.18 46.5129 143 46.3301C142.82 46.1463 142.681 45.9262 142.592 45.6844C142.492 45.4177 142.443 45.1347 142.447 44.8499C142.445 44.5684 142.499 44.2894 142.605 44.0285C142.69 43.7864 142.823 43.5639 142.996 43.374Z" fill="#D1E7BE"/>
<path d="M152.132 42.5796C151.858 42.2935 151.528 42.0676 151.161 41.9163C150.775 41.7549 150.359 41.6742 149.94 41.6791C149.524 41.6754 149.112 41.7561 148.728 41.9163C148.361 42.066 148.029 42.2903 147.753 42.5752C147.473 42.8603 147.255 43.1996 147.112 43.5723C146.958 43.9746 146.88 44.4021 146.883 44.8329C146.881 45.2622 146.958 45.6882 147.112 46.0891C147.253 46.468 147.471 46.8135 147.753 47.1038C148.031 47.3859 148.362 47.6099 148.728 47.7626C149.112 47.9229 149.524 48.0036 149.94 47.9998C150.359 48.0048 150.775 47.9241 151.161 47.7626C151.526 47.611 151.856 47.3869 152.132 47.1038C152.407 46.8138 152.623 46.4738 152.769 46.1023C152.922 45.7042 152.999 45.2812 152.997 44.8549C153.001 44.4255 152.923 43.9993 152.769 43.5986C152.625 43.2206 152.409 42.8744 152.132 42.5796ZM151.693 45.6543C151.6 45.896 151.465 46.1191 151.293 46.3131C151.129 46.5024 150.925 46.6525 150.696 46.7524C150.454 46.8553 150.194 46.9062 149.932 46.9017C149.671 46.9048 149.412 46.854 149.172 46.7524C148.941 46.6524 148.735 46.5024 148.57 46.3131C148.398 46.1203 148.264 45.8967 148.175 45.6543C148.081 45.3907 148.035 45.1126 148.038 44.8329C148.034 44.5503 148.08 44.2692 148.175 44.0027C148.265 43.7621 148.399 43.5402 148.57 43.3483C148.735 43.159 148.941 43.009 149.172 42.909C149.412 42.8059 149.67 42.7536 149.932 42.7553C150.194 42.7523 150.455 42.8047 150.696 42.909C150.924 43.0106 151.128 43.1604 151.293 43.3483C151.465 43.5423 151.6 43.7654 151.693 44.0071C151.788 44.2704 151.836 44.5485 151.833 44.8285C151.839 45.108 151.794 45.3861 151.702 45.6499L151.693 45.6543Z" fill="#D1E7BE"/>
<path d="M154.855 46.2251C154.855 46.1768 154.855 46.1284 154.855 46.0757C154.855 45.9044 154.89 45.7243 154.903 45.5399C154.917 45.3554 154.93 45.1577 154.938 44.9513C154.947 44.7448 154.939 44.534 154.96 44.31C154.982 44.086 154.96 43.8707 154.96 43.5984V41.7668H153.836V47.8942H154.903L158.202 43.5369C158.202 43.6907 158.176 43.8356 158.163 43.9762C158.163 44.2046 158.127 44.4154 158.114 44.5691C158.101 44.7229 158.114 44.8722 158.088 44.982C158.062 45.0918 158.088 45.1929 158.088 45.2851C158.088 45.3773 158.088 45.4608 158.088 45.5399V47.8942H159.217V41.7843H158.193L154.855 46.2251Z" fill="#D1E7BE"/>
<path d="M164.128 44.9073C163.929 44.7495 163.709 44.6208 163.474 44.5251C163.19 44.4095 162.896 44.3226 162.595 44.266C162.421 44.2309 162.249 44.184 162.081 44.1254C161.948 44.0859 161.822 44.0251 161.708 43.9453C161.618 43.8816 161.543 43.7992 161.488 43.7037C161.435 43.6087 161.407 43.501 161.409 43.3919C161.406 43.2515 161.453 43.1147 161.541 43.0053C161.637 42.8919 161.761 42.8056 161.901 42.755C162.076 42.6954 162.261 42.6672 162.446 42.6715C162.628 42.6714 162.809 42.7011 162.982 42.7594C163.152 42.8234 163.311 42.9154 163.452 43.0317C163.604 43.1565 163.736 43.3047 163.843 43.4709L164.594 42.733C164.463 42.5073 164.29 42.309 164.084 42.1488C163.87 41.9859 163.627 41.8638 163.368 41.7886C163.069 41.7022 162.758 41.6607 162.446 41.6656C162.159 41.663 161.874 41.7075 161.602 41.7974C161.352 41.8787 161.117 42.002 160.908 42.162C160.716 42.3153 160.558 42.5067 160.443 42.7242C160.328 42.9406 160.269 43.1821 160.272 43.427C160.268 43.6604 160.307 43.8926 160.386 44.1122C160.465 44.3179 160.588 44.5038 160.746 44.6569C160.921 44.8256 161.125 44.961 161.348 45.0566C161.617 45.1746 161.898 45.2615 162.187 45.3157C162.354 45.3509 162.507 45.386 162.626 45.43C162.755 45.4653 162.88 45.5139 162.999 45.5749C163.1 45.6269 163.194 45.6903 163.28 45.7638C163.352 45.8276 163.411 45.9053 163.452 45.9922C163.489 46.0782 163.508 46.1708 163.509 46.2645C163.509 46.402 163.459 46.5348 163.368 46.6379C163.263 46.7531 163.13 46.8393 162.982 46.8882C162.809 46.9537 162.626 46.985 162.441 46.9805C162.12 46.9857 161.802 46.9086 161.519 46.7565C161.184 46.546 160.898 46.2659 160.68 45.9351L159.938 46.774C160.128 47.0299 160.356 47.2551 160.614 47.4417C160.855 47.6244 161.128 47.7614 161.418 47.8458C161.734 47.9404 162.063 47.9863 162.393 47.9819C162.808 47.9902 163.219 47.9108 163.601 47.7491C163.925 47.6153 164.204 47.3912 164.405 47.1035C164.599 46.7949 164.697 46.4356 164.686 46.0712C164.688 45.8524 164.64 45.636 164.545 45.4387C164.447 45.2329 164.305 45.0514 164.128 44.9073Z" fill="#D1E7BE"/>
<path d="M173.44 44.8366C173.436 44.7643 173.427 44.6924 173.413 44.6214H170.646V45.636H172.293C172.296 45.8054 172.256 45.9728 172.179 46.1236C172.097 46.2797 171.981 46.4161 171.841 46.5233C171.691 46.6376 171.523 46.7266 171.345 46.7868C171.151 46.8533 170.947 46.886 170.743 46.8835C170.465 46.8857 170.19 46.8303 169.935 46.721C169.686 46.6186 169.459 46.4695 169.267 46.2817C169.078 46.0889 168.928 45.8605 168.828 45.6097C168.719 45.3527 168.663 45.0762 168.665 44.7971C168.662 44.5154 168.716 44.236 168.823 43.9757C168.924 43.7299 169.073 43.5072 169.263 43.3212C169.447 43.1346 169.667 42.9854 169.908 42.882C170.163 42.7704 170.438 42.7121 170.716 42.7107C170.912 42.7087 171.106 42.7384 171.292 42.7985C171.479 42.8581 171.659 42.9391 171.828 43.0401C172.009 43.1541 172.179 43.2866 172.333 43.4354L173.049 42.6843C172.88 42.4754 172.679 42.2958 172.451 42.1528C172.205 41.9907 171.935 41.8663 171.652 41.7839C171.351 41.6956 171.039 41.6512 170.725 41.6521C170.291 41.6485 169.86 41.729 169.456 41.8893C169.073 42.0393 168.724 42.2631 168.428 42.5482C168.137 42.8313 167.907 43.1705 167.752 43.5452C167.589 43.9364 167.507 44.3561 167.51 44.7795C167.506 45.2055 167.587 45.628 167.747 46.0226C167.899 46.3982 168.127 46.739 168.415 47.024C168.696 47.3133 169.03 47.5459 169.399 47.7092C169.804 47.8707 170.236 47.9513 170.673 47.9464C171.043 47.9493 171.411 47.8837 171.757 47.7532C172.083 47.6255 172.382 47.4361 172.636 47.1953C172.89 46.9577 173.091 46.6687 173.224 46.3476C173.369 45.9997 173.44 45.6261 173.435 45.2495C173.435 45.1968 173.435 45.1353 173.435 45.0606C173.435 44.986 173.444 44.9069 173.44 44.8366Z" fill="#D1E7BE"/>
<path d="M178.307 45.347C178.602 45.1804 178.849 44.9397 179.023 44.6486C179.199 44.3573 179.292 44.0229 179.29 43.6823C179.294 43.3345 179.201 42.9925 179.023 42.694C178.848 42.4017 178.6 42.1607 178.302 41.9956C177.995 41.8224 177.649 41.7331 177.296 41.7364H174.661V47.8638H175.768V45.6193H176.945L178.184 47.8638H179.528L178.126 45.4392C178.188 45.4122 178.249 45.3814 178.307 45.347ZM175.75 42.7598H177.107C177.295 42.7557 177.481 42.7979 177.648 42.8828C177.798 42.9557 177.925 43.07 178.012 43.2123C178.102 43.3619 178.148 43.534 178.144 43.7086C178.146 43.8699 178.11 44.0295 178.039 44.1742C177.975 44.3081 177.875 44.4209 177.749 44.4992C177.617 44.5796 177.464 44.6207 177.31 44.6178H175.755L175.75 42.7598Z" fill="#D1E7BE"/>
<path d="M185.558 42.5444C185.283 42.2597 184.953 42.034 184.588 41.8811C184.201 41.7205 183.785 41.6399 183.367 41.644C182.949 41.6396 182.535 41.7203 182.15 41.8811C181.786 42.0351 181.456 42.259 181.179 42.54C180.898 42.826 180.68 43.167 180.538 43.5415C180.382 43.9417 180.304 44.3682 180.309 44.7977C180.304 45.2272 180.382 45.6537 180.538 46.0539C180.681 46.4279 180.899 46.7687 181.179 47.0554C181.452 47.335 181.778 47.5588 182.137 47.7143C182.522 47.8736 182.936 47.9528 183.353 47.9471C183.772 47.9527 184.187 47.8735 184.574 47.7143C184.94 47.5614 185.27 47.3357 185.545 47.051C185.821 46.7604 186.037 46.4187 186.182 46.0452C186.334 45.647 186.41 45.2239 186.406 44.7977C186.411 44.3701 186.335 43.9454 186.182 43.5459C186.04 43.1754 185.828 42.8355 185.558 42.5444ZM185.119 45.6191C185.03 45.8614 184.895 46.0849 184.724 46.278C184.559 46.4661 184.355 46.616 184.126 46.7172C183.885 46.8207 183.625 46.873 183.362 46.8709C183.101 46.873 182.842 46.8207 182.602 46.7172C182.373 46.6155 182.167 46.4657 182 46.278C181.828 46.0855 181.694 45.8619 181.605 45.6191C181.511 45.3541 181.463 45.0747 181.465 44.7933C181.462 44.5104 181.509 44.2294 181.605 43.9632C181.695 43.7222 181.829 43.5002 182 43.3087C182.167 43.1209 182.373 42.9712 182.602 42.8694C182.842 42.766 183.101 42.7136 183.362 42.7157C183.625 42.7136 183.885 42.766 184.126 42.8694C184.355 42.9706 184.559 43.1205 184.724 43.3087C184.895 43.5018 185.03 43.7252 185.119 43.9675C185.218 44.23 185.267 44.5085 185.264 44.7889C185.269 45.072 185.222 45.3535 185.123 45.6191H185.119Z" fill="#D1E7BE"/>
<path d="M191.519 45.434C191.524 45.6898 191.459 45.9421 191.33 46.1631C191.206 46.3709 191.03 46.5433 190.82 46.6638C190.601 46.7931 190.35 46.86 190.096 46.8571C189.855 46.8576 189.619 46.7906 189.415 46.6638C189.207 46.5392 189.035 46.3638 188.914 46.1543C188.787 45.9359 188.721 45.6868 188.725 45.434V41.7399H187.583V45.513C187.577 45.9464 187.689 46.3732 187.908 46.7473C188.116 47.1142 188.42 47.4177 188.787 47.6258C189.184 47.8368 189.628 47.9426 190.078 47.9332C190.536 47.9462 190.99 47.8402 191.396 47.6258C191.76 47.4238 192.063 47.128 192.274 46.7692C192.495 46.396 192.608 45.9686 192.599 45.535V41.7619H191.501L191.519 45.434Z" fill="#D1E7BE"/>
<path d="M198.354 42.7112C198.193 42.4256 197.96 42.1876 197.677 42.0216C197.391 41.8522 197.065 41.7641 196.733 41.7668H194.19V47.8635H195.314V45.6278H196.72C197.053 45.6313 197.381 45.5399 197.664 45.3642C197.946 45.192 198.179 44.9499 198.34 44.6614C198.513 44.3609 198.601 44.0195 198.595 43.6731C198.602 43.3367 198.519 43.0045 198.354 42.7112ZM197.339 44.1519C197.275 44.2761 197.183 44.3842 197.071 44.4682C196.956 44.55 196.817 44.5931 196.676 44.5912H195.358V42.7991H196.676C196.816 42.7979 196.954 42.8392 197.071 42.9177C197.191 42.9969 197.291 43.1039 197.361 43.2295C197.433 43.3649 197.47 43.5156 197.471 43.6688C197.467 43.8326 197.421 43.9928 197.339 44.1344V44.1519Z" fill="#D1E7BE"/>
<path d="M34.8155 31.6509C33.6471 32.279 32.672 32.8983 31.6222 33.3419C27.59 35.0418 23.5226 35.4986 19.5607 33.1882C16.486 31.3873 15.4538 28.4839 15.6075 25.071C15.7393 22.0974 16.5562 19.2335 17.0789 16.3213C17.9574 11.3535 18.9721 6.40327 19.8813 1.43984C20.0658 0.447155 20.3469 -0.0623659 21.5241 0.00791274C23.5666 0.1309 25.6222 0.0825838 27.6735 0.00791274C28.6618 -0.0228342 28.7891 0.245103 28.6003 1.19826C27.3528 7.38278 26.1669 13.5849 25.0029 19.787C24.6409 21.3685 24.6665 23.014 25.0775 24.5835C25.238 25.2699 25.6245 25.8826 26.1749 26.3231C26.7253 26.7636 27.4078 27.0064 28.1127 27.0125C31.4466 27.2453 33.959 25.6464 36.1508 23.3624C36.4017 23.054 36.5546 22.6777 36.5901 22.2818C37.9385 15.254 39.309 8.26565 40.6311 1.24657C40.8024 0.324166 41.123 -0.0404048 42.1289 0.00351939C44.1318 0.0957601 46.1392 0.0562284 48.1465 0.00351939C48.9942 0.00351939 49.2534 0.157256 49.0689 1.11041C46.9723 11.8601 44.9225 22.6025 42.9195 33.3376C42.7834 34.0711 42.4012 34.115 41.8346 34.115C39.7833 34.115 37.7321 34.0447 35.6852 34.115C34.5959 34.1589 34.2709 33.8339 34.5827 32.7973C34.6706 32.5381 34.7057 32.2307 34.8155 31.6509Z" fill="#D1E7BE"/>
<path d="M130.227 34.7215C124.266 34.7215 119.777 31.1593 119.131 25.9367C118.736 22.366 119.695 18.7769 121.82 15.8801C123.945 12.9833 127.08 10.9901 130.604 10.2953C134.707 9.52222 138.643 9.85604 141.88 12.8692C145.416 16.1679 145.609 20.2924 144.361 24.5838C142.569 30.7508 136.916 34.7215 130.227 34.7215ZM126.656 23.3847C126.656 27.0655 129.041 28.8708 132.612 27.9396C136.183 27.0084 138.291 23.0684 137.215 19.5106C136.626 17.5603 135.304 16.572 133.262 16.5589C129.427 16.5413 126.634 19.4008 126.656 23.3847Z" fill="#D1E7BE"/>
<path d="M178.183 25.9756H180.015C181.06 25.9756 181.912 25.7911 182.452 27.2933C183.124 29.1645 187.723 29.1777 188.9 27.4998C189.493 26.6564 189.129 25.7692 187.921 25.4705C186.234 25.0312 184.512 24.7765 182.804 24.4383L181.78 24.223C176.676 23.103 175.003 18.5919 178.17 14.3928C180.023 11.9374 182.615 10.6109 185.597 10.1805C189.247 9.65778 192.854 9.74123 195.845 12.3767C196.606 12.9984 197.233 13.769 197.686 14.6414C198.139 15.5137 198.409 16.4694 198.48 17.4499C198.524 18.1351 198.327 18.3767 197.602 18.3635C195.775 18.3284 193.943 18.3635 192.111 18.3635C191.902 18.3855 191.692 18.3346 191.516 18.2193C191.339 18.1041 191.209 17.9316 191.145 17.731C190.267 15.9741 186.278 15.794 185.114 17.4367C184.495 18.3152 185.013 18.7545 185.799 18.9389C187.245 19.2464 188.712 19.4529 190.192 19.6901C191.135 19.8484 192.06 20.0985 192.955 20.4368C197.611 22.1278 198.625 26.2962 195.871 30.3285C194.812 31.8415 193.309 32.9892 191.571 33.614C187.853 35.0583 183.76 35.2206 179.94 34.0752C176.47 33.0781 174.138 30.0957 174.072 27.0122C174.072 26.2479 174.212 25.8965 175.064 25.958C176.092 26.0195 177.142 25.9756 178.183 25.9756Z" fill="#D1E7BE"/>
<path d="M157.363 12.7768C159.12 11.7271 160.837 10.7871 162.805 10.4445C164.311 10.1717 165.86 10.2606 167.325 10.7036C170.536 11.6787 172.297 14.5382 171.915 18.2849C171.555 21.8428 170.667 25.3128 170.044 28.8267C169.776 30.3245 169.398 31.8092 169.196 33.3158C169.099 34.0361 168.787 34.1284 168.194 34.124C166.363 34.102 164.531 34.0888 162.7 34.124C161.904 34.1459 161.777 33.9131 161.931 33.1445C162.739 29.042 163.477 24.9307 164.254 20.8238C164.401 20.1405 164.419 19.4359 164.307 18.7461C164.246 18.2193 163.996 17.7325 163.603 17.3756C163.211 17.0188 162.703 16.816 162.172 16.8047C159.273 16.4928 156.023 18.935 155.478 21.7989C154.784 25.5236 154.038 29.2352 153.37 32.9644C153.212 33.8429 152.891 34.1811 151.942 34.1328C150.159 34.0449 148.367 34.0888 146.579 34.1328C145.929 34.1328 145.754 33.9571 145.881 33.3026C147.284 26.0346 148.669 18.7652 150.036 11.4943C150.164 10.8047 150.506 10.5894 151.2 10.6158C152.9 10.6641 154.604 10.6905 156.3 10.6158C157.363 10.5631 157.758 10.831 157.371 11.9028C157.329 12.1924 157.326 12.4864 157.363 12.7768Z" fill="#D1E7BE"/>
<path d="M60.3923 12.8429C62.0834 11.8239 63.6076 11.0025 65.3118 10.5808C68.918 9.70236 72.4319 10.7785 74.0308 13.4096C75.3485 15.5531 75.2387 17.9118 74.8082 20.2617C74.0308 24.5004 73.1742 28.7215 72.4056 32.9602C72.243 33.8387 71.9663 34.2032 71 34.1505C69.243 34.0627 67.5124 34.1022 65.7686 34.1505C65.0659 34.1505 64.8901 33.988 65.0395 33.2457C65.8477 29.1476 66.59 25.0407 67.3543 20.9469C67.3894 20.7756 67.4333 20.6087 67.4553 20.433C67.8023 17.5955 66.1376 16.0406 63.4275 16.985C61.0029 17.8195 58.9604 19.1812 58.5255 22.1549C57.9941 25.7654 57.1639 29.3321 56.5094 32.9294C56.3469 33.8079 56.0351 34.2472 55.016 34.1857C53.3205 34.0803 51.6163 34.1286 49.9164 34.1857C49.1258 34.1857 48.8622 34.0539 49.0379 33.1578C50.4347 26.0304 51.7949 18.8942 53.1185 11.7492C53.281 10.8707 53.6587 10.6336 54.5021 10.6643C56.1141 10.7214 57.7305 10.739 59.3337 10.6643C60.4055 10.6116 60.9414 10.8136 60.4758 11.982C60.4175 12.2652 60.3896 12.5538 60.3923 12.8429Z" fill="#D1E7BE"/>
<path d="M113.51 19.7519C112.943 19.7519 112.372 19.7124 111.81 19.7519C110.703 19.8486 109.979 19.6641 109.386 18.4342C108.41 16.4488 105.472 15.9393 102.973 17.0286C101.405 17.7428 100.158 19.0113 99.4692 20.59C98.7808 22.1687 98.7004 23.9462 99.2435 25.5807C100.087 28.0053 103.003 28.9189 105.735 27.6144C106.549 27.2759 107.247 26.7101 107.747 25.9848C108.296 25.0755 108.981 24.8515 109.987 24.9042C111.683 24.9833 113.387 24.9745 115.087 24.9042C116.11 24.8603 116.146 25.2249 115.816 26.0331C113.699 31.2161 109.755 33.9746 104.299 34.6159C100.785 35.0551 97.4162 34.4797 94.6358 31.9804C91.3152 28.9804 90.4191 24.2102 92.2288 19.3171C94.9389 12.052 103.513 8.01101 110.8 10.7123C114.446 12.0301 116.637 14.6655 117.099 18.6187C117.217 19.6289 116.87 19.8134 115.996 19.7519C115.122 19.6904 114.34 19.7519 113.51 19.7519Z" fill="#D1E7BE"/>
<path d="M81.8799 34.1147C80.9223 34.1147 79.9604 34.0708 79.0028 34.1147C78.2298 34.163 78.1243 33.8468 78.2737 33.1923C79.6675 25.936 81.0526 18.6754 82.4289 11.4103C82.5563 10.7163 82.8682 10.5977 83.4831 10.6109C85.3587 10.6416 87.2342 10.6504 89.1098 10.6109C89.9004 10.6109 90.0278 10.7998 89.8741 11.5904C88.4831 18.7617 87.1288 25.936 85.8111 33.1132C85.6617 33.9214 85.3016 34.1806 84.4933 34.1191C83.628 34.062 82.7539 34.1147 81.8799 34.1147Z" fill="#D1E7BE"/>
<path d="M92.2014 4.05757C92.2014 6.60517 89.9174 8.60811 87.115 8.5598C84.6728 8.52026 82.7621 6.75012 82.8192 4.58027C82.8895 2.05024 85.1779 0.0341218 87.9452 0.0648687C90.4225 0.0736535 92.2234 1.76034 92.2014 4.05757Z" fill="#D1E7BE"/>
<path d="M110.848 44.2481H16.8852V45.5175H110.848V44.2481Z" fill="#D1E7BE"/>
</svg>
