<svg width="152" height="48" viewBox="0 0 152 48" fill="none" xmlns="http://www.w3.org/2000/svg">
<g clip-path="url(#clip0_421_4809)">
<path d="M149.762 20.5456C149.299 19.8245 148.726 19.1799 148.064 18.635C146 16.7971 143.505 15.5096 140.811 14.8917C140.717 14.871 140.635 14.8166 140.579 14.7388C140.524 14.6611 140.499 14.5655 140.509 14.4705C140.793 11.929 140.473 9.35635 139.573 6.96237C139.166 7.15338 138.772 7.37108 138.394 7.61405L138.358 7.63685C139.267 10.1638 139.474 12.89 138.958 15.5254C138.947 15.5797 138.948 15.6354 138.96 15.6893C138.972 15.7432 138.995 15.7941 139.027 15.8389C139.06 15.8838 139.101 15.9216 139.148 15.9503C139.195 15.9789 139.247 15.9977 139.302 16.0055C142.923 16.5296 146.228 18.3553 148.6 21.1409C146.552 22.9149 144.117 24.185 141.49 24.8493C141.4 24.8713 141.32 24.9241 141.265 24.9986C141.209 25.0731 141.181 25.1647 141.186 25.2574C141.339 28.3823 140.639 31.4898 139.162 34.2477C148.091 37.4389 154.832 28.367 149.762 20.542" fill="#D1E7BE"/>
<path d="M139.251 4.77772C136.113 6.15674 133.481 8.47517 131.716 11.4133C131.669 11.4961 131.592 11.5582 131.501 11.5879C131.41 11.6176 131.312 11.6127 131.224 11.5742C128.905 10.5254 126.373 10.0346 123.83 10.1412C123.873 10.5916 123.945 11.0386 124.047 11.4793L124.055 11.5105C126.74 11.4245 129.398 12.0705 131.744 13.3792C131.793 13.4063 131.847 13.4231 131.902 13.4287C131.958 13.4343 132.014 13.4285 132.067 13.4116C132.12 13.3948 132.169 13.3672 132.211 13.3307C132.253 13.2942 132.287 13.2494 132.312 13.1991C133.925 9.91994 136.673 7.33747 140.047 5.93106L140.235 6.39432C141.172 8.76308 141.567 11.312 141.388 13.8532C141.382 13.9455 141.408 14.0371 141.461 14.1124C141.515 14.1878 141.593 14.2421 141.682 14.2661C144.071 14.9141 146.291 16.0724 148.188 17.6613C148.668 18.0801 149.141 18.5086 149.588 18.9731C150.783 17.4036 151.439 15.4905 151.46 13.5182C151.48 11.5458 150.864 9.6194 149.703 8.02524C148.541 6.43107 146.896 5.25422 145.012 4.66958C143.128 4.08494 141.106 4.1237 139.246 4.78012" fill="#D1E7BE"/>
<path d="M137.153 31.6577L137.174 31.6073C137.054 31.5293 136.944 31.4525 136.831 31.3673C134.77 29.8709 133.125 27.8732 132.052 25.5634C132.029 25.5133 131.995 25.4685 131.954 25.4318C131.912 25.3951 131.864 25.3671 131.811 25.3496C131.759 25.3321 131.703 25.3254 131.648 25.33C131.593 25.3345 131.539 25.3502 131.49 25.3761C128.258 27.0893 124.511 27.559 120.956 26.6963C121.57 24.056 122.792 21.5953 124.524 19.5098C124.583 19.4382 124.615 19.3482 124.615 19.2554C124.615 19.1625 124.583 19.0725 124.524 19.0009C122.562 16.5588 121.305 13.6274 120.888 10.5231V10.4919C119.968 10.7474 119.095 11.1494 118.303 11.6825C109.702 17.3447 114.638 28.9934 124.474 28.4941C126.691 28.4955 128.884 28.0463 130.922 27.1739C131.011 27.1348 131.111 27.1298 131.204 27.1599C131.296 27.19 131.374 27.2531 131.423 27.3372C132.68 29.5461 134.437 31.4305 136.551 32.8398C136.777 32.4587 136.977 32.0635 137.152 31.6565" fill="#D1E7BE"/>
<path d="M146.481 20.069L146.457 20.0498C144.336 21.6953 141.809 22.7358 139.144 23.0609C139.089 23.0677 139.036 23.0858 138.987 23.1139C138.939 23.1421 138.897 23.1798 138.864 23.2248C138.831 23.2698 138.808 23.321 138.795 23.3754C138.783 23.4297 138.781 23.4861 138.791 23.541C139.429 27.1472 138.712 30.8619 136.778 33.9715L136.368 33.7074C134.225 32.343 132.415 30.5146 131.073 28.3572C131.024 28.2789 130.95 28.2201 130.862 28.1907C130.775 28.1614 130.68 28.1634 130.593 28.1964C127.669 29.306 124.499 29.5997 121.421 29.0461C120.968 37.8071 131.123 42.3425 137.098 35.6721C139.7 32.8565 140.643 28.3944 140.32 24.6403C140.314 24.5429 140.342 24.4462 140.4 24.3679C140.459 24.2895 140.543 24.2346 140.639 24.2131C143.138 23.6924 145.48 22.5942 147.479 21.0063C147.168 20.6741 146.836 20.363 146.483 20.075" fill="#D1E7BE"/>
<path d="M137.257 3.00776C131.187 -3.64825 120.575 1.60478 121.701 10.3575V10.3635C122.127 13.564 123.484 16.5688 125.604 19.0045C125.668 19.0764 125.703 19.1693 125.703 19.2655C125.703 19.3618 125.668 19.4547 125.604 19.5266C123.896 21.4149 122.65 23.6747 121.965 26.1274C122.4 26.2252 122.841 26.2946 123.285 26.335H123.337C124.085 23.7503 125.52 21.4167 127.488 19.5818C127.528 19.5436 127.56 19.4976 127.582 19.4468C127.603 19.396 127.615 19.3412 127.615 19.2859C127.615 19.2306 127.603 19.1759 127.582 19.1251C127.56 19.0742 127.528 19.0283 127.488 18.9901C127.263 18.7709 127.045 18.5441 126.835 18.3096C124.596 15.8365 123.238 12.6911 122.976 9.36493C125.676 9.13101 128.393 9.53384 130.91 10.5411C130.996 10.5767 131.092 10.581 131.181 10.5532C131.27 10.5253 131.347 10.4671 131.397 10.3887C133.11 7.77288 135.501 5.67208 138.316 4.31112C138.007 3.84346 137.655 3.40587 137.265 3.00415" fill="#D1E7BE"/>
<path d="M0.335895 46.4468V10.8025C0.335895 10.3906 0.499515 9.99556 0.790757 9.70432C1.082 9.41308 1.477 9.24947 1.88888 9.24947H17.5508C25.4105 9.24947 29.0086 13.57 29.0086 18.5494C29.0086 23.1172 26.7163 26.504 22.379 27.5721C22.3668 27.574 22.3557 27.5802 22.3477 27.5895C22.3396 27.5989 22.3352 27.6108 22.3352 27.6231C22.3352 27.6354 22.3396 27.6474 22.3477 27.6567C22.3557 27.6661 22.3668 27.6723 22.379 27.6741C24.6357 28.1039 26.6674 29.319 28.1136 31.104C29.5599 32.889 30.3272 35.1285 30.2795 37.4253C30.2795 43.2376 26.0718 47.9974 18.2685 47.9974H1.88648C1.47461 47.9974 1.07959 47.8338 0.788349 47.5425C0.497107 47.2513 0.333496 46.8563 0.333496 46.4444M15.777 25.6351C20.5368 25.6351 22.1377 22.978 22.1377 19.8744C22.1377 16.7708 20.532 14.5049 15.717 14.5049H7.02671V25.6315L15.777 25.6351ZM16.275 42.7384C21.5893 42.7384 23.5815 40.0812 23.5815 36.5936C23.5815 33.106 21.4213 30.2328 16.275 30.2328H7.03391V42.742L16.275 42.7384Z" fill="#D1E7BE"/>
<path d="M32.7526 46.4468V9.25308H37.8976C38.3095 9.25308 38.7045 9.41669 38.9957 9.70794C39.2869 9.99918 39.4506 10.3942 39.4506 10.8061V47.9998H34.3055C33.8937 47.9998 33.4986 47.8362 33.2074 47.545C32.9162 47.2537 32.7526 46.8587 32.7526 46.4468Z" fill="#D1E7BE"/>
<path d="M43.2257 47.9998V10.8061C43.2257 10.3942 43.3893 9.99918 43.6806 9.70794C43.9718 9.41669 44.3668 9.25308 44.7787 9.25308H59.4997C69.7393 9.25308 76.1061 16.5596 76.1061 28.4554C76.1061 40.3009 70.0166 47.995 59.7769 47.995L43.2257 47.9998ZM58.3367 42.742C65.5376 42.742 69.1308 37.9258 69.1308 28.5718C69.1308 19.1063 65.3672 14.5121 58.1711 14.5121H49.9297V42.742H58.3367Z" fill="#D1E7BE"/>
<path d="M96.9481 47.9999H91.0829C88.5218 47.9999 87.5161 47.1839 86.6784 44.858L74.4201 9.25321H79.9972C80.4825 9.26501 80.9529 9.423 81.3468 9.70651C81.7408 9.99002 82.0401 10.3858 82.2055 10.8422L91.5246 38.6448C91.8571 39.7513 92.1895 40.9695 92.4655 42.2452C92.6945 41.0246 93.0089 39.8214 93.4064 38.6448L102.16 12.6748C102.427 11.6871 103.013 10.8155 103.827 10.1964C104.641 9.57728 105.638 9.24557 106.661 9.25321H113.346C113.391 9.25528 113.434 9.27147 113.469 9.29947C113.505 9.32747 113.53 9.36587 113.542 9.40924C113.68 9.9253 113.308 10.2493 112.867 10.5506C112.21 11.0006 111.758 11.2046 111.154 11.6583C109.637 12.99 108.506 14.7066 107.883 16.6269C107.581 17.383 107.313 18.1583 107.042 18.9288L96.9481 47.9999Z" fill="#D1E7BE"/>
</g>
<defs>
<clipPath id="clip0_421_4809">
<rect width="151.171" height="47.9999" fill="white" transform="translate(0.333496)"/>
</clipPath>
</defs>
</svg>
