<svg width="125" height="48" viewBox="0 0 125 48" fill="none" xmlns="http://www.w3.org/2000/svg">
<g clip-path="url(#clip0_421_4839)">
<path d="M124.153 40.4284C123.882 39.8125 123.498 39.2531 123.02 38.7797C122.027 37.8127 120.694 37.2748 119.308 37.2819H115.486V47.642H119.308C120.005 47.6472 120.697 47.5112 121.341 47.2424C122.601 46.7316 123.61 45.7476 124.153 44.5014C124.429 43.8573 124.571 43.164 124.571 42.4635C124.571 41.7629 124.429 41.0696 124.153 40.4255V40.4284ZM121.528 43.7673C121.384 44.1101 121.162 44.4143 120.879 44.6553C120.604 44.8934 120.283 45.0718 119.935 45.1793C119.565 45.2957 119.178 45.3536 118.79 45.351H118.174V39.573H118.804C119.207 39.5695 119.608 39.6346 119.988 39.7654C120.339 39.8837 120.659 40.0776 120.927 40.3333C121.194 40.5891 121.403 40.9004 121.537 41.2454C121.84 42.0662 121.832 42.9694 121.516 43.7851L121.528 43.7673Z" fill="#D1E7BE"/>
<path d="M103.986 47.6566H106.68V41.3044H106.71L111.641 47.6566H114.335V37.2906H111.641V43.6281H111.615L106.68 37.2906H103.986V47.6566Z" fill="#D1E7BE"/>
<path d="M89.0027 37.2906H86.3061V47.6566H92.2261V45.3745H89.0027V37.2906Z" fill="#D1E7BE"/>
<path d="M71.9679 47.6561H74.6616V41.3038H74.6852L79.6196 47.6561H82.3103V37.2901H79.6196V43.6275H79.59L74.6616 37.2901H71.9679V47.6561Z" fill="#D1E7BE"/>
<path d="M60.7908 40.1323C60.487 39.4883 60.0549 38.9132 59.521 38.4421C58.9816 37.966 58.3596 37.5928 57.6857 37.341C56.2997 36.8239 54.7738 36.8239 53.3878 37.341C52.7139 37.5928 52.0919 37.966 51.5525 38.4421C51.0186 38.9132 50.5865 39.4883 50.2827 40.1323C49.9621 40.804 49.7991 41.54 49.8061 42.2842C49.7964 43.0742 49.9412 43.8586 50.2324 44.593C50.5026 45.2696 50.9082 45.8838 51.4243 46.3979C51.9405 46.912 52.5562 47.3151 53.2338 47.5827C54.7187 48.1391 56.3548 48.1391 57.8397 47.5827C58.5177 47.3152 59.1341 46.9123 59.6512 46.3987C60.1617 45.8823 60.5642 45.2695 60.8352 44.596C61.1274 43.8617 61.2732 43.0774 61.2644 42.2872C61.2742 41.542 61.1122 40.8046 60.7908 40.1323ZM58.2304 43.5333C58.0826 43.8959 57.8677 44.2274 57.5969 44.5102C57.3309 44.7823 57.0155 45.0013 56.6675 45.1554C56.3111 45.3116 55.9259 45.3913 55.5368 45.3893C55.1458 45.3907 54.7588 45.3111 54.4001 45.1554C54.053 45.0013 53.7385 44.7823 53.4736 44.5102C52.9076 43.9132 52.5975 43.1186 52.6093 42.2961C52.6073 41.9393 52.6873 41.5869 52.8431 41.266C52.9957 40.9374 53.2097 40.641 53.4736 40.3928C53.7451 40.1423 54.0588 39.9419 54.4001 39.8008C54.7592 39.6471 55.1462 39.5695 55.5368 39.5728C55.9255 39.5688 56.3107 39.6465 56.6675 39.8008C57.0097 39.9419 57.3244 40.1423 57.5969 40.3928C57.8617 40.6409 58.0767 40.9372 58.2304 41.266C58.3839 41.5876 58.4628 41.9397 58.4613 42.2961C58.4672 42.7188 58.3887 43.1384 58.2304 43.5304V43.5333Z" fill="#D1E7BE"/>
<path d="M42.6873 41.2926V37.2906H39.9907V47.6566H42.6873V43.409H46.5767V47.6566H49.2674V37.2906H46.5767V41.2926H42.6873Z" fill="#D1E7BE"/>
<path d="M35.9207 37.2397H33.2241V47.5998H35.9207V37.2397Z" fill="#D1E7BE"/>
<path d="M13.7736 41.2926V37.2906H11.0829V47.6566H13.7736V43.409H17.666V47.6566H20.3567V37.2906H17.666V41.2926H13.7736Z" fill="#D1E7BE"/>
<path d="M3.38678 41.5649H3.36014V37.2906H0.666504V47.6566H3.36014V43.1604H3.38678L6.86482 47.6566H10.3547L5.85841 42.1984L9.9847 37.2906H6.64282L3.38678 41.5649Z" fill="#D1E7BE"/>
<path d="M98.5018 34.07L93.7095 47.6121H103.229L98.5018 34.07Z" fill="#D1E7BE"/>
<path d="M71.3584 47.6121L67.4541 37.249H64.5148L60.5276 47.6121H63.3633L65.9445 40.3216L68.4842 47.6121H71.3584Z" fill="#D1E7BE"/>
<path d="M31.9894 47.6121L28.0881 37.249H25.1488L21.1616 47.6121H23.9943L26.5755 40.3216L29.1211 47.6121H31.9894Z" fill="#D1E7BE"/>
<path d="M58.3195 21.2915V30.3639H60.1754V21.2915H58.3195ZM33.023 0L41.3111 14.954L31.839 30.3462H43.8005L45.7482 26.6284V3.21459L44.1942 0H33.023ZM58.3195 7.42078H60.1754V0H58.3195V7.42078ZM63.1177 0V9.05175H56.9313V0H47.1069V30.3432H57.0053V30.3018H56.9283V19.6457H63.1177V30.3314H73.0161V0H63.1177ZM74.4872 0V30.3432H93.4729V20.4538H84.3797V0H74.4872Z" fill="#D1E7BE"/>
<path d="M89.269 8.17877C88.4685 8.16884 87.6887 7.92234 87.0279 7.4703C86.3672 7.01826 85.8549 6.38087 85.5555 5.63834C85.2561 4.89581 85.1831 4.08132 85.3456 3.29738C85.508 2.51343 85.8987 1.79505 86.4685 1.23264C87.0383 0.670236 87.7617 0.288933 88.5478 0.136717C89.3338 -0.0155 90.1472 0.0681717 90.8858 0.377203C91.6243 0.686234 92.255 1.20682 92.6984 1.87344C93.1418 2.54006 93.3781 3.32293 93.3775 4.12353C93.3681 5.20538 92.9306 6.23946 92.1606 6.99947C91.3906 7.75947 90.3509 8.18351 89.269 8.17877ZM89.269 0.547823C88.5649 0.558326 87.8795 0.776682 87.2991 1.17546C86.7187 1.57424 86.2691 2.13565 86.0067 2.78917C85.7444 3.44269 85.681 4.15916 85.8246 4.84858C85.9681 5.538 86.3122 6.16962 86.8137 6.66408C87.3151 7.15854 87.9515 7.4938 88.6428 7.62772C89.3342 7.76165 90.0497 7.68827 90.6995 7.41682C91.3493 7.14536 91.9044 6.68793 92.295 6.10199C92.6856 5.51605 92.8944 4.82774 92.8951 4.12353C92.8865 3.16913 92.5001 2.25701 91.8205 1.58685C91.1409 0.916693 90.2234 0.543087 89.269 0.547823Z" fill="#D1E7BE"/>
<path d="M89.4617 4.36041C89.6494 4.34285 89.8317 4.28747 89.9974 4.1976C90.153 4.11209 90.2923 3.99987 90.4089 3.86608C90.5242 3.73179 90.6135 3.57721 90.6723 3.41024C90.7373 3.23507 90.7694 3.04943 90.767 2.86263C90.767 2.60753 90.704 2.35637 90.5835 2.13151C90.4631 1.90017 90.278 1.70888 90.0507 1.58094C89.834 1.46498 89.5967 1.39258 89.3521 1.36782C89.1035 1.34414 88.8578 1.33526 88.6181 1.33526H87.7922V6.68402H88.473V4.42849H88.7542L90.3645 6.68402H91.1844L89.4617 4.36041ZM88.473 1.93023H88.6536C88.8258 1.93094 88.9977 1.94181 89.1686 1.96279C89.3328 1.98224 89.4928 2.02823 89.6422 2.09895C89.7833 2.16665 89.9054 2.26837 89.9974 2.39495C90.0925 2.54501 90.139 2.72072 90.1306 2.89815C90.1387 3.07796 90.0934 3.25614 90.0004 3.41024C89.9184 3.53686 89.8039 3.6391 89.6689 3.70624C89.5242 3.78214 89.3666 3.83033 89.2041 3.84832C89.0333 3.86957 88.8613 3.88045 88.6891 3.88088H88.473V1.93023Z" fill="#D1E7BE"/>
</g>
<defs>
<clipPath id="clip0_421_4839">
<rect width="123.904" height="48" fill="white" transform="translate(0.666504)"/>
</clipPath>
</defs>
</svg>
