<svg width="40" height="24" viewBox="0 0 40 24" fill="none" xmlns="http://www.w3.org/2000/svg">
<g clip-path="url(#clip0_985_2349)">
<path d="M19.799 11.7668C19.799 12.7102 19.799 13.6536 19.799 14.599C19.799 14.9599 19.799 15.3208 19.7892 15.6817C19.7904 15.7531 19.766 15.8227 19.7205 15.8778C19.6752 15.9324 19.6124 15.9698 19.5428 15.9838C19.4732 15.9977 19.4009 15.9873 19.3381 15.9543C19.238 15.9033 19.1419 15.8464 19.0439 15.7895L17.8789 15.1246L16.5609 14.3754C16.5314 14.3642 16.5064 14.3434 16.4901 14.3164C16.4737 14.2894 16.4669 14.2577 16.4707 14.2263C16.4727 14.1943 16.4727 14.1622 16.4707 14.1302C16.4707 13.1914 16.4707 12.2519 16.4707 11.3117C16.4738 11.0039 16.4067 10.6993 16.2746 10.4213C16.1571 10.176 15.9886 9.95865 15.7803 9.78381C15.6535 9.68258 15.5176 9.59328 15.3743 9.51706L12.9247 8.12449C12.9051 8.11272 12.8875 8.09899 12.8679 8.08918C12.8436 8.07672 12.8234 8.05749 12.8099 8.03382C12.7963 8.01015 12.7899 7.98306 12.7914 7.95581C12.7914 7.92835 12.7914 7.90089 12.7914 7.87343C12.7914 6.88097 12.7914 5.88722 12.7914 4.89215C12.7898 4.83355 12.795 4.77496 12.8071 4.71758C12.8203 4.67216 12.8435 4.63023 12.8748 4.59478C12.9062 4.55933 12.945 4.53125 12.9884 4.51252C13.0319 4.49378 13.079 4.48487 13.1263 4.48642C13.1735 4.48796 13.2199 4.49992 13.2621 4.52145L13.6759 4.75289C14.0956 4.99217 14.5147 5.23211 14.9331 5.47271L16.1804 6.18469L17.2395 6.78683L18.5104 7.51254C18.7752 7.66357 19.0439 7.81459 19.3086 7.96758C19.4192 8.03064 19.5161 8.11517 19.5936 8.21622C19.6711 8.31727 19.7276 8.4328 19.7597 8.55599C19.7892 8.66061 19.8031 8.769 19.8009 8.87766C19.8009 9.74459 19.8009 10.6115 19.8009 11.4784V11.7628L19.799 11.7668Z" fill="#C2A477"/>
<path d="M20.1794 12.2022V8.84234C20.1755 8.73359 20.1894 8.62493 20.2206 8.52069C20.295 8.29001 20.4522 8.09506 20.6619 7.97346C20.9757 7.78909 21.2954 7.61061 21.6131 7.43016L22.8723 6.71033L23.9549 6.09642L26.2358 4.79408L26.685 4.53909C26.7397 4.50754 26.8022 4.49192 26.8654 4.49398C26.9452 4.4929 27.0223 4.52307 27.0802 4.57803C27.1381 4.633 27.1722 4.70841 27.1753 4.78819C27.1753 4.81172 27.1753 4.83331 27.1753 4.85684C27.1753 5.87283 27.1753 6.88882 27.1753 7.90481C27.1796 7.95116 27.1693 7.9977 27.1457 8.03784C27.1221 8.07797 27.0865 8.10966 27.0439 8.12841C26.5398 8.41085 26.0397 8.69917 25.5376 8.98553L24.5021 9.57394C24.267 9.70204 24.0614 9.87802 23.8986 10.0905C23.7357 10.303 23.6193 10.5473 23.5567 10.8076C23.5274 10.9211 23.5116 11.0376 23.5097 11.1548C23.5097 11.2411 23.5097 11.3254 23.5097 11.4117V14.2028C23.5133 14.2387 23.5057 14.2748 23.4877 14.3061C23.4698 14.3375 23.4425 14.3624 23.4096 14.3773C23.0409 14.5852 22.6722 14.799 22.3035 15.0089L20.9875 15.7601L20.6325 15.9562C20.5681 15.99 20.4942 16.0008 20.4229 15.9869C20.3516 15.973 20.2872 15.9352 20.2402 15.8798C20.196 15.8338 20.1708 15.7729 20.1696 15.7091C20.1696 15.664 20.1696 15.6189 20.1696 15.5738V12.2002L20.1794 12.2022Z" fill="#C2A477"/>
<path d="M19.9853 7.67337C19.7355 7.679 19.4886 7.6188 19.2694 7.4988C19.0831 7.39877 18.9007 7.29089 18.7163 7.18694L17.6102 6.55735L16.3628 5.84537L14.0583 4.53321L13.5641 4.25077L13.4582 4.188C13.4115 4.1602 13.3731 4.12046 13.3468 4.07288C13.3206 4.02529 13.3075 3.97156 13.3089 3.91724C13.3103 3.86291 13.3261 3.80994 13.3548 3.76377C13.3834 3.71759 13.4239 3.67988 13.4719 3.65452L13.7759 3.47799L15.0605 2.75031L16.1549 2.1266C16.3216 2.03245 16.3216 2.02853 16.4864 2.1266L18.8046 3.44661C18.9394 3.52922 19.0789 3.60387 19.2223 3.6702C19.4464 3.76637 19.6866 3.81961 19.9304 3.82712C20.2292 3.83925 20.5267 3.78148 20.7992 3.65843C20.9012 3.61332 20.9953 3.55644 21.0973 3.50152L22.7565 2.55614C23.0233 2.40511 23.292 2.25605 23.5567 2.1011C23.5898 2.07789 23.6292 2.06544 23.6695 2.06544C23.7099 2.06544 23.7493 2.07789 23.7823 2.1011L25.7122 3.20144L26.4633 3.63098L26.5104 3.65843C26.5626 3.68389 26.6066 3.7235 26.6373 3.77274C26.6681 3.82199 26.6844 3.87889 26.6844 3.93695C26.6844 3.99502 26.6681 4.05191 26.6373 4.10115C26.6066 4.15039 26.5626 4.19 26.5104 4.21547C26.3927 4.27627 26.2829 4.34492 26.1691 4.4116L24.6511 5.2746L23.3783 5.9964L22.0838 6.73386L21.0012 7.34777L20.7404 7.49292C20.5088 7.61811 20.2484 7.68033 19.9853 7.67337Z" fill="#C2A477"/>
<path d="M16.1196 12.5219V13.8615C16.1216 13.8981 16.1216 13.9348 16.1196 13.9713C16.1182 13.9871 16.1127 14.0022 16.1039 14.0153C16.095 14.0285 16.083 14.0391 16.0689 14.0464C16.0548 14.0536 16.0392 14.0572 16.0234 14.0567C16.0075 14.0563 15.9921 14.0519 15.9784 14.0439C15.898 14.0027 15.8195 13.9576 15.7411 13.9125L13.0855 12.3964L12.9561 12.3218C12.9062 12.2949 12.8646 12.255 12.8356 12.2063C12.8066 12.1576 12.7913 12.1019 12.7914 12.0453C12.7914 12.0178 12.7914 11.9904 12.7914 11.9649V8.7129C12.7884 8.677 12.7884 8.64092 12.7914 8.60503C12.7928 8.58809 12.7985 8.57178 12.8079 8.5576C12.8173 8.54341 12.83 8.53179 12.845 8.5238C12.86 8.51581 12.8768 8.5117 12.8938 8.51184C12.9108 8.51198 12.9275 8.51636 12.9424 8.5246C12.9589 8.53156 12.9746 8.5401 12.9894 8.5501L14.7546 9.55825L15.2841 9.85638C15.5802 10.0169 15.8188 10.2658 15.9666 10.5684C16.0676 10.7713 16.1206 10.9948 16.1216 11.2215V12.5219H16.1196Z" fill="#C2A477"/>
<path d="M19.9892 3.49369C19.6987 3.49028 19.4141 3.41117 19.1635 3.2642L16.8688 1.95597C16.8451 1.94326 16.8228 1.92814 16.8021 1.91086C16.7915 1.90241 16.7829 1.89167 16.777 1.87945C16.7711 1.86722 16.7681 1.85382 16.7681 1.84025C16.7681 1.82668 16.7711 1.81327 16.777 1.80105C16.7829 1.78882 16.7915 1.77808 16.8021 1.76963C16.8228 1.75235 16.8451 1.73724 16.8688 1.72453L18.0573 1.04785L19.1047 0.459437L19.7891 0.0671623C19.8378 0.0348309 19.8925 0.0128117 19.95 0.00244562C20.0268 -0.00651481 20.1044 0.00928666 20.1716 0.0475534L23.1331 1.73826C23.1568 1.75097 23.1792 1.76608 23.1998 1.78336C23.2104 1.79201 23.219 1.80292 23.2249 1.8153C23.2308 1.82769 23.2339 1.84123 23.2339 1.85495C23.2339 1.86867 23.2308 1.88223 23.2249 1.89461C23.219 1.907 23.2104 1.91791 23.1998 1.92655C23.1836 1.94181 23.165 1.95439 23.1449 1.96382L21.2856 3.02295L20.7894 3.30343C20.5427 3.43269 20.2676 3.4981 19.9892 3.49369Z" fill="#C2A477"/>
<path d="M27.1831 10.3605V11.9845C27.1831 12.0158 27.1831 12.0472 27.1831 12.0786C27.1829 12.1262 27.1705 12.173 27.1472 12.2145C27.1238 12.2561 27.0903 12.291 27.0497 12.3159C26.9615 12.3709 26.8713 12.4218 26.7811 12.4728L24.051 14.0263C24.0352 14.0353 24.0188 14.0431 24.0019 14.0498C23.9881 14.0577 23.9726 14.062 23.9567 14.0624C23.9408 14.0628 23.925 14.0593 23.9108 14.0521C23.8966 14.0449 23.8844 14.0343 23.8753 14.0212C23.8663 14.0081 23.8606 13.993 23.8588 13.9772C23.8548 13.946 23.8548 13.9143 23.8588 13.8831C23.8588 13.0299 23.8588 12.1767 23.8588 11.3235C23.8531 11.0109 23.9353 10.7031 24.0961 10.435C24.2306 10.2138 24.4188 10.0303 24.6433 9.90149L25.7847 9.25031L26.9242 8.60306C26.9707 8.57474 27.0192 8.54983 27.0694 8.52853C27.0816 8.52269 27.0951 8.51998 27.1087 8.52064C27.1223 8.52129 27.1355 8.52528 27.1471 8.53227C27.1588 8.53926 27.1685 8.54903 27.1755 8.56069C27.1824 8.57236 27.1864 8.58556 27.187 8.59913C27.187 8.64032 27.187 8.68151 27.187 8.72074V10.3605H27.1831Z" fill="#C2A477"/>
<path d="M36.0166 20.1261V20.0438C36.0164 20.0382 36.0173 20.0326 36.0192 20.0274C36.0212 20.0222 36.0241 20.0174 36.028 20.0133C36.0318 20.0093 36.0365 20.0061 36.0416 20.0039C36.0467 20.0017 36.0523 20.0006 36.0578 20.0006H40V19.7299C39.9914 19.7268 39.9841 19.7208 39.9794 19.713C39.9748 19.7051 39.973 19.6958 39.9745 19.6868C39.9709 19.6374 39.9589 19.589 39.9392 19.5436C39.8704 19.3515 39.7581 19.1779 39.6111 19.0364C39.4642 18.8948 39.2864 18.7892 39.0919 18.7277C38.9401 18.6815 38.7818 18.6603 38.6232 18.6649H35.9284C35.6401 18.6829 35.3655 18.7942 35.1461 18.9821C34.9267 19.17 34.7745 19.4243 34.7124 19.7064C34.6892 19.8213 34.6787 19.9384 34.681 20.0555V22.67C34.6797 22.7921 34.6962 22.9137 34.7301 23.0309C34.8091 23.3113 34.978 23.5579 35.2108 23.7329C35.4435 23.908 35.7274 24.0017 36.0186 23.9998C36.909 23.9998 37.7975 23.9998 38.6879 23.9998C38.8506 24.0024 39.0121 23.9717 39.1625 23.9096C39.3716 23.8337 39.5572 23.7042 39.7007 23.5342C39.8442 23.3642 39.9406 23.1596 39.9804 22.9407C39.9804 22.9407 39.9921 22.9289 40 22.923V20.6733C39.9507 20.6646 39.9002 20.6646 39.8509 20.6733H37.4405C37.3523 20.6733 37.3483 20.6734 37.3464 20.7616V21.86C37.3464 21.8953 37.3464 21.9306 37.3464 21.9679C37.3461 21.9735 37.347 21.9792 37.3491 21.9845C37.3512 21.9897 37.3544 21.9945 37.3585 21.9984C37.3626 22.0023 37.3675 22.0053 37.3728 22.0071C37.3782 22.009 37.3839 22.0096 37.3895 22.009H38.6349C38.6405 22.0088 38.6461 22.0097 38.6513 22.0116C38.6565 22.0136 38.6613 22.0165 38.6653 22.0204C38.6694 22.0242 38.6726 22.0289 38.6748 22.034C38.677 22.0391 38.6781 22.0447 38.6781 22.0502V22.064C38.6781 22.2483 38.6781 22.4347 38.6781 22.619C38.6791 22.6257 38.6785 22.6325 38.6764 22.6389C38.6743 22.6453 38.6707 22.6511 38.6659 22.6559C38.6611 22.6607 38.6553 22.6642 38.6489 22.6664C38.6425 22.6685 38.6357 22.6691 38.629 22.6681H36.15C36.0029 22.6681 36.0147 22.6681 36.0147 22.5406C36.0147 21.7351 36.0153 20.9303 36.0166 20.1261Z" fill="#103A62"/>
<path d="M34.0456 18.6649H32.9473C32.7511 18.6649 32.7825 18.6433 32.7825 18.8316C32.7825 19.7469 32.7825 20.6681 32.7825 21.5952C32.7825 21.6207 32.7825 21.6482 32.7825 21.6756C32.7825 21.7031 32.7825 21.7266 32.7629 21.7325C32.7433 21.7384 32.7276 21.7109 32.7119 21.6952L32.6766 21.654L32.1745 21.0656C31.5142 20.2942 30.8539 19.522 30.1937 18.7492C30.1708 18.7192 30.1411 18.6951 30.1069 18.679C30.0728 18.663 30.0352 18.6554 29.9975 18.6571C29.6445 18.6571 29.2934 18.6571 28.9404 18.6571H28.858C28.7796 18.6571 28.7796 18.6571 28.7776 18.7453V18.7649C28.7776 20.4713 28.7776 22.1784 28.7776 23.8861C28.7718 23.9173 28.7759 23.9495 28.7894 23.9783C28.8137 23.9901 28.8411 23.9942 28.8678 23.99H30.074C30.083 23.9895 30.0915 23.9856 30.0977 23.979C30.1039 23.9725 30.1074 23.9638 30.1074 23.9547C30.1074 23.9273 30.1074 23.9018 30.1074 23.8743C30.1074 23.7331 30.1074 23.5938 30.1074 23.4546C30.1074 22.6543 30.1074 21.8548 30.1074 21.0558V20.9479C30.1093 20.9398 30.1134 20.9324 30.1191 20.9264C30.1329 20.9264 30.1446 20.9264 30.1544 20.9362C30.1699 20.9523 30.1843 20.9693 30.1976 20.9872L31.6352 22.6642C31.9862 23.076 32.3412 23.486 32.6903 23.8998C32.7129 23.9306 32.7424 23.9556 32.7765 23.9726C32.8106 23.9897 32.8483 23.9984 32.8865 23.9979C33.2434 23.9979 33.6004 23.9979 33.9573 23.9979H34.0377C34.0887 23.9979 34.0985 23.9861 34.1005 23.9312V23.5526C34.1005 22.0032 34.1005 20.4543 34.1005 18.9062C34.1005 18.8473 34.1005 18.7885 34.1005 18.7296C34.1005 18.6708 34.1123 18.6669 34.0456 18.6649Z" fill="#103A62"/>
<path d="M27.0694 18.6669C26.9105 18.6512 26.7536 18.6551 26.5947 18.6531H24.2648C24.1564 18.6528 24.0485 18.6653 23.9431 18.6904C23.6468 18.7554 23.3817 18.9198 23.1919 19.1564C23.0021 19.393 22.8989 19.6875 22.8997 19.9908C22.8997 20.8832 22.8997 21.7776 22.8997 22.672C22.898 22.8579 22.9389 23.0418 23.0194 23.2094C23.1193 23.4447 23.287 23.6449 23.5011 23.7846C23.7152 23.9243 23.966 23.9972 24.2216 23.994C24.6727 23.994 25.1238 23.994 25.5749 23.994H26.8752C26.9611 23.9967 27.0471 23.9914 27.1321 23.9783C27.4398 23.9255 27.7192 23.7664 27.9217 23.5288C28.1242 23.2912 28.2369 22.9901 28.2402 22.6779C28.2402 21.7796 28.2402 20.8813 28.2402 19.981C28.2409 19.8819 28.2297 19.7832 28.2069 19.6868C28.1449 19.4206 28.0024 19.1799 27.7989 18.9975C27.5954 18.815 27.3407 18.6996 27.0694 18.6669ZM26.9046 20.1477V22.5151C26.9046 22.5425 26.9046 22.57 26.9046 22.5975C26.9046 22.6249 26.8948 22.6563 26.8399 22.6583H24.2903C24.2847 22.6583 24.2792 22.6571 24.274 22.655C24.2689 22.6528 24.2643 22.6495 24.2604 22.6455C24.2566 22.6415 24.2536 22.6367 24.2516 22.6315C24.2497 22.6263 24.2488 22.6207 24.2491 22.6151C24.2491 22.5837 24.2491 22.5524 24.2491 22.521C24.2491 21.7207 24.2491 20.9218 24.2491 20.1242V20.0575C24.2491 20.0065 24.2608 19.9967 24.3158 19.9947H26.7654C26.9242 19.9947 26.9046 19.979 26.9046 20.1477Z" fill="#103A62"/>
<path d="M6.63691 19.9771H9.75337C9.79848 19.9771 9.80632 19.9771 9.80632 19.9202C9.80632 19.7123 9.80632 19.5044 9.80632 19.2965C9.80312 19.1508 9.75229 19.0102 9.66162 18.8961C9.57095 18.7821 9.44542 18.7009 9.30423 18.6649C9.21127 18.6467 9.11641 18.6401 9.02182 18.6453H5.38759C5.2405 18.6453 5.2503 18.6276 5.2503 18.7826C5.2503 19.6221 5.2503 20.4622 5.2503 21.303V23.8096C5.2503 23.8449 5.2503 23.8822 5.2503 23.9175C5.2503 23.9528 5.2503 23.9822 5.3111 23.9841H5.36602C6.62123 23.9841 7.87839 23.9841 9.1336 23.9841C9.22385 23.986 9.31355 23.9697 9.39738 23.9362C9.48122 23.9028 9.5575 23.8529 9.62169 23.7894C9.68588 23.7259 9.73668 23.6502 9.77109 23.5668C9.8055 23.4833 9.82281 23.3938 9.82201 23.3036C9.82201 23.1368 9.82201 22.9682 9.82201 22.8014C9.82201 22.6347 9.84163 22.6504 9.671 22.6504H6.58201C6.48786 22.6504 6.48786 22.6504 6.48786 22.5484C6.48786 22.3994 6.48786 22.2503 6.48786 22.1012C6.48786 21.9522 6.48785 21.9855 6.60749 21.9855H8.70801C8.75312 21.9855 8.79823 21.9855 8.84334 21.9855C8.91854 21.9822 8.99023 21.9528 9.04607 21.9023C9.10191 21.8518 9.13842 21.7834 9.14929 21.709C9.15325 21.6685 9.15325 21.6278 9.14929 21.5874C9.14929 21.4069 9.14929 21.2265 9.14929 21.046C9.14903 20.9966 9.14377 20.9473 9.1336 20.8989C9.11744 20.8327 9.08057 20.7734 9.02835 20.7297C8.97614 20.6859 8.91132 20.66 8.84334 20.6557C8.80675 20.6537 8.77009 20.6537 8.73351 20.6557H6.57612C6.47609 20.6557 6.47609 20.6557 6.47413 20.5596V20.1379C6.47413 19.9555 6.45059 19.9771 6.63691 19.9771Z" fill="#103A62"/>
<path d="M16.912 19.2572C16.7923 19.0669 16.6253 18.9108 16.4273 18.8042C16.2293 18.6976 16.0071 18.6442 15.7823 18.6492C14.7212 18.6492 13.6602 18.6492 12.5992 18.6492C12.4442 18.6492 12.4579 18.6316 12.4579 18.7983V23.8233C12.4579 23.8626 12.4579 23.9037 12.4579 23.9449C12.4577 23.9504 12.4585 23.9559 12.4605 23.961C12.4625 23.9661 12.4655 23.9708 12.4694 23.9747C12.4733 23.9785 12.4779 23.9816 12.483 23.9835C12.4882 23.9855 12.4936 23.9864 12.4991 23.9861H13.7465C13.772 23.9861 13.7877 23.9724 13.7877 23.9449C13.7877 23.9175 13.7877 23.8723 13.7877 23.837V22.8211C13.7877 22.6249 13.7622 22.6563 13.9524 22.6563H15.7548C15.8716 22.6577 15.9881 22.6452 16.102 22.619C16.3923 22.5496 16.6509 22.3846 16.8362 22.1505C17.0215 21.9165 17.1228 21.627 17.1238 21.3284C17.1238 20.8734 17.1238 20.4164 17.1238 19.9555C17.1246 19.7068 17.0508 19.4636 16.912 19.2572ZM15.7921 21.2735C15.7925 21.2803 15.7913 21.2871 15.7887 21.2934C15.7861 21.2997 15.7821 21.3054 15.777 21.3099C15.7719 21.3144 15.7659 21.3178 15.7593 21.3196C15.7527 21.3215 15.7459 21.3218 15.7391 21.3206H13.8308C13.8034 21.3206 13.7936 21.301 13.7916 21.2755V20.0987C13.7906 20.0804 13.7906 20.062 13.7916 20.0438C13.7916 20.0026 13.8053 19.9928 13.8504 19.9908H15.7587C15.7678 19.9922 15.776 19.9966 15.7821 20.0034C15.7882 20.0102 15.7917 20.0189 15.7921 20.0281C15.7921 20.0516 15.7921 20.0732 15.7921 20.0967C15.7921 20.4674 15.7921 20.8401 15.7921 21.2147V21.2735Z" fill="#103A62"/>
<path d="M22.3349 21.3147V18.8179C22.3349 18.7767 22.3349 18.7355 22.3349 18.6963C22.3349 18.6571 22.3211 18.6531 22.2917 18.6531H21.1405C20.9914 18.6531 21.0032 18.6531 21.0032 18.7924C21.0032 19.3808 21.0032 19.9574 21.0032 20.54C21.0032 20.6616 21.0032 20.6577 20.8855 20.6577H19.1517C18.985 20.6577 19.0027 20.6733 19.0027 20.5027V18.8238C19.0027 18.7865 19.0027 18.7512 19.0027 18.7159C19.0027 18.6806 18.9909 18.6571 18.936 18.6551H17.8102C17.6553 18.6551 17.669 18.6394 17.669 18.8022C17.669 20.4838 17.669 22.1633 17.669 23.841V23.9489C17.6688 23.9544 17.6696 23.96 17.6716 23.9652C17.6735 23.9704 17.6765 23.9752 17.6804 23.9792C17.6842 23.9833 17.6888 23.9865 17.694 23.9887C17.6991 23.9909 17.7046 23.992 17.7102 23.992H18.8752C19.0105 23.992 19.0027 23.992 19.0027 23.8704C19.0027 23.2964 19.0027 22.723 19.0027 22.1503C19.0027 22.1091 19.0027 22.0679 19.0027 22.0287C19.0027 22.0196 19.0061 22.0109 19.0123 22.0044C19.0185 21.9978 19.027 21.9939 19.036 21.9934H20.9326C20.9894 21.9934 20.9973 22.0032 20.9992 22.0542C21.0012 22.1052 20.9992 22.1169 20.9992 22.1483C20.9992 22.7171 20.9992 23.2859 20.9992 23.8547C20.9992 23.888 20.9992 23.9194 20.9992 23.9508C20.9983 23.9563 20.9987 23.962 21.0003 23.9674C21.0019 23.9727 21.0047 23.9777 21.0085 23.9818C21.0122 23.986 21.0169 23.9892 21.0221 23.9913C21.0273 23.9934 21.0329 23.9943 21.0385 23.994H22.1897C22.3486 23.994 22.3309 24.0116 22.3309 23.8469V21.3147H22.3349Z" fill="#103A62"/>
<path d="M4.62465 22.6465H1.51213C1.30031 22.6465 1.32973 22.6759 1.32973 22.4719C1.32973 21.252 1.32973 20.0326 1.32973 18.814C1.32973 18.7728 1.32973 18.7336 1.32973 18.6924C1.33082 18.6834 1.32891 18.6743 1.3243 18.6665C1.31969 18.6587 1.31264 18.6526 1.30423 18.6492H0.0156815C0.0105815 18.6509 0.00510002 18.6509 0 18.6492C0 18.861 0 19.0729 0 19.2847C0 20.3739 0 21.4612 0 22.5465C0 22.6269 0 22.7073 0 22.7897C0 22.8387 0.0137178 22.8877 0.0254854 22.9368C0.0915382 23.2347 0.257912 23.5009 0.496756 23.6909C0.735601 23.8808 1.03243 23.983 1.33757 23.9802C2.40842 23.9802 3.47927 23.9802 4.54816 23.9802H4.63054C4.63956 23.9792 4.64784 23.9748 4.65368 23.9679C4.65952 23.9609 4.66247 23.952 4.66192 23.943C4.66192 23.9214 4.66192 23.8979 4.66192 23.8763C4.66192 23.5017 4.66192 23.127 4.66192 22.7524C4.66192 22.7328 4.66192 22.7151 4.66192 22.6975C4.66303 22.6917 4.66295 22.6857 4.66165 22.6799C4.66036 22.6741 4.65788 22.6687 4.65439 22.6639C4.65089 22.6591 4.64644 22.6551 4.64133 22.6521C4.63621 22.6491 4.63054 22.6472 4.62465 22.6465Z" fill="#103A62"/>
</g>
<defs>
<clipPath id="clip0_985_2349">
<rect width="40" height="24" fill="white"/>
</clipPath>
</defs>
</svg>
