<svg width="258" height="24" viewBox="0 0 258 24" fill="none" xmlns="http://www.w3.org/2000/svg">
<path fill-rule="evenodd" clip-rule="evenodd" d="M25.8544 1.52514C26.219 2.3293 26.3803 3.21079 26.3239 4.09196L26.3709 22.5293H29.5012V11.5733H39.7059V18.366C39.6746 19.235 39.7641 20.1041 39.972 20.9485C40.0381 21.1945 40.1524 21.4249 40.3082 21.6264C40.464 21.8279 40.6583 21.9965 40.8797 22.1223C41.4775 22.3754 42.1254 22.4878 42.7735 22.451H45.8256V21.7623H45.1525C44.7887 21.8141 44.4176 21.764 44.0805 21.6176C43.7434 21.4711 43.4536 21.2341 43.2431 20.9328C42.8785 20.1287 42.7172 19.2472 42.7735 18.366V0.00695163H39.6433V10.2117H29.4386V4.09196C29.477 3.22275 29.3873 2.35262 29.1725 1.50949C29.1115 1.26132 28.9992 1.02866 28.8428 0.82649C28.6865 0.624322 28.4896 0.457125 28.2647 0.335641C27.6725 0.0822648 27.0296 -0.0302557 26.3866 0.00695163H23.2563V0.679973H23.9449C24.3102 0.631666 24.6816 0.684976 25.0185 0.834084C25.3554 0.983192 25.6446 1.22231 25.8544 1.52514ZM5.06924 1.3685H8.19951L8.12125 22.4509H11.2515V1.3685H18.9833V0.00683594H3.09716C1.17204 0.00683594 0.20166 0.914624 0.20166 2.73018V5.28134H0.812063C0.812063 2.66756 2.22069 1.3685 5.06924 1.3685ZM53.291 4.09184C53.3437 3.2093 53.177 2.32743 52.8058 1.52502C52.5985 1.22348 52.312 0.985006 51.9778 0.835879C51.6437 0.686752 51.2748 0.632768 50.9119 0.679857H50.2859V0.00683594H64.7634C66.7042 0.00683594 67.6589 0.914624 67.6589 2.73018V5.28134H66.9859C66.9859 2.66756 65.5616 1.3685 62.7287 1.3685H56.4682V10.2115H65.6555V11.5732H56.4682V21.0892H62.4157C63.6967 21.158 64.9713 20.8652 66.0938 20.2441C67.0821 19.5221 67.8206 18.51 68.2067 17.3486L68.8797 17.5207L67.6902 20.7449C67.5242 21.2782 67.1804 21.7384 66.7162 22.0488C66.2519 22.3593 65.6953 22.5012 65.1391 22.4509H53.4162L53.291 4.09184ZM88.1625 1.52478C88.5408 2.3249 88.7078 3.2086 88.6476 4.0916L88.7259 22.4507H100.449C101.005 22.501 101.562 22.3591 102.026 22.0486C102.49 21.7381 102.834 21.2779 103 20.7447L104.189 17.5205L103.516 17.3483C103.142 18.5157 102.401 19.5311 101.404 20.2438C100.287 20.8652 99.0172 21.1582 97.7411 21.089H91.7779V11.6356H100.965V10.2739H91.7779V1.43088H98.0385C100.871 1.43088 102.296 2.72994 102.296 5.34372H102.969V2.79254C102.969 0.976978 102.014 0.0692139 100.089 0.0692139H85.5956V0.742211H86.2843C86.6389 0.689618 87.0012 0.734698 87.3321 0.872584C87.663 1.01047 87.9501 1.23594 88.1625 1.52478ZM133.238 23.2335C132.327 22.7249 131.64 21.8926 131.313 20.9014C130.907 19.5309 130.722 18.1043 130.765 16.6755V3.57535L122.282 22.4509H121.594L112.751 3.23101V22.4509H111.389V0.00683594H114.629L122.783 17.6929L130.781 0.00683594H133.911V16.6755C133.835 18.3411 134.107 20.0042 134.709 21.5588C134.884 22.0638 135.212 22.5021 135.646 22.8133C136.081 23.1244 136.601 23.2931 137.135 23.2961V23.9847C135.794 24.0678 134.453 23.8093 133.238 23.2335ZM143.897 1.52502C144.262 2.32918 144.423 3.21068 144.366 4.09184L144.429 22.4509H156.168C156.723 22.4983 157.279 22.3552 157.742 22.0452C158.206 21.7351 158.55 21.2766 158.719 20.7449L159.908 17.5207L159.22 17.3486C158.844 18.5113 158.11 19.525 157.122 20.2441C156 20.8652 154.725 21.158 153.444 21.0892H147.497V11.5732H156.668V10.2115H147.497V1.3685H153.757C156.59 1.3685 158.014 2.66756 158.014 5.28134H158.687V2.73018C158.687 0.914624 157.717 0.00683594 155.792 0.00683594H141.314V0.679857H141.987C142.353 0.629741 142.725 0.682249 143.062 0.831508C143.399 0.980768 143.688 1.22088 143.897 1.52502ZM179.645 21.7151C178.442 20.6095 177.437 19.3075 176.671 17.8649L173.275 12.0739H170.896V22.4508H167.765V4.09171C167.822 3.21055 167.66 2.32905 167.296 1.52489C167.087 1.22075 166.798 0.980637 166.461 0.831378C166.124 0.682119 165.752 0.629611 165.386 0.679727H164.713V0.00670547H173.556C175.578 -0.0205774 177.58 0.412966 179.41 1.27446C180.289 1.72141 181.013 2.4242 181.485 3.29028C181.957 4.15636 182.156 5.14513 182.055 6.1264C182.055 9.15233 180.239 11.0774 176.608 11.9018L180.177 17.8649C180.774 18.9543 181.54 19.9422 182.446 20.7917C183.1 21.3553 183.917 21.6953 184.778 21.7621V22.4508C184.497 22.5655 184.203 22.6444 183.902 22.6855C183.514 22.7545 183.122 22.7912 182.728 22.7951C181.606 22.8024 180.517 22.4207 179.645 21.7151ZM175.732 10.3836C176.559 10.0529 177.287 9.51369 177.845 8.81843C178.434 8.06523 178.738 7.12879 178.706 6.17335C178.745 5.17847 178.441 4.20024 177.845 3.40305C177.286 2.70932 176.558 2.17046 175.732 1.83791C175.015 1.50347 174.237 1.32223 173.447 1.30577C172.585 1.31189 171.728 1.4276 170.896 1.6501V10.6496C171.728 10.8721 172.585 10.9879 173.447 10.994C174.241 10.9399 175.017 10.7326 175.732 10.3836ZM203.231 18.1937C203.634 19.6347 204.539 20.884 205.782 21.7153C206.735 22.2848 207.819 22.5976 208.928 22.6231C209.388 22.6258 209.846 22.5679 210.29 22.4509V21.7622C209.497 21.7334 208.739 21.429 208.146 20.9014C207.466 20.1002 206.936 19.183 206.581 18.1937L199.099 0.00683594H198.082L188.566 22.4509H190.131L192.854 15.9869H202.37L203.231 18.1937ZM201.697 14.6252H193.371L197.612 4.76487L201.697 14.6252ZM216.457 4.09196C216.517 3.20895 216.35 2.32525 215.971 1.52514C215.765 1.22228 215.479 0.98279 215.145 0.833511C214.81 0.684231 214.441 0.631071 214.078 0.679973H213.389V0.00695163H216.519C217.162 -0.0302557 217.805 0.0822648 218.397 0.335641C218.622 0.457125 218.819 0.624322 218.975 0.82649C219.132 1.02866 219.244 1.26132 219.305 1.50949C219.513 2.35385 219.603 3.22297 219.571 4.09196V21.0893H231.638V22.451H216.519L216.457 4.09196ZM237.695 1.52502C238.074 2.32514 238.241 3.20884 238.18 4.09184V22.4509H244.911C247.265 22.5147 249.602 22.027 251.735 21.0266C253.517 20.151 254.991 18.7535 255.96 17.0199C256.941 15.1995 257.432 13.1553 257.385 11.088C257.469 9.5623 257.208 8.03723 256.623 6.62571C256.038 5.21419 255.143 3.95235 254.004 2.93363C251.75 0.977213 248.416 0.00683594 244.034 0.00683594H235.113V0.679857H235.801C236.164 0.630955 236.534 0.684116 236.868 0.833395C237.203 0.982675 237.489 1.22216 237.695 1.52502ZM252.486 16.519C251.782 17.9513 250.699 19.1637 249.356 20.025C247.962 20.8608 246.363 21.2891 244.738 21.2614C243.573 21.2402 242.413 21.0933 241.279 20.8232V1.74414C242.378 1.39439 243.523 1.20977 244.676 1.19633C246.328 1.16195 247.956 1.59607 249.371 2.44845C250.724 3.31259 251.808 4.5378 252.501 5.98567C253.284 7.62118 253.675 9.41618 253.644 11.2289C253.683 13.0591 253.286 14.8723 252.486 16.519Z" fill="#D1E7BE"/>
</svg>
