<svg width="114" height="40" viewBox="0 0 114 40" fill="none" xmlns="http://www.w3.org/2000/svg">
<path d="M46.0668 17.808C46.0027 17.7627 45.9279 17.7243 45.846 17.6929C45.9458 17.6475 46.0276 17.5847 46.0882 17.5043C46.1737 17.3891 46.2164 17.2495 46.2164 17.0785C46.2164 16.9248 46.1808 16.7922 46.1095 16.6804C46.0383 16.5687 45.9314 16.485 45.7962 16.4256C45.6572 16.3663 45.4898 16.3383 45.2868 16.3383H43.9834V19.3266H45.3296C45.4863 19.3266 45.6288 19.3092 45.757 19.2673C45.8852 19.2289 45.9956 19.1731 46.0882 19.0997C46.1808 19.0264 46.2556 18.9322 46.3018 18.8205C46.3518 18.7087 46.3731 18.5796 46.3731 18.4295C46.3731 18.2968 46.3446 18.1746 46.2912 18.0699C46.2413 17.9687 46.163 17.8814 46.0668 17.808ZM44.5995 16.8969H45.1694C45.3082 16.8969 45.4151 16.9248 45.4827 16.9807C45.5504 17.0365 45.586 17.1203 45.586 17.2251C45.586 17.2914 45.5718 17.3473 45.5398 17.3961C45.5112 17.445 45.4649 17.4834 45.408 17.5113C45.351 17.5392 45.2833 17.5532 45.205 17.5532H44.596V16.8969H44.5995ZM45.6857 18.6075C45.6501 18.6633 45.6038 18.7052 45.5361 18.7332C45.472 18.7611 45.3937 18.775 45.3011 18.775H44.5995V18.0629H45.2833C45.3795 18.0629 45.4578 18.0769 45.5254 18.1048C45.5932 18.1327 45.6466 18.1711 45.6822 18.2235C45.7178 18.2758 45.7391 18.3387 45.7391 18.412C45.7356 18.4853 45.7213 18.5517 45.6857 18.6075Z" fill="white" fill-opacity="0.6"/>
<path d="M48.6079 18.1414C48.6079 18.2601 48.5793 18.3683 48.5259 18.4625C48.469 18.5568 48.3942 18.6336 48.298 18.6895C48.2019 18.7453 48.095 18.7733 47.9775 18.7733C47.8635 18.7733 47.7603 18.7453 47.6676 18.6895C47.5751 18.6336 47.5002 18.5568 47.4468 18.4625C47.3934 18.3683 47.365 18.2601 47.365 18.1414V16.3365H46.7168V18.1798C46.7168 18.4032 46.7702 18.6056 46.8806 18.7837C46.991 18.9617 47.137 19.1014 47.3293 19.2026C47.518 19.3039 47.7353 19.3528 47.9775 19.3528C48.2161 19.3528 48.4334 19.3039 48.6257 19.2026C48.818 19.1014 48.9675 18.9617 49.0744 18.7837C49.1812 18.6056 49.2347 18.4032 49.2347 18.1798V16.3365H48.6079V18.1414Z" fill="white" fill-opacity="0.6"/>
<path d="M49.7041 16.8888H50.2062V18.7774H49.7041V19.329H51.3494V18.7774H50.8508V16.8888H51.3494V16.3408H49.7041V16.8888Z" fill="white" fill-opacity="0.6"/>
<path d="M52.4838 16.3408H51.8428V19.329H53.8443V18.753H52.4838V16.3408Z" fill="white" fill-opacity="0.6"/>
<path d="M56.5176 16.7562C56.3858 16.6235 56.2328 16.5223 56.0547 16.4489C55.8766 16.3756 55.6772 16.3408 55.4564 16.3408H54.2241V19.329H55.4564C55.6772 19.329 55.8766 19.2941 56.0582 19.2208C56.2399 19.1474 56.393 19.0463 56.5212 18.9136C56.6494 18.7809 56.7491 18.6238 56.8168 18.4388C56.8845 18.2538 56.9201 18.0548 56.9201 17.8349C56.9201 17.6114 56.8845 17.4124 56.8168 17.2275C56.7456 17.0459 56.6459 16.8888 56.5176 16.7562ZM56.2114 18.2154C56.1757 18.3306 56.1188 18.4249 56.0476 18.5051C55.9764 18.5819 55.8873 18.6447 55.784 18.6902C55.6807 18.7355 55.5668 18.7565 55.435 18.7565H54.8687V16.9202H55.435C55.5632 16.9202 55.6807 16.9411 55.784 16.9866C55.8873 17.0319 55.9764 17.0913 56.0476 17.1716C56.1188 17.2519 56.1757 17.3461 56.2114 17.4614C56.247 17.5731 56.2684 17.6987 56.2684 17.8384C56.2648 17.9745 56.247 18.1002 56.2114 18.2154Z" fill="white" fill-opacity="0.6"/>
<path d="M57.1484 16.8888H57.6506V18.7774H57.1484V19.329H58.7938V18.7774H58.2952V16.8888H58.7938V16.3408H57.1484V16.8888Z" fill="white" fill-opacity="0.6"/>
<path d="M61.3155 17.1544C61.3155 17.2766 61.3155 17.3883 61.3191 17.493C61.3226 17.5978 61.3262 17.6955 61.3297 17.7863C61.3333 17.8805 61.3404 17.9678 61.3475 18.0551C61.3547 18.1424 61.3618 18.2261 61.3725 18.3099C61.376 18.3309 61.3796 18.3553 61.3796 18.3763L59.8625 16.334H59.2891V19.3223H59.9194V18.2471C59.9194 18.1912 59.9194 18.1354 59.9159 18.0865C59.9159 18.0342 59.9123 17.9818 59.9087 17.9259C59.9052 17.87 59.9016 17.8037 59.8945 17.7269C59.8874 17.6502 59.8803 17.5594 59.8696 17.4546C59.866 17.4128 59.8625 17.3673 59.8553 17.322L61.3618 19.3293H61.9459V16.341H61.3155V17.1544Z" fill="white" fill-opacity="0.6"/>
<path d="M67.0363 16.3408H66.7407V19.329H67.3853V18.1421H68.5891V17.5905H67.3853V16.9167H68.7671V16.3408H67.3853H67.0363Z" fill="white" fill-opacity="0.6"/>
<path d="M71.0263 18.1414C71.0263 18.2601 70.9978 18.3683 70.9444 18.4625C70.8875 18.5568 70.8127 18.6336 70.7165 18.6895C70.6203 18.7453 70.5135 18.7733 70.396 18.7733C70.282 18.7733 70.1787 18.7453 70.0862 18.6895C69.9935 18.6336 69.9188 18.5568 69.8654 18.4625C69.8119 18.3683 69.7834 18.2601 69.7834 18.1414V16.3365H69.1353V18.1798C69.1353 18.4032 69.1887 18.6056 69.2991 18.7837C69.4095 18.9617 69.5555 19.1014 69.7478 19.2026C69.9366 19.3039 70.1538 19.3528 70.396 19.3528C70.6346 19.3528 70.8518 19.3039 71.0441 19.2026C71.2365 19.1014 71.3861 18.9617 71.4929 18.7837C71.5997 18.6056 71.6528 18.4032 71.6528 18.1798V16.3365H71.0263V18.1414Z" fill="white" fill-opacity="0.6"/>
<path d="M71.9414 16.9167H72.8172V19.329H73.4616V16.9167H74.3595V16.3408H71.9414V16.9167Z" fill="white" fill-opacity="0.6"/>
<path d="M76.5513 18.1414C76.5513 18.2601 76.5228 18.3683 76.4694 18.4625C76.4125 18.5568 76.3377 18.6336 76.2416 18.6895C76.1455 18.7453 76.0386 18.7733 75.9212 18.7733C75.8072 18.7733 75.704 18.7453 75.6114 18.6895C75.5182 18.6336 75.4434 18.5568 75.39 18.4625C75.3366 18.3683 75.3081 18.2601 75.3081 18.1414V16.3365H74.6602V18.1798C74.6602 18.4032 74.7136 18.6056 74.8239 18.7837C74.9343 18.9617 75.0803 19.1014 75.2725 19.2026C75.4612 19.3039 75.6791 19.3528 75.9212 19.3528C76.1597 19.3528 76.3769 19.3039 76.5691 19.2026C76.7614 19.1014 76.9109 18.9617 77.0177 18.7837C77.1245 18.6056 77.1779 18.4032 77.1779 18.1798V16.3365H76.5513V18.1414Z" fill="white" fill-opacity="0.6"/>
<path d="M79.5544 18.1281C79.7075 18.0443 79.825 17.9256 79.914 17.779C79.9994 17.6324 80.0457 17.4683 80.0457 17.2903C80.0457 17.1088 80.003 16.9446 79.914 16.805C79.8285 16.6619 79.7075 16.5502 79.5544 16.4664C79.4013 16.3826 79.234 16.3408 79.0482 16.3408H77.7202V19.329H78.3432V18.2573H78.8167L79.4227 19.329L80.1667 19.3325L79.4868 18.163C79.5117 18.149 79.533 18.1421 79.5544 18.1281ZM78.3432 16.8958H78.9378C79.0304 16.8958 79.1158 16.9132 79.1877 16.9482C79.2589 16.9831 79.3123 17.0319 79.3515 17.0948C79.3871 17.1576 79.4084 17.2309 79.4084 17.3182C79.4084 17.3985 79.3942 17.4683 79.3622 17.5346C79.3301 17.601 79.2874 17.6498 79.2269 17.6848C79.1692 17.7197 79.098 17.7371 79.0232 17.7371H78.3468V16.8958H78.3432Z" fill="white" fill-opacity="0.6"/>
<path d="M81.1443 18.0758H82.3341V17.5311H81.1443V16.9028H82.5406V16.3408H80.5142V19.329H82.5726V18.7634H81.1443V18.0758Z" fill="white" fill-opacity="0.6"/>
<path d="M85.0749 18.0823C85.0251 17.9846 84.9574 17.8973 84.8684 17.8275C84.7794 17.7542 84.669 17.6913 84.5444 17.6425C84.4198 17.5901 84.2774 17.5482 84.1208 17.5203C84.0389 17.5028 83.9606 17.4819 83.8929 17.4609C83.8246 17.4365 83.7641 17.4121 83.7178 17.3807C83.6679 17.3492 83.6323 17.3143 83.6074 17.2759C83.5825 17.2375 83.5682 17.1921 83.5682 17.1398C83.5682 17.0769 83.5861 17.0211 83.6252 16.9757C83.6644 16.9303 83.7178 16.8919 83.7854 16.8674C83.8531 16.843 83.9357 16.8325 84.0318 16.8325C84.1172 16.8325 84.2027 16.8465 84.281 16.8745C84.3629 16.9024 84.4376 16.9408 84.5088 16.9967C84.58 17.049 84.6441 17.1189 84.7046 17.1956L85.0607 16.7278C84.9823 16.6231 84.9574 16.5986 84.8577 16.5184C84.7545 16.4416 84.637 16.3823 84.4982 16.3403C84.3629 16.3019 84.2027 16.281 84.0175 16.281C83.8673 16.281 83.7285 16.3019 83.5932 16.3438C83.4614 16.3857 83.344 16.4485 83.2407 16.5289C83.1375 16.6091 83.0591 16.7034 83.0022 16.8116C82.9452 16.9198 82.9167 17.0385 82.9167 17.1677C82.9167 17.2934 82.9345 17.4051 82.9737 17.5063C83.0129 17.6076 83.0698 17.6948 83.1517 17.7716C83.23 17.8484 83.3333 17.9148 83.4508 17.9671C83.5718 18.0195 83.7107 18.0649 83.8709 18.1033C83.9463 18.1138 84.014 18.1312 84.0781 18.1487C84.1421 18.1661 84.1991 18.187 84.249 18.2115C84.2988 18.236 84.3451 18.2639 84.3807 18.2918C84.4163 18.3232 84.4448 18.3547 84.4661 18.393C84.4875 18.4314 84.4946 18.4733 84.4946 18.5187C84.4946 18.5815 84.4732 18.6339 84.4341 18.6793C84.3949 18.7247 84.338 18.7596 84.2703 18.784C84.1991 18.8084 84.1208 18.8224 84.0318 18.8224C83.8673 18.8224 83.7178 18.7875 83.5789 18.7177C83.4401 18.6479 83.3012 18.5152 83.1624 18.3232L82.7886 18.8189C82.8811 18.9446 82.9595 19.0144 83.0769 19.1017C83.1944 19.1889 83.3297 19.2553 83.4828 19.3007C83.6359 19.3461 83.8032 19.3705 83.9926 19.3705C84.2205 19.3705 84.4198 19.3321 84.5943 19.2588C84.7652 19.182 84.9005 19.0737 84.9966 18.9306C85.0927 18.7875 85.1425 18.6165 85.1425 18.414C85.1461 18.2918 85.1212 18.1801 85.0749 18.0823Z" fill="white" fill-opacity="0.6"/>
<path d="M64.8778 17.7229H63.9233V18.2674H64.7851C64.6284 18.5851 64.3008 18.8015 63.9233 18.8015C63.3926 18.8015 62.9617 18.3722 62.9617 17.8451C62.9617 17.3179 63.3926 16.8885 63.9233 16.8885C64.2901 16.8885 64.6106 17.0945 64.7709 17.3947C64.7745 17.3982 64.7745 17.4052 64.778 17.4087L65.1342 16.9478C64.8528 16.5534 64.3934 16.295 63.8699 16.295C63.0152 16.295 62.3242 16.9828 62.3242 17.8346C62.3242 18.6828 63.0152 19.3741 63.8699 19.3741C64.7246 19.3741 65.4155 18.6864 65.4155 17.8346C65.4155 17.8031 65.4155 17.7613 65.4119 17.7299L64.8778 17.7229Z" fill="white" fill-opacity="0.6"/>
<path d="M48.6862 22.2056C45.9831 22.2056 43.7822 24.3935 43.7822 27.0839C43.7822 29.7743 45.9831 31.9622 48.6862 31.9622C51.3893 31.9622 53.5902 29.7743 53.5902 27.0839C53.5902 24.3935 51.3893 22.2056 48.6862 22.2056ZM51.6172 27.0839C51.6172 28.6925 50.3031 30.0046 48.6862 30.0046C47.0693 30.0046 45.7552 28.696 45.7552 27.0839C45.7552 25.4752 47.0693 24.1632 48.6862 24.1632C50.3031 24.1632 51.6172 25.4752 51.6172 27.0839Z" fill="white" fill-opacity="0.6"/>
<path d="M91.2563 22.2056C88.5534 22.2056 86.3525 24.3935 86.3525 27.0839C86.3525 29.7743 88.5534 31.9622 91.2563 31.9622C93.9599 31.9622 96.1608 29.7743 96.1608 27.0839C96.1608 24.3935 93.9599 22.2056 91.2563 22.2056ZM94.1877 27.0839C94.1877 28.6925 92.8733 30.0046 91.2563 30.0046C89.6393 30.0046 88.3256 28.696 88.3256 27.0839C88.3256 25.4752 89.6393 24.1632 91.2563 24.1632C92.8733 24.1632 94.1877 25.4752 94.1877 27.0839Z" fill="white" fill-opacity="0.6"/>
<path d="M53.4399 24.2683H56.0789V31.8824H58.1481V24.2683H60.8654V22.3456H53.4399V24.2683Z" fill="white" fill-opacity="0.6"/>
<path d="M63.8953 27.9462H67.5742V26.0723H63.8953V24.2439H68.2473V22.3456H61.8511V31.8824H68.3007V29.9841H63.8953V27.9462Z" fill="white" fill-opacity="0.6"/>
<path d="M99.2013 28.4177V22.3181H97.1357V31.8897H98.9806L103.507 25.9402V27.9256C103.507 28.0025 103.503 28.0723 103.503 28.1455L103.507 31.8967H105.245L105.423 31.8897H105.573V22.3181H103.753L99.2013 28.4177Z" fill="white" fill-opacity="0.6"/>
<path d="M23.2086 29.4153C18.3652 29.4153 14.4406 25.507 14.4406 20.688C14.4406 15.869 18.3652 11.9608 23.2086 11.9608C25.2172 11.9608 27.0727 12.6342 28.5507 13.7684L31.9589 9.31574C29.5443 7.46979 26.5243 6.37408 23.2442 6.37408C15.5196 6.37408 9.22679 12.4563 8.93116 20.0704C2.5528 25.9781 -0.958704 31.8823 1.61259 34.3669C2.93386 35.6441 8.27232 34.8694 12.4747 33.1107C12.7098 33.013 12.5637 32.7024 12.3109 32.7373C8.87064 33.2328 5.91471 32.8734 4.9389 31.5893C3.50011 29.6979 5.13833 25.7827 8.93472 21.2743C9.27307 28.8465 15.5518 34.8833 23.2442 34.8833C26.5243 34.8833 29.5443 33.7876 31.9589 31.9416L28.5934 27.5694C27.1083 28.7278 25.2422 29.4153 23.2086 29.4153Z" fill="white" fill-opacity="0.6"/>
<path d="M27.1293 25.3008C26.9832 25.3985 26.8265 25.1926 26.9619 25.0775C32.6244 20.1817 39.7543 14.1204 38.7108 9.44797C38.1338 6.86573 33.8353 6.67381 31.5525 7.12745C31.175 7.20422 31.1678 6.93204 31.5169 6.77152C35.4913 4.95698 41.6204 4.14043 42.9346 6.26205C45.1568 9.84926 36.663 19.0581 27.1293 25.3008Z" fill="white" fill-opacity="0.6"/>
<path d="M42.2612 28.9544C41.7021 29.6209 40.883 30.0013 40.0105 30.0013C39.6899 30.0013 39.3837 29.949 39.0952 29.8547C37.9271 29.4709 37.0795 28.3717 37.0795 27.0806C37.0795 25.7964 37.9164 24.7042 39.0738 24.3134C39.3694 24.2157 39.6828 24.1599 40.0105 24.1599C40.8901 24.1599 41.7164 24.5471 42.2755 25.2241L42.4179 25.3951L43.6252 23.776L43.5469 23.6958C42.6138 22.7291 41.3566 22.1987 40.0105 22.1987C39.2412 22.1987 38.5147 22.3767 37.8665 22.6907C36.2354 23.4829 35.1064 25.1509 35.1064 27.0771C35.1064 29.0103 36.2426 30.6817 37.8844 31.4704C38.529 31.7809 39.2483 31.9519 40.0105 31.9519C41.346 31.9519 42.596 31.425 43.529 30.4724L43.6074 30.3921L42.4037 28.7765L42.2612 28.9544Z" fill="white" fill-opacity="0.6"/>
<path d="M76.199 28.9544C75.6393 29.6209 74.8205 30.0013 73.9483 30.0013C73.6271 30.0013 73.321 29.949 73.0326 29.8547C71.8649 29.4709 71.017 28.3717 71.017 27.0806C71.017 25.7964 71.8542 24.7042 73.0112 24.3134C73.3067 24.2157 73.62 24.1599 73.9483 24.1599C74.8276 24.1599 75.6536 24.5471 76.2132 25.2241L76.3556 25.3951L77.5625 23.776L77.4842 23.6958C76.5514 22.7291 75.294 22.1987 73.9483 22.1987C73.1786 22.1987 72.4523 22.3767 71.8043 22.6907C70.1729 23.4829 69.0439 25.1509 69.0439 27.0771C69.0439 29.0103 70.1801 30.6817 71.8221 31.4704C72.4665 31.7809 73.1857 31.9519 73.9483 31.9519C75.2833 31.9519 76.5336 31.425 77.4664 30.4724L77.5447 30.3921L76.3414 28.7765L76.199 28.9544Z" fill="white" fill-opacity="0.6"/>
<path d="M84.8703 28.9544C84.3114 29.6209 83.4925 30.0013 82.6196 30.0013C82.2992 30.0013 81.993 29.949 81.7046 29.8547C80.5362 29.4709 79.6889 28.3717 79.6889 27.0806C79.6889 25.7964 80.5255 24.7042 81.6833 24.3134C81.9787 24.2157 82.292 24.1599 82.6196 24.1599C83.4996 24.1599 84.3256 24.5471 84.8845 25.2241L85.0269 25.3951L86.2346 23.776L86.1562 23.6958C85.2228 22.7291 83.966 22.1987 82.6196 22.1987C81.8506 22.1987 81.1243 22.3767 80.4756 22.6907C78.8444 23.4829 77.7158 25.1509 77.7158 27.0771C77.7158 29.0103 78.8515 30.6817 80.4935 31.4704C81.1386 31.7809 81.8577 31.9519 82.6196 31.9519C83.9553 31.9519 85.205 31.425 86.1384 30.4724L86.2168 30.3921L85.0127 28.7765L84.8703 28.9544Z" fill="white" fill-opacity="0.6"/>
<path d="M113.777 27.8623C113.617 27.5413 113.389 27.2587 113.097 27.0248C112.812 26.7945 112.463 26.5956 112.067 26.4351C112 26.4072 111.932 26.3828 111.861 26.3549C111.523 26.2327 111.145 26.128 110.743 26.0478C110.497 25.9989 110.273 25.9396 110.07 25.8698C109.963 25.8349 109.863 25.793 109.77 25.7511C109.699 25.7163 109.632 25.6814 109.571 25.6465C109.446 25.5697 109.35 25.4825 109.286 25.3812C109.226 25.287 109.197 25.1824 109.197 25.0603C109.197 24.9102 109.243 24.7811 109.332 24.6694C109.429 24.5542 109.567 24.4635 109.742 24.4007C109.931 24.3344 110.163 24.2995 110.426 24.2995C110.558 24.2995 110.693 24.3135 110.821 24.3344C110.925 24.3519 111.031 24.3798 111.131 24.4112C111.359 24.4879 111.573 24.6031 111.768 24.7532C111.968 24.9067 112.156 25.1021 112.328 25.3289L112.47 25.5174L113.763 23.7831L113.699 23.6959C113.449 23.3609 113.364 23.2736 113.044 23.0293C112.784 22.8305 112.485 22.6664 112.149 22.5443C112.067 22.5129 111.982 22.485 111.893 22.4606C111.462 22.3349 110.953 22.2721 110.38 22.2721C109.909 22.2721 109.461 22.3419 109.037 22.4745C108.613 22.6106 108.236 22.8095 107.911 23.0642C107.584 23.3225 107.324 23.6295 107.139 23.9855C106.954 24.3414 106.857 24.7322 106.857 25.151C106.857 25.5523 106.922 25.9187 107.046 26.2397C107.171 26.5642 107.367 26.8574 107.63 27.112C107.833 27.311 108.076 27.4819 108.357 27.632C108.435 27.6738 108.514 27.7123 108.596 27.7472C108.969 27.9112 109.411 28.0542 109.906 28.1659L109.92 28.1694C110.099 28.1973 110.262 28.2322 110.415 28.2706C110.451 28.2811 110.487 28.288 110.522 28.2985C110.704 28.3508 110.871 28.4136 111.017 28.4834C111.16 28.5497 111.284 28.6265 111.384 28.7068C111.476 28.7835 111.551 28.8673 111.597 28.9615C111.647 29.0557 111.669 29.1534 111.669 29.2651C111.669 29.4116 111.622 29.5338 111.53 29.635C111.427 29.7466 111.284 29.8373 111.099 29.9072C110.907 29.977 110.686 30.0119 110.437 30.0119C110.027 30.0119 109.639 29.9316 109.283 29.778C109.236 29.7571 109.187 29.7362 109.14 29.7117C108.745 29.5129 108.339 29.129 107.933 28.5637L107.794 28.3718L106.441 30.1863L106.505 30.2735C106.811 30.6783 107.064 30.9017 107.424 31.1703C107.598 31.2995 107.787 31.4146 107.987 31.5158C108.218 31.6344 108.464 31.7322 108.72 31.809C109.201 31.952 109.738 32.0253 110.319 32.0253C111.039 32.0253 111.676 31.9032 112.221 31.6658C112.773 31.4251 113.211 31.0692 113.524 30.6085C113.837 30.1479 113.998 29.5861 113.998 28.9405C114.015 28.5497 113.934 28.1869 113.777 27.8623Z" fill="white" fill-opacity="0.6"/>
</svg>
