<svg width="45" height="44" viewBox="0 0 45 44" fill="none" xmlns="http://www.w3.org/2000/svg">
<path fill-rule="evenodd" clip-rule="evenodd" d="M39.8772 11.9525L39.8771 11.9523L39.7066 11.527C39.487 10.9809 39.268 10.4348 39.0491 9.88871L39.0487 9.88774L39.0483 9.88678L39.0479 9.88582C38.61 8.79377 38.1722 7.70173 37.7292 6.60968V6.55718H37.6766C35.1746 5.41259 32.6112 4.31018 30.0953 3.22818L30.0952 3.22814L30.0944 3.22781C29.5078 2.97552 28.9237 2.72434 28.3436 2.474C26.5237 1.70986 24.6455 0.910708 22.808 0.11157H22.773C22.6678 0.0474876 22.5487 0.00979025 22.4258 0.00166507C22.3029 -0.00646012 22.1799 0.0152355 22.0672 0.064913C19.3269 1.16103 16.5351 2.32925 13.837 3.45827L13.3175 3.67562L12.4889 4.02075C10.7775 4.7337 9.0705 5.44484 7.36776 6.14302C6.85603 6.29421 6.6863 6.76424 6.535 7.18325L6.53359 7.18715C6.49859 7.28631 6.46359 7.37965 6.42276 7.46715C5.58393 9.46519 4.76259 11.4632 3.94123 13.4613L3.93788 13.4694L3.65224 14.1597C2.66265 16.5515 1.64605 19.0085 0.624636 21.4025C0.532971 21.5244 0.474596 21.6681 0.455168 21.8195C0.43574 21.9708 0.455959 22.1246 0.513841 22.2658C1.02879 23.5215 1.54024 24.7808 2.0509 26.0382L2.05106 26.0385L2.05123 26.039L2.05141 26.0394L2.49708 27.1364C3.85037 30.4788 5.25614 33.932 6.68526 37.3036L6.72026 37.3561C7.11952 37.6869 7.58196 37.933 8.07938 38.0794L8.09888 38.0868C8.33826 38.178 8.59334 38.2751 8.83184 38.3944C10.7334 39.176 12.6584 40.0101 14.5191 40.8209C16.9807 41.8942 19.5298 43.0025 22.0672 44H22.1197H22.178C25.0476 42.8992 27.927 41.7005 30.7399 40.5294L31.511 40.2085C33.3601 39.4327 35.2734 38.6335 37.1517 37.8752C37.3662 37.7659 37.5526 37.6084 37.6963 37.4151C37.84 37.2219 37.937 36.998 37.98 36.7611L37.9741 36.6094C39.0708 34.0545 40.1615 31.4471 41.2115 28.9272C42.0223 26.9848 42.8331 25.0423 43.6497 23.0941C43.7972 22.9052 43.8952 22.6826 43.935 22.4463C43.9747 22.21 43.9549 21.9675 43.8773 21.7408C42.5028 18.5002 41.1711 15.1793 39.8772 11.9525ZM42.5006 20.4692C41.1765 19.1975 39.7882 17.7801 38.0966 15.9602C38.3183 15.8727 38.54 15.7735 38.75 15.6743C39.2431 15.421 39.7637 15.2253 40.3015 15.091C41.0307 16.8176 41.789 18.6376 42.5006 20.4692ZM37.8341 8.84959L38.4175 10.267L38.5402 10.5678C39.0447 11.804 39.5643 13.0771 40.039 14.3502C39.7649 14.4552 39.4908 14.5661 39.2283 14.6827C38.7808 14.8894 38.3187 15.0629 37.8458 15.2019C37.7933 13.4053 37.77 11.1537 37.8108 8.84959H37.8341ZM37.0525 10.5995V15.1202C36.23 14.6069 35.4134 14.0586 34.6259 13.5278C33.8385 12.9969 33.1443 12.5361 32.386 12.0637C31.4702 10.6812 30.5369 9.14708 29.382 7.15215H33.4185H37.0583C37.0233 8.29545 37.0233 9.43875 37.0292 10.5879L37.0525 10.5995ZM17.9724 34.8595C15.2927 33.9271 12.9703 32.1828 11.3279 29.8693C9.68554 27.5558 8.80492 24.788 8.80852 21.9508C8.73269 15.161 14.525 8.89042 21.1981 8.5346C21.5422 8.50543 21.8806 8.49376 22.2247 8.49376C24.5629 8.52206 26.8538 9.156 28.8739 10.3337C30.8941 11.5114 32.5744 13.1927 33.751 15.2135C36.3875 19.7984 36.1192 25.8531 33.0977 29.9422C29.9069 34.6145 23.3913 36.7319 17.9724 34.8595ZM30.3094 33.7687C30.1205 34.0735 29.9254 34.3782 29.7331 34.6783L29.733 34.6785C29.6641 34.7862 29.5955 34.8932 29.5278 34.9995L29.4783 35.0766L29.4782 35.0767L29.478 35.077C29.0967 35.6714 28.7021 36.2862 28.3612 36.9011C27.3757 36.7803 26.4007 36.5853 25.4446 36.3178L24.6571 36.1253C26.6795 35.7213 28.601 34.9181 30.3094 33.7629V33.7687ZM19.6056 36.0669C19.0223 36.1778 18.439 36.3236 17.8557 36.4694C17.2724 36.6153 16.6424 36.7669 16.0358 36.8777C15.5153 36.1693 15.0493 35.4225 14.6416 34.6437C14.5757 34.5255 14.5098 34.4108 14.4436 34.2956L14.4435 34.2955L14.4435 34.2955L14.4435 34.2954C14.3397 34.1149 14.2351 33.933 14.1283 33.7337C15.7627 34.8993 17.6321 35.6936 19.6056 36.0611V36.0669ZM7.77592 28.3716L7.77588 28.3716L7.77561 28.3714C7.66262 28.2939 7.55 28.2165 7.43775 28.1397L7.47405 27.9677L7.47406 27.9676L7.47407 27.9676L7.47408 27.9675C7.53181 27.6941 7.58884 27.424 7.6419 27.1539C7.81689 26.2731 7.99772 25.369 8.22521 24.494C8.6221 26.5007 9.40245 28.412 10.5235 30.123V30.1288C9.58142 29.6112 8.66694 28.9834 7.77594 28.3717L7.77592 28.3716ZM9.48515 14.566C8.82051 14.9742 8.13257 15.3998 7.48538 15.8603C7.71266 17.037 7.98067 18.2427 8.27773 19.4542C8.70894 17.465 9.49965 15.5713 10.611 13.8661C10.2377 14.1052 9.85847 14.3386 9.48515 14.566ZM14.4255 9.85348C14.3548 9.98109 14.283 10.1108 14.2101 10.2338C15.8582 9.08613 17.7277 8.29483 19.699 7.91045C18.4973 7.56046 17.2549 7.30382 16.1641 7.08216C15.5974 7.81237 15.0994 8.59345 14.6766 9.41541C14.5946 9.5479 14.5109 9.69914 14.4255 9.85348ZM24.7563 7.91045L25.5904 7.71797C26.5121 7.50214 27.4687 7.28048 28.4136 7.13465C29.1194 8.18462 29.7611 9.26958 30.3852 10.3429C28.6867 9.17419 26.7736 8.35343 24.7563 7.92795V7.91045ZM36.1017 24.599C36.2709 25.2815 36.4225 25.9756 36.5684 26.6523C36.685 27.1948 36.8017 27.7314 36.93 28.2681C36.5112 28.5194 36.1164 28.7827 35.7262 29.0429L35.7262 29.043L35.7261 29.043L35.726 29.0431L35.7258 29.0432C35.5727 29.1453 35.4204 29.2469 35.2676 29.3472C35.101 29.4564 34.9477 29.558 34.8011 29.655C34.4703 29.8741 34.174 30.0703 33.8384 30.2805C34.9698 28.5658 35.7399 26.6387 36.1017 24.6165V24.599ZM33.8909 13.9536C34.3232 14.2282 34.7466 14.5161 35.1611 14.798L35.3434 14.9219C35.8159 15.2427 36.405 15.6394 36.9475 15.9835C36.7532 17.2255 36.4765 18.4531 36.1192 19.6584C35.775 17.6242 35.0166 15.6825 33.8909 13.9536ZM32.7243 5.20389L32.7538 5.21618L32.7539 5.21623L32.754 5.21627L32.7542 5.21632C33.6548 5.59159 34.5834 5.97851 35.4892 6.39968C34.7115 6.41912 33.9337 6.41264 33.156 6.40616C32.7671 6.40292 32.3782 6.39968 31.9893 6.39968H29.7961H29.1661C29.4392 5.62274 29.7547 4.86135 30.1111 4.11892C30.7686 4.37661 31.4363 4.65122 32.1013 4.9247C32.3094 5.01028 32.5172 5.09575 32.7243 5.18056V5.20389ZM25.8471 2.28733C27.0137 2.77731 28.1803 3.27895 29.347 3.80977C29.1909 4.35006 28.9959 4.87838 28.7636 5.39056C28.7365 5.4534 28.7088 5.51624 28.6811 5.57923C28.6135 5.73256 28.5457 5.88675 28.4836 6.04386C27.0137 4.60892 25.4679 3.0923 24.0038 1.51735C24.5087 1.69697 25.0135 1.90486 25.5218 2.11414L25.5218 2.11416L25.5222 2.11431L25.5222 2.11432L25.5222 2.11433C25.6245 2.15646 25.727 2.19864 25.8296 2.24066L25.8471 2.28733ZM22.2947 0.951541C23.8288 2.39816 25.3279 3.94394 26.7745 5.44305L27.8187 6.52218C26.1679 6.8955 24.488 7.25132 22.8605 7.59548L22.0964 7.7588C20.4748 7.37382 18.5965 6.92465 16.7649 6.45217C17.8265 5.33805 18.9406 4.24725 20.0198 3.19146C20.621 2.55678 21.2458 1.93383 21.8651 1.31619C22.0029 1.17885 22.1403 1.04177 22.2772 0.904884L22.2947 0.951541ZM15.8083 3.42478L16.2104 3.25644C17.6586 2.65005 19.1425 2.02869 20.6264 1.44152C19.8798 2.21149 19.104 2.9698 18.3515 3.69894C17.599 4.42808 16.8291 5.18056 16.0882 5.95053C16.0008 5.74054 15.9074 5.53054 15.8141 5.32638C15.5711 4.79653 15.3759 4.24603 15.2308 3.68144L15.8083 3.42478ZM14.5191 4.00809C14.7373 4.71898 15.0024 5.41465 15.3125 6.09052L15.3708 6.21885C13.8308 6.30635 12.2559 6.28885 10.7334 6.27135H9.07102C10.716 5.53637 12.5067 4.79558 14.5308 4.00227L14.5191 4.00809ZM7.51939 7.00633H10.436C10.7366 7.00633 11.0389 7.00525 11.3424 7.00418C12.6231 6.99964 13.9248 6.99503 15.2074 7.07048C15.0164 7.38463 14.8285 7.70187 14.6414 8.0177C14.5714 8.13583 14.5015 8.25377 14.4317 8.37127C14.3418 8.52108 14.2515 8.67204 14.1608 8.82381C13.5448 9.85395 12.9065 10.9213 12.2151 11.9178C10.8385 12.822 9.29851 13.7786 7.46107 14.916C7.43191 12.2853 7.45523 9.62539 7.51939 7.00049V7.00633ZM6.73777 8.61043C6.73777 10.197 6.73776 11.8012 6.6911 13.3528V15.0152C6.29362 14.8889 5.90405 14.7389 5.52447 14.566C5.19199 14.4202 4.84783 14.2744 4.49784 14.1519C5.16865 12.297 5.92697 10.4362 6.73777 8.61043ZM4.14203 14.8752L4.72534 15.091C5.28918 15.2954 5.84042 15.533 6.37612 15.8027C4.85368 17.3543 3.35457 18.8592 1.89629 20.2767C2.69264 18.3109 3.39859 16.6375 4.04971 15.094L4.14203 14.8752ZM3.15623 26.8623C2.71874 25.824 2.26959 24.7565 1.87877 23.6832C3.29039 25.0715 4.73699 26.5531 6.27693 28.1922C5.88265 28.362 5.4781 28.5215 5.08739 28.6755L5.01116 28.7055L4.06619 29.0847C3.81848 28.4101 3.53746 27.7355 3.26181 27.0738L3.17374 26.8623H3.15623ZM6.58027 35.2328C5.84529 33.4829 5.08699 31.6338 4.36369 29.8313C5.07272 29.4658 5.81247 29.1633 6.57443 28.9272V29.703C6.61526 31.5171 6.63862 33.3837 6.59778 35.2328H6.58027ZM1.3013 21.9391C1.97794 21.28 2.65458 20.5917 3.30789 19.9267C4.43369 18.7601 5.59448 17.5934 6.80777 16.5201C7.18692 18.0893 7.65355 20.09 8.02687 22.1083C7.8526 22.9633 7.63767 23.8336 7.42952 24.6763L7.38524 24.8557L7.31074 25.157C7.11549 25.946 6.92743 26.706 6.76693 27.4981C5.13949 25.9231 3.39537 24.1499 1.31878 21.9391H1.3013ZM8.04439 36.8311H7.38524H7.35608V34.4278V29.0614C7.60206 29.2237 7.84803 29.384 8.09619 29.5457C8.43652 29.7674 8.78097 29.9918 9.13518 30.228C10.121 30.8521 11.1418 31.4996 12.1276 32.1587C12.8398 33.187 13.484 34.2696 14.1252 35.3469C14.3242 35.6814 14.523 36.0153 14.7233 36.3469L15.0675 36.9302H15.0661C13.3983 36.9302 11.7013 36.9302 10.0568 36.9011L8.04439 36.8311ZM14.4025 39.8293V39.8876C14.4025 39.8935 14.2333 39.8876 14 39.7476L13.475 39.526C12.9756 39.3142 12.4768 39.1017 11.978 38.8892L11.9766 38.8886L11.9755 38.8882L11.9748 38.8879C10.9775 38.463 9.98017 38.0382 8.97767 37.6186C10.1443 37.5486 11.3109 37.5836 12.4775 37.6186L12.676 37.6251H12.676H12.6761H12.6761C13.5013 37.6526 14.3536 37.681 15.1958 37.6594C15.1025 37.9102 14.9975 38.1552 14.8925 38.3944C14.6902 38.8567 14.532 39.3372 14.42 39.8293H14.4025ZM19.0223 41.9467C18.2074 41.5877 17.3749 41.2288 16.5423 40.8698C16.022 40.6455 15.5018 40.4211 14.9858 40.1968C15.26 39.4793 15.5691 38.756 15.9366 37.9977C16.2616 38.3297 16.593 38.6618 16.9218 38.9913L16.9219 38.9914L16.9219 38.9914C17.1419 39.2118 17.3607 39.4311 17.5757 39.6485C18.509 40.5759 19.4656 41.5267 20.3639 42.5184L19.0223 41.9467ZM22.0672 43.1133C20.1248 41.2059 18.2115 39.2518 16.5666 37.5661L16.6002 37.558C18.2987 37.1522 20.0429 36.7355 21.7755 36.3994C22.9696 36.5562 24.1523 36.79 25.3163 37.0994L25.3263 37.1018L25.3265 37.1019C26.0699 37.2819 26.8364 37.4676 27.6028 37.6127C25.7246 39.6135 23.683 41.5734 22.0847 43.0842L22.0672 43.1133ZM27.3987 41.0659L27.1986 41.152L27.1985 41.152C26.0985 41.6254 24.996 42.0997 23.8521 42.5067C24.9021 41.3984 26.0046 40.3135 27.0779 39.2693L28.2795 38.1027C28.506 38.5493 28.701 39.0112 28.8628 39.4851C28.889 39.5534 28.9151 39.6239 28.9415 39.6951C29.0212 39.9097 29.1033 40.1309 29.1953 40.3193C28.6411 40.5234 28.017 40.7801 27.4162 41.0368L27.3987 41.0659ZM29.9011 39.9868C29.8252 39.8001 29.7494 39.6193 29.6678 39.4327C29.4408 38.8984 29.246 38.3511 29.0845 37.7935H35.3609C34.8064 38.015 34.249 38.2415 33.69 38.4686L33.6891 38.469C32.4372 38.9777 31.1765 39.4899 29.9186 39.9576L29.9011 39.9868ZM36.9008 33.0221C36.9008 33.4552 36.8976 33.8929 36.8944 34.333C36.8879 35.2202 36.8813 36.117 36.9008 37.0061H33.401H29.1195L29.4461 36.4811L29.617 36.21C30.4497 34.8893 31.3037 33.5345 32.1935 32.2462C32.876 31.8204 33.5585 31.3771 34.2176 30.9455C35.0926 30.3622 35.9676 29.7788 36.895 29.2539C36.965 30.4672 36.9533 31.7504 36.9417 32.9929L36.9008 33.0221ZM37.6242 35.3903V35.3901C37.6242 33.4535 37.6242 31.2604 37.7292 29.0905L37.8108 29.1255C38.4816 29.4172 39.1699 29.7088 39.8699 29.9772C39.2224 31.8788 38.3824 33.792 37.665 35.3611L37.6242 35.3903ZM42.0573 24.9432C41.9461 25.2145 41.8349 25.4883 41.7231 25.7637C41.2484 26.9328 40.7628 28.1288 40.2199 29.2714C39.5082 29.0089 38.7616 28.7172 38.0558 28.3731C39.5666 26.7048 41.159 25.159 42.4773 23.9165L42.0573 24.9432ZM39.9049 25.3923C39.1349 26.1506 38.3416 26.9323 37.5716 27.7256C37.0992 25.8531 36.7084 23.9691 36.3409 22.1958C36.5509 20.9942 36.8483 19.7925 37.14 18.6259C37.2975 18.0018 37.4608 17.3543 37.6066 16.7127C38.8258 17.8443 39.9982 19.0459 41.1357 20.2125C41.7657 20.8658 42.4131 21.5366 43.0664 22.1899C42.0573 23.2691 40.9724 24.3599 39.9224 25.3748L39.9049 25.3923ZM17.3306 28.1339C16.487 28.135 15.662 27.8859 14.9601 27.4181C14.2581 26.9502 13.7106 26.2847 13.387 25.5057C13.0634 24.7266 12.9781 23.8691 13.142 23.0415C13.165 22.9255 13.1927 22.8107 13.2251 22.6976L13.2242 22.6974C13.2254 22.6905 13.2274 22.6773 13.2303 22.6582C13.3073 22.1514 14.0143 17.4955 18.2756 15.3535L18.9989 16.6543C17.8652 17.3253 16.8923 18.2365 16.1486 19.3239C16.0221 19.5089 15.9027 19.6982 15.7907 19.8914C16.0168 19.8042 16.2509 19.736 16.4908 19.6882C17.3181 19.5232 18.1757 19.6073 18.9552 19.9298C19.7347 20.2524 20.401 20.7989 20.8698 21.5003C21.3386 22.2016 21.5888 23.0263 21.5888 23.8698C21.5872 24.9992 21.1383 26.082 20.3402 26.8812C19.5422 27.6804 18.46 28.1308 17.3306 28.1339ZM17.3306 21.0874C16.7786 21.0863 16.2388 21.249 15.7793 21.5549C15.3199 21.8608 14.9617 22.2962 14.7499 22.806C14.5381 23.3157 14.4824 23.8768 14.5898 24.4182C14.6972 24.9596 14.9629 25.457 15.3532 25.8472C15.7435 26.2375 16.2408 26.5032 16.7822 26.6106C17.3236 26.718 17.8847 26.6623 18.3945 26.4505C18.9042 26.2388 19.3396 25.8805 19.6455 25.4211C19.9515 24.9617 20.1141 24.4218 20.113 23.8698C20.1115 23.1324 19.8178 22.4255 19.2963 21.9041C18.7749 21.3826 18.0681 21.089 17.3306 21.0874ZM24.8359 27.4128C25.5392 27.8829 26.3661 28.1338 27.212 28.1338C28.345 28.1338 29.4316 27.6842 30.2333 26.8836C31.035 26.083 31.4861 24.997 31.4877 23.864C31.4888 23.0181 31.239 22.1909 30.7699 21.487C30.4164 20.9564 29.9502 20.514 29.4075 20.1892C29.9101 19.6411 30.1913 18.9236 30.1927 18.1767C30.1939 17.5856 30.0195 17.0073 29.6918 16.5153C29.3641 16.0233 28.8977 15.6396 28.3518 15.4128C27.8058 15.186 27.2048 15.1264 26.6249 15.2415C26.0451 15.3565 25.5124 15.6411 25.0944 16.0591C24.6763 16.4771 24.3918 17.0098 24.2767 17.5897C24.1617 18.1696 24.2213 18.7706 24.4481 19.3165C24.5829 19.6412 24.7733 19.9378 25.0089 20.1937C24.7128 20.3718 24.4378 20.586 24.1907 20.8327C23.5922 21.4305 23.1843 22.1923 23.0189 23.0219C22.8534 23.8514 22.9378 24.7114 23.2612 25.493C23.5847 26.2747 24.1327 26.9428 24.8359 27.4128ZM27.7687 19.4851C27.6433 19.5374 27.5117 19.5711 27.3781 19.5857C27.2733 19.5816 27.1683 19.5814 27.0634 19.5851C27.0259 19.5808 26.9886 19.575 26.9514 19.5677C26.6767 19.514 26.4242 19.3801 26.2255 19.1831C26.0268 18.986 25.8909 18.7345 25.8349 18.4604C25.7789 18.1862 25.8053 17.9015 25.9108 17.6423C26.0163 17.3831 26.1961 17.161 26.4277 17.0038C26.6593 16.8467 26.9322 16.7616 27.212 16.7593V16.7768C27.3979 16.7745 27.5824 16.8089 27.7549 16.8781C27.9274 16.9473 28.0846 17.0498 28.2174 17.1799C28.3502 17.31 28.4559 17.465 28.5286 17.6361C28.6014 17.8071 28.6396 17.9909 28.6411 18.1767C28.6411 18.4566 28.5582 18.7302 28.403 18.963C28.2478 19.1958 28.0271 19.3775 27.7687 19.4851ZM25.7083 21.5902C26.0809 21.3412 26.5084 21.1895 26.9517 21.1466C27.0381 21.154 27.1249 21.1576 27.212 21.1575L27.2217 21.1574C27.932 21.16 28.613 21.4416 29.1176 21.9419C29.6245 22.4444 29.9124 23.1269 29.9186 23.8406C29.9186 24.376 29.7598 24.8992 29.4624 25.3443C29.165 25.7894 28.7423 26.1363 28.2477 26.3412C27.7532 26.546 27.209 26.5997 26.684 26.4952C26.1589 26.3908 25.6767 26.133 25.2982 25.7545C24.9196 25.376 24.6619 24.8937 24.5574 24.3687C24.453 23.8437 24.5066 23.2995 24.7114 22.8049C24.9163 22.3103 25.2632 21.8876 25.7083 21.5902Z" fill="#D1E7BE"/>
</svg>
