<svg width="75" height="24" viewBox="0 0 75 24" fill="none" xmlns="http://www.w3.org/2000/svg">
<g clip-path="url(#clip0_985_2380)">
<path d="M38.4341 18.5884C38.4367 18.7074 38.4238 18.8262 38.3957 18.9419C38.3788 19.023 38.3399 19.0979 38.2834 19.1584C38.2156 19.2196 38.1377 19.2688 38.0532 19.3036C37.9396 19.3513 37.8223 19.3898 37.7025 19.4187C37.5651 19.4502 37.426 19.474 37.286 19.4899C37.1443 19.5084 37.0015 19.5176 36.8585 19.5173C36.4539 19.5275 36.0509 19.4634 35.6694 19.3282C35.3547 19.215 35.0765 19.0191 34.8638 18.7611C34.6419 18.478 34.4873 18.1482 34.4117 17.7966C34.3103 17.3471 34.2625 16.8872 34.2692 16.4265V10.5437H32.8608C32.8145 10.543 32.769 10.5306 32.7288 10.5076C32.6885 10.4846 32.6548 10.4518 32.6307 10.4122C32.568 10.2915 32.5396 10.156 32.5485 10.0203C32.5471 9.94134 32.5535 9.86241 32.5676 9.78468C32.5794 9.7259 32.6007 9.66943 32.6307 9.61754C32.6545 9.5767 32.6885 9.54272 32.7293 9.5189C32.7702 9.49867 32.8152 9.48834 32.8608 9.48876H34.2692V7.17069C34.2685 7.13064 34.2779 7.09106 34.2966 7.05561C34.3193 7.01658 34.3538 6.98585 34.3952 6.96792C34.456 6.9404 34.5207 6.92282 34.587 6.91586C34.7883 6.89393 34.9913 6.89393 35.1926 6.91586C35.2581 6.92238 35.322 6.93998 35.3817 6.96792C35.4212 6.98868 35.4551 7.01878 35.4803 7.05561C35.501 7.09034 35.5115 7.13025 35.5104 7.17069V9.48876H38.1217C38.1664 9.48814 38.2107 9.49849 38.2505 9.5189C38.2913 9.54272 38.3253 9.5767 38.3491 9.61754C38.3804 9.66884 38.4017 9.72553 38.4121 9.78468C38.4273 9.86231 38.4346 9.94125 38.4341 10.0203C38.4429 10.1566 38.4124 10.2926 38.3464 10.4122C38.3228 10.451 38.2899 10.4833 38.2507 10.5063C38.2114 10.5293 38.1671 10.5421 38.1217 10.5437H35.5104V16.2512C35.4788 16.8162 35.585 17.3804 35.8201 17.8952C36.0265 18.2715 36.4 18.4587 36.9407 18.4569C37.094 18.459 37.2468 18.4415 37.3956 18.4048C37.5193 18.3784 37.641 18.3436 37.76 18.3007L38.034 18.1856C38.0942 18.1541 38.1607 18.1364 38.2286 18.1336C38.2607 18.1325 38.2926 18.1391 38.3217 18.1528C38.3525 18.1712 38.3765 18.1991 38.3902 18.2322C38.409 18.2791 38.4227 18.3277 38.4313 18.3774C38.438 18.4476 38.439 18.5181 38.4341 18.5884Z" fill="#0090FF"/>
<path d="M53.4413 9.68595C53.4407 9.72665 53.4352 9.76713 53.4249 9.80651C53.4249 9.85309 53.403 9.90241 53.3893 9.95721L50.4656 19.1528C50.4535 19.204 50.4269 19.2506 50.3889 19.287C50.3442 19.3256 50.2919 19.3545 50.2355 19.372C50.1559 19.3942 50.0741 19.408 49.9916 19.4131C49.8902 19.4131 49.7697 19.4131 49.6299 19.4131C49.5092 19.4136 49.3885 19.4081 49.2682 19.3966C49.1821 19.3886 49.0968 19.373 49.0134 19.3501C48.9559 19.3332 48.9027 19.3042 48.8572 19.2651C48.82 19.232 48.7926 19.1894 48.7778 19.1418L46.5857 11.6889L46.5638 11.6067L46.5419 11.6889L44.4978 19.1418C44.4855 19.1949 44.4556 19.2422 44.4129 19.2761C44.362 19.3162 44.3032 19.3452 44.2403 19.361C44.1504 19.3831 44.0587 19.3968 43.9663 19.4021C43.8621 19.4021 43.7443 19.4021 43.6128 19.4021C43.4939 19.4031 43.3749 19.3976 43.2566 19.3857C43.1742 19.377 43.0926 19.3614 43.0127 19.3391C42.9563 19.3236 42.9045 19.2944 42.862 19.2542C42.8268 19.2204 42.8013 19.1778 42.7881 19.1309L39.8864 9.93529C39.8667 9.8883 39.8511 9.83971 39.8398 9.79007C39.8298 9.74877 39.8242 9.70651 39.8233 9.66403C39.8221 9.62061 39.8336 9.57779 39.8562 9.54073C39.8793 9.50179 39.9167 9.47331 39.9603 9.46127C40.0207 9.44181 40.0833 9.42985 40.1466 9.42565C40.2379 9.42115 40.3294 9.42115 40.4207 9.42565C40.5396 9.42423 40.6585 9.42972 40.7769 9.44209C40.8466 9.44596 40.9152 9.46171 40.9796 9.48867C41.0208 9.5043 41.0555 9.53323 41.0783 9.57087C41.1015 9.61022 41.119 9.65265 41.1303 9.69691L43.6265 17.9417L43.6457 18.0129L43.6676 17.9417L45.9309 9.69691C45.9428 9.65194 45.9622 9.60932 45.9884 9.57087C46.0148 9.53427 46.0508 9.50579 46.0925 9.48867C46.1526 9.46285 46.2165 9.44712 46.2816 9.44209C46.3834 9.42981 46.4859 9.42432 46.5885 9.42565C46.6865 9.42444 46.7844 9.42993 46.8817 9.44209C46.9459 9.44741 47.0088 9.46314 47.068 9.48867C47.1114 9.50281 47.1483 9.53195 47.1721 9.57087C47.1953 9.61022 47.2129 9.65265 47.2242 9.69691L49.6683 17.9417L49.6875 18.0129V17.9417L52.1727 9.69691C52.1849 9.65251 52.2033 9.61007 52.2275 9.57087C52.2553 9.53345 52.2934 9.50489 52.3371 9.48867C52.4027 9.46242 52.4721 9.4467 52.5426 9.44209C52.6554 9.42973 52.7689 9.42424 52.8824 9.42565C52.9736 9.42062 53.0651 9.42062 53.1564 9.42565C53.2134 9.42816 53.2693 9.44214 53.3208 9.46674C53.3571 9.48172 53.3871 9.50884 53.4057 9.54347C53.4286 9.58749 53.4409 9.63631 53.4413 9.68595Z" fill="#0090FF"/>
<path d="M63.9902 14.3302C63.998 15.0334 63.8991 15.7337 63.697 16.4072C63.5183 17.0075 63.2221 17.5664 62.8256 18.0512C62.4356 18.5234 61.9413 18.8986 61.3816 19.1472C60.7458 19.4196 60.0592 19.5531 59.3677 19.5391C58.705 19.5525 58.0464 19.4333 57.4305 19.1883C56.896 18.9675 56.421 18.624 56.044 18.1855C55.6561 17.7239 55.3712 17.1849 55.2083 16.6045C55.0167 15.9226 54.9244 15.2166 54.9343 14.5083C54.9275 13.8056 55.0244 13.1058 55.222 12.4314C55.3965 11.8305 55.691 11.2712 56.0879 10.7874C56.4801 10.3204 56.9753 9.95085 57.5346 9.7078C58.174 9.4382 58.863 9.30655 59.5568 9.32145C60.219 9.30738 60.8774 9.42473 61.494 9.6667C62.0285 9.88217 62.5031 10.2234 62.8777 10.6613C63.257 11.1265 63.5368 11.6646 63.6997 12.2423C63.8993 12.9201 63.9972 13.6237 63.9902 14.3302ZM62.6749 14.4453C62.677 13.9298 62.6247 13.4155 62.5187 12.9109C62.4256 12.4533 62.2492 12.0168 61.9981 11.6231C61.7517 11.2488 61.4141 10.9433 61.0172 10.7353C60.5405 10.5015 60.0135 10.3886 59.4828 10.4065C58.9793 10.3938 58.4797 10.4969 58.0223 10.7079C57.622 10.9009 57.2757 11.1899 57.014 11.5491C56.742 11.9311 56.5457 12.3618 56.4359 12.8177C56.3064 13.3328 56.2428 13.8622 56.2468 14.3933C56.2447 14.9142 56.2971 15.434 56.403 15.9441C56.4948 16.4025 56.6724 16.8394 56.9263 17.2319C57.1734 17.6029 57.511 17.9047 57.9073 18.1088C58.3781 18.3186 58.8872 18.4286 59.4027 18.4319C59.9181 18.4353 60.4287 18.3317 60.9021 18.1279C61.2994 17.9402 61.6447 17.6579 61.9077 17.3059C62.18 16.9257 62.3772 16.497 62.4886 16.0428C62.617 15.5201 62.6796 14.9835 62.6749 14.4453Z" fill="#0090FF"/>
<path d="M75.0005 19.0154C75.0021 19.0813 74.9818 19.1459 74.9429 19.199C74.8885 19.2614 74.8155 19.3046 74.7347 19.3223C74.6006 19.3613 74.4629 19.3861 74.3237 19.3963C74.1483 19.4128 73.9236 19.4237 73.6441 19.4237C73.3647 19.4237 73.1263 19.4237 72.9509 19.4018C72.8029 19.3933 72.6561 19.3704 72.5125 19.3333C72.4123 19.3125 72.3185 19.2683 72.2385 19.2045C72.1708 19.1414 72.1143 19.0673 72.0714 18.9853L68.9724 14.0806V19.0127C68.9745 19.0795 68.9521 19.1448 68.9093 19.1963C68.8506 19.2578 68.777 19.3031 68.6956 19.3278C68.5644 19.3675 68.4294 19.3932 68.2928 19.4045C68.1257 19.421 67.9147 19.4319 67.6571 19.4319C67.3996 19.4319 67.1859 19.4319 67.0187 19.4045C66.883 19.3932 66.7489 19.3675 66.6187 19.3278C66.5367 19.3045 66.4627 19.259 66.405 19.1963C66.3623 19.1448 66.3398 19.0795 66.3419 19.0127V5.28238C66.3409 5.21404 66.3631 5.14737 66.405 5.09332C66.4618 5.02774 66.5358 4.97934 66.6187 4.95357C66.748 4.90824 66.8823 4.8788 67.0187 4.86589C67.4423 4.82205 67.8693 4.82205 68.2928 4.86589C68.4301 4.87882 68.5654 4.90826 68.6956 4.95357C68.7778 4.98081 68.8514 5.02898 68.9093 5.09332C68.9499 5.14804 68.972 5.21426 68.9724 5.28238V13.4532L71.7371 9.74864C71.7904 9.66773 71.8539 9.59405 71.9261 9.52944C72.0058 9.46158 72.0993 9.412 72.2001 9.38422C72.3398 9.3443 72.4829 9.3177 72.6276 9.30476C72.7975 9.28832 73.0139 9.2801 73.2797 9.2801C73.5455 9.2801 73.7537 9.2801 73.9319 9.30476C74.0766 9.3169 74.2198 9.34353 74.3593 9.38422C74.4446 9.40559 74.5224 9.45016 74.584 9.513C74.6266 9.56873 74.6489 9.6374 74.647 9.70754C74.6444 9.82332 74.6173 9.93724 74.5675 10.0418C74.5049 10.1763 74.4258 10.3024 74.3319 10.4172L71.6083 13.5052L74.7511 18.3798C74.8212 18.4942 74.8817 18.6143 74.932 18.7387C74.9713 18.8261 74.9945 18.9198 75.0005 19.0154Z" fill="#0090FF"/>
<path d="M28.4436 10.8223L21.6264 4.00511C21.3146 3.69356 20.8918 3.51855 20.4509 3.51855C20.0101 3.51855 19.5873 3.69356 19.2755 4.00511L18.3877 4.89562L13.4145 9.86605L12.4582 10.8223C12.1467 11.1342 11.9717 11.557 11.9717 11.9978C11.9717 12.4386 12.1467 12.8614 12.4582 13.1733L18.3877 19.1L19.2755 19.9905C19.5873 20.3021 20.0101 20.4771 20.4509 20.4771C20.8918 20.4771 21.3146 20.3021 21.6264 19.9905L28.4436 13.1733C28.7512 12.8593 28.9235 12.4373 28.9235 11.9978C28.9235 11.5583 28.7512 11.1363 28.4436 10.8223Z" fill="#0053D0"/>
<path opacity="0.92" d="M24.5119 11.8427C24.476 11.2745 24.2344 10.7388 23.8323 10.3357L18.3906 4.89674L14.1956 0.688037C13.7548 0.247479 13.157 0 12.5338 0C11.9105 0 11.3128 0.247479 10.8719 0.688037L3.97525 7.56827L1.2078 10.3357C0.767079 10.777 0.519531 11.3752 0.519531 11.9989C0.519531 12.6226 0.767079 13.2208 1.2078 13.6621L10.8582 23.3098C11.2991 23.7504 11.8968 23.9978 12.5201 23.9978C13.1433 23.9978 13.7411 23.7504 14.1819 23.3098L18.3906 19.1011L23.8323 13.6621C24.0691 13.4251 24.2523 13.14 24.3695 12.8262C24.4867 12.5123 24.5353 12.1769 24.5119 11.8427Z" fill="#00B4FF"/>
</g>
<defs>
<clipPath id="clip0_985_2380">
<rect width="74.4798" height="24" fill="white" transform="translate(0.52002)"/>
</clipPath>
</defs>
</svg>
