<svg width="67" height="40" viewBox="0 0 67 40" fill="none" xmlns="http://www.w3.org/2000/svg">
<g clip-path="url(#clip0_973_9382)">
<path d="M33.0959 19.6113C33.0959 21.1836 33.0959 22.756 33.0959 24.3316C33.0959 24.9331 33.0959 25.5346 33.0796 26.1361C33.0816 26.2552 33.041 26.3711 32.9652 26.463C32.8896 26.5541 32.7851 26.6164 32.669 26.6396C32.553 26.6628 32.4325 26.6455 32.3278 26.5905C32.161 26.5055 32.0009 26.4107 31.8374 26.3159L29.8958 25.2077L27.6992 23.959C27.6499 23.9403 27.6084 23.9057 27.5811 23.8607C27.5539 23.8157 27.5425 23.7628 27.5488 23.7105C27.5521 23.6572 27.5521 23.6037 27.5488 23.5504C27.5488 21.9856 27.5488 20.4198 27.5488 18.8529C27.554 18.3398 27.4422 17.8322 27.2219 17.3688C27.0262 16.96 26.7453 16.5978 26.3982 16.3064C26.1868 16.1376 25.9603 15.9888 25.7216 15.8618L21.6389 13.5408C21.6062 13.5212 21.5768 13.4983 21.5441 13.482C21.5036 13.4612 21.4701 13.4291 21.4474 13.3897C21.4248 13.3502 21.4141 13.3051 21.4166 13.2597C21.4166 13.2139 21.4166 13.1681 21.4166 13.1224C21.4166 11.4683 21.4166 9.81203 21.4166 8.15358C21.4139 8.05591 21.4227 7.95826 21.4427 7.86264C21.4649 7.78694 21.5035 7.71705 21.5557 7.65797C21.608 7.59889 21.6726 7.55208 21.7451 7.52086C21.8175 7.48964 21.8959 7.47479 21.9747 7.47736C22.0536 7.47994 22.1309 7.49986 22.2011 7.53574L22.8908 7.92148C23.5903 8.32029 24.2887 8.72019 24.9861 9.12118L27.065 10.3078L28.8302 11.3114L30.9483 12.5209C31.3896 12.7726 31.8374 13.0243 32.2787 13.2793C32.4631 13.3844 32.6246 13.5253 32.7537 13.6937C32.8828 13.8621 32.9769 14.0547 33.0306 14.26C33.0796 14.4343 33.1028 14.615 33.0992 14.7961C33.0992 16.241 33.0992 17.6858 33.0992 19.1307V19.6047L33.0959 19.6113Z" fill="white" fill-opacity="0.6"/>
<path d="M33.73 20.337V14.7372C33.7234 14.556 33.7466 14.3749 33.7987 14.2011C33.9227 13.8167 34.1847 13.4918 34.5342 13.2891C35.0572 12.9818 35.59 12.6843 36.1195 12.3836L38.2181 11.1839L40.0224 10.1607L43.824 7.99013L44.5726 7.56515C44.6639 7.51256 44.768 7.48653 44.8733 7.48997C45.0063 7.48816 45.1348 7.53844 45.2313 7.63005C45.3278 7.72166 45.3847 7.84735 45.3898 7.98031C45.3898 8.01954 45.3898 8.05551 45.3898 8.09474C45.3898 9.78806 45.3898 11.4814 45.3898 13.1747C45.397 13.2519 45.3798 13.3295 45.3405 13.3964C45.3011 13.4633 45.2418 13.5161 45.1707 13.5474C44.3307 14.0181 43.4971 14.4986 42.6603 14.9759L40.9344 15.9566C40.5426 16.1701 40.2 16.4634 39.9286 16.8175C39.6572 17.1717 39.4631 17.5789 39.3589 18.0127C39.3099 18.2018 39.2836 18.3961 39.2804 18.5913C39.2804 18.7352 39.2804 18.8757 39.2804 19.0196V23.6713C39.2866 23.7311 39.2738 23.7914 39.2438 23.8436C39.2139 23.8958 39.1684 23.9373 39.1137 23.9622C38.4992 24.3087 37.8847 24.6651 37.2701 25.0148L35.0768 26.2668L34.4851 26.5937C34.3779 26.6499 34.2547 26.6679 34.1359 26.6448C34.0171 26.6216 33.9097 26.5586 33.8314 26.4662C33.7577 26.3897 33.7157 26.2881 33.7137 26.1819C33.7137 26.1067 33.7137 26.0315 33.7137 25.9563V20.3337L33.73 20.337Z" fill="white" fill-opacity="0.6"/>
<path d="M33.4065 12.7889C32.9901 12.7983 32.5786 12.698 32.2134 12.498C31.9028 12.3313 31.5988 12.1515 31.2916 11.9782L29.448 10.9289L27.369 9.74228L23.5282 7.55534L22.7045 7.08461L22.528 6.98C22.4502 6.93366 22.3861 6.86744 22.3423 6.78813C22.2986 6.70881 22.2768 6.61927 22.2791 6.52873C22.2814 6.43818 22.3078 6.3499 22.3556 6.27294C22.4034 6.19598 22.4707 6.13314 22.5508 6.09086L23.0575 5.79664L25.1986 4.58385L27.0225 3.54433C27.3004 3.38742 27.3004 3.38088 27.575 3.54433L31.4386 5.74435C31.6633 5.88203 31.8958 6.00644 32.1349 6.117C32.5084 6.27728 32.9087 6.36601 33.3149 6.37853C33.8129 6.39875 34.3088 6.30247 34.763 6.09738C34.933 6.0222 35.0899 5.9274 35.2598 5.83587L38.0252 4.26023C38.4698 4.00852 38.9176 3.76008 39.3589 3.50183C39.4139 3.46315 39.4796 3.44239 39.5469 3.44239C39.6141 3.44239 39.6797 3.46315 39.7348 3.50183L42.9513 5.33573L44.2032 6.05163L44.2817 6.09738C44.3686 6.13982 44.4419 6.20583 44.4932 6.28791C44.5445 6.36998 44.5717 6.46482 44.5717 6.56159C44.5717 6.65836 44.5445 6.75318 44.4932 6.83525C44.4419 6.91732 44.3686 6.98334 44.2817 7.02577C44.0855 7.12711 43.9025 7.24153 43.7129 7.35267L41.1829 8.791L39.0614 9.99399L36.904 11.2231L35.0997 12.2463L34.6649 12.4882C34.279 12.6968 33.845 12.8005 33.4065 12.7889Z" fill="white" fill-opacity="0.6"/>
<path d="M26.9637 20.8698V23.1025C26.967 23.1635 26.967 23.2246 26.9637 23.2856C26.9612 23.3118 26.9522 23.3371 26.9375 23.3589C26.9227 23.3808 26.9027 23.3985 26.8792 23.4106C26.8557 23.4226 26.8296 23.4286 26.8032 23.4279C26.7769 23.4272 26.7511 23.4198 26.7283 23.4065C26.5943 23.3379 26.4636 23.2627 26.3328 23.1875L21.9069 20.6606L21.6912 20.5364C21.608 20.4915 21.5386 20.425 21.4903 20.3438C21.4419 20.2627 21.4165 20.1699 21.4166 20.0754C21.4166 20.0297 21.4166 19.9839 21.4166 19.9414V14.5215C21.4117 14.4617 21.4117 14.4015 21.4166 14.3417C21.419 14.3135 21.4285 14.2863 21.4441 14.2627C21.4597 14.239 21.481 14.2197 21.506 14.2063C21.5311 14.193 21.559 14.1862 21.5873 14.1864C21.6157 14.1866 21.6435 14.1939 21.6683 14.2077C21.6958 14.2193 21.722 14.2335 21.7467 14.2502L24.6886 15.9304L25.5712 16.4273C26.0646 16.6948 26.4623 17.1096 26.7087 17.6139C26.877 17.9522 26.9653 18.3246 26.967 18.7025V20.8698H26.9637Z" fill="white" fill-opacity="0.6"/>
<path d="M33.413 5.82281C32.9288 5.81713 32.4545 5.68529 32.0368 5.44033L28.2124 3.25994C28.1728 3.23876 28.1356 3.21357 28.1012 3.18476C28.0835 3.17068 28.0692 3.15278 28.0594 3.13241C28.0496 3.11203 28.0445 3.08971 28.0445 3.06709C28.0445 3.04446 28.0496 3.02212 28.0594 3.00174C28.0692 2.98137 28.0835 2.96347 28.1012 2.94939C28.1356 2.92058 28.1728 2.89539 28.2124 2.87421L30.1932 1.74641L31.9388 0.765728L33.0796 0.111937C33.1606 0.0580515 33.2518 0.0213528 33.3476 0.00407603C33.4756 -0.010858 33.605 0.0154778 33.717 0.0792556L38.6528 2.89709C38.6923 2.91828 38.7296 2.94347 38.764 2.97227C38.7817 2.98668 38.796 3.00486 38.8059 3.02551C38.8157 3.04615 38.8208 3.06872 38.8208 3.09159C38.8208 3.11445 38.8157 3.13705 38.8059 3.15769C38.796 3.17833 38.7817 3.19652 38.764 3.21092C38.7369 3.23635 38.706 3.25731 38.6724 3.27303L35.5736 5.03826L34.7467 5.50571C34.3356 5.72114 33.877 5.83017 33.413 5.82281Z" fill="white" fill-opacity="0.6"/>
<path d="M45.4028 17.2674V19.9741C45.4028 20.0264 45.4028 20.0787 45.4028 20.131C45.4024 20.2104 45.3818 20.2884 45.3429 20.3576C45.304 20.4268 45.2482 20.4849 45.1806 20.5266C45.0335 20.6181 44.8831 20.7031 44.7327 20.7881L40.1826 23.3771C40.1563 23.3921 40.129 23.4052 40.1009 23.4163C40.0779 23.4295 40.0519 23.4367 40.0254 23.4374C39.9989 23.438 39.9727 23.4321 39.949 23.4201C39.9253 23.4081 39.905 23.3905 39.8899 23.3687C39.8748 23.3469 39.8653 23.3217 39.8623 23.2954C39.8557 23.2433 39.8557 23.1905 39.8623 23.1385C39.8623 21.7165 39.8623 20.2945 39.8623 18.8725C39.8528 18.3516 39.9899 17.8385 40.2578 17.3916C40.4819 17.0231 40.7956 16.7172 41.1698 16.5025L43.0722 15.4172L44.9714 14.3384C45.0489 14.2912 45.1297 14.2497 45.2132 14.2142C45.2337 14.2045 45.2562 14.2 45.2788 14.2011C45.3015 14.2022 45.3235 14.2088 45.3429 14.2205C45.3623 14.2321 45.3785 14.2484 45.3901 14.2678C45.4017 14.2873 45.4083 14.3093 45.4094 14.3319C45.4094 14.4005 45.4094 14.4692 45.4094 14.5346V17.2674H45.4028Z" fill="white" fill-opacity="0.6"/>
<path d="M60.1254 33.5435V33.4063C60.1249 33.397 60.1264 33.3877 60.1297 33.379C60.1329 33.3703 60.1379 33.3623 60.1443 33.3556C60.1507 33.3489 60.1584 33.3435 60.167 33.3399C60.1755 33.3362 60.1847 33.3343 60.194 33.3343H66.7643V32.8832C66.7499 32.8781 66.7378 32.8681 66.73 32.8549C66.7223 32.8418 66.7194 32.8264 66.7218 32.8113C66.7157 32.729 66.6959 32.6483 66.6629 32.5727C66.5483 32.2525 66.3612 31.9632 66.1162 31.7273C65.8712 31.4914 65.5751 31.3153 65.2508 31.2128C64.9978 31.1358 64.734 31.1004 64.4696 31.1082H59.9783C59.4978 31.1381 59.0401 31.3237 58.6745 31.6369C58.3088 31.9501 58.0551 32.3738 57.9517 32.844C57.9131 33.0355 57.8955 33.2306 57.8994 33.4259V37.7834C57.8971 37.9868 57.9246 38.1894 57.9811 38.3849C58.1128 38.8521 58.3943 39.2632 58.7822 39.5549C59.1702 39.8466 59.6433 40.0029 60.1287 39.9997C61.6127 39.9997 63.0934 39.9997 64.5775 39.9997C64.8486 40.004 65.1178 39.9528 65.3685 39.8494C65.717 39.7228 66.0262 39.5071 66.2654 39.2237C66.5046 38.9404 66.6653 38.5993 66.7316 38.2345C66.7316 38.2345 66.7512 38.2149 66.7643 38.2051V34.4556C66.6821 34.441 66.598 34.441 66.5158 34.4556H62.4985C62.3514 34.4556 62.3449 34.4556 62.3416 34.6027V36.4333C62.3416 36.4922 62.3416 36.551 62.3416 36.6131C62.3411 36.6225 62.3426 36.632 62.3461 36.6408C62.3496 36.6495 62.3549 36.6575 62.3618 36.664C62.3686 36.6705 62.3768 36.6755 62.3857 36.6785C62.3946 36.6816 62.4041 36.6827 62.4135 36.6817H64.4892C64.4985 36.6813 64.5078 36.6828 64.5165 36.686C64.5252 36.6893 64.5331 36.6942 64.5399 36.7007C64.5466 36.7071 64.552 36.7148 64.5556 36.7233C64.5593 36.7319 64.5611 36.7411 64.5611 36.7504V36.7733C64.5611 37.0806 64.5611 37.3911 64.5611 37.6984C64.5628 37.7095 64.5618 37.7208 64.5583 37.7315C64.5548 37.7422 64.5488 37.7519 64.5408 37.7598C64.5329 37.7678 64.5232 37.7737 64.5125 37.7773C64.5019 37.7808 64.4905 37.7818 64.4794 37.7801H60.3477C60.1025 37.7801 60.1221 37.7801 60.1221 37.5676C60.1221 36.2252 60.1232 34.8838 60.1254 33.5435Z" fill="white" fill-opacity="0.6"/>
<path d="M56.8403 31.1082H55.0098C54.6829 31.1082 54.7352 31.0722 54.7352 31.3861C54.7352 32.9116 54.7352 34.4469 54.7352 35.992C54.7352 36.0345 54.7352 36.0803 54.7352 36.126C54.7352 36.1718 54.7352 36.211 54.7025 36.2208C54.6698 36.2306 54.6437 36.1849 54.6175 36.1587L54.5587 36.0901L53.7219 35.1094C52.6214 33.8236 51.5209 32.5367 50.4204 31.2487C50.3824 31.1986 50.3328 31.1584 50.2759 31.1317C50.2189 31.1049 50.1564 31.0924 50.0935 31.0951C49.5051 31.0951 48.9201 31.0951 48.3317 31.0951H48.1944C48.0636 31.0951 48.0636 31.0951 48.0604 31.2422V31.2749C48.0604 34.1189 48.0604 36.964 48.0604 39.8101C48.0506 39.8621 48.0574 39.9159 48.08 39.9638C48.1206 39.9834 48.1661 39.9903 48.2107 39.9834H50.221C50.236 39.9826 50.2502 39.976 50.2605 39.965C50.2709 39.9541 50.2766 39.9396 50.2766 39.9245C50.2766 39.8788 50.2766 39.8363 50.2766 39.7905C50.2766 39.5552 50.2766 39.3231 50.2766 39.091C50.2766 37.7572 50.2766 36.4246 50.2766 35.093V34.9132C50.2798 34.8997 50.2866 34.8873 50.2962 34.8773C50.3191 34.8773 50.3387 34.8773 50.355 34.8936C50.3807 34.9205 50.4048 34.9488 50.4269 34.9786L52.823 37.7736C53.4081 38.4601 53.9997 39.1433 54.5816 39.833C54.6191 39.8844 54.6683 39.926 54.7252 39.9544C54.782 39.9828 54.8449 39.9973 54.9084 39.9965C55.5034 39.9965 56.0983 39.9965 56.6932 39.9965H56.8272C56.9122 39.9965 56.9285 39.9768 56.9318 39.8853V39.2544C56.9318 36.6719 56.9318 34.0905 56.9318 31.5103C56.9318 31.4122 56.9318 31.3141 56.9318 31.2161C56.9318 31.118 56.9514 31.1114 56.8403 31.1082Z" fill="white" fill-opacity="0.6"/>
<path d="M45.2133 31.1115C44.9485 31.0853 44.687 31.0918 44.4222 31.0886H40.5389C40.3584 31.088 40.1784 31.1089 40.0028 31.1507C39.509 31.259 39.0672 31.5331 38.7508 31.9274C38.4344 32.3217 38.2626 32.8124 38.2638 33.318C38.2638 34.8054 38.2638 36.296 38.2638 37.7867C38.261 38.0965 38.3292 38.403 38.4632 38.6823C38.6299 39.0745 38.9094 39.4082 39.2662 39.6411C39.623 39.8739 40.041 39.9953 40.467 39.9899C41.2188 39.9899 41.9706 39.9899 42.7225 39.9899H44.8897C45.0329 39.9945 45.1762 39.9857 45.3179 39.9638C45.8307 39.8758 46.2964 39.6107 46.6339 39.2147C46.9713 38.8186 47.1592 38.3168 47.1647 37.7965C47.1647 36.2993 47.1647 34.8021 47.1647 33.3017C47.1658 33.1366 47.1472 32.972 47.1091 32.8113C47.0057 32.3677 46.7684 31.9665 46.4292 31.6624C46.09 31.3583 45.6655 31.166 45.2133 31.1115ZM44.9387 33.5795V37.5251C44.9387 37.5709 44.9387 37.6167 44.9387 37.6624C44.9387 37.7082 44.9223 37.7605 44.8308 37.7638H40.5814C40.5721 37.7638 40.5629 37.7619 40.5544 37.7583C40.5458 37.7546 40.5381 37.7492 40.5317 37.7425C40.5253 37.7358 40.5203 37.7278 40.517 37.7191C40.5138 37.7104 40.5123 37.7011 40.5128 37.6919C40.5128 37.6396 40.5128 37.5873 40.5128 37.535C40.5128 36.2012 40.5128 34.8697 40.5128 33.5403V33.4291C40.5128 33.3442 40.5324 33.3278 40.6239 33.3245H44.7066C44.9714 33.3245 44.9387 33.2984 44.9387 33.5795Z" fill="white" fill-opacity="0.6"/>
<path d="M11.1592 33.2951H16.3533C16.4284 33.2951 16.4415 33.2951 16.4415 33.2003C16.4415 32.8538 16.4415 32.5073 16.4415 32.1608C16.4362 31.918 16.3515 31.6837 16.2004 31.4936C16.0492 31.3035 15.84 31.1681 15.6047 31.1082C15.4498 31.0778 15.2917 31.0668 15.134 31.0755H9.07697C8.83181 31.0755 8.84816 31.0461 8.84816 31.3043C8.84816 32.7034 8.84816 34.1036 8.84816 35.5049V39.6826C8.84816 39.7415 8.84816 39.8036 8.84816 39.8624C8.84816 39.9213 8.84815 39.9703 8.94949 39.9736H9.04102C11.133 39.9736 13.2283 39.9736 15.3203 39.9736C15.4707 39.9766 15.6202 39.9495 15.76 39.8937C15.8997 39.838 16.0268 39.7548 16.1338 39.649C16.2408 39.5432 16.3255 39.4171 16.3828 39.278C16.4402 39.1389 16.469 38.9897 16.4677 38.8393C16.4677 38.5614 16.4677 38.2803 16.4677 38.0024C16.4677 37.7245 16.5004 37.7507 16.216 37.7507H11.0677C10.9108 37.7507 10.9107 37.7507 10.9107 37.5807C10.9107 37.3323 10.9107 37.0838 10.9107 36.8354C10.9107 36.5869 10.9107 36.6425 11.1101 36.6425H14.611C14.6862 36.6425 14.7614 36.6425 14.8365 36.6425C14.9619 36.637 15.0814 36.5879 15.1744 36.5038C15.2675 36.4197 15.3284 36.3057 15.3465 36.1816C15.3531 36.1142 15.3531 36.0463 15.3465 35.9789C15.3465 35.6782 15.3465 35.3774 15.3465 35.0767C15.346 34.9943 15.3373 34.9122 15.3203 34.8315C15.2934 34.7212 15.2319 34.6224 15.1449 34.5495C15.0579 34.4766 14.9499 34.4334 14.8365 34.4262C14.7756 34.4229 14.7145 34.4229 14.6535 34.4262H11.0578C10.8911 34.4262 10.8911 34.4262 10.8879 34.266V33.5632C10.8879 33.2591 10.8486 33.2951 11.1592 33.2951Z" fill="white" fill-opacity="0.6"/>
<path d="M28.2843 32.0954C28.0848 31.7781 27.8065 31.5179 27.4765 31.3403C27.1465 31.1627 26.7761 31.0737 26.4015 31.082C24.6331 31.082 22.8647 31.082 21.0962 31.082C20.838 31.082 20.8609 31.0526 20.8609 31.3305V39.7055C20.8609 39.7709 20.8609 39.8396 20.8609 39.9082C20.8604 39.9174 20.8619 39.9265 20.8652 39.935C20.8684 39.9436 20.8735 39.9513 20.88 39.9578C20.8864 39.9642 20.8942 39.9693 20.9027 39.9726C20.9113 39.9759 20.9204 39.9773 20.9295 39.9768H23.0085C23.051 39.9768 23.0771 39.954 23.0771 39.9082C23.0771 39.8624 23.0771 39.7872 23.0771 39.7284V38.0351C23.0771 37.7082 23.0346 37.7605 23.3517 37.7605H26.3557C26.5503 37.7628 26.7446 37.742 26.9343 37.6984C27.4181 37.5826 27.8491 37.3076 28.1579 36.9175C28.4667 36.5275 28.6356 36.045 28.6373 35.5474C28.6373 34.789 28.6373 34.0274 28.6373 33.2591C28.6386 32.8447 28.5157 32.4393 28.2843 32.0954ZM26.4178 35.4559C26.4185 35.4672 26.4166 35.4786 26.4122 35.4891C26.4079 35.4996 26.4012 35.509 26.3927 35.5165C26.3842 35.5241 26.3741 35.5296 26.3632 35.5327C26.3522 35.5358 26.3407 35.5363 26.3296 35.5343H23.149C23.1033 35.5343 23.0869 35.5016 23.0837 35.4591V33.4978C23.082 33.4673 23.082 33.4367 23.0837 33.4063C23.0837 33.3376 23.1065 33.3213 23.1817 33.318H26.3622C26.3773 33.3203 26.3911 33.3277 26.4012 33.339C26.4113 33.3504 26.4172 33.3649 26.4178 33.3801C26.4178 33.4193 26.4178 33.4553 26.4178 33.4945C26.4178 34.1123 26.4178 34.7334 26.4178 35.3578V35.4559Z" fill="white" fill-opacity="0.6"/>
<path d="M37.3224 35.5245V31.3632C37.3224 31.2945 37.3224 31.2259 37.3224 31.1605C37.3224 31.0951 37.2996 31.0886 37.2505 31.0886H35.3318C35.0833 31.0886 35.1029 31.0886 35.1029 31.3207C35.1029 32.3013 35.1029 33.2624 35.1029 34.2333C35.1029 34.436 35.1029 34.4294 34.9068 34.4294H32.0172C31.7394 34.4294 31.7688 34.4556 31.7688 34.1712V31.373C31.7688 31.3108 31.7688 31.252 31.7688 31.1932C31.7688 31.1343 31.7492 31.0951 31.6577 31.0918H29.7814C29.5231 31.0918 29.546 31.0657 29.546 31.337C29.546 34.1396 29.546 36.9389 29.546 39.7349V39.9148C29.5456 39.924 29.547 39.9333 29.5503 39.942C29.5535 39.9507 29.5585 39.9587 29.5649 39.9654C29.5714 39.9721 29.5791 39.9775 29.5876 39.9811C29.5962 39.9848 29.6054 39.9867 29.6147 39.9867H31.5563C31.7819 39.9867 31.7688 39.9867 31.7688 39.784C31.7688 38.8273 31.7688 37.8716 31.7688 36.9171C31.7688 36.8485 31.7688 36.7798 31.7688 36.7144C31.7688 36.6994 31.7745 36.6849 31.7848 36.6739C31.7952 36.663 31.8093 36.6564 31.8244 36.6556H34.9853C35.0801 36.6556 35.0931 36.6719 35.0964 36.7569C35.0997 36.8419 35.0964 36.8615 35.0964 36.9138C35.0964 37.8618 35.0964 38.8098 35.0964 39.7578C35.0964 39.8134 35.0964 39.8657 35.0964 39.918C35.0949 39.9272 35.0955 39.9366 35.0982 39.9456C35.1008 39.9546 35.1055 39.9628 35.1118 39.9697C35.118 39.9767 35.1258 39.982 35.1345 39.9855C35.1431 39.989 35.1525 39.9905 35.1618 39.9899H37.0805C37.3453 39.9899 37.3159 40.0194 37.3159 39.7448V35.5245H37.3224Z" fill="white" fill-opacity="0.6"/>
<path d="M7.80541 37.7441H2.61787C2.26484 37.7441 2.31387 37.7932 2.31387 37.4532C2.31387 35.4199 2.31387 33.3877 2.31387 31.3566C2.31387 31.288 2.31387 31.2226 2.31387 31.1539C2.31569 31.1389 2.3125 31.1238 2.30482 31.1108C2.29713 31.0978 2.28539 31.0877 2.27138 31.082H0.123792C0.115292 31.0848 0.106156 31.0848 0.0976562 31.082C0.0976562 31.4351 0.0976562 31.7881 0.0976562 32.1412C0.0976562 33.9565 0.0976562 35.7686 0.0976562 37.5774C0.0976562 37.7115 0.0976562 37.8455 0.0976562 37.9828C0.0976562 38.0645 0.120519 38.1462 0.140132 38.228C0.25022 38.7245 0.527509 39.1682 0.925583 39.4848C1.32366 39.8014 1.81837 39.9716 2.32694 39.967C4.11169 39.967 5.89644 39.967 7.67792 39.967H7.81522C7.83025 39.9654 7.84405 39.958 7.85379 39.9464C7.86353 39.9349 7.86845 39.92 7.86752 39.9049C7.86752 39.869 7.86752 39.8298 7.86752 39.7938C7.86752 39.1694 7.86752 38.5451 7.86752 37.9207C7.86752 37.888 7.86752 37.8586 7.86752 37.8291C7.86938 37.8194 7.86924 37.8095 7.86708 37.7998C7.86492 37.7902 7.86079 37.7811 7.85497 37.7731C7.84914 37.7652 7.84173 37.7585 7.8332 37.7535C7.82468 37.7485 7.81521 37.7453 7.80541 37.7441Z" fill="white" fill-opacity="0.6"/>
</g>
<defs>
<clipPath id="clip0_973_9382">
<rect width="66.6666" height="40" fill="white" transform="translate(0.0976562)"/>
</clipPath>
</defs>
</svg>
