<svg width="164" height="105" viewBox="0 0 164 105" fill="none" xmlns="http://www.w3.org/2000/svg">
<path fill-rule="evenodd" clip-rule="evenodd" d="M107.535 17.1105C109.521 22.0757 111.587 27.2196 113.712 32.2344C113.857 32.5771 113.909 32.952 113.864 33.3215C113.819 33.6909 113.677 34.042 113.454 34.3396C112.242 37.1896 111.041 40.0694 109.849 42.9392C109.552 43.6488 109.253 44.3628 108.953 45.0796L108.949 45.0892C107.667 48.151 106.363 51.2662 105.053 54.3293L104.993 54.508C104.927 54.8586 104.782 55.1895 104.569 55.4753C104.355 55.761 104.079 55.994 103.762 56.1564C100.971 57.2885 98.1411 58.4702 95.4103 59.6221C90.9019 61.5089 86.2347 63.4552 81.5972 65.2427H81.5178H81.4383C77.6748 63.773 73.9013 62.1345 70.2469 60.5456C67.4962 59.3441 64.6462 58.1028 61.826 56.9409C61.4633 56.7668 61.0921 56.611 60.7138 56.4742C59.9877 56.2557 59.3125 55.8944 58.7278 55.4117L58.6781 55.3322C56.563 50.3273 54.4577 45.2331 52.4717 40.268C51.4654 37.8648 50.4724 35.4617 49.4926 33.0586C49.4114 32.8479 49.3844 32.6203 49.4139 32.3966C49.4434 32.1728 49.5284 31.96 49.6614 31.7776C51.3198 27.8849 52.9682 23.8929 54.567 20.0201C55.2434 18.4032 55.9198 16.7681 56.5997 15.1248C57.1474 13.8009 57.6973 12.4716 58.2511 11.1424C58.3107 11.0034 58.3603 10.8644 58.41 10.7154L58.429 10.668L58.4594 10.5916C58.691 10.0093 58.9375 9.3894 59.6513 9.1762C61.1009 8.5816 62.5433 7.97971 63.9916 7.37533L63.9917 7.37529L63.9918 7.37524L63.9919 7.37519L63.992 7.37514L63.9922 7.37509L63.9923 7.37504L63.9924 7.37499L63.9925 7.37494L63.9933 7.37462C65.4711 6.75791 66.9552 6.13862 68.4594 5.52186C72.6997 3.74434 77.0889 1.91716 81.4383 0.169431C81.5977 0.102309 81.7707 0.0736229 81.9432 0.0856985C82.1157 0.097774 82.2829 0.150264 82.4314 0.238935H82.491C85.2119 1.42064 87.9924 2.60235 90.6835 3.7344C95.2415 5.66088 99.9484 7.65687 104.516 9.74224H104.606V9.82166C105.586 12.2447 106.562 14.6743 107.535 17.1105ZM111.647 30.2723C109.686 28.4053 107.671 26.3396 105.202 23.6744C105.469 23.569 105.737 23.4502 106.01 23.329L106.011 23.3289L106.011 23.3287L106.011 23.3285L106.195 23.2474C106.925 22.8786 107.695 22.5922 108.488 22.3934C108.971 23.6208 109.481 24.8804 109.998 26.1588L110.001 26.165L110.001 26.1657C110.549 27.5187 111.105 28.8928 111.647 30.2723ZM105.638 15.2436L104.775 13.1384H104.725C104.665 16.5445 104.695 19.891 104.784 22.5324C105.488 22.3246 106.175 22.0658 106.84 21.7579C107.227 21.5891 107.625 21.4203 108.032 21.2713C107.488 19.8097 106.909 18.3832 106.334 16.9669L106.334 16.9662L106.334 16.9653C106.1 16.3903 105.868 15.817 105.638 15.2436ZM103.623 22.4034V15.7103H103.573L103.573 15.6805V15.6797V15.6795V15.6794V15.6792V15.6791V15.679V15.6789V15.6787V15.6786V15.6785V15.6784V15.6783V15.6781V15.678V15.6779V15.6778V15.6777V15.6776V15.6775V15.6775V15.6774V15.6773V15.6772V15.6771V15.677V15.677V15.6769V15.6768V15.6767V15.6767V15.6766V15.6765V15.6765V15.6764V15.6763V15.6763V15.6762V15.6762C103.563 13.9903 103.553 12.3619 103.603 10.6062H98.2206H92.2624C93.9704 13.5753 95.3507 15.8295 96.7111 17.8851C97.6178 18.4467 98.4532 19.0084 99.3586 19.6172L99.359 19.6174C99.5741 19.762 99.7931 19.9093 100.018 20.0598C101.19 20.8443 102.401 21.6487 103.623 22.4034ZM65.5596 44.2655C67.9889 47.6914 71.4252 50.2753 75.3908 51.658H75.3411C79.3687 52.9798 83.7118 52.9892 87.745 51.6846C91.7781 50.3801 95.2931 47.8291 97.7836 44.399C102.292 38.3117 102.679 29.3446 98.7766 22.5523C97.031 19.564 94.5412 17.0786 91.5497 15.3384C88.5583 13.5981 85.1671 12.6623 81.7065 12.622C81.1967 12.622 80.6903 12.6419 80.1871 12.6816C70.2966 13.198 61.7267 22.4927 61.8359 32.5422C61.8288 36.742 63.1303 40.8396 65.5596 44.2655ZM93.0068 51.082L93.007 51.0817C93.2271 50.7362 93.448 50.3894 93.6626 50.0394H93.6129C91.0795 51.7483 88.2299 52.9334 85.2317 53.5249L86.3936 53.8129C87.817 54.2088 89.2673 54.5009 90.7331 54.6868C91.3091 53.7334 91.9148 52.7801 92.5106 51.8666C92.6732 51.6056 92.8394 51.3447 93.0062 51.0829L93.0068 51.082ZM75.48 53.962C76.2371 53.7784 77.0018 53.593 77.7741 53.4455H77.7542C74.8306 52.8977 72.0618 51.7183 69.6412 49.9897C69.7914 50.2498 69.9383 50.5132 70.0838 50.7741L70.084 50.7744L70.0841 50.7747L70.0843 50.7751C70.1886 50.9622 70.2923 51.148 70.3959 51.3303C71.0003 52.4861 71.6907 53.5948 72.4614 54.647C73.2832 54.4935 74.1216 54.2907 74.9165 54.0983L75.1525 54.0413L75.48 53.962ZM64.2971 44.6295C62.6515 42.0736 61.5156 39.2236 60.9521 36.2363C60.5847 37.5669 60.3166 38.9075 60.0584 40.2084L59.7605 41.6681C61.2205 42.7039 62.7294 43.7397 64.2971 44.6295ZM62.8091 21.599C61.8161 22.2047 60.8231 22.8304 59.83 23.5156H59.8102C60.1478 25.2831 60.5748 27.0507 61.0217 28.8878C61.6594 25.9398 62.8306 23.133 64.4774 20.606L62.8091 21.599ZM70.4654 13.9626L69.7603 15.194C72.2046 13.4961 74.9791 12.3322 77.9032 11.7779C76.1058 11.2516 74.2786 10.8743 72.66 10.5466C71.8268 11.6166 71.0922 12.76 70.4654 13.9626ZM86.6319 11.49L85.4005 11.768C88.3896 12.4147 91.2212 13.6465 93.7321 15.3926L93.6964 15.3318C92.7745 13.7627 91.8419 12.1753 90.8125 10.6459C89.5071 10.8218 88.193 11.1272 86.9105 11.4253L86.6319 11.49ZM102.802 39.0926C102.615 38.2275 102.423 37.3428 102.203 36.4944H102.193C101.662 39.5001 100.524 42.3656 98.8462 44.9153C99.5611 44.4585 100.177 44.0514 100.971 43.5251L101.174 43.3903L101.352 43.2724C102.028 42.8232 102.724 42.3607 103.434 41.9263C103.245 41.1319 103.067 40.3375 102.898 39.5331L102.861 39.3662L102.802 39.0926ZM100.08 21.4654C99.7002 21.2058 99.3143 20.9422 98.9256 20.6954H98.9157C100.587 23.256 101.716 26.1321 102.232 29.146C102.759 27.361 103.167 25.5431 103.454 23.7042C103.001 23.4191 102.526 23.0994 102.074 22.7946L102.073 22.7946C101.722 22.558 101.384 22.3305 101.08 22.1352C100.753 21.9248 100.419 21.6966 100.08 21.4654ZM97.5057 7.83388L97.1779 7.69658H97.1679C95.9068 7.18021 94.6059 6.63404 93.3448 6.0978C92.8212 7.19881 92.3539 8.32571 91.9446 9.47411H92.888H96.1352H101.269C100.028 8.88996 98.7529 8.35613 97.5062 7.83409L97.5061 7.83404L97.5059 7.83396L97.5057 7.83388ZM92.1929 5.60129C90.4749 4.8168 88.7073 4.07203 86.9894 3.35705L84.2784 2.23492C86.4432 4.57847 88.7272 6.82272 90.9119 8.93787C91.0409 8.59031 91.18 8.26261 91.319 7.94484C91.6703 7.18736 91.9624 6.40384 92.1929 5.60129ZM88.3598 8.02428C86.2148 5.7999 84.0004 3.51593 81.7263 1.37099H81.7164C80.6042 2.49311 79.4424 3.6053 78.3103 4.6877C78.1059 4.88828 77.9006 5.08951 77.6945 5.29139C76.289 6.66866 74.8526 8.07613 73.4842 9.51383C76.2746 10.2189 79.0352 10.8842 81.4284 11.4502L82.5704 11.2119C83.4563 11.0192 84.363 10.825 85.2786 10.629C86.8157 10.2998 88.3779 9.96535 89.9089 9.62306L88.3598 8.02428ZM78.3953 2.49819L78.3953 2.49822C76.3003 3.36707 74.2052 4.23592 72.1634 5.10477L71.2598 5.44242C71.4947 6.27786 71.8003 7.09177 72.1734 7.87534C72.3124 8.18317 72.4415 8.49101 72.5706 8.79885C73.6729 7.66679 74.8148 6.55461 75.927 5.47221C77.0392 4.3898 78.1911 3.26767 79.2934 2.12569L78.3953 2.49819ZM71.4286 9.0471C70.9705 8.04457 70.579 7.01289 70.2568 5.95878H70.2469C67.238 7.13056 64.5469 8.2229 62.1835 9.3053H64.6462C66.9004 9.33509 69.234 9.36487 71.508 9.23578L71.4286 9.0471ZM64.1795 10.3877H59.8598C59.7605 14.2903 59.7307 18.2227 59.7704 22.1551C62.5311 20.467 64.7753 19.0469 66.811 17.7063C67.9828 16.0182 69.095 14.2109 70.088 12.4631L71.2499 10.4771C68.8965 10.3877 66.4935 10.3877 64.1798 10.3877H64.1795ZM58.6284 19.8314C58.6979 17.5308 58.698 15.1609 58.698 12.8107C57.5063 15.4919 56.3743 18.2525 55.3813 21.0131C55.8236 21.1633 56.2449 21.3416 56.6628 21.5185L56.6629 21.5185L56.7836 21.5696L56.9006 21.6189C57.4615 21.8806 58.0387 22.1062 58.6284 22.2941V19.8314ZM55.699 22.3736L54.8847 22.0558V22.0657C53.852 24.449 52.7696 27.011 51.5184 30.0596C53.6633 27.9544 55.8976 25.73 58.1518 23.4262C57.3525 23.0342 56.5338 22.6829 55.699 22.3736ZM53.1513 39.1736L53.1524 39.1764C53.2403 39.3887 53.328 39.6003 53.415 39.8112V39.8211C53.8718 40.8936 54.3386 42.0058 54.7755 43.0981L56.1657 42.542C56.3196 42.48 56.4747 42.4179 56.6306 42.3556C57.0984 42.1684 57.5733 41.9785 58.0426 41.7774C55.7586 39.3544 53.6236 37.1598 51.5283 35.1042C52.0335 36.4741 52.5977 37.8367 53.1509 39.1727L53.151 39.173L53.1511 39.1732L53.1513 39.1736ZM55.2124 44.2004C56.2849 46.8815 57.3971 49.5826 58.4894 52.2141V52.224C58.5743 49.8821 58.5359 47.5184 58.4981 45.1948L58.4981 45.1945C58.4917 44.7989 58.4853 44.4046 58.4795 44.0117V42.8697C57.354 43.2178 56.2609 43.663 55.2124 44.2004ZM53.6236 29.5532L50.6445 32.5323C53.7527 35.7993 56.3346 38.4309 58.698 40.7645C58.9661 39.4537 59.2342 38.1826 59.6116 36.8519C59.9889 35.5213 60.3265 34.1509 60.6046 32.7904C60.0485 29.8014 59.3633 26.8323 58.8072 24.5185C57.0803 26.0545 55.4268 27.7281 53.8203 29.3541L53.8202 29.3542L53.8202 29.3542L53.8201 29.3542L53.8201 29.3543L53.8201 29.3543L53.82 29.3544L53.82 29.3544L53.82 29.3544L53.8199 29.3545L53.8199 29.3545L53.8199 29.3545L53.8198 29.3546L53.8198 29.3546L53.8198 29.3546L53.8197 29.3547L53.8197 29.3547L53.8197 29.3547L53.8196 29.3548L53.8196 29.3548L53.8195 29.3549L53.6236 29.5532ZM59.6314 54.5874H60.6244L63.5837 54.6967H71.0016L70.4952 53.8327L70.4814 53.8092C69.2742 51.7411 68.0272 49.6049 66.6521 47.6263C65.1924 46.6531 63.673 45.6899 62.2133 44.7664L59.5818 43.0882V51.0324V54.5874H59.6314ZM70.0483 59.1157V59.0263L70.0781 59.0462C70.2714 58.3139 70.5272 57.5996 70.8427 56.9111C71.0016 56.5636 71.1605 56.1962 71.2896 55.8287C70.5209 55.8458 69.7457 55.8237 68.9752 55.8018C68.4019 55.7854 67.8313 55.7691 67.2678 55.7691C66.7014 55.7691 66.1284 55.7571 65.5525 55.7451C64.3918 55.7207 63.2192 55.6961 62.0643 55.7691C62.5597 55.977 63.0546 56.1834 63.5491 56.3897L63.5496 56.3899L63.5502 56.3901L63.5507 56.3904L63.5513 56.3906L63.5516 56.3907L63.552 56.3909L63.5525 56.3911L63.5531 56.3913L63.5534 56.3915C65.2779 57.1107 66.9978 57.8281 68.7176 58.5993L69.4525 58.9071C69.7901 59.1157 70.0483 59.1256 70.0483 59.1157ZM70.9321 59.5725C72.9181 60.4662 74.9042 61.3202 76.8903 62.1643L78.9061 63.0083C77.5755 61.5387 76.1554 60.1286 74.7751 58.7582C74.6149 58.598 74.4539 58.4374 74.2924 58.2763L74.2921 58.276C73.643 57.6284 72.9862 56.9733 72.3422 56.3054C71.796 57.4375 71.3392 58.5099 70.9321 59.5725ZM73.2558 55.6301C75.6887 58.1326 78.5288 61.0223 81.3986 63.8425H81.4284C83.8018 61.6082 86.8106 58.7085 89.6011 55.6401C88.466 55.4328 87.331 55.1568 86.2349 54.8903L86.2346 54.8902L86.2342 54.8901L86.2339 54.89L86.2336 54.89L86.2333 54.8899L86.2329 54.8898L86.2327 54.8897L86.2323 54.8896L86.232 54.8896L86.2317 54.8895L86.2314 54.8894L86.231 54.8893L86.2307 54.8892L86.2304 54.8892L86.2303 54.8891L86.2302 54.8891L86.2301 54.8891L86.23 54.8891L86.2299 54.889L86.2298 54.889L86.2297 54.889L86.2296 54.889L86.2295 54.8889L86.2295 54.8889L86.2294 54.8889L86.2293 54.8889L86.2292 54.8889L86.2291 54.8888L86.229 54.8888L86.2289 54.8888L86.2288 54.8888L86.2287 54.8887L86.2286 54.8887L86.2285 54.8887L86.2284 54.8887L86.2284 54.8886L86.2283 54.8886L86.228 54.8886L86.2148 54.8854C84.4886 54.4345 82.7334 54.1027 80.9617 53.8923C78.462 54.3845 75.9342 54.9893 73.4694 55.579L73.469 55.5791L73.2558 55.6301ZM84.05 62.9885C85.8275 62.3529 87.5852 61.5982 89.2932 60.8634L89.3727 60.8237C90.2167 60.4364 91.1005 60.0392 91.9645 59.7313C91.842 59.4456 91.7335 59.1599 91.6263 58.8774L91.626 58.8765C91.5768 58.7469 91.5278 58.618 91.4779 58.4901C91.2319 57.7865 90.94 57.0998 90.604 56.4345L88.8265 58.1921C87.2376 59.7413 85.5991 61.34 84.05 62.9885ZM92.6596 58.4404C92.7787 58.7085 92.8979 58.9866 93.0071 59.2547L93.0369 59.215C94.9265 58.5203 96.8161 57.7429 98.6751 56.9782L98.6756 56.978C99.4737 56.6497 100.266 56.3236 101.051 56.0075H91.7559C92.0084 56.8357 92.3101 57.6482 92.6596 58.4404ZM103.404 54.8357V48.9371L103.434 48.8974C103.454 47.0603 103.474 45.1437 103.424 43.3563C102.074 44.1507 100.743 45.0146 99.4519 45.8587C99.0263 46.1311 98.6007 46.409 98.1751 46.6868C97.6077 47.0573 97.0402 47.4277 96.4728 47.7852C95.1093 49.7633 93.8015 51.8342 92.5314 53.8454L92.4014 54.0512L91.9148 54.8357H98.2603H103.404ZM104.487 52.4421V52.4425L104.516 52.4028C105.579 50.1089 106.82 47.249 107.803 44.4288C106.741 44.0415 105.748 43.6046 104.755 43.1677L104.755 43.1676L104.636 43.118C104.487 46.3253 104.487 49.5723 104.487 52.4421ZM108.29 43.396C109.243 41.2809 110.147 39.1061 111.011 36.991L111.636 35.4716C109.68 37.3087 107.327 39.6026 105.082 42.0753C106.135 42.5817 107.237 43.0087 108.29 43.396ZM104.367 41.1021C105.509 39.9403 106.681 38.7784 107.823 37.6563L107.853 37.6166C109.402 36.0873 111.011 34.4985 112.51 32.9295C111.537 31.9861 110.574 30.9931 109.65 30L109.445 29.7889C107.822 28.1171 106.151 26.3974 104.417 24.7966C104.248 25.5284 104.066 26.2663 103.887 26.9962L103.887 26.9965L103.885 27.0028C103.834 27.2115 103.783 27.4196 103.732 27.6267C103.295 29.3446 102.858 31.1321 102.55 32.9096C103.086 35.5411 103.672 38.3315 104.367 41.1021ZM70.8791 40.6436C71.9177 41.3376 73.1388 41.708 74.3879 41.708C76.0621 41.7053 77.667 41.0391 78.8508 39.8552C80.0347 38.6714 80.7009 37.0665 80.7036 35.3923C80.7036 34.1432 80.3332 32.9221 79.6392 31.8835C78.9452 30.8449 77.9588 30.0354 76.8048 29.5574C75.6508 29.0794 74.3809 28.9543 73.1558 29.198C72.7954 29.2697 72.4436 29.3723 72.1041 29.504C72.2747 29.2063 72.4571 28.9148 72.6508 28.6302C73.7525 27.012 75.1965 25.6558 76.8804 24.6575L75.808 22.731C69.5935 25.8947 68.4859 32.6207 68.3455 33.5546C68.2851 33.7532 68.2343 33.9553 68.1936 34.1602C67.9499 35.3853 68.0749 36.6552 68.553 37.8092C69.031 38.9632 69.8405 39.9496 70.8791 40.6436ZM70.5805 33.8152C70.5549 33.877 70.5309 33.9393 70.5084 34.0021L70.5052 34.0218L70.5016 34.0211C70.2558 34.7178 70.2013 35.4691 70.346 36.1963C70.505 36.9957 70.8975 37.73 71.4739 38.3063C72.0502 38.8827 72.7845 39.2752 73.5839 39.4342C74.3833 39.5932 75.2119 39.5116 75.965 39.1997C76.718 38.8878 77.3616 38.3595 77.8144 37.6818C78.2673 37.0041 78.509 36.2074 78.509 35.3923C78.5116 34.849 78.407 34.3105 78.2012 33.8076C77.9954 33.3048 77.6924 32.8475 77.3096 32.4619C76.9268 32.0763 76.4716 31.7701 75.9703 31.5606C75.469 31.3512 74.9312 31.2427 74.3879 31.2414V31.2712C73.5728 31.2712 72.7761 31.5129 72.0983 31.9658C71.4206 32.4186 70.8924 33.0622 70.5805 33.8152ZM89.0251 41.7073C87.772 41.7073 86.5471 41.3357 85.5053 40.6396C84.4634 39.9434 83.6513 38.9539 83.1718 37.7963C82.6923 36.6386 82.5668 35.3647 82.8113 34.1358C83.0557 32.9068 83.6591 31.7779 84.5452 30.8919C84.9141 30.523 85.3251 30.2031 85.7679 29.9377C85.4211 29.5594 85.141 29.1216 84.9426 28.6425C84.6081 27.8351 84.5206 26.9466 84.6911 26.0894C84.8616 25.2322 85.2825 24.4448 85.9005 23.8268C86.5185 23.2088 87.3059 22.7879 88.1631 22.6174C89.0203 22.4469 89.9088 22.5344 90.7162 22.8689C91.5237 23.2033 92.2138 23.7697 92.6994 24.4964C93.185 25.2231 93.4441 26.0775 93.4441 26.9515C93.4417 28.0589 93.0245 29.1229 92.2788 29.9356C93.0805 30.4154 93.7696 31.0687 94.2929 31.8519C94.989 32.8938 95.3606 34.1187 95.3606 35.3718C95.3606 37.0521 94.6931 38.6635 93.505 39.8517C92.3168 41.0398 90.7054 41.7073 89.0251 41.7073ZM89.07 31.3701C90.1072 31.3818 91.0995 31.7989 91.8338 32.5333C92.5787 33.2782 92.9972 34.2885 92.9972 35.342C92.9972 36.1276 92.7642 36.8955 92.3278 37.5488C91.8913 38.202 91.271 38.7111 90.5452 39.0117C89.8193 39.3124 89.0207 39.391 88.2502 39.2378C87.4797 39.0845 86.7719 38.7062 86.2164 38.1507C85.6609 37.5952 85.2825 36.8874 85.1293 36.1169C84.976 35.3464 85.0547 34.5477 85.3553 33.8219C85.656 33.0961 86.1651 32.4757 86.8183 32.0393C87.4578 31.612 88.2073 31.3797 88.9757 31.3702L89.0252 31.3704L89.07 31.3701ZM89.2069 29.0388C89.419 29.0204 89.6282 28.9696 89.827 28.8873C90.2099 28.7287 90.5371 28.4601 90.7673 28.1155C90.9976 27.771 91.1204 27.3659 91.1204 26.9515C91.1178 26.3966 90.8962 25.8651 90.5039 25.4727C90.1115 25.0804 89.5801 24.8588 89.0252 24.8562C88.6107 24.8562 88.2057 24.9791 87.8611 25.2093C87.5165 25.4395 87.2479 25.7668 87.0894 26.1496C86.9308 26.5325 86.8893 26.9538 86.9701 27.3602C87.051 27.7667 87.2505 28.14 87.5436 28.4331C87.8366 28.7261 88.2099 28.9256 88.6164 29.0065C88.6916 29.0215 88.7674 29.0322 88.8433 29.0388C88.9646 29.0354 89.0858 29.0354 89.2069 29.0388ZM16.1169 103.146L16.0374 102.57L15.4019 99.6108H14.8259L15.8786 103.94H16.3949L17.3185 100.783L17.388 100.455L17.4575 100.783L18.3512 103.94H18.8676L19.8606 99.591H19.2946L18.6193 102.57L18.53 103.156L18.4108 102.63L17.5766 99.6506H17.1L16.236 102.63L16.1169 103.146ZM25.0441 103.941H24.4682V101.955H22.2835V103.941H21.7175V99.6116H22.2835V101.469H24.4682V99.6116H25.0441V103.941ZM27.8048 101.935H29.7214L29.6817 101.469H27.8048V100.078H29.9498V99.6116H27.2289V103.941H29.9796V103.474H27.8048V101.935ZM33.5345 102.193H32.5415V103.941H31.9656V99.6115H33.3955C33.7983 99.5828 34.1976 99.7029 34.5176 99.9491C34.6585 100.071 34.7682 100.224 34.8373 100.397C34.9064 100.57 34.933 100.757 34.9149 100.942C34.9221 101.195 34.8452 101.443 34.6964 101.647C34.5417 101.851 34.3314 102.006 34.0906 102.094L35.0837 103.931H34.468L33.5345 102.193ZM32.5415 101.727H33.4154C33.661 101.737 33.9016 101.655 34.0906 101.498C34.1744 101.426 34.2405 101.336 34.2835 101.234C34.3266 101.133 34.3456 101.023 34.3389 100.912C34.347 100.798 34.3298 100.684 34.2886 100.578C34.2474 100.471 34.1832 100.375 34.1006 100.297C33.9075 100.141 33.663 100.063 33.4154 100.078H32.5415V101.727ZM37.4868 101.935H39.3537V101.469H37.4868V100.078H39.6317V99.6116H36.9108V103.941H39.6615V103.474H37.4868V101.935ZM47.1787 100.078H45.7885V103.941H45.2225V100.078H43.8322V99.6116H47.1787V100.078ZM51.7865 103.941H52.3624L52.4022 99.6116H51.8262V101.469H49.6515V99.6116H49.0755V103.941H49.6515V101.955H51.7865V103.941ZM57.0395 101.935H55.1627V103.474H57.3375V103.941H54.6165V99.6116H57.3275V100.078H55.1826V101.469H57.0594L57.0395 101.935ZM64.1399 103.147L62.7298 99.6116H61.9949V103.941H62.561V102.253L62.5014 100.446L63.9214 103.941H64.3583L65.7784 100.436L65.7287 102.253V103.941H66.2947V99.6116H65.5599L64.1399 103.147ZM69.1547 102.809L68.7475 103.941H68.1517L69.8101 99.6116H70.3066L71.9649 103.941H71.3791L70.962 102.809H69.1547ZM69.3235 102.342H70.7932L70.0583 100.356L69.3235 102.342ZM73.9707 101.488C74.2816 101.74 74.6445 101.92 75.0333 102.014C75.3162 102.094 75.582 102.226 75.8178 102.401C75.8892 102.463 75.9465 102.539 75.9857 102.625C76.025 102.711 76.0454 102.804 76.0454 102.898C76.0454 102.992 76.025 103.085 75.9857 103.171C75.9465 103.257 75.8892 103.333 75.8178 103.394C75.6147 103.536 75.3692 103.602 75.1226 103.583C74.8464 103.594 74.5742 103.514 74.3481 103.355C74.2547 103.282 74.1798 103.189 74.1298 103.082C74.0797 102.975 74.0558 102.857 74.0601 102.739H73.4841C73.4862 102.975 73.5627 103.204 73.7026 103.394C73.8551 103.604 74.0608 103.768 74.2984 103.871C74.5622 103.983 74.846 104.04 75.1326 104.04C75.5248 104.057 75.912 103.946 76.2348 103.722C76.3669 103.626 76.4732 103.498 76.5442 103.351C76.6153 103.204 76.6488 103.041 76.642 102.878C76.646 102.676 76.5945 102.477 76.493 102.302C76.3772 102.129 76.2247 101.983 76.0462 101.875C75.7791 101.732 75.4957 101.622 75.2021 101.547C74.9275 101.486 74.6677 101.371 74.4375 101.21C74.367 101.158 74.3096 101.091 74.27 101.014C74.2303 100.936 74.2094 100.85 74.209 100.763C74.2043 100.664 74.2235 100.565 74.265 100.476C74.3065 100.386 74.3691 100.307 74.4474 100.247C74.6486 100.112 74.8854 100.04 75.1276 100.04C75.3699 100.04 75.6066 100.112 75.8078 100.247C75.8917 100.325 75.9574 100.42 76.0003 100.527C76.0432 100.633 76.0622 100.748 76.0561 100.862H76.632C76.634 100.627 76.5685 100.396 76.4434 100.197C76.3104 99.9917 76.1207 99.8295 75.8972 99.7302C75.6508 99.6071 75.3782 99.5457 75.1028 99.5514C74.7197 99.5337 74.3428 99.6535 74.0402 99.8891C73.9118 99.9888 73.8082 100.117 73.7375 100.263C73.6669 100.41 73.6311 100.571 73.6331 100.733C73.6318 100.876 73.6614 101.017 73.7196 101.147C73.7779 101.278 73.8635 101.394 73.9707 101.488ZM81.5774 100.078H80.1872V103.941H79.6211V100.078H78.2309V99.6116H81.5774V100.078ZM84.0103 101.935H85.8771V101.469H84.0103V100.078H86.1353V99.6116H83.4144V103.941H86.185V103.474H84.0103V101.935ZM89.7003 102.193H88.7073V103.941H88.1412V99.6115H89.5712C89.974 99.5828 90.3732 99.7029 90.6933 99.9491C90.8342 100.071 90.9438 100.224 91.013 100.397C91.0821 100.57 91.1087 100.757 91.0905 100.942C91.0928 101.194 91.0164 101.441 90.872 101.647C90.7174 101.851 90.507 102.006 90.2663 102.094L91.2593 103.931H90.6437L89.7003 102.193ZM88.7073 101.727H89.591C89.8366 101.737 90.0772 101.655 90.2663 101.498C90.3501 101.426 90.4161 101.336 90.4592 101.234C90.5023 101.133 90.5212 101.023 90.5146 100.912C90.5226 100.798 90.5055 100.684 90.4643 100.578C90.4231 100.471 90.3589 100.375 90.2762 100.297C90.0806 100.138 89.8321 100.06 89.5811 100.078H88.7073V101.727ZM93.6426 103.941V102.243H94.6555C95.0583 102.272 95.4576 102.151 95.7777 101.905C95.9056 101.78 96.0072 101.63 96.0765 101.464C96.1459 101.299 96.1816 101.121 96.1816 100.942C96.1816 100.763 96.1459 100.585 96.0765 100.42C96.0072 100.254 95.9056 100.104 95.7777 99.9787C95.4683 99.7173 95.0697 99.5856 94.6655 99.6113H93.0766V103.941H93.6426ZM94.6357 101.776H93.6426V100.078H94.6754C94.9189 100.073 95.1557 100.158 95.3407 100.316C95.4223 100.398 95.4864 100.496 95.5291 100.604C95.5718 100.711 95.5921 100.826 95.589 100.942C95.5939 101.058 95.5744 101.173 95.5316 101.281C95.4888 101.389 95.4238 101.487 95.3407 101.568C95.1384 101.72 94.8881 101.794 94.6357 101.776ZM98.7469 103.941H98.171V99.6116H98.7469V103.941ZM101.577 101.935H103.444V101.469H101.577V100.078H103.722V99.6116H101.001V103.941H103.752V103.474H101.577V101.935ZM108.856 102.57C108.832 102.974 108.65 103.352 108.349 103.623C108.033 103.886 107.629 104.021 107.217 104C106.985 104.007 106.754 103.961 106.542 103.864C106.33 103.768 106.143 103.624 105.996 103.444C105.664 103.028 105.498 102.505 105.529 101.974V101.557C105.519 101.194 105.594 100.834 105.748 100.505C105.874 100.214 106.085 99.9679 106.353 99.7995C106.627 99.6297 106.945 99.5434 107.267 99.5512C107.468 99.5363 107.67 99.5626 107.86 99.6283C108.05 99.6941 108.225 99.7981 108.374 99.9338C108.523 100.07 108.642 100.234 108.725 100.418C108.808 100.601 108.852 100.8 108.856 101.001H108.29C108.272 100.722 108.156 100.458 107.962 100.256C107.769 100.091 107.521 100.006 107.267 100.018C107.102 100.009 106.938 100.042 106.788 100.113C106.639 100.184 106.51 100.292 106.413 100.425C106.186 100.764 106.078 101.17 106.105 101.577V101.994C106.088 102.388 106.188 102.779 106.393 103.116C106.486 103.247 106.61 103.354 106.754 103.426C106.897 103.499 107.056 103.536 107.217 103.533C107.481 103.553 107.742 103.475 107.952 103.315C108.148 103.113 108.267 102.85 108.29 102.57H108.856ZM111.428 101.935H113.305V101.469H111.428V100.078H113.573V99.6116H110.852V103.941H113.603V103.474H111.428V101.935ZM118.866 103.941H118.3V99.6116H118.866V103.941ZM121.328 101.488C121.644 101.738 122.01 101.917 122.401 102.015C122.684 102.079 122.953 102.193 123.195 102.352C123.268 102.413 123.327 102.489 123.367 102.574C123.407 102.66 123.428 102.754 123.428 102.849C123.428 102.943 123.407 103.037 123.367 103.123C123.327 103.209 123.268 103.285 123.195 103.345C122.991 103.483 122.746 103.55 122.5 103.534C122.223 103.548 121.95 103.467 121.726 103.305C121.631 103.234 121.555 103.141 121.505 103.033C121.455 102.926 121.432 102.808 121.438 102.69H120.862C120.859 102.928 120.932 103.161 121.07 103.355C121.223 103.564 121.428 103.729 121.666 103.832C121.93 103.944 122.214 104.001 122.5 104.001C122.89 104.02 123.274 103.908 123.592 103.683C123.726 103.588 123.835 103.461 123.907 103.313C123.98 103.166 124.015 103.003 124.01 102.839C124.014 102.637 123.962 102.437 123.861 102.263C123.743 102.087 123.587 101.941 123.404 101.836C123.137 101.691 122.854 101.581 122.56 101.508C122.286 101.445 122.026 101.33 121.795 101.17C121.726 101.119 121.67 101.051 121.632 100.973C121.594 100.896 121.575 100.81 121.577 100.724C121.572 100.625 121.591 100.526 121.633 100.436C121.674 100.346 121.737 100.268 121.815 100.207C122.004 100.069 122.236 100.002 122.47 100.019C122.726 100.001 122.979 100.083 123.175 100.247C123.258 100.326 123.322 100.422 123.365 100.528C123.408 100.634 123.428 100.748 123.424 100.863H124C123.998 100.626 123.929 100.396 123.801 100.197C123.669 99.9946 123.484 99.8329 123.265 99.7305C123.018 99.6085 122.746 99.5472 122.47 99.5518C122.087 99.5323 121.71 99.6522 121.408 99.8894C121.276 99.9857 121.169 100.113 121.098 100.26C121.027 100.408 120.994 100.57 121.001 100.733C120.998 100.875 121.026 101.016 121.083 101.146C121.139 101.277 121.223 101.393 121.328 101.488ZM129.412 99.6116L130.832 103.147L132.242 99.6116H132.977V103.941H132.411V102.253V100.436L131.08 103.941H130.643L129.233 100.446L129.282 102.253V103.941H128.716V99.6116H129.412ZM135.837 102.809H137.644L138.031 103.941H138.647L136.988 99.6116H136.492L134.844 103.941H135.429L135.837 102.809ZM137.515 102.342H136.045L136.78 100.356L137.515 102.342ZM140.444 103.941V99.6116H141.666C142.012 99.6106 142.353 99.6959 142.659 99.8599C142.945 100.029 143.176 100.277 143.324 100.575C143.487 100.901 143.569 101.262 143.562 101.627V101.906C143.57 102.277 143.489 102.645 143.324 102.978C143.178 103.278 142.942 103.524 142.649 103.683C142.344 103.851 142.003 103.94 141.656 103.941H140.444ZM141.02 100.078V103.475H141.616C141.802 103.481 141.987 103.447 142.158 103.375C142.33 103.303 142.484 103.195 142.609 103.057C142.875 102.731 143.007 102.316 142.976 101.896V101.637C143.005 101.227 142.882 100.82 142.629 100.495C142.508 100.353 142.355 100.241 142.182 100.168C142.01 100.096 141.822 100.065 141.636 100.078H141.02ZM146.224 101.935H148.1V101.469H146.224V100.078H148.369V99.6116H145.648V103.941H148.398V103.474H146.224V101.935ZM5.07438 77.3179H3.08832C1.28101 77.3179 0.387281 78.1422 0.387281 79.8005H0V78.1819C0 77.03 0.615677 76.454 1.8371 76.454H11.9164V77.3179H7.01079V90.694H5.02473L5.07438 77.3179ZM16.2759 77.4174C16.5072 77.9276 16.6095 78.4869 16.5738 79.0459L16.6036 90.7438H18.5896V83.7926H25.0642V88.1024C25.0443 88.6537 25.1011 89.2051 25.233 89.7409C25.2749 89.8969 25.3475 90.0431 25.4463 90.171C25.5452 90.2988 25.6684 90.4058 25.8089 90.4856C26.1882 90.6462 26.5993 90.7175 27.0105 90.6942H28.9469V90.2572H28.5199C28.2891 90.2901 28.0536 90.2583 27.8398 90.1654C27.6259 90.0725 27.442 89.9221 27.3084 89.7309C27.0771 89.2207 26.9748 88.6614 27.0105 88.1024V76.4541H25.0244V82.9287H18.5499V79.0459C18.5743 78.4944 18.5174 77.9424 18.3811 77.4074C18.3424 77.25 18.2711 77.1024 18.1719 76.9741C18.0727 76.8458 17.9478 76.7397 17.8051 76.6627C17.4294 76.5019 17.0215 76.4305 16.6135 76.4541H14.6274V76.8811H15.0644C15.2961 76.8505 15.5318 76.8843 15.7455 76.9789C15.9592 77.0735 16.1427 77.2252 16.2759 77.4174ZM33.6835 79.0458C33.717 78.4859 33.6112 77.9263 33.3757 77.4172C33.2442 77.2259 33.0624 77.0746 32.8504 76.98C32.6384 76.8854 32.4044 76.8511 32.1741 76.881H31.7769V76.454H40.9624C42.1938 76.454 42.7996 77.03 42.7996 78.1819V79.8005H42.3725C42.3725 78.1422 41.4689 77.3179 39.6715 77.3179H35.6994V82.9286H41.5285V83.7925H35.6994V89.8301H39.4729C40.2857 89.8738 41.0943 89.6879 41.8065 89.2939C42.4335 88.8358 42.9021 88.1936 43.1471 87.4568L43.5741 87.566L42.8194 89.6116C42.7141 89.95 42.496 90.242 42.2014 90.439C41.9069 90.6359 41.5537 90.726 41.2008 90.694H33.763L33.6835 79.0458ZM55.8083 77.417C56.0484 77.9247 56.1544 78.4854 56.1162 79.0456L56.1658 90.6939H63.6036C63.9565 90.7258 64.3097 90.6357 64.6043 90.4388C64.8988 90.2418 65.1169 89.9498 65.2223 89.6115L65.977 87.5658L65.55 87.4566C65.3124 88.1972 64.8423 88.8415 64.2094 89.2937C63.5009 89.688 62.6953 89.8738 61.8857 89.8299H58.1022V83.832H63.9313V82.9681H58.1022V77.3575H62.0744C63.8717 77.3575 64.7754 78.1817 64.7754 79.84H65.2024V78.2214C65.2024 77.0695 64.5967 76.4935 63.3752 76.4935H54.1798V76.9205H54.6167C54.8417 76.8872 55.0715 76.9158 55.2815 77.0033C55.4915 77.0907 55.6736 77.2338 55.8083 77.417ZM84.4076 91.1906C83.8294 90.8679 83.3934 90.3398 83.1861 89.711C82.9283 88.8414 82.811 87.9363 82.8386 87.0298V78.7181L77.4563 90.694H77.0194L71.4088 78.4996V90.694H70.5449V76.454H72.6004L77.7741 87.6752L82.8485 76.454H84.8345V87.0298C84.7861 88.0865 84.9586 89.1417 85.341 90.128C85.452 90.4484 85.6596 90.7265 85.9353 90.924C86.211 91.1214 86.5411 91.2284 86.8802 91.2303V91.6672C86.0289 91.7199 85.1782 91.5559 84.4076 91.1906ZM91.17 77.4172C91.4013 77.9275 91.5036 78.4867 91.4679 79.0458L91.5076 90.694H98.9553C99.3079 90.7241 99.6602 90.6333 99.9544 90.4366C100.249 90.2399 100.467 89.949 100.574 89.6116L101.329 87.566L100.892 87.4568C100.654 88.1945 100.188 88.8377 99.5611 89.2939C98.8489 89.6879 98.0402 89.8737 97.2274 89.8301H93.4539V83.7925H99.2731V82.9286H93.4539V77.3179H97.4261C99.2234 77.3179 100.127 78.1422 100.127 79.8005H100.554V78.1819C100.554 77.03 99.9384 76.454 98.717 76.454H89.5315V76.881H89.9585C90.1903 76.8492 90.4264 76.8825 90.6403 76.9772C90.8543 77.0719 91.0376 77.2243 91.17 77.4172ZM113.851 90.2272C113.088 89.5257 112.45 88.6997 111.964 87.7844L109.809 84.1102H108.3V90.694H106.314V79.0457C106.35 78.4867 106.247 77.9274 106.016 77.4172C105.884 77.2242 105.7 77.0718 105.486 76.9771C105.272 76.8824 105.036 76.8491 104.804 76.8809H104.377V76.4539H109.988C111.271 76.4366 112.541 76.7117 113.702 77.2583C114.26 77.5418 114.719 77.9877 115.018 78.5372C115.318 79.0867 115.444 79.7141 115.38 80.3367C115.38 82.2565 114.228 83.478 111.924 84.0009L114.189 87.7844C114.567 88.4756 115.053 89.1023 115.628 89.6413C116.043 89.9989 116.562 90.2146 117.108 90.257V90.694C116.93 90.7668 116.743 90.8168 116.552 90.8429C116.306 90.8867 116.057 90.9099 115.807 90.9124C115.095 90.917 114.404 90.6749 113.851 90.2272ZM111.368 83.0377C111.893 82.8279 112.355 82.4858 112.709 82.0447C113.082 81.5668 113.276 80.9726 113.255 80.3665C113.28 79.7352 113.087 79.1146 112.709 78.6088C112.354 78.1686 111.893 77.8268 111.368 77.6158C110.914 77.4036 110.42 77.2886 109.919 77.2781C109.372 77.282 108.828 77.3554 108.3 77.4966V83.2065C108.828 83.3477 109.372 83.4211 109.919 83.425C110.422 83.3907 110.915 83.2591 111.368 83.0377ZM128.816 87.993C129.071 88.9072 129.645 89.6999 130.435 90.2273C131.039 90.5887 131.727 90.7871 132.431 90.8033C132.722 90.805 133.013 90.7683 133.294 90.694V90.2571C132.791 90.2388 132.31 90.0457 131.934 89.711C131.503 89.2026 131.166 88.6206 130.941 87.993L126.194 76.454H125.549L119.511 90.694H120.504L122.232 86.5928H128.27L128.816 87.993ZM127.843 85.7289H122.56L125.251 79.4728L127.843 85.7289ZM137.207 79.0459C137.245 78.4857 137.139 77.925 136.899 77.4174C136.768 77.2252 136.587 77.0733 136.374 76.9785C136.162 76.8838 135.928 76.8501 135.697 76.8811H135.261V76.4541H137.247C137.655 76.4305 138.063 76.5019 138.438 76.6627C138.581 76.7397 138.706 76.8458 138.805 76.9741C138.904 77.1024 138.976 77.25 139.014 77.4074C139.146 77.9431 139.203 78.4946 139.183 79.0459V89.8302H146.839V90.6942H137.247L137.207 79.0459ZM150.682 77.4172C150.922 77.9249 151.028 78.4856 150.99 79.0458V90.694H155.26C156.754 90.7346 158.237 90.4251 159.59 89.7904C160.721 89.2349 161.656 88.3482 162.271 87.2482C162.893 86.0933 163.205 84.7963 163.175 83.4846C163.228 82.5166 163.063 81.549 162.692 80.6535C162.32 79.7579 161.752 78.9573 161.03 78.311C159.6 77.0697 157.485 76.454 154.704 76.454H149.044V76.881H149.481C149.711 76.85 149.946 76.8837 150.158 76.9784C150.37 77.0731 150.552 77.2251 150.682 77.4172ZM160.067 86.9305C159.62 87.8392 158.933 88.6084 158.08 89.1549C157.197 89.6852 156.182 89.9569 155.151 89.9393C154.412 89.9259 153.676 89.8327 152.956 89.6613V77.5563C153.654 77.3344 154.38 77.2172 155.111 77.2087C156.159 77.1869 157.192 77.4623 158.09 78.0031C158.949 78.5514 159.637 79.3288 160.076 80.2474C160.573 81.2851 160.821 82.4239 160.801 83.574C160.826 84.7353 160.574 85.8857 160.067 86.9305Z" fill="#053927"/>
</svg>
