<svg width="536" height="1117" viewBox="0 0 536 1117" fill="none" xmlns="http://www.w3.org/2000/svg">
<path fill-rule="evenodd" clip-rule="evenodd" d="M266.911 0H265.911V1V173.508L135.609 303.815C135.349 304.074 135.255 304.453 135.355 304.8H134.754V174.59C134.754 174.186 134.51 173.821 134.137 173.666C133.763 173.511 133.333 173.597 133.047 173.883L2.47795 304.452C2.37695 304.553 2.30095 304.672 2.2517 304.8H1.90088H0.900879V305.8V372.366V373.366H1.90088H235.305C103.524 389.523 1.40292 501.597 0.904663 637.628H0.902832V638.628V639.628H0.904663C1.44241 786.441 120.351 905.35 267.165 905.888V905.89V905.891H268.165H334.731H335.731V905.89H400.297H401.297H402.297H466.862H467.862H467.863H468.863H534.428H535.428L535.428 904.89V639.628V638.628L535.428 638.495L535.428 637.628H535.426C534.928 501.597 432.807 389.523 301.026 373.366H534.426H535.426V372.366V305.8V304.8H534.426H335.725C335.599 296.307 333.872 287.871 330.589 279.945C325.475 267.599 316.815 257.046 305.704 249.622C294.593 242.198 281.529 238.235 268.166 238.235V240.235C281.134 240.235 293.81 244.08 304.593 251.285C315.375 258.489 323.779 268.729 328.741 280.71C333.704 292.691 335.002 305.874 332.472 318.592C329.942 331.311 323.698 342.994 314.528 352.163C305.359 361.333 293.676 367.577 280.957 370.107C276.846 370.925 272.686 371.343 268.533 371.366H268.166H268.165H267.8C259.354 371.319 250.955 369.64 243.075 366.376C231.094 361.414 220.854 353.01 213.65 342.228C206.445 331.445 202.6 318.769 202.6 305.801H201.601V305.522H266.883C267.435 305.522 267.883 305.074 267.883 304.522V175.59H533.173H534.173V174.59V1V0H533.173H266.911ZM2.90468 637.628C3.44241 491.92 121.456 373.906 267.165 373.368V504.501C231.953 504.763 198.24 518.865 173.321 543.783C148.403 568.702 134.301 602.415 134.039 637.628H2.90468ZM268.165 637.628H136.039C136.301 602.946 150.192 569.741 174.735 545.197C199.515 520.418 233.123 506.497 268.166 506.497C294.299 506.497 319.845 514.246 341.574 528.765C363.303 543.284 380.239 563.92 390.239 588.064C396.783 603.861 400.165 620.696 400.293 637.628H334.732H334.731H269.166H268.166H268.165ZM136.039 639.628H267.166V770.755C250.234 770.627 233.399 767.245 217.602 760.701C193.458 750.7 172.822 733.765 158.303 712.036C143.97 690.584 136.234 665.412 136.039 639.628ZM2.90468 639.628H134.039C134.234 665.808 142.087 691.367 156.64 713.147C171.379 735.205 192.327 752.397 216.836 762.549C232.878 769.193 249.972 772.627 267.165 772.755V903.888C121.456 903.35 3.44241 785.336 2.90468 639.628ZM269.166 373.368V504.501C295.346 504.696 320.905 512.549 342.685 527.102C364.743 541.841 381.935 562.789 392.087 587.298C398.732 603.34 402.165 620.435 402.293 637.628H402.297H466.862H467.862H467.863H468.863H533.426C532.888 491.92 414.875 373.906 269.166 373.368ZM269.166 903.89V772.755C277.578 772.693 286.005 771.839 294.334 770.182C308.223 767.419 321.509 762.491 333.731 755.642V903.89H269.166ZM269.166 770.755V639.628H334.731H334.732H400.293C400.231 647.91 399.389 656.206 397.758 664.406C392.66 690.036 380.076 713.58 361.597 732.059C343.118 750.538 319.575 763.122 293.944 768.22C285.743 769.851 277.448 770.693 269.166 770.755ZM402.297 903.89V639.628H466.862V903.89H402.297ZM468.863 903.89V639.628H533.428V903.89H468.863ZM242.31 368.224C245.418 369.512 248.606 370.56 251.844 371.366H2.90088V306.8H200.607C200.8 319.814 204.748 332.505 211.987 343.339C219.411 354.45 229.964 363.11 242.31 368.224ZM533.426 371.366H284.488C296.373 368.407 307.253 362.267 315.943 353.577C325.392 344.128 331.827 332.089 334.434 318.982C335.236 314.95 335.665 310.873 335.725 306.8H533.426V371.366ZM267.911 173.59V2H532.173V173.59H267.911ZM138.73 303.522H265.883V176.364L138.73 303.522ZM1.90283 982.22H268.165V984.22H267.877C267.899 984.302 267.91 984.388 267.91 984.475V1115.09C267.91 1115.09 267.91 1115.1 267.91 1115.1H268.421C268.42 1114.84 268.522 1114.58 268.714 1114.39L398.883 984.22H268.166V982.22H535.83V984.22H532.77C532.92 984.267 533.061 984.349 533.18 984.468C533.57 984.858 533.57 985.492 533.18 985.882L403.258 1115.8C402.867 1116.19 402.234 1116.19 401.844 1115.8C401.453 1115.41 401.453 1114.78 401.844 1114.39L531.766 984.468C531.884 984.349 532.026 984.267 532.176 984.22H401.009C401.03 984.302 401.042 984.388 401.042 984.475V1115.09C401.042 1115.65 400.594 1116.09 400.042 1116.09H269.421C269.333 1116.09 269.248 1116.08 269.166 1116.06V1116.35H267.166V1116.06C267.084 1116.08 266.999 1116.09 266.91 1116.09H136.289C135.885 1116.09 135.52 1115.85 135.365 1115.48C135.21 1115.1 135.296 1114.67 135.582 1114.39L265.751 984.22H1.90283V982.22ZM132.754 304.159H5.59927L132.754 177.004V304.159ZM335.731 903.89H400.297V661.706C400.117 662.737 399.924 663.767 399.72 664.796C394.544 690.815 381.77 714.714 363.011 733.473C354.815 741.669 345.638 748.722 335.731 754.499L335.731 903.89ZM271.835 1114.09H399.042V986.889L271.835 1114.09ZM265.91 1114.09H138.703L265.91 986.889V1114.09Z" fill="#9A804F"/>
</svg>
