<svg width="849" height="245" viewBox="0 0 849 245" fill="none" xmlns="http://www.w3.org/2000/svg">
<path d="M78.8666 56.87C76.4262 55.141 73.7504 53.771 70.921 52.8019C74.4588 51.2921 77.5187 48.8474 79.7724 45.7303C82.9786 41.0665 84.5999 35.4952 84.3967 29.8392C84.5509 24.7391 83.1786 19.7092 80.4557 15.3942C77.5511 11.1703 73.4181 7.94153 68.6168 6.14551C62.5248 3.86606 56.0494 2.78681 49.5474 2.96728L1 2.96728L1 112.696L51.0253 112.696C56.3491 112.756 61.6553 112.072 66.7893 110.662C71.3234 109.392 75.5588 107.231 79.248 104.305C82.7682 101.536 85.5698 97.9608 87.416 93.8805C89.3815 89.3014 90.3407 84.3537 90.2287 79.3719C90.3207 74.9778 89.3328 70.6283 87.3517 66.705C85.3707 62.7818 82.4571 59.4047 78.8666 56.87ZM26.0921 25.199L44.7483 25.199C49.3567 25.199 52.8051 26.1525 55.1093 28.0912C56.2524 29.0646 57.1574 30.2867 57.7551 31.664C58.3528 33.0412 58.6274 34.537 58.5577 36.0367C58.6231 38.1032 58.1054 40.1463 57.0639 41.9323C56.015 43.5974 54.4857 44.9051 52.678 45.6827C50.4761 46.6255 48.0962 47.0809 45.7018 47.0175H26.0921L26.0921 25.199ZM62.3239 84.9497C61.1762 86.77 59.5182 88.2125 57.5566 89.0972C55.2026 90.0983 52.6607 90.5807 50.1036 90.5115L26.0921 90.5115L26.0921 66.9132L49.3091 66.9132C51.9803 66.8545 54.6386 67.302 57.1434 68.2322C59.1752 69.0022 60.945 70.3364 62.2444 72.0778C63.4742 73.8763 64.1028 76.0181 64.0401 78.1959C64.1266 80.5651 63.5309 82.9092 62.3239 84.9497Z" stroke="#16315E" stroke-opacity="0.1" stroke-miterlimit="10"/>
<path d="M178.059 69.0585C178.116 72.7371 177.203 76.3658 175.412 79.5795C173.621 82.7933 171.015 85.4785 167.857 87.365C164.649 89.2364 160.987 90.1876 157.273 90.1142C153.688 90.1689 150.159 89.2164 147.087 87.365C144.057 85.5455 141.567 82.9509 139.873 79.8485C138.032 76.5526 137.085 72.8332 137.123 69.0585V2.91955L110.109 2.91955L110.109 70.5204C109.97 78.359 112.064 86.0753 116.147 92.768C120.23 99.3016 126.022 104.594 132.896 108.071C140.426 111.881 148.773 113.79 157.21 113.633C165.595 113.78 173.888 111.87 181.364 108.071C188.217 104.593 193.987 99.3067 198.05 92.7839C202.133 86.0912 204.227 78.3749 204.089 70.5363V2.91955L178.059 2.91955V69.0585Z" stroke="#16315E" stroke-opacity="0.1" stroke-miterlimit="10"/>
<path d="M228.704 25.3419L247.217 25.3419L247.217 90.2731H228.704V112.696H292.539V90.2731H273.867V25.3419L292.539 25.3419V2.91955L228.704 2.91955V25.3419Z" stroke="#16315E" stroke-opacity="0.1" stroke-miterlimit="10"/>
<path d="M344.598 2.91955L317.933 2.91955V112.696H393.527V89.1766H344.598V2.91955Z" stroke="#16315E" stroke-opacity="0.1" stroke-miterlimit="10"/>
<path d="M498.838 18.2864C493.909 13.3373 488.005 9.46793 481.5 6.92419C474.456 4.1895 466.952 2.83013 459.396 2.91962L413.439 2.91962V112.696H459.396C466.945 112.808 474.447 111.481 481.5 108.786C487.993 106.248 493.894 102.402 498.838 97.4878C503.764 92.5173 507.582 86.5599 510.041 80.0075C512.727 72.902 514.059 65.3559 513.966 57.7599C514.053 50.2213 512.722 42.7334 510.041 35.6871C507.544 29.1776 503.73 23.2536 498.838 18.2864ZM484.949 70.7271C483.73 74.3749 481.784 77.7375 479.228 80.6114C476.764 83.3364 473.746 85.5036 470.376 86.9678C466.667 88.5044 462.679 89.2564 458.665 89.1767H440.104V26.4385L458.665 26.4385C462.707 26.3671 466.719 27.1468 470.44 28.7268C473.813 30.1841 476.833 32.3523 479.291 35.0833C481.843 37.96 483.789 41.3218 485.012 44.9676C486.423 49.1047 487.117 53.4527 487.062 57.8235C487.093 62.1873 486.378 66.5243 484.949 70.6476V70.7271Z" stroke="#16315E" stroke-opacity="0.1" stroke-miterlimit="10"/>
<path d="M529.968 25.3419L548.466 25.3419V90.2731H529.968V112.696L593.787 112.696V90.2731L575.131 90.2731V25.3419L593.787 25.3419V2.91955L529.968 2.91955V25.3419Z" stroke="#16315E" stroke-opacity="0.1" stroke-miterlimit="10"/>
<path d="M692.264 30.0457C692.264 34.3363 692.264 38.3091 692.344 41.9641C692.423 45.619 692.487 49.0356 692.646 52.1662C692.805 55.2967 693.011 58.3796 693.281 61.4148C693.552 64.45 693.854 67.4693 694.155 70.6476C694.235 71.3945 694.33 72.2367 694.41 72.9041L643.002 2.91955L619.165 2.91955V112.696H645.068V76.0029C645.068 73.3967 645.068 71.0131 644.988 68.8678C644.909 66.7225 644.861 64.5613 644.75 62.3524C644.639 60.1435 644.464 57.7122 644.21 54.9948C643.955 52.2774 643.638 49.1628 643.272 45.6508C643.272 45.1741 643.161 44.6497 643.113 44.1412L693.965 112.696H718.119V2.91955L692.264 2.91955V30.0457Z" stroke="#16315E" stroke-opacity="0.1" stroke-miterlimit="10"/>
<path d="M847.998 61.5738C847.998 59.6986 847.87 57.7599 847.759 55.7735C847.706 54.1763 847.552 52.584 847.298 51.0062L795.557 51.0062V71.9189H822.302C822.16 74.2441 821.543 76.5155 820.49 78.5932C819.26 81.0277 817.552 83.1896 815.468 84.9497C813.259 86.7998 810.734 88.237 808.015 89.1926C805.077 90.2582 801.972 90.7962 798.846 90.7817C792.349 90.8567 785.98 88.9648 780.578 85.3545C775.175 81.7441 770.99 76.5842 768.574 70.5523C766.888 66.3667 766.04 61.8908 766.079 57.3785C766.065 52.8871 766.901 48.4335 768.542 44.2525C770.775 38.3145 774.782 33.2084 780.02 29.6287C785.257 26.049 791.47 24.1694 797.813 24.2455C801.218 24.2282 804.605 24.732 807.857 25.7393C810.953 26.7239 813.924 28.0679 816.708 29.7439C819.621 31.5278 822.328 33.6276 824.781 36.005L840.942 18.922C837.749 15.2238 833.995 12.0493 829.818 9.51444C825.247 6.71773 820.318 4.55276 815.167 3.07853C809.576 1.47984 803.786 0.68788 797.972 0.726637C789.859 0.644109 781.802 2.07771 774.215 4.95368C767.185 7.62687 760.761 11.6791 755.32 16.872C750.025 21.9476 745.832 28.0605 743.005 34.829C740.074 41.9702 738.609 49.628 738.698 57.3468C738.622 65.0886 740.002 72.7757 742.766 80.0075C745.382 86.7944 749.388 92.9596 754.526 98.1075C759.756 103.304 766.005 107.362 772.88 110.026C780.483 112.946 788.574 114.386 796.717 114.269C803.677 114.329 810.588 113.106 817.105 110.662C823.142 108.408 828.681 104.996 833.409 100.618C838.022 96.3314 841.682 91.1231 844.152 85.331C846.758 79.1809 848.067 72.5594 847.998 65.8803C847.998 64.8633 847.998 63.449 847.998 61.5738Z" stroke="#16315E" stroke-opacity="0.1" stroke-miterlimit="10"/>
<path d="M1.22266 132.746L1.22266 242.348H27.8403L27.8403 200.395H70.2696V178.147H27.8403L27.8403 156.233H76.6897V132.746H1.22266Z" fill="#5FD1C1" fill-opacity="0.04"/>
<path d="M164.997 198.822C165.054 202.587 164.082 206.296 162.184 209.548C160.389 212.649 157.828 215.237 154.747 217.065C151.54 218.924 147.885 219.869 144.179 219.798C140.601 219.851 137.079 218.905 134.009 217.065C130.992 215.263 128.504 212.698 126.794 209.628C125.001 206.34 124.087 202.646 124.141 198.901L124.141 132.746H97.2051L97.2051 200.236C97.0617 208.073 99.1506 215.789 103.228 222.484C107.299 228.995 113.068 234.275 119.914 237.755C127.429 241.553 135.76 243.457 144.179 243.301C152.547 243.447 160.823 241.542 168.286 237.755C175.132 234.275 180.9 228.995 184.972 222.484C189.049 215.789 191.138 208.073 190.995 200.236V132.746H164.997V198.822Z" fill="#5FD1C1" fill-opacity="0.04"/>
<path d="M208.999 156.233H241.576L241.576 242.348H268.194V156.233H301.533V132.746L208.999 132.746V156.233Z" fill="#5FD1C1" fill-opacity="0.04"/>
<path d="M387.345 198.822C387.403 202.589 386.425 206.299 384.517 209.548C382.721 212.649 380.161 215.237 377.08 217.065C373.868 218.927 370.208 219.872 366.496 219.798C362.918 219.849 359.397 218.902 356.326 217.065C353.3 215.245 350.815 212.65 349.127 209.548C347.321 206.265 346.401 202.568 346.458 198.822V132.746H319.443V200.236C319.304 208.075 321.398 215.791 325.481 222.484C329.542 228.998 335.306 234.279 342.151 237.755C349.696 241.4 357.966 243.293 366.345 243.293C374.724 243.293 382.995 241.4 390.54 237.755C397.378 234.27 403.141 228.992 407.209 222.484C411.287 215.789 413.376 208.073 413.232 200.236V132.746H387.345V198.822Z" fill="#5FD1C1" fill-opacity="0.04"/>
<path d="M508.531 199.14C514.057 196.122 518.655 191.655 521.832 186.22C525.114 180.592 526.795 174.174 526.695 167.659C526.793 161.346 525.108 155.132 521.832 149.734C518.585 144.448 513.959 140.147 508.452 137.291C502.575 134.207 496.019 132.645 489.383 132.746L440.12 132.746V242.395H465.546V203.827H479.244L500.935 242.348H531.319L506.688 200.093C507.308 199.775 507.927 199.473 508.531 199.14ZM465.466 154.978H484.726C487.666 154.89 490.587 155.482 493.26 156.71C495.518 157.768 497.401 159.486 498.663 161.636C499.947 163.901 500.595 166.471 500.538 169.074C500.604 171.669 500.06 174.243 498.949 176.59C497.901 178.721 496.241 180.492 494.182 181.675C492.017 182.912 489.555 183.533 487.062 183.471H465.45L465.466 154.978Z" fill="#5FD1C1" fill-opacity="0.04"/>
<path d="M575.862 197.407H619.388V175.811L575.862 175.811V155.455L626.428 155.455V132.746L550.023 132.746V242.348L628.001 242.348V219.655H575.862V197.407Z" fill="#5FD1C1" fill-opacity="0.04"/>
<path d="M727.495 195.453C725.632 191.705 722.962 188.417 719.677 185.823C716.012 182.956 711.948 180.638 707.616 178.942C702.574 176.938 697.355 175.416 692.026 174.397C689.596 174.017 687.192 173.486 684.828 172.808C682.708 172.204 680.661 171.368 678.725 170.313C677.123 169.456 675.691 168.314 674.498 166.944C673.436 165.671 672.872 164.057 672.909 162.399C672.838 160.485 673.51 158.617 674.784 157.187C676.215 155.651 678.023 154.516 680.029 153.897C682.63 153.061 685.353 152.664 688.085 152.722C691.092 152.721 694.08 153.198 696.937 154.136C699.833 155.087 702.574 156.458 705.073 158.204C707.76 160.099 710.162 162.368 712.208 164.942L728.671 149.241C723.407 141.047 715.285 135.1 705.883 132.556C699.845 130.893 693.601 130.091 687.338 130.172C682.025 130.153 676.743 130.974 671.686 132.603C666.899 134.099 662.417 136.434 658.448 139.5C654.714 142.382 651.619 146.007 649.359 150.147C647.111 154.303 645.957 158.962 646.006 163.686C645.944 167.935 646.688 172.157 648.199 176.129C649.676 179.859 651.942 183.225 654.841 185.998C658.118 189.064 661.911 191.528 666.044 193.276C671.139 195.457 676.434 197.134 681.856 198.281C684.049 198.71 686.178 199.203 688.213 199.775C690.234 200.328 692.219 201.008 694.156 201.809C695.863 202.499 697.493 203.367 699.018 204.399C700.292 205.267 701.373 206.387 702.197 207.689C702.985 208.956 703.393 210.424 703.373 211.916C703.425 213.837 702.756 215.708 701.497 217.16C700.034 218.678 698.19 219.775 696.158 220.338C693.677 221.097 691.093 221.467 688.499 221.435C682.846 221.429 677.262 220.199 672.131 217.827C666.834 215.433 661.59 210.735 656.398 203.732L640.269 222.055C643.738 226.475 647.796 230.399 652.33 233.719C656.994 237.098 662.21 239.641 667.745 241.235C674.084 243.038 680.652 243.911 687.243 243.825C694.855 244.028 702.427 242.664 709.491 239.821C715.591 237.314 720.858 233.132 724.683 227.759C728.517 222.055 730.463 215.29 730.245 208.42C730.347 203.943 729.406 199.503 727.495 195.453Z" fill="#5FD1C1" fill-opacity="0.04"/>
<path d="M1.22266 132.746L1.22266 242.348H27.8403L27.8403 200.395H70.2696V178.147H27.8403L27.8403 156.233H76.6897V132.746H1.22266Z" stroke="#84CFC4" stroke-opacity="0.4" stroke-miterlimit="10"/>
<path d="M164.997 198.822C165.054 202.587 164.082 206.296 162.184 209.548C160.389 212.649 157.828 215.237 154.747 217.065C151.54 218.924 147.885 219.869 144.179 219.798C140.601 219.851 137.079 218.905 134.009 217.065C130.992 215.263 128.504 212.698 126.794 209.628C125.001 206.34 124.087 202.646 124.141 198.901L124.141 132.746H97.2051L97.2051 200.236C97.0617 208.073 99.1506 215.789 103.228 222.484C107.299 228.995 113.068 234.275 119.914 237.755C127.429 241.553 135.76 243.457 144.179 243.301C152.547 243.447 160.823 241.542 168.286 237.755C175.132 234.275 180.9 228.995 184.972 222.484C189.049 215.789 191.138 208.073 190.995 200.236V132.746H164.997V198.822Z" stroke="#84CFC4" stroke-opacity="0.4" stroke-miterlimit="10"/>
<path d="M208.999 156.233H241.576L241.576 242.348H268.194V156.233H301.533V132.746L208.999 132.746V156.233Z" stroke="#84CFC4" stroke-opacity="0.4" stroke-miterlimit="10"/>
<path d="M387.345 198.822C387.403 202.589 386.425 206.299 384.517 209.548C382.721 212.649 380.161 215.237 377.08 217.065C373.868 218.927 370.208 219.872 366.496 219.798C362.918 219.849 359.397 218.902 356.326 217.065C353.3 215.245 350.815 212.65 349.127 209.548C347.321 206.265 346.401 202.568 346.458 198.822V132.746H319.443V200.236C319.304 208.075 321.398 215.791 325.481 222.484C329.542 228.998 335.306 234.279 342.151 237.755C349.696 241.4 357.966 243.293 366.345 243.293C374.724 243.293 382.995 241.4 390.54 237.755C397.378 234.27 403.141 228.992 407.209 222.484C411.287 215.789 413.376 208.073 413.232 200.236V132.746H387.345V198.822Z" stroke="#84CFC4" stroke-opacity="0.4" stroke-miterlimit="10"/>
<path d="M508.531 199.14C514.057 196.122 518.655 191.655 521.832 186.22C525.114 180.592 526.795 174.174 526.695 167.659C526.793 161.346 525.108 155.132 521.832 149.734C518.585 144.448 513.959 140.147 508.452 137.291C502.575 134.207 496.019 132.645 489.383 132.746L440.12 132.746V242.395H465.546V203.827H479.244L500.935 242.348H531.319L506.688 200.093C507.308 199.775 507.927 199.473 508.531 199.14ZM465.466 154.978H484.726C487.666 154.89 490.587 155.482 493.26 156.71C495.518 157.768 497.401 159.486 498.663 161.636C499.947 163.901 500.595 166.471 500.538 169.074C500.604 171.669 500.06 174.243 498.949 176.59C497.901 178.721 496.241 180.492 494.182 181.675C492.017 182.912 489.555 183.533 487.062 183.471H465.45L465.466 154.978Z" stroke="#84CFC4" stroke-opacity="0.4" stroke-miterlimit="10"/>
<path d="M575.862 197.407H619.388V175.811L575.862 175.811V155.455L626.428 155.455V132.746L550.023 132.746V242.348L628.001 242.348V219.655H575.862V197.407Z" stroke="#84CFC4" stroke-opacity="0.4" stroke-miterlimit="10"/>
<path d="M727.495 195.453C725.632 191.705 722.962 188.417 719.677 185.823C716.012 182.956 711.948 180.638 707.616 178.942C702.574 176.938 697.355 175.416 692.026 174.397C689.596 174.017 687.192 173.486 684.828 172.808C682.708 172.204 680.661 171.368 678.725 170.313C677.123 169.456 675.691 168.314 674.498 166.944C673.436 165.671 672.872 164.057 672.909 162.399C672.838 160.485 673.51 158.617 674.784 157.187C676.215 155.651 678.023 154.516 680.029 153.897C682.63 153.061 685.353 152.664 688.085 152.722C691.092 152.721 694.08 153.198 696.937 154.136C699.833 155.087 702.574 156.458 705.073 158.204C707.76 160.099 710.162 162.368 712.208 164.942L728.671 149.241C723.407 141.047 715.285 135.1 705.883 132.556C699.845 130.893 693.601 130.091 687.338 130.172C682.025 130.153 676.743 130.974 671.686 132.603C666.899 134.099 662.417 136.434 658.448 139.5C654.714 142.382 651.619 146.007 649.359 150.147C647.111 154.303 645.957 158.962 646.006 163.686C645.944 167.935 646.688 172.157 648.199 176.129C649.676 179.859 651.942 183.225 654.841 185.998C658.118 189.064 661.911 191.528 666.044 193.276C671.139 195.457 676.434 197.134 681.856 198.281C684.049 198.71 686.178 199.203 688.213 199.775C690.234 200.328 692.219 201.008 694.156 201.809C695.863 202.499 697.493 203.367 699.018 204.399C700.292 205.267 701.373 206.387 702.197 207.689C702.985 208.956 703.393 210.424 703.373 211.916C703.425 213.837 702.756 215.708 701.497 217.16C700.034 218.678 698.19 219.775 696.158 220.338C693.677 221.097 691.093 221.467 688.499 221.435C682.846 221.429 677.262 220.199 672.131 217.827C666.834 215.433 661.59 210.735 656.398 203.732L640.269 222.055C643.738 226.475 647.796 230.399 652.33 233.719C656.994 237.098 662.21 239.641 667.745 241.235C674.084 243.038 680.652 243.911 687.243 243.825C694.855 244.028 702.427 242.664 709.491 239.821C715.591 237.314 720.858 233.132 724.683 227.759C728.517 222.055 730.463 215.29 730.245 208.42C730.347 203.943 729.406 199.503 727.495 195.453Z" stroke="#84CFC4" stroke-opacity="0.4" stroke-miterlimit="10"/>
</svg>
