<svg width="282" height="88" viewBox="0 0 282 88" fill="none" xmlns="http://www.w3.org/2000/svg">
<path d="M148.977 53.4654C148.664 54.0339 148.343 54.5738 147.994 55.0951C146.223 57.7261 143.858 59.9041 141.09 61.4534C138.969 62.6448 136.664 63.4757 134.271 63.9121C132.768 64.1998 131.235 64.2989 129.707 64.2072C126.954 64.0376 124.326 62.9961 122.205 61.2336C120.083 59.4711 118.577 57.079 117.905 54.4037C117.819 54.0663 117.776 53.7152 117.709 53.3769C117.523 52.4622 117.5 51.5417 117.533 50.6231C117.57 49.7095 117.709 48.8028 117.949 47.9204C118.232 46.8483 118.652 45.817 119.199 44.8519C119.495 44.3495 119.821 43.8651 120.174 43.4013C120.47 43.0024 120.791 42.6233 121.136 42.2663C121.966 41.4075 122.908 40.6645 123.936 40.0574C124.058 39.9924 124.205 39.9452 124.316 39.8764C124.467 39.778 124.619 39.6797 124.779 39.603C125.275 39.3547 125.788 39.1427 126.314 38.9686C126.734 38.8243 127.161 38.7012 127.593 38.5998C127.882 38.5349 128.173 38.4749 128.466 38.4287C129.375 38.2878 130.296 38.24 131.214 38.2861C133.574 38.3962 135.837 38.9027 137.98 39.9128C140.269 41.0011 142.378 42.4351 144.232 44.1644C146.369 46.1314 148.166 48.3846 149.733 50.8257C149.774 50.8906 149.816 50.9545 149.858 51.0224C149.864 51.0303 149.877 51.0332 149.893 51.043C150.142 50.3906 150.353 49.7239 150.523 49.0465C150.818 47.8843 151.004 46.6975 151.08 45.501C151.203 43.6137 151.061 41.7184 150.658 39.8705C150.653 39.8278 150.634 39.7881 150.603 39.7586C150.571 39.729 150.531 39.7115 150.488 39.7092C147.447 39.2005 144.449 38.4617 141.519 37.4993C140.567 37.1875 139.625 36.8482 138.701 36.4636C138.329 36.3082 137.958 36.1509 137.591 35.9857C137.193 35.8057 136.793 35.6286 136.406 35.4251C135.999 35.2107 135.594 34.9913 135.192 34.7632C133.891 34.0267 132.676 33.1476 131.569 32.1421C129.807 30.539 128.415 28.6655 127.492 26.4614C127.313 26.0346 127.163 25.594 127.017 25.1524C126.562 23.7904 126.348 22.3591 126.386 20.9234C126.396 20.4311 126.449 19.9408 126.545 19.4579C126.691 18.6818 126.942 17.9291 127.291 17.2205C127.459 16.894 127.646 16.5763 127.842 16.2616C128.809 14.731 130.214 13.5263 131.874 12.8036C132.309 12.6109 132.758 12.4508 133.216 12.3246C133.749 12.1724 134.296 12.0736 134.848 12.0296C135.446 11.9832 136.046 11.9914 136.642 12.0541C137.084 12.1043 137.522 12.1712 137.96 12.244C138.811 12.4002 139.646 12.6353 140.454 12.9462C140.862 13.0884 141.258 13.2596 141.641 13.4586C142.193 13.7536 142.751 14.0487 143.273 14.3988C145.163 15.6656 146.699 17.2844 147.987 19.1491C148.826 20.3738 149.553 21.6714 150.159 23.0261C150.311 23.3614 150.454 23.7037 150.595 24.041C150.693 24.2722 150.769 24.5151 150.854 24.7531C150.981 25.1091 151.154 25.4484 151.285 25.8035C151.789 27.1548 152.114 28.5573 152.367 29.9696C152.597 31.2304 152.75 32.5021 152.853 33.7797C152.916 34.5665 152.952 35.3533 152.975 36.1401C152.999 36.9023 152.999 37.6645 152.986 38.4257C152.977 38.9843 152.952 39.543 152.925 40.0977C152.918 40.1257 152.918 40.1548 152.923 40.1831C152.928 40.2115 152.939 40.2384 152.955 40.2623C152.971 40.2862 152.992 40.3066 153.016 40.3221C153.04 40.3376 153.068 40.3479 153.096 40.3524C154.594 40.8442 156.066 41.4038 157.442 42.1837C158.094 42.5535 158.74 42.9361 159.36 43.3639C160.819 44.3621 162.091 45.5472 163.083 47.0215C163.83 48.1139 164.296 49.3747 164.437 50.691C164.66 52.7897 164.061 54.6436 162.726 56.2625C161.954 57.1978 161.054 57.9787 159.936 58.4872C158.076 59.3369 156.231 59.2415 154.4 58.3937C153.127 57.8036 152.04 56.945 151.056 55.9615C150.525 55.4327 150.029 54.8689 149.573 54.2738C149.376 54.0191 149.187 53.7506 148.977 53.4654Z" fill="#D1E7BE"/>
<path d="M141.565 72.2719C141.565 71.0832 141.565 69.8938 141.565 68.7038C141.565 68.6054 141.571 68.5454 141.701 68.5464C143.269 68.5464 144.837 68.5405 146.404 68.5562C146.646 68.5606 146.885 68.6127 147.106 68.7097C147.327 68.8067 147.527 68.9467 147.695 69.1214C147.862 69.2962 147.992 69.5023 148.079 69.7279C148.166 69.9534 148.208 70.194 148.201 70.4357C148.203 70.6855 148.152 70.9328 148.052 71.1617C147.952 71.3906 147.805 71.5959 147.621 71.7644C147.533 71.847 147.551 71.8746 147.638 71.9355C148.013 72.1938 148.299 72.5609 148.459 72.9873C148.618 73.4137 148.643 73.8788 148.529 74.3197C148.416 74.7606 148.17 75.156 147.825 75.4526C147.479 75.7491 147.051 75.9324 146.598 75.9777C146.125 76.021 145.645 75.9876 145.168 75.9895C144.971 75.9895 144.784 75.9836 144.593 75.9895C144.485 75.9895 144.439 75.9699 144.441 75.8479C144.449 75.4427 144.447 75.0365 144.441 74.6313C144.441 74.5251 144.47 74.4897 144.58 74.4907C144.881 74.4907 145.182 74.5044 145.483 74.4789C145.706 74.4616 145.915 74.3611 146.068 74.1971C146.221 74.0332 146.306 73.8178 146.308 73.5937C146.306 73.3639 146.216 73.1436 146.057 72.9776C145.898 72.8115 145.682 72.7122 145.452 72.6997C145.157 72.6899 144.871 72.6928 144.581 72.6997C144.474 72.6997 144.439 72.6732 144.441 72.563C144.447 72.1624 144.447 71.7624 144.441 71.3631C144.441 71.251 144.465 71.2077 144.585 71.2136C144.809 71.2225 145.034 71.2136 145.259 71.2136C145.338 71.2148 145.417 71.2003 145.491 71.1708C145.565 71.1413 145.632 71.0976 145.689 71.042C145.746 70.9864 145.792 70.9202 145.823 70.847C145.854 70.7738 145.87 70.6952 145.871 70.6157C145.87 70.5375 145.853 70.4603 145.822 70.3887C145.791 70.317 145.746 70.2522 145.689 70.1981C145.633 70.1441 145.566 70.1017 145.493 70.0736C145.42 70.0455 145.343 70.0322 145.264 70.0344C144.826 70.0344 144.387 70.0393 143.949 70.0344C143.813 70.0344 143.776 70.0649 143.777 70.2036C143.777 72.0673 143.777 73.9311 143.784 75.7948C143.784 75.9492 143.756 75.9915 143.588 75.9915C142.974 75.9807 142.359 75.9826 141.745 75.9915C141.601 75.9915 141.549 75.962 141.555 75.8066C141.568 74.6323 141.565 73.4521 141.565 72.2719Z" fill="#D1E7BE"/>
<path d="M140.098 73.0587C140.098 73.9802 140.098 74.9008 140.098 75.8223C140.098 75.9541 140.061 75.9846 139.934 75.9846C138.388 75.9846 136.841 75.9846 135.295 75.9846C134.815 75.9819 134.356 75.7919 134.015 75.4553C133.674 75.1186 133.478 74.662 133.469 74.1828C133.463 73.7717 133.462 73.3606 133.469 72.9495C133.478 72.476 133.67 72.0242 134.005 71.6889C134.339 71.3537 134.791 71.1608 135.264 71.1507C135.873 71.1419 136.482 71.1507 137.091 71.1507C137.198 71.1507 137.23 71.1792 137.229 71.2884C137.222 71.6943 137.222 72.1001 137.229 72.506C137.229 72.6191 137.191 72.6427 137.088 72.6397C136.813 72.6338 136.54 72.6397 136.265 72.6397C135.909 72.6397 135.691 72.862 135.69 73.2131C135.69 73.459 135.69 73.7049 135.69 73.9527C135.686 74.0242 135.698 74.0956 135.723 74.1626C135.748 74.2296 135.787 74.2906 135.837 74.3419C135.887 74.3932 135.947 74.4337 136.013 74.4608C136.079 74.4879 136.151 74.5011 136.222 74.4995C136.737 74.5054 137.253 74.4995 137.768 74.4995C137.867 74.4995 137.887 74.4631 137.887 74.3736C137.887 73.1128 137.887 71.851 137.887 70.5901C137.887 70.2665 137.629 70.0413 137.275 70.0403C136.184 70.0403 135.093 70.0403 134.002 70.0403C133.837 70.0403 133.806 69.9951 133.806 69.8436C133.817 69.4601 133.812 69.0765 133.806 68.6929C133.806 68.5946 133.821 68.5513 133.936 68.5513C135.406 68.5513 136.875 68.5513 138.344 68.5562C139.273 68.5621 140.089 69.402 140.091 70.3265C140.1 71.2402 140.098 72.1509 140.098 73.0587Z" fill="#D1E7BE"/>
<path d="M124.174 73.0243C124.174 73.9517 124.174 74.8782 124.174 75.8046C124.174 75.9463 124.145 75.9885 123.996 75.9876C122.493 75.9817 120.991 75.9718 119.489 75.9876C118.908 75.9954 118.428 75.8213 118.031 75.4043C117.712 75.0719 117.533 74.6297 117.532 74.1691C117.507 73.6925 117.514 73.2148 117.551 72.7391C117.642 71.8962 118.406 71.1753 119.257 71.1527C119.892 71.136 120.528 71.1527 121.165 71.1448C121.257 71.1448 121.287 71.1723 121.286 71.2648C121.282 71.6818 121.282 72.0985 121.286 72.5148C121.286 72.6132 121.252 72.6348 121.162 72.6328C120.882 72.6279 120.603 72.6328 120.323 72.6328C119.973 72.6328 119.753 72.859 119.751 73.2111C119.751 73.457 119.751 73.7029 119.751 73.9507C119.749 74.0208 119.761 74.0906 119.786 74.156C119.812 74.2214 119.85 74.2811 119.898 74.3316C119.947 74.3821 120.005 74.4223 120.07 74.45C120.134 74.4776 120.203 74.4921 120.274 74.4926C120.789 74.4985 121.304 74.4926 121.82 74.4926C121.925 74.4926 121.959 74.4622 121.959 74.352C121.959 73.1187 121.959 71.8854 121.959 70.6511C121.965 70.5684 121.952 70.4856 121.923 70.4081C121.893 70.3306 121.848 70.2604 121.789 70.202C121.73 70.1436 121.66 70.0984 121.582 70.0695C121.504 70.0406 121.421 70.0287 121.339 70.0344C120.257 70.0344 119.168 70.0344 118.082 70.0344C117.947 70.0344 117.906 70.0039 117.909 69.8653C117.92 69.4719 117.916 69.0785 117.909 68.6802C117.909 68.5739 117.937 68.5434 118.046 68.5434C119.499 68.5434 120.952 68.5434 122.405 68.5484C123.354 68.5484 124.175 69.3893 124.175 70.3364C124.178 71.2333 124.178 72.1293 124.174 73.0243Z" fill="#D1E7BE"/>
<path d="M156.335 72.2808C156.335 73.4541 156.335 74.6274 156.335 75.7997C156.335 75.9561 156.289 75.9876 156.138 75.9866C154.614 75.9866 153.089 75.9866 151.567 75.9866C151.322 75.992 151.078 75.9481 150.85 75.8576C150.622 75.7671 150.415 75.6317 150.24 75.4596C150.065 75.2874 149.927 75.082 149.833 74.8554C149.74 74.6288 149.692 74.3858 149.694 74.1405C149.688 72.326 149.694 70.5114 149.694 68.6969C149.694 68.5808 149.727 68.5513 149.84 68.5523C150.476 68.5582 151.111 68.5592 151.748 68.5523C151.885 68.5523 151.918 68.5877 151.917 68.7234C151.912 70.4337 151.917 72.144 151.917 73.8544C151.917 74.2714 152.123 74.4818 152.539 74.4828C153.011 74.4828 153.483 74.4828 153.954 74.4828C154.087 74.4828 154.125 74.4474 154.124 74.3087C154.119 72.4509 154.124 70.5921 154.117 68.7342C154.117 68.5838 154.155 68.5464 154.304 68.5484C154.928 68.5572 155.554 68.5562 156.178 68.5484C156.308 68.5484 156.342 68.5828 156.341 68.7106C156.329 69.9017 156.335 71.0917 156.335 72.2808Z" fill="#D1E7BE"/>
<path d="M125.642 72.2512C125.642 71.071 125.642 69.8908 125.642 68.7106C125.642 68.5847 125.67 68.5454 125.802 68.5464C127.36 68.5513 128.917 68.5464 130.474 68.5464C130.954 68.5533 131.411 68.7475 131.749 69.0873C132.087 69.4272 132.278 69.8857 132.282 70.3649C132.282 72.1745 132.282 73.9842 132.282 75.7938C132.282 75.9305 132.258 75.9826 132.104 75.9797C131.485 75.9699 130.865 75.9699 130.245 75.9797C130.102 75.9797 130.063 75.9453 130.063 75.7987C130.069 74.0983 130.063 72.3988 130.063 70.6993C130.063 70.2351 129.856 70.0266 129.395 70.0256C128.95 70.0256 128.509 70.0325 128.062 70.0256C127.905 70.0256 127.851 70.0502 127.852 70.2223C127.86 72.0811 127.852 73.9399 127.861 75.7987C127.861 75.9522 127.819 75.9876 127.672 75.9846C127.047 75.9748 126.422 75.9728 125.797 75.9787C125.666 75.9787 125.633 75.9403 125.634 75.8125C125.643 74.6323 125.642 73.4413 125.642 72.2512Z" fill="#D1E7BE"/>
<path d="M164.449 72.2719C164.449 73.4521 164.449 74.6392 164.449 75.8223C164.449 75.9512 164.416 75.9885 164.286 75.9866C163.645 75.98 163.004 75.98 162.363 75.9866C162.239 75.9866 162.207 75.9522 162.207 75.8302C162.211 73.4514 162.211 71.073 162.207 68.6949C162.207 68.5769 162.244 68.5493 162.356 68.5503C163.002 68.5556 163.649 68.5556 164.295 68.5503C164.419 68.5503 164.45 68.5808 164.449 68.7038C164.447 69.8928 164.449 71.0828 164.449 72.2719Z" fill="#D1E7BE"/>
<path d="M161.099 68.5867C160.517 69.3735 159.933 70.1721 159.345 70.9638C159.312 71.0013 159.29 71.048 159.283 71.0979C159.275 71.1478 159.283 71.1987 159.305 71.2441C159.891 72.764 160.473 74.2848 161.052 75.8066C161.12 75.9836 161.12 75.9836 160.933 75.9836C160.253 75.9836 159.573 75.9836 158.894 75.9836C158.847 75.9911 158.799 75.9804 158.759 75.9537C158.72 75.9271 158.692 75.8864 158.681 75.84C158.157 74.4494 157.628 73.0607 157.095 71.6739C157.077 71.638 157.071 71.5977 157.076 71.558C157.081 71.5183 157.097 71.481 157.124 71.4507C157.823 70.5177 158.52 69.582 159.215 68.6438C159.23 68.6146 159.252 68.5901 159.28 68.5727C159.307 68.5554 159.339 68.5459 159.372 68.5454C159.93 68.5454 160.49 68.5454 161.049 68.5454C161.071 68.5533 161.093 68.5523 161.099 68.5867Z" fill="#D1E7BE"/>
</svg>
