<svg width="11" height="13" viewBox="0 0 11 13" fill="none" xmlns="http://www.w3.org/2000/svg">
<path d="M0.666504 1.41358C0.666504 0.766139 0.666504 0.442417 0.801497 0.26397C0.9191 0.10851 1.09885 0.0123103 1.29344 0.000692043C1.51679 -0.0126442 1.78615 0.166924 2.32485 0.52606L9.33522 5.19964C9.78035 5.49639 10.0029 5.64477 10.0805 5.83178C10.1483 5.99529 10.1483 6.17904 10.0805 6.34254C10.0029 6.52956 9.78035 6.67793 9.33522 6.97468L2.32485 11.6483C1.78615 12.0074 1.51679 12.187 1.29344 12.1736C1.09885 12.162 0.9191 12.0658 0.801497 11.9104C0.666504 11.7319 0.666504 11.4082 0.666504 10.7607V1.41358Z" fill="#C09C59"/>
</svg>
