<svg width="334" height="44" viewBox="0 0 334 44" fill="none" xmlns="http://www.w3.org/2000/svg">
<path fill-rule="evenodd" clip-rule="evenodd" d="M40.0762 11.9525L40.0761 11.9523L39.9055 11.527C39.6859 10.9809 39.467 10.4348 39.248 9.88871L39.2476 9.88774L39.2473 9.88678L39.2469 9.88582C38.809 8.79377 38.3712 7.70173 37.9281 6.60968V6.55718H37.8756C35.3736 5.41259 32.8102 4.31018 30.2943 3.22818L30.2942 3.22814L30.2934 3.22781C29.7068 2.97552 29.1227 2.72434 28.5426 2.474C26.7227 1.70986 24.8444 0.910708 23.007 0.11157H22.972C22.8668 0.0474876 22.7477 0.00979025 22.6248 0.00166507C22.5019 -0.00646012 22.3789 0.0152355 22.2662 0.064913C19.5259 1.16103 16.7341 2.32925 14.0359 3.45827L13.5165 3.67562L12.6879 4.02075C10.9765 4.7337 9.26947 5.44484 7.56673 6.14302C7.05501 6.29421 6.88528 6.76424 6.73398 7.18325L6.73257 7.18715C6.69757 7.28631 6.66257 7.37965 6.62174 7.46715C5.78291 9.46519 4.96156 11.4632 4.14021 13.4613L4.13686 13.4694L3.85121 14.1597C2.86162 16.5515 1.84503 19.0085 0.823611 21.4025C0.731946 21.5244 0.673571 21.6681 0.654142 21.8195C0.634714 21.9708 0.654933 22.1246 0.712815 22.2658C1.22777 23.5215 1.73921 24.7808 2.24987 26.0382L2.25003 26.0385L2.25021 26.039L2.25039 26.0394L2.69606 27.1364C4.04934 30.4788 5.45512 33.932 6.88423 37.3036L6.91923 37.3561C7.3185 37.6869 7.78093 37.933 8.27836 38.0794L8.29785 38.0868C8.53724 38.178 8.79231 38.2751 9.03082 38.3944C10.9324 39.176 12.8573 40.0101 14.7181 40.8209C17.1797 41.8942 19.7288 43.0025 22.2662 44H22.3187H22.377C25.2466 42.8992 28.126 41.7005 30.9389 40.5294L31.71 40.2085C33.5591 39.4327 35.4724 38.6335 37.3507 37.8752C37.5652 37.7659 37.7516 37.6084 37.8953 37.4151C38.0389 37.2219 38.136 36.998 38.1789 36.7611L38.1731 36.6094C39.2697 34.0545 40.3605 31.4471 41.4105 28.9272C42.2213 26.9848 43.0321 25.0423 43.8487 23.0941C43.9962 22.9052 44.0942 22.6826 44.1339 22.4463C44.1737 22.21 44.1538 21.9675 44.0762 21.7408C42.7018 18.5002 41.3701 15.1793 40.0762 11.9525ZM42.6996 20.4692C41.3755 19.1975 39.9872 17.7801 38.2956 15.9602C38.5173 15.8727 38.7389 15.7735 38.9489 15.6743C39.442 15.421 39.9627 15.2253 40.5005 15.091C41.2297 16.8176 41.988 18.6376 42.6996 20.4692ZM38.0331 8.84959L38.6164 10.267L38.7392 10.5678C39.2437 11.804 39.7633 13.0771 40.238 14.3502C39.9639 14.4552 39.6897 14.5661 39.4272 14.6827C38.9798 14.8894 38.5177 15.0629 38.0448 15.2019C37.9923 13.4053 37.9689 11.1537 38.0098 8.84959H38.0331ZM37.2515 10.5995V15.1202C36.429 14.6069 35.6124 14.0586 34.8249 13.5278C34.0374 12.9969 33.3433 12.5361 32.585 12.0637C31.6692 10.6812 30.7359 9.14708 29.5809 7.15215H33.6174H37.2573C37.2223 8.29545 37.2223 9.43875 37.2281 10.5879L37.2515 10.5995ZM18.1713 34.8595C15.4917 33.9271 13.1692 32.1828 11.5269 29.8693C9.88452 27.5558 9.0039 24.788 9.0075 21.9508C8.93167 15.161 14.724 8.89042 21.397 8.5346C21.7412 8.50543 22.0795 8.49376 22.4237 8.49376C24.7619 8.52206 27.0528 9.156 29.0729 10.3337C31.093 11.5114 32.7734 13.1927 33.9499 15.2135C36.5865 19.7984 36.3182 25.8531 33.2966 29.9422C30.1059 34.6145 23.5903 36.7319 18.1713 34.8595ZM30.5084 33.7687C30.3195 34.0735 30.1243 34.3782 29.9321 34.6783L29.932 34.6785C29.8631 34.7862 29.7945 34.8932 29.7268 34.9995L29.6773 35.0766L29.6772 35.0767L29.677 35.077C29.2956 35.6714 28.9011 36.2862 28.5601 36.9011C27.5746 36.7803 26.5997 36.5853 25.6436 36.3178L24.8561 36.1253C26.8785 35.7213 28.8 34.9181 30.5084 33.7629V33.7687ZM19.8046 36.0669C19.2213 36.1778 18.638 36.3236 18.0547 36.4694C17.4714 36.6153 16.8414 36.7669 16.2347 36.8777C15.7143 36.1693 15.2483 35.4225 14.8406 34.6437C14.7747 34.5255 14.7088 34.4108 14.6425 34.2956L14.6425 34.2955L14.6425 34.2955L14.6424 34.2954C14.5387 34.1149 14.4341 33.933 14.3273 33.7337C15.9617 34.8993 17.8311 35.6936 19.8046 36.0611V36.0669ZM7.97489 28.3716L7.97485 28.3716L7.97458 28.3714C7.86159 28.2939 7.74897 28.2165 7.63673 28.1397L7.67303 27.9677L7.67304 27.9676L7.67304 27.9676L7.67305 27.9675C7.73078 27.6941 7.78782 27.424 7.84087 27.1539C8.01587 26.2731 8.19669 25.369 8.42419 24.494C8.82108 26.5007 9.60142 28.412 10.7224 30.123V30.1288C9.78039 29.6112 8.86591 28.9834 7.97491 28.3717L7.97489 28.3716ZM9.68412 14.566C9.01949 14.9742 8.33155 15.3998 7.68436 15.8603C7.91164 17.037 8.17964 18.2427 8.4767 19.4542C8.90791 17.465 9.69862 15.5713 10.8099 13.8661C10.4366 14.1052 10.0574 14.3386 9.68412 14.566ZM14.6245 9.85348C14.5538 9.98109 14.482 10.1108 14.409 10.2338C16.0572 9.08613 17.9266 8.29483 19.8979 7.91045C18.6963 7.56046 17.4538 7.30382 16.3631 7.08216C15.7963 7.81237 15.2984 8.59345 14.8756 9.41541C14.7936 9.5479 14.7099 9.69914 14.6245 9.85348ZM24.9553 7.91045L25.7894 7.71797C26.711 7.50214 27.6676 7.28048 28.6126 7.13465C29.3184 8.18462 29.9601 9.26958 30.5842 10.3429C28.8857 9.17419 26.9726 8.35343 24.9553 7.92795V7.91045ZM36.3007 24.599C36.4698 25.2815 36.6215 25.9756 36.7673 26.6523C36.884 27.1948 37.0007 27.7314 37.129 28.2681C36.7102 28.5194 36.3154 28.7827 35.9252 29.0429L35.9251 29.043L35.9251 29.043L35.925 29.0431L35.9248 29.0432C35.7717 29.1453 35.6193 29.2469 35.4665 29.3472C35.3 29.4564 35.1466 29.558 35.0001 29.655C34.6692 29.8741 34.3729 30.0703 34.0374 30.2805C35.1688 28.5658 35.9389 26.6387 36.3007 24.6165V24.599ZM34.0899 13.9536C34.5222 14.2282 34.9456 14.5161 35.3601 14.798L35.5424 14.9219C36.0148 15.2427 36.604 15.6394 37.1465 15.9835C36.9522 17.2255 36.6755 18.4531 36.3182 19.6584C35.974 17.6242 35.2156 15.6825 34.0899 13.9536ZM32.9233 5.20389L32.9528 5.21618L32.9529 5.21623L32.953 5.21627L32.9531 5.21632C33.8538 5.59159 34.7824 5.97851 35.6882 6.39968C34.9104 6.41912 34.1327 6.41264 33.3549 6.40616C32.9661 6.40292 32.5772 6.39968 32.1883 6.39968H29.9951H29.3651C29.6382 5.62274 29.9537 4.86135 30.3101 4.11892C30.9676 4.37661 31.6353 4.65122 32.3003 4.9247C32.5083 5.01028 32.7161 5.09575 32.9233 5.18056V5.20389ZM26.0461 2.28733C27.2127 2.77731 28.3793 3.27895 29.5459 3.80977C29.3899 4.35006 29.1949 4.87838 28.9626 5.39056C28.9354 5.4534 28.9078 5.51624 28.88 5.57923C28.8125 5.73256 28.7446 5.88675 28.6826 6.04386C27.2127 4.60892 25.6669 3.0923 24.2028 1.51735C24.7076 1.69697 25.2125 1.90486 25.7207 2.11414L25.7208 2.11416L25.7211 2.11431L25.7212 2.11432L25.7212 2.11433C25.8235 2.15646 25.9259 2.19864 26.0285 2.24066L26.0461 2.28733ZM22.4937 0.951541C24.0278 2.39816 25.5269 3.94394 26.9735 5.44305L28.0177 6.52218C26.3669 6.8955 24.6869 7.25132 23.0595 7.59548L22.2954 7.7588C20.6738 7.37382 18.7955 6.92465 16.9639 6.45217C18.0255 5.33805 19.1396 4.24725 20.2187 3.19146C20.82 2.55678 21.4447 1.93383 22.0641 1.31619C22.2018 1.17885 22.3393 1.04177 22.4762 0.904884L22.4937 0.951541ZM16.0072 3.42478L16.4094 3.25644C17.8575 2.65005 19.3415 2.02869 20.8254 1.44152C20.0788 2.21149 19.3029 2.9698 18.5505 3.69894C17.798 4.42808 17.028 5.18056 16.2872 5.95053C16.1997 5.74054 16.1064 5.53054 16.0131 5.32638C15.7701 4.79653 15.5748 4.24603 15.4298 3.68144L16.0072 3.42478ZM14.7181 4.00809C14.9363 4.71898 15.2013 5.41465 15.5114 6.09052L15.5698 6.21885C14.0298 6.30635 12.4549 6.28885 10.9324 6.27135H9.27C10.9149 5.53637 12.7057 4.79558 14.7298 4.00227L14.7181 4.00809ZM7.71837 7.00633H10.6349C10.9356 7.00633 11.2379 7.00525 11.5414 7.00418C12.8221 6.99964 14.1238 6.99503 15.4064 7.07048C15.2154 7.38463 15.0274 7.70187 14.8404 8.0177C14.7704 8.13583 14.7005 8.25377 14.6306 8.37127C14.5408 8.52108 14.4505 8.67204 14.3597 8.82381C13.7437 9.85395 13.1055 10.9213 12.4141 11.9178C11.0374 12.822 9.49748 13.7786 7.66005 14.916C7.63088 12.2853 7.6542 9.62539 7.71837 7.00049V7.00633ZM6.93675 8.61043C6.93675 10.197 6.93674 11.8012 6.89007 13.3528V15.0152C6.49259 14.8889 6.10302 14.7389 5.72345 14.566C5.39096 14.4202 5.0468 14.2744 4.69681 14.1519C5.36762 12.297 6.12594 10.4362 6.93675 8.61043ZM4.341 14.8752L4.92431 15.091C5.48816 15.2954 6.03939 15.533 6.5751 15.8027C5.05265 17.3543 3.55354 18.8592 2.09526 20.2767C2.89161 18.3109 3.59757 16.6375 4.24868 15.094L4.341 14.8752ZM3.3552 26.8623C2.91772 25.824 2.46857 24.7565 2.07775 23.6832C3.48936 25.0715 4.93596 26.5531 6.47591 28.1922C6.08163 28.362 5.67708 28.5215 5.28637 28.6755L5.21013 28.7055L4.26517 29.0847C4.01746 28.4101 3.73643 27.7355 3.46078 27.0738L3.37272 26.8623H3.3552ZM6.77924 35.2328C6.04427 33.4829 5.28597 31.6338 4.56266 29.8313C5.27169 29.4658 6.01144 29.1633 6.7734 28.9272V29.703C6.81423 31.5171 6.83759 33.3837 6.79676 35.2328H6.77924ZM1.50027 21.9391C2.17691 21.28 2.85356 20.5917 3.50687 19.9267C4.63266 18.7601 5.79345 17.5934 7.00674 16.5201C7.38589 18.0893 7.85252 20.09 8.22584 22.1083C8.05158 22.9633 7.83664 23.8336 7.6285 24.6763L7.58422 24.8557L7.50971 25.157C7.31447 25.946 7.1264 26.706 6.96591 27.4981C5.33846 25.9231 3.59434 24.1499 1.51775 21.9391H1.50027ZM8.24336 36.8311H7.58422H7.55506V34.4278V29.0614C7.80103 29.2237 8.047 29.384 8.29516 29.5457C8.6355 29.7674 8.97995 29.9918 9.33415 30.228C10.3199 30.8521 11.3407 31.4996 12.3265 32.1587C13.0388 33.187 13.683 34.2696 14.3242 35.3469C14.5232 35.6814 14.7219 36.0153 14.9223 36.3469L15.2664 36.9302H15.2651C13.5973 36.9302 11.9003 36.9302 10.2558 36.9011L8.24336 36.8311ZM14.6015 39.8293V39.8876C14.6015 39.8935 14.4323 39.8876 14.199 39.7476L13.674 39.526C13.1746 39.3142 12.6758 39.1017 12.177 38.8892L12.1756 38.8886L12.1745 38.8882L12.1738 38.8879C11.1765 38.463 10.1791 38.0382 9.17665 37.6186C10.3433 37.5486 11.5099 37.5836 12.6765 37.6186L12.875 37.6251H12.875H12.875H12.8751C13.7003 37.6526 14.5525 37.681 15.3948 37.6594C15.3014 37.9102 15.1964 38.1552 15.0914 38.3944C14.8891 38.8567 14.731 39.3372 14.619 39.8293H14.6015ZM19.2213 41.9467C18.4064 41.5877 17.5738 41.2288 16.7413 40.8698C16.221 40.6455 15.7007 40.4211 15.1848 40.1968C15.4589 39.4793 15.7681 38.756 16.1356 37.9977C16.4606 38.3297 16.7919 38.6618 17.1208 38.9913L17.1208 38.9914L17.1209 38.9914C17.3408 39.2118 17.5596 39.4311 17.7747 39.6485C18.708 40.5759 19.6646 41.5267 20.5629 42.5184L19.2213 41.9467ZM22.2662 43.1133C20.3237 41.2059 18.4105 39.2518 16.7655 37.5661L16.7992 37.558C18.4977 37.1522 20.2419 36.7355 21.9745 36.3994C23.1686 36.5562 24.3513 36.79 25.5152 37.0994L25.5253 37.1018L25.5255 37.1019C26.2689 37.2819 27.0354 37.4676 27.8018 37.6127C25.9235 39.6135 23.882 41.5734 22.2837 43.0842L22.2662 43.1133ZM27.5977 41.0659L27.3976 41.152L27.3975 41.152C26.2975 41.6254 25.195 42.0997 24.0511 42.5067C25.1011 41.3984 26.2035 40.3135 27.2768 39.2693L28.4785 38.1027C28.705 38.5493 28.8999 39.0112 29.0618 39.4851C29.0879 39.5534 29.1141 39.6239 29.1405 39.6951C29.2202 39.9097 29.3023 40.1309 29.3943 40.3193C28.8401 40.5234 28.216 40.7801 27.6152 41.0368L27.5977 41.0659ZM30.1001 39.9868C30.0242 39.8001 29.9484 39.6193 29.8667 39.4327C29.6397 38.8984 29.445 38.3511 29.2834 37.7935H35.5599C35.0053 38.015 34.448 38.2415 33.889 38.4686L33.8881 38.469C32.6362 38.9777 31.3755 39.4899 30.1176 39.9576L30.1001 39.9868ZM37.0998 33.0221C37.0998 33.4552 37.0966 33.8929 37.0934 34.333C37.0869 35.2202 37.0803 36.117 37.0998 37.0061H33.5999H29.3184L29.6451 36.4811L29.816 36.21C30.6486 34.8893 31.5027 33.5345 32.3925 32.2462C33.075 31.8204 33.7574 31.3771 34.4166 30.9455C35.2915 30.3622 36.1665 29.7788 37.094 29.2539C37.164 30.4672 37.1523 31.7504 37.1406 32.9929L37.0998 33.0221ZM37.8231 35.3903V35.3901C37.8231 33.4535 37.8231 31.2604 37.9281 29.0905L38.0098 29.1255C38.6806 29.4172 39.3689 29.7088 40.0689 29.9772C39.4214 31.8788 38.5814 33.792 37.8639 35.3611L37.8231 35.3903ZM42.2563 24.9432C42.1451 25.2145 42.0339 25.4883 41.9221 25.7637C41.4474 26.9328 40.9618 28.1288 40.4188 29.2714C39.7072 29.0089 38.9606 28.7172 38.2548 28.3731C39.7656 26.7048 41.358 25.159 42.6763 23.9165L42.2563 24.9432ZM40.1039 25.3923C39.3339 26.1506 38.5406 26.9323 37.7706 27.7256C37.2981 25.8531 36.9073 23.9691 36.5398 22.1958C36.7498 20.9942 37.0473 19.7925 37.339 18.6259C37.4965 18.0018 37.6598 17.3543 37.8056 16.7127C39.0247 17.8443 40.1972 19.0459 41.3347 20.2125C41.9646 20.8658 42.6121 21.5366 43.2654 22.1899C42.2563 23.2691 41.1713 24.3599 40.1214 25.3748L40.1039 25.3923ZM17.5296 28.1339C16.686 28.135 15.861 27.8859 15.159 27.4181C14.4571 26.9502 13.9096 26.2847 13.586 25.5057C13.2623 24.7266 13.1771 23.8691 13.341 23.0415C13.3639 22.9255 13.3917 22.8107 13.424 22.6976L13.4231 22.6974C13.4244 22.6905 13.4264 22.6773 13.4293 22.6582C13.5063 22.1514 14.2133 17.4955 18.4746 15.3535L19.1979 16.6543C18.0642 17.3253 17.0913 18.2365 16.3475 19.3239C16.221 19.5089 16.1017 19.6982 15.9897 19.8914C16.2158 19.8042 16.4499 19.736 16.6897 19.6882C17.517 19.5232 18.3747 19.6073 19.1541 19.9298C19.9336 20.2524 20.5999 20.7989 21.0687 21.5003C21.5375 22.2016 21.7877 23.0263 21.7877 23.8698C21.7862 24.9992 21.3373 26.082 20.5392 26.8812C19.7412 27.6804 18.659 28.1308 17.5296 28.1339ZM17.5296 21.0874C16.9776 21.0863 16.4377 21.249 15.9783 21.5549C15.5189 21.8608 15.1606 22.2962 14.9489 22.806C14.7371 23.3157 14.6814 23.8768 14.7888 24.4182C14.8962 24.9596 15.1619 25.457 15.5522 25.8472C15.9425 26.2375 16.4398 26.5032 16.9812 26.6106C17.5226 26.718 18.0837 26.6623 18.5934 26.4505C19.1032 26.2388 19.5386 25.8805 19.8445 25.4211C20.1504 24.9617 20.3131 24.4218 20.312 23.8698C20.3104 23.1324 20.0168 22.4255 19.4953 21.9041C18.9739 21.3826 18.267 21.089 17.5296 21.0874ZM25.0349 27.4128C25.7382 27.8829 26.5651 28.1338 27.411 28.1338C28.5439 28.1338 29.6306 27.6842 30.4323 26.8836C31.2339 26.083 31.6851 24.997 31.6866 23.864C31.6878 23.0181 31.438 22.1909 30.9689 21.487C30.6153 20.9564 30.1492 20.514 29.6065 20.1892C30.1091 19.6411 30.3902 18.9236 30.3917 18.1767C30.3928 17.5856 30.2185 17.0073 29.8908 16.5153C29.5631 16.0233 29.0967 15.6396 28.5507 15.4128C28.0048 15.186 27.4038 15.1264 26.8239 15.2415C26.244 15.3565 25.7114 15.6411 25.2933 16.0591C24.8753 16.4771 24.5907 17.0098 24.4757 17.5897C24.3606 18.1696 24.4203 18.7706 24.647 19.3165C24.7819 19.6412 24.9723 19.9378 25.2079 20.1937C24.9118 20.3718 24.6368 20.586 24.3897 20.8327C23.7911 21.4305 23.3833 22.1923 23.2179 23.0219C23.0524 23.8514 23.1368 24.7114 23.4602 25.493C23.7837 26.2747 24.3317 26.9428 25.0349 27.4128ZM27.9677 19.4851C27.8423 19.5374 27.7107 19.5711 27.5771 19.5857C27.4723 19.5816 27.3673 19.5814 27.2624 19.5851C27.2249 19.5808 27.1875 19.575 27.1504 19.5677C26.8757 19.514 26.6231 19.3801 26.4245 19.1831C26.2258 18.986 26.0899 18.7345 26.0339 18.4604C25.9779 18.1862 26.0043 17.9015 26.1098 17.6423C26.2153 17.3831 26.3951 17.161 26.6267 17.0038C26.8582 16.8467 27.1311 16.7616 27.411 16.7593V16.7768C27.5968 16.7745 27.7813 16.8089 27.9539 16.8781C28.1264 16.9473 28.2836 17.0498 28.4163 17.1799C28.5491 17.31 28.6549 17.465 28.7276 17.6361C28.8003 17.8071 28.8386 17.9909 28.8401 18.1767C28.8401 18.4566 28.7572 18.7302 28.602 18.963C28.4467 19.1958 28.226 19.3775 27.9677 19.4851ZM25.9073 21.5902C26.2799 21.3412 26.7073 21.1895 27.1507 21.1466C27.237 21.154 27.3239 21.1576 27.411 21.1575L27.4206 21.1574C28.131 21.16 28.812 21.4416 29.3166 21.9419C29.8235 22.4444 30.1114 23.1269 30.1175 23.8406C30.1175 24.376 29.9588 24.8992 29.6614 25.3443C29.364 25.7894 28.9413 26.1363 28.4467 26.3412C27.9521 26.546 27.408 26.5997 26.8829 26.4952C26.3579 26.3908 25.8757 26.133 25.4971 25.7545C25.1186 25.376 24.8608 24.8937 24.7564 24.3687C24.652 23.8437 24.7056 23.2995 24.9104 22.8049C25.1153 22.3103 25.4622 21.8876 25.9073 21.5902Z" fill="#D1E7BE"/>
<path fill-rule="evenodd" clip-rule="evenodd" d="M102.053 11.5251C102.418 12.3293 102.579 13.2108 102.523 14.092L102.57 32.5293H105.7V21.5733H115.905V28.366C115.873 29.235 115.963 30.1041 116.171 30.9485C116.237 31.1945 116.351 31.4249 116.507 31.6264C116.663 31.8279 116.857 31.9965 117.079 32.1223C117.676 32.3754 118.324 32.4878 118.972 32.451H122.024V31.7623H121.351C120.988 31.8141 120.617 31.764 120.279 31.6176C119.942 31.4711 119.652 31.2341 119.442 30.9328C119.077 30.1287 118.916 29.2472 118.972 28.366V10.007H115.842V20.2117H105.637V14.092C105.676 13.2227 105.586 12.3526 105.371 11.5095C105.31 11.2613 105.198 11.0287 105.042 10.8265C104.885 10.6243 104.688 10.4571 104.464 10.3356C103.871 10.0823 103.229 9.96974 102.585 10.007H99.4552V10.68H100.144C100.509 10.6317 100.881 10.685 101.217 10.8341C101.554 10.9832 101.844 11.2223 102.053 11.5251ZM81.268 11.3685H84.3982L84.32 32.4509H87.4503V11.3685H95.182V10.0068H79.2959C77.3708 10.0068 76.4004 10.9146 76.4004 12.7302V15.2813H77.0108C77.0108 12.6676 78.4194 11.3685 81.268 11.3685ZM129.49 14.0918C129.543 13.2093 129.376 12.3274 129.005 11.525C128.797 11.2235 128.511 10.985 128.177 10.8359C127.843 10.6868 127.474 10.6328 127.111 10.6799H126.485V10.0068H140.962C142.903 10.0068 143.858 10.9146 143.858 12.7302V15.2813H143.185C143.185 12.6676 141.761 11.3685 138.928 11.3685H132.667V20.2115H141.855V21.5732H132.667V31.0892H138.615C139.896 31.158 141.17 30.8652 142.293 30.2441C143.281 29.5221 144.02 28.51 144.406 27.3486L145.079 27.5207L143.889 30.7449C143.723 31.2782 143.379 31.7384 142.915 32.0488C142.451 32.3593 141.894 32.5012 141.338 32.4509H129.615L129.49 14.0918ZM164.361 11.5248C164.74 12.3249 164.907 13.2086 164.847 14.0916L164.925 32.4507H176.648C177.204 32.501 177.761 32.3591 178.225 32.0486C178.689 31.7381 179.033 31.2779 179.199 30.7447L180.388 27.5205L179.715 27.3483C179.341 28.5157 178.6 29.5311 177.602 30.2438C176.486 30.8652 175.216 31.1582 173.94 31.089H167.977V21.6356H177.164V20.2739H167.977V11.4309H174.237C177.07 11.4309 178.495 12.7299 178.495 15.3437H179.168V12.7925C179.168 10.977 178.213 10.0692 176.288 10.0692H161.795V10.7422H162.483C162.838 10.6896 163.2 10.7347 163.531 10.8726C163.862 11.0105 164.149 11.2359 164.361 11.5248ZM209.437 33.2335C208.526 32.7249 207.839 31.8926 207.512 30.9014C207.106 29.5309 206.921 28.1043 206.964 26.6755V13.5753L198.481 32.4509H197.793L188.95 13.231V32.4509H187.588V10.0068H190.828L198.982 27.6929L206.98 10.0068H210.11V26.6755C210.034 28.3411 210.306 30.0042 210.908 31.5588C211.083 32.0638 211.411 32.5021 211.845 32.8133C212.28 33.1244 212.8 33.2931 213.334 33.2961V33.9847C211.993 34.0678 210.652 33.8093 209.437 33.2335ZM220.096 11.525C220.461 12.3292 220.622 13.2107 220.566 14.0918L220.628 32.4509H232.367C232.923 32.4983 233.478 32.3552 233.941 32.0452C234.405 31.7351 234.749 31.2766 234.918 30.7449L236.107 27.5207L235.419 27.3486C235.044 28.5113 234.309 29.525 233.322 30.2441C232.199 30.8652 230.925 31.158 229.643 31.0892H223.696V21.5732H232.868V20.2115H223.696V11.3685H229.957C232.789 11.3685 234.214 12.6676 234.214 15.2813H234.887V12.7302C234.887 10.9146 233.916 10.0068 231.991 10.0068H217.514V10.6799H218.187C218.552 10.6297 218.924 10.6822 219.261 10.8315C219.599 10.9808 219.888 11.2209 220.096 11.525ZM255.844 31.7151C254.641 30.6095 253.636 29.3075 252.87 27.8649L249.473 22.0739H247.094V32.4508H243.964V14.0917C244.021 13.2105 243.859 12.3291 243.495 11.5249C243.286 11.2208 242.997 10.9806 242.66 10.8314C242.323 10.6821 241.951 10.6296 241.585 10.6797H240.912V10.0067H249.755C251.777 9.97942 253.779 10.413 255.609 11.2745C256.488 11.7214 257.212 12.4242 257.684 13.2903C258.156 14.1564 258.355 15.1451 258.254 16.1264C258.254 19.1523 256.438 21.0774 252.807 21.9018L256.376 27.8649C256.973 28.9543 257.739 29.9422 258.645 30.7917C259.299 31.3553 260.116 31.6953 260.977 31.7621V32.4508C260.696 32.5655 260.402 32.6444 260.101 32.6855C259.713 32.7545 259.321 32.7912 258.927 32.7951C257.805 32.8024 256.716 32.4207 255.844 31.7151ZM251.931 20.3836C252.758 20.0529 253.486 19.5137 254.044 18.8184C254.632 18.0652 254.937 17.1288 254.905 16.1733C254.944 15.1785 254.64 14.2002 254.044 13.403C253.485 12.7093 252.757 12.1705 251.931 11.8379C251.214 11.5035 250.436 11.3222 249.646 11.3058C248.784 11.3119 247.927 11.4276 247.094 11.6501V20.6496C247.927 20.8721 248.784 20.9879 249.646 20.994C250.44 20.9399 251.216 20.7326 251.931 20.3836ZM279.43 28.1937C279.833 29.6347 280.738 30.884 281.982 31.7153C282.934 32.2848 284.018 32.5976 285.128 32.6231C285.587 32.6258 286.045 32.5679 286.489 32.4509V31.7622C285.696 31.7334 284.938 31.429 284.345 30.9014C283.665 30.1002 283.135 29.183 282.78 28.1937L275.299 10.0068H274.281L264.765 32.4509H266.33L269.054 25.9869H278.57L279.43 28.1937ZM277.897 24.6252H269.57L273.812 14.7649L277.897 24.6252ZM292.655 14.092C292.716 13.209 292.549 12.3253 292.17 11.5251C291.964 11.2223 291.678 10.9828 291.343 10.8335C291.009 10.6842 290.639 10.6311 290.276 10.68H289.588V10.007H292.718C293.361 9.96974 294.004 10.0823 294.596 10.3356C294.821 10.4571 295.018 10.6243 295.174 10.8265C295.331 11.0287 295.443 11.2613 295.504 11.5095C295.712 12.3538 295.801 13.223 295.77 14.092V31.0893H307.837V32.451H292.718L292.655 14.092ZM313.894 11.525C314.272 12.3251 314.439 13.2088 314.379 14.0918V32.4509H321.109C323.464 32.5147 325.801 32.027 327.933 31.0266C329.716 30.151 331.19 28.7535 332.159 27.0199C333.14 25.1995 333.631 23.1553 333.583 21.088C333.667 19.5623 333.407 18.0372 332.822 16.6257C332.237 15.2142 331.342 13.9524 330.203 12.9336C327.949 10.9772 324.615 10.0068 320.233 10.0068H311.312V10.6799H312C312.363 10.631 312.733 10.6841 313.067 10.8334C313.402 10.9827 313.688 11.2222 313.894 11.525ZM328.685 26.519C327.98 27.9513 326.898 29.1637 325.554 30.025C324.161 30.8608 322.562 31.2891 320.937 31.2614C319.772 31.2402 318.612 31.0933 317.478 30.8232V11.7441C318.577 11.3944 319.722 11.2098 320.875 11.1963C322.526 11.1619 324.154 11.5961 325.57 12.4484C326.923 13.3126 328.007 14.5378 328.7 15.9857C329.482 17.6212 329.874 19.4162 329.843 21.2289C329.881 23.0591 329.484 24.8723 328.685 26.519Z" fill="#D1E7BE"/>
</svg>
