<svg width="282" height="88" viewBox="0 0 282 88" fill="none" xmlns="http://www.w3.org/2000/svg">
<g clip-path="url(#clip0_953_9603)">
<path d="M147.786 60.1588C147.927 60.0014 148.101 59.8765 148.295 59.7926C148.495 59.7099 148.709 59.6676 148.925 59.6681C149.074 59.6692 149.222 59.6926 149.364 59.7377C149.511 59.7858 149.651 59.8549 149.778 59.9427C149.919 60.0378 150.05 60.1484 150.166 60.2723L150.771 59.6132C150.636 59.4368 150.473 59.2845 150.287 59.1627C150.088 59.0342 149.872 58.9332 149.646 58.8624C149.409 58.7883 149.162 58.7512 148.914 58.7526C148.566 58.7489 148.221 58.8162 147.899 58.9503C147.594 59.0782 147.318 59.2662 147.087 59.5033C146.855 59.7436 146.673 60.0273 146.552 60.3382C146.418 60.6646 146.351 61.0145 146.354 61.3672C146.351 61.7285 146.414 62.0873 146.541 62.4256C146.656 62.7382 146.833 63.0246 147.061 63.2678C147.282 63.5038 147.552 63.6887 147.852 63.8098C148.174 63.9402 148.519 64.005 148.866 64.0002C149.113 64.0015 149.36 63.9707 149.599 63.9087C149.825 63.8548 150.043 63.771 150.247 63.6597C150.423 63.5652 150.581 63.4413 150.716 63.2935L150.247 62.5611C150.136 62.6677 150.013 62.7611 149.881 62.8394C149.751 62.9207 149.61 62.9835 149.463 63.0261C149.312 63.0676 149.155 63.0873 148.998 63.0847C148.765 63.0881 148.534 63.0471 148.317 62.9639C148.117 62.8881 147.935 62.7694 147.786 62.616C147.635 62.4628 147.517 62.2794 147.442 62.0777C147.359 61.8552 147.318 61.6193 147.321 61.3819C147.32 61.1503 147.362 60.9206 147.445 60.7044C147.521 60.5015 147.637 60.3159 147.786 60.1588Z" fill="#D1E7BE"/>
<path d="M155.403 59.496C155.175 59.2574 154.899 59.0691 154.594 58.943C154.271 58.8091 153.925 58.7418 153.576 58.7453C153.228 58.7416 152.883 58.8089 152.561 58.943C152.257 59.0687 151.981 59.2556 151.752 59.4923C151.517 59.7343 151.335 60.0223 151.217 60.3382C151.087 60.6732 151.023 61.0299 151.027 61.3892C151.023 61.7473 151.088 62.1028 151.217 62.4366C151.337 62.7472 151.519 63.0301 151.752 63.2678C151.983 63.5021 152.258 63.6887 152.561 63.8171C152.884 63.9462 153.229 64.0085 153.576 64.0002C153.925 64.0036 154.271 63.9364 154.594 63.8025C154.897 63.6804 155.172 63.4986 155.403 63.2678C155.632 63.0261 155.812 62.7426 155.934 62.4329C156.06 62.1008 156.124 61.7481 156.121 61.3929C156.125 61.0351 156.062 60.6798 155.934 60.3456C155.814 60.0304 155.634 59.7418 155.403 59.496ZM155.037 62.0594C154.961 62.2607 154.849 62.4468 154.707 62.6087C154.57 62.7656 154.4 62.8906 154.209 62.9749C154.008 63.06 153.791 63.1024 153.572 63.0994C153.355 63.1024 153.139 63.06 152.939 62.9749C152.746 62.8915 152.575 62.7664 152.437 62.6087C152.291 62.4498 152.179 62.2629 152.107 62.0594C152.028 61.8398 151.989 61.608 151.99 61.3746C151.988 61.1387 152.028 60.9044 152.107 60.6825C152.18 60.4804 152.292 60.2949 152.437 60.1368C152.575 59.9791 152.746 59.854 152.939 59.7706C153.139 59.6843 153.354 59.6407 153.572 59.6424C153.791 59.6407 154.008 59.6844 154.209 59.7706C154.4 59.8559 154.569 59.9807 154.707 60.1368C154.849 60.2987 154.961 60.4848 155.037 60.6861C155.119 60.9049 155.16 61.1371 155.158 61.3709C155.162 61.6045 155.122 61.8367 155.041 62.0557L155.037 62.0594Z" fill="#D1E7BE"/>
<path d="M156.406 59.7082H157.86V63.9268H158.805V59.7082H160.306V58.833H156.406V59.7082Z" fill="#D1E7BE"/>
<path d="M161.863 61.7443H163.895V60.902H161.863V59.6936H164.265V58.833H160.933V63.9268H164.294V63.0699H161.863V61.7443Z" fill="#D1E7BE"/>
<path d="M166.257 60.1583C166.399 60.0009 166.572 59.876 166.766 59.7921C166.966 59.7098 167.18 59.6675 167.396 59.6676C167.545 59.6686 167.694 59.6921 167.836 59.7371C167.984 59.786 168.124 59.855 168.253 59.9422C168.393 60.0392 168.523 60.1496 168.641 60.2718L169.246 59.6126C169.11 59.4362 168.945 59.2839 168.759 59.1622C168.56 59.033 168.344 58.9319 168.118 58.8619C167.881 58.7875 167.634 58.7504 167.385 58.7521C167.039 58.7489 166.695 58.8162 166.375 58.9498C166.068 59.0767 165.79 59.2648 165.558 59.5028C165.324 59.7409 165.139 60.0219 165.012 60.3304C164.878 60.6568 164.811 61.0066 164.815 61.3594C164.811 61.7207 164.874 62.0795 165.001 62.4177C165.119 62.7339 165.3 63.0229 165.532 63.2673C165.754 63.5044 166.025 63.6895 166.327 63.8093C166.648 63.9404 166.991 64.0052 167.338 63.9997C167.585 64.0009 167.831 63.9702 168.07 63.9082C168.297 63.8536 168.516 63.7699 168.722 63.6591C168.896 63.5637 169.053 63.44 169.187 63.2929L168.722 62.5605C168.611 62.667 168.488 62.7603 168.356 62.8388C168.226 62.9202 168.085 62.983 167.938 63.0256C167.787 63.0698 167.631 63.092 167.473 63.0915C167.241 63.0949 167.009 63.0539 166.792 62.9707C166.592 62.8938 166.411 62.7752 166.261 62.6228C166.112 62.4685 165.996 62.2853 165.921 62.0845C165.837 61.862 165.796 61.6261 165.8 61.3887C165.796 61.1533 165.838 60.9194 165.924 60.7002C165.998 60.4991 166.111 60.3148 166.257 60.1583Z" fill="#D1E7BE"/>
<path d="M170.93 60.1585C171.071 60.0011 171.244 59.8762 171.439 59.7923C171.638 59.71 171.852 59.6677 172.068 59.6678C172.218 59.6689 172.366 59.6923 172.508 59.7374C172.655 59.7856 172.794 59.8546 172.922 59.9425C173.063 60.0384 173.195 60.1489 173.314 60.272L173.918 59.6129C173.782 59.4364 173.617 59.2841 173.431 59.1624C173.235 59.0379 173.023 58.9406 172.801 58.8731C172.564 58.7987 172.317 58.7617 172.068 58.7633C171.722 58.7602 171.378 58.8274 171.058 58.961C170.751 59.0879 170.473 59.2761 170.241 59.514C170.008 59.7521 169.822 60.0331 169.695 60.3416C169.562 60.668 169.494 61.0179 169.498 61.3706C169.494 61.7319 169.557 62.0907 169.684 62.4289C169.8 62.7403 169.977 63.0254 170.204 63.2675C170.426 63.5047 170.697 63.6898 170.999 63.8095C171.32 63.9406 171.664 64.0054 172.01 63.9999C172.257 64.0012 172.503 63.9704 172.742 63.9084C172.969 63.8539 173.188 63.7702 173.394 63.6594C173.568 63.564 173.726 63.4402 173.859 63.2932L173.394 62.5608C173.283 62.6672 173.16 62.7606 173.028 62.8391C172.898 62.9204 172.758 62.9833 172.61 63.0259C172.459 63.07 172.303 63.0922 172.145 63.0918C171.913 63.0951 171.681 63.0541 171.464 62.9709C171.264 62.894 171.083 62.7754 170.933 62.623C170.783 62.4697 170.667 62.2863 170.593 62.0847C170.51 61.8623 170.469 61.6264 170.472 61.3889C170.471 61.1543 170.516 60.9216 170.604 60.7041C170.675 60.5023 170.786 60.3168 170.93 60.1585Z" fill="#D1E7BE"/>
<path d="M178.547 59.496C178.318 59.2575 178.043 59.0691 177.737 58.943C177.415 58.8085 177.068 58.7412 176.719 58.7453C176.372 58.7422 176.029 58.8094 175.709 58.943C175.402 59.0678 175.126 59.2549 174.896 59.4923C174.662 59.73 174.481 60.0129 174.361 60.3236C174.233 60.659 174.168 61.0155 174.17 61.3746C174.168 61.7325 174.233 62.0877 174.361 62.4219C174.479 62.7378 174.661 63.0259 174.896 63.2679C175.127 63.5031 175.404 63.6898 175.709 63.8172C176.029 63.9508 176.372 64.018 176.719 64.0149C177.068 64.019 177.415 63.9518 177.737 63.8172C178.041 63.6908 178.317 63.5039 178.547 63.2679C178.775 63.0261 178.956 62.7427 179.078 62.4329C179.205 62.1011 179.27 61.7484 179.268 61.3929C179.271 61.0349 179.206 60.6796 179.078 60.3456C178.958 60.0304 178.777 59.7418 178.547 59.496ZM178.18 62.0594C178.103 62.2609 177.99 62.447 177.847 62.6087C177.711 62.7665 177.54 62.8916 177.349 62.9749C177.148 63.0607 176.931 63.1032 176.712 63.0994C176.494 63.102 176.279 63.0596 176.078 62.9749C175.886 62.8915 175.715 62.7665 175.577 62.6087C175.433 62.4479 175.322 62.2616 175.247 62.0594C175.169 61.8396 175.131 61.6078 175.134 61.3746C175.13 61.139 175.169 60.9047 175.247 60.6825C175.322 60.4819 175.434 60.2969 175.577 60.1369C175.715 59.9791 175.886 59.854 176.078 59.7707C176.278 59.6847 176.494 59.641 176.712 59.6425C176.931 59.64 177.148 59.6837 177.349 59.7707C177.54 59.8553 177.71 59.9802 177.847 60.1369C177.99 60.2986 178.103 60.4846 178.18 60.6862C178.26 60.9056 178.3 61.1375 178.298 61.3709C178.302 61.6039 178.265 61.8358 178.188 62.0557L178.18 62.0594Z" fill="#D1E7BE"/>
<path d="M180.817 62.5353C180.817 62.495 180.817 62.4547 180.817 62.4108C180.817 62.268 180.846 62.1178 180.857 61.964C180.868 61.8102 180.879 61.6454 180.886 61.4733C180.894 61.3012 180.886 61.1254 180.905 60.9387C180.923 60.7519 180.905 60.5725 180.905 60.3454V58.8184H179.967V63.9268H180.857L183.607 60.2941C183.607 60.4223 183.585 60.5432 183.574 60.6603C183.574 60.8508 183.545 61.0265 183.534 61.1547C183.523 61.2829 183.534 61.4074 183.512 61.4989C183.49 61.5905 183.512 61.6747 183.512 61.7516C183.512 61.8285 183.512 61.8981 183.512 61.964V63.9268H184.453V58.833H183.6L180.817 62.5353Z" fill="#D1E7BE"/>
<path d="M188.548 61.4368C188.382 61.3052 188.198 61.1979 188.002 61.1182C187.766 61.0218 187.52 60.9494 187.27 60.9021C187.124 60.8729 186.981 60.8337 186.841 60.7849C186.73 60.752 186.625 60.7013 186.53 60.6348C186.455 60.5817 186.393 60.513 186.347 60.4334C186.302 60.3542 186.279 60.2644 186.281 60.1734C186.279 60.0564 186.317 59.9423 186.391 59.8511C186.471 59.7565 186.575 59.6846 186.691 59.6424C186.837 59.5927 186.991 59.5692 187.145 59.5728C187.297 59.5727 187.448 59.5975 187.592 59.646C187.734 59.6994 187.867 59.7761 187.984 59.8731C188.111 59.9771 188.221 60.1007 188.31 60.2393L188.936 59.6241C188.827 59.4359 188.683 59.2706 188.511 59.137C188.332 59.0012 188.13 58.8994 187.914 58.8367C187.664 58.7647 187.405 58.7301 187.145 58.7342C186.906 58.732 186.669 58.7691 186.442 58.8441C186.233 58.9118 186.038 59.0146 185.864 59.148C185.703 59.2758 185.571 59.4354 185.475 59.6168C185.38 59.7971 185.331 59.9985 185.333 60.2027C185.329 60.3973 185.362 60.5908 185.428 60.7739C185.494 60.9454 185.596 61.1004 185.728 61.228C185.874 61.3687 186.044 61.4816 186.23 61.5613C186.454 61.6597 186.689 61.7321 186.929 61.7773C187.068 61.8066 187.196 61.8359 187.295 61.8725C187.403 61.902 187.507 61.9425 187.607 61.9934C187.691 62.0368 187.769 62.0896 187.841 62.1509C187.901 62.204 187.95 62.2688 187.984 62.3413C188.015 62.413 188.031 62.4902 188.031 62.5683C188.032 62.6829 187.99 62.7936 187.914 62.8796C187.827 62.9757 187.716 63.0476 187.592 63.0883C187.448 63.1429 187.295 63.169 187.142 63.1652C186.873 63.1696 186.609 63.1053 186.373 62.9785C186.093 62.803 185.854 62.5695 185.673 62.2937L185.054 62.9931C185.213 63.2065 185.403 63.3942 185.618 63.5497C185.819 63.7021 186.046 63.8163 186.288 63.8866C186.552 63.9655 186.826 64.0038 187.101 64.0002C187.447 64.007 187.79 63.9409 188.108 63.8061C188.379 63.6945 188.611 63.5077 188.778 63.2678C188.94 63.0105 189.022 62.711 189.013 62.4072C189.015 62.2247 188.975 62.0443 188.896 61.8799C188.814 61.7083 188.695 61.5569 188.548 61.4368Z" fill="#D1E7BE"/>
<path d="M196.311 61.3777C196.308 61.3174 196.301 61.2575 196.289 61.1983H193.982V62.0442H195.355C195.357 62.1854 195.324 62.325 195.26 62.4507C195.191 62.5808 195.095 62.6945 194.978 62.7839C194.853 62.8792 194.713 62.9534 194.564 63.0036C194.403 63.0591 194.233 63.0863 194.063 63.0842C193.831 63.086 193.602 63.0399 193.389 62.9487C193.181 62.8634 192.992 62.7391 192.832 62.5825C192.674 62.4217 192.55 62.2313 192.466 62.0222C192.375 61.808 192.329 61.5774 192.33 61.3447C192.328 61.1099 192.373 60.877 192.462 60.66C192.546 60.455 192.671 60.2694 192.828 60.1143C192.983 59.9587 193.165 59.8343 193.367 59.7481C193.579 59.6551 193.809 59.6065 194.041 59.6053C194.203 59.6037 194.365 59.6284 194.52 59.6785C194.677 59.7282 194.826 59.7958 194.967 59.8799C195.118 59.975 195.26 60.0854 195.388 60.2095L195.985 59.5833C195.845 59.4091 195.676 59.2594 195.487 59.1402C195.281 59.005 195.057 58.9014 194.821 58.8326C194.57 58.759 194.309 58.722 194.048 58.7228C193.686 58.7197 193.326 58.7869 192.99 58.9205C192.671 59.0455 192.379 59.2322 192.133 59.4698C191.89 59.7058 191.698 59.9886 191.569 60.3011C191.434 60.6272 191.365 60.9771 191.367 61.3301C191.364 61.6852 191.431 62.0375 191.565 62.3664C191.692 62.6796 191.881 62.9637 192.122 63.2014C192.356 63.4425 192.635 63.6364 192.942 63.7727C193.28 63.9073 193.64 63.9745 194.004 63.9704C194.313 63.9727 194.619 63.9181 194.908 63.8093C195.18 63.7028 195.429 63.5449 195.641 63.3442C195.853 63.1461 196.02 62.9052 196.132 62.6374C196.252 62.3474 196.312 62.0359 196.307 61.7219C196.307 61.678 196.307 61.6267 196.307 61.5645C196.307 61.5022 196.315 61.4363 196.311 61.3777Z" fill="#D1E7BE"/>
<path d="M200.369 61.8032C200.615 61.6643 200.821 61.4636 200.965 61.2209C201.113 60.9781 201.19 60.6993 201.189 60.4153C201.192 60.1254 201.114 59.8403 200.965 59.5914C200.82 59.3477 200.613 59.1468 200.365 59.0091C200.109 58.8648 199.82 58.7902 199.526 58.793H197.329V63.9015H198.252V62.0303H199.233L200.266 63.9015H201.387L200.218 61.8801C200.27 61.8576 200.32 61.8319 200.369 61.8032ZM198.237 59.6463H199.369C199.525 59.6428 199.68 59.678 199.819 59.7488C199.945 59.8096 200.05 59.9049 200.123 60.0235C200.198 60.1482 200.236 60.2917 200.233 60.4373C200.235 60.5718 200.205 60.7048 200.145 60.8255C200.092 60.9371 200.008 61.0311 199.903 61.0964C199.793 61.1634 199.666 61.1977 199.537 61.1953H198.241L198.237 59.6463Z" fill="#D1E7BE"/>
<path d="M206.414 59.4667C206.185 59.2293 205.91 59.0412 205.605 58.9137C205.283 58.7798 204.936 58.7125 204.587 58.716C204.239 58.7123 203.894 58.7796 203.573 58.9137C203.27 59.0421 202.995 59.2287 202.763 59.463C202.529 59.7014 202.347 59.9857 202.229 60.2979C202.099 60.6316 202.034 60.9872 202.038 61.3453C202.034 61.7034 202.099 62.0589 202.229 62.3926C202.348 62.7044 202.53 62.9885 202.763 63.2275C202.991 63.4606 203.263 63.6472 203.562 63.7768C203.883 63.9097 204.228 63.9757 204.576 63.9709C204.925 63.9756 205.271 63.9096 205.594 63.7768C205.899 63.6494 206.174 63.4612 206.403 63.2239C206.633 62.9816 206.814 62.6967 206.934 62.3853C207.061 62.0534 207.125 61.7006 207.121 61.3453C207.125 60.9887 207.062 60.6347 206.934 60.3016C206.816 59.9927 206.639 59.7094 206.414 59.4667ZM206.048 62.0301C205.974 62.2321 205.862 62.4184 205.719 62.5794C205.581 62.7362 205.411 62.8612 205.221 62.9456C205.019 63.0318 204.802 63.0755 204.583 63.0737C204.366 63.0755 204.15 63.0318 203.95 62.9456C203.758 62.8608 203.587 62.7359 203.448 62.5794C203.304 62.4189 203.192 62.2325 203.119 62.0301C203.04 61.8092 203 61.5762 203.001 61.3416C202.999 61.1058 203.039 60.8714 203.119 60.6495C203.193 60.4486 203.305 60.2635 203.448 60.1039C203.587 59.9473 203.758 59.8225 203.95 59.7377C204.15 59.6514 204.366 59.6077 204.583 59.6095C204.802 59.6078 205.019 59.6514 205.221 59.7377C205.411 59.822 205.581 59.947 205.719 60.1039C205.862 60.2648 205.974 60.4511 206.048 60.6532C206.131 60.8719 206.172 61.1042 206.169 61.338C206.173 61.5739 206.134 61.8087 206.052 62.0301H206.048Z" fill="#D1E7BE"/>
<path d="M211.384 61.8756C211.388 62.0889 211.334 62.2993 211.226 62.4835C211.123 62.6567 210.977 62.8005 210.802 62.901C210.619 63.0088 210.41 63.0645 210.197 63.0621C209.997 63.0625 209.8 63.0067 209.63 62.901C209.457 62.7971 209.313 62.6509 209.212 62.4762C209.106 62.2941 209.052 62.0864 209.055 61.8756V58.7959H208.103V61.9416C208.098 62.3029 208.191 62.6587 208.374 62.9706C208.547 63.2764 208.8 63.5295 209.106 63.703C209.437 63.8789 209.808 63.9671 210.183 63.9593C210.565 63.9701 210.943 63.8818 211.281 63.703C211.585 63.5346 211.838 63.288 212.014 62.9889C212.198 62.6777 212.292 62.3214 212.285 61.9599V58.8142H211.369L211.384 61.8756Z" fill="#D1E7BE"/>
<path d="M217.082 59.6057C216.948 59.3676 216.753 59.1692 216.518 59.0308C216.28 58.8896 216.008 58.8162 215.731 58.8184H213.61V63.9013H214.548V62.0373H215.72C215.998 62.0403 216.271 61.9641 216.507 61.8176C216.742 61.674 216.936 61.4722 217.071 61.2317C217.214 60.9811 217.288 60.6965 217.283 60.4077C217.289 60.1272 217.22 59.8503 217.082 59.6057ZM216.236 60.8069C216.182 60.9104 216.106 61.0005 216.013 61.0705C215.916 61.1388 215.801 61.1747 215.683 61.1731H214.584V59.679H215.683C215.8 59.678 215.915 59.7124 216.013 59.7779C216.113 59.844 216.196 59.9331 216.254 60.0379C216.314 60.1507 216.346 60.2764 216.346 60.4041C216.343 60.5406 216.305 60.6742 216.236 60.7922V60.8069Z" fill="#D1E7BE"/>
<path d="M80.7386 50.3847C79.7645 50.9084 78.9515 51.4247 78.0763 51.7946C74.7146 53.2118 71.3236 53.5926 68.0205 51.6664C65.4571 50.165 64.5965 47.7444 64.7247 44.899C64.8345 42.4199 65.5157 40.0322 65.9514 37.6043C66.6838 33.4626 67.5298 29.3355 68.2878 25.1975C68.4416 24.3699 68.676 23.9451 69.6574 24.0037C71.3602 24.1062 73.074 24.0659 74.7842 24.0037C75.6081 23.978 75.7143 24.2014 75.5569 24.9961C74.5169 30.1522 73.5281 35.3229 72.5577 40.4936C72.2559 41.8122 72.2773 43.1841 72.6199 44.4925C72.7537 45.0649 73.0759 45.5756 73.5348 45.9429C73.9937 46.3101 74.5627 46.5125 75.1504 46.5176C77.9299 46.7117 80.0245 45.3788 81.8518 43.4745C82.061 43.2174 82.1885 42.9037 82.218 42.5737C83.3423 36.7145 84.4848 30.8882 85.5871 25.0364C85.7299 24.2673 85.9972 23.9634 86.8358 24C88.5057 24.0769 90.1792 24.0439 91.8528 24C92.5595 24 92.7756 24.1282 92.6218 24.9228C90.8738 33.885 89.1648 42.841 87.495 51.7909C87.3815 52.4025 87.0629 52.4391 86.5905 52.4391C84.8803 52.4391 83.1702 52.3805 81.4637 52.4391C80.5555 52.4757 80.2845 52.2047 80.5445 51.3405C80.6178 51.1244 80.647 50.8681 80.7386 50.3847Z" fill="#D1E7BE"/>
<path d="M160.284 52.9445C155.315 52.9445 151.572 49.9746 151.034 45.6205C150.704 42.6436 151.504 39.6513 153.275 37.2362C155.047 34.8212 157.66 33.1594 160.599 32.5801C164.019 31.9356 167.3 32.2139 169.999 34.726C172.947 37.4762 173.108 40.9148 172.068 44.4926C170.574 49.634 165.861 52.9445 160.284 52.9445ZM157.307 43.4929C157.307 46.5616 159.295 48.0667 162.272 47.2904C165.25 46.514 167.007 43.2292 166.11 40.263C165.619 38.637 164.517 37.8131 162.814 37.8021C159.617 37.7875 157.288 40.1714 157.307 43.4929Z" fill="#D1E7BE"/>
<path d="M200.266 45.6531H201.793C202.664 45.6531 203.375 45.4993 203.825 46.7517C204.385 48.3117 208.219 48.3227 209.201 46.9238C209.695 46.2207 209.391 45.481 208.384 45.232C206.978 44.8658 205.542 44.6534 204.118 44.3714L203.265 44.192C199.009 43.2581 197.614 39.4973 200.255 35.9964C201.8 33.9493 203.96 32.8434 206.447 32.4846C209.49 32.0488 212.497 32.1184 214.99 34.3156C215.625 34.8339 216.148 35.4764 216.525 36.2037C216.903 36.9309 217.129 37.7277 217.188 38.5452C217.224 39.1164 217.059 39.3178 216.455 39.3069C214.932 39.2776 213.405 39.3069 211.878 39.3069C211.703 39.3252 211.528 39.2827 211.381 39.1866C211.234 39.0906 211.125 38.9468 211.072 38.7795C210.34 37.3147 207.015 37.1646 206.044 38.5342C205.528 39.2666 205.96 39.6328 206.615 39.7866C207.82 40.0429 209.043 40.215 210.277 40.4128C211.064 40.5448 211.835 40.7533 212.581 41.0353C216.463 42.4452 217.308 45.9204 215.012 49.2821C214.129 50.5435 212.877 51.5004 211.427 52.0213C208.328 53.2255 204.915 53.3608 201.73 52.4058C198.837 51.5745 196.893 49.0881 196.838 46.5173C196.838 45.8801 196.955 45.5872 197.666 45.6384C198.522 45.6897 199.398 45.6531 200.266 45.6531Z" fill="#D1E7BE"/>
<path d="M182.907 34.6492C184.372 33.774 185.804 32.9903 187.445 32.7047C188.7 32.4773 189.992 32.5513 191.213 32.9207C193.89 33.7337 195.358 36.1176 195.04 39.2413C194.739 42.2075 194 45.1005 193.48 48.0301C193.256 49.2789 192.941 50.5166 192.773 51.7727C192.692 52.3732 192.432 52.4501 191.938 52.4465C190.411 52.4282 188.884 52.4172 187.357 52.4465C186.694 52.4648 186.588 52.2707 186.716 51.6299C187.39 48.2096 188.005 44.7819 188.653 41.358C188.776 40.7884 188.79 40.2009 188.697 39.6258C188.646 39.1866 188.437 38.7808 188.11 38.4832C187.783 38.1857 187.359 38.0166 186.917 38.0072C184.5 37.7472 181.791 39.7833 181.336 42.1709C180.758 45.2763 180.135 48.3707 179.579 51.4797C179.447 52.2121 179.18 52.4941 178.389 52.4538C176.902 52.3806 175.408 52.4172 173.917 52.4538C173.375 52.4538 173.229 52.3073 173.335 51.7617C174.504 45.7023 175.659 39.6417 176.799 33.5799C176.905 33.0049 177.191 32.8255 177.77 32.8475C179.187 32.8878 180.608 32.9097 182.021 32.8475C182.907 32.8035 183.237 33.0269 182.915 33.9204C182.879 34.1619 182.877 34.4071 182.907 34.6492Z" fill="#D1E7BE"/>
<path d="M102.062 34.7041C103.472 33.8545 104.743 33.1697 106.164 32.8182C109.17 32.0858 112.1 32.983 113.433 35.1765C114.531 36.9636 114.44 38.9301 114.081 40.8892C113.433 44.423 112.719 47.9422 112.078 51.4761C111.942 52.2085 111.712 52.5124 110.906 52.4685C109.441 52.3952 107.998 52.4282 106.545 52.4685C105.959 52.4685 105.812 52.333 105.937 51.7141C106.611 48.2974 107.229 44.8735 107.867 41.4605C107.896 41.3177 107.933 41.1785 107.951 41.032C108.24 38.6664 106.852 37.37 104.593 38.1574C102.571 38.8532 100.869 39.9884 100.506 42.4675C100.063 45.4777 99.3708 48.4512 98.8252 51.4504C98.6897 52.1828 98.4297 52.549 97.5801 52.4978C96.1666 52.4099 94.7457 52.4501 93.3285 52.4978C92.6693 52.4978 92.4496 52.3879 92.5961 51.6408C93.7606 45.6986 94.8946 39.7491 95.9981 33.7923C96.1336 33.0599 96.4485 32.8621 97.1516 32.8878C98.4956 32.9354 99.8432 32.95 101.18 32.8878C102.073 32.8438 102.52 33.0123 102.132 33.9864C102.083 34.2225 102.06 34.4631 102.062 34.7041Z" fill="#D1E7BE"/>
<path d="M146.347 40.4644C145.875 40.4644 145.399 40.4314 144.93 40.4644C144.007 40.5449 143.403 40.3911 142.908 39.3658C142.095 37.7105 139.646 37.2858 137.562 38.1939C136.255 38.7894 135.215 39.8469 134.641 41.1631C134.067 42.4793 134 43.9612 134.453 45.3238C135.156 47.3453 137.588 48.107 139.865 47.0193C140.543 46.7371 141.126 46.2654 141.543 45.6607C142 44.9027 142.572 44.7159 143.41 44.7599C144.824 44.8258 146.245 44.8185 147.662 44.7599C148.515 44.7233 148.544 45.0272 148.27 45.701C146.505 50.0222 143.216 52.3219 138.668 52.8566C135.738 53.2228 132.93 52.743 130.611 50.6594C127.843 48.1582 127.096 44.1813 128.605 40.1018C130.864 34.0449 138.012 30.6758 144.088 32.928C147.127 34.0266 148.954 36.2238 149.339 39.5196C149.438 40.3618 149.148 40.5156 148.42 40.4644C147.691 40.4131 147.039 40.4644 146.347 40.4644Z" fill="#D1E7BE"/>
<path d="M119.977 52.4389C119.178 52.4389 118.376 52.4023 117.578 52.4389C116.933 52.4792 116.846 52.2155 116.97 51.6699C118.132 45.6203 119.287 39.567 120.434 33.51C120.541 32.9314 120.801 32.8326 121.313 32.8436C122.877 32.8692 124.441 32.8765 126.004 32.8436C126.663 32.8436 126.77 33.001 126.641 33.6602C125.482 39.639 124.353 45.6203 123.254 51.604C123.13 52.2778 122.829 52.4938 122.155 52.4426C121.434 52.395 120.705 52.4389 119.977 52.4389Z" fill="#D1E7BE"/>
<path d="M128.582 27.3798C128.582 29.5038 126.678 31.1737 124.341 31.1334C122.305 31.1004 120.712 29.6246 120.76 27.8156C120.818 25.7063 122.726 24.0254 125.033 24.0511C127.099 24.0584 128.6 25.4646 128.582 27.3798Z" fill="#D1E7BE"/>
<path d="M144.128 60.8872H65.79V61.9455H144.128V60.8872Z" fill="#D1E7BE"/>
</g>
<defs>
<clipPath id="clip0_953_9603">
<rect width="152.588" height="40" fill="white" transform="translate(64.7061 24)"/>
</clipPath>
</defs>
</svg>
