<svg width="238" height="40" viewBox="0 0 238 40" fill="none" xmlns="http://www.w3.org/2000/svg">
<path fill-rule="evenodd" clip-rule="evenodd" d="M24.4905 1.40277C24.8252 2.14242 24.9732 2.95319 24.9215 3.76366L24.9646 20.7217H27.8383V10.6448H37.2066V16.8925C37.1779 17.6917 37.2601 18.4912 37.4509 19.2678C37.5116 19.494 37.6166 19.7059 37.7596 19.8913C37.9027 20.0766 38.081 20.2317 38.2843 20.3474C38.8331 20.5802 39.4279 20.6836 40.0229 20.6497H42.8248V20.0163H42.2069C41.8729 20.0639 41.5322 20.0179 41.2228 19.8832C40.9133 19.7485 40.6472 19.5305 40.454 19.2534C40.1192 18.5137 39.9712 17.7029 40.0229 16.8925V0.00639389H37.1492V9.39235H27.7809V3.76366C27.8161 2.96418 27.7338 2.16387 27.5366 1.38838C27.4806 1.16012 27.3775 0.946126 27.234 0.760179C27.0904 0.574232 26.9096 0.420449 26.7032 0.308712C26.1596 0.0756645 25.5693 -0.0278283 24.979 0.00639389H22.1053V0.625418H22.7375C23.0728 0.580986 23.4138 0.630019 23.7231 0.767164C24.0323 0.904309 24.2979 1.12425 24.4905 1.40277ZM8.28277 1.25882H5.40906C2.79398 1.25882 1.5008 2.45366 1.5008 4.85773H0.94043V2.51126C0.94043 0.841364 1.83128 0.00640869 3.59861 0.00640869H18.1827V1.25882H11.0846V20.6497H8.21093L8.28277 1.25882ZM158.449 37.8669C158.414 38.4522 158.151 39.0004 157.716 39.3928C157.258 39.775 156.673 39.9703 156.078 39.9399C155.741 39.9501 155.407 39.8826 155.101 39.7429C154.794 39.6031 154.524 39.3947 154.311 39.1337C153.831 38.5313 153.59 37.7725 153.635 37.0031V36.3985C153.621 35.8722 153.729 35.3498 153.951 34.8726C154.134 34.451 154.439 34.0947 154.828 33.8505C155.224 33.6044 155.684 33.4793 156.15 33.4906C156.44 33.469 156.732 33.5071 157.008 33.6024C157.283 33.6978 157.536 33.8485 157.751 34.0452C157.966 34.242 158.139 34.4807 158.259 34.7467C158.379 35.0128 158.444 35.3005 158.449 35.5924H157.63C157.604 35.1876 157.436 34.805 157.156 34.5127C156.877 34.2729 156.517 34.1493 156.15 34.1672C155.911 34.1548 155.673 34.2023 155.457 34.3054C155.241 34.4085 155.055 34.5638 154.914 34.7574C154.585 35.2494 154.429 35.8367 154.469 36.4273V37.0319C154.443 37.6036 154.588 38.17 154.885 38.6587C155.02 38.8487 155.199 39.003 155.407 39.1083C155.615 39.2137 155.845 39.2668 156.078 39.2633C156.459 39.2912 156.837 39.1786 157.141 38.9466C157.424 38.6543 157.597 38.2726 157.63 37.8669H158.449ZM107.972 36.2978C108.422 36.6631 108.947 36.9237 109.509 37.0608C109.919 37.1771 110.303 37.3673 110.645 37.6222C110.748 37.7114 110.831 37.8219 110.888 37.9461C110.944 38.0703 110.974 38.2053 110.974 38.342C110.974 38.4786 110.944 38.6137 110.888 38.7379C110.831 38.8621 110.748 38.9726 110.645 39.0618C110.351 39.2664 109.995 39.363 109.639 39.3353C109.239 39.351 108.845 39.2346 108.518 39.0042C108.383 38.8992 108.275 38.7635 108.202 38.6083C108.13 38.4531 108.095 38.2829 108.101 38.1117H107.268C107.271 38.4538 107.382 38.7863 107.584 39.0618C107.805 39.3651 108.102 39.6037 108.446 39.7528C108.828 39.915 109.238 39.9983 109.653 39.9975C110.221 40.0226 110.781 39.8608 111.248 39.5368C111.439 39.3972 111.593 39.2125 111.696 38.999C111.798 38.7856 111.847 38.55 111.837 38.3132C111.843 38.0203 111.768 37.7315 111.622 37.4782C111.454 37.2268 111.233 37.0155 110.975 36.8592C110.589 36.652 110.178 36.4924 109.754 36.3842C109.356 36.2953 108.981 36.129 108.647 35.8947C108.545 35.8203 108.462 35.7228 108.405 35.6103C108.348 35.4978 108.317 35.3733 108.317 35.2469C108.31 35.1036 108.338 34.9607 108.398 34.8304C108.458 34.7 108.548 34.5862 108.662 34.4984C108.953 34.3028 109.295 34.1983 109.646 34.1983C109.996 34.1983 110.339 34.3028 110.63 34.4984C110.752 34.6118 110.847 34.7505 110.909 34.9047C110.971 35.0589 110.998 35.2248 110.989 35.3909H111.823C111.826 35.0499 111.731 34.7151 111.55 34.4264C111.357 34.1289 111.083 33.8938 110.759 33.7498C110.403 33.5713 110.008 33.4823 109.61 33.4906C109.056 33.465 108.51 33.6386 108.073 33.9801C107.887 34.1246 107.737 34.3103 107.635 34.5226C107.532 34.7349 107.481 34.968 107.483 35.2037C107.482 35.4106 107.524 35.6153 107.609 35.8041C107.693 35.9929 107.817 36.1613 107.972 36.2978ZM24.1457 37.867L24.2607 38.7019L24.4331 37.9533L25.6832 33.6346H26.3729L27.5798 37.9533L27.7522 38.7163L27.8816 37.867L28.8586 33.5483H29.6776L28.2408 39.8536H27.4936L26.2004 35.2757L26.0999 34.8007L25.9993 35.2757L24.663 39.8536H23.9158L22.3928 33.5771H23.2261L24.1457 37.867ZM37.1778 39.8535H36.3445V36.9744H33.1834V39.8535H32.3644V33.577H33.1834V36.269H36.3445V33.577H37.1778V39.8535ZM41.1723 36.9456H43.9454L43.888 36.269H41.1723V34.2536H44.2759V33.577H40.3389V39.8535H44.319V39.1769H41.1723V36.9456ZM49.4631 37.3199H48.0262V39.8536H47.1929V33.5771H49.2619C49.8447 33.5355 50.4225 33.7096 50.8856 34.0665C51.0895 34.2428 51.2481 34.4656 51.3481 34.7161C51.4482 34.9666 51.4866 35.2375 51.4603 35.5061C51.4708 35.8724 51.3596 36.2319 51.1442 36.5281C50.9204 36.8241 50.6161 37.049 50.2677 37.176L51.7046 39.8391H50.8137L49.4631 37.3199ZM48.0262 36.6433H49.2907C49.646 36.6579 49.9942 36.5399 50.2677 36.3122C50.389 36.208 50.4845 36.0771 50.5469 35.9298C50.6092 35.7824 50.6366 35.6226 50.627 35.4629C50.6387 35.2978 50.6138 35.1323 50.5542 34.978C50.4946 34.8237 50.4017 34.6845 50.2821 34.5703C50.0027 34.3444 49.649 34.2314 49.2907 34.2537H48.0262V36.6433ZM55.1817 36.9456H57.883V36.269H55.1817V34.2536H58.2853V33.577H54.3483V39.8535H58.3284V39.1769H55.1817V36.9456ZM69.2055 34.2536H67.1939V39.8535H66.3749V34.2536H64.3633V33.577H69.2055V34.2536ZM75.8726 39.8535H76.7059L76.7634 33.577H75.9301V36.269H72.7833V33.577H71.95V39.8535H72.7833V36.9744H75.8726V39.8535ZM83.4735 36.9456H80.7578V39.1769H83.9045V39.8535H79.9675V33.577H83.8901V34.2536H80.7866V36.269H83.5022L83.4735 36.9456ZM93.7471 38.7019L91.7068 33.577H90.6435V39.8535H91.4625V37.4063L91.3763 34.7863L93.431 39.8535H94.0632L96.1179 34.7719L96.0461 37.4063V39.8535H96.8651V33.577H95.8018L93.7471 38.7019ZM103.618 38.2124H101.003L100.414 39.8535H99.5519L101.951 33.577H102.67L105.069 39.8535H104.222L103.618 38.2124ZM101.247 37.5358H103.374L102.311 34.6567L101.247 37.5358ZM118.978 34.2536H116.967V39.8535H116.148V34.2536H114.136V33.577H118.978V34.2536ZM122.499 36.9456H125.2V36.269H122.499V34.2536H125.574V33.577H121.637V39.8535H125.645V39.1769H122.499V36.9456ZM130.732 37.3199H129.295V39.8536H128.476V33.5771H130.545C131.128 33.5355 131.706 33.7096 132.169 34.0665C132.373 34.2428 132.531 34.4656 132.631 34.7161C132.731 34.9666 132.77 35.2375 132.744 35.5061C132.747 35.8714 132.636 36.2287 132.427 36.5281C132.204 36.8241 131.899 37.049 131.551 37.176L132.988 39.8391H132.097L130.732 37.3199ZM129.295 36.6433H130.574C130.929 36.6579 131.277 36.5399 131.551 36.3122C131.672 36.208 131.768 36.0771 131.83 35.9298C131.892 35.7824 131.92 35.6226 131.91 35.4629C131.922 35.2978 131.897 35.1323 131.837 34.978C131.778 34.8237 131.685 34.6845 131.565 34.5703C131.282 34.3409 130.923 34.2277 130.56 34.2537H129.295V36.6433ZM136.436 39.8535V37.3919H137.902C138.485 37.4335 139.062 37.2593 139.525 36.9024C139.711 36.7202 139.858 36.5029 139.958 36.2631C140.058 36.0234 140.11 35.766 140.11 35.5061C140.11 35.2461 140.058 34.9887 139.958 34.749C139.858 34.5092 139.711 34.2919 139.525 34.1097C139.078 33.7307 138.501 33.5398 137.916 33.577H135.617V39.8535H136.436ZM137.873 36.7153H136.436V34.2536H137.931C138.283 34.2466 138.626 34.3696 138.893 34.5991C139.011 34.718 139.104 34.8597 139.166 35.0156C139.228 35.1715 139.257 35.3384 139.253 35.5061C139.26 35.674 139.231 35.8416 139.17 35.9979C139.108 36.1542 139.013 36.2957 138.893 36.413C138.601 36.6333 138.238 36.7406 137.873 36.7153ZM143.822 39.8535H142.988V33.577H143.822V39.8535ZM147.917 36.9456H150.618V36.269H147.917V34.2536H151.02V33.577H147.083V39.8535H151.063V39.1769H147.917V36.9456ZM162.17 36.9456H164.886V36.269H162.17V34.2536H165.274V33.577H161.337V39.8535H165.317V39.1769H162.17V36.9456ZM172.932 39.8535H172.113V33.577H172.932V39.8535ZM176.496 36.2978C176.953 36.6599 177.482 36.92 178.048 37.0608C178.457 37.154 178.846 37.3198 179.197 37.5503C179.303 37.6381 179.388 37.7481 179.446 37.8725C179.504 37.9969 179.534 38.1326 179.534 38.27C179.534 38.4075 179.504 38.5432 179.446 38.6676C179.388 38.792 179.303 38.902 179.197 38.9898C178.902 39.1902 178.548 39.2865 178.191 39.2633C177.791 39.2835 177.396 39.1667 177.071 38.9322C176.934 38.8289 176.824 38.6935 176.751 38.5379C176.679 38.3823 176.645 38.2113 176.654 38.0397H175.821C175.816 38.3851 175.922 38.723 176.122 39.0042C176.343 39.3075 176.641 39.5461 176.984 39.6952C177.366 39.8575 177.777 39.9407 178.191 39.9399C178.755 39.9684 179.312 39.8061 179.772 39.4793C179.966 39.3413 180.122 39.1572 180.228 38.9437C180.333 38.7301 180.384 38.4937 180.375 38.2556C180.381 37.9628 180.307 37.674 180.16 37.4207C179.991 37.1657 179.764 36.9538 179.499 36.8017C179.114 36.592 178.703 36.4323 178.278 36.3266C177.881 36.2346 177.506 36.0686 177.171 35.8372C177.071 35.762 176.99 35.664 176.935 35.5514C176.88 35.4388 176.853 35.3147 176.855 35.1894C176.848 35.046 176.876 34.9031 176.936 34.7728C176.996 34.6425 177.087 34.5286 177.2 34.4408C177.474 34.2403 177.81 34.1434 178.148 34.1673C178.518 34.1416 178.884 34.2603 179.168 34.4984C179.288 34.6135 179.381 34.7525 179.443 34.9063C179.505 35.0601 179.534 35.2252 179.528 35.3909H180.361C180.359 35.0486 180.259 34.714 180.074 34.4264C179.883 34.1326 179.615 33.8981 179.298 33.7498C178.941 33.5729 178.547 33.4841 178.148 33.4907C177.594 33.4624 177.048 33.6363 176.611 33.9801C176.42 34.1198 176.266 34.3045 176.163 34.5179C176.06 34.7314 176.012 34.967 176.022 35.2038C176.018 35.4095 176.059 35.6136 176.14 35.8023C176.222 35.991 176.343 36.16 176.496 36.2978ZM188.192 33.577L190.246 38.7019L192.287 33.577H193.35V39.8535H192.531V37.4063V34.7719L190.606 39.8535H189.973L187.933 34.7863L188.005 37.4063V39.8535H187.186V33.577H188.192ZM197.488 38.2124H200.103L200.664 39.8535H201.554L199.155 33.577H198.436L196.051 39.8535H196.899L197.488 38.2124ZM199.916 37.5358H197.79L198.853 34.6567L199.916 37.5358ZM204.155 39.8536V33.5771H205.923C206.424 33.5756 206.918 33.6992 207.36 33.9369C207.774 34.1819 208.108 34.5419 208.322 34.9734C208.559 35.4466 208.677 35.9702 208.667 36.4994V36.9024C208.679 37.441 208.561 37.9744 208.322 38.4572C208.111 38.8916 207.769 39.249 207.345 39.4793C206.905 39.7225 206.411 39.8512 205.908 39.8536H204.155ZM204.989 34.2537V39.177H205.851C206.12 39.1867 206.388 39.1377 206.636 39.0333C206.884 38.9289 207.106 38.7716 207.288 38.5723C207.673 38.0996 207.863 37.4969 207.819 36.888V36.5138C207.861 35.9187 207.682 35.3291 207.317 34.8583C207.141 34.6515 206.92 34.4891 206.67 34.384C206.421 34.279 206.15 34.2343 205.88 34.2537H204.989ZM212.518 36.9456H215.233V36.269H212.518V34.2536H215.621V33.577H211.684V39.8535H215.664V39.1769H212.518V36.9456ZM49.6785 3.76367C49.7269 2.95193 49.5739 2.14082 49.2331 1.40279C49.0428 1.12544 48.7798 0.906098 48.473 0.768936C48.1662 0.631774 47.8276 0.582121 47.4945 0.625432H46.9197V0.00640869H60.2107C61.9924 0.00640869 62.8689 0.841363 62.8689 2.51126V4.85773H62.251C62.251 2.45366 60.9435 1.25882 58.3428 1.25882H52.5953V9.39237H61.0297V10.6448H52.5953V19.3973H58.0554C59.2314 19.4606 60.4015 19.1912 61.432 18.62C62.3393 17.9559 63.0173 17.025 63.3718 15.9568L63.9896 16.1151L62.8976 19.0806C62.7452 19.5711 62.4296 19.9944 62.0034 20.2799C61.5772 20.5655 61.0662 20.696 60.5555 20.6497H49.7935L49.6785 3.76367ZM81.692 1.40279C82.0393 2.13872 82.1926 2.95152 82.1374 3.76368L82.2092 20.6498H92.9713C93.4819 20.696 93.993 20.5655 94.4192 20.28C94.8454 19.9944 95.161 19.5711 95.3134 19.0806L96.4054 16.1151L95.7875 15.9568C95.4438 17.0305 94.7635 17.9645 93.8478 18.62C92.8226 19.1915 91.657 19.461 90.4855 19.3973H85.0111V10.7024H93.4455V9.44995H85.0111V1.31642H90.7585C93.3592 1.31642 94.6668 2.51126 94.6668 4.91533H95.2846V2.56884C95.2846 0.898944 94.4082 0.0640106 92.6408 0.0640106H79.3355V0.683012H79.9677C80.2933 0.634638 80.6259 0.676102 80.9297 0.802925C81.2335 0.929748 81.497 1.13713 81.692 1.40279ZM123.073 21.3695C122.237 20.9017 121.606 20.1362 121.306 19.2246C120.933 17.9641 120.763 16.6519 120.803 15.3378V3.28861L113.015 20.6497H112.383L104.265 2.97191V20.6497H103.015V0.00640869H105.989L113.475 16.2735L120.817 0.00640869H123.691V15.3378C123.621 16.8697 123.871 18.3994 124.424 19.8292C124.584 20.2937 124.885 20.6968 125.284 20.983C125.683 21.2692 126.16 21.4244 126.651 21.4271V22.0605C125.419 22.1369 124.188 21.8992 123.073 21.3695ZM132.858 1.40279C133.193 2.14243 133.341 2.9532 133.289 3.76367L133.347 20.6497H144.123C144.633 20.6933 145.143 20.5617 145.569 20.2766C145.994 19.9914 146.31 19.5696 146.465 19.0806L147.557 16.1151L146.925 15.9568C146.58 17.0262 145.906 17.9586 144.999 18.62C143.969 19.1912 142.799 19.4606 141.623 19.3973H136.163V10.6448H144.583V9.39237H136.163V1.25882H141.91C144.511 1.25882 145.819 2.45366 145.819 4.85773H146.436V2.51126C146.436 0.841364 145.546 0.00640869 143.778 0.00640869H130.487V0.625432H131.105C131.44 0.579337 131.782 0.627632 132.092 0.764917C132.401 0.902201 132.667 1.12305 132.858 1.40279ZM165.676 19.9731C164.572 18.9562 163.649 17.7587 162.946 16.4318L159.828 11.1054H157.644V20.6497H154.77V3.76364C154.822 2.95317 154.674 2.1424 154.339 1.40276C154.148 1.12302 153.883 0.902171 153.573 0.764887C153.263 0.627603 152.922 0.579308 152.586 0.625403H151.969V0.00637932H160.087C161.943 -0.0187146 163.781 0.380045 165.461 1.17242C166.268 1.58351 166.932 2.22991 167.365 3.02651C167.799 3.8231 167.981 4.73254 167.889 5.63508C167.889 8.41823 166.222 10.1889 162.889 10.9471L166.165 16.4318C166.713 17.4338 167.416 18.3424 168.248 19.1238C168.849 19.6421 169.599 19.9548 170.389 20.0163V20.6497C170.131 20.7553 169.861 20.8278 169.584 20.8657C169.229 20.9291 168.868 20.9628 168.507 20.9664C167.477 20.9731 166.477 20.6221 165.676 19.9731ZM162.084 9.55069C162.844 9.24653 163.512 8.75061 164.024 8.11113C164.564 7.41835 164.844 6.55704 164.814 5.67826C164.851 4.7632 164.571 3.86346 164.024 3.13023C163.511 2.49216 162.843 1.99654 162.084 1.69067C161.426 1.38306 160.712 1.21636 159.986 1.20122C159.195 1.20685 158.408 1.31327 157.644 1.51793V9.79542C158.408 10.0001 159.195 10.1065 159.986 10.1121C160.715 10.0623 161.427 9.8717 162.084 9.55069ZM187.329 16.7341C187.699 18.0595 188.53 19.2085 189.672 19.9731C190.546 20.497 191.541 20.7847 192.56 20.8081C192.981 20.8106 193.402 20.7573 193.81 20.6497V20.0163C193.082 19.9898 192.386 19.7098 191.841 19.2246C191.217 18.4876 190.73 17.644 190.404 16.7341L183.536 0.00640869H182.602L173.866 20.6497H175.303L177.803 14.7044H186.539L187.329 16.7341ZM185.921 13.4519H178.277L182.171 4.38269L185.921 13.4519ZM199.471 3.76366C199.526 2.95149 199.373 2.13869 199.026 1.40277C198.837 1.12421 198.574 0.90394 198.267 0.766637C197.959 0.629335 197.62 0.580439 197.287 0.625418H196.655V0.00639389H199.529C200.119 -0.0278283 200.709 0.0756645 201.253 0.308712C201.459 0.420449 201.64 0.574232 201.784 0.760179C201.927 0.946126 202.03 1.16012 202.086 1.38838C202.277 2.165 202.359 2.96438 202.33 3.76366V19.3973H213.409V20.6497H199.529L199.471 3.76366ZM218.97 1.40279C219.317 2.13871 219.47 2.95151 219.415 3.76367V20.6497H225.593C227.755 20.7085 229.9 20.2599 231.858 19.3398C233.495 18.5344 234.848 17.249 235.738 15.6545C236.638 13.9801 237.089 12.1 237.045 10.1985C237.122 8.79522 236.883 7.39251 236.346 6.09424C235.809 4.79597 234.987 3.63537 233.942 2.69839C231.872 0.898931 228.812 0.00640869 224.789 0.00640869H216.599V0.625432H217.231C217.564 0.580454 217.903 0.629349 218.21 0.766652C218.518 0.903954 218.78 1.12423 218.97 1.40279ZM232.548 15.1938C231.901 16.5112 230.908 17.6263 229.674 18.4184C228.395 19.1872 226.927 19.5812 225.435 19.5557C224.366 19.5362 223.301 19.401 222.26 19.1526V1.60433C223.269 1.28264 224.319 1.11283 225.378 1.10047C226.894 1.06884 228.389 1.46814 229.688 2.25212C230.93 3.04693 231.926 4.17384 232.562 5.50555C233.28 7.00985 233.639 8.66083 233.611 10.3281C233.647 12.0115 233.282 13.6792 232.548 15.1938Z" fill="url(#paint0_linear_916_9342)"/>
<defs>
<linearGradient id="paint0_linear_916_9342" x1="0.94043" y1="40" x2="237.059" y2="40" gradientUnits="userSpaceOnUse">
<stop stop-color="#BF852B"/>
<stop offset="0.609375" stop-color="#F0CB81"/>
<stop offset="1" stop-color="#BF852B"/>
</linearGradient>
</defs>
</svg>
